<?xml version="1.0" encoding="UTF-8" standalone="no"?>
<!DOCTYPE svg PUBLIC "-//W3C//DTD SVG 1.1//EN" "http://www.w3.org/Graphics/SVG/1.1/DTD/svg11.dtd">
<svg xmlns="http://www.w3.org/2000/svg" version="1.1" viewBox="0.00 0.00 128.00 128.00">
<g stroke-width="2.00" fill="none" stroke-linecap="butt">
<path stroke="#a49ab2" vector-effect="non-scaling-stroke" d="
  M 4.50 121.34
  Q 4.41 121.90 4.90 122.08
  Q 5.23 122.19 5.56 122.02
  Q 5.89 121.85 6.14 121.62
  A 0.97 0.96 29.4 0 1 7.01 121.38
  Q 7.55 121.51 7.81 121.07
  C 8.28 120.22 9.65 119.28 10.46 118.75
  Q 10.58 118.67 10.66 118.79
  L 10.66 118.79
  Q 10.73 118.88 10.64 118.95
  Q 8.53 120.49 6.73 122.34
  Q 6.38 122.70 6.38 123.21
  L 6.38 126.25
  Q 6.38 126.70 5.93 126.72
  Q 5.34 126.74 4.78 126.97
  Q 4.06 127.26 4.83 127.32
  Q 5.74 127.38 6.62 126.95
  Q 7.11 126.72 7.17 126.18
  Q 7.56 122.36 11.07 119.56
  Q 14.13 117.10 16.88 114.36
  Q 17.71 113.53 18.79 112.84
  C 21.61 111.03 26.02 112.14 28.71 112.21
  Q 37.03 112.41 45.36 112.60
  Q 45.38 112.60 48.13 112.83
  Q 50.45 113.02 52.80 112.80
  Q 60.26 112.09 72.75 112.60
  Q 80.96 112.93 89.98 112.38
  Q 91.88 112.27 93.74 112.43
  Q 93.96 112.44 93.94 112.66
  L 93.93 112.92
  Q 93.92 112.97 93.87 112.97
  L 72.46 113.41"
/>
<path stroke="#877d93" vector-effect="non-scaling-stroke" d="
  M 72.46 113.41
  C 67.42 113.35 63.28 113.01 60.83 113.65
  Q 59.92 113.89 59.15 113.88
  Q 50.32 113.82 41.17 113.83
  Q 40.27 113.83 39.38 113.53
  C 38.06 113.09 36.31 113.48 34.91 113.38
  Q 27.99 112.90 21.06 113.11
  A 1.02 1.02 0.0 0 0 20.30 113.50
  Q 18.07 116.33 15.50 119.00
  Q 14.86 119.67 14.23 119.82
  Q 13.74 119.93 13.35 120.24
  L 11.16 121.94
  Q 10.75 122.26 10.59 122.76
  L 10.10 124.31
  Q 9.98 124.68 9.91 124.29
  Q 9.68 122.93 10.50 121.64
  Q 10.84 121.12 10.42 121.58
  Q 9.36 122.74 9.09 124.22
  Q 9.01 124.70 9.44 124.93
  Q 12.28 126.42 15.19 126.24
  Q 36.18 124.92 55.72 125.53
  Q 57.29 125.58 58.82 125.43
  C 60.82 125.24 62.73 125.57 64.74 125.57
  Q 89.08 125.63 112.20 125.82
  Q 118.55 125.87 126.00 126.32
  A 0.80 0.79 89.1 0 0 126.84 125.44
  Q 126.56 122.46 126.54 119.66
  Q 126.26 75.24 126.08 27.96
  Q 126.05 20.80 126.48 12.74
  Q 126.59 10.65 124.98 9.60
  A 1.91 1.91 0.0 0 0 122.32 10.19
  Q 120.91 12.46 119.78 14.85
  Q 119.10 16.29 117.89 17.39
  Q 116.46 18.68 115.23 19.85
  Q 115.12 19.96 115.07 19.81
  Q 115.06 19.76 115.02 19.72
  Q 114.92 19.61 114.79 19.71
  Q 114.61 19.85 114.46 20.04"
/>
<path stroke="#a49ab2" vector-effect="non-scaling-stroke" d="
  M 114.46 20.04
  Q 114.33 20.24 114.16 20.26
  Q 113.78 20.32 113.98 19.99
  C 114.31 19.44 114.32 18.87 114.64 18.42
  Q 115.99 16.50 117.37 14.62
  Q 118.74 12.77 119.89 10.73
  Q 121.21 8.38 123.25 6.24
  A 1.12 1.12 0.0 0 1 124.24 5.92
  Q 126.06 6.25 126.80 4.57
  A 0.64 0.63 28.7 0 0 126.56 3.78
  Q 125.53 3.11 124.21 3.36
  A 1.39 1.39 0.0 0 1 123.30 3.22
  Q 122.08 2.57 120.75 2.60"
/>
<path stroke="#bcb2ca" vector-effect="non-scaling-stroke" d="
  M 120.75 2.60
  Q 118.46 1.50 115.25 1.47
  Q 58.50 0.95 14.85 1.47
  C 10.54 1.52 6.32 0.11 2.07 1.12
  A 1.58 1.58 0.0 0 0 0.89 2.96
  Q 2.12 9.04 2.13 16.00
  Q 2.22 64.88 2.26 113.75
  Q 2.27 118.47 4.50 121.34"
/>
<path stroke="#c2b8cf" vector-effect="non-scaling-stroke" d="
  M 120.75 2.60
  Q 122.28 3.61 121.69 4.98
  Q 120.94 6.74 119.77 7.58
  Q 118.83 8.25 118.04 9.07
  Q 117.37 9.75 116.52 10.04
  Q 115.43 10.40 114.63 11.23
  C 112.97 12.98 111.42 15.77 108.73 16.01
  Q 106.31 16.22 103.89 16.08
  Q 101.52 15.95 99.08 15.95
  C 89.46 15.93 79.95 16.50 70.24 16.53
  Q 44.79 16.60 19.32 16.27
  Q 17.06 16.24 17.04 18.51
  Q 16.83 49.58 16.85 80.25
  Q 16.85 93.32 17.27 106.13
  Q 17.32 107.37 17.05 108.11
  Q 16.14 110.62 13.56 112.05
  Q 12.37 112.70 11.87 113.61
  Q 9.97 117.04 7.09 119.67
  Q 6.91 119.84 7.08 120.01
  L 7.09 120.02
  Q 7.25 120.17 7.40 120.01
  Q 8.36 118.98 9.40 118.02
  Q 9.73 117.71 9.65 118.16
  Q 9.51 118.93 7.97 119.91
  Q 6.31 120.96 4.50 121.34"
/>
<path stroke="#8d8399" vector-effect="non-scaling-stroke" d="
  M 114.46 20.04
  Q 114.52 20.25 114.33 20.52
  A 0.81 0.81 0.0 0 0 114.17 21.06
  C 114.31 24.23 114.76 27.42 114.58 30.62
  Q 114.19 37.75 114.28 45.04
  Q 114.38 53.00 114.31 59.47
  Q 114.21 68.46 114.21 77.73
  Q 114.20 85.63 114.02 94.28
  Q 113.84 102.48 113.73 110.85
  A 2.30 2.30 0.0 0 1 111.47 113.12
  Q 103.54 113.25 95.25 113.63
  Q 90.48 113.84 72.46 113.41"
/>
</g>
<path fill="#9e94ac" d="
  M 0.00 0.00
  L 128.00 0.00
  L 128.00 128.00
  L 0.00 128.00
  L 0.00 0.00
  Z
  M 4.50 121.34
  Q 4.41 121.90 4.90 122.08
  Q 5.23 122.19 5.56 122.02
  Q 5.89 121.85 6.14 121.62
  A 0.97 0.96 29.4 0 1 7.01 121.38
  Q 7.55 121.51 7.81 121.07
  C 8.28 120.22 9.65 119.28 10.46 118.75
  Q 10.58 118.67 10.66 118.79
  L 10.66 118.79
  Q 10.73 118.88 10.64 118.95
  Q 8.53 120.49 6.73 122.34
  Q 6.38 122.70 6.38 123.21
  L 6.38 126.25
  Q 6.38 126.70 5.93 126.72
  Q 5.34 126.74 4.78 126.97
  Q 4.06 127.26 4.83 127.32
  Q 5.74 127.38 6.62 126.95
  Q 7.11 126.72 7.17 126.18
  Q 7.56 122.36 11.07 119.56
  Q 14.13 117.10 16.88 114.36
  Q 17.71 113.53 18.79 112.84
  C 21.61 111.03 26.02 112.14 28.71 112.21
  Q 37.03 112.41 45.36 112.60
  Q 45.38 112.60 48.13 112.83
  Q 50.45 113.02 52.80 112.80
  Q 60.26 112.09 72.75 112.60
  Q 80.96 112.93 89.98 112.38
  Q 91.88 112.27 93.74 112.43
  Q 93.96 112.44 93.94 112.66
  L 93.93 112.92
  Q 93.92 112.97 93.87 112.97
  L 72.46 113.41
  C 67.42 113.35 63.28 113.01 60.83 113.65
  Q 59.92 113.89 59.15 113.88
  Q 50.32 113.82 41.17 113.83
  Q 40.27 113.83 39.38 113.53
  C 38.06 113.09 36.31 113.48 34.91 113.38
  Q 27.99 112.90 21.06 113.11
  A 1.02 1.02 0.0 0 0 20.30 113.50
  Q 18.07 116.33 15.50 119.00
  Q 14.86 119.67 14.23 119.82
  Q 13.74 119.93 13.35 120.24
  L 11.16 121.94
  Q 10.75 122.26 10.59 122.76
  L 10.10 124.31
  Q 9.98 124.68 9.91 124.29
  Q 9.68 122.93 10.50 121.64
  Q 10.84 121.12 10.42 121.58
  Q 9.36 122.74 9.09 124.22
  Q 9.01 124.70 9.44 124.93
  Q 12.28 126.42 15.19 126.24
  Q 36.18 124.92 55.72 125.53
  Q 57.29 125.58 58.82 125.43
  C 60.82 125.24 62.73 125.57 64.74 125.57
  Q 89.08 125.63 112.20 125.82
  Q 118.55 125.87 126.00 126.32
  A 0.80 0.79 89.1 0 0 126.84 125.44
  Q 126.56 122.46 126.54 119.66
  Q 126.26 75.24 126.08 27.96
  Q 126.05 20.80 126.48 12.74
  Q 126.59 10.65 124.98 9.60
  A 1.91 1.91 0.0 0 0 122.32 10.19
  Q 120.91 12.46 119.78 14.85
  Q 119.10 16.29 117.89 17.39
  Q 116.46 18.68 115.23 19.85
  Q 115.12 19.96 115.07 19.81
  Q 115.06 19.76 115.02 19.72
  Q 114.92 19.61 114.79 19.71
  Q 114.61 19.85 114.46 20.04
  Q 114.33 20.24 114.16 20.26
  Q 113.78 20.32 113.98 19.99
  C 114.31 19.44 114.32 18.87 114.64 18.42
  Q 115.99 16.50 117.37 14.62
  Q 118.74 12.77 119.89 10.73
  Q 121.21 8.38 123.25 6.24
  A 1.12 1.12 0.0 0 1 124.24 5.92
  Q 126.06 6.25 126.80 4.57
  A 0.64 0.63 28.7 0 0 126.56 3.78
  Q 125.53 3.11 124.21 3.36
  A 1.39 1.39 0.0 0 1 123.30 3.22
  Q 122.08 2.57 120.75 2.60
  Q 118.46 1.50 115.25 1.47
  Q 58.50 0.95 14.85 1.47
  C 10.54 1.52 6.32 0.11 2.07 1.12
  A 1.58 1.58 0.0 0 0 0.89 2.96
  Q 2.12 9.04 2.13 16.00
  Q 2.22 64.88 2.26 113.75
  Q 2.27 118.47 4.50 121.34
  Z"
/>
<path fill="#d9cfe7" d="
  M 120.75 2.60
  Q 122.28 3.61 121.69 4.98
  Q 120.94 6.74 119.77 7.58
  Q 118.83 8.25 118.04 9.07
  Q 117.37 9.75 116.52 10.04
  Q 115.43 10.40 114.63 11.23
  C 112.97 12.98 111.42 15.77 108.73 16.01
  Q 106.31 16.22 103.89 16.08
  Q 101.52 15.95 99.08 15.95
  C 89.46 15.93 79.95 16.50 70.24 16.53
  Q 44.79 16.60 19.32 16.27
  Q 17.06 16.24 17.04 18.51
  Q 16.83 49.58 16.85 80.25
  Q 16.85 93.32 17.27 106.13
  Q 17.32 107.37 17.05 108.11
  Q 16.14 110.62 13.56 112.05
  Q 12.37 112.70 11.87 113.61
  Q 9.97 117.04 7.09 119.67
  Q 6.91 119.84 7.08 120.01
  L 7.09 120.02
  Q 7.25 120.17 7.40 120.01
  Q 8.36 118.98 9.40 118.02
  Q 9.73 117.71 9.65 118.16
  Q 9.51 118.93 7.97 119.91
  Q 6.31 120.96 4.50 121.34
  Q 2.27 118.47 2.26 113.75
  Q 2.22 64.88 2.13 16.00
  Q 2.12 9.04 0.89 2.96
  A 1.58 1.58 0.0 0 1 2.07 1.12
  C 6.32 0.11 10.54 1.52 14.85 1.47
  Q 58.50 0.95 115.25 1.47
  Q 118.46 1.50 120.75 2.60
  Z"
/>
<path fill="#aaa0b7" d="
  M 114.46 20.04
  Q 114.52 20.25 114.33 20.52
  A 0.81 0.81 0.0 0 0 114.17 21.06
  C 114.31 24.23 114.76 27.42 114.58 30.62
  Q 114.19 37.75 114.28 45.04
  Q 114.38 53.00 114.31 59.47
  Q 114.21 68.46 114.21 77.73
  Q 114.20 85.63 114.02 94.28
  Q 113.84 102.48 113.73 110.85
  A 2.30 2.30 0.0 0 1 111.47 113.12
  Q 103.54 113.25 95.25 113.63
  Q 90.48 113.84 72.46 113.41
  L 93.87 112.97
  Q 93.92 112.97 93.93 112.92
  L 93.94 112.66
  Q 93.96 112.44 93.74 112.43
  Q 91.88 112.27 89.98 112.38
  Q 80.96 112.93 72.75 112.60
  Q 60.26 112.09 52.80 112.80
  Q 50.45 113.02 48.13 112.83
  Q 45.38 112.60 45.36 112.60
  Q 37.03 112.41 28.71 112.21
  C 26.02 112.14 21.61 111.03 18.79 112.84
  Q 17.71 113.53 16.88 114.36
  Q 14.13 117.10 11.07 119.56
  Q 7.56 122.36 7.17 126.18
  Q 7.11 126.72 6.62 126.95
  Q 5.74 127.38 4.83 127.32
  Q 4.06 127.26 4.78 126.97
  Q 5.34 126.74 5.93 126.72
  Q 6.38 126.70 6.38 126.25
  L 6.38 123.21
  Q 6.38 122.70 6.73 122.34
  Q 8.53 120.49 10.64 118.95
  Q 10.73 118.88 10.66 118.79
  L 10.66 118.79
  Q 10.58 118.67 10.46 118.75
  C 9.65 119.28 8.28 120.22 7.81 121.07
  Q 7.55 121.51 7.01 121.38
  A 0.97 0.96 29.4 0 0 6.14 121.62
  Q 5.89 121.85 5.56 122.02
  Q 5.23 122.19 4.90 122.08
  Q 4.41 121.90 4.50 121.34
  Q 6.31 120.96 7.97 119.91
  Q 9.51 118.93 9.65 118.16
  Q 9.73 117.71 9.40 118.02
  Q 8.36 118.98 7.40 120.01
  Q 7.25 120.17 7.09 120.02
  L 7.08 120.01
  Q 6.91 119.84 7.09 119.67
  Q 9.97 117.04 11.87 113.61
  Q 12.37 112.70 13.56 112.05
  Q 16.14 110.62 17.05 108.11
  Q 17.32 107.37 17.27 106.13
  Q 16.85 93.32 16.85 80.25
  Q 16.83 49.58 17.04 18.51
  Q 17.06 16.24 19.32 16.27
  Q 44.79 16.60 70.24 16.53
  C 79.95 16.50 89.46 15.93 99.08 15.95
  Q 101.52 15.95 103.89 16.08
  Q 106.31 16.22 108.73 16.01
  C 111.42 15.77 112.97 12.98 114.63 11.23
  Q 115.43 10.40 116.52 10.04
  Q 117.37 9.75 118.04 9.07
  Q 118.83 8.25 119.77 7.58
  Q 120.94 6.74 121.69 4.98
  Q 122.28 3.61 120.75 2.60
  Q 122.08 2.57 123.30 3.22
  A 1.39 1.39 0.0 0 0 124.21 3.36
  Q 125.53 3.11 126.56 3.78
  A 0.64 0.63 28.7 0 1 126.80 4.57
  Q 126.06 6.25 124.24 5.92
  A 1.12 1.12 0.0 0 0 123.25 6.24
  Q 121.21 8.38 119.89 10.73
  Q 118.74 12.77 117.37 14.62
  Q 115.99 16.50 114.64 18.42
  C 114.32 18.87 114.31 19.44 113.98 19.99
  Q 113.78 20.32 114.16 20.26
  Q 114.33 20.24 114.46 20.04
  Z"
/>
<path fill="#70667a" d="
  M 72.46 113.41
  Q 90.48 113.84 95.25 113.63
  Q 103.54 113.25 111.47 113.12
  A 2.30 2.30 0.0 0 0 113.73 110.85
  Q 113.84 102.48 114.02 94.28
  Q 114.20 85.63 114.21 77.73
  Q 114.21 68.46 114.31 59.47
  Q 114.38 53.00 114.28 45.04
  Q 114.19 37.75 114.58 30.62
  C 114.76 27.42 114.31 24.23 114.17 21.06
  A 0.81 0.81 0.0 0 1 114.33 20.52
  Q 114.52 20.25 114.46 20.04
  Q 114.61 19.85 114.79 19.71
  Q 114.92 19.61 115.02 19.72
  Q 115.06 19.76 115.07 19.81
  Q 115.12 19.96 115.23 19.85
  Q 116.46 18.68 117.89 17.39
  Q 119.10 16.29 119.78 14.85
  Q 120.91 12.46 122.32 10.19
  A 1.91 1.91 0.0 0 1 124.98 9.60
  Q 126.59 10.65 126.48 12.74
  Q 126.05 20.80 126.08 27.96
  Q 126.26 75.24 126.54 119.66
  Q 126.56 122.46 126.84 125.44
  A 0.80 0.79 89.1 0 1 126.00 126.32
  Q 118.55 125.87 112.20 125.82
  Q 89.08 125.63 64.74 125.57
  C 62.73 125.57 60.82 125.24 58.82 125.43
  Q 57.29 125.58 55.72 125.53
  Q 36.18 124.92 15.19 126.24
  Q 12.28 126.42 9.44 124.93
  Q 9.01 124.70 9.09 124.22
  Q 9.36 122.74 10.42 121.58
  Q 10.84 121.12 10.50 121.64
  Q 9.68 122.93 9.91 124.29
  Q 9.98 124.68 10.10 124.31
  L 10.59 122.76
  Q 10.75 122.26 11.16 121.94
  L 13.35 120.24
  Q 13.74 119.93 14.23 119.82
  Q 14.86 119.67 15.50 119.00
  Q 18.07 116.33 20.30 113.50
  A 1.02 1.02 0.0 0 1 21.06 113.11
  Q 27.99 112.90 34.91 113.38
  C 36.31 113.48 38.06 113.09 39.38 113.53
  Q 40.27 113.83 41.17 113.83
  Q 50.32 113.82 59.15 113.88
  Q 59.92 113.89 60.83 113.65
  C 63.28 113.01 67.42 113.35 72.46 113.41
  Z"
/>
</svg>
