<?xml version="1.0" encoding="UTF-8" standalone="no"?>
<!DOCTYPE svg PUBLIC "-//W3C//DTD SVG 1.1//EN" "http://www.w3.org/Graphics/SVG/1.1/DTD/svg11.dtd">
<svg xmlns="http://www.w3.org/2000/svg" version="1.1" viewBox="0.00 0.00 128.00 128.00">
<g stroke-width="2.00" fill="none" stroke-linecap="butt">
<path stroke="#f3f3f3" vector-effect="non-scaling-stroke" d="
  M 16.90 102.21
  C 16.00 97.33 16.61 92.54 16.62 87.63
  Q 16.65 54.43 16.77 20.50
  Q 16.78 16.41 20.97 16.36
  C 26.78 16.29 32.03 17.21 37.67 17.25
  Q 54.07 17.36 70.25 16.61
  C 83.23 16.01 95.03 16.26 107.26 16.43
  C 110.69 16.48 113.67 12.70 115.96 10.49
  C 117.85 8.68 120.02 8.05 121.18 5.42
  A 2.14 2.14 0.0 0 0 120.36 2.74
  Q 118.16 1.38 115.56 1.37
  Q 103.12 1.32 92.39 1.02
  C 88.18 0.90 83.72 1.41 79.46 1.41
  Q 48.35 1.40 15.84 1.20
  C 11.14 1.17 6.42 0.52 1.86 0.93
  A 1.40 1.40 0.0 0 0 0.60 2.50
  C 1.32 8.20 2.22 13.81 2.01 19.47
  Q 1.68 28.21 1.78 37.18
  Q 2.02 60.56 1.75 83.63
  C 1.63 93.91 1.92 104.18 2.07 114.73
  Q 2.11 117.29 3.44 119.84
  A 1.75 1.74 -18.7 0 0 5.29 120.75
  C 8.62 120.14 11.04 114.74 13.13 112.40
  C 14.44 110.94 16.14 109.81 16.73 107.93
  Q 17.51 105.45 16.90 102.21"
/>
<path stroke="#d8cad7" vector-effect="non-scaling-stroke" d="
  M 17.48 118.74
  Q 16.34 119.62 15.26 120.59
  C 14.36 121.40 13.14 121.59 12.03 122.00
  Q 11.05 122.35 10.87 123.28
  Q 10.58 124.72 11.94 125.47
  Q 13.54 126.36 15.74 126.11
  Q 23.99 125.20 32.42 125.12
  Q 40.31 125.05 45.59 124.81
  C 55.69 124.34 65.91 124.63 75.82 124.61
  C 85.94 124.58 97.11 125.16 108.02 124.75
  C 112.37 124.58 116.69 125.23 121.04 124.92
  C 122.45 124.82 123.70 125.26 125.09 125.44
  A 0.94 0.94 0.0 0 0 126.14 124.40
  C 125.19 116.45 126.12 108.24 126.06 100.49
  Q 125.86 74.28 125.82 51.00
  Q 125.79 33.95 126.24 13.02
  Q 126.26 12.08 125.90 10.79
  A 1.62 1.62 0.0 0 0 123.06 10.23
  Q 121.83 11.83 121.00 13.59
  Q 119.33 17.15 115.63 19.63
  Q 115.19 19.92 115.03 20.43
  Q 114.47 22.26 114.74 24.26
  Q 115.21 27.81 115.29 31.01
  C 115.97 57.97 115.57 85.16 115.35 111.87
  A 2.81 2.80 85.2 0 1 113.04 114.61
  Q 109.92 115.16 106.21 114.72
  Q 102.81 114.32 99.29 115.33
  Q 98.70 115.49 98.10 115.38
  Q 96.57 115.10 95.55 115.72
  Q 94.69 116.24 93.55 116.52
  Q 92.45 116.79 91.36 117.07
  Q 90.25 117.35 89.14 117.37
  Q 81.91 117.54 75.04 116.86
  A 74.77 37.38 7.0 0 0 64.54 116.18
  Q 58.49 116.01 46.54 116.10
  Q 44.05 116.13 39.50 115.76
  C 35.54 115.44 31.56 116.06 27.66 115.18
  Q 24.99 114.58 22.67 115.00
  Q 20.71 115.35 19.48 116.72
  Q 18.11 118.25 17.48 118.74"
/>
<path stroke="#bebebe" vector-effect="non-scaling-stroke" d="
  M 39.23 68.10
  L 39.12 105.50
  A 1.61 1.60 88.5 0 0 40.81 107.11
  L 45.23 106.88
  Q 46.71 106.81 46.75 105.32
  Q 47.21 86.80 46.91 69.04
  Q 46.91 68.78 46.83 68.54
  Q 46.78 68.37 46.76 68.13"
/>
<path stroke="#c082b3" vector-effect="non-scaling-stroke" d="
  M 46.76 68.13
  Q 46.64 68.41 47.04 67.98"
/>
<path stroke="#e08298" vector-effect="non-scaling-stroke" d="
  M 47.04 67.98
  L 54.37 67.98
  Q 54.96 67.98 54.97 67.38
  L 55.00 63.75
  A 0.75 0.75 0.0 0 1 55.75 63.01
  L 62.21 62.98
  Q 62.72 62.98 62.86 62.49
  Q 63.16 61.46 62.97 60.27
  Q 62.77 59.08 63.98 59.06
  L 71.26 58.89
  Q 71.91 58.88 71.94 58.24
  L 72.07 55.75
  A 0.69 0.69 0.0 0 1 72.75 55.09
  L 80.29 54.90
  Q 80.96 54.88 80.97 54.21
  L 81.02 51.76
  Q 81.03 51.05 81.74 51.04
  L 87.89 50.97
  A 1.13 1.13 0.0 0 0 89.00 49.86
  L 89.04 47.78
  A 0.69 0.68 -0.0 0 1 89.72 47.11
  L 96.93 46.92
  Q 98.04 46.89 98.02 45.78
  L 97.99 44.12
  Q 97.97 43.01 96.87 43.01
  L 89.61 42.96
  Q 89.03 42.95 89.02 42.36
  L 88.98 39.75
  Q 88.97 39.02 88.25 39.01
  L 81.75 38.96
  Q 81.04 38.95 81.03 38.24
  L 80.98 35.87
  A 0.87 0.86 0.0 0 0 80.12 35.02
  L 72.73 34.95
  A 0.73 0.72 89.6 0 1 72.01 34.23
  L 71.99 30.79
  A 0.73 0.72 -89.6 0 0 71.29 30.07
  L 63.79 29.90
  A 0.87 0.87 0.0 0 1 62.95 28.93
  Q 63.09 27.80 62.85 26.72
  Q 62.70 26.09 62.05 26.07
  L 55.84 25.88
  A 0.85 0.85 0.0 0 1 55.03 25.09
  L 54.90 22.81
  Q 54.87 22.25 54.30 22.23
  L 47.05 22.04"
/>
<path stroke="#c082b3" vector-effect="non-scaling-stroke" d="
  M 47.05 22.04
  L 39.82 21.76
  A 0.79 0.78 0.7 0 0 39.00 22.55
  L 39.23 68.10"
/>
<path stroke="#ba1e65" vector-effect="non-scaling-stroke" d="
  M 47.05 22.04
  L 47.04 67.98"
/>
<path stroke="#985a8b" vector-effect="non-scaling-stroke" d="
  M 46.76 68.13
  L 39.23 68.10"
/>
</g>
<path fill="#e6e6e6" d="
  M 0.00 0.00
  L 128.00 0.00
  L 128.00 128.00
  L 0.00 128.00
  L 0.00 0.00
  Z
  M 16.90 102.21
  C 16.00 97.33 16.61 92.54 16.62 87.63
  Q 16.65 54.43 16.77 20.50
  Q 16.78 16.41 20.97 16.36
  C 26.78 16.29 32.03 17.21 37.67 17.25
  Q 54.07 17.36 70.25 16.61
  C 83.23 16.01 95.03 16.26 107.26 16.43
  C 110.69 16.48 113.67 12.70 115.96 10.49
  C 117.85 8.68 120.02 8.05 121.18 5.42
  A 2.14 2.14 0.0 0 0 120.36 2.74
  Q 118.16 1.38 115.56 1.37
  Q 103.12 1.32 92.39 1.02
  C 88.18 0.90 83.72 1.41 79.46 1.41
  Q 48.35 1.40 15.84 1.20
  C 11.14 1.17 6.42 0.52 1.86 0.93
  A 1.40 1.40 0.0 0 0 0.60 2.50
  C 1.32 8.20 2.22 13.81 2.01 19.47
  Q 1.68 28.21 1.78 37.18
  Q 2.02 60.56 1.75 83.63
  C 1.63 93.91 1.92 104.18 2.07 114.73
  Q 2.11 117.29 3.44 119.84
  A 1.75 1.74 -18.7 0 0 5.29 120.75
  C 8.62 120.14 11.04 114.74 13.13 112.40
  C 14.44 110.94 16.14 109.81 16.73 107.93
  Q 17.51 105.45 16.90 102.21
  Z
  M 17.48 118.74
  Q 16.34 119.62 15.26 120.59
  C 14.36 121.40 13.14 121.59 12.03 122.00
  Q 11.05 122.35 10.87 123.28
  Q 10.58 124.72 11.94 125.47
  Q 13.54 126.36 15.74 126.11
  Q 23.99 125.20 32.42 125.12
  Q 40.31 125.05 45.59 124.81
  C 55.69 124.34 65.91 124.63 75.82 124.61
  C 85.94 124.58 97.11 125.16 108.02 124.75
  C 112.37 124.58 116.69 125.23 121.04 124.92
  C 122.45 124.82 123.70 125.26 125.09 125.44
  A 0.94 0.94 0.0 0 0 126.14 124.40
  C 125.19 116.45 126.12 108.24 126.06 100.49
  Q 125.86 74.28 125.82 51.00
  Q 125.79 33.95 126.24 13.02
  Q 126.26 12.08 125.90 10.79
  A 1.62 1.62 0.0 0 0 123.06 10.23
  Q 121.83 11.83 121.00 13.59
  Q 119.33 17.15 115.63 19.63
  Q 115.19 19.92 115.03 20.43
  Q 114.47 22.26 114.74 24.26
  Q 115.21 27.81 115.29 31.01
  C 115.97 57.97 115.57 85.16 115.35 111.87
  A 2.81 2.80 85.2 0 1 113.04 114.61
  Q 109.92 115.16 106.21 114.72
  Q 102.81 114.32 99.29 115.33
  Q 98.70 115.49 98.10 115.38
  Q 96.57 115.10 95.55 115.72
  Q 94.69 116.24 93.55 116.52
  Q 92.45 116.79 91.36 117.07
  Q 90.25 117.35 89.14 117.37
  Q 81.91 117.54 75.04 116.86
  A 74.77 37.38 7.0 0 0 64.54 116.18
  Q 58.49 116.01 46.54 116.10
  Q 44.05 116.13 39.50 115.76
  C 35.54 115.44 31.56 116.06 27.66 115.18
  Q 24.99 114.58 22.67 115.00
  Q 20.71 115.35 19.48 116.72
  Q 18.11 118.25 17.48 118.74
  Z
  M 39.23 68.10
  L 39.12 105.50
  A 1.61 1.60 88.5 0 0 40.81 107.11
  L 45.23 106.88
  Q 46.71 106.81 46.75 105.32
  Q 47.21 86.80 46.91 69.04
  Q 46.91 68.78 46.83 68.54
  Q 46.78 68.37 46.76 68.13
  Q 46.64 68.41 47.04 67.98
  L 54.37 67.98
  Q 54.96 67.98 54.97 67.38
  L 55.00 63.75
  A 0.75 0.75 0.0 0 1 55.75 63.01
  L 62.21 62.98
  Q 62.72 62.98 62.86 62.49
  Q 63.16 61.46 62.97 60.27
  Q 62.77 59.08 63.98 59.06
  L 71.26 58.89
  Q 71.91 58.88 71.94 58.24
  L 72.07 55.75
  A 0.69 0.69 0.0 0 1 72.75 55.09
  L 80.29 54.90
  Q 80.96 54.88 80.97 54.21
  L 81.02 51.76
  Q 81.03 51.05 81.74 51.04
  L 87.89 50.97
  A 1.13 1.13 0.0 0 0 89.00 49.86
  L 89.04 47.78
  A 0.69 0.68 -0.0 0 1 89.72 47.11
  L 96.93 46.92
  Q 98.04 46.89 98.02 45.78
  L 97.99 44.12
  Q 97.97 43.01 96.87 43.01
  L 89.61 42.96
  Q 89.03 42.95 89.02 42.36
  L 88.98 39.75
  Q 88.97 39.02 88.25 39.01
  L 81.75 38.96
  Q 81.04 38.95 81.03 38.24
  L 80.98 35.87
  A 0.87 0.86 0.0 0 0 80.12 35.02
  L 72.73 34.95
  A 0.73 0.72 89.6 0 1 72.01 34.23
  L 71.99 30.79
  A 0.73 0.72 -89.6 0 0 71.29 30.07
  L 63.79 29.90
  A 0.87 0.87 0.0 0 1 62.95 28.93
  Q 63.09 27.80 62.85 26.72
  Q 62.70 26.09 62.05 26.07
  L 55.84 25.88
  A 0.85 0.85 0.0 0 1 55.03 25.09
  L 54.90 22.81
  Q 54.87 22.25 54.30 22.23
  L 47.05 22.04
  L 39.82 21.76
  A 0.79 0.78 0.7 0 0 39.00 22.55
  L 39.23 68.10
  Z"
/>
<path fill="#ffffff" d="
  M 16.90 102.21
  Q 17.51 105.45 16.73 107.93
  C 16.14 109.81 14.44 110.94 13.13 112.40
  C 11.04 114.74 8.62 120.14 5.29 120.75
  A 1.75 1.74 -18.7 0 1 3.44 119.84
  Q 2.11 117.29 2.07 114.73
  C 1.92 104.18 1.63 93.91 1.75 83.63
  Q 2.02 60.56 1.78 37.18
  Q 1.68 28.21 2.01 19.47
  C 2.22 13.81 1.32 8.20 0.60 2.50
  A 1.40 1.40 0.0 0 1 1.86 0.93
  C 6.42 0.52 11.14 1.17 15.84 1.20
  Q 48.35 1.40 79.46 1.41
  C 83.72 1.41 88.18 0.90 92.39 1.02
  Q 103.12 1.32 115.56 1.37
  Q 118.16 1.38 120.36 2.74
  A 2.14 2.14 0.0 0 1 121.18 5.42
  C 120.02 8.05 117.85 8.68 115.96 10.49
  C 113.67 12.70 110.69 16.48 107.26 16.43
  C 95.03 16.26 83.23 16.01 70.25 16.61
  Q 54.07 17.36 37.67 17.25
  C 32.03 17.21 26.78 16.29 20.97 16.36
  Q 16.78 16.41 16.77 20.50
  Q 16.65 54.43 16.62 87.63
  C 16.61 92.54 16.00 97.33 16.90 102.21
  Z"
/>
<path fill="#c9adc8" d="
  M 19.48 116.72
  Q 20.71 115.35 22.67 115.00
  Q 24.99 114.58 27.66 115.18
  C 31.56 116.06 35.54 115.44 39.50 115.76
  Q 44.05 116.13 46.54 116.10
  Q 58.49 116.01 64.54 116.18
  A 74.77 37.38 7.0 0 1 75.04 116.86
  Q 81.91 117.54 89.14 117.37
  Q 90.25 117.35 91.36 117.07
  Q 92.45 116.79 93.55 116.52
  Q 94.69 116.24 95.55 115.72
  Q 96.57 115.10 98.10 115.38
  Q 98.70 115.49 99.29 115.33
  Q 102.81 114.32 106.21 114.72
  Q 109.92 115.16 113.04 114.61
  A 2.81 2.80 85.2 0 0 115.35 111.87
  C 115.57 85.16 115.97 57.97 115.29 31.01
  Q 115.21 27.81 114.74 24.26
  Q 114.47 22.26 115.03 20.43
  Q 115.19 19.92 115.63 19.63
  Q 119.33 17.15 121.00 13.59
  Q 121.83 11.83 123.06 10.23
  A 1.62 1.62 0.0 0 1 125.90 10.79
  Q 126.26 12.08 126.24 13.02
  Q 125.79 33.95 125.82 51.00
  Q 125.86 74.28 126.06 100.49
  C 126.12 108.24 125.19 116.45 126.14 124.40
  A 0.94 0.94 0.0 0 1 125.09 125.44
  C 123.70 125.26 122.45 124.82 121.04 124.92
  C 116.69 125.23 112.37 124.58 108.02 124.75
  C 97.11 125.16 85.94 124.58 75.82 124.61
  C 65.91 124.63 55.69 124.34 45.59 124.81
  Q 40.31 125.05 32.42 125.12
  Q 23.99 125.20 15.74 126.11
  Q 13.54 126.36 11.94 125.47
  Q 10.58 124.72 10.87 123.28
  Q 11.05 122.35 12.03 122.00
  C 13.14 121.59 14.36 121.40 15.26 120.59
  Q 16.34 119.62 17.48 118.74
  Q 18.11 118.25 19.48 116.72
  Z"
/>
<path fill="#9a1d80" d="
  M 47.05 22.04
  L 47.04 67.98
  Q 46.64 68.41 46.76 68.13
  L 39.23 68.10
  L 39.00 22.55
  A 0.79 0.78 0.7 0 1 39.82 21.76
  L 47.05 22.04
  Z"
/>
<path fill="#da1e4a" d="
  M 47.05 22.04
  L 54.30 22.23
  Q 54.87 22.25 54.90 22.81
  L 55.03 25.09
  A 0.85 0.85 0.0 0 0 55.84 25.88
  L 62.05 26.07
  Q 62.70 26.09 62.85 26.72
  Q 63.09 27.80 62.95 28.93
  A 0.87 0.87 0.0 0 0 63.79 29.90
  L 71.29 30.07
  A 0.73 0.72 -89.6 0 1 71.99 30.79
  L 72.01 34.23
  A 0.73 0.72 89.6 0 0 72.73 34.95
  L 80.12 35.02
  A 0.87 0.86 0.0 0 1 80.98 35.87
  L 81.03 38.24
  Q 81.04 38.95 81.75 38.96
  L 88.25 39.01
  Q 88.97 39.02 88.98 39.75
  L 89.02 42.36
  Q 89.03 42.95 89.61 42.96
  L 96.87 43.01
  Q 97.97 43.01 97.99 44.12
  L 98.02 45.78
  Q 98.04 46.89 96.93 46.92
  L 89.72 47.11
  A 0.69 0.68 -0.0 0 0 89.04 47.78
  L 89.00 49.86
  A 1.13 1.13 0.0 0 1 87.89 50.97
  L 81.74 51.04
  Q 81.03 51.05 81.02 51.76
  L 80.97 54.21
  Q 80.96 54.88 80.29 54.90
  L 72.75 55.09
  A 0.69 0.69 0.0 0 0 72.07 55.75
  L 71.94 58.24
  Q 71.91 58.88 71.26 58.89
  L 63.98 59.06
  Q 62.77 59.08 62.97 60.27
  Q 63.16 61.46 62.86 62.49
  Q 62.72 62.98 62.21 62.98
  L 55.75 63.01
  A 0.75 0.75 0.0 0 0 55.00 63.75
  L 54.97 67.38
  Q 54.96 67.98 54.37 67.98
  L 47.04 67.98
  L 47.05 22.04
  Z"
/>
<path fill="#959695" d="
  M 39.23 68.10
  L 46.76 68.13
  Q 46.78 68.37 46.83 68.54
  Q 46.91 68.78 46.91 69.04
  Q 47.21 86.80 46.75 105.32
  Q 46.71 106.81 45.23 106.88
  L 40.81 107.11
  A 1.61 1.60 88.5 0 1 39.12 105.50
  L 39.23 68.10
  Z"
/>
</svg>
