<?xml version="1.0" encoding="UTF-8" standalone="no"?>
<!DOCTYPE svg PUBLIC "-//W3C//DTD SVG 1.1//EN" "http://www.w3.org/Graphics/SVG/1.1/DTD/svg11.dtd">
<svg xmlns="http://www.w3.org/2000/svg" version="1.1" viewBox="0.00 0.00 128.00 128.00">
<g stroke-width="2.00" fill="none" stroke-linecap="butt">
<path stroke="#f3f3f3" vector-effect="non-scaling-stroke" d="
  M 16.63 98.66
  Q 16.74 59.45 16.87 20.25
  C 16.87 18.20 18.01 16.57 20.09 16.49
  C 27.36 16.21 34.69 16.44 42.93 16.37
  Q 72.55 16.09 106.64 16.59
  C 108.52 16.62 110.60 15.95 111.89 14.57
  Q 115.39 10.84 119.44 7.85
  Q 121.64 6.23 121.19 3.68
  Q 121.09 3.15 120.63 2.89
  Q 117.77 1.28 114.98 1.32
  C 107.20 1.45 97.54 1.00 91.34 1.00
  Q 61.77 1.02 32.20 0.99
  C 23.40 0.99 15.35 1.48 6.37 0.78
  Q 4.15 0.60 1.96 0.94
  Q 0.40 1.18 0.61 2.74
  Q 1.17 6.76 1.58 10.49
  Q 1.93 13.63 1.92 18.40
  C 1.86 41.45 1.88 64.12 1.76 83.85
  C 1.69 94.37 1.93 104.26 2.03 114.50
  C 2.05 116.27 2.61 118.44 3.53 119.91
  A 1.87 1.87 0.0 0 0 6.05 120.54
  C 9.90 118.32 11.16 113.90 14.44 111.08
  C 16.72 109.12 17.71 106.62 17.10 103.60
  Q 16.62 101.24 16.63 98.66"
/>
<path stroke="#e08298" vector-effect="non-scaling-stroke" d="
  M 64.31 114.43
  L 66.49 109.91
  Q 66.75 109.37 67.29 109.64
  L 69.76 110.89
  A 0.67 0.66 27.1 0 0 70.65 110.61
  L 73.70 104.70
  Q 74.02 104.07 74.65 104.41
  L 77.04 105.74
  A 0.57 0.57 0.0 0 0 77.83 105.50
  L 81.45 98.46
  Q 81.73 97.92 82.26 98.21
  L 85.31 99.92
  A 0.93 0.93 0.0 0 0 86.58 99.54
  L 90.11 92.72
  Q 90.34 92.27 90.79 92.52
  L 93.25 93.93
  A 0.64 0.64 0.0 0 0 94.14 93.67
  L 97.34 87.52
  Q 97.57 87.07 98.01 87.31
  L 100.54 88.70
  A 0.56 0.56 0.0 0 0 101.32 88.47
  L 104.92 81.59"
/>
<path stroke="#c082b3" vector-effect="non-scaling-stroke" d="
  M 104.92 81.59
  L 108.24 75.27
  A 0.56 0.56 0.0 0 0 108.00 74.52
  L 67.55 53.38"
/>
<path stroke="#bebebe" vector-effect="non-scaling-stroke" d="
  M 67.55 53.38
  L 58.30 48.52
  A 0.34 0.33 -61.5 0 0 57.85 48.66
  L 54.49 55.06
  A 0.40 0.39 -62.8 0 0 54.66 55.60
  L 63.99 60.31"
/>
<path stroke="#c082b3" vector-effect="non-scaling-stroke" d="
  M 63.99 60.31
  Q 64.08 60.47 63.97 60.83"
/>
<path stroke="#e08298" vector-effect="non-scaling-stroke" d="
  M 63.97 60.83
  L 60.66 67.04
  Q 60.34 67.64 60.94 67.95
  L 64.26 69.69
  Q 64.78 69.97 64.50 70.49
  L 61.28 76.55
  Q 61.01 77.06 61.53 77.32
  L 64.05 78.59
  Q 64.63 78.88 64.33 79.45
  L 60.73 86.28
  Q 60.39 86.92 61.04 87.24
  L 63.43 88.37
  A 0.65 0.65 0.0 0 1 63.73 89.26
  L 60.02 96.28
  A 0.51 0.50 27.0 0 0 60.25 96.98
  L 62.87 98.22
  A 0.56 0.56 0.0 0 1 63.13 98.99
  L 59.93 105.14
  Q 59.64 105.70 60.20 105.97
  L 62.78 107.21
  A 0.50 0.50 0.0 0 1 63.00 107.90
  L 59.34 114.59"
/>
<path stroke="#d7c9d7" vector-effect="non-scaling-stroke" d="
  M 59.34 114.59
  Q 58.41 114.64 58.30 115.01
  Q 58.18 115.36 57.81 115.35
  Q 53.86 115.26 49.93 115.53
  Q 44.76 115.88 42.06 115.88
  C 38.37 115.87 34.41 116.16 30.75 115.57
  Q 28.75 115.25 26.59 115.02
  Q 25.67 114.93 24.75 114.69
  Q 22.91 114.22 21.49 115.49
  Q 21.25 115.70 20.94 115.62
  Q 20.74 115.56 20.54 115.65
  Q 20.27 115.76 20.10 115.97
  Q 16.94 119.88 12.50 122.03
  C 10.66 122.93 11.22 125.16 13.04 125.63
  C 17.02 126.66 21.45 125.28 25.58 125.26
  Q 36.57 125.22 48.37 124.91
  Q 48.85 124.90 49.29 124.71
  Q 50.04 124.39 51.22 124.35
  Q 58.83 124.06 64.49 124.43
  Q 72.25 124.94 77.59 124.90
  C 88.80 124.80 100.64 125.18 112.19 125.26
  Q 118.58 125.31 125.11 125.85
  A 1.07 1.07 0.0 0 0 126.27 124.78
  C 126.27 100.90 126.48 74.22 126.05 48.02
  Q 125.77 31.05 126.36 14.00
  Q 126.42 12.21 125.75 10.52
  A 1.44 1.44 0.0 0 0 123.55 9.91
  Q 122.40 10.77 121.82 12.09
  Q 119.83 16.64 116.01 19.35
  A 3.37 3.36 68.5 0 0 114.62 22.56
  Q 115.23 27.02 116.12 31.50
  Q 116.47 33.24 115.99 38.76
  C 115.79 40.98 116.06 43.15 115.73 45.30
  Q 115.39 47.50 115.39 49.67
  Q 115.36 74.34 115.37 99.12
  C 115.37 103.35 115.04 107.60 114.88 111.74
  A 2.87 2.87 0.0 0 1 112.10 114.50
  Q 97.94 114.91 84.79 115.18
  Q 84.73 115.18 76.75 115.80
  Q 70.45 116.29 64.31 114.43"
/>
<path stroke="#d16589" vector-effect="non-scaling-stroke" d="
  M 59.34 114.59
  Q 58.65 116.55 62.29 116.85
  Q 62.81 116.89 63.08 116.45
  L 64.31 114.43"
/>
<path stroke="#ba1e65" vector-effect="non-scaling-stroke" d="
  M 104.92 81.59
  L 63.97 60.83"
/>
<path stroke="#985a8b" vector-effect="non-scaling-stroke" d="
  M 67.55 53.38
  L 63.99 60.31"
/>
<path stroke="#bebebe" vector-effect="non-scaling-stroke" d="
  M 47.00 79.66
  A 0.67 0.67 0.0 0 0 46.33 78.99
  L 39.67 78.99
  A 0.67 0.67 0.0 0 0 39.00 79.66
  L 39.00 106.32
  A 0.67 0.67 0.0 0 0 39.67 106.99
  L 46.33 106.99
  A 0.67 0.67 0.0 0 0 47.00 106.32
  L 47.00 79.66"
/>
</g>
<path fill="#e6e6e6" d="
  M 0.00 0.00
  L 128.00 0.00
  L 128.00 128.00
  L 0.00 128.00
  L 0.00 0.00
  Z
  M 16.63 98.66
  Q 16.74 59.45 16.87 20.25
  C 16.87 18.20 18.01 16.57 20.09 16.49
  C 27.36 16.21 34.69 16.44 42.93 16.37
  Q 72.55 16.09 106.64 16.59
  C 108.52 16.62 110.60 15.95 111.89 14.57
  Q 115.39 10.84 119.44 7.85
  Q 121.64 6.23 121.19 3.68
  Q 121.09 3.15 120.63 2.89
  Q 117.77 1.28 114.98 1.32
  C 107.20 1.45 97.54 1.00 91.34 1.00
  Q 61.77 1.02 32.20 0.99
  C 23.40 0.99 15.35 1.48 6.37 0.78
  Q 4.15 0.60 1.96 0.94
  Q 0.40 1.18 0.61 2.74
  Q 1.17 6.76 1.58 10.49
  Q 1.93 13.63 1.92 18.40
  C 1.86 41.45 1.88 64.12 1.76 83.85
  C 1.69 94.37 1.93 104.26 2.03 114.50
  C 2.05 116.27 2.61 118.44 3.53 119.91
  A 1.87 1.87 0.0 0 0 6.05 120.54
  C 9.90 118.32 11.16 113.90 14.44 111.08
  C 16.72 109.12 17.71 106.62 17.10 103.60
  Q 16.62 101.24 16.63 98.66
  Z
  M 64.31 114.43
  L 66.49 109.91
  Q 66.75 109.37 67.29 109.64
  L 69.76 110.89
  A 0.67 0.66 27.1 0 0 70.65 110.61
  L 73.70 104.70
  Q 74.02 104.07 74.65 104.41
  L 77.04 105.74
  A 0.57 0.57 0.0 0 0 77.83 105.50
  L 81.45 98.46
  Q 81.73 97.92 82.26 98.21
  L 85.31 99.92
  A 0.93 0.93 0.0 0 0 86.58 99.54
  L 90.11 92.72
  Q 90.34 92.27 90.79 92.52
  L 93.25 93.93
  A 0.64 0.64 0.0 0 0 94.14 93.67
  L 97.34 87.52
  Q 97.57 87.07 98.01 87.31
  L 100.54 88.70
  A 0.56 0.56 0.0 0 0 101.32 88.47
  L 104.92 81.59
  L 108.24 75.27
  A 0.56 0.56 0.0 0 0 108.00 74.52
  L 67.55 53.38
  L 58.30 48.52
  A 0.34 0.33 -61.5 0 0 57.85 48.66
  L 54.49 55.06
  A 0.40 0.39 -62.8 0 0 54.66 55.60
  L 63.99 60.31
  Q 64.08 60.47 63.97 60.83
  L 60.66 67.04
  Q 60.34 67.64 60.94 67.95
  L 64.26 69.69
  Q 64.78 69.97 64.50 70.49
  L 61.28 76.55
  Q 61.01 77.06 61.53 77.32
  L 64.05 78.59
  Q 64.63 78.88 64.33 79.45
  L 60.73 86.28
  Q 60.39 86.92 61.04 87.24
  L 63.43 88.37
  A 0.65 0.65 0.0 0 1 63.73 89.26
  L 60.02 96.28
  A 0.51 0.50 27.0 0 0 60.25 96.98
  L 62.87 98.22
  A 0.56 0.56 0.0 0 1 63.13 98.99
  L 59.93 105.14
  Q 59.64 105.70 60.20 105.97
  L 62.78 107.21
  A 0.50 0.50 0.0 0 1 63.00 107.90
  L 59.34 114.59
  Q 58.41 114.64 58.30 115.01
  Q 58.18 115.36 57.81 115.35
  Q 53.86 115.26 49.93 115.53
  Q 44.76 115.88 42.06 115.88
  C 38.37 115.87 34.41 116.16 30.75 115.57
  Q 28.75 115.25 26.59 115.02
  Q 25.67 114.93 24.75 114.69
  Q 22.91 114.22 21.49 115.49
  Q 21.25 115.70 20.94 115.62
  Q 20.74 115.56 20.54 115.65
  Q 20.27 115.76 20.10 115.97
  Q 16.94 119.88 12.50 122.03
  C 10.66 122.93 11.22 125.16 13.04 125.63
  C 17.02 126.66 21.45 125.28 25.58 125.26
  Q 36.57 125.22 48.37 124.91
  Q 48.85 124.90 49.29 124.71
  Q 50.04 124.39 51.22 124.35
  Q 58.83 124.06 64.49 124.43
  Q 72.25 124.94 77.59 124.90
  C 88.80 124.80 100.64 125.18 112.19 125.26
  Q 118.58 125.31 125.11 125.85
  A 1.07 1.07 0.0 0 0 126.27 124.78
  C 126.27 100.90 126.48 74.22 126.05 48.02
  Q 125.77 31.05 126.36 14.00
  Q 126.42 12.21 125.75 10.52
  A 1.44 1.44 0.0 0 0 123.55 9.91
  Q 122.40 10.77 121.82 12.09
  Q 119.83 16.64 116.01 19.35
  A 3.37 3.36 68.5 0 0 114.62 22.56
  Q 115.23 27.02 116.12 31.50
  Q 116.47 33.24 115.99 38.76
  C 115.79 40.98 116.06 43.15 115.73 45.30
  Q 115.39 47.50 115.39 49.67
  Q 115.36 74.34 115.37 99.12
  C 115.37 103.35 115.04 107.60 114.88 111.74
  A 2.87 2.87 0.0 0 1 112.10 114.50
  Q 97.94 114.91 84.79 115.18
  Q 84.73 115.18 76.75 115.80
  Q 70.45 116.29 64.31 114.43
  Z
  M 47.00 79.66
  A 0.67 0.67 0.0 0 0 46.33 78.99
  L 39.67 78.99
  A 0.67 0.67 0.0 0 0 39.00 79.66
  L 39.00 106.32
  A 0.67 0.67 0.0 0 0 39.67 106.99
  L 46.33 106.99
  A 0.67 0.67 0.0 0 0 47.00 106.32
  L 47.00 79.66
  Z"
/>
<path fill="#ffffff" d="
  M 17.10 103.60
  C 17.71 106.62 16.72 109.12 14.44 111.08
  C 11.16 113.90 9.90 118.32 6.05 120.54
  A 1.87 1.87 0.0 0 1 3.53 119.91
  C 2.61 118.44 2.05 116.27 2.03 114.50
  C 1.93 104.26 1.69 94.37 1.76 83.85
  C 1.88 64.12 1.86 41.45 1.92 18.40
  Q 1.93 13.63 1.58 10.49
  Q 1.17 6.76 0.61 2.74
  Q 0.40 1.18 1.96 0.94
  Q 4.15 0.60 6.37 0.78
  C 15.35 1.48 23.40 0.99 32.20 0.99
  Q 61.77 1.02 91.34 1.00
  C 97.54 1.00 107.20 1.45 114.98 1.32
  Q 117.77 1.28 120.63 2.89
  Q 121.09 3.15 121.19 3.68
  Q 121.64 6.23 119.44 7.85
  Q 115.39 10.84 111.89 14.57
  C 110.60 15.95 108.52 16.62 106.64 16.59
  Q 72.55 16.09 42.93 16.37
  C 34.69 16.44 27.36 16.21 20.09 16.49
  C 18.01 16.57 16.87 18.20 16.87 20.25
  Q 16.74 59.45 16.63 98.66
  Q 16.62 101.24 17.10 103.60
  Z"
/>
<path fill="#c8acc8" d="
  M 59.34 114.59
  Q 58.65 116.55 62.29 116.85
  Q 62.81 116.89 63.08 116.45
  L 64.31 114.43
  Q 70.45 116.29 76.75 115.80
  Q 84.73 115.18 84.79 115.18
  Q 97.94 114.91 112.10 114.50
  A 2.87 2.87 0.0 0 0 114.88 111.74
  C 115.04 107.60 115.37 103.35 115.37 99.12
  Q 115.36 74.34 115.39 49.67
  Q 115.39 47.50 115.73 45.30
  C 116.06 43.15 115.79 40.98 115.99 38.76
  Q 116.47 33.24 116.12 31.50
  Q 115.23 27.02 114.62 22.56
  A 3.37 3.36 68.5 0 1 116.01 19.35
  Q 119.83 16.64 121.82 12.09
  Q 122.40 10.77 123.55 9.91
  A 1.44 1.44 0.0 0 1 125.75 10.52
  Q 126.42 12.21 126.36 14.00
  Q 125.77 31.05 126.05 48.02
  C 126.48 74.22 126.27 100.90 126.27 124.78
  A 1.07 1.07 0.0 0 1 125.11 125.85
  Q 118.58 125.31 112.19 125.26
  C 100.64 125.18 88.80 124.80 77.59 124.90
  Q 72.25 124.94 64.49 124.43
  Q 58.83 124.06 51.22 124.35
  Q 50.04 124.39 49.29 124.71
  Q 48.85 124.90 48.37 124.91
  Q 36.57 125.22 25.58 125.26
  C 21.45 125.28 17.02 126.66 13.04 125.63
  C 11.22 125.16 10.66 122.93 12.50 122.03
  Q 16.94 119.88 20.10 115.97
  Q 20.27 115.76 20.54 115.65
  Q 20.74 115.56 20.94 115.62
  Q 21.25 115.70 21.49 115.49
  Q 22.91 114.22 24.75 114.69
  Q 25.67 114.93 26.59 115.02
  Q 28.75 115.25 30.75 115.57
  C 34.41 116.16 38.37 115.87 42.06 115.88
  Q 44.76 115.88 49.93 115.53
  Q 53.86 115.26 57.81 115.35
  Q 58.18 115.36 58.30 115.01
  Q 58.41 114.64 59.34 114.59
  Z"
/>
<path fill="#959695" d="
  M 67.55 53.38
  L 63.99 60.31
  L 54.66 55.60
  A 0.40 0.39 -62.8 0 1 54.49 55.06
  L 57.85 48.66
  A 0.34 0.33 -61.5 0 1 58.30 48.52
  L 67.55 53.38
  Z"
/>
<path fill="#9a1d80" d="
  M 67.55 53.38
  L 108.00 74.52
  A 0.56 0.56 0.0 0 1 108.24 75.27
  L 104.92 81.59
  L 63.97 60.83
  Q 64.08 60.47 63.99 60.31
  L 67.55 53.38
  Z"
/>
<path fill="#da1e4a" d="
  M 63.97 60.83
  L 104.92 81.59
  L 101.32 88.47
  A 0.56 0.56 0.0 0 1 100.54 88.70
  L 98.01 87.31
  Q 97.57 87.07 97.34 87.52
  L 94.14 93.67
  A 0.64 0.64 0.0 0 1 93.25 93.93
  L 90.79 92.52
  Q 90.34 92.27 90.11 92.72
  L 86.58 99.54
  A 0.93 0.93 0.0 0 1 85.31 99.92
  L 82.26 98.21
  Q 81.73 97.92 81.45 98.46
  L 77.83 105.50
  A 0.57 0.57 0.0 0 1 77.04 105.74
  L 74.65 104.41
  Q 74.02 104.07 73.70 104.70
  L 70.65 110.61
  A 0.67 0.66 27.1 0 1 69.76 110.89
  L 67.29 109.64
  Q 66.75 109.37 66.49 109.91
  L 64.31 114.43
  L 63.08 116.45
  Q 62.81 116.89 62.29 116.85
  Q 58.65 116.55 59.34 114.59
  L 63.00 107.90
  A 0.50 0.50 0.0 0 0 62.78 107.21
  L 60.20 105.97
  Q 59.64 105.70 59.93 105.14
  L 63.13 98.99
  A 0.56 0.56 0.0 0 0 62.87 98.22
  L 60.25 96.98
  A 0.51 0.50 27.0 0 1 60.02 96.28
  L 63.73 89.26
  A 0.65 0.65 0.0 0 0 63.43 88.37
  L 61.04 87.24
  Q 60.39 86.92 60.73 86.28
  L 64.33 79.45
  Q 64.63 78.88 64.05 78.59
  L 61.53 77.32
  Q 61.01 77.06 61.28 76.55
  L 64.50 70.49
  Q 64.78 69.97 64.26 69.69
  L 60.94 67.95
  Q 60.34 67.64 60.66 67.04
  L 63.97 60.83
  Z"
/>
<rect fill="#959695" x="39.00" y="78.99" width="8.00" height="28.00" rx="0.67"/>
</svg>
