<?xml version="1.0" encoding="UTF-8" standalone="no"?>
<!DOCTYPE svg PUBLIC "-//W3C//DTD SVG 1.1//EN" "http://www.w3.org/Graphics/SVG/1.1/DTD/svg11.dtd">
<svg xmlns="http://www.w3.org/2000/svg" version="1.1" viewBox="0.00 0.00 128.00 128.00">
<g stroke-width="2.00" fill="none" stroke-linecap="butt">
<path stroke="#f3f3f3" vector-effect="non-scaling-stroke" d="
  M 5.91 121.04
  Q 7.62 120.06 8.90 118.48
  Q 12.11 114.52 15.43 110.86
  Q 17.06 109.06 17.04 106.65
  Q 16.55 62.68 16.87 20.43
  Q 16.90 16.41 21.08 16.38
  Q 64.95 16.10 107.26 16.50
  Q 110.04 16.53 112.02 14.42
  Q 115.29 10.94 119.35 7.91
  Q 121.56 6.26 121.21 3.78
  A 1.29 1.28 -79.1 0 0 120.59 2.86
  Q 118.10 1.40 115.33 1.36
  Q 67.35 0.66 17.53 1.17
  C 12.23 1.23 7.11 0.61 1.83 0.90
  A 1.16 1.15 -85.7 0 0 0.77 1.82
  Q 0.52 3.01 0.77 4.47
  Q 2.15 12.33 1.98 18.94
  C 1.45 39.83 2.08 60.00 1.80 80.48
  Q 1.57 97.39 2.17 115.71
  Q 2.27 118.61 4.25 120.78
  A 1.35 1.35 0.0 0 0 5.91 121.04"
/>
<path stroke="#d8cad7" vector-effect="non-scaling-stroke" d="
  M 115.36 111.88
  A 2.72 2.72 0.0 0 1 112.74 114.60
  Q 110.12 114.70 107.73 114.41
  C 104.40 114.00 101.17 114.14 97.80 114.27
  Q 97.55 114.28 97.40 114.49
  Q 97.26 114.69 97.00 114.69
  Q 95.82 114.71 87.39 116.28
  Q 85.75 116.58 84.12 116.52
  C 81.34 116.41 78.55 116.63 75.76 116.46
  C 72.67 116.28 69.46 115.94 66.33 115.92
  Q 58.97 115.90 51.84 115.94
  Q 45.56 115.97 37.59 115.24
  Q 30.54 114.59 23.24 113.94
  Q 20.64 113.71 19.08 115.72
  Q 16.18 119.45 12.00 121.76
  Q 10.13 122.79 10.88 124.71
  A 1.30 1.29 -2.3 0 0 11.72 125.48
  Q 14.03 126.16 16.26 125.93
  Q 34.59 124.06 53.11 124.65
  Q 58.28 124.81 62.42 124.78
  Q 66.73 124.76 71.76 124.67
  Q 78.69 124.55 85.76 124.76
  Q 96.13 125.09 106.57 124.81
  C 112.88 124.65 119.14 125.06 125.35 125.30
  A 0.81 0.81 0.0 0 0 126.18 124.37
  C 125.10 116.72 126.12 109.20 126.06 101.49
  Q 125.88 80.39 125.70 59.23
  Q 125.63 50.89 125.98 42.42
  C 126.30 34.40 125.88 24.25 126.37 14.75
  Q 126.49 12.42 125.78 10.62
  A 1.58 1.58 0.0 0 0 123.00 10.33
  Q 121.83 12.09 120.80 14.04
  Q 119.23 17.05 116.07 19.33
  C 113.66 21.08 115.07 26.70 115.31 29.25
  Q 115.59 32.22 115.62 35.26
  C 115.80 51.71 116.00 68.03 115.63 85.25
  Q 115.35 98.39 115.36 111.88"
/>
</g>
<path fill="#e6e6e6" d="
  M 0.00 0.00
  L 128.00 0.00
  L 128.00 128.00
  L 0.00 128.00
  L 0.00 0.00
  Z
  M 5.91 121.04
  Q 7.62 120.06 8.90 118.48
  Q 12.11 114.52 15.43 110.86
  Q 17.06 109.06 17.04 106.65
  Q 16.55 62.68 16.87 20.43
  Q 16.90 16.41 21.08 16.38
  Q 64.95 16.10 107.26 16.50
  Q 110.04 16.53 112.02 14.42
  Q 115.29 10.94 119.35 7.91
  Q 121.56 6.26 121.21 3.78
  A 1.29 1.28 -79.1 0 0 120.59 2.86
  Q 118.10 1.40 115.33 1.36
  Q 67.35 0.66 17.53 1.17
  C 12.23 1.23 7.11 0.61 1.83 0.90
  A 1.16 1.15 -85.7 0 0 0.77 1.82
  Q 0.52 3.01 0.77 4.47
  Q 2.15 12.33 1.98 18.94
  C 1.45 39.83 2.08 60.00 1.80 80.48
  Q 1.57 97.39 2.17 115.71
  Q 2.27 118.61 4.25 120.78
  A 1.35 1.35 0.0 0 0 5.91 121.04
  Z
  M 115.36 111.88
  A 2.72 2.72 0.0 0 1 112.74 114.60
  Q 110.12 114.70 107.73 114.41
  C 104.40 114.00 101.17 114.14 97.80 114.27
  Q 97.55 114.28 97.40 114.49
  Q 97.26 114.69 97.00 114.69
  Q 95.82 114.71 87.39 116.28
  Q 85.75 116.58 84.12 116.52
  C 81.34 116.41 78.55 116.63 75.76 116.46
  C 72.67 116.28 69.46 115.94 66.33 115.92
  Q 58.97 115.90 51.84 115.94
  Q 45.56 115.97 37.59 115.24
  Q 30.54 114.59 23.24 113.94
  Q 20.64 113.71 19.08 115.72
  Q 16.18 119.45 12.00 121.76
  Q 10.13 122.79 10.88 124.71
  A 1.30 1.29 -2.3 0 0 11.72 125.48
  Q 14.03 126.16 16.26 125.93
  Q 34.59 124.06 53.11 124.65
  Q 58.28 124.81 62.42 124.78
  Q 66.73 124.76 71.76 124.67
  Q 78.69 124.55 85.76 124.76
  Q 96.13 125.09 106.57 124.81
  C 112.88 124.65 119.14 125.06 125.35 125.30
  A 0.81 0.81 0.0 0 0 126.18 124.37
  C 125.10 116.72 126.12 109.20 126.06 101.49
  Q 125.88 80.39 125.70 59.23
  Q 125.63 50.89 125.98 42.42
  C 126.30 34.40 125.88 24.25 126.37 14.75
  Q 126.49 12.42 125.78 10.62
  A 1.58 1.58 0.0 0 0 123.00 10.33
  Q 121.83 12.09 120.80 14.04
  Q 119.23 17.05 116.07 19.33
  C 113.66 21.08 115.07 26.70 115.31 29.25
  Q 115.59 32.22 115.62 35.26
  C 115.80 51.71 116.00 68.03 115.63 85.25
  Q 115.35 98.39 115.36 111.88
  Z"
/>
<path fill="#ffffff" d="
  M 5.91 121.04
  A 1.35 1.35 0.0 0 1 4.25 120.78
  Q 2.27 118.61 2.17 115.71
  Q 1.57 97.39 1.80 80.48
  C 2.08 60.00 1.45 39.83 1.98 18.94
  Q 2.15 12.33 0.77 4.47
  Q 0.52 3.01 0.77 1.82
  A 1.16 1.15 -85.7 0 1 1.83 0.90
  C 7.11 0.61 12.23 1.23 17.53 1.17
  Q 67.35 0.66 115.33 1.36
  Q 118.10 1.40 120.59 2.86
  A 1.29 1.28 -79.1 0 1 121.21 3.78
  Q 121.56 6.26 119.35 7.91
  Q 115.29 10.94 112.02 14.42
  Q 110.04 16.53 107.26 16.50
  Q 64.95 16.10 21.08 16.38
  Q 16.90 16.41 16.87 20.43
  Q 16.55 62.68 17.04 106.65
  Q 17.06 109.06 15.43 110.86
  Q 12.11 114.52 8.90 118.48
  Q 7.62 120.06 5.91 121.04
  Z"
/>
<path fill="#c9adc8" d="
  M 115.36 111.88
  Q 115.35 98.39 115.63 85.25
  C 116.00 68.03 115.80 51.71 115.62 35.26
  Q 115.59 32.22 115.31 29.25
  C 115.07 26.70 113.66 21.08 116.07 19.33
  Q 119.23 17.05 120.80 14.04
  Q 121.83 12.09 123.00 10.33
  A 1.58 1.58 0.0 0 1 125.78 10.62
  Q 126.49 12.42 126.37 14.75
  C 125.88 24.25 126.30 34.40 125.98 42.42
  Q 125.63 50.89 125.70 59.23
  Q 125.88 80.39 126.06 101.49
  C 126.12 109.20 125.10 116.72 126.18 124.37
  A 0.81 0.81 0.0 0 1 125.35 125.30
  C 119.14 125.06 112.88 124.65 106.57 124.81
  Q 96.13 125.09 85.76 124.76
  Q 78.69 124.55 71.76 124.67
  Q 66.73 124.76 62.42 124.78
  Q 58.28 124.81 53.11 124.65
  Q 34.59 124.06 16.26 125.93
  Q 14.03 126.16 11.72 125.48
  A 1.30 1.29 -2.3 0 1 10.88 124.71
  Q 10.13 122.79 12.00 121.76
  Q 16.18 119.45 19.08 115.72
  Q 20.64 113.71 23.24 113.94
  Q 30.54 114.59 37.59 115.24
  Q 45.56 115.97 51.84 115.94
  Q 58.97 115.90 66.33 115.92
  C 69.46 115.94 72.67 116.28 75.76 116.46
  C 78.55 116.63 81.34 116.41 84.12 116.52
  Q 85.75 116.58 87.39 116.28
  Q 95.82 114.71 97.00 114.69
  Q 97.26 114.69 97.40 114.49
  Q 97.55 114.28 97.80 114.27
  C 101.17 114.14 104.40 114.00 107.73 114.41
  Q 110.12 114.70 112.74 114.60
  A 2.72 2.72 0.0 0 0 115.36 111.88
  Z"
/>
</svg>
