<?xml version="1.0" encoding="UTF-8" standalone="no"?>
<!DOCTYPE svg PUBLIC "-//W3C//DTD SVG 1.1//EN" "http://www.w3.org/Graphics/SVG/1.1/DTD/svg11.dtd">
<svg xmlns="http://www.w3.org/2000/svg" version="1.1" viewBox="0.00 0.00 128.00 128.00">
<g stroke-width="2.00" fill="none" stroke-linecap="butt">
<path stroke="#f3f3f3" vector-effect="non-scaling-stroke" d="
  M 14.69 111.60
  Q 17.09 109.40 17.04 106.16
  Q 16.52 67.52 16.84 20.40
  Q 16.87 16.31 21.43 16.30
  Q 39.65 16.27 58.36 16.46
  C 61.63 16.50 64.88 16.24 68.13 16.28
  Q 90.40 16.58 107.44 16.50
  Q 110.10 16.48 112.11 14.34
  Q 115.38 10.87 119.31 7.95
  Q 121.47 6.35 121.25 3.85
  Q 121.20 3.32 120.76 3.03
  Q 118.19 1.33 115.26 1.35
  Q 107.94 1.41 101.71 1.21
  Q 90.09 0.85 75.93 1.18
  C 59.87 1.55 38.93 0.67 20.33 1.22
  C 14.56 1.39 8.08 0.68 2.01 0.88
  A 1.47 1.47 0.0 0 0 0.61 2.52
  C 1.25 7.90 2.19 13.12 1.99 18.51
  Q 1.65 27.68 1.76 35.65
  Q 2.10 61.18 1.76 86.12
  C 1.63 95.56 2.01 104.89 2.03 114.27
  C 2.04 116.34 2.59 118.46 3.69 120.23
  A 1.80 1.79 -32.8 0 0 6.22 120.77
  C 9.82 118.34 11.56 114.48 14.69 111.60"
/>
<path stroke="#d7c9d7" vector-effect="non-scaling-stroke" d="
  M 53.13 115.12
  Q 42.59 115.19 32.25 114.64
  Q 28.22 114.43 24.24 113.92
  C 22.37 113.69 20.31 113.70 19.09 115.40
  C 17.20 118.06 15.15 120.04 12.15 121.57
  Q 10.44 122.44 10.65 124.27
  A 1.30 1.29 9.7 0 0 11.38 125.29
  Q 13.01 126.07 14.56 125.96
  Q 28.64 124.88 42.25 124.79
  Q 78.40 124.57 109.75 124.82
  Q 117.53 124.89 125.32 125.47
  Q 126.16 125.53 126.11 124.70
  Q 125.69 118.28 125.90 111.54
  C 126.32 98.05 125.90 84.50 125.76 71.01
  C 125.61 55.57 125.98 39.67 126.06 23.99
  C 126.08 19.73 126.65 15.42 126.04 11.13
  A 1.71 1.71 0.0 0 0 122.92 10.43
  Q 121.75 12.20 120.77 14.10
  Q 119.24 17.06 115.52 19.84
  Q 115.09 20.15 114.96 20.67
  Q 114.50 22.52 114.76 24.28
  Q 115.61 29.96 115.66 34.75
  Q 115.86 54.10 115.86 75.16
  C 115.86 79.46 115.46 83.82 115.50 88.00
  Q 115.61 99.69 115.16 111.55
  A 2.88 2.88 0.0 0 1 112.35 114.32
  C 107.76 114.44 103.30 114.07 98.78 114.79
  C 93.39 115.66 87.52 115.53 82.07 115.22
  C 72.54 114.69 63.32 114.89 53.75 114.88
  Q 53.63 114.88 53.51 114.98
  Q 53.35 115.12 53.13 115.12"
/>
<path stroke="#c8b57a" vector-effect="non-scaling-stroke" d="
  M 59.25 88.00
  L 46.72 88.04
  Q 45.98 88.04 45.98 88.78
  L 45.99 94.24
  A 0.76 0.75 90.0 0 0 46.74 95.00
  L 80.26 94.99
  Q 81.03 94.99 81.02 94.23
  L 80.98 88.75
  Q 80.97 88.03 80.25 88.03
  L 68.91 87.97
  A 0.92 0.92 0.0 0 1 68.00 87.05
  L 67.99 30.74
  Q 67.99 29.98 67.24 29.99
  L 62.30 30.02
  Q 61.65 30.03 61.56 30.67
  C 60.50 38.05 53.08 39.07 46.83 38.93
  Q 46.00 38.91 45.99 39.75
  L 45.98 43.98
  Q 45.98 44.99 46.99 44.99
  L 59.51 45.00
  A 0.52 0.51 0.6 0 1 60.02 45.51
  L 60.00 87.25
  Q 60.00 88.00 59.25 88.00"
/>
</g>
<path fill="#e6e6e6" d="
  M 0.00 0.00
  L 128.00 0.00
  L 128.00 128.00
  L 0.00 128.00
  L 0.00 0.00
  Z
  M 14.69 111.60
  Q 17.09 109.40 17.04 106.16
  Q 16.52 67.52 16.84 20.40
  Q 16.87 16.31 21.43 16.30
  Q 39.65 16.27 58.36 16.46
  C 61.63 16.50 64.88 16.24 68.13 16.28
  Q 90.40 16.58 107.44 16.50
  Q 110.10 16.48 112.11 14.34
  Q 115.38 10.87 119.31 7.95
  Q 121.47 6.35 121.25 3.85
  Q 121.20 3.32 120.76 3.03
  Q 118.19 1.33 115.26 1.35
  Q 107.94 1.41 101.71 1.21
  Q 90.09 0.85 75.93 1.18
  C 59.87 1.55 38.93 0.67 20.33 1.22
  C 14.56 1.39 8.08 0.68 2.01 0.88
  A 1.47 1.47 0.0 0 0 0.61 2.52
  C 1.25 7.90 2.19 13.12 1.99 18.51
  Q 1.65 27.68 1.76 35.65
  Q 2.10 61.18 1.76 86.12
  C 1.63 95.56 2.01 104.89 2.03 114.27
  C 2.04 116.34 2.59 118.46 3.69 120.23
  A 1.80 1.79 -32.8 0 0 6.22 120.77
  C 9.82 118.34 11.56 114.48 14.69 111.60
  Z
  M 53.13 115.12
  Q 42.59 115.19 32.25 114.64
  Q 28.22 114.43 24.24 113.92
  C 22.37 113.69 20.31 113.70 19.09 115.40
  C 17.20 118.06 15.15 120.04 12.15 121.57
  Q 10.44 122.44 10.65 124.27
  A 1.30 1.29 9.7 0 0 11.38 125.29
  Q 13.01 126.07 14.56 125.96
  Q 28.64 124.88 42.25 124.79
  Q 78.40 124.57 109.75 124.82
  Q 117.53 124.89 125.32 125.47
  Q 126.16 125.53 126.11 124.70
  Q 125.69 118.28 125.90 111.54
  C 126.32 98.05 125.90 84.50 125.76 71.01
  C 125.61 55.57 125.98 39.67 126.06 23.99
  C 126.08 19.73 126.65 15.42 126.04 11.13
  A 1.71 1.71 0.0 0 0 122.92 10.43
  Q 121.75 12.20 120.77 14.10
  Q 119.24 17.06 115.52 19.84
  Q 115.09 20.15 114.96 20.67
  Q 114.50 22.52 114.76 24.28
  Q 115.61 29.96 115.66 34.75
  Q 115.86 54.10 115.86 75.16
  C 115.86 79.46 115.46 83.82 115.50 88.00
  Q 115.61 99.69 115.16 111.55
  A 2.88 2.88 0.0 0 1 112.35 114.32
  C 107.76 114.44 103.30 114.07 98.78 114.79
  C 93.39 115.66 87.52 115.53 82.07 115.22
  C 72.54 114.69 63.32 114.89 53.75 114.88
  Q 53.63 114.88 53.51 114.98
  Q 53.35 115.12 53.13 115.12
  Z
  M 59.25 88.00
  L 46.72 88.04
  Q 45.98 88.04 45.98 88.78
  L 45.99 94.24
  A 0.76 0.75 90.0 0 0 46.74 95.00
  L 80.26 94.99
  Q 81.03 94.99 81.02 94.23
  L 80.98 88.75
  Q 80.97 88.03 80.25 88.03
  L 68.91 87.97
  A 0.92 0.92 0.0 0 1 68.00 87.05
  L 67.99 30.74
  Q 67.99 29.98 67.24 29.99
  L 62.30 30.02
  Q 61.65 30.03 61.56 30.67
  C 60.50 38.05 53.08 39.07 46.83 38.93
  Q 46.00 38.91 45.99 39.75
  L 45.98 43.98
  Q 45.98 44.99 46.99 44.99
  L 59.51 45.00
  A 0.52 0.51 0.6 0 1 60.02 45.51
  L 60.00 87.25
  Q 60.00 88.00 59.25 88.00
  Z"
/>
<path fill="#ffffff" d="
  M 14.69 111.60
  C 11.56 114.48 9.82 118.34 6.22 120.77
  A 1.80 1.79 -32.8 0 1 3.69 120.23
  C 2.59 118.46 2.04 116.34 2.03 114.27
  C 2.01 104.89 1.63 95.56 1.76 86.12
  Q 2.10 61.18 1.76 35.65
  Q 1.65 27.68 1.99 18.51
  C 2.19 13.12 1.25 7.90 0.61 2.52
  A 1.47 1.47 0.0 0 1 2.01 0.88
  C 8.08 0.68 14.56 1.39 20.33 1.22
  C 38.93 0.67 59.87 1.55 75.93 1.18
  Q 90.09 0.85 101.71 1.21
  Q 107.94 1.41 115.26 1.35
  Q 118.19 1.33 120.76 3.03
  Q 121.20 3.32 121.25 3.85
  Q 121.47 6.35 119.31 7.95
  Q 115.38 10.87 112.11 14.34
  Q 110.10 16.48 107.44 16.50
  Q 90.40 16.58 68.13 16.28
  C 64.88 16.24 61.63 16.50 58.36 16.46
  Q 39.65 16.27 21.43 16.30
  Q 16.87 16.31 16.84 20.40
  Q 16.52 67.52 17.04 106.16
  Q 17.09 109.40 14.69 111.60
  Z"
/>
<path fill="#c8acc8" d="
  M 53.51 114.98
  Q 53.63 114.88 53.75 114.88
  C 63.32 114.89 72.54 114.69 82.07 115.22
  C 87.52 115.53 93.39 115.66 98.78 114.79
  C 103.30 114.07 107.76 114.44 112.35 114.32
  A 2.88 2.88 0.0 0 0 115.16 111.55
  Q 115.61 99.69 115.50 88.00
  C 115.46 83.82 115.86 79.46 115.86 75.16
  Q 115.86 54.10 115.66 34.75
  Q 115.61 29.96 114.76 24.28
  Q 114.50 22.52 114.96 20.67
  Q 115.09 20.15 115.52 19.84
  Q 119.24 17.06 120.77 14.10
  Q 121.75 12.20 122.92 10.43
  A 1.71 1.71 0.0 0 1 126.04 11.13
  C 126.65 15.42 126.08 19.73 126.06 23.99
  C 125.98 39.67 125.61 55.57 125.76 71.01
  C 125.90 84.50 126.32 98.05 125.90 111.54
  Q 125.69 118.28 126.11 124.70
  Q 126.16 125.53 125.32 125.47
  Q 117.53 124.89 109.75 124.82
  Q 78.40 124.57 42.25 124.79
  Q 28.64 124.88 14.56 125.96
  Q 13.01 126.07 11.38 125.29
  A 1.30 1.29 9.7 0 1 10.65 124.27
  Q 10.44 122.44 12.15 121.57
  C 15.15 120.04 17.20 118.06 19.09 115.40
  C 20.31 113.70 22.37 113.69 24.24 113.92
  Q 28.22 114.43 32.25 114.64
  Q 42.59 115.19 53.13 115.12
  Q 53.35 115.12 53.51 114.98
  Z"
/>
<path fill="#a9830e" d="
  M 60.00 87.25
  L 60.02 45.51
  A 0.52 0.51 0.6 0 0 59.51 45.00
  L 46.99 44.99
  Q 45.98 44.99 45.98 43.98
  L 45.99 39.75
  Q 46.00 38.91 46.83 38.93
  C 53.08 39.07 60.50 38.05 61.56 30.67
  Q 61.65 30.03 62.30 30.02
  L 67.24 29.99
  Q 67.99 29.98 67.99 30.74
  L 68.00 87.05
  A 0.92 0.92 0.0 0 0 68.91 87.97
  L 80.25 88.03
  Q 80.97 88.03 80.98 88.75
  L 81.02 94.23
  Q 81.03 94.99 80.26 94.99
  L 46.74 95.00
  A 0.76 0.75 90.0 0 1 45.99 94.24
  L 45.98 88.78
  Q 45.98 88.04 46.72 88.04
  L 59.25 88.00
  Q 60.00 88.00 60.00 87.25
  Z"
/>
</svg>
