<?xml version="1.0" encoding="UTF-8" standalone="no"?>
<!DOCTYPE svg PUBLIC "-//W3C//DTD SVG 1.1//EN" "http://www.w3.org/Graphics/SVG/1.1/DTD/svg11.dtd">
<svg xmlns="http://www.w3.org/2000/svg" version="1.1" viewBox="0.00 0.00 128.00 128.00">
<g stroke-width="2.00" fill="none" stroke-linecap="butt">
<path stroke="#f3f3f3" vector-effect="non-scaling-stroke" d="
  M 13.25 112.84
  C 14.82 111.12 17.30 108.94 17.18 106.50
  Q 16.68 96.36 16.71 81.57
  Q 16.79 49.92 16.80 19.65
  C 16.80 16.48 19.76 16.30 22.05 16.32
  Q 43.22 16.44 75.31 16.20
  Q 88.93 16.09 106.04 16.57
  C 111.76 16.73 114.02 11.62 118.27 8.81
  Q 119.90 7.74 120.98 5.97
  A 2.42 2.42 0.0 0 0 120.11 2.59
  Q 117.77 1.27 115.04 1.32
  Q 106.90 1.47 98.81 1.14
  C 90.64 0.81 82.20 1.50 74.21 1.51
  Q 51.82 1.54 16.69 1.20
  C 11.74 1.15 6.75 0.55 1.90 0.91
  A 1.41 1.41 0.0 0 0 0.60 2.49
  C 1.32 8.19 2.15 13.56 1.97 19.49
  Q 1.69 28.48 1.77 38.75
  Q 1.98 64.57 1.73 88.92
  C 1.64 97.50 2.01 106.34 2.09 115.24
  Q 2.12 117.54 3.58 120.06
  A 1.87 1.87 0.0 0 0 6.23 120.67
  C 9.42 118.53 10.76 115.57 13.25 112.84"
/>
<path stroke="#d7c9d7" vector-effect="non-scaling-stroke" d="
  M 121.16 13.08
  C 120.33 15.58 118.26 17.73 116.27 19.16
  C 114.67 20.30 114.44 22.23 114.70 23.96
  Q 115.31 28.06 115.83 31.86
  C 116.05 33.51 115.53 34.87 115.56 36.41
  Q 115.87 53.45 115.86 72.90
  C 115.86 77.88 115.43 82.91 115.48 87.86
  Q 115.61 100.19 115.13 109.89
  Q 115.05 111.51 113.92 112.89
  C 112.81 114.22 110.76 114.21 109.19 114.07
  Q 107.98 113.96 106.75 114.00
  Q 102.27 114.12 97.73 114.29
  Q 97.43 114.30 97.36 114.59
  Q 97.30 114.86 97.05 114.86
  Q 90.98 114.88 84.91 114.87
  Q 84.76 114.87 84.63 114.80
  Q 84.49 114.72 84.35 114.64
  Q 83.90 114.39 83.38 114.39
  Q 69.94 114.39 56.84 114.13
  Q 54.58 114.09 52.15 114.32
  Q 49.81 114.54 47.44 114.26
  Q 43.92 113.85 40.54 113.88
  Q 31.88 113.97 23.75 113.23
  Q 22.50 113.12 21.29 113.46
  Q 20.27 113.75 19.48 114.59
  Q 17.70 116.47 15.73 118.16
  Q 14.35 119.34 12.76 120.21
  Q 10.75 121.31 10.54 123.45
  A 2.15 2.13 5.1 0 0 12.52 125.80
  Q 16.45 126.07 20.18 125.60
  Q 23.64 125.16 27.47 125.10
  Q 59.51 124.62 89.50 124.68
  Q 105.82 124.71 121.99 125.21
  Q 123.28 125.25 124.62 125.52
  Q 126.47 125.90 126.19 124.03
  Q 125.80 121.42 125.85 118.59
  Q 126.21 98.58 125.86 77.66
  Q 125.52 57.17 126.25 12.50
  Q 126.28 10.47 124.74 9.64
  Q 124.38 9.45 124.03 9.67
  Q 121.84 11.02 121.16 13.08"
/>
<path stroke="#c8b57a" vector-effect="non-scaling-stroke" d="
  M 50.56 87.00
  Q 49.84 87.00 50.40 86.54
  Q 59.96 78.72 68.79 70.36
  C 75.69 63.81 81.64 57.02 81.94 47.04
  C 82.33 33.61 70.37 28.23 58.81 29.12
  Q 50.48 29.77 43.25 32.92
  A 0.38 0.38 0.0 0 0 43.02 33.27
  Q 42.94 38.09 43.09 42.03
  A 0.05 0.05 0.0 0 0 43.16 42.07
  Q 53.39 36.21 63.03 37.16
  C 72.33 38.07 74.87 46.01 71.87 53.74
  Q 70.28 57.84 66.86 61.64
  C 59.14 70.22 50.55 77.58 41.59 84.83
  A 1.57 1.56 70.6 0 0 41.01 86.05
  L 41.00 94.25
  A 0.75 0.75 0.0 0 0 41.75 95.00
  L 84.26 95.00
  Q 85.01 95.00 85.01 94.24
  L 84.98 87.74
  Q 84.98 87.00 84.24 87.00
  L 50.56 87.00"
/>
</g>
<path fill="#e6e6e6" d="
  M 0.00 0.00
  L 128.00 0.00
  L 128.00 128.00
  L 0.00 128.00
  L 0.00 0.00
  Z
  M 13.25 112.84
  C 14.82 111.12 17.30 108.94 17.18 106.50
  Q 16.68 96.36 16.71 81.57
  Q 16.79 49.92 16.80 19.65
  C 16.80 16.48 19.76 16.30 22.05 16.32
  Q 43.22 16.44 75.31 16.20
  Q 88.93 16.09 106.04 16.57
  C 111.76 16.73 114.02 11.62 118.27 8.81
  Q 119.90 7.74 120.98 5.97
  A 2.42 2.42 0.0 0 0 120.11 2.59
  Q 117.77 1.27 115.04 1.32
  Q 106.90 1.47 98.81 1.14
  C 90.64 0.81 82.20 1.50 74.21 1.51
  Q 51.82 1.54 16.69 1.20
  C 11.74 1.15 6.75 0.55 1.90 0.91
  A 1.41 1.41 0.0 0 0 0.60 2.49
  C 1.32 8.19 2.15 13.56 1.97 19.49
  Q 1.69 28.48 1.77 38.75
  Q 1.98 64.57 1.73 88.92
  C 1.64 97.50 2.01 106.34 2.09 115.24
  Q 2.12 117.54 3.58 120.06
  A 1.87 1.87 0.0 0 0 6.23 120.67
  C 9.42 118.53 10.76 115.57 13.25 112.84
  Z
  M 121.16 13.08
  C 120.33 15.58 118.26 17.73 116.27 19.16
  C 114.67 20.30 114.44 22.23 114.70 23.96
  Q 115.31 28.06 115.83 31.86
  C 116.05 33.51 115.53 34.87 115.56 36.41
  Q 115.87 53.45 115.86 72.90
  C 115.86 77.88 115.43 82.91 115.48 87.86
  Q 115.61 100.19 115.13 109.89
  Q 115.05 111.51 113.92 112.89
  C 112.81 114.22 110.76 114.21 109.19 114.07
  Q 107.98 113.96 106.75 114.00
  Q 102.27 114.12 97.73 114.29
  Q 97.43 114.30 97.36 114.59
  Q 97.30 114.86 97.05 114.86
  Q 90.98 114.88 84.91 114.87
  Q 84.76 114.87 84.63 114.80
  Q 84.49 114.72 84.35 114.64
  Q 83.90 114.39 83.38 114.39
  Q 69.94 114.39 56.84 114.13
  Q 54.58 114.09 52.15 114.32
  Q 49.81 114.54 47.44 114.26
  Q 43.92 113.85 40.54 113.88
  Q 31.88 113.97 23.75 113.23
  Q 22.50 113.12 21.29 113.46
  Q 20.27 113.75 19.48 114.59
  Q 17.70 116.47 15.73 118.16
  Q 14.35 119.34 12.76 120.21
  Q 10.75 121.31 10.54 123.45
  A 2.15 2.13 5.1 0 0 12.52 125.80
  Q 16.45 126.07 20.18 125.60
  Q 23.64 125.16 27.47 125.10
  Q 59.51 124.62 89.50 124.68
  Q 105.82 124.71 121.99 125.21
  Q 123.28 125.25 124.62 125.52
  Q 126.47 125.90 126.19 124.03
  Q 125.80 121.42 125.85 118.59
  Q 126.21 98.58 125.86 77.66
  Q 125.52 57.17 126.25 12.50
  Q 126.28 10.47 124.74 9.64
  Q 124.38 9.45 124.03 9.67
  Q 121.84 11.02 121.16 13.08
  Z
  M 50.56 87.00
  Q 49.84 87.00 50.40 86.54
  Q 59.96 78.72 68.79 70.36
  C 75.69 63.81 81.64 57.02 81.94 47.04
  C 82.33 33.61 70.37 28.23 58.81 29.12
  Q 50.48 29.77 43.25 32.92
  A 0.38 0.38 0.0 0 0 43.02 33.27
  Q 42.94 38.09 43.09 42.03
  A 0.05 0.05 0.0 0 0 43.16 42.07
  Q 53.39 36.21 63.03 37.16
  C 72.33 38.07 74.87 46.01 71.87 53.74
  Q 70.28 57.84 66.86 61.64
  C 59.14 70.22 50.55 77.58 41.59 84.83
  A 1.57 1.56 70.6 0 0 41.01 86.05
  L 41.00 94.25
  A 0.75 0.75 0.0 0 0 41.75 95.00
  L 84.26 95.00
  Q 85.01 95.00 85.01 94.24
  L 84.98 87.74
  Q 84.98 87.00 84.24 87.00
  L 50.56 87.00
  Z"
/>
<path fill="#ffffff" d="
  M 13.25 112.84
  C 10.76 115.57 9.42 118.53 6.23 120.67
  A 1.87 1.87 0.0 0 1 3.58 120.06
  Q 2.12 117.54 2.09 115.24
  C 2.01 106.34 1.64 97.50 1.73 88.92
  Q 1.98 64.57 1.77 38.75
  Q 1.69 28.48 1.97 19.49
  C 2.15 13.56 1.32 8.19 0.60 2.49
  A 1.41 1.41 0.0 0 1 1.90 0.91
  C 6.75 0.55 11.74 1.15 16.69 1.20
  Q 51.82 1.54 74.21 1.51
  C 82.20 1.50 90.64 0.81 98.81 1.14
  Q 106.90 1.47 115.04 1.32
  Q 117.77 1.27 120.11 2.59
  A 2.42 2.42 0.0 0 1 120.98 5.97
  Q 119.90 7.74 118.27 8.81
  C 114.02 11.62 111.76 16.73 106.04 16.57
  Q 88.93 16.09 75.31 16.20
  Q 43.22 16.44 22.05 16.32
  C 19.76 16.30 16.80 16.48 16.80 19.65
  Q 16.79 49.92 16.71 81.57
  Q 16.68 96.36 17.18 106.50
  C 17.30 108.94 14.82 111.12 13.25 112.84
  Z"
/>
<path fill="#c8acc8" d="
  M 121.16 13.08
  Q 121.84 11.02 124.03 9.67
  Q 124.38 9.45 124.74 9.64
  Q 126.28 10.47 126.25 12.50
  Q 125.52 57.17 125.86 77.66
  Q 126.21 98.58 125.85 118.59
  Q 125.80 121.42 126.19 124.03
  Q 126.47 125.90 124.62 125.52
  Q 123.28 125.25 121.99 125.21
  Q 105.82 124.71 89.50 124.68
  Q 59.51 124.62 27.47 125.10
  Q 23.64 125.16 20.18 125.60
  Q 16.45 126.07 12.52 125.80
  A 2.15 2.13 5.1 0 1 10.54 123.45
  Q 10.75 121.31 12.76 120.21
  Q 14.35 119.34 15.73 118.16
  Q 17.70 116.47 19.48 114.59
  Q 20.27 113.75 21.29 113.46
  Q 22.50 113.12 23.75 113.23
  Q 31.88 113.97 40.54 113.88
  Q 43.92 113.85 47.44 114.26
  Q 49.81 114.54 52.15 114.32
  Q 54.58 114.09 56.84 114.13
  Q 69.94 114.39 83.38 114.39
  Q 83.90 114.39 84.35 114.64
  Q 84.49 114.72 84.63 114.80
  Q 84.76 114.87 84.91 114.87
  Q 90.98 114.88 97.05 114.86
  Q 97.30 114.86 97.36 114.59
  Q 97.43 114.30 97.73 114.29
  Q 102.27 114.12 106.75 114.00
  Q 107.98 113.96 109.19 114.07
  C 110.76 114.21 112.81 114.22 113.92 112.89
  Q 115.05 111.51 115.13 109.89
  Q 115.61 100.19 115.48 87.86
  C 115.43 82.91 115.86 77.88 115.86 72.90
  Q 115.87 53.45 115.56 36.41
  C 115.53 34.87 116.05 33.51 115.83 31.86
  Q 115.31 28.06 114.70 23.96
  C 114.44 22.23 114.67 20.30 116.27 19.16
  C 118.26 17.73 120.33 15.58 121.16 13.08
  Z"
/>
<path fill="#a9830e" d="
  M 50.56 87.00
  L 84.24 87.00
  Q 84.98 87.00 84.98 87.74
  L 85.01 94.24
  Q 85.01 95.00 84.26 95.00
  L 41.75 95.00
  A 0.75 0.75 0.0 0 1 41.00 94.25
  L 41.01 86.05
  A 1.57 1.56 70.6 0 1 41.59 84.83
  C 50.55 77.58 59.14 70.22 66.86 61.64
  Q 70.28 57.84 71.87 53.74
  C 74.87 46.01 72.33 38.07 63.03 37.16
  Q 53.39 36.21 43.16 42.07
  A 0.05 0.05 0.0 0 1 43.09 42.03
  Q 42.94 38.09 43.02 33.27
  A 0.38 0.38 0.0 0 1 43.25 32.92
  Q 50.48 29.77 58.81 29.12
  C 70.37 28.23 82.33 33.61 81.94 47.04
  C 81.64 57.02 75.69 63.81 68.79 70.36
  Q 59.96 78.72 50.40 86.54
  Q 49.84 87.00 50.56 87.00
  Z"
/>
</svg>
