<?xml version="1.0" encoding="UTF-8" standalone="no"?>
<!DOCTYPE svg PUBLIC "-//W3C//DTD SVG 1.1//EN" "http://www.w3.org/Graphics/SVG/1.1/DTD/svg11.dtd">
<svg xmlns="http://www.w3.org/2000/svg" version="1.1" viewBox="0.00 0.00 128.00 128.00">
<g stroke-width="2.00" fill="none" stroke-linecap="butt">
<path stroke="#f3f3f3" vector-effect="non-scaling-stroke" d="
  M 13.24 112.85
  C 15.04 110.91 17.41 108.91 17.20 106.01
  Q 16.89 101.70 16.86 98.00
  Q 16.58 56.28 16.85 19.59
  C 16.88 16.13 20.67 16.19 23.00 16.23
  C 50.54 16.72 78.25 15.89 106.00 16.50
  C 108.23 16.54 110.30 16.15 111.90 14.48
  Q 115.41 10.83 119.41 7.85
  Q 121.43 6.35 121.28 3.92
  A 1.19 1.17 -75.9 0 0 120.74 3.00
  Q 118.19 1.36 115.94 1.37
  Q 106.84 1.41 98.60 1.14
  C 90.25 0.87 81.57 1.53 73.08 1.53
  Q 47.90 1.51 16.88 1.21
  C 11.97 1.16 7.02 0.59 2.17 0.89
  Q 0.44 0.99 0.64 2.71
  C 1.28 8.23 2.18 13.39 1.98 19.04
  Q 1.64 28.85 1.77 38.18
  Q 2.09 60.02 1.77 83.05
  C 1.63 93.32 1.95 103.79 2.02 114.40
  C 2.03 116.33 2.61 118.41 3.58 120.05
  A 1.88 1.88 0.0 0 0 6.27 120.64
  Q 9.00 118.75 10.73 116.08
  Q 11.86 114.34 13.24 112.85"
/>
<path stroke="#d8cad7" vector-effect="non-scaling-stroke" d="
  M 120.80 14.01
  Q 119.23 17.15 115.53 19.76
  A 1.41 1.40 81.0 0 0 114.99 20.51
  C 114.19 23.17 115.13 25.49 115.19 28.06
  Q 115.61 47.13 116.04 66.19
  C 116.16 71.60 115.87 77.00 115.65 82.41
  C 115.28 91.10 115.62 99.87 115.18 108.74
  Q 115.14 109.51 115.20 110.29
  C 115.36 112.42 113.88 114.11 111.71 114.13
  Q 106.65 114.16 102.32 114.09
  Q 101.18 114.07 100.03 114.37
  Q 98.79 114.68 97.53 114.74
  Q 88.92 115.11 80.65 114.76
  Q 71.80 114.38 63.84 114.37
  C 55.97 114.36 48.17 114.43 40.06 114.14
  Q 30.21 113.78 20.86 113.63
  Q 20.33 113.62 19.97 114.00
  Q 15.37 118.80 10.42 122.33
  A 1.52 1.52 0.0 0 0 10.50 124.85
  C 13.57 126.75 18.26 125.80 21.60 125.51
  Q 24.90 125.23 28.51 125.16
  Q 68.05 124.47 107.33 124.80
  Q 111.01 124.83 114.67 124.96
  Q 118.29 125.10 121.99 125.31
  Q 123.48 125.39 124.85 125.55
  Q 126.22 125.71 126.19 124.33
  C 126.17 123.27 125.88 122.26 125.88 121.23
  C 125.89 112.02 126.18 102.99 125.99 93.61
  Q 125.76 82.35 125.61 70.49
  C 125.40 55.11 126.00 39.71 126.05 24.02
  C 126.07 19.82 126.66 15.48 126.05 11.27
  C 125.81 9.66 123.96 8.98 122.95 10.40
  Q 121.79 12.03 120.80 14.01"
/>
<path stroke="#c8b57a" vector-effect="non-scaling-stroke" d="
  M 70.24 59.37
  Q 68.77 58.85 70.29 58.48
  C 86.15 54.60 87.70 34.97 71.40 30.33
  Q 58.96 26.79 43.44 32.84
  Q 43.03 33.00 43.02 33.44
  Q 42.96 37.79 43.05 41.92
  A 0.12 0.11 -14.1 0 0 43.22 42.02
  C 50.47 38.03 62.02 34.77 69.50 38.56
  C 76.06 41.88 75.20 50.62 69.10 53.88
  C 65.10 56.01 60.71 56.14 56.27 55.99
  Q 56.00 55.98 56.00 56.25
  L 56.00 62.73
  Q 56.00 63.04 56.32 63.03
  C 63.53 62.73 72.98 62.75 74.72 71.45
  C 76.36 79.66 72.33 86.28 63.68 87.58
  Q 52.54 89.25 41.17 82.84
  A 0.04 0.04 0.0 0 0 41.11 82.87
  Q 40.95 86.96 41.01 91.64
  Q 41.02 91.94 41.30 92.05
  Q 52.28 96.43 62.55 95.86
  C 75.04 95.18 84.39 87.29 83.92 74.05
  C 83.66 66.98 79.06 61.83 72.22 59.98
  Q 71.22 59.71 70.24 59.37"
/>
</g>
<path fill="#e6e6e6" d="
  M 0.00 0.00
  L 128.00 0.00
  L 128.00 128.00
  L 0.00 128.00
  L 0.00 0.00
  Z
  M 13.24 112.85
  C 15.04 110.91 17.41 108.91 17.20 106.01
  Q 16.89 101.70 16.86 98.00
  Q 16.58 56.28 16.85 19.59
  C 16.88 16.13 20.67 16.19 23.00 16.23
  C 50.54 16.72 78.25 15.89 106.00 16.50
  C 108.23 16.54 110.30 16.15 111.90 14.48
  Q 115.41 10.83 119.41 7.85
  Q 121.43 6.35 121.28 3.92
  A 1.19 1.17 -75.9 0 0 120.74 3.00
  Q 118.19 1.36 115.94 1.37
  Q 106.84 1.41 98.60 1.14
  C 90.25 0.87 81.57 1.53 73.08 1.53
  Q 47.90 1.51 16.88 1.21
  C 11.97 1.16 7.02 0.59 2.17 0.89
  Q 0.44 0.99 0.64 2.71
  C 1.28 8.23 2.18 13.39 1.98 19.04
  Q 1.64 28.85 1.77 38.18
  Q 2.09 60.02 1.77 83.05
  C 1.63 93.32 1.95 103.79 2.02 114.40
  C 2.03 116.33 2.61 118.41 3.58 120.05
  A 1.88 1.88 0.0 0 0 6.27 120.64
  Q 9.00 118.75 10.73 116.08
  Q 11.86 114.34 13.24 112.85
  Z
  M 120.80 14.01
  Q 119.23 17.15 115.53 19.76
  A 1.41 1.40 81.0 0 0 114.99 20.51
  C 114.19 23.17 115.13 25.49 115.19 28.06
  Q 115.61 47.13 116.04 66.19
  C 116.16 71.60 115.87 77.00 115.65 82.41
  C 115.28 91.10 115.62 99.87 115.18 108.74
  Q 115.14 109.51 115.20 110.29
  C 115.36 112.42 113.88 114.11 111.71 114.13
  Q 106.65 114.16 102.32 114.09
  Q 101.18 114.07 100.03 114.37
  Q 98.79 114.68 97.53 114.74
  Q 88.92 115.11 80.65 114.76
  Q 71.80 114.38 63.84 114.37
  C 55.97 114.36 48.17 114.43 40.06 114.14
  Q 30.21 113.78 20.86 113.63
  Q 20.33 113.62 19.97 114.00
  Q 15.37 118.80 10.42 122.33
  A 1.52 1.52 0.0 0 0 10.50 124.85
  C 13.57 126.75 18.26 125.80 21.60 125.51
  Q 24.90 125.23 28.51 125.16
  Q 68.05 124.47 107.33 124.80
  Q 111.01 124.83 114.67 124.96
  Q 118.29 125.10 121.99 125.31
  Q 123.48 125.39 124.85 125.55
  Q 126.22 125.71 126.19 124.33
  C 126.17 123.27 125.88 122.26 125.88 121.23
  C 125.89 112.02 126.18 102.99 125.99 93.61
  Q 125.76 82.35 125.61 70.49
  C 125.40 55.11 126.00 39.71 126.05 24.02
  C 126.07 19.82 126.66 15.48 126.05 11.27
  C 125.81 9.66 123.96 8.98 122.95 10.40
  Q 121.79 12.03 120.80 14.01
  Z
  M 70.24 59.37
  Q 68.77 58.85 70.29 58.48
  C 86.15 54.60 87.70 34.97 71.40 30.33
  Q 58.96 26.79 43.44 32.84
  Q 43.03 33.00 43.02 33.44
  Q 42.96 37.79 43.05 41.92
  A 0.12 0.11 -14.1 0 0 43.22 42.02
  C 50.47 38.03 62.02 34.77 69.50 38.56
  C 76.06 41.88 75.20 50.62 69.10 53.88
  C 65.10 56.01 60.71 56.14 56.27 55.99
  Q 56.00 55.98 56.00 56.25
  L 56.00 62.73
  Q 56.00 63.04 56.32 63.03
  C 63.53 62.73 72.98 62.75 74.72 71.45
  C 76.36 79.66 72.33 86.28 63.68 87.58
  Q 52.54 89.25 41.17 82.84
  A 0.04 0.04 0.0 0 0 41.11 82.87
  Q 40.95 86.96 41.01 91.64
  Q 41.02 91.94 41.30 92.05
  Q 52.28 96.43 62.55 95.86
  C 75.04 95.18 84.39 87.29 83.92 74.05
  C 83.66 66.98 79.06 61.83 72.22 59.98
  Q 71.22 59.71 70.24 59.37
  Z"
/>
<path fill="#ffffff" d="
  M 10.73 116.08
  Q 9.00 118.75 6.27 120.64
  A 1.88 1.88 0.0 0 1 3.58 120.05
  C 2.61 118.41 2.03 116.33 2.02 114.40
  C 1.95 103.79 1.63 93.32 1.77 83.05
  Q 2.09 60.02 1.77 38.18
  Q 1.64 28.85 1.98 19.04
  C 2.18 13.39 1.28 8.23 0.64 2.71
  Q 0.44 0.99 2.17 0.89
  C 7.02 0.59 11.97 1.16 16.88 1.21
  Q 47.90 1.51 73.08 1.53
  C 81.57 1.53 90.25 0.87 98.60 1.14
  Q 106.84 1.41 115.94 1.37
  Q 118.19 1.36 120.74 3.00
  A 1.19 1.17 -75.9 0 1 121.28 3.92
  Q 121.43 6.35 119.41 7.85
  Q 115.41 10.83 111.90 14.48
  C 110.30 16.15 108.23 16.54 106.00 16.50
  C 78.25 15.89 50.54 16.72 23.00 16.23
  C 20.67 16.19 16.88 16.13 16.85 19.59
  Q 16.58 56.28 16.86 98.00
  Q 16.89 101.70 17.20 106.01
  C 17.41 108.91 15.04 110.91 13.24 112.85
  Q 11.86 114.34 10.73 116.08
  Z"
/>
<path fill="#c9adc8" d="
  M 120.80 14.01
  Q 121.79 12.03 122.95 10.40
  C 123.96 8.98 125.81 9.66 126.05 11.27
  C 126.66 15.48 126.07 19.82 126.05 24.02
  C 126.00 39.71 125.40 55.11 125.61 70.49
  Q 125.76 82.35 125.99 93.61
  C 126.18 102.99 125.89 112.02 125.88 121.23
  C 125.88 122.26 126.17 123.27 126.19 124.33
  Q 126.22 125.71 124.85 125.55
  Q 123.48 125.39 121.99 125.31
  Q 118.29 125.10 114.67 124.96
  Q 111.01 124.83 107.33 124.80
  Q 68.05 124.47 28.51 125.16
  Q 24.90 125.23 21.60 125.51
  C 18.26 125.80 13.57 126.75 10.50 124.85
  A 1.52 1.52 0.0 0 1 10.42 122.33
  Q 15.37 118.80 19.97 114.00
  Q 20.33 113.62 20.86 113.63
  Q 30.21 113.78 40.06 114.14
  C 48.17 114.43 55.97 114.36 63.84 114.37
  Q 71.80 114.38 80.65 114.76
  Q 88.92 115.11 97.53 114.74
  Q 98.79 114.68 100.03 114.37
  Q 101.18 114.07 102.32 114.09
  Q 106.65 114.16 111.71 114.13
  C 113.88 114.11 115.36 112.42 115.20 110.29
  Q 115.14 109.51 115.18 108.74
  C 115.62 99.87 115.28 91.10 115.65 82.41
  C 115.87 77.00 116.16 71.60 116.04 66.19
  Q 115.61 47.13 115.19 28.06
  C 115.13 25.49 114.19 23.17 114.99 20.51
  A 1.41 1.40 81.0 0 1 115.53 19.76
  Q 119.23 17.15 120.80 14.01
  Z"
/>
<path fill="#a9830e" d="
  M 70.24 59.37
  Q 71.22 59.71 72.22 59.98
  C 79.06 61.83 83.66 66.98 83.92 74.05
  C 84.39 87.29 75.04 95.18 62.55 95.86
  Q 52.28 96.43 41.30 92.05
  Q 41.02 91.94 41.01 91.64
  Q 40.95 86.96 41.11 82.87
  A 0.04 0.04 0.0 0 1 41.17 82.84
  Q 52.54 89.25 63.68 87.58
  C 72.33 86.28 76.36 79.66 74.72 71.45
  C 72.98 62.75 63.53 62.73 56.32 63.03
  Q 56.00 63.04 56.00 62.73
  L 56.00 56.25
  Q 56.00 55.98 56.27 55.99
  C 60.71 56.14 65.10 56.01 69.10 53.88
  C 75.20 50.62 76.06 41.88 69.50 38.56
  C 62.02 34.77 50.47 38.03 43.22 42.02
  A 0.12 0.11 -14.1 0 1 43.05 41.92
  Q 42.96 37.79 43.02 33.44
  Q 43.03 33.00 43.44 32.84
  Q 58.96 26.79 71.40 30.33
  C 87.70 34.97 86.15 54.60 70.29 58.48
  Q 68.77 58.85 70.24 59.37
  Z"
/>
</svg>
