<?xml version="1.0" encoding="UTF-8" standalone="no"?>
<!DOCTYPE svg PUBLIC "-//W3C//DTD SVG 1.1//EN" "http://www.w3.org/Graphics/SVG/1.1/DTD/svg11.dtd">
<svg xmlns="http://www.w3.org/2000/svg" version="1.1" viewBox="0.00 0.00 128.00 128.00">
<g stroke-width="2.00" fill="none" stroke-linecap="butt">
<path stroke="#f3f3f3" vector-effect="non-scaling-stroke" d="
  M 17.59 17.82
  A 2.75 2.73 -76.6 0 1 19.72 16.50
  C 25.42 16.02 31.24 16.43 37.08 16.38
  Q 72.79 16.09 106.22 16.61
  C 108.36 16.65 110.52 16.00 112.04 14.40
  Q 115.41 10.84 119.35 7.91
  Q 121.58 6.26 121.20 3.71
  A 1.12 1.12 0.0 0 0 120.66 2.91
  Q 117.97 1.31 115.22 1.34
  C 105.83 1.41 95.70 0.92 86.91 1.10
  Q 68.04 1.49 44.53 1.05
  Q 33.34 0.84 19.44 1.22
  C 13.54 1.39 7.58 0.51 1.76 0.93
  A 1.16 1.15 1.8 0 0 0.70 1.92
  Q 0.54 3.17 0.77 4.49
  Q 2.17 12.28 1.99 19.03
  C 1.47 38.34 2.08 57.62 1.85 76.99
  Q 1.65 93.94 2.04 114.30
  Q 2.10 117.69 3.81 120.41
  A 1.67 1.67 0.0 0 0 6.18 120.89
  C 7.05 120.28 8.01 119.59 8.68 118.76
  Q 11.94 114.71 15.00 111.38
  C 16.48 109.76 17.29 107.96 17.13 105.75
  Q 16.77 100.74 16.76 96.25
  Q 16.64 69.09 16.69 30.75
  Q 16.70 26.11 16.73 21.00
  Q 16.74 19.21 17.59 17.82"
/>
<path stroke="#d8c9d7" vector-effect="non-scaling-stroke" d="
  M 121.91 12.19
  Q 121.68 12.23 121.59 12.44
  Q 119.88 16.58 116.35 19.08
  C 115.03 20.02 114.42 21.77 114.63 23.27
  Q 115.14 26.91 115.23 30.03
  Q 115.67 44.08 115.93 64.42
  Q 116.03 72.24 115.71 79.85
  C 115.28 90.20 115.43 101.04 115.38 111.42
  Q 115.37 112.80 114.53 113.65
  Q 113.49 114.70 112.01 114.52
  Q 106.81 113.92 102.14 114.37
  Q 96.79 114.89 91.95 114.93
  Q 72.37 115.10 54.16 115.43
  Q 46.39 115.58 39.01 115.04
  Q 31.45 114.48 23.15 113.73
  Q 20.41 113.49 18.96 115.58
  Q 16.24 119.50 12.11 121.66
  Q 10.21 122.65 10.82 124.62
  Q 10.99 125.16 11.52 125.37
  Q 13.40 126.12 15.26 125.97
  Q 31.88 124.56 43.75 124.51
  Q 58.71 124.45 73.76 124.54
  C 84.92 124.60 96.41 125.02 107.68 124.78
  C 112.16 124.68 116.45 125.12 120.91 124.91
  C 122.37 124.84 123.63 125.23 125.06 125.46
  A 0.91 0.91 0.0 0 0 126.10 124.47
  Q 125.61 119.89 125.74 115.70
  Q 126.27 98.90 125.77 80.00
  Q 125.34 63.35 125.91 43.68
  C 126.19 33.92 125.87 23.97 126.38 14.00
  Q 126.48 12.00 125.59 10.27
  Q 125.32 9.76 124.75 9.83
  Q 123.02 10.03 122.27 11.91
  Q 122.17 12.15 121.91 12.19"
/>
<path stroke="#c8b57a" vector-effect="non-scaling-stroke" d="
  M 77.68 69.97
  A 0.71 0.71 0.0 0 1 76.98 69.26
  L 77.00 30.67
  A 0.71 0.71 0.0 0 0 76.28 29.96
  L 69.64 30.07
  A 0.71 0.71 0.0 0 0 69.12 30.32
  L 37.23 66.70
  A 0.71 0.71 0.0 0 0 37.06 67.16
  L 36.97 76.28
  A 0.71 0.71 0.0 0 0 37.68 77.00
  L 68.30 77.00
  A 0.71 0.71 0.0 0 1 69.01 77.71
  L 69.00 94.28
  A 0.71 0.71 0.0 0 0 69.71 94.99
  L 76.30 95.01
  A 0.71 0.71 0.0 0 0 77.01 94.30
  L 76.98 77.71
  A 0.71 0.71 0.0 0 1 77.69 77.00
  L 86.31 76.99
  A 0.71 0.71 0.0 0 0 87.02 76.27
  L 86.96 70.74
  A 0.71 0.71 0.0 0 0 86.25 70.03
  L 77.68 69.97"
/>
<path stroke="#c8b57a" vector-effect="non-scaling-stroke" d="
  M 69.02 41.77
  A 0.33 0.33 0.0 0 0 68.44 41.55
  L 43.98 69.46
  A 0.33 0.33 0.0 0 0 44.23 70.01
  L 68.66 70.00
  A 0.33 0.33 0.0 0 0 68.99 69.67
  L 69.02 41.77"
/>
</g>
<path fill="#e6e6e6" d="
  M 0.00 0.00
  L 128.00 0.00
  L 128.00 128.00
  L 0.00 128.00
  L 0.00 0.00
  Z
  M 17.59 17.82
  A 2.75 2.73 -76.6 0 1 19.72 16.50
  C 25.42 16.02 31.24 16.43 37.08 16.38
  Q 72.79 16.09 106.22 16.61
  C 108.36 16.65 110.52 16.00 112.04 14.40
  Q 115.41 10.84 119.35 7.91
  Q 121.58 6.26 121.20 3.71
  A 1.12 1.12 0.0 0 0 120.66 2.91
  Q 117.97 1.31 115.22 1.34
  C 105.83 1.41 95.70 0.92 86.91 1.10
  Q 68.04 1.49 44.53 1.05
  Q 33.34 0.84 19.44 1.22
  C 13.54 1.39 7.58 0.51 1.76 0.93
  A 1.16 1.15 1.8 0 0 0.70 1.92
  Q 0.54 3.17 0.77 4.49
  Q 2.17 12.28 1.99 19.03
  C 1.47 38.34 2.08 57.62 1.85 76.99
  Q 1.65 93.94 2.04 114.30
  Q 2.10 117.69 3.81 120.41
  A 1.67 1.67 0.0 0 0 6.18 120.89
  C 7.05 120.28 8.01 119.59 8.68 118.76
  Q 11.94 114.71 15.00 111.38
  C 16.48 109.76 17.29 107.96 17.13 105.75
  Q 16.77 100.74 16.76 96.25
  Q 16.64 69.09 16.69 30.75
  Q 16.70 26.11 16.73 21.00
  Q 16.74 19.21 17.59 17.82
  Z
  M 121.91 12.19
  Q 121.68 12.23 121.59 12.44
  Q 119.88 16.58 116.35 19.08
  C 115.03 20.02 114.42 21.77 114.63 23.27
  Q 115.14 26.91 115.23 30.03
  Q 115.67 44.08 115.93 64.42
  Q 116.03 72.24 115.71 79.85
  C 115.28 90.20 115.43 101.04 115.38 111.42
  Q 115.37 112.80 114.53 113.65
  Q 113.49 114.70 112.01 114.52
  Q 106.81 113.92 102.14 114.37
  Q 96.79 114.89 91.95 114.93
  Q 72.37 115.10 54.16 115.43
  Q 46.39 115.58 39.01 115.04
  Q 31.45 114.48 23.15 113.73
  Q 20.41 113.49 18.96 115.58
  Q 16.24 119.50 12.11 121.66
  Q 10.21 122.65 10.82 124.62
  Q 10.99 125.16 11.52 125.37
  Q 13.40 126.12 15.26 125.97
  Q 31.88 124.56 43.75 124.51
  Q 58.71 124.45 73.76 124.54
  C 84.92 124.60 96.41 125.02 107.68 124.78
  C 112.16 124.68 116.45 125.12 120.91 124.91
  C 122.37 124.84 123.63 125.23 125.06 125.46
  A 0.91 0.91 0.0 0 0 126.10 124.47
  Q 125.61 119.89 125.74 115.70
  Q 126.27 98.90 125.77 80.00
  Q 125.34 63.35 125.91 43.68
  C 126.19 33.92 125.87 23.97 126.38 14.00
  Q 126.48 12.00 125.59 10.27
  Q 125.32 9.76 124.75 9.83
  Q 123.02 10.03 122.27 11.91
  Q 122.17 12.15 121.91 12.19
  Z
  M 77.68 69.97
  A 0.71 0.71 0.0 0 1 76.98 69.26
  L 77.00 30.67
  A 0.71 0.71 0.0 0 0 76.28 29.96
  L 69.64 30.07
  A 0.71 0.71 0.0 0 0 69.12 30.32
  L 37.23 66.70
  A 0.71 0.71 0.0 0 0 37.06 67.16
  L 36.97 76.28
  A 0.71 0.71 0.0 0 0 37.68 77.00
  L 68.30 77.00
  A 0.71 0.71 0.0 0 1 69.01 77.71
  L 69.00 94.28
  A 0.71 0.71 0.0 0 0 69.71 94.99
  L 76.30 95.01
  A 0.71 0.71 0.0 0 0 77.01 94.30
  L 76.98 77.71
  A 0.71 0.71 0.0 0 1 77.69 77.00
  L 86.31 76.99
  A 0.71 0.71 0.0 0 0 87.02 76.27
  L 86.96 70.74
  A 0.71 0.71 0.0 0 0 86.25 70.03
  L 77.68 69.97
  Z"
/>
<path fill="#ffffff" d="
  M 17.59 17.82
  Q 16.74 19.21 16.73 21.00
  Q 16.70 26.11 16.69 30.75
  Q 16.64 69.09 16.76 96.25
  Q 16.77 100.74 17.13 105.75
  C 17.29 107.96 16.48 109.76 15.00 111.38
  Q 11.94 114.71 8.68 118.76
  C 8.01 119.59 7.05 120.28 6.18 120.89
  A 1.67 1.67 0.0 0 1 3.81 120.41
  Q 2.10 117.69 2.04 114.30
  Q 1.65 93.94 1.85 76.99
  C 2.08 57.62 1.47 38.34 1.99 19.03
  Q 2.17 12.28 0.77 4.49
  Q 0.54 3.17 0.70 1.92
  A 1.16 1.15 1.8 0 1 1.76 0.93
  C 7.58 0.51 13.54 1.39 19.44 1.22
  Q 33.34 0.84 44.53 1.05
  Q 68.04 1.49 86.91 1.10
  C 95.70 0.92 105.83 1.41 115.22 1.34
  Q 117.97 1.31 120.66 2.91
  A 1.12 1.12 0.0 0 1 121.20 3.71
  Q 121.58 6.26 119.35 7.91
  Q 115.41 10.84 112.04 14.40
  C 110.52 16.00 108.36 16.65 106.22 16.61
  Q 72.79 16.09 37.08 16.38
  C 31.24 16.43 25.42 16.02 19.72 16.50
  A 2.75 2.73 -76.6 0 0 17.59 17.82
  Z"
/>
<path fill="#c9acc8" d="
  M 122.27 11.91
  Q 123.02 10.03 124.75 9.83
  Q 125.32 9.76 125.59 10.27
  Q 126.48 12.00 126.38 14.00
  C 125.87 23.97 126.19 33.92 125.91 43.68
  Q 125.34 63.35 125.77 80.00
  Q 126.27 98.90 125.74 115.70
  Q 125.61 119.89 126.10 124.47
  A 0.91 0.91 0.0 0 1 125.06 125.46
  C 123.63 125.23 122.37 124.84 120.91 124.91
  C 116.45 125.12 112.16 124.68 107.68 124.78
  C 96.41 125.02 84.92 124.60 73.76 124.54
  Q 58.71 124.45 43.75 124.51
  Q 31.88 124.56 15.26 125.97
  Q 13.40 126.12 11.52 125.37
  Q 10.99 125.16 10.82 124.62
  Q 10.21 122.65 12.11 121.66
  Q 16.24 119.50 18.96 115.58
  Q 20.41 113.49 23.15 113.73
  Q 31.45 114.48 39.01 115.04
  Q 46.39 115.58 54.16 115.43
  Q 72.37 115.10 91.95 114.93
  Q 96.79 114.89 102.14 114.37
  Q 106.81 113.92 112.01 114.52
  Q 113.49 114.70 114.53 113.65
  Q 115.37 112.80 115.38 111.42
  C 115.43 101.04 115.28 90.20 115.71 79.85
  Q 116.03 72.24 115.93 64.42
  Q 115.67 44.08 115.23 30.03
  Q 115.14 26.91 114.63 23.27
  C 114.42 21.77 115.03 20.02 116.35 19.08
  Q 119.88 16.58 121.59 12.44
  Q 121.68 12.23 121.91 12.19
  Q 122.17 12.15 122.27 11.91
  Z"
/>
<path fill="#a9830e" d="
  M 77.68 69.97
  L 86.25 70.03
  A 0.71 0.71 0.0 0 1 86.96 70.74
  L 87.02 76.27
  A 0.71 0.71 0.0 0 1 86.31 76.99
  L 77.69 77.00
  A 0.71 0.71 0.0 0 0 76.98 77.71
  L 77.01 94.30
  A 0.71 0.71 0.0 0 1 76.30 95.01
  L 69.71 94.99
  A 0.71 0.71 0.0 0 1 69.00 94.28
  L 69.01 77.71
  A 0.71 0.71 0.0 0 0 68.30 77.00
  L 37.68 77.00
  A 0.71 0.71 0.0 0 1 36.97 76.28
  L 37.06 67.16
  A 0.71 0.71 0.0 0 1 37.23 66.70
  L 69.12 30.32
  A 0.71 0.71 0.0 0 1 69.64 30.07
  L 76.28 29.96
  A 0.71 0.71 0.0 0 1 77.00 30.67
  L 76.98 69.26
  A 0.71 0.71 0.0 0 0 77.68 69.97
  Z
  M 69.02 41.77
  A 0.33 0.33 0.0 0 0 68.44 41.55
  L 43.98 69.46
  A 0.33 0.33 0.0 0 0 44.23 70.01
  L 68.66 70.00
  A 0.33 0.33 0.0 0 0 68.99 69.67
  L 69.02 41.77
  Z"
/>
<path fill="#e6e6e6" d="
  M 69.02 41.77
  L 68.99 69.67
  A 0.33 0.33 0.0 0 1 68.66 70.00
  L 44.23 70.01
  A 0.33 0.33 0.0 0 1 43.98 69.46
  L 68.44 41.55
  A 0.33 0.33 0.0 0 1 69.02 41.77
  Z"
/>
</svg>
