<?xml version="1.0" encoding="UTF-8" standalone="no"?>
<!DOCTYPE svg PUBLIC "-//W3C//DTD SVG 1.1//EN" "http://www.w3.org/Graphics/SVG/1.1/DTD/svg11.dtd">
<svg xmlns="http://www.w3.org/2000/svg" version="1.1" viewBox="0.00 0.00 128.00 128.00">
<g stroke-width="2.00" fill="none" stroke-linecap="butt">
<path stroke="#f3f3f3" vector-effect="non-scaling-stroke" d="
  M 74.47 1.40
  C 55.66 1.74 37.56 0.98 18.98 1.24
  C 13.27 1.32 7.69 0.56 2.17 0.89
  Q 0.42 0.99 0.63 2.73
  C 1.30 8.23 2.18 13.45 1.96 19.08
  Q 1.67 26.54 1.76 33.90
  Q 2.07 60.15 1.74 85.88
  C 1.62 95.22 2.00 104.86 2.04 114.35
  C 2.04 116.33 2.59 118.46 3.66 120.16
  A 1.79 1.79 0.0 0 0 6.14 120.72
  Q 8.52 119.22 10.23 116.79
  Q 12.64 113.37 15.33 110.59
  Q 17.42 108.45 17.19 105.47
  Q 16.89 101.43 16.86 97.93
  Q 16.59 64.27 16.87 20.13
  C 16.89 16.00 21.20 16.25 24.00 16.29
  Q 36.83 16.44 48.18 16.80
  C 55.01 17.02 61.64 16.77 68.44 16.87
  C 81.04 17.05 93.33 16.22 105.86 16.56
  C 110.53 16.69 112.56 13.92 115.52 10.93
  C 117.24 9.20 119.34 8.30 120.85 6.25
  A 2.52 2.51 -56.6 0 0 120.10 2.59
  Q 118.17 1.46 115.75 1.41
  Q 95.48 1.01 74.47 1.40"
/>
<path stroke="#d7c9d7" vector-effect="non-scaling-stroke" d="
  M 11.51 124.84
  Q 12.25 125.95 13.67 125.95
  C 18.03 125.96 22.37 125.26 26.76 125.18
  Q 68.94 124.44 108.41 124.84
  Q 114.93 124.91 122.23 125.29
  Q 123.63 125.36 125.03 125.56
  A 1.05 1.05 0.0 0 0 126.22 124.53
  C 126.22 123.41 125.87 122.34 125.88 121.27
  C 125.99 106.82 126.19 93.19 125.69 78.00
  Q 125.38 68.76 125.61 58.68
  Q 126.00 41.08 126.05 24.18
  C 126.06 19.85 126.68 15.44 126.04 11.23
  C 125.78 9.49 123.84 9.06 122.84 10.49
  Q 121.69 12.15 120.81 14.00
  Q 119.40 16.97 116.13 19.30
  C 114.83 20.22 114.56 21.80 114.66 23.28
  C 114.90 26.73 115.33 30.16 115.40 33.70
  Q 115.76 52.03 115.94 70.27
  Q 115.98 75.05 115.63 81.41
  Q 115.33 86.67 115.43 92.43
  Q 115.60 102.22 114.94 112.10
  Q 114.91 112.61 114.56 113.00
  Q 113.39 114.31 111.60 114.35
  Q 107.99 114.42 104.34 114.37
  C 100.59 114.32 97.00 115.18 93.25 115.18
  Q 77.66 115.20 58.25 114.56
  Q 53.27 114.39 48.42 114.51
  Q 43.92 114.62 38.83 114.33
  Q 31.33 113.92 22.45 113.75
  C 21.48 113.73 20.42 114.06 19.76 114.83
  C 17.34 117.66 15.22 120.12 11.78 121.90
  A 2.30 2.29 -87.9 0 0 10.85 122.77
  Q 10.16 123.95 11.27 124.61
  A 0.64 0.60 87.2 0 1 11.51 124.84"
/>
<path stroke="#c8b57a" vector-effect="non-scaling-stroke" d="
  M 53.61 37.00
  L 84.26 37.00
  Q 85.01 37.00 85.01 36.24
  L 84.99 29.74
  Q 84.98 28.99 84.24 28.99
  L 45.50 28.99
  A 0.51 0.50 -90.0 0 0 45.00 29.50
  L 45.00 62.52
  A 0.37 0.37 0.0 0 0 45.48 62.88
  C 53.93 60.41 75.50 57.98 75.94 72.21
  Q 76.42 87.41 61.06 87.97
  Q 52.39 88.28 42.17 82.90
  A 0.04 0.04 0.0 0 0 42.11 82.94
  Q 41.92 87.47 42.02 91.92
  A 0.33 0.33 0.0 0 0 42.23 92.23
  C 56.79 98.04 77.27 98.86 83.59 81.63
  C 86.59 73.46 85.00 63.20 77.28 58.07
  C 70.71 53.71 61.18 53.50 53.53 54.42
  A 0.47 0.46 -3.3 0 1 53.01 53.96
  L 52.97 37.64
  Q 52.97 37.00 53.61 37.00"
/>
</g>
<path fill="#e6e6e6" d="
  M 0.00 0.00
  L 128.00 0.00
  L 128.00 128.00
  L 0.00 128.00
  L 0.00 0.00
  Z
  M 74.47 1.40
  C 55.66 1.74 37.56 0.98 18.98 1.24
  C 13.27 1.32 7.69 0.56 2.17 0.89
  Q 0.42 0.99 0.63 2.73
  C 1.30 8.23 2.18 13.45 1.96 19.08
  Q 1.67 26.54 1.76 33.90
  Q 2.07 60.15 1.74 85.88
  C 1.62 95.22 2.00 104.86 2.04 114.35
  C 2.04 116.33 2.59 118.46 3.66 120.16
  A 1.79 1.79 0.0 0 0 6.14 120.72
  Q 8.52 119.22 10.23 116.79
  Q 12.64 113.37 15.33 110.59
  Q 17.42 108.45 17.19 105.47
  Q 16.89 101.43 16.86 97.93
  Q 16.59 64.27 16.87 20.13
  C 16.89 16.00 21.20 16.25 24.00 16.29
  Q 36.83 16.44 48.18 16.80
  C 55.01 17.02 61.64 16.77 68.44 16.87
  C 81.04 17.05 93.33 16.22 105.86 16.56
  C 110.53 16.69 112.56 13.92 115.52 10.93
  C 117.24 9.20 119.34 8.30 120.85 6.25
  A 2.52 2.51 -56.6 0 0 120.10 2.59
  Q 118.17 1.46 115.75 1.41
  Q 95.48 1.01 74.47 1.40
  Z
  M 11.51 124.84
  Q 12.25 125.95 13.67 125.95
  C 18.03 125.96 22.37 125.26 26.76 125.18
  Q 68.94 124.44 108.41 124.84
  Q 114.93 124.91 122.23 125.29
  Q 123.63 125.36 125.03 125.56
  A 1.05 1.05 0.0 0 0 126.22 124.53
  C 126.22 123.41 125.87 122.34 125.88 121.27
  C 125.99 106.82 126.19 93.19 125.69 78.00
  Q 125.38 68.76 125.61 58.68
  Q 126.00 41.08 126.05 24.18
  C 126.06 19.85 126.68 15.44 126.04 11.23
  C 125.78 9.49 123.84 9.06 122.84 10.49
  Q 121.69 12.15 120.81 14.00
  Q 119.40 16.97 116.13 19.30
  C 114.83 20.22 114.56 21.80 114.66 23.28
  C 114.90 26.73 115.33 30.16 115.40 33.70
  Q 115.76 52.03 115.94 70.27
  Q 115.98 75.05 115.63 81.41
  Q 115.33 86.67 115.43 92.43
  Q 115.60 102.22 114.94 112.10
  Q 114.91 112.61 114.56 113.00
  Q 113.39 114.31 111.60 114.35
  Q 107.99 114.42 104.34 114.37
  C 100.59 114.32 97.00 115.18 93.25 115.18
  Q 77.66 115.20 58.25 114.56
  Q 53.27 114.39 48.42 114.51
  Q 43.92 114.62 38.83 114.33
  Q 31.33 113.92 22.45 113.75
  C 21.48 113.73 20.42 114.06 19.76 114.83
  C 17.34 117.66 15.22 120.12 11.78 121.90
  A 2.30 2.29 -87.9 0 0 10.85 122.77
  Q 10.16 123.95 11.27 124.61
  A 0.64 0.60 87.2 0 1 11.51 124.84
  Z
  M 53.61 37.00
  L 84.26 37.00
  Q 85.01 37.00 85.01 36.24
  L 84.99 29.74
  Q 84.98 28.99 84.24 28.99
  L 45.50 28.99
  A 0.51 0.50 -90.0 0 0 45.00 29.50
  L 45.00 62.52
  A 0.37 0.37 0.0 0 0 45.48 62.88
  C 53.93 60.41 75.50 57.98 75.94 72.21
  Q 76.42 87.41 61.06 87.97
  Q 52.39 88.28 42.17 82.90
  A 0.04 0.04 0.0 0 0 42.11 82.94
  Q 41.92 87.47 42.02 91.92
  A 0.33 0.33 0.0 0 0 42.23 92.23
  C 56.79 98.04 77.27 98.86 83.59 81.63
  C 86.59 73.46 85.00 63.20 77.28 58.07
  C 70.71 53.71 61.18 53.50 53.53 54.42
  A 0.47 0.46 -3.3 0 1 53.01 53.96
  L 52.97 37.64
  Q 52.97 37.00 53.61 37.00
  Z"
/>
<path fill="#ffffff" d="
  M 74.47 1.40
  Q 95.48 1.01 115.75 1.41
  Q 118.17 1.46 120.10 2.59
  A 2.52 2.51 -56.6 0 1 120.85 6.25
  C 119.34 8.30 117.24 9.20 115.52 10.93
  C 112.56 13.92 110.53 16.69 105.86 16.56
  C 93.33 16.22 81.04 17.05 68.44 16.87
  C 61.64 16.77 55.01 17.02 48.18 16.80
  Q 36.83 16.44 24.00 16.29
  C 21.20 16.25 16.89 16.00 16.87 20.13
  Q 16.59 64.27 16.86 97.93
  Q 16.89 101.43 17.19 105.47
  Q 17.42 108.45 15.33 110.59
  Q 12.64 113.37 10.23 116.79
  Q 8.52 119.22 6.14 120.72
  A 1.79 1.79 0.0 0 1 3.66 120.16
  C 2.59 118.46 2.04 116.33 2.04 114.35
  C 2.00 104.86 1.62 95.22 1.74 85.88
  Q 2.07 60.15 1.76 33.90
  Q 1.67 26.54 1.96 19.08
  C 2.18 13.45 1.30 8.23 0.63 2.73
  Q 0.42 0.99 2.17 0.89
  C 7.69 0.56 13.27 1.32 18.98 1.24
  C 37.56 0.98 55.66 1.74 74.47 1.40
  Z"
/>
<path fill="#c8acc8" d="
  M 11.27 124.61
  Q 10.16 123.95 10.85 122.77
  A 2.30 2.29 -87.9 0 1 11.78 121.90
  C 15.22 120.12 17.34 117.66 19.76 114.83
  C 20.42 114.06 21.48 113.73 22.45 113.75
  Q 31.33 113.92 38.83 114.33
  Q 43.92 114.62 48.42 114.51
  Q 53.27 114.39 58.25 114.56
  Q 77.66 115.20 93.25 115.18
  C 97.00 115.18 100.59 114.32 104.34 114.37
  Q 107.99 114.42 111.60 114.35
  Q 113.39 114.31 114.56 113.00
  Q 114.91 112.61 114.94 112.10
  Q 115.60 102.22 115.43 92.43
  Q 115.33 86.67 115.63 81.41
  Q 115.98 75.05 115.94 70.27
  Q 115.76 52.03 115.40 33.70
  C 115.33 30.16 114.90 26.73 114.66 23.28
  C 114.56 21.80 114.83 20.22 116.13 19.30
  Q 119.40 16.97 120.81 14.00
  Q 121.69 12.15 122.84 10.49
  C 123.84 9.06 125.78 9.49 126.04 11.23
  C 126.68 15.44 126.06 19.85 126.05 24.18
  Q 126.00 41.08 125.61 58.68
  Q 125.38 68.76 125.69 78.00
  C 126.19 93.19 125.99 106.82 125.88 121.27
  C 125.87 122.34 126.22 123.41 126.22 124.53
  A 1.05 1.05 0.0 0 1 125.03 125.56
  Q 123.63 125.36 122.23 125.29
  Q 114.93 124.91 108.41 124.84
  Q 68.94 124.44 26.76 125.18
  C 22.37 125.26 18.03 125.96 13.67 125.95
  Q 12.25 125.95 11.51 124.84
  A 0.64 0.60 87.2 0 0 11.27 124.61
  Z"
/>
<path fill="#a9830e" d="
  M 52.97 37.64
  L 53.01 53.96
  A 0.47 0.46 -3.3 0 0 53.53 54.42
  C 61.18 53.50 70.71 53.71 77.28 58.07
  C 85.00 63.20 86.59 73.46 83.59 81.63
  C 77.27 98.86 56.79 98.04 42.23 92.23
  A 0.33 0.33 0.0 0 1 42.02 91.92
  Q 41.92 87.47 42.11 82.94
  A 0.04 0.04 0.0 0 1 42.17 82.90
  Q 52.39 88.28 61.06 87.97
  Q 76.42 87.41 75.94 72.21
  C 75.50 57.98 53.93 60.41 45.48 62.88
  A 0.37 0.37 0.0 0 1 45.00 62.52
  L 45.00 29.50
  A 0.51 0.50 90.0 0 1 45.50 28.99
  L 84.24 28.99
  Q 84.98 28.99 84.99 29.74
  L 85.01 36.24
  Q 85.01 37.00 84.26 37.00
  L 53.61 37.00
  Q 52.97 37.00 52.97 37.64
  Z"
/>
</svg>
