<?xml version="1.0" encoding="UTF-8" standalone="no"?>
<!DOCTYPE svg PUBLIC "-//W3C//DTD SVG 1.1//EN" "http://www.w3.org/Graphics/SVG/1.1/DTD/svg11.dtd">
<svg xmlns="http://www.w3.org/2000/svg" version="1.1" viewBox="0.00 0.00 128.00 128.00">
<g stroke-width="2.00" fill="none" stroke-linecap="butt">
<path stroke="#f3f3f3" vector-effect="non-scaling-stroke" d="
  M 118.40 8.70
  Q 120.01 7.54 120.99 5.96
  A 2.39 2.38 -59.4 0 0 120.13 2.61
  Q 117.75 1.28 114.86 1.34
  C 105.47 1.52 95.98 0.92 86.67 1.20
  Q 64.76 1.87 39.54 1.11
  Q 31.02 0.85 19.81 1.22
  C 14.07 1.42 8.20 0.44 2.46 0.86
  Q 0.17 1.02 0.59 3.27
  Q 2.12 11.46 1.95 18.60
  Q 1.88 21.39 1.88 24.46
  Q 1.83 58.73 1.78 93.68
  C 1.77 100.46 2.06 107.10 2.00 113.95
  C 1.98 116.22 2.56 118.08 3.53 120.00
  A 1.85 1.85 0.0 0 0 6.08 120.78
  Q 8.15 119.61 9.73 117.47
  Q 12.32 113.94 15.06 111.08
  C 16.44 109.65 17.36 107.79 17.21 105.75
  Q 16.85 100.69 16.79 95.96
  Q 16.42 64.85 16.87 33.85
  C 16.94 29.32 16.72 24.77 16.81 20.17
  Q 16.89 16.36 21.31 16.34
  Q 64.50 16.18 105.69 16.51
  C 108.31 16.53 110.36 16.23 112.15 14.28
  Q 115.04 11.13 118.40 8.70"
/>
<path stroke="#d7c9d7" vector-effect="non-scaling-stroke" d="
  M 93.77 115.39
  Q 86.84 115.44 75.01 115.01
  Q 64.75 114.63 46.68 114.62
  C 40.10 114.62 33.76 114.03 26.99 114.12
  C 24.58 114.15 21.85 112.60 19.81 114.88
  Q 18.08 116.82 16.20 118.74
  C 14.84 120.13 13.07 121.03 11.38 122.09
  A 1.85 1.85 0.0 0 0 11.12 125.04
  C 12.85 126.60 18.08 125.83 20.30 125.57
  C 25.18 125.00 29.58 125.17 34.08 124.97
  Q 38.31 124.79 41.42 124.79
  Q 61.51 124.84 80.50 124.62
  Q 93.70 124.46 120.95 125.11
  C 122.39 125.15 123.66 125.49 125.08 125.61
  A 0.96 0.96 0.0 0 0 126.12 124.62
  Q 125.79 115.11 125.98 105.86
  Q 126.24 93.78 125.78 78.72
  Q 125.23 60.73 125.89 42.42
  C 126.22 33.32 125.84 24.04 126.38 14.75
  Q 126.49 12.76 125.87 10.75
  A 1.60 1.60 0.0 0 0 123.08 10.25
  Q 121.81 11.88 120.98 13.65
  Q 119.32 17.16 115.74 19.55
  A 1.77 1.70 84.3 0 0 115.07 20.40
  C 113.96 23.37 115.15 27.58 115.25 30.83
  Q 115.87 50.81 115.65 72.91
  C 115.58 79.74 114.84 86.52 115.29 93.46
  C 115.67 99.17 115.21 105.37 115.05 111.32
  A 2.90 2.90 0.0 0 1 112.16 114.14
  Q 106.91 114.16 102.14 114.42
  C 99.35 114.58 96.55 115.37 93.77 115.39"
/>
<path stroke="#c8b57a" vector-effect="non-scaling-stroke" d="
  M 49.25 56.84
  C 50.60 45.23 57.94 37.26 69.93 37.00
  Q 75.32 36.89 79.80 38.94
  A 0.12 0.12 0.0 0 0 79.97 38.83
  L 80.01 30.26
  Q 80.01 29.95 79.71 29.89
  C 62.89 26.56 47.47 33.18 42.23 50.40
  C 37.35 66.43 38.67 94.51 61.79 95.89
  C 78.47 96.89 89.26 82.56 85.08 66.68
  C 81.01 51.21 61.09 50.20 49.88 57.24
  Q 49.14 57.71 49.25 56.84"
/>
<path stroke="#c8b57a" vector-effect="non-scaling-stroke" d="
  M 76.57 69.30
  C 74.07 56.96 57.18 58.95 49.55 63.42
  Q 49.10 63.68 49.07 64.21
  Q 48.80 69.89 49.42 74.84
  C 50.41 82.84 55.76 89.45 64.44 88.98
  C 75.23 88.40 78.43 78.47 76.57 69.30"
/>
</g>
<path fill="#e6e6e6" d="
  M 0.00 0.00
  L 128.00 0.00
  L 128.00 128.00
  L 0.00 128.00
  L 0.00 0.00
  Z
  M 118.40 8.70
  Q 120.01 7.54 120.99 5.96
  A 2.39 2.38 -59.4 0 0 120.13 2.61
  Q 117.75 1.28 114.86 1.34
  C 105.47 1.52 95.98 0.92 86.67 1.20
  Q 64.76 1.87 39.54 1.11
  Q 31.02 0.85 19.81 1.22
  C 14.07 1.42 8.20 0.44 2.46 0.86
  Q 0.17 1.02 0.59 3.27
  Q 2.12 11.46 1.95 18.60
  Q 1.88 21.39 1.88 24.46
  Q 1.83 58.73 1.78 93.68
  C 1.77 100.46 2.06 107.10 2.00 113.95
  C 1.98 116.22 2.56 118.08 3.53 120.00
  A 1.85 1.85 0.0 0 0 6.08 120.78
  Q 8.15 119.61 9.73 117.47
  Q 12.32 113.94 15.06 111.08
  C 16.44 109.65 17.36 107.79 17.21 105.75
  Q 16.85 100.69 16.79 95.96
  Q 16.42 64.85 16.87 33.85
  C 16.94 29.32 16.72 24.77 16.81 20.17
  Q 16.89 16.36 21.31 16.34
  Q 64.50 16.18 105.69 16.51
  C 108.31 16.53 110.36 16.23 112.15 14.28
  Q 115.04 11.13 118.40 8.70
  Z
  M 93.77 115.39
  Q 86.84 115.44 75.01 115.01
  Q 64.75 114.63 46.68 114.62
  C 40.10 114.62 33.76 114.03 26.99 114.12
  C 24.58 114.15 21.85 112.60 19.81 114.88
  Q 18.08 116.82 16.20 118.74
  C 14.84 120.13 13.07 121.03 11.38 122.09
  A 1.85 1.85 0.0 0 0 11.12 125.04
  C 12.85 126.60 18.08 125.83 20.30 125.57
  C 25.18 125.00 29.58 125.17 34.08 124.97
  Q 38.31 124.79 41.42 124.79
  Q 61.51 124.84 80.50 124.62
  Q 93.70 124.46 120.95 125.11
  C 122.39 125.15 123.66 125.49 125.08 125.61
  A 0.96 0.96 0.0 0 0 126.12 124.62
  Q 125.79 115.11 125.98 105.86
  Q 126.24 93.78 125.78 78.72
  Q 125.23 60.73 125.89 42.42
  C 126.22 33.32 125.84 24.04 126.38 14.75
  Q 126.49 12.76 125.87 10.75
  A 1.60 1.60 0.0 0 0 123.08 10.25
  Q 121.81 11.88 120.98 13.65
  Q 119.32 17.16 115.74 19.55
  A 1.77 1.70 84.3 0 0 115.07 20.40
  C 113.96 23.37 115.15 27.58 115.25 30.83
  Q 115.87 50.81 115.65 72.91
  C 115.58 79.74 114.84 86.52 115.29 93.46
  C 115.67 99.17 115.21 105.37 115.05 111.32
  A 2.90 2.90 0.0 0 1 112.16 114.14
  Q 106.91 114.16 102.14 114.42
  C 99.35 114.58 96.55 115.37 93.77 115.39
  Z
  M 49.25 56.84
  C 50.60 45.23 57.94 37.26 69.93 37.00
  Q 75.32 36.89 79.80 38.94
  A 0.12 0.12 0.0 0 0 79.97 38.83
  L 80.01 30.26
  Q 80.01 29.95 79.71 29.89
  C 62.89 26.56 47.47 33.18 42.23 50.40
  C 37.35 66.43 38.67 94.51 61.79 95.89
  C 78.47 96.89 89.26 82.56 85.08 66.68
  C 81.01 51.21 61.09 50.20 49.88 57.24
  Q 49.14 57.71 49.25 56.84
  Z"
/>
<path fill="#ffffff" d="
  M 118.40 8.70
  Q 115.04 11.13 112.15 14.28
  C 110.36 16.23 108.31 16.53 105.69 16.51
  Q 64.50 16.18 21.31 16.34
  Q 16.89 16.36 16.81 20.17
  C 16.72 24.77 16.94 29.32 16.87 33.85
  Q 16.42 64.85 16.79 95.96
  Q 16.85 100.69 17.21 105.75
  C 17.36 107.79 16.44 109.65 15.06 111.08
  Q 12.32 113.94 9.73 117.47
  Q 8.15 119.61 6.08 120.78
  A 1.85 1.85 0.0 0 1 3.53 120.00
  C 2.56 118.08 1.98 116.22 2.00 113.95
  C 2.06 107.10 1.77 100.46 1.78 93.68
  Q 1.83 58.73 1.88 24.46
  Q 1.88 21.39 1.95 18.60
  Q 2.12 11.46 0.59 3.27
  Q 0.17 1.02 2.46 0.86
  C 8.20 0.44 14.07 1.42 19.81 1.22
  Q 31.02 0.85 39.54 1.11
  Q 64.76 1.87 86.67 1.20
  C 95.98 0.92 105.47 1.52 114.86 1.34
  Q 117.75 1.28 120.13 2.61
  A 2.39 2.38 -59.4 0 1 120.99 5.96
  Q 120.01 7.54 118.40 8.70
  Z"
/>
<path fill="#c8acc8" d="
  M 93.77 115.39
  C 96.55 115.37 99.35 114.58 102.14 114.42
  Q 106.91 114.16 112.16 114.14
  A 2.90 2.90 0.0 0 0 115.05 111.32
  C 115.21 105.37 115.67 99.17 115.29 93.46
  C 114.84 86.52 115.58 79.74 115.65 72.91
  Q 115.87 50.81 115.25 30.83
  C 115.15 27.58 113.96 23.37 115.07 20.40
  A 1.77 1.70 84.3 0 1 115.74 19.55
  Q 119.32 17.16 120.98 13.65
  Q 121.81 11.88 123.08 10.25
  A 1.60 1.60 0.0 0 1 125.87 10.75
  Q 126.49 12.76 126.38 14.75
  C 125.84 24.04 126.22 33.32 125.89 42.42
  Q 125.23 60.73 125.78 78.72
  Q 126.24 93.78 125.98 105.86
  Q 125.79 115.11 126.12 124.62
  A 0.96 0.96 0.0 0 1 125.08 125.61
  C 123.66 125.49 122.39 125.15 120.95 125.11
  Q 93.70 124.46 80.50 124.62
  Q 61.51 124.84 41.42 124.79
  Q 38.31 124.79 34.08 124.97
  C 29.58 125.17 25.18 125.00 20.30 125.57
  C 18.08 125.83 12.85 126.60 11.12 125.04
  A 1.85 1.85 0.0 0 1 11.38 122.09
  C 13.07 121.03 14.84 120.13 16.20 118.74
  Q 18.08 116.82 19.81 114.88
  C 21.85 112.60 24.58 114.15 26.99 114.12
  C 33.76 114.03 40.10 114.62 46.68 114.62
  Q 64.75 114.63 75.01 115.01
  Q 86.84 115.44 93.77 115.39
  Z"
/>
<path fill="#a9830e" d="
  M 49.88 57.24
  C 61.09 50.20 81.01 51.21 85.08 66.68
  C 89.26 82.56 78.47 96.89 61.79 95.89
  C 38.67 94.51 37.35 66.43 42.23 50.40
  C 47.47 33.18 62.89 26.56 79.71 29.89
  Q 80.01 29.95 80.01 30.26
  L 79.97 38.83
  A 0.12 0.12 0.0 0 1 79.80 38.94
  Q 75.32 36.89 69.93 37.00
  C 57.94 37.26 50.60 45.23 49.25 56.84
  Q 49.14 57.71 49.88 57.24
  Z
  M 76.57 69.30
  C 74.07 56.96 57.18 58.95 49.55 63.42
  Q 49.10 63.68 49.07 64.21
  Q 48.80 69.89 49.42 74.84
  C 50.41 82.84 55.76 89.45 64.44 88.98
  C 75.23 88.40 78.43 78.47 76.57 69.30
  Z"
/>
<path fill="#e6e6e6" d="
  M 49.55 63.42
  C 57.18 58.95 74.07 56.96 76.57 69.30
  C 78.43 78.47 75.23 88.40 64.44 88.98
  C 55.76 89.45 50.41 82.84 49.42 74.84
  Q 48.80 69.89 49.07 64.21
  Q 49.10 63.68 49.55 63.42
  Z"
/>
</svg>
