<?xml version="1.0" encoding="UTF-8" standalone="no"?>
<!DOCTYPE svg PUBLIC "-//W3C//DTD SVG 1.1//EN" "http://www.w3.org/Graphics/SVG/1.1/DTD/svg11.dtd">
<svg xmlns="http://www.w3.org/2000/svg" version="1.1" viewBox="0.00 0.00 128.00 128.00">
<g stroke-width="2.00" fill="none" stroke-linecap="butt">
<path stroke="#f3f3f3" vector-effect="non-scaling-stroke" d="
  M 59.12 16.23
  C 65.27 15.80 71.27 16.61 77.46 16.52
  Q 92.70 16.29 106.60 16.54
  C 108.62 16.58 110.61 15.79 112.00 14.28
  Q 115.42 10.59 119.24 7.92
  Q 121.63 6.26 121.19 3.69
  Q 121.09 3.11 120.57 2.83
  Q 117.87 1.37 114.99 1.35
  Q 104.73 1.29 95.74 1.30
  Q 87.44 1.30 78.25 1.35
  Q 46.43 1.52 16.96 1.21
  C 11.98 1.16 7.07 0.60 2.14 0.90
  Q 0.43 1.00 0.63 2.71
  C 1.24 7.74 1.98 12.37 1.93 17.62
  Q 1.72 40.64 1.87 61.79
  C 2.00 79.80 1.54 97.50 2.18 115.87
  Q 2.26 118.01 3.73 120.19
  Q 4.78 121.76 6.36 120.72
  Q 8.07 119.60 9.29 118.02
  Q 12.15 114.31 15.69 110.43
  C 16.52 109.53 17.09 108.11 17.07 106.88
  Q 16.55 64.06 16.81 20.00
  C 16.83 16.23 20.35 16.22 23.05 16.27
  Q 35.31 16.51 48.51 16.58
  Q 53.71 16.61 59.12 16.23"
/>
<path stroke="#d8c9d7" vector-effect="non-scaling-stroke" d="
  M 20.90 114.48
  Q 18.95 115.96 17.19 117.83
  C 15.69 119.42 13.89 120.61 12.00 121.67
  Q 10.35 122.61 10.69 124.40
  Q 10.78 124.92 11.25 125.20
  C 13.57 126.56 18.16 125.84 20.92 125.56
  Q 24.38 125.22 28.08 125.08
  Q 53.90 124.11 74.52 124.53
  Q 94.82 124.95 108.27 124.82
  C 114.13 124.77 119.79 124.95 125.31 125.38
  A 0.79 0.78 88.8 0 0 126.15 124.50
  C 125.18 116.44 126.16 108.41 126.05 100.47
  C 125.68 73.71 125.68 50.11 126.01 24.84
  C 126.07 20.39 126.63 15.83 126.09 11.45
  C 125.89 9.77 124.26 8.96 123.00 10.25
  Q 121.40 11.87 120.52 14.12
  C 119.64 16.37 117.93 17.99 115.99 19.35
  C 114.82 20.17 114.50 21.67 114.62 23.01
  Q 115.49 32.02 115.49 41.91
  C 115.50 48.95 116.06 55.54 115.96 62.42
  Q 115.64 86.82 115.30 111.92
  A 3.04 3.03 88.1 0 1 112.51 114.91
  Q 109.87 115.12 106.63 114.49
  Q 104.76 114.13 102.93 114.45
  Q 101.25 114.74 99.63 114.82
  Q 96.78 114.95 92.82 115.57
  Q 86.66 116.53 79.93 115.92
  C 75.85 115.56 72.17 115.66 68.17 115.55
  C 61.49 115.36 55.04 115.80 48.15 115.48
  Q 40.52 115.13 32.95 114.88
  Q 30.42 114.79 27.59 114.40
  Q 25.05 114.04 22.04 114.08
  Q 21.41 114.09 20.90 114.48"
/>
<path stroke="#c8b57a" vector-effect="non-scaling-stroke" d="
  M 78.39 38.67
  L 47.20 94.74
  A 0.11 0.10 -76.0 0 0 47.29 94.90
  Q 51.57 95.09 55.88 94.96
  A 0.38 0.37 12.2 0 0 56.20 94.76
  Q 70.53 68.35 84.83 42.09
  C 86.68 38.70 85.98 34.44 86.01 30.71
  Q 86.01 29.97 85.27 29.97
  L 41.49 30.02
  Q 41.00 30.02 41.00 30.51
  L 41.01 37.50
  Q 41.01 37.99 41.50 37.99
  L 78.00 38.00
  Q 78.76 38.00 78.39 38.67"
/>
</g>
<path fill="#e6e6e6" d="
  M 0.00 0.00
  L 128.00 0.00
  L 128.00 128.00
  L 0.00 128.00
  L 0.00 0.00
  Z
  M 59.12 16.23
  C 65.27 15.80 71.27 16.61 77.46 16.52
  Q 92.70 16.29 106.60 16.54
  C 108.62 16.58 110.61 15.79 112.00 14.28
  Q 115.42 10.59 119.24 7.92
  Q 121.63 6.26 121.19 3.69
  Q 121.09 3.11 120.57 2.83
  Q 117.87 1.37 114.99 1.35
  Q 104.73 1.29 95.74 1.30
  Q 87.44 1.30 78.25 1.35
  Q 46.43 1.52 16.96 1.21
  C 11.98 1.16 7.07 0.60 2.14 0.90
  Q 0.43 1.00 0.63 2.71
  C 1.24 7.74 1.98 12.37 1.93 17.62
  Q 1.72 40.64 1.87 61.79
  C 2.00 79.80 1.54 97.50 2.18 115.87
  Q 2.26 118.01 3.73 120.19
  Q 4.78 121.76 6.36 120.72
  Q 8.07 119.60 9.29 118.02
  Q 12.15 114.31 15.69 110.43
  C 16.52 109.53 17.09 108.11 17.07 106.88
  Q 16.55 64.06 16.81 20.00
  C 16.83 16.23 20.35 16.22 23.05 16.27
  Q 35.31 16.51 48.51 16.58
  Q 53.71 16.61 59.12 16.23
  Z
  M 20.90 114.48
  Q 18.95 115.96 17.19 117.83
  C 15.69 119.42 13.89 120.61 12.00 121.67
  Q 10.35 122.61 10.69 124.40
  Q 10.78 124.92 11.25 125.20
  C 13.57 126.56 18.16 125.84 20.92 125.56
  Q 24.38 125.22 28.08 125.08
  Q 53.90 124.11 74.52 124.53
  Q 94.82 124.95 108.27 124.82
  C 114.13 124.77 119.79 124.95 125.31 125.38
  A 0.79 0.78 88.8 0 0 126.15 124.50
  C 125.18 116.44 126.16 108.41 126.05 100.47
  C 125.68 73.71 125.68 50.11 126.01 24.84
  C 126.07 20.39 126.63 15.83 126.09 11.45
  C 125.89 9.77 124.26 8.96 123.00 10.25
  Q 121.40 11.87 120.52 14.12
  C 119.64 16.37 117.93 17.99 115.99 19.35
  C 114.82 20.17 114.50 21.67 114.62 23.01
  Q 115.49 32.02 115.49 41.91
  C 115.50 48.95 116.06 55.54 115.96 62.42
  Q 115.64 86.82 115.30 111.92
  A 3.04 3.03 88.1 0 1 112.51 114.91
  Q 109.87 115.12 106.63 114.49
  Q 104.76 114.13 102.93 114.45
  Q 101.25 114.74 99.63 114.82
  Q 96.78 114.95 92.82 115.57
  Q 86.66 116.53 79.93 115.92
  C 75.85 115.56 72.17 115.66 68.17 115.55
  C 61.49 115.36 55.04 115.80 48.15 115.48
  Q 40.52 115.13 32.95 114.88
  Q 30.42 114.79 27.59 114.40
  Q 25.05 114.04 22.04 114.08
  Q 21.41 114.09 20.90 114.48
  Z
  M 78.39 38.67
  L 47.20 94.74
  A 0.11 0.10 -76.0 0 0 47.29 94.90
  Q 51.57 95.09 55.88 94.96
  A 0.38 0.37 12.2 0 0 56.20 94.76
  Q 70.53 68.35 84.83 42.09
  C 86.68 38.70 85.98 34.44 86.01 30.71
  Q 86.01 29.97 85.27 29.97
  L 41.49 30.02
  Q 41.00 30.02 41.00 30.51
  L 41.01 37.50
  Q 41.01 37.99 41.50 37.99
  L 78.00 38.00
  Q 78.76 38.00 78.39 38.67
  Z"
/>
<path fill="#ffffff" d="
  M 59.12 16.23
  Q 53.71 16.61 48.51 16.58
  Q 35.31 16.51 23.05 16.27
  C 20.35 16.22 16.83 16.23 16.81 20.00
  Q 16.55 64.06 17.07 106.88
  C 17.09 108.11 16.52 109.53 15.69 110.43
  Q 12.15 114.31 9.29 118.02
  Q 8.07 119.60 6.36 120.72
  Q 4.78 121.76 3.73 120.19
  Q 2.26 118.01 2.18 115.87
  C 1.54 97.50 2.00 79.80 1.87 61.79
  Q 1.72 40.64 1.93 17.62
  C 1.98 12.37 1.24 7.74 0.63 2.71
  Q 0.43 1.00 2.14 0.90
  C 7.07 0.60 11.98 1.16 16.96 1.21
  Q 46.43 1.52 78.25 1.35
  Q 87.44 1.30 95.74 1.30
  Q 104.73 1.29 114.99 1.35
  Q 117.87 1.37 120.57 2.83
  Q 121.09 3.11 121.19 3.69
  Q 121.63 6.26 119.24 7.92
  Q 115.42 10.59 112.00 14.28
  C 110.61 15.79 108.62 16.58 106.60 16.54
  Q 92.70 16.29 77.46 16.52
  C 71.27 16.61 65.27 15.80 59.12 16.23
  Z"
/>
<path fill="#c9acc8" d="
  M 20.90 114.48
  Q 21.41 114.09 22.04 114.08
  Q 25.05 114.04 27.59 114.40
  Q 30.42 114.79 32.95 114.88
  Q 40.52 115.13 48.15 115.48
  C 55.04 115.80 61.49 115.36 68.17 115.55
  C 72.17 115.66 75.85 115.56 79.93 115.92
  Q 86.66 116.53 92.82 115.57
  Q 96.78 114.95 99.63 114.82
  Q 101.25 114.74 102.93 114.45
  Q 104.76 114.13 106.63 114.49
  Q 109.87 115.12 112.51 114.91
  A 3.04 3.03 88.1 0 0 115.30 111.92
  Q 115.64 86.82 115.96 62.42
  C 116.06 55.54 115.50 48.95 115.49 41.91
  Q 115.49 32.02 114.62 23.01
  C 114.50 21.67 114.82 20.17 115.99 19.35
  C 117.93 17.99 119.64 16.37 120.52 14.12
  Q 121.40 11.87 123.00 10.25
  C 124.26 8.96 125.89 9.77 126.09 11.45
  C 126.63 15.83 126.07 20.39 126.01 24.84
  C 125.68 50.11 125.68 73.71 126.05 100.47
  C 126.16 108.41 125.18 116.44 126.15 124.50
  A 0.79 0.78 88.8 0 1 125.31 125.38
  C 119.79 124.95 114.13 124.77 108.27 124.82
  Q 94.82 124.95 74.52 124.53
  Q 53.90 124.11 28.08 125.08
  Q 24.38 125.22 20.92 125.56
  C 18.16 125.84 13.57 126.56 11.25 125.20
  Q 10.78 124.92 10.69 124.40
  Q 10.35 122.61 12.00 121.67
  C 13.89 120.61 15.69 119.42 17.19 117.83
  Q 18.95 115.96 20.90 114.48
  Z"
/>
<path fill="#a9830e" d="
  M 78.00 38.00
  L 41.50 37.99
  Q 41.01 37.99 41.01 37.50
  L 41.00 30.51
  Q 41.00 30.02 41.49 30.02
  L 85.27 29.97
  Q 86.01 29.97 86.01 30.71
  C 85.98 34.44 86.68 38.70 84.83 42.09
  Q 70.53 68.35 56.20 94.76
  A 0.38 0.37 12.2 0 1 55.88 94.96
  Q 51.57 95.09 47.29 94.90
  A 0.11 0.10 -76.0 0 1 47.20 94.74
  L 78.39 38.67
  Q 78.76 38.00 78.00 38.00
  Z"
/>
</svg>
