<?xml version="1.0" encoding="UTF-8" standalone="no"?>
<!DOCTYPE svg PUBLIC "-//W3C//DTD SVG 1.1//EN" "http://www.w3.org/Graphics/SVG/1.1/DTD/svg11.dtd">
<svg xmlns="http://www.w3.org/2000/svg" version="1.1" viewBox="0.00 0.00 128.00 128.00">
<g stroke-width="2.00" fill="none" stroke-linecap="butt">
<path stroke="#f3f3f3" vector-effect="non-scaling-stroke" d="
  M 6.57 120.54
  C 10.05 117.66 12.56 113.39 15.90 109.88
  C 18.26 107.41 16.82 101.65 16.82 98.43
  Q 16.73 65.20 16.80 19.88
  C 16.81 15.77 21.13 16.20 24.00 16.24
  Q 46.27 16.60 65.00 16.22
  Q 76.11 15.99 106.40 16.49
  C 108.45 16.53 110.41 16.04 111.88 14.51
  Q 115.41 10.82 119.44 7.81
  Q 121.57 6.22 121.21 3.75
  Q 121.13 3.20 120.66 2.92
  Q 117.91 1.27 114.87 1.32
  C 105.66 1.48 96.77 0.92 87.61 1.19
  C 63.94 1.89 40.47 1.08 16.99 1.23
  C 12.04 1.26 7.01 0.54 2.13 0.88
  A 1.76 1.76 0.0 0 0 0.53 2.96
  Q 2.08 10.92 1.93 18.04
  Q 1.87 20.95 1.86 23.96
  Q 1.76 57.82 1.91 95.50
  Q 1.95 104.93 2.05 114.34
  C 2.07 116.33 2.55 118.42 3.64 120.09
  A 1.99 1.98 -36.2 0 0 6.57 120.54"
/>
<path stroke="#d7cad7" vector-effect="non-scaling-stroke" d="
  M 16.95 118.03
  Q 15.22 120.15 12.69 121.07
  C 11.25 121.60 9.82 123.52 10.93 124.96
  Q 11.32 125.48 11.96 125.61
  C 16.83 126.57 21.76 125.13 26.67 125.08
  C 65.07 124.72 88.97 124.36 121.33 125.12
  C 122.56 125.15 123.66 125.53 124.89 125.58
  Q 126.35 125.62 126.20 124.17
  Q 125.87 120.99 125.93 118.00
  Q 126.30 100.88 125.83 83.76
  C 125.17 60.21 125.87 36.90 126.27 13.43
  Q 126.29 12.18 125.90 10.83
  A 1.66 1.66 0.0 0 0 122.94 10.35
  Q 121.71 12.13 120.77 14.05
  Q 119.26 17.12 116.18 19.21
  C 113.71 20.90 114.80 25.98 115.23 28.43
  Q 115.64 30.73 115.65 33.09
  C 115.68 39.03 115.45 45.03 115.60 50.98
  Q 115.96 65.02 115.39 77.94
  C 114.91 88.93 115.78 100.64 114.89 112.27
  A 1.05 1.04 71.2 0 1 114.55 112.97
  C 112.47 114.84 107.64 114.22 105.01 114.27
  Q 102.52 114.32 99.52 114.84
  Q 96.42 115.37 93.93 115.30
  Q 83.11 115.00 72.93 114.91
  C 65.64 114.85 58.63 114.21 51.32 114.39
  Q 43.09 114.59 36.62 114.37
  Q 25.00 113.97 21.86 113.94
  Q 21.33 113.94 20.91 114.26
  Q 18.59 116.03 16.95 118.03"
/>
<path stroke="#c8b57a" vector-effect="non-scaling-stroke" d="
  M 51.27 60.50
  C 42.93 64.01 37.05 71.97 39.59 81.34
  C 43.27 94.89 59.23 98.15 71.24 94.68
  C 77.87 92.76 83.98 87.64 85.47 80.65
  C 87.72 70.08 82.02 64.92 73.43 60.78
  A 0.29 0.28 -44.4 0 1 73.44 60.26
  C 86.54 54.26 88.12 36.91 73.67 31.11
  C 63.69 27.10 48.78 28.50 43.00 38.67
  Q 38.96 45.76 42.98 53.00
  C 44.65 56.00 48.29 58.32 51.30 59.95
  A 0.31 0.30 -42.2 0 1 51.27 60.50"
/>
<path stroke="#c8b57a" vector-effect="non-scaling-stroke" d="
  M 55.12 53.08
  C 58.85 55.25 62.95 56.78 67.19 58.22
  Q 67.75 58.41 68.26 58.10
  Q 74.19 54.50 75.53 49.18
  C 78.75 36.40 64.89 32.47 55.85 36.33
  C 48.11 39.64 48.13 49.01 55.12 53.08"
/>
<path stroke="#c8b57a" vector-effect="non-scaling-stroke" d="
  M 56.33 62.57
  C 50.37 66.12 46.99 71.69 48.23 78.58
  C 50.90 93.42 79.18 92.74 76.89 75.22
  Q 76.29 70.57 71.86 68.12
  Q 65.92 64.85 57.30 62.44
  Q 56.79 62.30 56.33 62.57"
/>
</g>
<path fill="#e6e6e6" d="
  M 0.00 0.00
  L 128.00 0.00
  L 128.00 128.00
  L 0.00 128.00
  L 0.00 0.00
  Z
  M 6.57 120.54
  C 10.05 117.66 12.56 113.39 15.90 109.88
  C 18.26 107.41 16.82 101.65 16.82 98.43
  Q 16.73 65.20 16.80 19.88
  C 16.81 15.77 21.13 16.20 24.00 16.24
  Q 46.27 16.60 65.00 16.22
  Q 76.11 15.99 106.40 16.49
  C 108.45 16.53 110.41 16.04 111.88 14.51
  Q 115.41 10.82 119.44 7.81
  Q 121.57 6.22 121.21 3.75
  Q 121.13 3.20 120.66 2.92
  Q 117.91 1.27 114.87 1.32
  C 105.66 1.48 96.77 0.92 87.61 1.19
  C 63.94 1.89 40.47 1.08 16.99 1.23
  C 12.04 1.26 7.01 0.54 2.13 0.88
  A 1.76 1.76 0.0 0 0 0.53 2.96
  Q 2.08 10.92 1.93 18.04
  Q 1.87 20.95 1.86 23.96
  Q 1.76 57.82 1.91 95.50
  Q 1.95 104.93 2.05 114.34
  C 2.07 116.33 2.55 118.42 3.64 120.09
  A 1.99 1.98 -36.2 0 0 6.57 120.54
  Z
  M 16.95 118.03
  Q 15.22 120.15 12.69 121.07
  C 11.25 121.60 9.82 123.52 10.93 124.96
  Q 11.32 125.48 11.96 125.61
  C 16.83 126.57 21.76 125.13 26.67 125.08
  C 65.07 124.72 88.97 124.36 121.33 125.12
  C 122.56 125.15 123.66 125.53 124.89 125.58
  Q 126.35 125.62 126.20 124.17
  Q 125.87 120.99 125.93 118.00
  Q 126.30 100.88 125.83 83.76
  C 125.17 60.21 125.87 36.90 126.27 13.43
  Q 126.29 12.18 125.90 10.83
  A 1.66 1.66 0.0 0 0 122.94 10.35
  Q 121.71 12.13 120.77 14.05
  Q 119.26 17.12 116.18 19.21
  C 113.71 20.90 114.80 25.98 115.23 28.43
  Q 115.64 30.73 115.65 33.09
  C 115.68 39.03 115.45 45.03 115.60 50.98
  Q 115.96 65.02 115.39 77.94
  C 114.91 88.93 115.78 100.64 114.89 112.27
  A 1.05 1.04 71.2 0 1 114.55 112.97
  C 112.47 114.84 107.64 114.22 105.01 114.27
  Q 102.52 114.32 99.52 114.84
  Q 96.42 115.37 93.93 115.30
  Q 83.11 115.00 72.93 114.91
  C 65.64 114.85 58.63 114.21 51.32 114.39
  Q 43.09 114.59 36.62 114.37
  Q 25.00 113.97 21.86 113.94
  Q 21.33 113.94 20.91 114.26
  Q 18.59 116.03 16.95 118.03
  Z
  M 51.27 60.50
  C 42.93 64.01 37.05 71.97 39.59 81.34
  C 43.27 94.89 59.23 98.15 71.24 94.68
  C 77.87 92.76 83.98 87.64 85.47 80.65
  C 87.72 70.08 82.02 64.92 73.43 60.78
  A 0.29 0.28 -44.4 0 1 73.44 60.26
  C 86.54 54.26 88.12 36.91 73.67 31.11
  C 63.69 27.10 48.78 28.50 43.00 38.67
  Q 38.96 45.76 42.98 53.00
  C 44.65 56.00 48.29 58.32 51.30 59.95
  A 0.31 0.30 -42.2 0 1 51.27 60.50
  Z"
/>
<path fill="#ffffff" d="
  M 15.90 109.88
  C 12.56 113.39 10.05 117.66 6.57 120.54
  A 1.99 1.98 -36.2 0 1 3.64 120.09
  C 2.55 118.42 2.07 116.33 2.05 114.34
  Q 1.95 104.93 1.91 95.50
  Q 1.76 57.82 1.86 23.96
  Q 1.87 20.95 1.93 18.04
  Q 2.08 10.92 0.53 2.96
  A 1.76 1.76 0.0 0 1 2.13 0.88
  C 7.01 0.54 12.04 1.26 16.99 1.23
  C 40.47 1.08 63.94 1.89 87.61 1.19
  C 96.77 0.92 105.66 1.48 114.87 1.32
  Q 117.91 1.27 120.66 2.92
  Q 121.13 3.20 121.21 3.75
  Q 121.57 6.22 119.44 7.81
  Q 115.41 10.82 111.88 14.51
  C 110.41 16.04 108.45 16.53 106.40 16.49
  Q 76.11 15.99 65.00 16.22
  Q 46.27 16.60 24.00 16.24
  C 21.13 16.20 16.81 15.77 16.80 19.88
  Q 16.73 65.20 16.82 98.43
  C 16.82 101.65 18.26 107.41 15.90 109.88
  Z"
/>
<path fill="#c8adc8" d="
  M 16.95 118.03
  Q 18.59 116.03 20.91 114.26
  Q 21.33 113.94 21.86 113.94
  Q 25.00 113.97 36.62 114.37
  Q 43.09 114.59 51.32 114.39
  C 58.63 114.21 65.64 114.85 72.93 114.91
  Q 83.11 115.00 93.93 115.30
  Q 96.42 115.37 99.52 114.84
  Q 102.52 114.32 105.01 114.27
  C 107.64 114.22 112.47 114.84 114.55 112.97
  A 1.05 1.04 71.2 0 0 114.89 112.27
  C 115.78 100.64 114.91 88.93 115.39 77.94
  Q 115.96 65.02 115.60 50.98
  C 115.45 45.03 115.68 39.03 115.65 33.09
  Q 115.64 30.73 115.23 28.43
  C 114.80 25.98 113.71 20.90 116.18 19.21
  Q 119.26 17.12 120.77 14.05
  Q 121.71 12.13 122.94 10.35
  A 1.66 1.66 0.0 0 1 125.90 10.83
  Q 126.29 12.18 126.27 13.43
  C 125.87 36.90 125.17 60.21 125.83 83.76
  Q 126.30 100.88 125.93 118.00
  Q 125.87 120.99 126.20 124.17
  Q 126.35 125.62 124.89 125.58
  C 123.66 125.53 122.56 125.15 121.33 125.12
  C 88.97 124.36 65.07 124.72 26.67 125.08
  C 21.76 125.13 16.83 126.57 11.96 125.61
  Q 11.32 125.48 10.93 124.96
  C 9.82 123.52 11.25 121.60 12.69 121.07
  Q 15.22 120.15 16.95 118.03
  Z"
/>
<path fill="#a9830e" d="
  M 51.27 60.50
  A 0.31 0.30 -42.2 0 0 51.30 59.95
  C 48.29 58.32 44.65 56.00 42.98 53.00
  Q 38.96 45.76 43.00 38.67
  C 48.78 28.50 63.69 27.10 73.67 31.11
  C 88.12 36.91 86.54 54.26 73.44 60.26
  A 0.29 0.28 -44.4 0 0 73.43 60.78
  C 82.02 64.92 87.72 70.08 85.47 80.65
  C 83.98 87.64 77.87 92.76 71.24 94.68
  C 59.23 98.15 43.27 94.89 39.59 81.34
  C 37.05 71.97 42.93 64.01 51.27 60.50
  Z
  M 55.12 53.08
  C 58.85 55.25 62.95 56.78 67.19 58.22
  Q 67.75 58.41 68.26 58.10
  Q 74.19 54.50 75.53 49.18
  C 78.75 36.40 64.89 32.47 55.85 36.33
  C 48.11 39.64 48.13 49.01 55.12 53.08
  Z
  M 56.33 62.57
  C 50.37 66.12 46.99 71.69 48.23 78.58
  C 50.90 93.42 79.18 92.74 76.89 75.22
  Q 76.29 70.57 71.86 68.12
  Q 65.92 64.85 57.30 62.44
  Q 56.79 62.30 56.33 62.57
  Z"
/>
<path fill="#e6e6e6" d="
  M 67.19 58.22
  C 62.95 56.78 58.85 55.25 55.12 53.08
  C 48.13 49.01 48.11 39.64 55.85 36.33
  C 64.89 32.47 78.75 36.40 75.53 49.18
  Q 74.19 54.50 68.26 58.10
  Q 67.75 58.41 67.19 58.22
  Z"
/>
<path fill="#e6e6e6" d="
  M 48.23 78.58
  C 46.99 71.69 50.37 66.12 56.33 62.57
  Q 56.79 62.30 57.30 62.44
  Q 65.92 64.85 71.86 68.12
  Q 76.29 70.57 76.89 75.22
  C 79.18 92.74 50.90 93.42 48.23 78.58
  Z"
/>
</svg>
