<?xml version="1.0" encoding="UTF-8" standalone="no"?>
<!DOCTYPE svg PUBLIC "-//W3C//DTD SVG 1.1//EN" "http://www.w3.org/Graphics/SVG/1.1/DTD/svg11.dtd">
<svg xmlns="http://www.w3.org/2000/svg" version="1.1" viewBox="0.00 0.00 128.00 128.00">
<g stroke-width="2.00" fill="none" stroke-linecap="butt">
<path stroke="#504b56" vector-effect="non-scaling-stroke" d="
  M 60.86 0.00
  L 57.67 2.60"
/>
<path stroke="#bcb2ca" vector-effect="non-scaling-stroke" d="
  M 57.67 2.60
  Q 56.64 1.64 53.75 1.63
  Q 35.82 1.59 15.50 1.64
  Q 11.57 1.65 8.01 1.00
  C 5.95 0.62 3.95 0.84 1.90 1.06
  A 1.07 1.07 0.0 0 0 0.95 2.25
  L 2.44 13.95"
/>
<path stroke="#b3a9c1" vector-effect="non-scaling-stroke" d="
  M 2.44 13.95
  C 2.02 21.09 2.11 28.08 1.69 35.34
  Q 1.19 44.11 1.42 53.75
  Q 1.50 56.76 1.77 58.56"
/>
<path stroke="#504b56" vector-effect="non-scaling-stroke" d="
  M 1.77 58.56
  L 0.00 61.26"
/>
<path stroke="#504b56" vector-effect="non-scaling-stroke" d="
  M 67.47 0.00
  L 70.31 1.98"
/>
<path stroke="#645f6b" vector-effect="non-scaling-stroke" d="
  M 70.31 1.98
  Q 70.04 2.09 70.54 2.32"
/>
<path stroke="#6d6874" vector-effect="non-scaling-stroke" d="
  M 70.54 2.32
  Q 71.72 6.48 71.21 11.12
  Q 71.14 11.79 71.81 11.82
  L 72.80 11.87
  Q 73.37 11.89 73.50 12.45
  L 74.11 15.01"
/>
<path stroke="#645f6b" vector-effect="non-scaling-stroke" d="
  M 74.11 15.01
  L 81.26 17.55"
/>
<path stroke="#504b56" vector-effect="non-scaling-stroke" d="
  M 81.26 17.55
  Q 87.48 19.69 92.85 23.42
  Q 93.29 23.72 93.76 23.50
  L 95.92 22.47
  Q 96.52 22.18 96.96 22.69
  L 97.44 23.25
  Q 97.85 23.72 98.35 23.35
  C 100.48 21.77 102.42 18.70 104.84 18.01
  Q 108.11 17.08 110.49 20.90"
/>
<path stroke="#413c47" vector-effect="non-scaling-stroke" d="
  M 110.49 20.90
  Q 111.41 21.69 112.49 23.00
  Q 113.53 24.26 113.61 25.55
  Q 113.77 28.21 111.64 29.81"
/>
<path stroke="#504b56" vector-effect="non-scaling-stroke" d="
  M 111.64 29.81
  L 107.88 33.58
  Q 107.25 34.22 108.02 34.67
  L 108.54 34.97
  A 0.79 0.79 0.0 0 1 108.68 36.22
  Q 106.94 37.87 108.20 39.50
  C 109.59 41.31 110.30 43.49 111.50 45.56"
/>
<path stroke="#413c47" vector-effect="non-scaling-stroke" d="
  M 111.50 45.56
  L 113.33 51.34
  Q 113.48 51.83 113.97 52.00
  L 115.53 52.57"
/>
<path stroke="#38333c" vector-effect="non-scaling-stroke" d="
  M 115.53 52.57
  Q 116.36 53.20 116.65 54.47
  Q 116.75 54.94 117.23 54.96
  L 125.33 55.33"
/>
<path stroke="#413c47" vector-effect="non-scaling-stroke" d="
  M 125.33 55.33
  Q 126.98 56.89 128.00 58.90"
/>
<path stroke="#504b56" vector-effect="non-scaling-stroke" d="
  M 128.00 65.36
  Q 127.75 65.42 127.68 66.20"
/>
<path stroke="#38333c" vector-effect="non-scaling-stroke" d="
  M 127.68 66.20
  C 125.42 70.10 121.05 68.97 117.43 69.05
  Q 116.94 69.06 116.65 69.45
  Q 116.40 69.77 116.48 70.20
  Q 116.58 70.78 116.11 71.16
  L 114.78 72.23"
/>
<path stroke="#413c47" vector-effect="non-scaling-stroke" d="
  M 114.78 72.23
  L 111.69 82.42"
/>
<path stroke="#504b56" vector-effect="non-scaling-stroke" d="
  M 111.69 82.42
  L 108.21 88.85
  Q 107.89 89.44 108.33 89.94
  L 109.33 91.06
  A 1.13 1.13 0.0 0 1 109.25 92.64
  Q 107.82 93.96 109.07 95.19
  Q 109.84 95.95 111.56 97.08"
/>
<path stroke="#413c47" vector-effect="non-scaling-stroke" d="
  M 111.56 97.08
  Q 111.98 97.89 113.44 99.54
  C 115.70 102.11 113.53 104.40 111.58 106.53"
/>
<path stroke="#504b56" vector-effect="non-scaling-stroke" d="
  M 111.58 106.53
  C 109.12 108.74 106.74 111.87 103.30 108.60
  Q 101.17 106.58 99.24 104.56
  Q 98.56 103.86 97.79 104.46
  Q 96.30 105.62 95.00 104.42
  Q 94.51 103.96 93.92 104.27
  L 80.29 111.42"
/>
<path stroke="#413c47" vector-effect="non-scaling-stroke" d="
  M 80.29 111.42
  Q 77.15 111.38 76.18 114.24"
/>
<path stroke="#38333c" vector-effect="non-scaling-stroke" d="
  M 76.18 114.24
  C 74.86 115.77 74.02 116.67 73.82 118.81
  Q 73.52 122.16 73.05 125.52"
/>
<path stroke="#504b56" vector-effect="non-scaling-stroke" d="
  M 73.05 125.52
  Q 71.65 127.17 69.73 128.00"
/>
<path stroke="#504b56" vector-effect="non-scaling-stroke" d="
  M 63.43 128.00
  L 61.52 127.00"
/>
<path stroke="#413c47" vector-effect="non-scaling-stroke" d="
  M 61.52 127.00
  Q 61.05 126.27 60.55 126.07"
/>
<path stroke="#38333c" vector-effect="non-scaling-stroke" d="
  M 60.55 126.07
  C 59.29 124.38 59.64 120.25 59.38 118.04
  Q 59.32 117.55 59.03 117.16
  L 56.93 114.37"
/>
<path stroke="#413c47" vector-effect="non-scaling-stroke" d="
  M 56.93 114.37
  Q 55.38 111.95 55.12 113.39"
/>
<path stroke="#504b56" vector-effect="non-scaling-stroke" d="
  M 55.12 113.39
  Q 45.48 110.55 37.62 106.32
  Q 37.29 106.15 37.00 105.92
  Q 35.72 104.92 34.63 106.19
  Q 33.52 107.50 32.17 106.43
  Q 31.75 106.09 31.21 106.05
  Q 30.65 106.00 30.29 106.44
  Q 28.50 108.63 26.40 110.89
  Q 24.65 112.77 22.20 112.29"
/>
<path stroke="#413c47" vector-effect="non-scaling-stroke" d="
  M 22.20 112.29
  L 21.29 111.70"
/>
<path stroke="#504b56" vector-effect="non-scaling-stroke" d="
  M 21.29 111.70
  C 17.94 108.80 13.27 105.27 16.63 101.37
  Q 18.60 99.08 20.49 97.00
  Q 20.91 96.53 20.58 95.99
  L 19.96 94.97
  Q 19.57 94.35 19.92 93.71
  L 21.17 91.36
  A 1.03 1.01 45.6 0 0 21.17 90.41
  L 17.31 83.10"
/>
<path stroke="#645f6b" vector-effect="non-scaling-stroke" d="
  M 17.31 83.10
  L 14.07 74.21"
/>
<path stroke="#6d6874" vector-effect="non-scaling-stroke" d="
  M 14.07 74.21
  Q 12.57 74.54 11.79 73.60
  A 1.42 1.36 -65.2 0 1 11.48 72.69
  Q 11.49 72.37 11.40 72.09
  Q 11.25 71.65 10.79 71.62
  L 2.60 71.15"
/>
<path stroke="#504b56" vector-effect="non-scaling-stroke" d="
  M 2.60 71.15
  Q 1.22 69.88 0.00 67.62"
/>
<path stroke="#645f6b" vector-effect="non-scaling-stroke" d="
  M 1.77 58.56
  L 3.99 57.32"
/>
<path stroke="#6d6874" vector-effect="non-scaling-stroke" d="
  M 3.99 57.32
  L 10.85 57.17
  Q 11.35 57.16 11.38 56.66
  Q 11.52 54.12 14.09 54.71"
/>
<path stroke="#645f6b" vector-effect="non-scaling-stroke" d="
  M 14.09 54.71
  Q 16.39 45.68 21.01 38.19
  A 1.47 1.47 0.0 0 0 20.78 36.37
  Q 19.32 34.96 20.41 33.49
  A 1.33 1.32 38.5 0 0 20.20 31.68
  Q 17.76 29.63 16.10 27.39
  Q 13.80 24.29 16.46 21.34
  C 18.51 19.07 22.04 14.26 25.57 17.65"
/>
<path stroke="#504b56" vector-effect="non-scaling-stroke" d="
  M 25.57 17.65
  L 30.38 22.44
  A 0.60 0.59 36.9 0 0 31.32 22.31
  Q 31.75 21.55 32.50 21.39
  Q 32.97 21.28 33.35 21.58
  L 35.59 23.29"
/>
<path stroke="#392d05" vector-effect="non-scaling-stroke" d="
  M 35.59 23.29
  Q 36.08 23.34 35.75 23.81"
/>
<path stroke="#443506" vector-effect="non-scaling-stroke" d="
  M 35.75 23.81
  Q 28.54 29.04 23.94 36.72"
/>
<path stroke="#392d05" vector-effect="non-scaling-stroke" d="
  M 23.94 36.72
  Q 15.75 51.41 19.55 67.11"
/>
<path stroke="#261e03" vector-effect="non-scaling-stroke" d="
  M 19.55 67.11
  Q 21.84 77.17 28.12 83.76"
/>
<path stroke="#161002" vector-effect="non-scaling-stroke" d="
  M 28.12 83.76
  Q 34.72 92.57 42.55 94.93
  Q 48.69 96.78 60.88 95.79
  Q 61.83 95.71 62.81 95.34
  Q 63.60 95.04 64.55 95.05
  Q 65.86 95.07 67.58 94.23
  Q 69.97 93.06 72.40 92.25
  Q 73.43 91.90 74.34 91.33
  Q 75.44 90.64 76.67 90.21
  Q 78.07 89.71 79.40 88.74
  Q 80.97 87.60 82.57 86.36
  Q 86.59 83.26 90.08 78.19
  Q 90.55 77.49 90.77 76.67
  Q 90.91 76.16 91.39 75.94
  Q 91.80 75.75 91.85 75.28
  Q 91.90 74.79 92.23 74.41
  Q 95.13 71.12 95.80 66.96
  A 1.65 1.64 -19.2 0 1 96.21 66.12
  Q 97.15 65.12 97.11 63.81
  Q 97.11 63.66 97.24 63.63
  Q 97.58 63.53 97.63 63.20
  Q 97.90 61.49 98.26 59.74
  Q 98.61 58.01 98.67 56.40
  Q 98.80 53.00 99.03 49.39
  Q 99.19 47.01 98.56 44.49
  Q 97.66 40.87 97.58 37.14
  Q 97.54 35.16 96.01 33.74
  Q 95.63 33.39 95.57 32.88
  Q 95.44 31.74 95.15 31.36
  Q 91.51 26.68 86.76 23.43"
/>
<path stroke="#261e03" vector-effect="non-scaling-stroke" d="
  M 86.76 23.43
  Q 81.61 19.63 75.34 17.76"
/>
<path stroke="#392d05" vector-effect="non-scaling-stroke" d="
  M 75.34 17.76
  Q 72.61 16.41 68.75 16.05
  Q 61.62 15.37 54.36 15.37"
/>
<path stroke="#645f6b" vector-effect="non-scaling-stroke" d="
  M 54.36 15.37
  L 54.68 12.82"
/>
<path stroke="#6d6874" vector-effect="non-scaling-stroke" d="
  M 54.68 12.82
  Q 55.48 11.94 56.77 11.77
  Q 57.23 11.71 57.25 11.24
  L 57.67 2.60"
/>
<path stroke="#2e113f" vector-effect="non-scaling-stroke" d="
  M 63.3612 12.9096
  A 4.21 2.63 90.8 0 0 66.0497 8.7367
  A 4.21 2.63 90.8 0 0 63.4788 4.4904
  A 4.21 2.63 90.8 0 0 60.7903 8.6633
  A 4.21 2.63 90.8 0 0 63.3612 12.9096"
/>
<path stroke="#33232a" vector-effect="non-scaling-stroke" d="
  M 28.84 24.96
  A 2.44 2.44 0.0 0 0 26.40 22.52
  A 2.44 2.44 0.0 0 0 23.96 24.96
  A 2.44 2.44 0.0 0 0 26.40 27.40
  A 2.44 2.44 0.0 0 0 28.84 24.96"
/>
<path stroke="#33232a" vector-effect="non-scaling-stroke" d="
  M 106.17 25.06
  A 2.24 2.24 0.0 0 0 103.93 22.82
  A 2.24 2.24 0.0 0 0 101.69 25.06
  A 2.24 2.24 0.0 0 0 103.93 27.30
  A 2.24 2.24 0.0 0 0 106.17 25.06"
/>
<path stroke="#2e113f" vector-effect="non-scaling-stroke" d="
  M 13.06 64.51
  L 13.12 60.47
  A 0.88 0.88 0.0 0 0 12.26 59.58
  L 10.93 59.56
  A 4.13 2.79 0.9 0 0 6.75 62.28
  L 6.75 62.50
  A 4.13 2.79 0.9 0 0 10.83 65.35
  L 12.16 65.38
  A 0.88 0.88 0.0 0 0 13.06 64.51"
/>
<path stroke="#8f859d" vector-effect="non-scaling-stroke" d="
  M 128.00 50.12
  Q 127.87 51.57 127.73 53.00
  Q 127.71 53.20 127.52 53.18
  L 127.51 53.18
  Q 127.31 53.16 127.31 52.96
  Q 127.74 37.98 126.50 23.03"
/>
<path stroke="#867c92" vector-effect="non-scaling-stroke" d="
  M 126.50 23.03
  Q 126.49 18.28 126.76 13.50
  Q 126.86 11.65 125.64 9.48"
/>
<path stroke="#8f859d" vector-effect="non-scaling-stroke" d="
  M 125.64 9.48
  Q 125.62 9.20 125.05 8.47
  Q 124.74 8.07 124.27 8.24
  Q 121.70 9.12 121.10 9.87
  Q 116.32 15.82 110.49 20.90"
/>
<path stroke="#b3a9c1" vector-effect="non-scaling-stroke" d="
  M 81.26 17.55
  Q 90.87 17.92 100.49 17.89
  Q 102.27 17.88 103.76 17.42
  Q 105.42 16.91 107.38 17.27
  Q 107.83 17.36 108.21 17.62
  Q 109.07 18.21 109.94 17.58
  Q 112.37 15.83 114.15 13.38
  Q 115.59 11.38 117.94 10.20
  Q 120.16 9.08 121.29 6.83
  Q 121.45 6.50 121.09 6.52
  Q 120.92 6.53 120.84 6.68
  Q 120.37 7.57 120.70 6.62
  Q 121.09 5.50 122.06 4.98
  Q 122.50 4.74 122.40 4.25
  Q 121.99 2.27 121.21 3.46"
/>
<path stroke="#bcb2ca" vector-effect="non-scaling-stroke" d="
  M 121.21 3.46
  Q 116.65 1.42 112.25 1.63
  Q 99.66 2.21 90.30 1.52"
/>
<path stroke="#b3a9c1" vector-effect="non-scaling-stroke" d="
  M 90.30 1.52
  L 71.73 1.12
  Q 71.22 1.11 70.85 1.46
  L 70.31 1.98"
/>
<path stroke="#d0c6de" vector-effect="non-scaling-stroke" d="
  M 54.68 12.82
  Q 53.16 13.61 51.25 13.61
  Q 37.50 13.61 23.75 13.63
  Q 21.57 13.63 16.20 14.99
  Q 15.71 15.11 15.54 15.59
  Q 14.04 19.83 14.07 25.74
  Q 14.12 34.75 14.22 44.25
  Q 14.27 49.11 14.09 54.71"
/>
<path stroke="#d0c6de" vector-effect="non-scaling-stroke" d="
  M 3.99 57.32
  Q 3.53 53.70 3.87 44.50
  Q 4.01 40.85 2.94 29.51
  Q 2.58 29.38 2.60 28.75
  Q 2.81 23.13 2.44 13.95"
/>
<path stroke="#d0c6de" vector-effect="non-scaling-stroke" d="
  M 90.30 1.52
  L 71.59 1.83
  Q 71.14 1.84 70.79 2.11
  L 70.54 2.32"
/>
<path stroke="#d0c6de" vector-effect="non-scaling-stroke" d="
  M 121.21 3.46
  Q 121.28 4.40 120.48 5.07
  A 2.27 2.20 -9.8 0 0 119.89 5.88
  C 119.24 7.45 117.89 8.84 116.18 9.19
  Q 114.75 9.47 114.14 10.64
  Q 113.63 11.62 112.80 12.44
  Q 111.61 13.59 110.50 14.74
  Q 110.16 15.09 109.67 15.14
  Q 109.05 15.21 108.57 15.59
  Q 108.19 15.90 107.70 15.89
  L 74.11 15.01"
/>
<path stroke="#776d83" vector-effect="non-scaling-stroke" d="
  M 125.64 9.48
  Q 123.83 11.29 120.57 16.23
  Q 119.85 17.31 116.94 20.02
  Q 116.57 20.36 116.42 20.84
  Q 115.85 22.72 116.25 24.78
  Q 116.63 26.72 116.63 28.73
  Q 116.63 40.45 116.59 51.30
  Q 116.58 51.81 116.40 52.15
  Q 116.00 52.86 115.53 52.57"
/>
<path stroke="#8f859d" vector-effect="non-scaling-stroke" d="
  M 111.50 45.56
  Q 112.33 37.54 111.64 29.81"
/>
<path stroke="#776d83" vector-effect="non-scaling-stroke" d="
  M 126.50 23.03
  Q 125.96 27.50 125.92 32.00
  Q 125.82 43.58 125.94 55.14
  Q 125.95 55.31 125.78 55.32
  L 125.77 55.32
  Q 125.64 55.32 125.64 55.19
  Q 125.50 42.50 125.78 29.78
  Q 125.79 29.48 125.60 29.71
  Q 125.55 29.76 125.57 29.82
  C 125.87 31.37 125.11 32.75 125.10 34.30
  Q 125.02 44.96 125.33 55.33"
/>
<path stroke="#9c8b70" vector-effect="non-scaling-stroke" d="
  M 54.36 15.37
  L 47.91 17.36"
/>
<path stroke="#b3a9c1" vector-effect="non-scaling-stroke" d="
  M 47.91 17.36
  Q 36.45 18.29 25.57 17.65"
/>
<path stroke="#5e4908" vector-effect="non-scaling-stroke" d="
  M 75.34 17.76
  Q 78.94 20.66 81.76 23.39
  Q 82.94 24.54 83.73 25.82
  Q 84.55 27.16 85.38 28.40
  Q 86.65 30.29 87.57 32.48
  Q 88.32 34.26 89.25 35.91
  Q 90.03 37.30 90.13 38.57
  Q 90.25 40.06 90.93 41.40
  Q 91.22 41.98 91.12 42.61
  Q 91.02 43.28 91.38 43.84
  Q 91.64 44.25 91.64 44.73
  L 91.66 54.97
  Q 91.66 55.39 91.33 55.66
  Q 90.77 56.12 90.80 56.84
  Q 90.83 57.50 90.69 58.16
  Q 89.37 64.42 86.32 70.04
  Q 86.01 70.61 85.53 72.10
  Q 84.92 74.02 83.34 73.30"
/>
<path stroke="#392d05" vector-effect="non-scaling-stroke" d="
  M 83.34 73.30
  Q 83.18 68.20 79.59 64.91"
/>
<path stroke="#7c610b" vector-effect="non-scaling-stroke" d="
  M 79.59 64.91
  Q 82.08 63.51 82.33 60.20
  Q 82.37 59.62 82.82 59.24
  Q 83.40 58.77 83.38 58.08
  Q 83.37 57.50 83.53 56.93
  C 84.41 53.78 84.05 50.53 84.33 47.30
  C 84.43 46.20 83.88 45.31 84.04 44.24
  Q 84.19 43.14 83.89 42.02
  Q 83.25 39.70 82.60 37.59
  Q 82.18 36.24 81.48 35.18
  Q 80.58 33.82 79.96 32.22
  Q 79.22 30.34 77.74 28.82
  Q 75.92 26.94 74.19 25.10
  Q 73.28 24.13 72.11 23.37
  Q 70.86 22.54 69.64 21.71
  Q 61.76 16.33 53.03 16.85
  Q 50.51 17.00 47.37 18.50
  Q 44.98 19.64 42.01 20.70
  Q 38.79 21.84 35.75 23.81"
/>
<path stroke="#88765b" vector-effect="non-scaling-stroke" d="
  M 35.59 23.29
  L 47.91 17.36"
/>
<path stroke="#443506" vector-effect="non-scaling-stroke" d="
  M 79.59 64.91
  L 74.84 59.70"
/>
<path stroke="#90700c" vector-effect="non-scaling-stroke" d="
  M 74.84 59.70
  Q 77.24 52.42 77.27 48.25
  Q 77.30 42.70 75.73 38.73
  Q 74.63 35.96 72.97 33.14
  Q 71.96 31.43 70.24 30.12
  Q 69.73 29.74 68.73 27.93
  Q 68.49 27.51 68.04 27.37
  Q 66.95 27.03 66.37 25.98
  Q 66.15 25.58 65.72 25.43
  L 64.25 24.93
  A 0.58 0.56 89.6 0 1 63.89 24.56
  Q 63.72 24.06 63.27 24.11
  Q 62.77 24.16 62.40 23.82
  Q 62.14 23.58 61.87 23.34
  Q 61.50 23.01 61.02 22.89
  Q 58.47 22.27 56.14 21.64
  Q 51.87 20.48 46.94 21.27
  Q 45.72 21.46 44.85 22.11
  Q 44.49 22.38 44.03 22.40
  Q 41.06 22.52 37.89 24.59
  Q 36.56 25.47 35.04 25.84
  Q 34.45 25.99 34.06 26.45
  C 32.82 27.91 31.11 28.65 30.12 30.29
  Q 28.89 32.33 27.31 34.26
  Q 27.03 34.61 26.91 35.03
  Q 26.53 36.50 25.89 37.94
  Q 23.71 42.86 23.79 48.00
  Q 23.83 50.71 24.44 53.53
  Q 25.11 56.58 26.10 59.09
  Q 27.37 62.29 29.72 64.97
  Q 33.15 68.87 37.22 71.91
  Q 37.62 72.22 38.12 72.24
  C 38.90 72.29 39.47 73.10 40.32 73.40
  Q 47.61 75.98 55.37 74.91
  Q 58.32 74.50 60.49 73.44"
/>
<path stroke="#443506" vector-effect="non-scaling-stroke" d="
  M 60.49 73.44
  L 65.24 76.63"
/>
<path stroke="#7c610b" vector-effect="non-scaling-stroke" d="
  M 65.24 76.63
  Q 60.72 77.09 59.10 78.21
  Q 57.94 79.01 56.28 79.12
  Q 49.96 79.51 44.97 78.90
  Q 44.75 78.87 44.68 78.66
  Q 44.60 78.37 44.30 78.31
  Q 42.65 77.98 41.37 76.92
  Q 41.02 76.63 40.57 76.52
  Q 39.03 76.17 37.62 75.12
  Q 36.11 74.01 34.46 73.33
  Q 32.79 72.64 31.91 71.40
  Q 30.97 70.09 29.63 69.01
  A 0.82 0.82 0.0 0 1 29.32 68.46
  Q 29.24 67.89 28.67 67.71
  A 1.07 1.06 83.1 0 1 28.07 67.24
  C 27.35 66.04 26.83 64.57 25.79 63.61
  Q 24.87 62.76 24.65 61.55
  Q 24.55 61.06 24.13 60.78
  Q 23.49 60.35 23.40 59.74
  Q 23.01 57.11 22.17 54.18
  Q 21.44 51.62 22.05 44.77
  C 22.20 43.04 22.92 41.76 22.91 40.05
  Q 22.91 39.56 23.24 39.20
  Q 24.07 38.31 23.94 36.72"
/>
<path stroke="#3a2d05" vector-effect="non-scaling-stroke" d="
  M 86.76 23.43
  Q 87.28 24.68 88.26 25.27
  Q 88.82 25.61 88.87 26.27
  Q 88.95 27.16 89.69 27.85
  C 90.87 28.95 91.39 30.77 92.27 32.17
  C 92.81 33.04 92.69 34.04 93.27 34.90
  Q 93.79 35.67 94.04 36.63
  Q 95.10 40.58 95.66 44.34
  Q 96.72 51.41 95.63 58.73
  Q 95.23 61.37 94.30 63.97
  Q 93.40 66.48 92.61 69.01
  Q 91.69 71.98 89.88 74.11
  Q 88.08 76.22 86.56 78.45
  Q 86.20 78.99 85.64 79.36
  Q 85.15 79.70 84.68 80.08
  Q 83.97 80.65 83.40 81.43
  Q 82.39 82.79 80.90 83.49
  Q 80.51 83.67 80.25 84.02
  Q 79.17 85.47 77.60 86.23
  C 76.79 86.62 76.25 87.40 75.46 87.73
  Q 72.65 88.88 70.23 90.26
  Q 69.22 90.84 68.21 90.93
  Q 66.98 91.05 65.75 91.42
  Q 65.45 91.51 65.23 91.74
  Q 64.38 92.61 63.04 92.35
  Q 62.43 92.23 62.03 92.70
  A 0.90 0.88 -74.2 0 1 61.47 93.02
  Q 43.06 95.57 28.12 83.76"
/>
<path stroke="#5e4908" vector-effect="non-scaling-stroke" d="
  M 19.55 67.11
  Q 20.86 68.23 21.03 70.51
  Q 21.07 71.00 21.42 71.35
  C 22.42 72.32 22.55 73.73 23.40 74.63
  Q 24.22 75.50 25.12 76.35
  Q 26.07 77.24 26.77 78.34
  Q 28.15 80.50 30.66 81.82
  Q 31.21 82.11 31.58 82.61
  Q 32.24 83.50 33.24 83.68
  Q 33.72 83.76 34.08 84.09
  Q 35.41 85.32 36.86 85.63
  C 38.07 85.89 38.80 86.80 40.00 87.13
  Q 46.59 88.91 52.87 89.52
  Q 54.78 89.71 56.70 89.27
  Q 58.96 88.75 61.02 88.88
  Q 61.53 88.92 61.93 88.59
  Q 62.84 87.86 64.06 88.13
  Q 64.57 88.24 65.06 88.04
  L 67.92 86.86
  Q 68.11 86.78 68.23 86.60
  Q 68.37 86.40 68.40 86.15
  A 0.50 0.49 88.5 0 1 68.81 85.71
  Q 69.79 85.55 71.25 84.89
  Q 74.97 83.24 76.02 81.47"
/>
<path stroke="#261e03" vector-effect="non-scaling-stroke" d="
  M 76.02 81.47
  Q 83.26 79.18 83.34 73.30"
/>
<path stroke="#4d3c07" vector-effect="non-scaling-stroke" d="
  M 74.84 59.70
  L 71.07 55.57"
/>
<path stroke="#a07c0e" vector-effect="non-scaling-stroke" d="
  M 71.07 55.57
  L 72.86 50.54
  Q 73.03 50.07 72.89 49.58
  Q 72.26 47.33 72.95 45.08
  Q 73.10 44.60 72.92 44.14
  Q 71.77 41.14 70.60 38.32
  Q 70.52 38.13 70.33 37.14
  Q 70.18 36.41 69.60 36.02
  Q 69.20 35.74 69.02 35.28
  Q 68.33 33.38 67.12 32.38
  Q 64.59 30.26 62.20 27.98
  Q 60.99 26.82 59.45 26.42
  Q 57.82 25.99 56.48 25.10
  Q 54.68 23.91 52.35 23.80
  Q 48.97 23.64 45.76 23.94
  Q 45.25 23.98 44.83 24.28
  C 43.86 24.96 42.67 24.67 41.58 25.22
  C 40.40 25.81 39.12 26.07 38.01 26.82
  Q 33.79 29.66 31.19 33.25
  Q 22.23 45.64 29.61 59.27
  Q 31.17 62.16 34.45 65.31
  Q 36.36 67.15 38.17 67.84
  Q 40.30 68.66 42.13 69.83
  A 1.90 1.88 -33.2 0 0 43.46 70.10
  Q 44.30 69.96 44.96 70.50
  A 1.90 1.82 -20.5 0 0 45.91 70.91
  Q 51.35 71.57 56.94 70.75"
/>
<path stroke="#4d3c07" vector-effect="non-scaling-stroke" d="
  M 56.94 70.75
  Q 58.36 71.31 60.49 73.44"
/>
<path stroke="#544107" vector-effect="non-scaling-stroke" d="
  M 71.07 55.57
  L 68.76 53.31"
/>
<path stroke="#ae870f" vector-effect="non-scaling-stroke" d="
  M 68.76 53.31
  Q 69.25 53.12 69.08 52.26
  Q 68.88 51.27 69.41 50.71
  Q 69.64 50.46 69.59 50.12
  Q 69.57 49.97 69.43 49.89
  Q 68.94 49.56 69.32 49.11
  Q 69.90 48.41 69.20 47.64
  Q 69.09 47.53 69.17 47.39
  Q 69.26 47.25 69.38 47.14
  Q 69.71 46.86 69.55 46.47
  Q 68.55 43.85 68.88 40.62
  A 1.13 1.12 27.2 0 0 68.60 39.76
  Q 67.14 38.12 66.84 35.96
  Q 66.77 35.44 66.32 35.16
  Q 64.58 34.10 63.88 32.39
  Q 63.74 32.07 63.40 32.00
  C 62.62 31.85 62.25 31.32 62.01 30.64
  Q 61.53 29.34 60.01 29.07
  Q 59.50 28.99 59.17 28.58
  Q 57.69 26.76 55.23 27.11
  Q 54.48 27.21 53.97 26.71
  Q 53.68 26.41 53.27 26.35
  Q 49.00 25.64 45.99 26.04
  Q 42.42 26.52 38.60 28.74
  Q 36.61 29.89 35.13 31.49
  Q 33.73 32.99 32.31 34.36
  Q 31.94 34.71 31.92 35.22
  Q 31.90 35.71 31.60 36.10
  Q 29.84 38.37 29.12 41.40
  Q 27.53 48.14 30.24 55.34
  Q 31.32 58.19 33.57 60.01
  Q 34.16 60.49 34.55 61.18
  Q 35.22 62.37 35.64 62.62
  Q 37.69 63.84 39.54 65.33
  Q 40.57 66.16 41.72 66.47
  Q 42.95 66.80 44.10 67.15
  Q 45.60 67.59 47.74 67.55
  Q 50.57 67.49 53.62 67.70"
/>
<path stroke="#544107" vector-effect="non-scaling-stroke" d="
  M 53.62 67.70
  L 56.94 70.75"
/>
<path stroke="#5b4708" vector-effect="non-scaling-stroke" d="
  M 68.76 53.31
  Q 66.81 51.52 63.92 50.84"
/>
<path stroke="#c19610" vector-effect="non-scaling-stroke" d="
  M 63.92 50.84
  Q 63.63 49.47 64.40 48.27
  Q 64.66 47.85 64.58 47.36
  Q 64.35 45.91 64.55 44.60
  A 0.72 0.72 0.0 0 0 64.26 43.90
  Q 63.74 43.53 63.89 42.89
  A 0.79 0.79 0.0 0 0 63.52 42.02
  Q 63.11 41.78 63.25 41.32
  Q 63.40 40.81 63.25 40.30
  Q 62.52 37.95 61.53 36.16
  Q 60.91 35.05 59.88 34.25
  Q 59.48 33.94 58.98 33.87
  Q 58.23 33.78 58.04 33.03
  Q 57.91 32.52 57.50 32.19
  L 55.63 30.67
  Q 55.34 30.42 54.96 30.47
  C 52.89 30.72 51.36 29.50 49.36 29.58
  Q 46.05 29.72 42.57 30.17
  Q 42.12 30.22 41.86 30.59
  Q 41.42 31.19 40.59 31.22
  Q 40.04 31.24 39.62 31.59
  Q 38.28 32.71 37.04 33.80
  Q 30.30 39.77 31.70 48.75
  Q 32.48 53.76 35.56 56.75
  Q 36.67 57.81 37.85 58.87
  Q 38.87 59.80 40.04 60.18
  Q 42.76 61.09 45.32 61.61
  C 47.44 62.05 49.28 61.68 51.41 61.74"
/>
<path stroke="#5b4708" vector-effect="non-scaling-stroke" d="
  M 51.41 61.74
  Q 51.73 64.82 53.62 67.70"
/>
<path stroke="#675109" vector-effect="non-scaling-stroke" d="
  M 63.92 50.84
  Q 52.55 50.26 51.41 61.74"
/>
<path stroke="#ddab13" vector-effect="non-scaling-stroke" d="
  M 51.54 37.17
  Q 49.94 35.53 47.61 35.39
  Q 47.20 35.37 46.87 35.14
  C 46.25 34.72 45.32 34.76 44.73 35.21
  Q 44.33 35.52 43.81 35.40
  Q 43.23 35.28 42.73 35.62
  Q 41.99 36.13 41.13 36.37
  Q 40.40 36.57 39.81 37.10
  Q 37.25 39.42 36.59 42.26
  Q 35.60 46.47 37.78 49.81
  Q 39.86 53.01 43.62 54.01
  Q 48.68 55.35 52.87 51.01
  C 53.73 50.12 53.60 48.96 54.62 48.13
  Q 55.09 47.75 55.04 47.15
  Q 54.93 45.76 55.05 44.42
  Q 55.15 43.29 54.79 42.24
  Q 54.09 40.24 53.18 38.30
  Q 52.89 37.69 52.22 37.54
  Q 51.82 37.46 51.54 37.17"
/>
<path stroke="#392d05" vector-effect="non-scaling-stroke" d="
  M 65.24 76.63
  Q 70.27 80.03 76.02 81.47"
/>
<path stroke="#775c0a" vector-effect="non-scaling-stroke" d="
  M 61.0995 65.1376
  A 4.79 4.60 91.8 0 0 65.8477 60.4945
  A 4.79 4.60 91.8 0 0 61.4005 55.5624
  A 4.79 4.60 91.8 0 0 56.6523 60.2055
  A 4.79 4.60 91.8 0 0 61.0995 65.1376"
/>
<path stroke="#867c92" vector-effect="non-scaling-stroke" d="
  M 73.05 125.52
  L 76.07 125.88"
/>
<path stroke="#8f859d" vector-effect="non-scaling-stroke" d="
  M 76.07 125.88
  Q 75.54 125.94 75.16 126.13
  Q 74.49 126.48 75.25 126.44
  L 82.80 126.09"
/>
<path stroke="#867c92" vector-effect="non-scaling-stroke" d="
  M 82.80 126.09
  Q 104.70 125.07 126.36 126.63
  A 0.76 0.75 0.4 0 0 127.17 125.84
  L 126.73 118.05"
/>
<path stroke="#8f859d" vector-effect="non-scaling-stroke" d="
  M 126.73 118.05
  L 126.79 106.56"
/>
<path stroke="#867c92" vector-effect="non-scaling-stroke" d="
  M 126.79 106.56
  Q 127.02 90.09 126.91 73.66
  Q 126.91 73.50 126.95 73.34
  Q 127.00 73.20 127.14 73.20
  Q 127.63 73.20 127.64 72.71
  L 127.68 66.20"
/>
<path stroke="#8f859d" vector-effect="non-scaling-stroke" d="
  M 127.39 86.91
  Q 127.39 86.85 127.33 86.84
  Q 127.29 86.83 127.26 86.87
  Q 127.25 86.90 127.25 86.93
  Q 127.24 90.15 127.25 93.31
  Q 127.25 93.36 127.27 93.40
  Q 127.30 93.46 127.34 93.41
  Q 127.38 93.37 127.38 93.32
  Q 127.37 90.87 127.39 86.91"
/>
<path stroke="#776d83" vector-effect="non-scaling-stroke" d="
  M 126.79 106.56
  Q 125.64 82.81 126.39 76.75
  Q 127.00 71.86 126.85 69.44
  Q 126.83 69.14 127.11 69.05
  Q 127.37 68.97 127.32 68.64
  Q 127.25 68.15 126.85 68.44
  Q 124.94 69.81 125.98 72.08
  A 2.07 2.00 -56.2 0 1 126.15 73.03
  Q 125.21 87.79 125.85 102.49
  Q 125.90 103.50 126.22 104.98
  Q 126.56 106.51 126.48 107.49
  Q 126.04 112.82 126.73 118.05"
/>
<path stroke="#776d83" vector-effect="non-scaling-stroke" d="
  M 82.80 126.09
  L 76.07 125.88"
/>
<path stroke="#776d83" vector-effect="non-scaling-stroke" d="
  M 76.18 114.24
  Q 75.89 115.12 76.50 115.12
  Q 93.06 115.12 109.63 115.13
  Q 110.80 115.13 111.70 114.71
  Q 112.74 114.23 113.79 113.78
  Q 114.24 113.58 114.46 113.13
  Q 116.21 109.50 115.83 105.58
  Q 115.62 103.46 115.62 101.43
  Q 115.62 86.96 115.68 72.50
  Q 115.68 72.09 114.78 72.23"
/>
<path stroke="#bcb2ca" vector-effect="non-scaling-stroke" d="
  M 2.60 71.15
  Q 1.77 76.37 1.98 79.70
  A 34.03 17.97 88.9 0 1 2.12 84.51
  Q 2.05 100.37 2.31 117.00
  Q 2.34 118.50 3.56 119.60
  Q 4.26 120.24 5.09 120.11
  Q 5.90 119.98 6.70 119.43"
/>
<path stroke="#b3a9c1" vector-effect="non-scaling-stroke" d="
  M 6.70 119.43
  Q 5.47 120.84 7.52 119.65
  Q 9.26 118.63 10.70 117.21
  Q 11.00 116.92 10.86 116.52
  Q 10.81 116.34 10.66 116.24"
/>
<path stroke="#b3a9c1" vector-effect="non-scaling-stroke" d="
  M 10.66 116.24
  Q 13.36 114.32 15.45 111.97
  Q 15.80 111.58 15.81 111.13
  Q 15.83 110.67 15.44 110.92
  Q 15.03 111.18 14.90 111.63
  Q 14.76 112.10 14.34 112.33
  Q 11.85 113.73 10.66 116.24"
/>
<path stroke="#b3a9c1" vector-effect="non-scaling-stroke" d="
  M 10.66 116.24
  L 9.00 117.74
  A 0.01 0.00 -26.6 0 1 8.99 117.74
  Q 9.02 117.63 8.94 117.50"
/>
<path stroke="#bcb2ca" vector-effect="non-scaling-stroke" d="
  M 8.94 117.50
  Q 10.19 116.46 10.58 115.33"
/>
<path stroke="#b3a9c1" vector-effect="non-scaling-stroke" d="
  M 10.58 115.33
  Q 13.72 112.57 14.88 110.88
  Q 16.28 108.83 15.28 106.53
  Q 13.82 103.18 16.37 100.03
  A 2.00 1.92 -21.2 0 0 16.79 99.13
  C 17.00 98.00 17.37 97.28 17.37 96.04
  Q 17.42 89.50 17.31 83.10"
/>
<path stroke="#8f859d" vector-effect="non-scaling-stroke" d="
  M 21.29 111.70
  Q 20.16 112.71 19.00 113.37
  Q 17.62 114.18 16.82 115.06
  Q 16.18 115.77 15.52 116.50
  Q 14.79 117.32 13.98 117.92
  Q 10.85 120.25 8.68 123.49
  A 1.35 1.31 -74.8 0 0 9.84 125.59
  Q 10.06 125.57 11.12 125.68"
/>
<path stroke="#867c92" vector-effect="non-scaling-stroke" d="
  M 11.12 125.68
  Q 12.88 126.55 14.75 126.44
  Q 37.03 125.12 57.71 126.19"
/>
<path stroke="#8f859d" vector-effect="non-scaling-stroke" d="
  M 57.71 126.19
  Q 59.61 127.09 61.52 127.00"
/>
<path stroke="#d0c6de" vector-effect="non-scaling-stroke" d="
  M 14.07 74.21
  Q 13.52 76.88 14.38 78.34
  A 1.90 1.90 0.0 0 1 14.58 79.74
  Q 14.15 81.56 14.68 83.18
  Q 15.19 84.77 15.15 86.63
  Q 15.03 92.45 15.38 98.23
  Q 15.44 99.30 14.85 100.78
  Q 14.34 102.06 14.46 103.31
  Q 14.65 105.37 14.88 107.41
  Q 14.94 107.96 14.74 108.47
  L 13.93 110.56
  A 2.21 2.14 -12.6 0 1 13.41 111.35
  Q 11.61 113.06 10.58 115.33"
/>
<path stroke="#d0c6de" vector-effect="non-scaling-stroke" d="
  M 8.94 117.50
  Q 7.61 118.22 6.70 119.43"
/>
<path stroke="#8f859d" vector-effect="non-scaling-stroke" d="
  M 80.29 111.42
  Q 90.21 111.83 99.43 111.69
  Q 101.27 111.66 104.06 111.89
  Q 107.34 112.17 108.72 111.74
  Q 112.80 110.49 111.58 106.53"
/>
<path stroke="#8f859d" vector-effect="non-scaling-stroke" d="
  M 111.56 97.08
  Q 112.85 89.77 111.69 82.42"
/>
<path stroke="#8f859d" vector-effect="non-scaling-stroke" d="
  M 55.12 113.39
  Q 41.60 114.21 28.66 113.87
  Q 27.86 113.85 26.38 113.50
  Q 25.03 113.18 24.01 113.42
  Q 22.03 113.87 20.22 114.27
  A 1.61 1.58 16.0 0 0 19.43 114.70
  Q 18.74 115.39 18.25 116.22
  Q 17.68 117.20 16.79 118.06
  Q 15.90 118.92 14.98 119.72
  Q 14.54 120.11 12.90 121.01
  Q 10.60 122.27 10.30 125.17
  Q 10.30 125.18 10.30 125.18
  Q 10.30 125.18 10.31 125.19
  Q 10.38 125.22 10.37 125.14
  Q 10.23 122.90 11.50 121.61
  Q 12.93 120.17 15.06 119.05
  Q 16.15 118.48 16.86 117.56
  Q 17.62 116.58 18.29 115.57
  Q 19.07 114.37 19.79 113.96
  Q 20.78 113.38 21.97 113.26
  Q 22.61 113.20 22.20 112.29"
/>
<path stroke="#776d83" vector-effect="non-scaling-stroke" d="
  M 56.93 114.37
  Q 55.88 115.59 53.99 115.59
  Q 41.79 115.63 30.56 115.63
  Q 27.93 115.63 25.42 115.13
  Q 22.73 114.60 20.09 115.26
  Q 19.63 115.37 19.48 115.83
  Q 18.27 119.46 12.76 121.74
  Q 10.47 122.68 11.12 125.68"
/>
<path stroke="#776d83" vector-effect="non-scaling-stroke" d="
  M 60.55 126.07
  L 57.71 126.19"
/>
</g>
<path fill="#9e94ac" d="
  M 0.00 0.00
  L 60.86 0.00
  L 57.67 2.60
  Q 56.64 1.64 53.75 1.63
  Q 35.82 1.59 15.50 1.64
  Q 11.57 1.65 8.01 1.00
  C 5.95 0.62 3.95 0.84 1.90 1.06
  A 1.07 1.07 0.0 0 0 0.95 2.25
  L 2.44 13.95
  C 2.02 21.09 2.11 28.08 1.69 35.34
  Q 1.19 44.11 1.42 53.75
  Q 1.50 56.76 1.77 58.56
  L 0.00 61.26
  L 0.00 0.00
  Z"
/>
<path fill="#010100" d="
  M 60.86 0.00
  L 67.47 0.00
  L 70.31 1.98
  Q 70.04 2.09 70.54 2.32
  Q 71.72 6.48 71.21 11.12
  Q 71.14 11.79 71.81 11.82
  L 72.80 11.87
  Q 73.37 11.89 73.50 12.45
  L 74.11 15.01
  L 81.26 17.55
  Q 87.48 19.69 92.85 23.42
  Q 93.29 23.72 93.76 23.50
  L 95.92 22.47
  Q 96.52 22.18 96.96 22.69
  L 97.44 23.25
  Q 97.85 23.72 98.35 23.35
  C 100.48 21.77 102.42 18.70 104.84 18.01
  Q 108.11 17.08 110.49 20.90
  Q 111.41 21.69 112.49 23.00
  Q 113.53 24.26 113.61 25.55
  Q 113.77 28.21 111.64 29.81
  L 107.88 33.58
  Q 107.25 34.22 108.02 34.67
  L 108.54 34.97
  A 0.79 0.79 0.0 0 1 108.68 36.22
  Q 106.94 37.87 108.20 39.50
  C 109.59 41.31 110.30 43.49 111.50 45.56
  L 113.33 51.34
  Q 113.48 51.83 113.97 52.00
  L 115.53 52.57
  Q 116.36 53.20 116.65 54.47
  Q 116.75 54.94 117.23 54.96
  L 125.33 55.33
  Q 126.98 56.89 128.00 58.90
  L 128.00 65.36
  Q 127.75 65.42 127.68 66.20
  C 125.42 70.10 121.05 68.97 117.43 69.05
  Q 116.94 69.06 116.65 69.45
  Q 116.40 69.77 116.48 70.20
  Q 116.58 70.78 116.11 71.16
  L 114.78 72.23
  L 111.69 82.42
  L 108.21 88.85
  Q 107.89 89.44 108.33 89.94
  L 109.33 91.06
  A 1.13 1.13 0.0 0 1 109.25 92.64
  Q 107.82 93.96 109.07 95.19
  Q 109.84 95.95 111.56 97.08
  Q 111.98 97.89 113.44 99.54
  C 115.70 102.11 113.53 104.40 111.58 106.53
  C 109.12 108.74 106.74 111.87 103.30 108.60
  Q 101.17 106.58 99.24 104.56
  Q 98.56 103.86 97.79 104.46
  Q 96.30 105.62 95.00 104.42
  Q 94.51 103.96 93.92 104.27
  L 80.29 111.42
  Q 77.15 111.38 76.18 114.24
  C 74.86 115.77 74.02 116.67 73.82 118.81
  Q 73.52 122.16 73.05 125.52
  Q 71.65 127.17 69.73 128.00
  L 63.43 128.00
  L 61.52 127.00
  Q 61.05 126.27 60.55 126.07
  C 59.29 124.38 59.64 120.25 59.38 118.04
  Q 59.32 117.55 59.03 117.16
  L 56.93 114.37
  Q 55.38 111.95 55.12 113.39
  Q 45.48 110.55 37.62 106.32
  Q 37.29 106.15 37.00 105.92
  Q 35.72 104.92 34.63 106.19
  Q 33.52 107.50 32.17 106.43
  Q 31.75 106.09 31.21 106.05
  Q 30.65 106.00 30.29 106.44
  Q 28.50 108.63 26.40 110.89
  Q 24.65 112.77 22.20 112.29
  L 21.29 111.70
  C 17.94 108.80 13.27 105.27 16.63 101.37
  Q 18.60 99.08 20.49 97.00
  Q 20.91 96.53 20.58 95.99
  L 19.96 94.97
  Q 19.57 94.35 19.92 93.71
  L 21.17 91.36
  A 1.03 1.01 45.6 0 0 21.17 90.41
  L 17.31 83.10
  L 14.07 74.21
  Q 12.57 74.54 11.79 73.60
  A 1.42 1.36 -65.2 0 1 11.48 72.69
  Q 11.49 72.37 11.40 72.09
  Q 11.25 71.65 10.79 71.62
  L 2.60 71.15
  Q 1.22 69.88 0.00 67.62
  L 0.00 61.26
  L 1.77 58.56
  L 3.99 57.32
  L 10.85 57.17
  Q 11.35 57.16 11.38 56.66
  Q 11.52 54.12 14.09 54.71
  Q 16.39 45.68 21.01 38.19
  A 1.47 1.47 0.0 0 0 20.78 36.37
  Q 19.32 34.96 20.41 33.49
  A 1.33 1.32 38.5 0 0 20.20 31.68
  Q 17.76 29.63 16.10 27.39
  Q 13.80 24.29 16.46 21.34
  C 18.51 19.07 22.04 14.26 25.57 17.65
  L 30.38 22.44
  A 0.60 0.59 36.9 0 0 31.32 22.31
  Q 31.75 21.55 32.50 21.39
  Q 32.97 21.28 33.35 21.58
  L 35.59 23.29
  Q 36.08 23.34 35.75 23.81
  Q 28.54 29.04 23.94 36.72
  Q 15.75 51.41 19.55 67.11
  Q 21.84 77.17 28.12 83.76
  Q 34.72 92.57 42.55 94.93
  Q 48.69 96.78 60.88 95.79
  Q 61.83 95.71 62.81 95.34
  Q 63.60 95.04 64.55 95.05
  Q 65.86 95.07 67.58 94.23
  Q 69.97 93.06 72.40 92.25
  Q 73.43 91.90 74.34 91.33
  Q 75.44 90.64 76.67 90.21
  Q 78.07 89.71 79.40 88.74
  Q 80.97 87.60 82.57 86.36
  Q 86.59 83.26 90.08 78.19
  Q 90.55 77.49 90.77 76.67
  Q 90.91 76.16 91.39 75.94
  Q 91.80 75.75 91.85 75.28
  Q 91.90 74.79 92.23 74.41
  Q 95.13 71.12 95.80 66.96
  A 1.65 1.64 -19.2 0 1 96.21 66.12
  Q 97.15 65.12 97.11 63.81
  Q 97.11 63.66 97.24 63.63
  Q 97.58 63.53 97.63 63.20
  Q 97.90 61.49 98.26 59.74
  Q 98.61 58.01 98.67 56.40
  Q 98.80 53.00 99.03 49.39
  Q 99.19 47.01 98.56 44.49
  Q 97.66 40.87 97.58 37.14
  Q 97.54 35.16 96.01 33.74
  Q 95.63 33.39 95.57 32.88
  Q 95.44 31.74 95.15 31.36
  Q 91.51 26.68 86.76 23.43
  Q 81.61 19.63 75.34 17.76
  Q 72.61 16.41 68.75 16.05
  Q 61.62 15.37 54.36 15.37
  L 54.68 12.82
  Q 55.48 11.94 56.77 11.77
  Q 57.23 11.71 57.25 11.24
  L 57.67 2.60
  L 60.86 0.00
  Z
  M 63.3612 12.9096
  A 4.21 2.63 90.8 0 0 66.0497 8.7367
  A 4.21 2.63 90.8 0 0 63.4788 4.4904
  A 4.21 2.63 90.8 0 0 60.7903 8.6633
  A 4.21 2.63 90.8 0 0 63.3612 12.9096
  Z
  M 28.84 24.96
  A 2.44 2.44 0.0 0 0 26.40 22.52
  A 2.44 2.44 0.0 0 0 23.96 24.96
  A 2.44 2.44 0.0 0 0 26.40 27.40
  A 2.44 2.44 0.0 0 0 28.84 24.96
  Z
  M 106.17 25.06
  A 2.24 2.24 0.0 0 0 103.93 22.82
  A 2.24 2.24 0.0 0 0 101.69 25.06
  A 2.24 2.24 0.0 0 0 103.93 27.30
  A 2.24 2.24 0.0 0 0 106.17 25.06
  Z
  M 13.06 64.51
  L 13.12 60.47
  A 0.88 0.88 0.0 0 0 12.26 59.58
  L 10.93 59.56
  A 4.13 2.79 0.9 0 0 6.75 62.28
  L 6.75 62.50
  A 4.13 2.79 0.9 0 0 10.83 65.35
  L 12.16 65.38
  A 0.88 0.88 0.0 0 0 13.06 64.51
  Z"
/>
<path fill="#9e94ac" d="
  M 67.47 0.00
  L 128.00 0.00
  L 128.00 50.12
  Q 127.87 51.57 127.73 53.00
  Q 127.71 53.20 127.52 53.18
  L 127.51 53.18
  Q 127.31 53.16 127.31 52.96
  Q 127.74 37.98 126.50 23.03
  Q 126.49 18.28 126.76 13.50
  Q 126.86 11.65 125.64 9.48
  Q 125.62 9.20 125.05 8.47
  Q 124.74 8.07 124.27 8.24
  Q 121.70 9.12 121.10 9.87
  Q 116.32 15.82 110.49 20.90
  Q 108.11 17.08 104.84 18.01
  C 102.42 18.70 100.48 21.77 98.35 23.35
  Q 97.85 23.72 97.44 23.25
  L 96.96 22.69
  Q 96.52 22.18 95.92 22.47
  L 93.76 23.50
  Q 93.29 23.72 92.85 23.42
  Q 87.48 19.69 81.26 17.55
  Q 90.87 17.92 100.49 17.89
  Q 102.27 17.88 103.76 17.42
  Q 105.42 16.91 107.38 17.27
  Q 107.83 17.36 108.21 17.62
  Q 109.07 18.21 109.94 17.58
  Q 112.37 15.83 114.15 13.38
  Q 115.59 11.38 117.94 10.20
  Q 120.16 9.08 121.29 6.83
  Q 121.45 6.50 121.09 6.52
  Q 120.92 6.53 120.84 6.68
  Q 120.37 7.57 120.70 6.62
  Q 121.09 5.50 122.06 4.98
  Q 122.50 4.74 122.40 4.25
  Q 121.99 2.27 121.21 3.46
  Q 116.65 1.42 112.25 1.63
  Q 99.66 2.21 90.30 1.52
  L 71.73 1.12
  Q 71.22 1.11 70.85 1.46
  L 70.31 1.98
  L 67.47 0.00
  Z"
/>
<path fill="#d9cfe7" d="
  M 57.67 2.60
  L 57.25 11.24
  Q 57.23 11.71 56.77 11.77
  Q 55.48 11.94 54.68 12.82
  Q 53.16 13.61 51.25 13.61
  Q 37.50 13.61 23.75 13.63
  Q 21.57 13.63 16.20 14.99
  Q 15.71 15.11 15.54 15.59
  Q 14.04 19.83 14.07 25.74
  Q 14.12 34.75 14.22 44.25
  Q 14.27 49.11 14.09 54.71
  Q 11.52 54.12 11.38 56.66
  Q 11.35 57.16 10.85 57.17
  L 3.99 57.32
  Q 3.53 53.70 3.87 44.50
  Q 4.01 40.85 2.94 29.51
  Q 2.58 29.38 2.60 28.75
  Q 2.81 23.13 2.44 13.95
  L 0.95 2.25
  A 1.07 1.07 0.0 0 1 1.90 1.06
  C 3.95 0.84 5.95 0.62 8.01 1.00
  Q 11.57 1.65 15.50 1.64
  Q 35.82 1.59 53.75 1.63
  Q 56.64 1.64 57.67 2.60
  Z"
/>
<path fill="#c7bdd5" d="
  M 90.30 1.52
  L 71.59 1.83
  Q 71.14 1.84 70.79 2.11
  L 70.54 2.32
  Q 70.04 2.09 70.31 1.98
  L 70.85 1.46
  Q 71.22 1.11 71.73 1.12
  L 90.30 1.52
  Z"
/>
<path fill="#d9cfe7" d="
  M 90.30 1.52
  Q 99.66 2.21 112.25 1.63
  Q 116.65 1.42 121.21 3.46
  Q 121.28 4.40 120.48 5.07
  A 2.27 2.20 -9.8 0 0 119.89 5.88
  C 119.24 7.45 117.89 8.84 116.18 9.19
  Q 114.75 9.47 114.14 10.64
  Q 113.63 11.62 112.80 12.44
  Q 111.61 13.59 110.50 14.74
  Q 110.16 15.09 109.67 15.14
  Q 109.05 15.21 108.57 15.59
  Q 108.19 15.90 107.70 15.89
  L 74.11 15.01
  L 73.50 12.45
  Q 73.37 11.89 72.80 11.87
  L 71.81 11.82
  Q 71.14 11.79 71.21 11.12
  Q 71.72 6.48 70.54 2.32
  L 70.79 2.11
  Q 71.14 1.84 71.59 1.83
  L 90.30 1.52
  Z"
/>
<path fill="#c7bdd5" d="
  M 81.26 17.55
  L 74.11 15.01
  L 107.70 15.89
  Q 108.19 15.90 108.57 15.59
  Q 109.05 15.21 109.67 15.14
  Q 110.16 15.09 110.50 14.74
  Q 111.61 13.59 112.80 12.44
  Q 113.63 11.62 114.14 10.64
  Q 114.75 9.47 116.18 9.19
  C 117.89 8.84 119.24 7.45 119.89 5.88
  A 2.27 2.20 -9.8 0 1 120.48 5.07
  Q 121.28 4.40 121.21 3.46
  Q 121.99 2.27 122.40 4.25
  Q 122.50 4.74 122.06 4.98
  Q 121.09 5.50 120.70 6.62
  Q 120.37 7.57 120.84 6.68
  Q 120.92 6.53 121.09 6.52
  Q 121.45 6.50 121.29 6.83
  Q 120.16 9.08 117.94 10.20
  Q 115.59 11.38 114.15 13.38
  Q 112.37 15.83 109.94 17.58
  Q 109.07 18.21 108.21 17.62
  Q 107.83 17.36 107.38 17.27
  Q 105.42 16.91 103.76 17.42
  Q 102.27 17.88 100.49 17.89
  Q 90.87 17.92 81.26 17.55
  Z"
/>
<ellipse fill="#5b217d" cx="0.00" cy="0.00" transform="translate(63.42,8.70) rotate(90.8)" rx="4.21" ry="2.63"/>
<path fill="#80768d" d="
  M 125.64 9.48
  Q 123.83 11.29 120.57 16.23
  Q 119.85 17.31 116.94 20.02
  Q 116.57 20.36 116.42 20.84
  Q 115.85 22.72 116.25 24.78
  Q 116.63 26.72 116.63 28.73
  Q 116.63 40.45 116.59 51.30
  Q 116.58 51.81 116.40 52.15
  Q 116.00 52.86 115.53 52.57
  L 113.97 52.00
  Q 113.48 51.83 113.33 51.34
  L 111.50 45.56
  Q 112.33 37.54 111.64 29.81
  Q 113.77 28.21 113.61 25.55
  Q 113.53 24.26 112.49 23.00
  Q 111.41 21.69 110.49 20.90
  Q 116.32 15.82 121.10 9.87
  Q 121.70 9.12 124.27 8.24
  Q 124.74 8.07 125.05 8.47
  Q 125.62 9.20 125.64 9.48
  Z"
/>
<path fill="#6e6478" d="
  M 125.64 9.48
  Q 126.86 11.65 126.76 13.50
  Q 126.49 18.28 126.50 23.03
  Q 125.96 27.50 125.92 32.00
  Q 125.82 43.58 125.94 55.14
  Q 125.95 55.31 125.78 55.32
  L 125.77 55.32
  Q 125.64 55.32 125.64 55.19
  Q 125.50 42.50 125.78 29.78
  Q 125.79 29.48 125.60 29.71
  Q 125.55 29.76 125.57 29.82
  C 125.87 31.37 125.11 32.75 125.10 34.30
  Q 125.02 44.96 125.33 55.33
  L 117.23 54.96
  Q 116.75 54.94 116.65 54.47
  Q 116.36 53.20 115.53 52.57
  Q 116.00 52.86 116.40 52.15
  Q 116.58 51.81 116.59 51.30
  Q 116.63 40.45 116.63 28.73
  Q 116.63 26.72 116.25 24.78
  Q 115.85 22.72 116.42 20.84
  Q 116.57 20.36 116.94 20.02
  Q 119.85 17.31 120.57 16.23
  Q 123.83 11.29 125.64 9.48
  Z"
/>
<path fill="#c7bdd5" d="
  M 54.68 12.82
  L 54.36 15.37
  L 47.91 17.36
  Q 36.45 18.29 25.57 17.65
  C 22.04 14.26 18.51 19.07 16.46 21.34
  Q 13.80 24.29 16.10 27.39
  Q 17.76 29.63 20.20 31.68
  A 1.33 1.32 38.5 0 1 20.41 33.49
  Q 19.32 34.96 20.78 36.37
  A 1.47 1.47 0.0 0 1 21.01 38.19
  Q 16.39 45.68 14.09 54.71
  Q 14.27 49.11 14.22 44.25
  Q 14.12 34.75 14.07 25.74
  Q 14.04 19.83 15.54 15.59
  Q 15.71 15.11 16.20 14.99
  Q 21.57 13.63 23.75 13.63
  Q 37.50 13.61 51.25 13.61
  Q 53.16 13.61 54.68 12.82
  Z"
/>
<path fill="#c7bdd5" d="
  M 2.44 13.95
  Q 2.81 23.13 2.60 28.75
  Q 2.58 29.38 2.94 29.51
  Q 4.01 40.85 3.87 44.50
  Q 3.53 53.70 3.99 57.32
  L 1.77 58.56
  Q 1.50 56.76 1.42 53.75
  Q 1.19 44.11 1.69 35.34
  C 2.11 28.08 2.02 21.09 2.44 13.95
  Z"
/>
<path fill="#71580a" d="
  M 54.36 15.37
  Q 61.62 15.37 68.75 16.05
  Q 72.61 16.41 75.34 17.76
  Q 78.94 20.66 81.76 23.39
  Q 82.94 24.54 83.73 25.82
  Q 84.55 27.16 85.38 28.40
  Q 86.65 30.29 87.57 32.48
  Q 88.32 34.26 89.25 35.91
  Q 90.03 37.30 90.13 38.57
  Q 90.25 40.06 90.93 41.40
  Q 91.22 41.98 91.12 42.61
  Q 91.02 43.28 91.38 43.84
  Q 91.64 44.25 91.64 44.73
  L 91.66 54.97
  Q 91.66 55.39 91.33 55.66
  Q 90.77 56.12 90.80 56.84
  Q 90.83 57.50 90.69 58.16
  Q 89.37 64.42 86.32 70.04
  Q 86.01 70.61 85.53 72.10
  Q 84.92 74.02 83.34 73.30
  Q 83.18 68.20 79.59 64.91
  Q 82.08 63.51 82.33 60.20
  Q 82.37 59.62 82.82 59.24
  Q 83.40 58.77 83.38 58.08
  Q 83.37 57.50 83.53 56.93
  C 84.41 53.78 84.05 50.53 84.33 47.30
  C 84.43 46.20 83.88 45.31 84.04 44.24
  Q 84.19 43.14 83.89 42.02
  Q 83.25 39.70 82.60 37.59
  Q 82.18 36.24 81.48 35.18
  Q 80.58 33.82 79.96 32.22
  Q 79.22 30.34 77.74 28.82
  Q 75.92 26.94 74.19 25.10
  Q 73.28 24.13 72.11 23.37
  Q 70.86 22.54 69.64 21.71
  Q 61.76 16.33 53.03 16.85
  Q 50.51 17.00 47.37 18.50
  Q 44.98 19.64 42.01 20.70
  Q 38.79 21.84 35.75 23.81
  Q 36.08 23.34 35.59 23.29
  L 47.91 17.36
  L 54.36 15.37
  Z"
/>
<path fill="#86690b" d="
  M 79.59 64.91
  L 74.84 59.70
  Q 77.24 52.42 77.27 48.25
  Q 77.30 42.70 75.73 38.73
  Q 74.63 35.96 72.97 33.14
  Q 71.96 31.43 70.24 30.12
  Q 69.73 29.74 68.73 27.93
  Q 68.49 27.51 68.04 27.37
  Q 66.95 27.03 66.37 25.98
  Q 66.15 25.58 65.72 25.43
  L 64.25 24.93
  A 0.58 0.56 89.6 0 1 63.89 24.56
  Q 63.72 24.06 63.27 24.11
  Q 62.77 24.16 62.40 23.82
  Q 62.14 23.58 61.87 23.34
  Q 61.50 23.01 61.02 22.89
  Q 58.47 22.27 56.14 21.64
  Q 51.87 20.48 46.94 21.27
  Q 45.72 21.46 44.85 22.11
  Q 44.49 22.38 44.03 22.40
  Q 41.06 22.52 37.89 24.59
  Q 36.56 25.47 35.04 25.84
  Q 34.45 25.99 34.06 26.45
  C 32.82 27.91 31.11 28.65 30.12 30.29
  Q 28.89 32.33 27.31 34.26
  Q 27.03 34.61 26.91 35.03
  Q 26.53 36.50 25.89 37.94
  Q 23.71 42.86 23.79 48.00
  Q 23.83 50.71 24.44 53.53
  Q 25.11 56.58 26.10 59.09
  Q 27.37 62.29 29.72 64.97
  Q 33.15 68.87 37.22 71.91
  Q 37.62 72.22 38.12 72.24
  C 38.90 72.29 39.47 73.10 40.32 73.40
  Q 47.61 75.98 55.37 74.91
  Q 58.32 74.50 60.49 73.44
  L 65.24 76.63
  Q 60.72 77.09 59.10 78.21
  Q 57.94 79.01 56.28 79.12
  Q 49.96 79.51 44.97 78.90
  Q 44.75 78.87 44.68 78.66
  Q 44.60 78.37 44.30 78.31
  Q 42.65 77.98 41.37 76.92
  Q 41.02 76.63 40.57 76.52
  Q 39.03 76.17 37.62 75.12
  Q 36.11 74.01 34.46 73.33
  Q 32.79 72.64 31.91 71.40
  Q 30.97 70.09 29.63 69.01
  A 0.82 0.82 0.0 0 1 29.32 68.46
  Q 29.24 67.89 28.67 67.71
  A 1.07 1.06 83.1 0 1 28.07 67.24
  C 27.35 66.04 26.83 64.57 25.79 63.61
  Q 24.87 62.76 24.65 61.55
  Q 24.55 61.06 24.13 60.78
  Q 23.49 60.35 23.40 59.74
  Q 23.01 57.11 22.17 54.18
  Q 21.44 51.62 22.05 44.77
  C 22.20 43.04 22.92 41.76 22.91 40.05
  Q 22.91 39.56 23.24 39.20
  Q 24.07 38.31 23.94 36.72
  Q 28.54 29.04 35.75 23.81
  Q 38.79 21.84 42.01 20.70
  Q 44.98 19.64 47.37 18.50
  Q 50.51 17.00 53.03 16.85
  Q 61.76 16.33 69.64 21.71
  Q 70.86 22.54 72.11 23.37
  Q 73.28 24.13 74.19 25.10
  Q 75.92 26.94 77.74 28.82
  Q 79.22 30.34 79.96 32.22
  Q 80.58 33.82 81.48 35.18
  Q 82.18 36.24 82.60 37.59
  Q 83.25 39.70 83.89 42.02
  Q 84.19 43.14 84.04 44.24
  C 83.88 45.31 84.43 46.20 84.33 47.30
  C 84.05 50.53 84.41 53.78 83.53 56.93
  Q 83.37 57.50 83.38 58.08
  Q 83.40 58.77 82.82 59.24
  Q 82.37 59.62 82.33 60.20
  Q 82.08 63.51 79.59 64.91
  Z"
/>
<path fill="#9e94ac" d="
  M 47.91 17.36
  L 35.59 23.29
  L 33.35 21.58
  Q 32.97 21.28 32.50 21.39
  Q 31.75 21.55 31.32 22.31
  A 0.60 0.59 36.9 0 1 30.38 22.44
  L 25.57 17.65
  Q 36.45 18.29 47.91 17.36
  Z"
/>
<path fill="#4a3a06" d="
  M 75.34 17.76
  Q 81.61 19.63 86.76 23.43
  Q 87.28 24.68 88.26 25.27
  Q 88.82 25.61 88.87 26.27
  Q 88.95 27.16 89.69 27.85
  C 90.87 28.95 91.39 30.77 92.27 32.17
  C 92.81 33.04 92.69 34.04 93.27 34.90
  Q 93.79 35.67 94.04 36.63
  Q 95.10 40.58 95.66 44.34
  Q 96.72 51.41 95.63 58.73
  Q 95.23 61.37 94.30 63.97
  Q 93.40 66.48 92.61 69.01
  Q 91.69 71.98 89.88 74.11
  Q 88.08 76.22 86.56 78.45
  Q 86.20 78.99 85.64 79.36
  Q 85.15 79.70 84.68 80.08
  Q 83.97 80.65 83.40 81.43
  Q 82.39 82.79 80.90 83.49
  Q 80.51 83.67 80.25 84.02
  Q 79.17 85.47 77.60 86.23
  C 76.79 86.62 76.25 87.40 75.46 87.73
  Q 72.65 88.88 70.23 90.26
  Q 69.22 90.84 68.21 90.93
  Q 66.98 91.05 65.75 91.42
  Q 65.45 91.51 65.23 91.74
  Q 64.38 92.61 63.04 92.35
  Q 62.43 92.23 62.03 92.70
  A 0.90 0.88 -74.2 0 1 61.47 93.02
  Q 43.06 95.57 28.12 83.76
  Q 21.84 77.17 19.55 67.11
  Q 20.86 68.23 21.03 70.51
  Q 21.07 71.00 21.42 71.35
  C 22.42 72.32 22.55 73.73 23.40 74.63
  Q 24.22 75.50 25.12 76.35
  Q 26.07 77.24 26.77 78.34
  Q 28.15 80.50 30.66 81.82
  Q 31.21 82.11 31.58 82.61
  Q 32.24 83.50 33.24 83.68
  Q 33.72 83.76 34.08 84.09
  Q 35.41 85.32 36.86 85.63
  C 38.07 85.89 38.80 86.80 40.00 87.13
  Q 46.59 88.91 52.87 89.52
  Q 54.78 89.71 56.70 89.27
  Q 58.96 88.75 61.02 88.88
  Q 61.53 88.92 61.93 88.59
  Q 62.84 87.86 64.06 88.13
  Q 64.57 88.24 65.06 88.04
  L 67.92 86.86
  Q 68.11 86.78 68.23 86.60
  Q 68.37 86.40 68.40 86.15
  A 0.50 0.49 88.5 0 1 68.81 85.71
  Q 69.79 85.55 71.25 84.89
  Q 74.97 83.24 76.02 81.47
  Q 83.26 79.18 83.34 73.30
  Q 84.92 74.02 85.53 72.10
  Q 86.01 70.61 86.32 70.04
  Q 89.37 64.42 90.69 58.16
  Q 90.83 57.50 90.80 56.84
  Q 90.77 56.12 91.33 55.66
  Q 91.66 55.39 91.66 54.97
  L 91.64 44.73
  Q 91.64 44.25 91.38 43.84
  Q 91.02 43.28 91.12 42.61
  Q 91.22 41.98 90.93 41.40
  Q 90.25 40.06 90.13 38.57
  Q 90.03 37.30 89.25 35.91
  Q 88.32 34.26 87.57 32.48
  Q 86.65 30.29 85.38 28.40
  Q 84.55 27.16 83.73 25.82
  Q 82.94 24.54 81.76 23.39
  Q 78.94 20.66 75.34 17.76
  Z"
/>
<path fill="#99760d" d="
  M 74.84 59.70
  L 71.07 55.57
  L 72.86 50.54
  Q 73.03 50.07 72.89 49.58
  Q 72.26 47.33 72.95 45.08
  Q 73.10 44.60 72.92 44.14
  Q 71.77 41.14 70.60 38.32
  Q 70.52 38.13 70.33 37.14
  Q 70.18 36.41 69.60 36.02
  Q 69.20 35.74 69.02 35.28
  Q 68.33 33.38 67.12 32.38
  Q 64.59 30.26 62.20 27.98
  Q 60.99 26.82 59.45 26.42
  Q 57.82 25.99 56.48 25.10
  Q 54.68 23.91 52.35 23.80
  Q 48.97 23.64 45.76 23.94
  Q 45.25 23.98 44.83 24.28
  C 43.86 24.96 42.67 24.67 41.58 25.22
  C 40.40 25.81 39.12 26.07 38.01 26.82
  Q 33.79 29.66 31.19 33.25
  Q 22.23 45.64 29.61 59.27
  Q 31.17 62.16 34.45 65.31
  Q 36.36 67.15 38.17 67.84
  Q 40.30 68.66 42.13 69.83
  A 1.90 1.88 -33.2 0 0 43.46 70.10
  Q 44.30 69.96 44.96 70.50
  A 1.90 1.82 -20.5 0 0 45.91 70.91
  Q 51.35 71.57 56.94 70.75
  Q 58.36 71.31 60.49 73.44
  Q 58.32 74.50 55.37 74.91
  Q 47.61 75.98 40.32 73.40
  C 39.47 73.10 38.90 72.29 38.12 72.24
  Q 37.62 72.22 37.22 71.91
  Q 33.15 68.87 29.72 64.97
  Q 27.37 62.29 26.10 59.09
  Q 25.11 56.58 24.44 53.53
  Q 23.83 50.71 23.79 48.00
  Q 23.71 42.86 25.89 37.94
  Q 26.53 36.50 26.91 35.03
  Q 27.03 34.61 27.31 34.26
  Q 28.89 32.33 30.12 30.29
  C 31.11 28.65 32.82 27.91 34.06 26.45
  Q 34.45 25.99 35.04 25.84
  Q 36.56 25.47 37.89 24.59
  Q 41.06 22.52 44.03 22.40
  Q 44.49 22.38 44.85 22.11
  Q 45.72 21.46 46.94 21.27
  Q 51.87 20.48 56.14 21.64
  Q 58.47 22.27 61.02 22.89
  Q 61.50 23.01 61.87 23.34
  Q 62.14 23.58 62.40 23.82
  Q 62.77 24.16 63.27 24.11
  Q 63.72 24.06 63.89 24.56
  A 0.58 0.56 89.6 0 0 64.25 24.93
  L 65.72 25.43
  Q 66.15 25.58 66.37 25.98
  Q 66.95 27.03 68.04 27.37
  Q 68.49 27.51 68.73 27.93
  Q 69.73 29.74 70.24 30.12
  Q 71.96 31.43 72.97 33.14
  Q 74.63 35.96 75.73 38.73
  Q 77.30 42.70 77.27 48.25
  Q 77.24 52.42 74.84 59.70
  Z"
/>
<circle fill="#644453" cx="26.40" cy="24.96" r="2.44"/>
<circle fill="#644453" cx="103.93" cy="25.06" r="2.24"/>
<path fill="#80768d" d="
  M 126.50 23.03
  Q 127.74 37.98 127.31 52.96
  Q 127.31 53.16 127.51 53.18
  L 127.52 53.18
  Q 127.71 53.20 127.73 53.00
  Q 127.87 51.57 128.00 50.12
  L 128.00 58.90
  Q 126.98 56.89 125.33 55.33
  Q 125.02 44.96 125.10 34.30
  C 125.11 32.75 125.87 31.37 125.57 29.82
  Q 125.55 29.76 125.60 29.71
  Q 125.79 29.48 125.78 29.78
  Q 125.50 42.50 125.64 55.19
  Q 125.64 55.32 125.77 55.32
  L 125.78 55.32
  Q 125.95 55.31 125.94 55.14
  Q 125.82 43.58 125.92 32.00
  Q 125.96 27.50 126.50 23.03
  Z"
/>
<path fill="#2a1f03" d="
  M 86.76 23.43
  Q 91.51 26.68 95.15 31.36
  Q 95.44 31.74 95.57 32.88
  Q 95.63 33.39 96.01 33.74
  Q 97.54 35.16 97.58 37.14
  Q 97.66 40.87 98.56 44.49
  Q 99.19 47.01 99.03 49.39
  Q 98.80 53.00 98.67 56.40
  Q 98.61 58.01 98.26 59.74
  Q 97.90 61.49 97.63 63.20
  Q 97.58 63.53 97.24 63.63
  Q 97.11 63.66 97.11 63.81
  Q 97.15 65.12 96.21 66.12
  A 1.65 1.64 -19.2 0 0 95.80 66.96
  Q 95.13 71.12 92.23 74.41
  Q 91.90 74.79 91.85 75.28
  Q 91.80 75.75 91.39 75.94
  Q 90.91 76.16 90.77 76.67
  Q 90.55 77.49 90.08 78.19
  Q 86.59 83.26 82.57 86.36
  Q 80.97 87.60 79.40 88.74
  Q 78.07 89.71 76.67 90.21
  Q 75.44 90.64 74.34 91.33
  Q 73.43 91.90 72.40 92.25
  Q 69.97 93.06 67.58 94.23
  Q 65.86 95.07 64.55 95.05
  Q 63.60 95.04 62.81 95.34
  Q 61.83 95.71 60.88 95.79
  Q 48.69 96.78 42.55 94.93
  Q 34.72 92.57 28.12 83.76
  Q 43.06 95.57 61.47 93.02
  A 0.90 0.88 -74.2 0 0 62.03 92.70
  Q 62.43 92.23 63.04 92.35
  Q 64.38 92.61 65.23 91.74
  Q 65.45 91.51 65.75 91.42
  Q 66.98 91.05 68.21 90.93
  Q 69.22 90.84 70.23 90.26
  Q 72.65 88.88 75.46 87.73
  C 76.25 87.40 76.79 86.62 77.60 86.23
  Q 79.17 85.47 80.25 84.02
  Q 80.51 83.67 80.90 83.49
  Q 82.39 82.79 83.40 81.43
  Q 83.97 80.65 84.68 80.08
  Q 85.15 79.70 85.64 79.36
  Q 86.20 78.99 86.56 78.45
  Q 88.08 76.22 89.88 74.11
  Q 91.69 71.98 92.61 69.01
  Q 93.40 66.48 94.30 63.97
  Q 95.23 61.37 95.63 58.73
  Q 96.72 51.41 95.66 44.34
  Q 95.10 40.58 94.04 36.63
  Q 93.79 35.67 93.27 34.90
  C 92.69 34.04 92.81 33.04 92.27 32.17
  C 91.39 30.77 90.87 28.95 89.69 27.85
  Q 88.95 27.16 88.87 26.27
  Q 88.82 25.61 88.26 25.27
  Q 87.28 24.68 86.76 23.43
  Z"
/>
<path fill="#a6810e" d="
  M 71.07 55.57
  L 68.76 53.31
  Q 69.25 53.12 69.08 52.26
  Q 68.88 51.27 69.41 50.71
  Q 69.64 50.46 69.59 50.12
  Q 69.57 49.97 69.43 49.89
  Q 68.94 49.56 69.32 49.11
  Q 69.90 48.41 69.20 47.64
  Q 69.09 47.53 69.17 47.39
  Q 69.26 47.25 69.38 47.14
  Q 69.71 46.86 69.55 46.47
  Q 68.55 43.85 68.88 40.62
  A 1.13 1.12 27.2 0 0 68.60 39.76
  Q 67.14 38.12 66.84 35.96
  Q 66.77 35.44 66.32 35.16
  Q 64.58 34.10 63.88 32.39
  Q 63.74 32.07 63.40 32.00
  C 62.62 31.85 62.25 31.32 62.01 30.64
  Q 61.53 29.34 60.01 29.07
  Q 59.50 28.99 59.17 28.58
  Q 57.69 26.76 55.23 27.11
  Q 54.48 27.21 53.97 26.71
  Q 53.68 26.41 53.27 26.35
  Q 49.00 25.64 45.99 26.04
  Q 42.42 26.52 38.60 28.74
  Q 36.61 29.89 35.13 31.49
  Q 33.73 32.99 32.31 34.36
  Q 31.94 34.71 31.92 35.22
  Q 31.90 35.71 31.60 36.10
  Q 29.84 38.37 29.12 41.40
  Q 27.53 48.14 30.24 55.34
  Q 31.32 58.19 33.57 60.01
  Q 34.16 60.49 34.55 61.18
  Q 35.22 62.37 35.64 62.62
  Q 37.69 63.84 39.54 65.33
  Q 40.57 66.16 41.72 66.47
  Q 42.95 66.80 44.10 67.15
  Q 45.60 67.59 47.74 67.55
  Q 50.57 67.49 53.62 67.70
  L 56.94 70.75
  Q 51.35 71.57 45.91 70.91
  A 1.90 1.82 -20.5 0 1 44.96 70.50
  Q 44.30 69.96 43.46 70.10
  A 1.90 1.88 -33.2 0 1 42.13 69.83
  Q 40.30 68.66 38.17 67.84
  Q 36.36 67.15 34.45 65.31
  Q 31.17 62.16 29.61 59.27
  Q 22.23 45.64 31.19 33.25
  Q 33.79 29.66 38.01 26.82
  C 39.12 26.07 40.40 25.81 41.58 25.22
  C 42.67 24.67 43.86 24.96 44.83 24.28
  Q 45.25 23.98 45.76 23.94
  Q 48.97 23.64 52.35 23.80
  Q 54.68 23.91 56.48 25.10
  Q 57.82 25.99 59.45 26.42
  Q 60.99 26.82 62.20 27.98
  Q 64.59 30.26 67.12 32.38
  Q 68.33 33.38 69.02 35.28
  Q 69.20 35.74 69.60 36.02
  Q 70.18 36.41 70.33 37.14
  Q 70.52 38.13 70.60 38.32
  Q 71.77 41.14 72.92 44.14
  Q 73.10 44.60 72.95 45.08
  Q 72.26 47.33 72.89 49.58
  Q 73.03 50.07 72.86 50.54
  L 71.07 55.57
  Z"
/>
<path fill="#b58c0f" d="
  M 68.76 53.31
  Q 66.81 51.52 63.92 50.84
  Q 63.63 49.47 64.40 48.27
  Q 64.66 47.85 64.58 47.36
  Q 64.35 45.91 64.55 44.60
  A 0.72 0.72 0.0 0 0 64.26 43.90
  Q 63.74 43.53 63.89 42.89
  A 0.79 0.79 0.0 0 0 63.52 42.02
  Q 63.11 41.78 63.25 41.32
  Q 63.40 40.81 63.25 40.30
  Q 62.52 37.95 61.53 36.16
  Q 60.91 35.05 59.88 34.25
  Q 59.48 33.94 58.98 33.87
  Q 58.23 33.78 58.04 33.03
  Q 57.91 32.52 57.50 32.19
  L 55.63 30.67
  Q 55.34 30.42 54.96 30.47
  C 52.89 30.72 51.36 29.50 49.36 29.58
  Q 46.05 29.72 42.57 30.17
  Q 42.12 30.22 41.86 30.59
  Q 41.42 31.19 40.59 31.22
  Q 40.04 31.24 39.62 31.59
  Q 38.28 32.71 37.04 33.80
  Q 30.30 39.77 31.70 48.75
  Q 32.48 53.76 35.56 56.75
  Q 36.67 57.81 37.85 58.87
  Q 38.87 59.80 40.04 60.18
  Q 42.76 61.09 45.32 61.61
  C 47.44 62.05 49.28 61.68 51.41 61.74
  Q 51.73 64.82 53.62 67.70
  Q 50.57 67.49 47.74 67.55
  Q 45.60 67.59 44.10 67.15
  Q 42.95 66.80 41.72 66.47
  Q 40.57 66.16 39.54 65.33
  Q 37.69 63.84 35.64 62.62
  Q 35.22 62.37 34.55 61.18
  Q 34.16 60.49 33.57 60.01
  Q 31.32 58.19 30.24 55.34
  Q 27.53 48.14 29.12 41.40
  Q 29.84 38.37 31.60 36.10
  Q 31.90 35.71 31.92 35.22
  Q 31.94 34.71 32.31 34.36
  Q 33.73 32.99 35.13 31.49
  Q 36.61 29.89 38.60 28.74
  Q 42.42 26.52 45.99 26.04
  Q 49.00 25.64 53.27 26.35
  Q 53.68 26.41 53.97 26.71
  Q 54.48 27.21 55.23 27.11
  Q 57.69 26.76 59.17 28.58
  Q 59.50 28.99 60.01 29.07
  Q 61.53 29.34 62.01 30.64
  C 62.25 31.32 62.62 31.85 63.40 32.00
  Q 63.74 32.07 63.88 32.39
  Q 64.58 34.10 66.32 35.16
  Q 66.77 35.44 66.84 35.96
  Q 67.14 38.12 68.60 39.76
  A 1.13 1.12 27.2 0 1 68.88 40.62
  Q 68.55 43.85 69.55 46.47
  Q 69.71 46.86 69.38 47.14
  Q 69.26 47.25 69.17 47.39
  Q 69.09 47.53 69.20 47.64
  Q 69.90 48.41 69.32 49.11
  Q 68.94 49.56 69.43 49.89
  Q 69.57 49.97 69.59 50.12
  Q 69.64 50.46 69.41 50.71
  Q 68.88 51.27 69.08 52.26
  Q 69.25 53.12 68.76 53.31
  Z"
/>
<path fill="#cda011" d="
  M 63.92 50.84
  Q 52.55 50.26 51.41 61.74
  C 49.28 61.68 47.44 62.05 45.32 61.61
  Q 42.76 61.09 40.04 60.18
  Q 38.87 59.80 37.85 58.87
  Q 36.67 57.81 35.56 56.75
  Q 32.48 53.76 31.70 48.75
  Q 30.30 39.77 37.04 33.80
  Q 38.28 32.71 39.62 31.59
  Q 40.04 31.24 40.59 31.22
  Q 41.42 31.19 41.86 30.59
  Q 42.12 30.22 42.57 30.17
  Q 46.05 29.72 49.36 29.58
  C 51.36 29.50 52.89 30.72 54.96 30.47
  Q 55.34 30.42 55.63 30.67
  L 57.50 32.19
  Q 57.91 32.52 58.04 33.03
  Q 58.23 33.78 58.98 33.87
  Q 59.48 33.94 59.88 34.25
  Q 60.91 35.05 61.53 36.16
  Q 62.52 37.95 63.25 40.30
  Q 63.40 40.81 63.25 41.32
  Q 63.11 41.78 63.52 42.02
  A 0.79 0.79 0.0 0 1 63.89 42.89
  Q 63.74 43.53 64.26 43.90
  A 0.72 0.72 0.0 0 1 64.55 44.60
  Q 64.35 45.91 64.58 47.36
  Q 64.66 47.85 64.40 48.27
  Q 63.63 49.47 63.92 50.84
  Z
  M 51.54 37.17
  Q 49.94 35.53 47.61 35.39
  Q 47.20 35.37 46.87 35.14
  C 46.25 34.72 45.32 34.76 44.73 35.21
  Q 44.33 35.52 43.81 35.40
  Q 43.23 35.28 42.73 35.62
  Q 41.99 36.13 41.13 36.37
  Q 40.40 36.57 39.81 37.10
  Q 37.25 39.42 36.59 42.26
  Q 35.60 46.47 37.78 49.81
  Q 39.86 53.01 43.62 54.01
  Q 48.68 55.35 52.87 51.01
  C 53.73 50.12 53.60 48.96 54.62 48.13
  Q 55.09 47.75 55.04 47.15
  Q 54.93 45.76 55.05 44.42
  Q 55.15 43.29 54.79 42.24
  Q 54.09 40.24 53.18 38.30
  Q 52.89 37.69 52.22 37.54
  Q 51.82 37.46 51.54 37.17
  Z"
/>
<path fill="#9e94ac" d="
  M 111.64 29.81
  Q 112.33 37.54 111.50 45.56
  C 110.30 43.49 109.59 41.31 108.20 39.50
  Q 106.94 37.87 108.68 36.22
  A 0.79 0.79 0.0 0 0 108.54 34.97
  L 108.02 34.67
  Q 107.25 34.22 107.88 33.58
  L 111.64 29.81
  Z"
/>
<path fill="#ecb614" d="
  M 52.22 37.54
  Q 52.89 37.69 53.18 38.30
  Q 54.09 40.24 54.79 42.24
  Q 55.15 43.29 55.05 44.42
  Q 54.93 45.76 55.04 47.15
  Q 55.09 47.75 54.62 48.13
  C 53.60 48.96 53.73 50.12 52.87 51.01
  Q 48.68 55.35 43.62 54.01
  Q 39.86 53.01 37.78 49.81
  Q 35.60 46.47 36.59 42.26
  Q 37.25 39.42 39.81 37.10
  Q 40.40 36.57 41.13 36.37
  Q 41.99 36.13 42.73 35.62
  Q 43.23 35.28 43.81 35.40
  Q 44.33 35.52 44.73 35.21
  C 45.32 34.76 46.25 34.72 46.87 35.14
  Q 47.20 35.37 47.61 35.39
  Q 49.94 35.53 51.54 37.17
  Q 51.82 37.46 52.22 37.54
  Z"
/>
<path fill="#71580a" d="
  M 23.94 36.72
  Q 24.07 38.31 23.24 39.20
  Q 22.91 39.56 22.91 40.05
  C 22.92 41.76 22.20 43.04 22.05 44.77
  Q 21.44 51.62 22.17 54.18
  Q 23.01 57.11 23.40 59.74
  Q 23.49 60.35 24.13 60.78
  Q 24.55 61.06 24.65 61.55
  Q 24.87 62.76 25.79 63.61
  C 26.83 64.57 27.35 66.04 28.07 67.24
  A 1.07 1.06 83.1 0 0 28.67 67.71
  Q 29.24 67.89 29.32 68.46
  A 0.82 0.82 0.0 0 0 29.63 69.01
  Q 30.97 70.09 31.91 71.40
  Q 32.79 72.64 34.46 73.33
  Q 36.11 74.01 37.62 75.12
  Q 39.03 76.17 40.57 76.52
  Q 41.02 76.63 41.37 76.92
  Q 42.65 77.98 44.30 78.31
  Q 44.60 78.37 44.68 78.66
  Q 44.75 78.87 44.97 78.90
  Q 49.96 79.51 56.28 79.12
  Q 57.94 79.01 59.10 78.21
  Q 60.72 77.09 65.24 76.63
  Q 70.27 80.03 76.02 81.47
  Q 74.97 83.24 71.25 84.89
  Q 69.79 85.55 68.81 85.71
  A 0.50 0.49 88.5 0 0 68.40 86.15
  Q 68.37 86.40 68.23 86.60
  Q 68.11 86.78 67.92 86.86
  L 65.06 88.04
  Q 64.57 88.24 64.06 88.13
  Q 62.84 87.86 61.93 88.59
  Q 61.53 88.92 61.02 88.88
  Q 58.96 88.75 56.70 89.27
  Q 54.78 89.71 52.87 89.52
  Q 46.59 88.91 40.00 87.13
  C 38.80 86.80 38.07 85.89 36.86 85.63
  Q 35.41 85.32 34.08 84.09
  Q 33.72 83.76 33.24 83.68
  Q 32.24 83.50 31.58 82.61
  Q 31.21 82.11 30.66 81.82
  Q 28.15 80.50 26.77 78.34
  Q 26.07 77.24 25.12 76.35
  Q 24.22 75.50 23.40 74.63
  C 22.55 73.73 22.42 72.32 21.42 71.35
  Q 21.07 71.00 21.03 70.51
  Q 20.86 68.23 19.55 67.11
  Q 15.75 51.41 23.94 36.72
  Z"
/>
<path fill="#010100" d="
  M 63.92 50.84
  Q 66.81 51.52 68.76 53.31
  L 71.07 55.57
  L 74.84 59.70
  L 79.59 64.91
  Q 83.18 68.20 83.34 73.30
  Q 83.26 79.18 76.02 81.47
  Q 70.27 80.03 65.24 76.63
  L 60.49 73.44
  Q 58.36 71.31 56.94 70.75
  L 53.62 67.70
  Q 51.73 64.82 51.41 61.74
  Q 52.55 50.26 63.92 50.84
  Z
  M 61.0995 65.1376
  A 4.79 4.60 91.8 0 0 65.8477 60.4945
  A 4.79 4.60 91.8 0 0 61.4005 55.5624
  A 4.79 4.60 91.8 0 0 56.6523 60.2055
  A 4.79 4.60 91.8 0 0 61.0995 65.1376
  Z"
/>
<ellipse fill="#ecb614" cx="0.00" cy="0.00" transform="translate(61.25,60.35) rotate(91.8)" rx="4.79" ry="4.60"/>
<path fill="#5b217d" d="
  M 13.06 64.51
  A 0.88 0.88 0.0 0 1 12.16 65.38
  L 10.83 65.35
  A 4.13 2.79 0.9 0 1 6.75 62.50
  L 6.75 62.28
  A 4.13 2.79 0.9 0 1 10.93 59.56
  L 12.26 59.58
  A 0.88 0.88 0.0 0 1 13.12 60.47
  L 13.06 64.51
  Z"
/>
<path fill="#9e94ac" d="
  M 128.00 65.36
  L 128.00 128.00
  L 69.73 128.00
  Q 71.65 127.17 73.05 125.52
  L 76.07 125.88
  Q 75.54 125.94 75.16 126.13
  Q 74.49 126.48 75.25 126.44
  L 82.80 126.09
  Q 104.70 125.07 126.36 126.63
  A 0.76 0.75 0.4 0 0 127.17 125.84
  L 126.73 118.05
  L 126.79 106.56
  Q 127.02 90.09 126.91 73.66
  Q 126.91 73.50 126.95 73.34
  Q 127.00 73.20 127.14 73.20
  Q 127.63 73.20 127.64 72.71
  L 127.68 66.20
  Q 127.75 65.42 128.00 65.36
  Z
  M 127.39 86.91
  Q 127.39 86.85 127.33 86.84
  Q 127.29 86.83 127.26 86.87
  Q 127.25 86.90 127.25 86.93
  Q 127.24 90.15 127.25 93.31
  Q 127.25 93.36 127.27 93.40
  Q 127.30 93.46 127.34 93.41
  Q 127.38 93.37 127.38 93.32
  Q 127.37 90.87 127.39 86.91
  Z"
/>
<path fill="#6e6478" d="
  M 127.68 66.20
  L 127.64 72.71
  Q 127.63 73.20 127.14 73.20
  Q 127.00 73.20 126.95 73.34
  Q 126.91 73.50 126.91 73.66
  Q 127.02 90.09 126.79 106.56
  Q 125.64 82.81 126.39 76.75
  Q 127.00 71.86 126.85 69.44
  Q 126.83 69.14 127.11 69.05
  Q 127.37 68.97 127.32 68.64
  Q 127.25 68.15 126.85 68.44
  Q 124.94 69.81 125.98 72.08
  A 2.07 2.00 -56.2 0 1 126.15 73.03
  Q 125.21 87.79 125.85 102.49
  Q 125.90 103.50 126.22 104.98
  Q 126.56 106.51 126.48 107.49
  Q 126.04 112.82 126.73 118.05
  L 127.17 125.84
  A 0.76 0.75 0.4 0 1 126.36 126.63
  Q 104.70 125.07 82.80 126.09
  L 76.07 125.88
  L 73.05 125.52
  Q 73.52 122.16 73.82 118.81
  C 74.02 116.67 74.86 115.77 76.18 114.24
  Q 75.89 115.12 76.50 115.12
  Q 93.06 115.12 109.63 115.13
  Q 110.80 115.13 111.70 114.71
  Q 112.74 114.23 113.79 113.78
  Q 114.24 113.58 114.46 113.13
  Q 116.21 109.50 115.83 105.58
  Q 115.62 103.46 115.62 101.43
  Q 115.62 86.96 115.68 72.50
  Q 115.68 72.09 114.78 72.23
  L 116.11 71.16
  Q 116.58 70.78 116.48 70.20
  Q 116.40 69.77 116.65 69.45
  Q 116.94 69.06 117.43 69.05
  C 121.05 68.97 125.42 70.10 127.68 66.20
  Z"
/>
<path fill="#9e94ac" d="
  M 0.00 67.62
  Q 1.22 69.88 2.60 71.15
  Q 1.77 76.37 1.98 79.70
  A 34.03 17.97 88.9 0 1 2.12 84.51
  Q 2.05 100.37 2.31 117.00
  Q 2.34 118.50 3.56 119.60
  Q 4.26 120.24 5.09 120.11
  Q 5.90 119.98 6.70 119.43
  Q 5.47 120.84 7.52 119.65
  Q 9.26 118.63 10.70 117.21
  Q 11.00 116.92 10.86 116.52
  Q 10.81 116.34 10.66 116.24
  Q 13.36 114.32 15.45 111.97
  Q 15.80 111.58 15.81 111.13
  Q 15.83 110.67 15.44 110.92
  Q 15.03 111.18 14.90 111.63
  Q 14.76 112.10 14.34 112.33
  Q 11.85 113.73 10.66 116.24
  L 9.00 117.74
  A 0.01 0.00 -26.6 0 1 8.99 117.74
  Q 9.02 117.63 8.94 117.50
  Q 10.19 116.46 10.58 115.33
  Q 13.72 112.57 14.88 110.88
  Q 16.28 108.83 15.28 106.53
  Q 13.82 103.18 16.37 100.03
  A 2.00 1.92 -21.2 0 0 16.79 99.13
  C 17.00 98.00 17.37 97.28 17.37 96.04
  Q 17.42 89.50 17.31 83.10
  L 21.17 90.41
  A 1.03 1.01 45.6 0 1 21.17 91.36
  L 19.92 93.71
  Q 19.57 94.35 19.96 94.97
  L 20.58 95.99
  Q 20.91 96.53 20.49 97.00
  Q 18.60 99.08 16.63 101.37
  C 13.27 105.27 17.94 108.80 21.29 111.70
  Q 20.16 112.71 19.00 113.37
  Q 17.62 114.18 16.82 115.06
  Q 16.18 115.77 15.52 116.50
  Q 14.79 117.32 13.98 117.92
  Q 10.85 120.25 8.68 123.49
  A 1.35 1.31 -74.8 0 0 9.84 125.59
  Q 10.06 125.57 11.12 125.68
  Q 12.88 126.55 14.75 126.44
  Q 37.03 125.12 57.71 126.19
  Q 59.61 127.09 61.52 127.00
  L 63.43 128.00
  L 0.00 128.00
  L 0.00 67.62
  Z"
/>
<path fill="#80768d" d="
  M 126.79 106.56
  L 126.73 118.05
  Q 126.04 112.82 126.48 107.49
  Q 126.56 106.51 126.22 104.98
  Q 125.90 103.50 125.85 102.49
  Q 125.21 87.79 126.15 73.03
  A 2.07 2.00 -56.2 0 0 125.98 72.08
  Q 124.94 69.81 126.85 68.44
  Q 127.25 68.15 127.32 68.64
  Q 127.37 68.97 127.11 69.05
  Q 126.83 69.14 126.85 69.44
  Q 127.00 71.86 126.39 76.75
  Q 125.64 82.81 126.79 106.56
  Z"
/>
<path fill="#d9cfe7" d="
  M 2.60 71.15
  L 10.79 71.62
  Q 11.25 71.65 11.40 72.09
  Q 11.49 72.37 11.48 72.69
  A 1.42 1.36 -65.2 0 0 11.79 73.60
  Q 12.57 74.54 14.07 74.21
  Q 13.52 76.88 14.38 78.34
  A 1.90 1.90 0.0 0 1 14.58 79.74
  Q 14.15 81.56 14.68 83.18
  Q 15.19 84.77 15.15 86.63
  Q 15.03 92.45 15.38 98.23
  Q 15.44 99.30 14.85 100.78
  Q 14.34 102.06 14.46 103.31
  Q 14.65 105.37 14.88 107.41
  Q 14.94 107.96 14.74 108.47
  L 13.93 110.56
  A 2.21 2.14 -12.6 0 1 13.41 111.35
  Q 11.61 113.06 10.58 115.33
  Q 10.19 116.46 8.94 117.50
  Q 7.61 118.22 6.70 119.43
  Q 5.90 119.98 5.09 120.11
  Q 4.26 120.24 3.56 119.60
  Q 2.34 118.50 2.31 117.00
  Q 2.05 100.37 2.12 84.51
  A 34.03 17.97 88.9 0 0 1.98 79.70
  Q 1.77 76.37 2.60 71.15
  Z"
/>
<path fill="#80768d" d="
  M 114.78 72.23
  Q 115.68 72.09 115.68 72.50
  Q 115.62 86.96 115.62 101.43
  Q 115.62 103.46 115.83 105.58
  Q 116.21 109.50 114.46 113.13
  Q 114.24 113.58 113.79 113.78
  Q 112.74 114.23 111.70 114.71
  Q 110.80 115.13 109.63 115.13
  Q 93.06 115.12 76.50 115.12
  Q 75.89 115.12 76.18 114.24
  Q 77.15 111.38 80.29 111.42
  Q 90.21 111.83 99.43 111.69
  Q 101.27 111.66 104.06 111.89
  Q 107.34 112.17 108.72 111.74
  Q 112.80 110.49 111.58 106.53
  C 113.53 104.40 115.70 102.11 113.44 99.54
  Q 111.98 97.89 111.56 97.08
  Q 112.85 89.77 111.69 82.42
  L 114.78 72.23
  Z"
/>
<path fill="#c7bdd5" d="
  M 14.07 74.21
  L 17.31 83.10
  Q 17.42 89.50 17.37 96.04
  C 17.37 97.28 17.00 98.00 16.79 99.13
  A 2.00 1.92 -21.2 0 1 16.37 100.03
  Q 13.82 103.18 15.28 106.53
  Q 16.28 108.83 14.88 110.88
  Q 13.72 112.57 10.58 115.33
  Q 11.61 113.06 13.41 111.35
  A 2.21 2.14 -12.6 0 0 13.93 110.56
  L 14.74 108.47
  Q 14.94 107.96 14.88 107.41
  Q 14.65 105.37 14.46 103.31
  Q 14.34 102.06 14.85 100.78
  Q 15.44 99.30 15.38 98.23
  Q 15.03 92.45 15.15 86.63
  Q 15.19 84.77 14.68 83.18
  Q 14.15 81.56 14.58 79.74
  A 1.90 1.90 0.0 0 0 14.38 78.34
  Q 13.52 76.88 14.07 74.21
  Z"
/>
<path fill="#9e94ac" d="
  M 111.69 82.42
  Q 112.85 89.77 111.56 97.08
  Q 109.84 95.95 109.07 95.19
  Q 107.82 93.96 109.25 92.64
  A 1.13 1.13 0.0 0 0 109.33 91.06
  L 108.33 89.94
  Q 107.89 89.44 108.21 88.85
  L 111.69 82.42
  Z"
/>
<path fill="#80768d" d="
  M 127.39 86.91
  Q 127.37 90.87 127.38 93.32
  Q 127.38 93.37 127.34 93.41
  Q 127.30 93.46 127.27 93.40
  Q 127.25 93.36 127.25 93.31
  Q 127.24 90.15 127.25 86.93
  Q 127.25 86.90 127.26 86.87
  Q 127.29 86.83 127.33 86.84
  Q 127.39 86.85 127.39 86.91
  Z"
/>
<path fill="#9e94ac" d="
  M 111.58 106.53
  Q 112.80 110.49 108.72 111.74
  Q 107.34 112.17 104.06 111.89
  Q 101.27 111.66 99.43 111.69
  Q 90.21 111.83 80.29 111.42
  L 93.92 104.27
  Q 94.51 103.96 95.00 104.42
  Q 96.30 105.62 97.79 104.46
  Q 98.56 103.86 99.24 104.56
  Q 101.17 106.58 103.30 108.60
  C 106.74 111.87 109.12 108.74 111.58 106.53
  Z"
/>
<path fill="#9e94ac" d="
  M 55.12 113.39
  Q 41.60 114.21 28.66 113.87
  Q 27.86 113.85 26.38 113.50
  Q 25.03 113.18 24.01 113.42
  Q 22.03 113.87 20.22 114.27
  A 1.61 1.58 16.0 0 0 19.43 114.70
  Q 18.74 115.39 18.25 116.22
  Q 17.68 117.20 16.79 118.06
  Q 15.90 118.92 14.98 119.72
  Q 14.54 120.11 12.90 121.01
  Q 10.60 122.27 10.30 125.17
  Q 10.30 125.18 10.30 125.18
  Q 10.30 125.18 10.31 125.19
  Q 10.38 125.22 10.37 125.14
  Q 10.23 122.90 11.50 121.61
  Q 12.93 120.17 15.06 119.05
  Q 16.15 118.48 16.86 117.56
  Q 17.62 116.58 18.29 115.57
  Q 19.07 114.37 19.79 113.96
  Q 20.78 113.38 21.97 113.26
  Q 22.61 113.20 22.20 112.29
  Q 24.65 112.77 26.40 110.89
  Q 28.50 108.63 30.29 106.44
  Q 30.65 106.00 31.21 106.05
  Q 31.75 106.09 32.17 106.43
  Q 33.52 107.50 34.63 106.19
  Q 35.72 104.92 37.00 105.92
  Q 37.29 106.15 37.62 106.32
  Q 45.48 110.55 55.12 113.39
  Z"
/>
<path fill="#c7bdd5" d="
  M 10.66 116.24
  Q 11.85 113.73 14.34 112.33
  Q 14.76 112.10 14.90 111.63
  Q 15.03 111.18 15.44 110.92
  Q 15.83 110.67 15.81 111.13
  Q 15.80 111.58 15.45 111.97
  Q 13.36 114.32 10.66 116.24
  Z"
/>
<path fill="#80768d" d="
  M 21.29 111.70
  L 22.20 112.29
  Q 22.61 113.20 21.97 113.26
  Q 20.78 113.38 19.79 113.96
  Q 19.07 114.37 18.29 115.57
  Q 17.62 116.58 16.86 117.56
  Q 16.15 118.48 15.06 119.05
  Q 12.93 120.17 11.50 121.61
  Q 10.23 122.90 10.37 125.14
  Q 10.38 125.22 10.31 125.19
  Q 10.30 125.18 10.30 125.18
  Q 10.30 125.18 10.30 125.17
  Q 10.60 122.27 12.90 121.01
  Q 14.54 120.11 14.98 119.72
  Q 15.90 118.92 16.79 118.06
  Q 17.68 117.20 18.25 116.22
  Q 18.74 115.39 19.43 114.70
  A 1.61 1.58 16.0 0 1 20.22 114.27
  Q 22.03 113.87 24.01 113.42
  Q 25.03 113.18 26.38 113.50
  Q 27.86 113.85 28.66 113.87
  Q 41.60 114.21 55.12 113.39
  Q 55.38 111.95 56.93 114.37
  Q 55.88 115.59 53.99 115.59
  Q 41.79 115.63 30.56 115.63
  Q 27.93 115.63 25.42 115.13
  Q 22.73 114.60 20.09 115.26
  Q 19.63 115.37 19.48 115.83
  Q 18.27 119.46 12.76 121.74
  Q 10.47 122.68 11.12 125.68
  Q 10.06 125.57 9.84 125.59
  A 1.35 1.31 -74.8 0 1 8.68 123.49
  Q 10.85 120.25 13.98 117.92
  Q 14.79 117.32 15.52 116.50
  Q 16.18 115.77 16.82 115.06
  Q 17.62 114.18 19.00 113.37
  Q 20.16 112.71 21.29 111.70
  Z"
/>
<path fill="#6e6478" d="
  M 56.93 114.37
  L 59.03 117.16
  Q 59.32 117.55 59.38 118.04
  C 59.64 120.25 59.29 124.38 60.55 126.07
  L 57.71 126.19
  Q 37.03 125.12 14.75 126.44
  Q 12.88 126.55 11.12 125.68
  Q 10.47 122.68 12.76 121.74
  Q 18.27 119.46 19.48 115.83
  Q 19.63 115.37 20.09 115.26
  Q 22.73 114.60 25.42 115.13
  Q 27.93 115.63 30.56 115.63
  Q 41.79 115.63 53.99 115.59
  Q 55.88 115.59 56.93 114.37
  Z"
/>
<path fill="#c7bdd5" d="
  M 10.66 116.24
  Q 10.81 116.34 10.86 116.52
  Q 11.00 116.92 10.70 117.21
  Q 9.26 118.63 7.52 119.65
  Q 5.47 120.84 6.70 119.43
  Q 7.61 118.22 8.94 117.50
  Q 9.02 117.63 8.99 117.74
  A 0.01 0.00 -26.6 0 0 9.00 117.74
  L 10.66 116.24
  Z"
/>
<path fill="#80768d" d="
  M 60.55 126.07
  Q 61.05 126.27 61.52 127.00
  Q 59.61 127.09 57.71 126.19
  L 60.55 126.07
  Z"
/>
<path fill="#80768d" d="
  M 76.07 125.88
  L 82.80 126.09
  L 75.25 126.44
  Q 74.49 126.48 75.16 126.13
  Q 75.54 125.94 76.07 125.88
  Z"
/>
</svg>
