<?xml version="1.0" encoding="UTF-8" standalone="no"?>
<!DOCTYPE svg PUBLIC "-//W3C//DTD SVG 1.1//EN" "http://www.w3.org/Graphics/SVG/1.1/DTD/svg11.dtd">
<svg xmlns="http://www.w3.org/2000/svg" version="1.1" viewBox="0.00 0.00 128.00 128.00">
<g stroke-width="2.00" fill="none" stroke-linecap="butt">
<path stroke="#a8cae6" vector-effect="non-scaling-stroke" d="
  M 4.58 122.07
  Q 4.67 123.74 4.45 125.98
  Q 4.41 126.49 4.62 126.92
  Q 4.93 127.57 5.70 127.36
  A 1.21 1.18 4.1 0 0 6.47 126.71
  Q 7.54 124.33 8.61 121.99
  Q 9.49 120.08 14.19 116.84
  A 2.12 2.02 -89.0 0 0 14.76 116.26
  Q 15.20 115.61 15.86 115.33
  Q 16.32 115.13 16.66 114.76
  Q 18.89 112.39 21.57 112.18
  Q 24.20 111.97 27.24 112.61
  Q 29.89 113.17 32.85 113.07
  Q 39.79 112.84 46.57 113.82"
/>
<path stroke="#89bfd8" vector-effect="non-scaling-stroke" d="
  M 46.57 113.82
  Q 35.12 113.81 23.75 113.13
  C 22.09 113.03 20.45 113.48 19.44 114.89
  Q 16.69 118.73 11.06 121.64
  A 2.05 2.05 0.0 0 0 10.57 124.93
  Q 12.14 126.47 14.48 126.31
  Q 28.55 125.37 43.18 125.44
  Q 74.83 125.57 107.31 125.71
  Q 117.57 125.76 125.82 126.44
  A 0.97 0.96 -89.5 0 0 126.86 125.41
  C 126.21 116.09 126.61 106.49 126.49 97.53
  C 126.14 73.09 125.79 49.26 126.03 25.50
  C 126.08 20.85 126.88 16.58 126.34 11.92
  Q 126.13 10.03 124.71 9.27
  Q 124.19 8.99 123.67 9.28
  L 121.68 10.42
  Q 121.32 10.62 121.11 10.98
  C 120.04 12.83 119.44 15.08 117.80 16.55
  C 116.34 17.87 113.74 19.40 113.83 21.57
  Q 114.03 26.39 113.69 30.67
  Q 113.52 32.77 113.72 34.82
  Q 113.94 37.19 113.97 39.21
  Q 114.09 48.42 114.22 58.22
  A 3.64 3.39 52.4 0 1 114.16 58.87
  Q 114.04 59.42 114.07 60.00
  Q 114.50 69.17 113.84 80.80"
/>
<path stroke="#a8cae6" vector-effect="non-scaling-stroke" d="
  M 113.84 80.80
  Q 113.76 64.37 113.84 47.96
  Q 113.87 42.52 113.49 35.56
  Q 113.15 29.36 113.02 23.14
  Q 113.00 22.01 113.36 20.91
  Q 113.72 19.82 114.08 18.73
  C 114.44 17.63 115.19 17.06 115.30 15.90
  Q 115.35 15.38 115.69 15.00
  Q 116.57 14.00 117.49 12.99
  Q 118.16 12.24 118.99 10.82
  Q 119.63 9.71 120.48 8.76
  Q 121.56 7.56 121.93 6.75
  Q 122.76 4.90 122.73 3.53"
/>
<path stroke="#c0d3f1" vector-effect="non-scaling-stroke" d="
  M 122.73 3.53
  Q 119.47 1.45 115.75 1.44
  Q 65.17 1.40 14.59 1.48
  C 10.48 1.49 5.89 -0.02 1.92 1.16
  A 1.06 1.05 -1.1 0 0 1.20 1.90
  Q 0.83 3.24 1.08 4.66
  C 1.94 9.55 2.34 14.03 2.33 19.14
  Q 2.27 65.82 2.19 114.25
  Q 2.18 118.50 4.58 122.07"
/>
<path stroke="#c7d6f4" vector-effect="non-scaling-stroke" d="
  M 122.73 3.53
  Q 121.06 7.49 117.96 9.71
  Q 115.94 11.16 115.90 11.19
  Q 112.95 13.54 110.19 15.73
  A 4.02 3.97 -63.6 0 1 107.65 16.60
  Q 69.17 16.32 31.16 16.53
  Q 25.32 16.57 19.32 16.26
  A 2.04 2.04 0.0 0 0 17.22 17.85
  Q 16.81 19.66 16.91 21.51
  C 17.37 30.26 17.12 38.77 17.09 47.37
  Q 17.05 66.49 17.02 86.75
  Q 17.00 96.52 17.34 107.26
  Q 17.36 107.98 17.25 108.67
  Q 17.18 109.16 16.82 109.51
  Q 12.83 113.41 9.73 117.88
  Q 8.70 119.37 7.41 120.25
  Q 5.99 121.22 4.58 122.07"
/>
<path stroke="#90c1db" vector-effect="non-scaling-stroke" d="
  M 113.84 80.80
  L 113.99 110.26
  A 3.13 3.13 0.0 0 1 110.88 113.41
  L 46.57 113.82"
/>
</g>
<path fill="#a1c7e3" d="
  M 0.00 0.00
  L 128.00 0.00
  L 128.00 128.00
  L 0.00 128.00
  L 0.00 0.00
  Z
  M 4.58 122.07
  Q 4.67 123.74 4.45 125.98
  Q 4.41 126.49 4.62 126.92
  Q 4.93 127.57 5.70 127.36
  A 1.21 1.18 4.1 0 0 6.47 126.71
  Q 7.54 124.33 8.61 121.99
  Q 9.49 120.08 14.19 116.84
  A 2.12 2.02 -89.0 0 0 14.76 116.26
  Q 15.20 115.61 15.86 115.33
  Q 16.32 115.13 16.66 114.76
  Q 18.89 112.39 21.57 112.18
  Q 24.20 111.97 27.24 112.61
  Q 29.89 113.17 32.85 113.07
  Q 39.79 112.84 46.57 113.82
  Q 35.12 113.81 23.75 113.13
  C 22.09 113.03 20.45 113.48 19.44 114.89
  Q 16.69 118.73 11.06 121.64
  A 2.05 2.05 0.0 0 0 10.57 124.93
  Q 12.14 126.47 14.48 126.31
  Q 28.55 125.37 43.18 125.44
  Q 74.83 125.57 107.31 125.71
  Q 117.57 125.76 125.82 126.44
  A 0.97 0.96 -89.5 0 0 126.86 125.41
  C 126.21 116.09 126.61 106.49 126.49 97.53
  C 126.14 73.09 125.79 49.26 126.03 25.50
  C 126.08 20.85 126.88 16.58 126.34 11.92
  Q 126.13 10.03 124.71 9.27
  Q 124.19 8.99 123.67 9.28
  L 121.68 10.42
  Q 121.32 10.62 121.11 10.98
  C 120.04 12.83 119.44 15.08 117.80 16.55
  C 116.34 17.87 113.74 19.40 113.83 21.57
  Q 114.03 26.39 113.69 30.67
  Q 113.52 32.77 113.72 34.82
  Q 113.94 37.19 113.97 39.21
  Q 114.09 48.42 114.22 58.22
  A 3.64 3.39 52.4 0 1 114.16 58.87
  Q 114.04 59.42 114.07 60.00
  Q 114.50 69.17 113.84 80.80
  Q 113.76 64.37 113.84 47.96
  Q 113.87 42.52 113.49 35.56
  Q 113.15 29.36 113.02 23.14
  Q 113.00 22.01 113.36 20.91
  Q 113.72 19.82 114.08 18.73
  C 114.44 17.63 115.19 17.06 115.30 15.90
  Q 115.35 15.38 115.69 15.00
  Q 116.57 14.00 117.49 12.99
  Q 118.16 12.24 118.99 10.82
  Q 119.63 9.71 120.48 8.76
  Q 121.56 7.56 121.93 6.75
  Q 122.76 4.90 122.73 3.53
  Q 119.47 1.45 115.75 1.44
  Q 65.17 1.40 14.59 1.48
  C 10.48 1.49 5.89 -0.02 1.92 1.16
  A 1.06 1.05 -1.1 0 0 1.20 1.90
  Q 0.83 3.24 1.08 4.66
  C 1.94 9.55 2.34 14.03 2.33 19.14
  Q 2.27 65.82 2.19 114.25
  Q 2.18 118.50 4.58 122.07
  Z"
/>
<path fill="#dfdfff" d="
  M 122.73 3.53
  Q 121.06 7.49 117.96 9.71
  Q 115.94 11.16 115.90 11.19
  Q 112.95 13.54 110.19 15.73
  A 4.02 3.97 -63.6 0 1 107.65 16.60
  Q 69.17 16.32 31.16 16.53
  Q 25.32 16.57 19.32 16.26
  A 2.04 2.04 0.0 0 0 17.22 17.85
  Q 16.81 19.66 16.91 21.51
  C 17.37 30.26 17.12 38.77 17.09 47.37
  Q 17.05 66.49 17.02 86.75
  Q 17.00 96.52 17.34 107.26
  Q 17.36 107.98 17.25 108.67
  Q 17.18 109.16 16.82 109.51
  Q 12.83 113.41 9.73 117.88
  Q 8.70 119.37 7.41 120.25
  Q 5.99 121.22 4.58 122.07
  Q 2.18 118.50 2.19 114.25
  Q 2.27 65.82 2.33 19.14
  C 2.34 14.03 1.94 9.55 1.08 4.66
  Q 0.83 3.24 1.20 1.90
  A 1.06 1.05 -1.1 0 1 1.92 1.16
  C 5.89 -0.02 10.48 1.49 14.59 1.48
  Q 65.17 1.40 115.75 1.44
  Q 119.47 1.45 122.73 3.53
  Z"
/>
<path fill="#aecce8" d="
  M 122.73 3.53
  Q 122.76 4.90 121.93 6.75
  Q 121.56 7.56 120.48 8.76
  Q 119.63 9.71 118.99 10.82
  Q 118.16 12.24 117.49 12.99
  Q 116.57 14.00 115.69 15.00
  Q 115.35 15.38 115.30 15.90
  C 115.19 17.06 114.44 17.63 114.08 18.73
  Q 113.72 19.82 113.36 20.91
  Q 113.00 22.01 113.02 23.14
  Q 113.15 29.36 113.49 35.56
  Q 113.87 42.52 113.84 47.96
  Q 113.76 64.37 113.84 80.80
  L 113.99 110.26
  A 3.13 3.13 0.0 0 1 110.88 113.41
  L 46.57 113.82
  Q 39.79 112.84 32.85 113.07
  Q 29.89 113.17 27.24 112.61
  Q 24.20 111.97 21.57 112.18
  Q 18.89 112.39 16.66 114.76
  Q 16.32 115.13 15.86 115.33
  Q 15.20 115.61 14.76 116.26
  A 2.12 2.02 -89.0 0 1 14.19 116.84
  Q 9.49 120.08 8.61 121.99
  Q 7.54 124.33 6.47 126.71
  A 1.21 1.18 4.1 0 1 5.70 127.36
  Q 4.93 127.57 4.62 126.92
  Q 4.41 126.49 4.45 125.98
  Q 4.67 123.74 4.58 122.07
  Q 5.99 121.22 7.41 120.25
  Q 8.70 119.37 9.73 117.88
  Q 12.83 113.41 16.82 109.51
  Q 17.18 109.16 17.25 108.67
  Q 17.36 107.98 17.34 107.26
  Q 17.00 96.52 17.02 86.75
  Q 17.05 66.49 17.09 47.37
  C 17.12 38.77 17.37 30.26 16.91 21.51
  Q 16.81 19.66 17.22 17.85
  A 2.04 2.04 0.0 0 1 19.32 16.26
  Q 25.32 16.57 31.16 16.53
  Q 69.17 16.32 107.65 16.60
  A 4.02 3.97 -63.6 0 0 110.19 15.73
  Q 112.95 13.54 115.90 11.19
  Q 115.94 11.16 117.96 9.71
  Q 121.06 7.49 122.73 3.53
  Z"
/>
<path fill="#71b6cd" d="
  M 46.57 113.82
  L 110.88 113.41
  A 3.13 3.13 0.0 0 0 113.99 110.26
  L 113.84 80.80
  Q 114.50 69.17 114.07 60.00
  Q 114.04 59.42 114.16 58.87
  A 3.64 3.39 52.4 0 0 114.22 58.22
  Q 114.09 48.42 113.97 39.21
  Q 113.94 37.19 113.72 34.82
  Q 113.52 32.77 113.69 30.67
  Q 114.03 26.39 113.83 21.57
  C 113.74 19.40 116.34 17.87 117.80 16.55
  C 119.44 15.08 120.04 12.83 121.11 10.98
  Q 121.32 10.62 121.68 10.42
  L 123.67 9.28
  Q 124.19 8.99 124.71 9.27
  Q 126.13 10.03 126.34 11.92
  C 126.88 16.58 126.08 20.85 126.03 25.50
  C 125.79 49.26 126.14 73.09 126.49 97.53
  C 126.61 106.49 126.21 116.09 126.86 125.41
  A 0.97 0.96 -89.5 0 1 125.82 126.44
  Q 117.57 125.76 107.31 125.71
  Q 74.83 125.57 43.18 125.44
  Q 28.55 125.37 14.48 126.31
  Q 12.14 126.47 10.57 124.93
  A 2.05 2.05 0.0 0 1 11.06 121.64
  Q 16.69 118.73 19.44 114.89
  C 20.45 113.48 22.09 113.03 23.75 113.13
  Q 35.12 113.81 46.57 113.82
  Z"
/>
</svg>
