<?xml version="1.0" encoding="UTF-8" standalone="no"?>
<!DOCTYPE svg PUBLIC "-//W3C//DTD SVG 1.1//EN" "http://www.w3.org/Graphics/SVG/1.1/DTD/svg11.dtd">
<svg xmlns="http://www.w3.org/2000/svg" version="1.1" viewBox="0.00 0.00 128.00 128.00">
<g stroke-width="2.00" fill="none" stroke-linecap="butt">
<path stroke="#bce5e6" vector-effect="non-scaling-stroke" d="
  M 3.52 120.26
  Q 4.36 123.34 3.84 126.41
  A 0.94 0.93 -76.1 0 0 4.47 127.46
  Q 5.75 127.88 7.26 127.12
  Q 7.86 126.82 7.57 126.22
  Q 6.90 124.84 7.11 123.21
  A 1.80 1.72 68.2 0 1 7.45 122.37
  Q 8.95 120.32 10.73 119.05
  Q 13.62 116.98 16.01 114.26
  C 17.20 112.91 18.58 111.74 20.50 111.67
  Q 22.88 111.57 26.63 111.85
  Q 33.70 112.37 43.23 111.64
  Q 43.73 111.60 44.16 111.87
  Q 47.07 113.65 50.35 113.40
  Q 53.60 113.15 53.67 113.15
  Q 64.57 113.16 75.46 113.42"
/>
<path stroke="#97d8d8" vector-effect="non-scaling-stroke" d="
  M 75.46 113.42
  Q 67.85 113.54 60.25 113.58
  Q 57.42 113.60 54.85 113.91
  C 51.09 114.37 48.27 114.35 44.83 112.94
  Q 43.13 112.25 41.00 112.26
  Q 31.39 112.29 21.77 112.38
  Q 21.38 112.39 21.27 112.76
  Q 21.21 112.97 21.03 113.12
  Q 18.72 115.08 17.00 117.43
  C 16.24 118.47 15.24 119.09 14.07 119.61
  Q 13.72 119.76 14.10 119.80
  L 14.76 119.87
  Q 14.90 119.88 14.77 119.84
  Q 14.19 119.67 14.12 120.22
  Q 14.04 120.82 13.48 121.06
  Q 10.96 122.14 10.79 124.83
  A 0.74 0.74 0.0 0 0 11.20 125.54
  Q 12.96 126.46 14.87 126.33
  Q 33.13 125.08 50.55 125.25
  Q 80.47 125.55 111.40 125.75
  Q 118.53 125.79 125.91 126.37
  A 0.91 0.91 0.0 0 0 126.89 125.44
  C 126.82 123.42 126.55 121.41 126.55 119.38
  Q 126.40 78.72 126.14 40.18
  Q 126.05 27.15 126.71 13.26
  Q 126.80 11.20 125.44 9.68
  Q 125.10 9.30 124.58 9.34
  Q 121.85 9.59 120.59 11.98
  Q 120.20 12.71 120.20 11.89
  Q 120.20 11.31 120.60 10.93
  Q 120.67 10.87 120.58 10.87
  Q 120.55 10.87 120.51 10.87
  Q 120.37 10.88 120.32 11.02
  Q 119.99 11.84 119.33 12.41
  Q 118.96 12.73 118.86 13.21
  Q 118.08 16.79 114.04 19.01"
/>
<path stroke="#bce5e6" vector-effect="non-scaling-stroke" d="
  M 114.04 19.01
  Q 115.57 17.01 116.49 15.27
  Q 117.55 13.28 118.68 11.51
  Q 120.73 8.34 123.12 4.94
  A 1.39 1.29 35.4 0 0 122.74 3.09
  Q 122.49 2.91 121.35 2.72"
/>
<path stroke="#daf1f1" vector-effect="non-scaling-stroke" d="
  M 121.35 2.72
  Q 118.97 1.39 116.00 1.38
  Q 66.09 1.30 15.81 1.42
  C 11.24 1.43 6.93 0.53 2.59 0.90
  A 1.83 1.83 0.0 0 0 0.94 3.04
  Q 2.08 9.77 2.11 16.50
  Q 2.33 64.36 2.06 114.50
  Q 2.04 117.58 3.52 120.26"
/>
<path stroke="#e1f4f4" vector-effect="non-scaling-stroke" d="
  M 121.35 2.72
  Q 122.06 4.78 121.11 5.86
  Q 119.69 7.46 118.19 9.18
  Q 116.75 10.82 115.08 12.06
  C 112.86 13.72 110.22 17.06 107.24 16.84
  Q 98.97 16.22 89.86 16.51
  Q 84.00 16.70 77.34 16.23
  C 70.30 15.73 63.07 15.87 55.94 15.87
  C 54.96 15.87 54.17 16.31 53.21 16.32
  Q 45.66 16.43 38.48 16.80
  Q 29.11 17.29 20.24 16.22
  Q 19.01 16.07 17.94 16.55
  Q 17.49 16.76 17.32 17.22
  Q 16.79 18.73 16.84 20.25
  Q 16.95 23.57 16.98 26.77
  Q 17.30 60.85 16.96 94.90
  Q 16.91 99.86 17.24 105.14
  Q 17.40 107.65 16.39 109.22
  Q 15.19 111.10 13.24 112.32
  Q 12.82 112.57 12.58 113.00
  Q 12.18 113.73 11.56 114.28
  Q 10.91 114.84 10.51 115.62
  Q 8.94 118.71 6.11 120.91
  Q 5.36 121.49 4.76 121.38
  Q 3.96 121.24 3.52 120.26"
/>
<path stroke="#9edbdb" vector-effect="non-scaling-stroke" d="
  M 114.04 19.01
  Q 112.53 26.68 113.11 36.00
  Q 113.19 37.28 113.53 39.34
  Q 113.82 41.13 113.85 42.68
  Q 114.30 71.97 113.64 101.47
  C 113.57 104.51 114.07 107.48 114.12 110.60
  A 2.90 2.90 0.0 0 1 111.19 113.54
  Q 97.04 113.42 82.75 113.81
  Q 80.27 113.88 75.46 113.42"
/>
<path stroke="#62a8c0" vector-effect="non-scaling-stroke" d="
  M 39.02 68.11
  L 39.00 105.45
  Q 39.00 107.15 40.70 107.16
  L 45.22 107.21
  Q 46.90 107.22 46.90 105.54
  L 46.97 68.30"
/>
<path stroke="#627c87" vector-effect="non-scaling-stroke" d="
  M 46.97 68.30
  L 54.38 67.92
  Q 54.98 67.89 54.98 67.28
  L 55.00 63.76
  Q 55.01 63.02 55.74 63.01
  L 62.10 62.97
  Q 62.92 62.97 62.95 62.15
  L 63.02 59.76
  Q 63.05 59.07 63.74 59.06
  L 71.09 58.94
  A 0.81 0.80 1.5 0 0 71.89 58.19
  L 72.05 55.96
  A 1.01 1.00 -88.1 0 1 73.04 55.03
  L 79.89 54.95
  A 1.11 1.10 -89.7 0 0 80.98 53.86
  L 81.01 51.76
  A 0.74 0.74 0.0 0 1 81.74 51.03
  L 88.01 50.97
  A 0.88 0.88 0.0 0 0 88.74 50.55
  Q 89.24 49.75 88.99 48.66
  Q 88.63 47.07 90.26 47.05
  L 96.92 46.96
  A 1.11 1.11 0.0 0 0 98.02 45.83
  L 97.99 44.24
  Q 97.97 43.02 96.74 43.01
  L 89.70 42.99
  Q 89.09 42.98 89.05 42.37
  L 88.92 39.70
  A 0.73 0.72 88.3 0 0 88.20 39.01
  L 81.76 38.99
  A 0.75 0.75 0.0 0 1 81.01 38.26
  L 80.94 35.72
  A 0.72 0.72 0.0 0 0 80.22 35.02
  L 72.75 34.99
  Q 72.01 34.99 72.00 34.25
  L 71.96 30.75
  Q 71.96 30.03 71.25 30.03
  L 63.87 29.96
  A 0.88 0.88 0.0 0 1 63.00 29.12
  L 62.88 26.81
  A 0.82 0.82 0.0 0 0 62.07 26.03
  L 56.02 25.97
  Q 55.52 25.97 55.25 25.55
  Q 54.73 24.74 54.94 23.62
  Q 55.22 22.15 53.73 22.13
  L 40.18 21.87
  A 1.14 1.13 -89.5 0 0 39.03 23.01
  L 39.02 68.11"
/>
<path stroke="#003c5e" vector-effect="non-scaling-stroke" d="
  M 46.97 68.30
  L 39.02 68.11"
/>
</g>
<path fill="#b4e2e3" d="
  M 0.00 0.00
  L 128.00 0.00
  L 128.00 128.00
  L 0.00 128.00
  L 0.00 0.00
  Z
  M 3.52 120.26
  Q 4.36 123.34 3.84 126.41
  A 0.94 0.93 -76.1 0 0 4.47 127.46
  Q 5.75 127.88 7.26 127.12
  Q 7.86 126.82 7.57 126.22
  Q 6.90 124.84 7.11 123.21
  A 1.80 1.72 68.2 0 1 7.45 122.37
  Q 8.95 120.32 10.73 119.05
  Q 13.62 116.98 16.01 114.26
  C 17.20 112.91 18.58 111.74 20.50 111.67
  Q 22.88 111.57 26.63 111.85
  Q 33.70 112.37 43.23 111.64
  Q 43.73 111.60 44.16 111.87
  Q 47.07 113.65 50.35 113.40
  Q 53.60 113.15 53.67 113.15
  Q 64.57 113.16 75.46 113.42
  Q 67.85 113.54 60.25 113.58
  Q 57.42 113.60 54.85 113.91
  C 51.09 114.37 48.27 114.35 44.83 112.94
  Q 43.13 112.25 41.00 112.26
  Q 31.39 112.29 21.77 112.38
  Q 21.38 112.39 21.27 112.76
  Q 21.21 112.97 21.03 113.12
  Q 18.72 115.08 17.00 117.43
  C 16.24 118.47 15.24 119.09 14.07 119.61
  Q 13.72 119.76 14.10 119.80
  L 14.76 119.87
  Q 14.90 119.88 14.77 119.84
  Q 14.19 119.67 14.12 120.22
  Q 14.04 120.82 13.48 121.06
  Q 10.96 122.14 10.79 124.83
  A 0.74 0.74 0.0 0 0 11.20 125.54
  Q 12.96 126.46 14.87 126.33
  Q 33.13 125.08 50.55 125.25
  Q 80.47 125.55 111.40 125.75
  Q 118.53 125.79 125.91 126.37
  A 0.91 0.91 0.0 0 0 126.89 125.44
  C 126.82 123.42 126.55 121.41 126.55 119.38
  Q 126.40 78.72 126.14 40.18
  Q 126.05 27.15 126.71 13.26
  Q 126.80 11.20 125.44 9.68
  Q 125.10 9.30 124.58 9.34
  Q 121.85 9.59 120.59 11.98
  Q 120.20 12.71 120.20 11.89
  Q 120.20 11.31 120.60 10.93
  Q 120.67 10.87 120.58 10.87
  Q 120.55 10.87 120.51 10.87
  Q 120.37 10.88 120.32 11.02
  Q 119.99 11.84 119.33 12.41
  Q 118.96 12.73 118.86 13.21
  Q 118.08 16.79 114.04 19.01
  Q 115.57 17.01 116.49 15.27
  Q 117.55 13.28 118.68 11.51
  Q 120.73 8.34 123.12 4.94
  A 1.39 1.29 35.4 0 0 122.74 3.09
  Q 122.49 2.91 121.35 2.72
  Q 118.97 1.39 116.00 1.38
  Q 66.09 1.30 15.81 1.42
  C 11.24 1.43 6.93 0.53 2.59 0.90
  A 1.83 1.83 0.0 0 0 0.94 3.04
  Q 2.08 9.77 2.11 16.50
  Q 2.33 64.36 2.06 114.50
  Q 2.04 117.58 3.52 120.26
  Z"
/>
<path fill="#ffffff" d="
  M 121.35 2.72
  Q 122.06 4.78 121.11 5.86
  Q 119.69 7.46 118.19 9.18
  Q 116.75 10.82 115.08 12.06
  C 112.86 13.72 110.22 17.06 107.24 16.84
  Q 98.97 16.22 89.86 16.51
  Q 84.00 16.70 77.34 16.23
  C 70.30 15.73 63.07 15.87 55.94 15.87
  C 54.96 15.87 54.17 16.31 53.21 16.32
  Q 45.66 16.43 38.48 16.80
  Q 29.11 17.29 20.24 16.22
  Q 19.01 16.07 17.94 16.55
  Q 17.49 16.76 17.32 17.22
  Q 16.79 18.73 16.84 20.25
  Q 16.95 23.57 16.98 26.77
  Q 17.30 60.85 16.96 94.90
  Q 16.91 99.86 17.24 105.14
  Q 17.40 107.65 16.39 109.22
  Q 15.19 111.10 13.24 112.32
  Q 12.82 112.57 12.58 113.00
  Q 12.18 113.73 11.56 114.28
  Q 10.91 114.84 10.51 115.62
  Q 8.94 118.71 6.11 120.91
  Q 5.36 121.49 4.76 121.38
  Q 3.96 121.24 3.52 120.26
  Q 2.04 117.58 2.06 114.50
  Q 2.33 64.36 2.11 16.50
  Q 2.08 9.77 0.94 3.04
  A 1.83 1.83 0.0 0 1 2.59 0.90
  C 6.93 0.53 11.24 1.43 15.81 1.42
  Q 66.09 1.30 116.00 1.38
  Q 118.97 1.39 121.35 2.72
  Z"
/>
<path fill="#c3e8e8" d="
  M 121.35 2.72
  Q 122.49 2.91 122.74 3.09
  A 1.39 1.29 35.4 0 1 123.12 4.94
  Q 120.73 8.34 118.68 11.51
  Q 117.55 13.28 116.49 15.27
  Q 115.57 17.01 114.04 19.01
  Q 112.53 26.68 113.11 36.00
  Q 113.19 37.28 113.53 39.34
  Q 113.82 41.13 113.85 42.68
  Q 114.30 71.97 113.64 101.47
  C 113.57 104.51 114.07 107.48 114.12 110.60
  A 2.90 2.90 0.0 0 1 111.19 113.54
  Q 97.04 113.42 82.75 113.81
  Q 80.27 113.88 75.46 113.42
  Q 64.57 113.16 53.67 113.15
  Q 53.60 113.15 50.35 113.40
  Q 47.07 113.65 44.16 111.87
  Q 43.73 111.60 43.23 111.64
  Q 33.70 112.37 26.63 111.85
  Q 22.88 111.57 20.50 111.67
  C 18.58 111.74 17.20 112.91 16.01 114.26
  Q 13.62 116.98 10.73 119.05
  Q 8.95 120.32 7.45 122.37
  A 1.80 1.72 68.2 0 0 7.11 123.21
  Q 6.90 124.84 7.57 126.22
  Q 7.86 126.82 7.26 127.12
  Q 5.75 127.88 4.47 127.46
  A 0.94 0.93 -76.1 0 1 3.84 126.41
  Q 4.36 123.34 3.52 120.26
  Q 3.96 121.24 4.76 121.38
  Q 5.36 121.49 6.11 120.91
  Q 8.94 118.71 10.51 115.62
  Q 10.91 114.84 11.56 114.28
  Q 12.18 113.73 12.58 113.00
  Q 12.82 112.57 13.24 112.32
  Q 15.19 111.10 16.39 109.22
  Q 17.40 107.65 17.24 105.14
  Q 16.91 99.86 16.96 94.90
  Q 17.30 60.85 16.98 26.77
  Q 16.95 23.57 16.84 20.25
  Q 16.79 18.73 17.32 17.22
  Q 17.49 16.76 17.94 16.55
  Q 19.01 16.07 20.24 16.22
  Q 29.11 17.29 38.48 16.80
  Q 45.66 16.43 53.21 16.32
  C 54.17 16.31 54.96 15.87 55.94 15.87
  C 63.07 15.87 70.30 15.73 77.34 16.23
  Q 84.00 16.70 89.86 16.51
  Q 98.97 16.22 107.24 16.84
  C 110.22 17.06 112.86 13.72 115.08 12.06
  Q 116.75 10.82 118.19 9.18
  Q 119.69 7.46 121.11 5.86
  Q 122.06 4.78 121.35 2.72
  Z
  M 39.02 68.11
  L 39.00 105.45
  Q 39.00 107.15 40.70 107.16
  L 45.22 107.21
  Q 46.90 107.22 46.90 105.54
  L 46.97 68.30
  L 54.38 67.92
  Q 54.98 67.89 54.98 67.28
  L 55.00 63.76
  Q 55.01 63.02 55.74 63.01
  L 62.10 62.97
  Q 62.92 62.97 62.95 62.15
  L 63.02 59.76
  Q 63.05 59.07 63.74 59.06
  L 71.09 58.94
  A 0.81 0.80 1.5 0 0 71.89 58.19
  L 72.05 55.96
  A 1.01 1.00 -88.1 0 1 73.04 55.03
  L 79.89 54.95
  A 1.11 1.10 -89.7 0 0 80.98 53.86
  L 81.01 51.76
  A 0.74 0.74 0.0 0 1 81.74 51.03
  L 88.01 50.97
  A 0.88 0.88 0.0 0 0 88.74 50.55
  Q 89.24 49.75 88.99 48.66
  Q 88.63 47.07 90.26 47.05
  L 96.92 46.96
  A 1.11 1.11 0.0 0 0 98.02 45.83
  L 97.99 44.24
  Q 97.97 43.02 96.74 43.01
  L 89.70 42.99
  Q 89.09 42.98 89.05 42.37
  L 88.92 39.70
  A 0.73 0.72 88.3 0 0 88.20 39.01
  L 81.76 38.99
  A 0.75 0.75 0.0 0 1 81.01 38.26
  L 80.94 35.72
  A 0.72 0.72 0.0 0 0 80.22 35.02
  L 72.75 34.99
  Q 72.01 34.99 72.00 34.25
  L 71.96 30.75
  Q 71.96 30.03 71.25 30.03
  L 63.87 29.96
  A 0.88 0.88 0.0 0 1 63.00 29.12
  L 62.88 26.81
  A 0.82 0.82 0.0 0 0 62.07 26.03
  L 56.02 25.97
  Q 55.52 25.97 55.25 25.55
  Q 54.73 24.74 54.94 23.62
  Q 55.22 22.15 53.73 22.13
  L 40.18 21.87
  A 1.14 1.13 -89.5 0 0 39.03 23.01
  L 39.02 68.11
  Z"
/>
<path fill="#79cdcd" d="
  M 75.46 113.42
  Q 80.27 113.88 82.75 113.81
  Q 97.04 113.42 111.19 113.54
  A 2.90 2.90 0.0 0 0 114.12 110.60
  C 114.07 107.48 113.57 104.51 113.64 101.47
  Q 114.30 71.97 113.85 42.68
  Q 113.82 41.13 113.53 39.34
  Q 113.19 37.28 113.11 36.00
  Q 112.53 26.68 114.04 19.01
  Q 118.08 16.79 118.86 13.21
  Q 118.96 12.73 119.33 12.41
  Q 119.99 11.84 120.32 11.02
  Q 120.37 10.88 120.51 10.87
  Q 120.55 10.87 120.58 10.87
  Q 120.67 10.87 120.60 10.93
  Q 120.20 11.31 120.20 11.89
  Q 120.20 12.71 120.59 11.98
  Q 121.85 9.59 124.58 9.34
  Q 125.10 9.30 125.44 9.68
  Q 126.80 11.20 126.71 13.26
  Q 126.05 27.15 126.14 40.18
  Q 126.40 78.72 126.55 119.38
  C 126.55 121.41 126.82 123.42 126.89 125.44
  A 0.91 0.91 0.0 0 1 125.91 126.37
  Q 118.53 125.79 111.40 125.75
  Q 80.47 125.55 50.55 125.25
  Q 33.13 125.08 14.87 126.33
  Q 12.96 126.46 11.20 125.54
  A 0.74 0.74 0.0 0 1 10.79 124.83
  Q 10.96 122.14 13.48 121.06
  Q 14.04 120.82 14.12 120.22
  Q 14.19 119.67 14.77 119.84
  Q 14.90 119.88 14.76 119.87
  L 14.10 119.80
  Q 13.72 119.76 14.07 119.61
  C 15.24 119.09 16.24 118.47 17.00 117.43
  Q 18.72 115.08 21.03 113.12
  Q 21.21 112.97 21.27 112.76
  Q 21.38 112.39 21.77 112.38
  Q 31.39 112.29 41.00 112.26
  Q 43.13 112.25 44.83 112.94
  C 48.27 114.35 51.09 114.37 54.85 113.91
  Q 57.42 113.60 60.25 113.58
  Q 67.85 113.54 75.46 113.42
  Z"
/>
<path fill="#001025" d="
  M 46.97 68.30
  L 39.02 68.11
  L 39.03 23.01
  A 1.14 1.13 -89.5 0 1 40.18 21.87
  L 53.73 22.13
  Q 55.22 22.15 54.94 23.62
  Q 54.73 24.74 55.25 25.55
  Q 55.52 25.97 56.02 25.97
  L 62.07 26.03
  A 0.82 0.82 0.0 0 1 62.88 26.81
  L 63.00 29.12
  A 0.88 0.88 0.0 0 0 63.87 29.96
  L 71.25 30.03
  Q 71.96 30.03 71.96 30.75
  L 72.00 34.25
  Q 72.01 34.99 72.75 34.99
  L 80.22 35.02
  A 0.72 0.72 0.0 0 1 80.94 35.72
  L 81.01 38.26
  A 0.75 0.75 0.0 0 0 81.76 38.99
  L 88.20 39.01
  A 0.73 0.72 88.3 0 1 88.92 39.70
  L 89.05 42.37
  Q 89.09 42.98 89.70 42.99
  L 96.74 43.01
  Q 97.97 43.02 97.99 44.24
  L 98.02 45.83
  A 1.11 1.11 0.0 0 1 96.92 46.96
  L 90.26 47.05
  Q 88.63 47.07 88.99 48.66
  Q 89.24 49.75 88.74 50.55
  A 0.88 0.88 0.0 0 1 88.01 50.97
  L 81.74 51.03
  A 0.74 0.74 0.0 0 0 81.01 51.76
  L 80.98 53.86
  A 1.11 1.10 -89.7 0 1 79.89 54.95
  L 73.04 55.03
  A 1.01 1.00 -88.1 0 0 72.05 55.96
  L 71.89 58.19
  A 0.81 0.80 1.5 0 1 71.09 58.94
  L 63.74 59.06
  Q 63.05 59.07 63.02 59.76
  L 62.95 62.15
  Q 62.92 62.97 62.10 62.97
  L 55.74 63.01
  Q 55.01 63.02 55.00 63.76
  L 54.98 67.28
  Q 54.98 67.89 54.38 67.92
  L 46.97 68.30
  Z"
/>
<path fill="#006797" d="
  M 39.02 68.11
  L 46.97 68.30
  L 46.90 105.54
  Q 46.90 107.22 45.22 107.21
  L 40.70 107.16
  Q 39.00 107.15 39.00 105.45
  L 39.02 68.11
  Z"
/>
</svg>
