<?xml version="1.0" encoding="UTF-8" standalone="no"?>
<!DOCTYPE svg PUBLIC "-//W3C//DTD SVG 1.1//EN" "http://www.w3.org/Graphics/SVG/1.1/DTD/svg11.dtd">
<svg xmlns="http://www.w3.org/2000/svg" version="1.1" viewBox="0.00 0.00 128.00 128.00">
<g stroke-width="2.00" fill="none" stroke-linecap="butt">
<path stroke="#bce5e6" vector-effect="non-scaling-stroke" d="
  M 10.64 115.99
  Q 12.49 114.85 13.71 112.91
  Q 13.94 112.55 14.37 112.46
  Q 14.98 112.32 14.53 112.76
  Q 11.55 115.68 8.64 119.84
  Q 8.33 120.28 7.85 120.53
  Q 7.22 120.85 6.95 121.53
  Q 6.71 122.13 6.07 122.13
  L 4.47 122.13
  A 0.45 0.44 86.6 0 0 4.03 122.63
  Q 4.28 124.50 3.89 126.36
  A 0.93 0.93 0.0 0 0 4.51 127.43
  Q 5.75 127.85 7.14 127.21
  Q 7.91 126.86 7.54 126.11
  Q 6.92 124.83 7.09 123.37
  Q 7.20 122.31 8.35 121.21
  Q 9.96 119.66 11.68 118.43
  C 14.28 116.57 16.05 114.18 18.29 111.90
  Q 18.64 111.55 19.12 111.53
  C 23.43 111.31 27.68 111.91 32.02 111.35
  Q 34.56 111.02 37.61 111.46
  A 2.13 2.12 37.9 0 0 38.75 111.32
  Q 42.21 109.89 45.94 110.76
  Q 46.22 110.82 46.39 111.05
  Q 46.66 111.40 47.10 111.40
  Q 52.63 111.43 58.00 110.13
  Q 58.99 109.89 61.77 110.22"
/>
<path stroke="#5a7c84" vector-effect="non-scaling-stroke" d="
  M 61.77 110.22
  L 60.72 112.40"
/>
<path stroke="#96d8d8" vector-effect="non-scaling-stroke" d="
  M 60.72 112.40
  Q 58.16 112.18 55.72 112.54
  Q 53.52 112.87 52.26 112.87
  C 50.25 112.87 48.15 113.11 46.21 112.48
  C 44.20 111.83 42.49 111.51 40.32 111.91
  Q 37.98 112.35 35.72 112.36
  Q 29.19 112.41 22.88 112.34
  Q 21.09 112.32 19.64 113.21
  Q 18.01 114.23 16.62 115.89
  C 15.66 117.05 15.10 118.28 13.48 118.71
  Q 10.60 119.46 8.96 121.64
  Q 8.77 121.89 8.46 121.87
  Q 8.18 121.84 8.14 122.12
  Q 7.88 123.82 8.77 125.28
  Q 9.05 125.75 9.60 125.65
  Q 10.81 125.44 11.94 125.88
  C 14.25 126.79 17.07 126.27 19.50 126.04
  Q 21.92 125.81 24.51 125.77
  Q 38.58 125.53 52.66 125.29
  C 60.51 125.16 68.28 125.84 76.08 125.62
  Q 84.61 125.38 93.36 125.49
  Q 110.42 125.69 126.09 126.35
  A 0.82 0.82 0.0 0 0 126.94 125.51
  C 126.91 123.27 126.58 120.95 126.58 118.70
  Q 126.51 72.32 126.05 25.20
  C 126.02 21.79 126.56 18.41 126.72 14.95
  Q 126.84 12.42 126.04 10.40
  A 1.73 1.72 -22.7 0 0 123.74 9.46
  Q 120.77 10.75 119.55 14.38
  Q 119.55 14.39 119.54 14.39
  L 119.30 14.31
  Q 119.09 14.25 119.15 14.04
  Q 119.52 12.78 120.03 11.78
  Q 120.40 11.07 119.90 11.70
  Q 119.24 12.53 119.07 13.73
  Q 119.00 14.20 118.73 14.59
  Q 116.49 17.81 113.80 20.07
  A 1.33 1.32 -19.8 0 0 113.33 21.06
  Q 113.29 29.61 113.73 37.66
  Q 113.86 40.07 113.62 42.32
  C 113.19 46.18 113.37 50.09 113.22 53.98
  C 112.86 62.96 113.64 72.64 113.49 81.76
  Q 113.28 94.84 113.38 107.54
  Q 113.40 110.64 111.32 111.91
  Q 110.08 112.67 107.06 112.65
  Q 86.30 112.56 65.02 112.71"
/>
<path stroke="#5a7c84" vector-effect="non-scaling-stroke" d="
  M 65.02 112.71
  L 66.43 109.81
  Q 66.67 109.32 67.18 109.53
  Q 67.97 109.87 69.33 110.73
  Q 70.65 111.56 71.20 109.39"
/>
<path stroke="#bce5e6" vector-effect="non-scaling-stroke" d="
  M 71.20 109.39
  Q 81.61 109.05 91.84 109.10
  Q 94.91 109.12 98.14 109.50
  Q 101.26 109.87 104.41 110.24
  C 106.30 110.46 107.96 110.22 109.83 110.08
  Q 110.32 110.04 110.60 109.64
  Q 111.72 108.04 111.80 106.05
  Q 111.92 103.06 111.01 99.87
  Q 110.37 97.67 110.29 94.89
  Q 110.21 92.06 110.05 88.89
  Q 109.60 80.00 110.00 66.80
  Q 110.16 61.30 110.67 58.38
  Q 110.70 58.16 110.89 58.03
  Q 111.03 57.93 111.08 57.76
  C 111.99 54.37 111.79 50.91 112.14 47.42
  Q 112.60 42.94 112.59 38.85
  Q 112.57 31.38 112.56 22.97
  Q 112.56 21.39 113.34 20.04
  Q 114.55 17.93 114.80 15.46
  Q 114.87 14.74 115.40 14.24
  Q 117.63 12.12 119.22 9.65
  Q 119.74 8.84 120.31 8.05
  Q 121.02 7.07 121.47 5.46"
/>
<path stroke="#daf1f1" vector-effect="non-scaling-stroke" d="
  M 121.47 5.46
  Q 123.37 2.44 118.45 1.65
  Q 117.08 1.43 114.05 1.40
  Q 65.07 1.07 16.09 1.43
  C 12.23 1.46 8.50 0.95 4.73 0.75
  Q 3.31 0.68 1.94 1.14
  A 1.41 1.41 0.0 0 0 0.99 2.60
  C 1.38 7.15 2.24 11.54 2.24 16.19
  Q 2.33 65.06 2.05 114.72
  C 2.04 116.81 2.72 118.97 3.80 120.72
  A 1.43 1.42 -33.0 0 0 5.82 121.14
  L 8.58 119.21
  Q 9.04 118.89 9.12 118.34
  Q 9.16 118.10 9.11 117.85
  Q 9.00 117.24 9.55 116.93
  Q 10.29 116.52 10.64 115.99"
/>
<path stroke="#e1f4f4" vector-effect="non-scaling-stroke" d="
  M 121.47 5.46
  Q 117.46 8.56 116.52 9.79
  Q 112.59 14.93 109.26 16.70
  Q 108.82 16.94 108.32 16.92
  C 105.35 16.84 102.23 16.53 99.39 16.53
  Q 60.26 16.52 19.00 16.45
  A 2.03 2.02 -89.9 0 0 16.97 18.48
  L 17.07 107.25
  A 4.56 4.21 -25.6 0 1 15.90 110.19
  L 10.64 115.99"
/>
<path stroke="#627f87" vector-effect="non-scaling-stroke" d="
  M 71.20 109.39
  L 73.72 104.58
  A 0.62 0.61 -62.0 0 1 74.56 104.32
  L 77.02 105.64
  Q 77.53 105.91 77.80 105.40
  L 81.46 98.37
  Q 81.73 97.86 82.23 98.14
  L 85.33 99.88
  A 0.89 0.88 -61.8 0 0 86.55 99.51
  L 90.06 92.71
  Q 90.31 92.21 90.80 92.49
  L 93.19 93.86
  Q 93.81 94.21 94.14 93.58
  L 97.25 87.58
  A 0.63 0.63 0.0 0 1 98.11 87.32
  L 100.39 88.59
  Q 101.06 88.96 101.42 88.28
  L 108.20 75.23
  Q 108.42 74.83 108.01 74.61
  L 67.57 53.44"
/>
<path stroke="#62a2c0" vector-effect="non-scaling-stroke" d="
  M 67.57 53.44
  L 58.40 48.63
  A 0.44 0.44 0.0 0 0 57.81 48.82
  L 54.57 55.06
  A 0.43 0.42 27.4 0 0 54.76 55.64
  L 64.06 60.36"
/>
<path stroke="#627f87" vector-effect="non-scaling-stroke" d="
  M 64.06 60.36
  L 60.63 67.13
  Q 60.37 67.64 60.88 67.90
  L 64.35 69.68
  Q 64.84 69.93 64.58 70.42
  L 61.36 76.49
  Q 61.07 77.04 61.63 77.32
  L 64.06 78.53
  Q 64.70 78.85 64.37 79.48
  L 60.78 86.27
  Q 60.45 86.89 61.08 87.19
  L 63.48 88.38
  A 0.66 0.66 0.0 0 1 63.77 89.28
  L 60.11 96.16
  Q 59.81 96.72 60.39 97.00
  L 62.81 98.19
  Q 63.44 98.50 63.11 99.12
  L 59.95 105.16
  A 0.53 0.53 0.0 0 0 60.19 105.88
  L 62.75 107.14
  Q 63.35 107.43 63.02 108.01
  L 61.77 110.22"
/>
<path stroke="#00395e" vector-effect="non-scaling-stroke" d="
  M 67.57 53.44
  L 64.06 60.36"
/>
<path stroke="#3c7279" vector-effect="non-scaling-stroke" d="
  M 60.72 112.40
  L 59.49 114.80
  Q 59.16 115.43 59.81 115.73
  L 61.80 116.65
  Q 62.56 117.00 62.97 116.28
  L 65.02 112.71"
/>
<path stroke="#62aac0" vector-effect="non-scaling-stroke" d="
  M 46.99 79.79
  A 0.81 0.81 0.0 0 0 46.18 78.98
  L 39.82 78.98
  A 0.81 0.81 0.0 0 0 39.01 79.79
  L 39.01 106.29
  A 0.81 0.81 0.0 0 0 39.82 107.10
  L 46.18 107.10
  A 0.81 0.81 0.0 0 0 46.99 106.29
  L 46.99 79.79"
/>
</g>
<path fill="#b4e2e3" d="
  M 0.00 0.00
  L 128.00 0.00
  L 128.00 128.00
  L 0.00 128.00
  L 0.00 0.00
  Z
  M 10.64 115.99
  Q 12.49 114.85 13.71 112.91
  Q 13.94 112.55 14.37 112.46
  Q 14.98 112.32 14.53 112.76
  Q 11.55 115.68 8.64 119.84
  Q 8.33 120.28 7.85 120.53
  Q 7.22 120.85 6.95 121.53
  Q 6.71 122.13 6.07 122.13
  L 4.47 122.13
  A 0.45 0.44 86.6 0 0 4.03 122.63
  Q 4.28 124.50 3.89 126.36
  A 0.93 0.93 0.0 0 0 4.51 127.43
  Q 5.75 127.85 7.14 127.21
  Q 7.91 126.86 7.54 126.11
  Q 6.92 124.83 7.09 123.37
  Q 7.20 122.31 8.35 121.21
  Q 9.96 119.66 11.68 118.43
  C 14.28 116.57 16.05 114.18 18.29 111.90
  Q 18.64 111.55 19.12 111.53
  C 23.43 111.31 27.68 111.91 32.02 111.35
  Q 34.56 111.02 37.61 111.46
  A 2.13 2.12 37.9 0 0 38.75 111.32
  Q 42.21 109.89 45.94 110.76
  Q 46.22 110.82 46.39 111.05
  Q 46.66 111.40 47.10 111.40
  Q 52.63 111.43 58.00 110.13
  Q 58.99 109.89 61.77 110.22
  L 60.72 112.40
  Q 58.16 112.18 55.72 112.54
  Q 53.52 112.87 52.26 112.87
  C 50.25 112.87 48.15 113.11 46.21 112.48
  C 44.20 111.83 42.49 111.51 40.32 111.91
  Q 37.98 112.35 35.72 112.36
  Q 29.19 112.41 22.88 112.34
  Q 21.09 112.32 19.64 113.21
  Q 18.01 114.23 16.62 115.89
  C 15.66 117.05 15.10 118.28 13.48 118.71
  Q 10.60 119.46 8.96 121.64
  Q 8.77 121.89 8.46 121.87
  Q 8.18 121.84 8.14 122.12
  Q 7.88 123.82 8.77 125.28
  Q 9.05 125.75 9.60 125.65
  Q 10.81 125.44 11.94 125.88
  C 14.25 126.79 17.07 126.27 19.50 126.04
  Q 21.92 125.81 24.51 125.77
  Q 38.58 125.53 52.66 125.29
  C 60.51 125.16 68.28 125.84 76.08 125.62
  Q 84.61 125.38 93.36 125.49
  Q 110.42 125.69 126.09 126.35
  A 0.82 0.82 0.0 0 0 126.94 125.51
  C 126.91 123.27 126.58 120.95 126.58 118.70
  Q 126.51 72.32 126.05 25.20
  C 126.02 21.79 126.56 18.41 126.72 14.95
  Q 126.84 12.42 126.04 10.40
  A 1.73 1.72 -22.7 0 0 123.74 9.46
  Q 120.77 10.75 119.55 14.38
  Q 119.55 14.39 119.54 14.39
  L 119.30 14.31
  Q 119.09 14.25 119.15 14.04
  Q 119.52 12.78 120.03 11.78
  Q 120.40 11.07 119.90 11.70
  Q 119.24 12.53 119.07 13.73
  Q 119.00 14.20 118.73 14.59
  Q 116.49 17.81 113.80 20.07
  A 1.33 1.32 -19.8 0 0 113.33 21.06
  Q 113.29 29.61 113.73 37.66
  Q 113.86 40.07 113.62 42.32
  C 113.19 46.18 113.37 50.09 113.22 53.98
  C 112.86 62.96 113.64 72.64 113.49 81.76
  Q 113.28 94.84 113.38 107.54
  Q 113.40 110.64 111.32 111.91
  Q 110.08 112.67 107.06 112.65
  Q 86.30 112.56 65.02 112.71
  L 66.43 109.81
  Q 66.67 109.32 67.18 109.53
  Q 67.97 109.87 69.33 110.73
  Q 70.65 111.56 71.20 109.39
  Q 81.61 109.05 91.84 109.10
  Q 94.91 109.12 98.14 109.50
  Q 101.26 109.87 104.41 110.24
  C 106.30 110.46 107.96 110.22 109.83 110.08
  Q 110.32 110.04 110.60 109.64
  Q 111.72 108.04 111.80 106.05
  Q 111.92 103.06 111.01 99.87
  Q 110.37 97.67 110.29 94.89
  Q 110.21 92.06 110.05 88.89
  Q 109.60 80.00 110.00 66.80
  Q 110.16 61.30 110.67 58.38
  Q 110.70 58.16 110.89 58.03
  Q 111.03 57.93 111.08 57.76
  C 111.99 54.37 111.79 50.91 112.14 47.42
  Q 112.60 42.94 112.59 38.85
  Q 112.57 31.38 112.56 22.97
  Q 112.56 21.39 113.34 20.04
  Q 114.55 17.93 114.80 15.46
  Q 114.87 14.74 115.40 14.24
  Q 117.63 12.12 119.22 9.65
  Q 119.74 8.84 120.31 8.05
  Q 121.02 7.07 121.47 5.46
  Q 123.37 2.44 118.45 1.65
  Q 117.08 1.43 114.05 1.40
  Q 65.07 1.07 16.09 1.43
  C 12.23 1.46 8.50 0.95 4.73 0.75
  Q 3.31 0.68 1.94 1.14
  A 1.41 1.41 0.0 0 0 0.99 2.60
  C 1.38 7.15 2.24 11.54 2.24 16.19
  Q 2.33 65.06 2.05 114.72
  C 2.04 116.81 2.72 118.97 3.80 120.72
  A 1.43 1.42 -33.0 0 0 5.82 121.14
  L 8.58 119.21
  Q 9.04 118.89 9.12 118.34
  Q 9.16 118.10 9.11 117.85
  Q 9.00 117.24 9.55 116.93
  Q 10.29 116.52 10.64 115.99
  Z"
/>
<path fill="#ffffff" d="
  M 121.47 5.46
  Q 117.46 8.56 116.52 9.79
  Q 112.59 14.93 109.26 16.70
  Q 108.82 16.94 108.32 16.92
  C 105.35 16.84 102.23 16.53 99.39 16.53
  Q 60.26 16.52 19.00 16.45
  A 2.03 2.02 -89.9 0 0 16.97 18.48
  L 17.07 107.25
  A 4.56 4.21 -25.6 0 1 15.90 110.19
  L 10.64 115.99
  Q 10.29 116.52 9.55 116.93
  Q 9.00 117.24 9.11 117.85
  Q 9.16 118.10 9.12 118.34
  Q 9.04 118.89 8.58 119.21
  L 5.82 121.14
  A 1.43 1.42 -33.0 0 1 3.80 120.72
  C 2.72 118.97 2.04 116.81 2.05 114.72
  Q 2.33 65.06 2.24 16.19
  C 2.24 11.54 1.38 7.15 0.99 2.60
  A 1.41 1.41 0.0 0 1 1.94 1.14
  Q 3.31 0.68 4.73 0.75
  C 8.50 0.95 12.23 1.46 16.09 1.43
  Q 65.07 1.07 114.05 1.40
  Q 117.08 1.43 118.45 1.65
  Q 123.37 2.44 121.47 5.46
  Z"
/>
<path fill="#c3e8e8" d="
  M 121.47 5.46
  Q 121.02 7.07 120.31 8.05
  Q 119.74 8.84 119.22 9.65
  Q 117.63 12.12 115.40 14.24
  Q 114.87 14.74 114.80 15.46
  Q 114.55 17.93 113.34 20.04
  Q 112.56 21.39 112.56 22.97
  Q 112.57 31.38 112.59 38.85
  Q 112.60 42.94 112.14 47.42
  C 111.79 50.91 111.99 54.37 111.08 57.76
  Q 111.03 57.93 110.89 58.03
  Q 110.70 58.16 110.67 58.38
  Q 110.16 61.30 110.00 66.80
  Q 109.60 80.00 110.05 88.89
  Q 110.21 92.06 110.29 94.89
  Q 110.37 97.67 111.01 99.87
  Q 111.92 103.06 111.80 106.05
  Q 111.72 108.04 110.60 109.64
  Q 110.32 110.04 109.83 110.08
  C 107.96 110.22 106.30 110.46 104.41 110.24
  Q 101.26 109.87 98.14 109.50
  Q 94.91 109.12 91.84 109.10
  Q 81.61 109.05 71.20 109.39
  L 73.72 104.58
  A 0.62 0.61 -62.0 0 1 74.56 104.32
  L 77.02 105.64
  Q 77.53 105.91 77.80 105.40
  L 81.46 98.37
  Q 81.73 97.86 82.23 98.14
  L 85.33 99.88
  A 0.89 0.88 -61.8 0 0 86.55 99.51
  L 90.06 92.71
  Q 90.31 92.21 90.80 92.49
  L 93.19 93.86
  Q 93.81 94.21 94.14 93.58
  L 97.25 87.58
  A 0.63 0.63 0.0 0 1 98.11 87.32
  L 100.39 88.59
  Q 101.06 88.96 101.42 88.28
  L 108.20 75.23
  Q 108.42 74.83 108.01 74.61
  L 67.57 53.44
  L 58.40 48.63
  A 0.44 0.44 0.0 0 0 57.81 48.82
  L 54.57 55.06
  A 0.43 0.42 27.4 0 0 54.76 55.64
  L 64.06 60.36
  L 60.63 67.13
  Q 60.37 67.64 60.88 67.90
  L 64.35 69.68
  Q 64.84 69.93 64.58 70.42
  L 61.36 76.49
  Q 61.07 77.04 61.63 77.32
  L 64.06 78.53
  Q 64.70 78.85 64.37 79.48
  L 60.78 86.27
  Q 60.45 86.89 61.08 87.19
  L 63.48 88.38
  A 0.66 0.66 0.0 0 1 63.77 89.28
  L 60.11 96.16
  Q 59.81 96.72 60.39 97.00
  L 62.81 98.19
  Q 63.44 98.50 63.11 99.12
  L 59.95 105.16
  A 0.53 0.53 0.0 0 0 60.19 105.88
  L 62.75 107.14
  Q 63.35 107.43 63.02 108.01
  L 61.77 110.22
  Q 58.99 109.89 58.00 110.13
  Q 52.63 111.43 47.10 111.40
  Q 46.66 111.40 46.39 111.05
  Q 46.22 110.82 45.94 110.76
  Q 42.21 109.89 38.75 111.32
  A 2.13 2.12 37.9 0 1 37.61 111.46
  Q 34.56 111.02 32.02 111.35
  C 27.68 111.91 23.43 111.31 19.12 111.53
  Q 18.64 111.55 18.29 111.90
  C 16.05 114.18 14.28 116.57 11.68 118.43
  Q 9.96 119.66 8.35 121.21
  Q 7.20 122.31 7.09 123.37
  Q 6.92 124.83 7.54 126.11
  Q 7.91 126.86 7.14 127.21
  Q 5.75 127.85 4.51 127.43
  A 0.93 0.93 0.0 0 1 3.89 126.36
  Q 4.28 124.50 4.03 122.63
  A 0.45 0.44 86.6 0 1 4.47 122.13
  L 6.07 122.13
  Q 6.71 122.13 6.95 121.53
  Q 7.22 120.85 7.85 120.53
  Q 8.33 120.28 8.64 119.84
  Q 11.55 115.68 14.53 112.76
  Q 14.98 112.32 14.37 112.46
  Q 13.94 112.55 13.71 112.91
  Q 12.49 114.85 10.64 115.99
  L 15.90 110.19
  A 4.56 4.21 -25.6 0 0 17.07 107.25
  L 16.97 18.48
  A 2.03 2.02 -89.9 0 1 19.00 16.45
  Q 60.26 16.52 99.39 16.53
  C 102.23 16.53 105.35 16.84 108.32 16.92
  Q 108.82 16.94 109.26 16.70
  Q 112.59 14.93 116.52 9.79
  Q 117.46 8.56 121.47 5.46
  Z
  M 46.99 79.79
  A 0.81 0.81 0.0 0 0 46.18 78.98
  L 39.82 78.98
  A 0.81 0.81 0.0 0 0 39.01 79.79
  L 39.01 106.29
  A 0.81 0.81 0.0 0 0 39.82 107.10
  L 46.18 107.10
  A 0.81 0.81 0.0 0 0 46.99 106.29
  L 46.99 79.79
  Z"
/>
<path fill="#78cdcd" d="
  M 60.72 112.40
  L 59.49 114.80
  Q 59.16 115.43 59.81 115.73
  L 61.80 116.65
  Q 62.56 117.00 62.97 116.28
  L 65.02 112.71
  Q 86.30 112.56 107.06 112.65
  Q 110.08 112.67 111.32 111.91
  Q 113.40 110.64 113.38 107.54
  Q 113.28 94.84 113.49 81.76
  C 113.64 72.64 112.86 62.96 113.22 53.98
  C 113.37 50.09 113.19 46.18 113.62 42.32
  Q 113.86 40.07 113.73 37.66
  Q 113.29 29.61 113.33 21.06
  A 1.33 1.32 -19.8 0 1 113.80 20.07
  Q 116.49 17.81 118.73 14.59
  Q 119.00 14.20 119.07 13.73
  Q 119.24 12.53 119.90 11.70
  Q 120.40 11.07 120.03 11.78
  Q 119.52 12.78 119.15 14.04
  Q 119.09 14.25 119.30 14.31
  L 119.54 14.39
  Q 119.55 14.39 119.55 14.38
  Q 120.77 10.75 123.74 9.46
  A 1.73 1.72 -22.7 0 1 126.04 10.40
  Q 126.84 12.42 126.72 14.95
  C 126.56 18.41 126.02 21.79 126.05 25.20
  Q 126.51 72.32 126.58 118.70
  C 126.58 120.95 126.91 123.27 126.94 125.51
  A 0.82 0.82 0.0 0 1 126.09 126.35
  Q 110.42 125.69 93.36 125.49
  Q 84.61 125.38 76.08 125.62
  C 68.28 125.84 60.51 125.16 52.66 125.29
  Q 38.58 125.53 24.51 125.77
  Q 21.92 125.81 19.50 126.04
  C 17.07 126.27 14.25 126.79 11.94 125.88
  Q 10.81 125.44 9.60 125.65
  Q 9.05 125.75 8.77 125.28
  Q 7.88 123.82 8.14 122.12
  Q 8.18 121.84 8.46 121.87
  Q 8.77 121.89 8.96 121.64
  Q 10.60 119.46 13.48 118.71
  C 15.10 118.28 15.66 117.05 16.62 115.89
  Q 18.01 114.23 19.64 113.21
  Q 21.09 112.32 22.88 112.34
  Q 29.19 112.41 35.72 112.36
  Q 37.98 112.35 40.32 111.91
  C 42.49 111.51 44.20 111.83 46.21 112.48
  C 48.15 113.11 50.25 112.87 52.26 112.87
  Q 53.52 112.87 55.72 112.54
  Q 58.16 112.18 60.72 112.40
  Z"
/>
<path fill="#005b97" d="
  M 67.57 53.44
  L 64.06 60.36
  L 54.76 55.64
  A 0.43 0.42 27.4 0 1 54.57 55.06
  L 57.81 48.82
  A 0.44 0.44 0.0 0 1 58.40 48.63
  L 67.57 53.44
  Z"
/>
<path fill="#001625" d="
  M 67.57 53.44
  L 108.01 74.61
  Q 108.42 74.83 108.20 75.23
  L 101.42 88.28
  Q 101.06 88.96 100.39 88.59
  L 98.11 87.32
  A 0.63 0.63 0.0 0 0 97.25 87.58
  L 94.14 93.58
  Q 93.81 94.21 93.19 93.86
  L 90.80 92.49
  Q 90.31 92.21 90.06 92.71
  L 86.55 99.51
  A 0.89 0.88 -61.8 0 1 85.33 99.88
  L 82.23 98.14
  Q 81.73 97.86 81.46 98.37
  L 77.80 105.40
  Q 77.53 105.91 77.02 105.64
  L 74.56 104.32
  A 0.62 0.61 -62.0 0 0 73.72 104.58
  L 71.20 109.39
  Q 70.65 111.56 69.33 110.73
  Q 67.97 109.87 67.18 109.53
  Q 66.67 109.32 66.43 109.81
  L 65.02 112.71
  L 62.97 116.28
  Q 62.56 117.00 61.80 116.65
  L 59.81 115.73
  Q 59.16 115.43 59.49 114.80
  L 60.72 112.40
  L 61.77 110.22
  L 63.02 108.01
  Q 63.35 107.43 62.75 107.14
  L 60.19 105.88
  A 0.53 0.53 0.0 0 1 59.95 105.16
  L 63.11 99.12
  Q 63.44 98.50 62.81 98.19
  L 60.39 97.00
  Q 59.81 96.72 60.11 96.16
  L 63.77 89.28
  A 0.66 0.66 0.0 0 0 63.48 88.38
  L 61.08 87.19
  Q 60.45 86.89 60.78 86.27
  L 64.37 79.48
  Q 64.70 78.85 64.06 78.53
  L 61.63 77.32
  Q 61.07 77.04 61.36 76.49
  L 64.58 70.42
  Q 64.84 69.93 64.35 69.68
  L 60.88 67.90
  Q 60.37 67.64 60.63 67.13
  L 64.06 60.36
  L 67.57 53.44
  Z"
/>
<rect fill="#006b97" x="39.01" y="78.98" width="7.98" height="28.12" rx="0.81"/>
</svg>
