<?xml version="1.0" encoding="UTF-8" standalone="no"?>
<!DOCTYPE svg PUBLIC "-//W3C//DTD SVG 1.1//EN" "http://www.w3.org/Graphics/SVG/1.1/DTD/svg11.dtd">
<svg xmlns="http://www.w3.org/2000/svg" version="1.1" viewBox="0.00 0.00 128.00 128.00">
<g stroke-width="2.00" fill="none" stroke-linecap="butt">
<path stroke="#bce5e6" vector-effect="non-scaling-stroke" d="
  M 4.25 121.61
  L 4.12 126.16
  Q 4.07 127.86 5.73 127.50
  L 6.22 127.39
  Q 7.74 127.06 7.42 125.54
  Q 6.75 122.37 9.33 120.25
  Q 12.43 117.71 15.24 114.90
  Q 18.98 111.17 24.02 111.95
  Q 26.76 112.38 29.37 112.34
  Q 34.67 112.28 40.49 112.82
  Q 46.24 113.35 51.94 113.40
  Q 75.69 113.61 99.46 113.48"
/>
<path stroke="#97d8d8" vector-effect="non-scaling-stroke" d="
  M 99.46 113.48
  Q 92.60 113.79 85.75 113.75
  Q 71.43 113.68 57.10 113.84
  Q 50.11 113.91 42.91 113.55
  Q 35.80 113.20 28.69 112.92
  Q 28.60 112.92 25.83 112.65
  Q 22.52 112.33 19.19 113.76
  Q 17.49 114.49 16.86 116.19
  Q 16.71 116.58 16.30 116.62
  Q 15.94 116.66 15.70 116.93
  C 14.20 118.68 12.21 118.88 10.56 120.36
  Q 9.64 121.19 8.90 122.14
  Q 7.96 123.36 9.18 124.29
  Q 12.12 126.52 15.11 126.38
  C 18.73 126.22 22.35 125.69 26.00 125.65
  Q 64.20 125.28 110.75 125.72
  Q 118.61 125.80 125.93 126.39
  A 0.89 0.88 -0.8 0 0 126.89 125.41
  Q 126.63 123.02 126.61 120.77
  Q 126.19 70.40 126.09 26.49
  C 126.08 22.61 126.52 18.87 126.65 15.00
  Q 126.77 11.54 125.55 9.47"
/>
<path stroke="#bce5e6" vector-effect="non-scaling-stroke" d="
  M 125.55 9.47
  Q 124.64 8.13 123.17 7.92
  Q 122.76 7.87 122.44 8.13
  L 120.11 10.07
  Q 118.44 11.45 119.72 9.70
  Q 124.57 3.05 120.49 7.21"
/>
<path stroke="#daf1f1" vector-effect="non-scaling-stroke" d="
  M 120.49 7.21
  Q 120.35 6.06 118.81 7.88
  Q 118.40 8.37 118.68 7.80
  Q 118.75 7.67 118.83 7.54
  A 2.11 2.10 3.6 0 1 119.72 6.76
  Q 121.09 6.15 121.46 4.92
  A 2.29 2.29 0.0 0 0 120.06 2.10
  Q 118.25 1.43 116.00 1.41
  Q 65.61 1.07 15.77 1.43
  C 12.02 1.45 8.43 0.92 4.74 0.76
  Q 3.31 0.70 2.00 1.12
  A 1.50 1.50 0.0 0 0 0.96 2.71
  C 1.51 7.61 2.24 12.13 2.25 17.12
  Q 2.32 66.44 2.05 115.75
  Q 2.04 117.83 4.25 121.61"
/>
<path stroke="#e1f4f4" vector-effect="non-scaling-stroke" d="
  M 120.49 7.21
  Q 118.33 10.90 117.39 11.88
  Q 116.69 12.62 115.18 12.62
  A 1.56 1.49 -63.1 0 0 114.24 12.95
  C 112.72 14.15 110.04 17.08 107.97 16.92
  Q 104.75 16.68 100.75 16.66
  Q 65.17 16.50 18.97 16.45
  A 2.05 2.04 90.0 0 0 16.92 18.51
  L 17.23 108.50
  Q 17.23 109.01 16.95 109.40
  Q 15.76 111.06 14.42 112.46
  Q 13.07 113.87 11.79 115.77
  Q 8.89 120.11 4.25 121.61"
/>
<path stroke="#9edbdb" vector-effect="non-scaling-stroke" d="
  M 125.55 9.47
  Q 125.43 9.37 125.32 9.27"
/>
<path stroke="#bce5e6" vector-effect="non-scaling-stroke" d="
  M 125.32 9.27
  Q 121.39 8.23 119.75 12.62"
/>
<path stroke="#9edbdb" vector-effect="non-scaling-stroke" d="
  M 119.75 12.62
  Q 119.04 15.43 116.48 17.57
  C 114.42 19.27 112.70 20.81 113.54 23.75
  Q 114.04 25.50 114.07 27.44
  Q 114.29 44.59 114.35 64.54
  C 114.40 76.91 113.73 89.77 113.70 102.26
  Q 113.69 105.87 113.91 109.22
  Q 114.23 113.96 110.28 113.69
  Q 104.83 113.33 99.46 113.48"
/>
<path stroke="#97d8d8" vector-effect="non-scaling-stroke" d="
  M 125.32 9.27
  Q 123.24 9.38 121.89 10.64
  Q 121.04 11.44 119.75 12.62"
/>
</g>
<path fill="#b4e2e3" d="
  M 0.00 0.00
  L 128.00 0.00
  L 128.00 128.00
  L 0.00 128.00
  L 0.00 0.00
  Z
  M 4.25 121.61
  L 4.12 126.16
  Q 4.07 127.86 5.73 127.50
  L 6.22 127.39
  Q 7.74 127.06 7.42 125.54
  Q 6.75 122.37 9.33 120.25
  Q 12.43 117.71 15.24 114.90
  Q 18.98 111.17 24.02 111.95
  Q 26.76 112.38 29.37 112.34
  Q 34.67 112.28 40.49 112.82
  Q 46.24 113.35 51.94 113.40
  Q 75.69 113.61 99.46 113.48
  Q 92.60 113.79 85.75 113.75
  Q 71.43 113.68 57.10 113.84
  Q 50.11 113.91 42.91 113.55
  Q 35.80 113.20 28.69 112.92
  Q 28.60 112.92 25.83 112.65
  Q 22.52 112.33 19.19 113.76
  Q 17.49 114.49 16.86 116.19
  Q 16.71 116.58 16.30 116.62
  Q 15.94 116.66 15.70 116.93
  C 14.20 118.68 12.21 118.88 10.56 120.36
  Q 9.64 121.19 8.90 122.14
  Q 7.96 123.36 9.18 124.29
  Q 12.12 126.52 15.11 126.38
  C 18.73 126.22 22.35 125.69 26.00 125.65
  Q 64.20 125.28 110.75 125.72
  Q 118.61 125.80 125.93 126.39
  A 0.89 0.88 -0.8 0 0 126.89 125.41
  Q 126.63 123.02 126.61 120.77
  Q 126.19 70.40 126.09 26.49
  C 126.08 22.61 126.52 18.87 126.65 15.00
  Q 126.77 11.54 125.55 9.47
  Q 124.64 8.13 123.17 7.92
  Q 122.76 7.87 122.44 8.13
  L 120.11 10.07
  Q 118.44 11.45 119.72 9.70
  Q 124.57 3.05 120.49 7.21
  Q 120.35 6.06 118.81 7.88
  Q 118.40 8.37 118.68 7.80
  Q 118.75 7.67 118.83 7.54
  A 2.11 2.10 3.6 0 1 119.72 6.76
  Q 121.09 6.15 121.46 4.92
  A 2.29 2.29 0.0 0 0 120.06 2.10
  Q 118.25 1.43 116.00 1.41
  Q 65.61 1.07 15.77 1.43
  C 12.02 1.45 8.43 0.92 4.74 0.76
  Q 3.31 0.70 2.00 1.12
  A 1.50 1.50 0.0 0 0 0.96 2.71
  C 1.51 7.61 2.24 12.13 2.25 17.12
  Q 2.32 66.44 2.05 115.75
  Q 2.04 117.83 4.25 121.61
  Z"
/>
<path fill="#ffffff" d="
  M 120.49 7.21
  Q 118.33 10.90 117.39 11.88
  Q 116.69 12.62 115.18 12.62
  A 1.56 1.49 -63.1 0 0 114.24 12.95
  C 112.72 14.15 110.04 17.08 107.97 16.92
  Q 104.75 16.68 100.75 16.66
  Q 65.17 16.50 18.97 16.45
  A 2.05 2.04 90.0 0 0 16.92 18.51
  L 17.23 108.50
  Q 17.23 109.01 16.95 109.40
  Q 15.76 111.06 14.42 112.46
  Q 13.07 113.87 11.79 115.77
  Q 8.89 120.11 4.25 121.61
  Q 2.04 117.83 2.05 115.75
  Q 2.32 66.44 2.25 17.12
  C 2.24 12.13 1.51 7.61 0.96 2.71
  A 1.50 1.50 0.0 0 1 2.00 1.12
  Q 3.31 0.70 4.74 0.76
  C 8.43 0.92 12.02 1.45 15.77 1.43
  Q 65.61 1.07 116.00 1.41
  Q 118.25 1.43 120.06 2.10
  A 2.29 2.29 0.0 0 1 121.46 4.92
  Q 121.09 6.15 119.72 6.76
  A 2.11 2.10 3.6 0 0 118.83 7.54
  Q 118.75 7.67 118.68 7.80
  Q 118.40 8.37 118.81 7.88
  Q 120.35 6.06 120.49 7.21
  Z"
/>
<path fill="#c3e8e8" d="
  M 125.55 9.47
  Q 125.43 9.37 125.32 9.27
  Q 121.39 8.23 119.75 12.62
  Q 119.04 15.43 116.48 17.57
  C 114.42 19.27 112.70 20.81 113.54 23.75
  Q 114.04 25.50 114.07 27.44
  Q 114.29 44.59 114.35 64.54
  C 114.40 76.91 113.73 89.77 113.70 102.26
  Q 113.69 105.87 113.91 109.22
  Q 114.23 113.96 110.28 113.69
  Q 104.83 113.33 99.46 113.48
  Q 75.69 113.61 51.94 113.40
  Q 46.24 113.35 40.49 112.82
  Q 34.67 112.28 29.37 112.34
  Q 26.76 112.38 24.02 111.95
  Q 18.98 111.17 15.24 114.90
  Q 12.43 117.71 9.33 120.25
  Q 6.75 122.37 7.42 125.54
  Q 7.74 127.06 6.22 127.39
  L 5.73 127.50
  Q 4.07 127.86 4.12 126.16
  L 4.25 121.61
  Q 8.89 120.11 11.79 115.77
  Q 13.07 113.87 14.42 112.46
  Q 15.76 111.06 16.95 109.40
  Q 17.23 109.01 17.23 108.50
  L 16.92 18.51
  A 2.05 2.04 90.0 0 1 18.97 16.45
  Q 65.17 16.50 100.75 16.66
  Q 104.75 16.68 107.97 16.92
  C 110.04 17.08 112.72 14.15 114.24 12.95
  A 1.56 1.49 -63.1 0 1 115.18 12.62
  Q 116.69 12.62 117.39 11.88
  Q 118.33 10.90 120.49 7.21
  Q 124.57 3.05 119.72 9.70
  Q 118.44 11.45 120.11 10.07
  L 122.44 8.13
  Q 122.76 7.87 123.17 7.92
  Q 124.64 8.13 125.55 9.47
  Z"
/>
<path fill="#b4e2e3" d="
  M 125.32 9.27
  Q 123.24 9.38 121.89 10.64
  Q 121.04 11.44 119.75 12.62
  Q 121.39 8.23 125.32 9.27
  Z"
/>
<path fill="#79cdcd" d="
  M 125.32 9.27
  Q 125.43 9.37 125.55 9.47
  Q 126.77 11.54 126.65 15.00
  C 126.52 18.87 126.08 22.61 126.09 26.49
  Q 126.19 70.40 126.61 120.77
  Q 126.63 123.02 126.89 125.41
  A 0.89 0.88 -0.8 0 1 125.93 126.39
  Q 118.61 125.80 110.75 125.72
  Q 64.20 125.28 26.00 125.65
  C 22.35 125.69 18.73 126.22 15.11 126.38
  Q 12.12 126.52 9.18 124.29
  Q 7.96 123.36 8.90 122.14
  Q 9.64 121.19 10.56 120.36
  C 12.21 118.88 14.20 118.68 15.70 116.93
  Q 15.94 116.66 16.30 116.62
  Q 16.71 116.58 16.86 116.19
  Q 17.49 114.49 19.19 113.76
  Q 22.52 112.33 25.83 112.65
  Q 28.60 112.92 28.69 112.92
  Q 35.80 113.20 42.91 113.55
  Q 50.11 113.91 57.10 113.84
  Q 71.43 113.68 85.75 113.75
  Q 92.60 113.79 99.46 113.48
  Q 104.83 113.33 110.28 113.69
  Q 114.23 113.96 113.91 109.22
  Q 113.69 105.87 113.70 102.26
  C 113.73 89.77 114.40 76.91 114.35 64.54
  Q 114.29 44.59 114.07 27.44
  Q 114.04 25.50 113.54 23.75
  C 112.70 20.81 114.42 19.27 116.48 17.57
  Q 119.04 15.43 119.75 12.62
  Q 121.04 11.44 121.89 10.64
  Q 123.24 9.38 125.32 9.27
  Z"
/>
</svg>
