<?xml version="1.0" encoding="UTF-8" standalone="no"?>
<!DOCTYPE svg PUBLIC "-//W3C//DTD SVG 1.1//EN" "http://www.w3.org/Graphics/SVG/1.1/DTD/svg11.dtd">
<svg xmlns="http://www.w3.org/2000/svg" version="1.1" viewBox="0.00 0.00 128.00 128.00">
<g stroke-width="2.00" fill="none" stroke-linecap="butt">
<path stroke="#bce5e6" vector-effect="non-scaling-stroke" d="
  M 6.19 120.97
  L 7.47 120.72
  A 1.08 1.08 0.0 0 0 8.21 120.17
  Q 8.59 119.45 9.18 119.08
  Q 10.00 118.55 9.29 119.22
  Q 9.00 119.50 8.85 119.89
  Q 8.57 120.67 9.25 120.19
  Q 13.72 116.97 16.24 113.93
  C 17.96 111.86 19.95 111.74 22.50 111.71
  Q 37.07 111.54 49.73 112.02
  Q 53.89 112.18 58.02 112.15
  Q 58.24 112.15 58.23 112.36
  Q 58.22 112.41 58.19 112.45
  Q 58.01 112.65 57.75 112.65
  Q 39.60 112.41 21.29 112.15"
/>
<path stroke="#97d8d8" vector-effect="non-scaling-stroke" d="
  M 21.29 112.15
  Q 18.07 114.53 14.96 117.84
  Q 14.22 118.64 12.13 119.49
  C 10.62 120.10 9.92 121.11 8.91 122.21
  A 1.38 1.37 -49.6 0 0 9.07 124.23
  C 13.72 127.83 18.51 125.86 23.74 125.79
  Q 59.83 125.30 85.00 125.57
  C 98.74 125.71 112.29 125.39 125.96 126.38
  A 0.89 0.88 89.4 0 0 126.90 125.41
  Q 126.65 123.00 126.63 120.78
  Q 126.23 74.59 126.06 27.09
  C 126.04 22.30 126.69 17.80 126.68 13.09
  Q 126.67 11.25 125.70 9.90
  A 1.38 1.36 -25.6 0 0 124.20 9.38
  Q 121.47 10.17 120.35 12.83
  Q 119.60 14.60 118.35 15.88
  Q 116.66 17.61 114.86 19.07
  A 3.49 3.47 -20.2 0 0 113.56 21.86
  L 114.04 42.11"
/>
<path stroke="#bce5e6" vector-effect="non-scaling-stroke" d="
  M 114.04 42.11
  Q 112.04 32.02 113.04 21.71
  Q 113.16 20.56 113.74 19.42
  Q 114.32 18.31 114.81 17.25
  Q 115.03 16.78 114.90 16.28
  L 114.73 15.63
  Q 114.59 15.07 115.05 14.72
  Q 117.99 12.54 119.85 8.93"
/>
<path stroke="#daf1f1" vector-effect="non-scaling-stroke" d="
  M 119.85 8.93
  Q 120.24 7.26 121.88 5.12
  A 1.66 1.65 -59.3 0 0 121.24 2.59
  Q 118.61 1.42 116.01 1.41
  Q 67.79 1.17 16.11 1.43
  C 11.44 1.46 6.88 0.49 2.39 0.95
  A 1.58 1.58 0.0 0 0 0.98 2.68
  C 1.44 7.22 2.23 12.05 2.24 16.83
  Q 2.35 63.43 2.04 114.33
  C 2.02 116.44 2.81 119.78 4.08 121.22
  Q 5.00 122.26 6.19 120.97"
/>
<path stroke="#e1f4f4" vector-effect="non-scaling-stroke" d="
  M 119.85 8.93
  Q 117.06 11.64 114.52 13.00
  Q 113.29 13.67 112.37 14.52
  C 110.70 16.06 109.16 17.19 106.72 16.92
  C 104.44 16.66 102.10 16.52 99.80 16.52
  Q 56.15 16.57 19.01 16.43
  A 2.21 2.20 -0.9 0 0 16.79 18.71
  Q 17.02 25.93 17.01 31.94
  Q 16.98 62.78 17.07 92.87
  Q 17.09 99.69 17.46 106.25
  C 17.52 107.35 17.30 108.81 16.55 109.68
  Q 15.57 110.82 14.39 111.83
  Q 13.12 112.90 12.38 113.93
  Q 10.86 116.05 9.24 118.13
  Q 7.65 120.18 6.19 120.97"
/>
<path stroke="#9edbdb" vector-effect="non-scaling-stroke" d="
  M 114.04 42.11
  Q 114.54 57.70 114.20 73.50
  Q 113.90 87.81 113.68 102.12
  C 113.64 104.65 115.63 114.33 110.52 113.33
  Q 109.04 113.05 107.63 113.06
  Q 97.30 113.15 87.96 113.10
  Q 83.03 113.07 75.56 112.72
  C 66.81 112.30 54.94 112.82 49.34 112.82
  Q 38.80 112.83 28.26 112.84
  Q 26.96 112.84 24.79 112.49
  Q 23.22 112.24 21.29 112.15"
/>
<path stroke="#62b2c9" vector-effect="non-scaling-stroke" d="
  M 60.01 54.22
  L 60.03 87.42
  A 0.58 0.57 -0.5 0 1 59.46 87.99
  L 46.70 88.10
  Q 46.00 88.11 46.00 88.80
  L 45.98 94.24
  Q 45.97 95.00 46.74 95.00
  L 80.26 94.99
  Q 81.01 94.99 81.01 94.24
  L 81.00 88.76
  Q 81.00 88.02 80.26 88.02
  L 68.82 87.98
  A 0.85 0.85 0.0 0 1 67.98 87.13
  L 67.97 48.28"
/>
<path stroke="#62a1c9" vector-effect="non-scaling-stroke" d="
  M 67.97 48.28
  L 68.00 30.53
  Q 68.00 29.98 67.45 29.98
  L 62.44 30.00
  Q 61.69 30.00 61.58 30.74
  C 60.48 38.19 53.00 38.92 46.73 39.00
  Q 46.01 39.01 46.00 39.74
  L 45.98 44.23
  Q 45.97 45.00 46.74 45.00
  L 59.30 45.00
  Q 59.92 45.00 59.93 45.62
  L 60.01 54.22"
/>
<path stroke="#006aaa" vector-effect="non-scaling-stroke" d="
  M 67.97 48.28
  Q 67.00 49.80 65.36 50.45
  A 1.66 1.65 7.1 0 0 64.60 51.04
  Q 63.57 52.48 62.01 53.38
  Q 60.75 54.11 60.01 54.22"
/>
<path stroke="#97d8d8" vector-effect="non-scaling-stroke" d="
  M 58.8300 113.2221
  A 0.19 0.19 0.0 0 0 58.6403 113.0318
  L 22.2004 112.9682
  A 0.19 0.19 0.0 0 0 22.0100 113.1579
  L 22.0100 113.1579
  A 0.19 0.19 0.0 0 0 22.1997 113.3482
  L 58.6396 113.4118
  A 0.19 0.19 0.0 0 0 58.8300 113.2221
  L 58.8300 113.2221"
/>
</g>
<path fill="#b4e2e3" d="
  M 0.00 0.00
  L 128.00 0.00
  L 128.00 128.00
  L 0.00 128.00
  L 0.00 0.00
  Z
  M 6.19 120.97
  L 7.47 120.72
  A 1.08 1.08 0.0 0 0 8.21 120.17
  Q 8.59 119.45 9.18 119.08
  Q 10.00 118.55 9.29 119.22
  Q 9.00 119.50 8.85 119.89
  Q 8.57 120.67 9.25 120.19
  Q 13.72 116.97 16.24 113.93
  C 17.96 111.86 19.95 111.74 22.50 111.71
  Q 37.07 111.54 49.73 112.02
  Q 53.89 112.18 58.02 112.15
  Q 58.24 112.15 58.23 112.36
  Q 58.22 112.41 58.19 112.45
  Q 58.01 112.65 57.75 112.65
  Q 39.60 112.41 21.29 112.15
  Q 18.07 114.53 14.96 117.84
  Q 14.22 118.64 12.13 119.49
  C 10.62 120.10 9.92 121.11 8.91 122.21
  A 1.38 1.37 -49.6 0 0 9.07 124.23
  C 13.72 127.83 18.51 125.86 23.74 125.79
  Q 59.83 125.30 85.00 125.57
  C 98.74 125.71 112.29 125.39 125.96 126.38
  A 0.89 0.88 89.4 0 0 126.90 125.41
  Q 126.65 123.00 126.63 120.78
  Q 126.23 74.59 126.06 27.09
  C 126.04 22.30 126.69 17.80 126.68 13.09
  Q 126.67 11.25 125.70 9.90
  A 1.38 1.36 -25.6 0 0 124.20 9.38
  Q 121.47 10.17 120.35 12.83
  Q 119.60 14.60 118.35 15.88
  Q 116.66 17.61 114.86 19.07
  A 3.49 3.47 -20.2 0 0 113.56 21.86
  L 114.04 42.11
  Q 112.04 32.02 113.04 21.71
  Q 113.16 20.56 113.74 19.42
  Q 114.32 18.31 114.81 17.25
  Q 115.03 16.78 114.90 16.28
  L 114.73 15.63
  Q 114.59 15.07 115.05 14.72
  Q 117.99 12.54 119.85 8.93
  Q 120.24 7.26 121.88 5.12
  A 1.66 1.65 -59.3 0 0 121.24 2.59
  Q 118.61 1.42 116.01 1.41
  Q 67.79 1.17 16.11 1.43
  C 11.44 1.46 6.88 0.49 2.39 0.95
  A 1.58 1.58 0.0 0 0 0.98 2.68
  C 1.44 7.22 2.23 12.05 2.24 16.83
  Q 2.35 63.43 2.04 114.33
  C 2.02 116.44 2.81 119.78 4.08 121.22
  Q 5.00 122.26 6.19 120.97
  Z"
/>
<path fill="#ffffff" d="
  M 119.85 8.93
  Q 117.06 11.64 114.52 13.00
  Q 113.29 13.67 112.37 14.52
  C 110.70 16.06 109.16 17.19 106.72 16.92
  C 104.44 16.66 102.10 16.52 99.80 16.52
  Q 56.15 16.57 19.01 16.43
  A 2.21 2.20 -0.9 0 0 16.79 18.71
  Q 17.02 25.93 17.01 31.94
  Q 16.98 62.78 17.07 92.87
  Q 17.09 99.69 17.46 106.25
  C 17.52 107.35 17.30 108.81 16.55 109.68
  Q 15.57 110.82 14.39 111.83
  Q 13.12 112.90 12.38 113.93
  Q 10.86 116.05 9.24 118.13
  Q 7.65 120.18 6.19 120.97
  Q 5.00 122.26 4.08 121.22
  C 2.81 119.78 2.02 116.44 2.04 114.33
  Q 2.35 63.43 2.24 16.83
  C 2.23 12.05 1.44 7.22 0.98 2.68
  A 1.58 1.58 0.0 0 1 2.39 0.95
  C 6.88 0.49 11.44 1.46 16.11 1.43
  Q 67.79 1.17 116.01 1.41
  Q 118.61 1.42 121.24 2.59
  A 1.66 1.65 -59.3 0 1 121.88 5.12
  Q 120.24 7.26 119.85 8.93
  Z"
/>
<path fill="#c3e8e8" d="
  M 114.04 42.11
  Q 114.54 57.70 114.20 73.50
  Q 113.90 87.81 113.68 102.12
  C 113.64 104.65 115.63 114.33 110.52 113.33
  Q 109.04 113.05 107.63 113.06
  Q 97.30 113.15 87.96 113.10
  Q 83.03 113.07 75.56 112.72
  C 66.81 112.30 54.94 112.82 49.34 112.82
  Q 38.80 112.83 28.26 112.84
  Q 26.96 112.84 24.79 112.49
  Q 23.22 112.24 21.29 112.15
  Q 39.60 112.41 57.75 112.65
  Q 58.01 112.65 58.19 112.45
  Q 58.22 112.41 58.23 112.36
  Q 58.24 112.15 58.02 112.15
  Q 53.89 112.18 49.73 112.02
  Q 37.07 111.54 22.50 111.71
  C 19.95 111.74 17.96 111.86 16.24 113.93
  Q 13.72 116.97 9.25 120.19
  Q 8.57 120.67 8.85 119.89
  Q 9.00 119.50 9.29 119.22
  Q 10.00 118.55 9.18 119.08
  Q 8.59 119.45 8.21 120.17
  A 1.08 1.08 0.0 0 1 7.47 120.72
  L 6.19 120.97
  Q 7.65 120.18 9.24 118.13
  Q 10.86 116.05 12.38 113.93
  Q 13.12 112.90 14.39 111.83
  Q 15.57 110.82 16.55 109.68
  C 17.30 108.81 17.52 107.35 17.46 106.25
  Q 17.09 99.69 17.07 92.87
  Q 16.98 62.78 17.01 31.94
  Q 17.02 25.93 16.79 18.71
  A 2.21 2.20 -0.9 0 1 19.01 16.43
  Q 56.15 16.57 99.80 16.52
  C 102.10 16.52 104.44 16.66 106.72 16.92
  C 109.16 17.19 110.70 16.06 112.37 14.52
  Q 113.29 13.67 114.52 13.00
  Q 117.06 11.64 119.85 8.93
  Q 117.99 12.54 115.05 14.72
  Q 114.59 15.07 114.73 15.63
  L 114.90 16.28
  Q 115.03 16.78 114.81 17.25
  Q 114.32 18.31 113.74 19.42
  Q 113.16 20.56 113.04 21.71
  Q 112.04 32.02 114.04 42.11
  Z
  M 60.01 54.22
  L 60.03 87.42
  A 0.58 0.57 -0.5 0 1 59.46 87.99
  L 46.70 88.10
  Q 46.00 88.11 46.00 88.80
  L 45.98 94.24
  Q 45.97 95.00 46.74 95.00
  L 80.26 94.99
  Q 81.01 94.99 81.01 94.24
  L 81.00 88.76
  Q 81.00 88.02 80.26 88.02
  L 68.82 87.98
  A 0.85 0.85 0.0 0 1 67.98 87.13
  L 67.97 48.28
  L 68.00 30.53
  Q 68.00 29.98 67.45 29.98
  L 62.44 30.00
  Q 61.69 30.00 61.58 30.74
  C 60.48 38.19 53.00 38.92 46.73 39.00
  Q 46.01 39.01 46.00 39.74
  L 45.98 44.23
  Q 45.97 45.00 46.74 45.00
  L 59.30 45.00
  Q 59.92 45.00 59.93 45.62
  L 60.01 54.22
  Z"
/>
<path fill="#79cdcd" d="
  M 21.29 112.15
  Q 23.22 112.24 24.79 112.49
  Q 26.96 112.84 28.26 112.84
  Q 38.80 112.83 49.34 112.82
  C 54.94 112.82 66.81 112.30 75.56 112.72
  Q 83.03 113.07 87.96 113.10
  Q 97.30 113.15 107.63 113.06
  Q 109.04 113.05 110.52 113.33
  C 115.63 114.33 113.64 104.65 113.68 102.12
  Q 113.90 87.81 114.20 73.50
  Q 114.54 57.70 114.04 42.11
  L 113.56 21.86
  A 3.49 3.47 -20.2 0 1 114.86 19.07
  Q 116.66 17.61 118.35 15.88
  Q 119.60 14.60 120.35 12.83
  Q 121.47 10.17 124.20 9.38
  A 1.38 1.36 -25.6 0 1 125.70 9.90
  Q 126.67 11.25 126.68 13.09
  C 126.69 17.80 126.04 22.30 126.06 27.09
  Q 126.23 74.59 126.63 120.78
  Q 126.65 123.00 126.90 125.41
  A 0.89 0.88 89.4 0 1 125.96 126.38
  C 112.29 125.39 98.74 125.71 85.00 125.57
  Q 59.83 125.30 23.74 125.79
  C 18.51 125.86 13.72 127.83 9.07 124.23
  A 1.38 1.37 -49.6 0 1 8.91 122.21
  C 9.92 121.11 10.62 120.10 12.13 119.49
  Q 14.22 118.64 14.96 117.84
  Q 18.07 114.53 21.29 112.15
  Z
  M 58.8300 113.2221
  A 0.19 0.19 0.0 0 1 58.6396 113.4118
  L 22.1997 113.3482
  A 0.19 0.19 0.0 0 1 22.0100 113.1579
  L 22.0100 113.1579
  A 0.19 0.19 0.0 0 1 22.2004 112.9682
  L 58.6403 113.0318
  A 0.19 0.19 0.0 0 1 58.8300 113.2221
  L 58.8300 113.2221
  Z"
/>
<path fill="#0059aa" d="
  M 67.97 48.28
  Q 67.00 49.80 65.36 50.45
  A 1.66 1.65 7.1 0 0 64.60 51.04
  Q 63.57 52.48 62.01 53.38
  Q 60.75 54.11 60.01 54.22
  L 59.93 45.62
  Q 59.92 45.00 59.30 45.00
  L 46.74 45.00
  Q 45.97 45.00 45.98 44.23
  L 46.00 39.74
  Q 46.01 39.01 46.73 39.00
  C 53.00 38.92 60.48 38.19 61.58 30.74
  Q 61.69 30.00 62.44 30.00
  L 67.45 29.98
  Q 68.00 29.98 68.00 30.53
  L 67.97 48.28
  Z"
/>
<path fill="#007baa" d="
  M 67.97 48.28
  L 67.98 87.13
  A 0.85 0.85 0.0 0 0 68.82 87.98
  L 80.26 88.02
  Q 81.00 88.02 81.00 88.76
  L 81.01 94.24
  Q 81.01 94.99 80.26 94.99
  L 46.74 95.00
  Q 45.97 95.00 45.98 94.24
  L 46.00 88.80
  Q 46.00 88.11 46.70 88.10
  L 59.46 87.99
  A 0.58 0.57 -0.5 0 0 60.03 87.42
  L 60.01 54.22
  Q 60.75 54.11 62.01 53.38
  Q 63.57 52.48 64.60 51.04
  A 1.66 1.65 7.1 0 1 65.36 50.45
  Q 67.00 49.80 67.97 48.28
  Z"
/>
<rect fill="#b4e2e3" x="-18.41" y="-0.19" transform="translate(40.42,113.19) rotate(0.1)" width="36.82" height="0.38" rx="0.19"/>
</svg>
