<?xml version="1.0" encoding="UTF-8" standalone="no"?>
<!DOCTYPE svg PUBLIC "-//W3C//DTD SVG 1.1//EN" "http://www.w3.org/Graphics/SVG/1.1/DTD/svg11.dtd">
<svg xmlns="http://www.w3.org/2000/svg" version="1.1" viewBox="0.00 0.00 128.00 128.00">
<g stroke-width="2.00" fill="none" stroke-linecap="butt">
<path stroke="#bce5e6" vector-effect="non-scaling-stroke" d="
  M 3.92 121.16
  L 4.03 126.07
  Q 4.06 127.37 5.36 127.37
  L 5.94 127.37
  Q 7.07 127.37 6.92 126.25
  Q 6.63 123.96 7.40 121.52
  Q 7.47 121.28 7.71 121.34
  Q 8.04 121.41 8.27 121.18
  Q 10.04 119.41 12.19 118.14
  Q 13.97 117.08 15.22 115.49
  C 16.27 114.16 18.40 112.18 20.24 111.88
  Q 21.32 111.70 22.35 111.69
  Q 35.63 111.56 51.54 111.65
  Q 51.94 111.66 52.30 111.48
  Q 52.52 111.36 52.76 111.36
  Q 68.57 111.26 84.97 111.98
  Q 93.28 112.34 101.71 111.89
  Q 104.53 111.74 107.55 112.11
  Q 107.70 112.13 107.69 112.28
  L 107.69 112.54
  Q 107.68 112.60 107.62 112.60
  Q 104.00 112.64 100.45 112.62
  C 99.45 112.61 98.49 113.25 97.75 113.22
  Q 69.29 112.43 54.75 112.64
  Q 32.26 112.96 22.00 112.75
  Q 20.95 112.72 20.26 113.65"
/>
<path stroke="#97d8d8" vector-effect="non-scaling-stroke" d="
  M 20.26 113.65
  Q 18.33 115.58 16.49 117.61
  Q 15.11 119.13 11.68 120.38
  Q 11.18 120.56 10.95 121.05
  Q 10.68 121.64 10.14 121.99
  A 1.73 1.73 0.0 0 0 9.36 123.32
  Q 9.30 124.13 9.86 124.68
  Q 10.38 125.20 10.15 124.50
  Q 9.88 123.65 10.38 122.88
  Q 11.88 120.62 14.61 120.17
  Q 15.16 120.09 14.66 120.33
  Q 14.51 120.40 14.33 120.36
  A 0.50 0.50 0.0 0 0 13.86 120.48
  L 11.74 122.48
  A 2.15 2.15 0.0 0 0 12.54 126.09
  Q 13.54 126.42 14.73 126.34
  Q 18.49 126.08 21.71 126.00
  Q 62.63 124.98 116.09 125.89
  Q 121.00 125.97 125.87 126.40
  A 0.94 0.94 0.0 0 0 126.89 125.40
  Q 126.70 122.84 126.67 120.45
  Q 126.16 75.18 126.06 25.67
  C 126.05 21.12 126.95 16.59 126.55 12.04
  Q 126.30 9.07 123.66 9.07
  Q 123.15 9.07 122.74 9.38
  Q 120.05 11.43 119.25 14.73
  Q 119.00 15.81 117.14 16.85"
/>
<path stroke="#bce5e6" vector-effect="non-scaling-stroke" d="
  M 117.14 16.85
  Q 117.80 15.84 118.67 13.51
  Q 119.46 11.39 122.46 8.87
  Q 122.84 8.54 123.34 8.63
  L 124.07 8.75
  Q 125.03 8.91 124.26 8.32
  Q 123.72 7.90 123.03 7.82
  Q 122.43 7.74 122.06 8.21
  Q 121.01 9.50 119.72 10.46
  Q 118.10 11.67 119.40 10.12
  Q 121.80 7.25 121.02 6.54"
/>
<path stroke="#daf1f1" vector-effect="non-scaling-stroke" d="
  M 121.02 6.54
  L 122.01 4.39
  A 1.24 1.24 0.0 0 0 121.50 2.80
  Q 119.05 1.38 116.25 1.37
  C 85.20 1.31 49.15 1.57 15.60 1.41
  C 11.12 1.38 7.04 0.62 2.68 0.87
  A 1.80 1.79 85.8 0 0 0.99 2.83
  C 1.42 7.40 2.23 11.74 2.24 16.42
  Q 2.34 65.44 2.08 114.75
  Q 2.06 117.62 3.92 121.16"
/>
<path stroke="#e1f4f4" vector-effect="non-scaling-stroke" d="
  M 121.02 6.54
  Q 118.92 9.14 116.54 11.40
  Q 115.29 12.60 113.75 13.48
  Q 112.21 14.37 110.83 15.65
  Q 109.43 16.95 108.23 16.88
  Q 99.52 16.36 90.50 16.40
  Q 53.84 16.54 18.90 16.35
  A 2.14 2.14 0.0 0 0 16.75 18.59
  Q 17.07 25.87 17.06 32.30
  Q 17.00 66.83 17.02 94.81
  Q 17.02 100.32 17.38 105.56
  C 17.67 109.89 15.30 110.65 12.84 113.10
  Q 11.74 114.20 11.09 115.77
  Q 10.51 117.20 9.85 118.04
  Q 7.18 121.49 3.92 121.16"
/>
<path stroke="#9edbdb" vector-effect="non-scaling-stroke" d="
  M 117.14 16.85
  C 115.17 18.94 112.97 19.77 113.48 23.50
  C 113.69 25.02 114.10 26.24 114.11 27.86
  Q 114.18 65.93 114.02 104.00
  Q 114.01 107.36 113.99 110.38
  A 2.71 2.70 -0.5 0 1 111.34 113.07
  Q 100.33 113.31 88.75 113.12
  C 66.82 112.77 44.89 112.93 22.95 112.92
  C 21.91 112.92 21.22 113.35 20.26 113.65"
/>
<path stroke="#62b0c9" vector-effect="non-scaling-stroke" d="
  M 71.90 42.26
  C 75.19 50.66 70.74 57.83 64.81 63.96
  Q 54.55 74.54 42.38 84.15
  Q 41.01 85.23 41.00 86.97
  Q 40.97 90.78 41.01 94.49
  A 0.52 0.52 0.0 0 0 41.53 95.00
  L 84.26 95.00
  Q 85.01 95.00 85.01 94.24
  L 85.00 87.75
  Q 84.99 87.00 84.25 87.00
  L 50.78 87.00
  Q 49.79 87.00 50.55 86.37
  Q 59.27 79.27 68.08 71.03
  C 76.18 63.46 83.14 55.47 81.71 43.52
  Q 81.06 38.11 76.99 34.40"
/>
<path stroke="#629dc9" vector-effect="non-scaling-stroke" d="
  M 76.99 34.40
  C 67.96 26.37 53.89 28.70 43.28 32.87
  Q 43.02 32.97 43.01 33.25
  Q 42.89 37.71 43.12 42.07
  A 0.06 0.05 75.0 0 0 43.20 42.12
  C 50.69 37.46 65.80 33.14 71.90 42.26"
/>
<path stroke="#0065aa" vector-effect="non-scaling-stroke" d="
  M 76.99 34.40
  Q 75.46 37.62 72.17 40.04
  Q 71.74 40.35 71.92 40.84
  Q 72.01 41.10 72.22 41.31
  Q 72.58 41.65 72.21 41.98
  L 71.90 42.26"
/>
</g>
<path fill="#b4e2e3" d="
  M 0.00 0.00
  L 128.00 0.00
  L 128.00 128.00
  L 0.00 128.00
  L 0.00 0.00
  Z
  M 3.92 121.16
  L 4.03 126.07
  Q 4.06 127.37 5.36 127.37
  L 5.94 127.37
  Q 7.07 127.37 6.92 126.25
  Q 6.63 123.96 7.40 121.52
  Q 7.47 121.28 7.71 121.34
  Q 8.04 121.41 8.27 121.18
  Q 10.04 119.41 12.19 118.14
  Q 13.97 117.08 15.22 115.49
  C 16.27 114.16 18.40 112.18 20.24 111.88
  Q 21.32 111.70 22.35 111.69
  Q 35.63 111.56 51.54 111.65
  Q 51.94 111.66 52.30 111.48
  Q 52.52 111.36 52.76 111.36
  Q 68.57 111.26 84.97 111.98
  Q 93.28 112.34 101.71 111.89
  Q 104.53 111.74 107.55 112.11
  Q 107.70 112.13 107.69 112.28
  L 107.69 112.54
  Q 107.68 112.60 107.62 112.60
  Q 104.00 112.64 100.45 112.62
  C 99.45 112.61 98.49 113.25 97.75 113.22
  Q 69.29 112.43 54.75 112.64
  Q 32.26 112.96 22.00 112.75
  Q 20.95 112.72 20.26 113.65
  Q 18.33 115.58 16.49 117.61
  Q 15.11 119.13 11.68 120.38
  Q 11.18 120.56 10.95 121.05
  Q 10.68 121.64 10.14 121.99
  A 1.73 1.73 0.0 0 0 9.36 123.32
  Q 9.30 124.13 9.86 124.68
  Q 10.38 125.20 10.15 124.50
  Q 9.88 123.65 10.38 122.88
  Q 11.88 120.62 14.61 120.17
  Q 15.16 120.09 14.66 120.33
  Q 14.51 120.40 14.33 120.36
  A 0.50 0.50 0.0 0 0 13.86 120.48
  L 11.74 122.48
  A 2.15 2.15 0.0 0 0 12.54 126.09
  Q 13.54 126.42 14.73 126.34
  Q 18.49 126.08 21.71 126.00
  Q 62.63 124.98 116.09 125.89
  Q 121.00 125.97 125.87 126.40
  A 0.94 0.94 0.0 0 0 126.89 125.40
  Q 126.70 122.84 126.67 120.45
  Q 126.16 75.18 126.06 25.67
  C 126.05 21.12 126.95 16.59 126.55 12.04
  Q 126.30 9.07 123.66 9.07
  Q 123.15 9.07 122.74 9.38
  Q 120.05 11.43 119.25 14.73
  Q 119.00 15.81 117.14 16.85
  Q 117.80 15.84 118.67 13.51
  Q 119.46 11.39 122.46 8.87
  Q 122.84 8.54 123.34 8.63
  L 124.07 8.75
  Q 125.03 8.91 124.26 8.32
  Q 123.72 7.90 123.03 7.82
  Q 122.43 7.74 122.06 8.21
  Q 121.01 9.50 119.72 10.46
  Q 118.10 11.67 119.40 10.12
  Q 121.80 7.25 121.02 6.54
  L 122.01 4.39
  A 1.24 1.24 0.0 0 0 121.50 2.80
  Q 119.05 1.38 116.25 1.37
  C 85.20 1.31 49.15 1.57 15.60 1.41
  C 11.12 1.38 7.04 0.62 2.68 0.87
  A 1.80 1.79 85.8 0 0 0.99 2.83
  C 1.42 7.40 2.23 11.74 2.24 16.42
  Q 2.34 65.44 2.08 114.75
  Q 2.06 117.62 3.92 121.16
  Z"
/>
<path fill="#ffffff" d="
  M 121.02 6.54
  Q 118.92 9.14 116.54 11.40
  Q 115.29 12.60 113.75 13.48
  Q 112.21 14.37 110.83 15.65
  Q 109.43 16.95 108.23 16.88
  Q 99.52 16.36 90.50 16.40
  Q 53.84 16.54 18.90 16.35
  A 2.14 2.14 0.0 0 0 16.75 18.59
  Q 17.07 25.87 17.06 32.30
  Q 17.00 66.83 17.02 94.81
  Q 17.02 100.32 17.38 105.56
  C 17.67 109.89 15.30 110.65 12.84 113.10
  Q 11.74 114.20 11.09 115.77
  Q 10.51 117.20 9.85 118.04
  Q 7.18 121.49 3.92 121.16
  Q 2.06 117.62 2.08 114.75
  Q 2.34 65.44 2.24 16.42
  C 2.23 11.74 1.42 7.40 0.99 2.83
  A 1.80 1.79 85.8 0 1 2.68 0.87
  C 7.04 0.62 11.12 1.38 15.60 1.41
  C 49.15 1.57 85.20 1.31 116.25 1.37
  Q 119.05 1.38 121.50 2.80
  A 1.24 1.24 0.0 0 1 122.01 4.39
  L 121.02 6.54
  Z"
/>
<path fill="#c3e8e8" d="
  M 121.02 6.54
  Q 121.80 7.25 119.40 10.12
  Q 118.10 11.67 119.72 10.46
  Q 121.01 9.50 122.06 8.21
  Q 122.43 7.74 123.03 7.82
  Q 123.72 7.90 124.26 8.32
  Q 125.03 8.91 124.07 8.75
  L 123.34 8.63
  Q 122.84 8.54 122.46 8.87
  Q 119.46 11.39 118.67 13.51
  Q 117.80 15.84 117.14 16.85
  C 115.17 18.94 112.97 19.77 113.48 23.50
  C 113.69 25.02 114.10 26.24 114.11 27.86
  Q 114.18 65.93 114.02 104.00
  Q 114.01 107.36 113.99 110.38
  A 2.71 2.70 -0.5 0 1 111.34 113.07
  Q 100.33 113.31 88.75 113.12
  C 66.82 112.77 44.89 112.93 22.95 112.92
  C 21.91 112.92 21.22 113.35 20.26 113.65
  Q 20.95 112.72 22.00 112.75
  Q 32.26 112.96 54.75 112.64
  Q 69.29 112.43 97.75 113.22
  C 98.49 113.25 99.45 112.61 100.45 112.62
  Q 104.00 112.64 107.62 112.60
  Q 107.68 112.60 107.69 112.54
  L 107.69 112.28
  Q 107.70 112.13 107.55 112.11
  Q 104.53 111.74 101.71 111.89
  Q 93.28 112.34 84.97 111.98
  Q 68.57 111.26 52.76 111.36
  Q 52.52 111.36 52.30 111.48
  Q 51.94 111.66 51.54 111.65
  Q 35.63 111.56 22.35 111.69
  Q 21.32 111.70 20.24 111.88
  C 18.40 112.18 16.27 114.16 15.22 115.49
  Q 13.97 117.08 12.19 118.14
  Q 10.04 119.41 8.27 121.18
  Q 8.04 121.41 7.71 121.34
  Q 7.47 121.28 7.40 121.52
  Q 6.63 123.96 6.92 126.25
  Q 7.07 127.37 5.94 127.37
  L 5.36 127.37
  Q 4.06 127.37 4.03 126.07
  L 3.92 121.16
  Q 7.18 121.49 9.85 118.04
  Q 10.51 117.20 11.09 115.77
  Q 11.74 114.20 12.84 113.10
  C 15.30 110.65 17.67 109.89 17.38 105.56
  Q 17.02 100.32 17.02 94.81
  Q 17.00 66.83 17.06 32.30
  Q 17.07 25.87 16.75 18.59
  A 2.14 2.14 0.0 0 1 18.90 16.35
  Q 53.84 16.54 90.50 16.40
  Q 99.52 16.36 108.23 16.88
  Q 109.43 16.95 110.83 15.65
  Q 112.21 14.37 113.75 13.48
  Q 115.29 12.60 116.54 11.40
  Q 118.92 9.14 121.02 6.54
  Z
  M 71.90 42.26
  C 75.19 50.66 70.74 57.83 64.81 63.96
  Q 54.55 74.54 42.38 84.15
  Q 41.01 85.23 41.00 86.97
  Q 40.97 90.78 41.01 94.49
  A 0.52 0.52 0.0 0 0 41.53 95.00
  L 84.26 95.00
  Q 85.01 95.00 85.01 94.24
  L 85.00 87.75
  Q 84.99 87.00 84.25 87.00
  L 50.78 87.00
  Q 49.79 87.00 50.55 86.37
  Q 59.27 79.27 68.08 71.03
  C 76.18 63.46 83.14 55.47 81.71 43.52
  Q 81.06 38.11 76.99 34.40
  C 67.96 26.37 53.89 28.70 43.28 32.87
  Q 43.02 32.97 43.01 33.25
  Q 42.89 37.71 43.12 42.07
  A 0.06 0.05 75.0 0 0 43.20 42.12
  C 50.69 37.46 65.80 33.14 71.90 42.26
  Z"
/>
<path fill="#79cdcd" d="
  M 20.26 113.65
  C 21.22 113.35 21.91 112.92 22.95 112.92
  C 44.89 112.93 66.82 112.77 88.75 113.12
  Q 100.33 113.31 111.34 113.07
  A 2.71 2.70 -0.5 0 0 113.99 110.38
  Q 114.01 107.36 114.02 104.00
  Q 114.18 65.93 114.11 27.86
  C 114.10 26.24 113.69 25.02 113.48 23.50
  C 112.97 19.77 115.17 18.94 117.14 16.85
  Q 119.00 15.81 119.25 14.73
  Q 120.05 11.43 122.74 9.38
  Q 123.15 9.07 123.66 9.07
  Q 126.30 9.07 126.55 12.04
  C 126.95 16.59 126.05 21.12 126.06 25.67
  Q 126.16 75.18 126.67 120.45
  Q 126.70 122.84 126.89 125.40
  A 0.94 0.94 0.0 0 1 125.87 126.40
  Q 121.00 125.97 116.09 125.89
  Q 62.63 124.98 21.71 126.00
  Q 18.49 126.08 14.73 126.34
  Q 13.54 126.42 12.54 126.09
  A 2.15 2.15 0.0 0 1 11.74 122.48
  L 13.86 120.48
  A 0.50 0.50 0.0 0 1 14.33 120.36
  Q 14.51 120.40 14.66 120.33
  Q 15.16 120.09 14.61 120.17
  Q 11.88 120.62 10.38 122.88
  Q 9.88 123.65 10.15 124.50
  Q 10.38 125.20 9.86 124.68
  Q 9.30 124.13 9.36 123.32
  A 1.73 1.73 0.0 0 1 10.14 121.99
  Q 10.68 121.64 10.95 121.05
  Q 11.18 120.56 11.68 120.38
  Q 15.11 119.13 16.49 117.61
  Q 18.33 115.58 20.26 113.65
  Z"
/>
<path fill="#0051aa" d="
  M 76.99 34.40
  Q 75.46 37.62 72.17 40.04
  Q 71.74 40.35 71.92 40.84
  Q 72.01 41.10 72.22 41.31
  Q 72.58 41.65 72.21 41.98
  L 71.90 42.26
  C 65.80 33.14 50.69 37.46 43.20 42.12
  A 0.06 0.05 75.0 0 1 43.12 42.07
  Q 42.89 37.71 43.01 33.25
  Q 43.02 32.97 43.28 32.87
  C 53.89 28.70 67.96 26.37 76.99 34.40
  Z"
/>
<path fill="#0078aa" d="
  M 76.99 34.40
  Q 81.06 38.11 81.71 43.52
  C 83.14 55.47 76.18 63.46 68.08 71.03
  Q 59.27 79.27 50.55 86.37
  Q 49.79 87.00 50.78 87.00
  L 84.25 87.00
  Q 84.99 87.00 85.00 87.75
  L 85.01 94.24
  Q 85.01 95.00 84.26 95.00
  L 41.53 95.00
  A 0.52 0.52 0.0 0 1 41.01 94.49
  Q 40.97 90.78 41.00 86.97
  Q 41.01 85.23 42.38 84.15
  Q 54.55 74.54 64.81 63.96
  C 70.74 57.83 75.19 50.66 71.90 42.26
  L 72.21 41.98
  Q 72.58 41.65 72.22 41.31
  Q 72.01 41.10 71.92 40.84
  Q 71.74 40.35 72.17 40.04
  Q 75.46 37.62 76.99 34.40
  Z"
/>
</svg>
