<?xml version="1.0" encoding="UTF-8" standalone="no"?>
<!DOCTYPE svg PUBLIC "-//W3C//DTD SVG 1.1//EN" "http://www.w3.org/Graphics/SVG/1.1/DTD/svg11.dtd">
<svg xmlns="http://www.w3.org/2000/svg" version="1.1" viewBox="0.00 0.00 128.00 128.00">
<g stroke-width="2.00" fill="none" stroke-linecap="butt">
<path stroke="#bce5e6" vector-effect="non-scaling-stroke" d="
  M 3.54 120.29
  Q 4.34 123.48 4.08 126.81
  Q 4.04 127.37 4.59 127.47
  Q 6.05 127.76 7.52 127.11
  A 0.61 0.61 0.0 0 0 7.82 126.27
  Q 7.07 124.78 7.10 123.04
  Q 7.11 122.53 7.44 122.15
  Q 9.49 119.83 11.89 118.36
  Q 12.75 117.84 13.40 117.12
  Q 14.08 116.38 14.79 115.74
  Q 15.92 114.72 16.77 113.61
  C 19.14 110.53 22.41 111.25 25.75 111.31
  Q 36.09 111.48 45.98 111.38
  Q 46.52 111.38 47.00 111.64
  Q 47.69 112.02 48.47 111.84
  Q 49.49 111.60 50.64 111.60
  Q 66.45 111.52 79.34 111.85
  C 87.28 112.05 95.14 111.91 103.13 111.91
  C 105.73 111.91 108.24 112.55 110.77 112.38
  A 2.72 2.71 -1.2 0 0 113.30 109.75
  Q 113.59 100.30 113.47 91.89
  Q 113.34 82.56 113.45 74.08
  Q 113.65 58.02 113.50 42.83
  C 113.49 41.74 112.85 40.88 112.82 39.74
  Q 112.53 30.25 112.90 20.77
  Q 112.93 20.21 113.32 19.82
  C 114.76 18.40 116.10 17.15 116.89 15.17
  Q 117.47 13.72 117.96 12.37
  Q 118.67 10.44 120.37 8.89
  Q 121.71 7.67 121.43 5.64"
/>
<path stroke="#daf1f1" vector-effect="non-scaling-stroke" d="
  M 121.43 5.64
  Q 123.00 3.24 120.74 2.33
  Q 118.43 1.42 116.25 1.41
  C 84.30 1.30 49.25 1.52 15.26 1.45
  C 12.22 1.44 9.26 1.10 6.27 0.80
  Q 4.24 0.60 2.18 1.06
  A 1.56 1.56 0.0 0 0 0.97 2.74
  C 1.43 7.35 2.24 11.74 2.24 16.46
  Q 2.33 66.11 2.05 115.75
  Q 2.04 117.44 3.54 120.29"
/>
<path stroke="#e1f4f4" vector-effect="non-scaling-stroke" d="
  M 121.43 5.64
  L 113.44 13.65
  Q 113.25 13.84 113.01 13.96
  C 110.58 15.25 110.06 17.16 106.74 16.90
  C 93.75 15.89 80.38 16.63 67.70 16.38
  Q 58.26 16.20 47.72 16.43
  Q 34.03 16.73 19.24 16.22
  A 2.21 2.20 -89.0 0 0 16.96 18.43
  L 17.11 108.32
  A 2.71 2.69 67.8 0 1 16.31 110.24
  Q 14.62 111.92 13.02 113.63
  Q 11.73 115.00 10.68 116.72
  Q 9.54 118.59 7.72 120.22
  Q 6.83 121.01 5.76 121.33
  Q 4.20 121.79 3.54 120.29"
/>
<path stroke="#97d8d8" vector-effect="non-scaling-stroke" d="
  M 13.39 120.71
  Q 13.40 120.85 13.31 120.96
  Q 13.16 121.18 12.90 121.12
  Q 12.32 120.97 12.17 121.58
  Q 12.07 121.95 11.75 122.18
  Q 10.82 122.82 10.68 124.08
  A 1.69 1.68 11.2 0 0 11.90 125.90
  C 15.14 126.82 18.08 126.03 21.37 125.96
  Q 66.92 125.00 117.50 125.90
  Q 121.78 125.98 125.83 126.40
  A 0.95 0.95 0.0 0 0 126.88 125.35
  Q 126.64 122.99 126.62 120.50
  Q 126.29 80.39 126.02 42.76
  Q 125.91 27.17 126.69 13.02
  Q 126.78 11.41 125.60 9.77
  Q 125.30 9.35 124.79 9.32
  Q 122.52 9.16 121.04 10.89
  C 120.50 11.53 120.58 12.18 119.92 12.76
  Q 119.23 13.37 119.46 12.47
  Q 119.50 12.32 119.54 12.16
  Q 119.71 11.51 119.36 12.08
  L 118.73 13.13
  A 0.82 0.81 -36.0 0 0 118.63 13.75
  Q 118.82 14.62 118.14 15.15
  Q 117.65 15.53 117.24 16.02
  C 115.97 17.53 113.65 19.95 113.53 22.01
  Q 113.11 29.10 113.57 36.89
  Q 114.05 45.05 114.10 51.59
  Q 114.32 76.67 113.70 101.07
  Q 113.60 104.85 114.05 108.36
  Q 114.31 110.30 113.26 111.86
  Q 112.11 113.60 109.74 113.15
  Q 108.01 112.83 106.23 112.84
  Q 96.25 112.92 86.34 112.90
  C 75.76 112.87 62.87 112.14 51.00 112.02
  Q 50.58 112.02 50.20 112.15
  Q 49.70 112.33 49.16 112.33
  Q 37.01 112.44 22.64 112.32
  C 20.56 112.30 18.76 113.21 17.67 115.00
  Q 15.90 117.90 12.38 119.28
  Q 11.79 119.52 11.47 120.06
  L 10.55 121.63
  Q 10.35 121.98 9.99 122.16
  Q 8.99 122.66 9.43 124.26
  Q 9.55 124.71 9.97 124.92
  L 10.26 125.07
  Q 10.70 125.28 10.55 124.82
  Q 9.61 121.92 13.25 120.61
  Q 13.39 120.56 13.39 120.71"
/>
<path stroke="#62abc9" vector-effect="non-scaling-stroke" d="
  M 74.03 44.17
  C 74.72 54.58 64.30 56.81 56.23 55.89
  Q 56.01 55.86 56.01 56.08
  L 55.99 62.76
  Q 55.99 63.05 56.29 63.07
  L 67.35 63.68"
/>
<path stroke="#62b2c9" vector-effect="non-scaling-stroke" d="
  M 67.35 63.68
  Q 76.25 66.60 75.01 76.80
  C 74.14 83.91 68.20 87.68 61.42 87.95
  Q 51.09 88.37 41.20 82.84
  A 0.05 0.04 17.2 0 0 41.13 82.87
  Q 40.89 87.53 41.03 91.68
  Q 41.04 91.92 41.26 92.01
  Q 51.97 96.36 62.29 95.88
  C 74.24 95.32 83.44 88.28 83.94 75.64
  Q 84.19 69.24 80.25 64.79
  Q 76.31 60.35 69.37 59.34"
/>
<path stroke="#62abc9" vector-effect="non-scaling-stroke" d="
  M 69.37 59.34
  Q 69.63 58.63 70.01 58.54
  C 81.05 55.98 87.34 44.72 79.36 34.94"
/>
<path stroke="#629ec9" vector-effect="non-scaling-stroke" d="
  M 79.36 34.94
  C 70.25 26.33 53.80 28.44 43.22 33.04
  Q 43.04 33.12 43.03 33.32
  Q 42.91 37.77 43.11 42.05
  A 0.06 0.06 0.0 0 0 43.20 42.10
  Q 55.25 35.31 66.74 37.47
  Q 72.51 38.55 74.03 44.17"
/>
<path stroke="#0060aa" vector-effect="non-scaling-stroke" d="
  M 79.36 34.94
  Q 78.76 35.37 78.89 35.74
  Q 79.01 36.06 79.30 36.21
  Q 79.80 36.45 79.36 36.79
  Q 79.25 36.88 79.11 36.91
  Q 78.52 37.02 78.30 37.58
  Q 77.49 39.59 75.35 40.70
  Q 74.87 40.94 74.74 41.46
  L 74.03 44.17"
/>
<path stroke="#0075aa" vector-effect="non-scaling-stroke" d="
  M 69.37 59.34
  L 68.85 61.32
  Q 68.73 61.76 68.27 61.85
  Q 66.66 62.16 67.35 63.68"
/>
</g>
<path fill="#b4e2e3" d="
  M 0.00 0.00
  L 128.00 0.00
  L 128.00 128.00
  L 0.00 128.00
  L 0.00 0.00
  Z
  M 3.54 120.29
  Q 4.34 123.48 4.08 126.81
  Q 4.04 127.37 4.59 127.47
  Q 6.05 127.76 7.52 127.11
  A 0.61 0.61 0.0 0 0 7.82 126.27
  Q 7.07 124.78 7.10 123.04
  Q 7.11 122.53 7.44 122.15
  Q 9.49 119.83 11.89 118.36
  Q 12.75 117.84 13.40 117.12
  Q 14.08 116.38 14.79 115.74
  Q 15.92 114.72 16.77 113.61
  C 19.14 110.53 22.41 111.25 25.75 111.31
  Q 36.09 111.48 45.98 111.38
  Q 46.52 111.38 47.00 111.64
  Q 47.69 112.02 48.47 111.84
  Q 49.49 111.60 50.64 111.60
  Q 66.45 111.52 79.34 111.85
  C 87.28 112.05 95.14 111.91 103.13 111.91
  C 105.73 111.91 108.24 112.55 110.77 112.38
  A 2.72 2.71 -1.2 0 0 113.30 109.75
  Q 113.59 100.30 113.47 91.89
  Q 113.34 82.56 113.45 74.08
  Q 113.65 58.02 113.50 42.83
  C 113.49 41.74 112.85 40.88 112.82 39.74
  Q 112.53 30.25 112.90 20.77
  Q 112.93 20.21 113.32 19.82
  C 114.76 18.40 116.10 17.15 116.89 15.17
  Q 117.47 13.72 117.96 12.37
  Q 118.67 10.44 120.37 8.89
  Q 121.71 7.67 121.43 5.64
  Q 123.00 3.24 120.74 2.33
  Q 118.43 1.42 116.25 1.41
  C 84.30 1.30 49.25 1.52 15.26 1.45
  C 12.22 1.44 9.26 1.10 6.27 0.80
  Q 4.24 0.60 2.18 1.06
  A 1.56 1.56 0.0 0 0 0.97 2.74
  C 1.43 7.35 2.24 11.74 2.24 16.46
  Q 2.33 66.11 2.05 115.75
  Q 2.04 117.44 3.54 120.29
  Z
  M 13.39 120.71
  Q 13.40 120.85 13.31 120.96
  Q 13.16 121.18 12.90 121.12
  Q 12.32 120.97 12.17 121.58
  Q 12.07 121.95 11.75 122.18
  Q 10.82 122.82 10.68 124.08
  A 1.69 1.68 11.2 0 0 11.90 125.90
  C 15.14 126.82 18.08 126.03 21.37 125.96
  Q 66.92 125.00 117.50 125.90
  Q 121.78 125.98 125.83 126.40
  A 0.95 0.95 0.0 0 0 126.88 125.35
  Q 126.64 122.99 126.62 120.50
  Q 126.29 80.39 126.02 42.76
  Q 125.91 27.17 126.69 13.02
  Q 126.78 11.41 125.60 9.77
  Q 125.30 9.35 124.79 9.32
  Q 122.52 9.16 121.04 10.89
  C 120.50 11.53 120.58 12.18 119.92 12.76
  Q 119.23 13.37 119.46 12.47
  Q 119.50 12.32 119.54 12.16
  Q 119.71 11.51 119.36 12.08
  L 118.73 13.13
  A 0.82 0.81 -36.0 0 0 118.63 13.75
  Q 118.82 14.62 118.14 15.15
  Q 117.65 15.53 117.24 16.02
  C 115.97 17.53 113.65 19.95 113.53 22.01
  Q 113.11 29.10 113.57 36.89
  Q 114.05 45.05 114.10 51.59
  Q 114.32 76.67 113.70 101.07
  Q 113.60 104.85 114.05 108.36
  Q 114.31 110.30 113.26 111.86
  Q 112.11 113.60 109.74 113.15
  Q 108.01 112.83 106.23 112.84
  Q 96.25 112.92 86.34 112.90
  C 75.76 112.87 62.87 112.14 51.00 112.02
  Q 50.58 112.02 50.20 112.15
  Q 49.70 112.33 49.16 112.33
  Q 37.01 112.44 22.64 112.32
  C 20.56 112.30 18.76 113.21 17.67 115.00
  Q 15.90 117.90 12.38 119.28
  Q 11.79 119.52 11.47 120.06
  L 10.55 121.63
  Q 10.35 121.98 9.99 122.16
  Q 8.99 122.66 9.43 124.26
  Q 9.55 124.71 9.97 124.92
  L 10.26 125.07
  Q 10.70 125.28 10.55 124.82
  Q 9.61 121.92 13.25 120.61
  Q 13.39 120.56 13.39 120.71
  Z"
/>
<path fill="#ffffff" d="
  M 121.43 5.64
  L 113.44 13.65
  Q 113.25 13.84 113.01 13.96
  C 110.58 15.25 110.06 17.16 106.74 16.90
  C 93.75 15.89 80.38 16.63 67.70 16.38
  Q 58.26 16.20 47.72 16.43
  Q 34.03 16.73 19.24 16.22
  A 2.21 2.20 -89.0 0 0 16.96 18.43
  L 17.11 108.32
  A 2.71 2.69 67.8 0 1 16.31 110.24
  Q 14.62 111.92 13.02 113.63
  Q 11.73 115.00 10.68 116.72
  Q 9.54 118.59 7.72 120.22
  Q 6.83 121.01 5.76 121.33
  Q 4.20 121.79 3.54 120.29
  Q 2.04 117.44 2.05 115.75
  Q 2.33 66.11 2.24 16.46
  C 2.24 11.74 1.43 7.35 0.97 2.74
  A 1.56 1.56 0.0 0 1 2.18 1.06
  Q 4.24 0.60 6.27 0.80
  C 9.26 1.10 12.22 1.44 15.26 1.45
  C 49.25 1.52 84.30 1.30 116.25 1.41
  Q 118.43 1.42 120.74 2.33
  Q 123.00 3.24 121.43 5.64
  Z"
/>
<path fill="#c3e8e8" d="
  M 121.43 5.64
  Q 121.71 7.67 120.37 8.89
  Q 118.67 10.44 117.96 12.37
  Q 117.47 13.72 116.89 15.17
  C 116.10 17.15 114.76 18.40 113.32 19.82
  Q 112.93 20.21 112.90 20.77
  Q 112.53 30.25 112.82 39.74
  C 112.85 40.88 113.49 41.74 113.50 42.83
  Q 113.65 58.02 113.45 74.08
  Q 113.34 82.56 113.47 91.89
  Q 113.59 100.30 113.30 109.75
  A 2.72 2.71 -1.2 0 1 110.77 112.38
  C 108.24 112.55 105.73 111.91 103.13 111.91
  C 95.14 111.91 87.28 112.05 79.34 111.85
  Q 66.45 111.52 50.64 111.60
  Q 49.49 111.60 48.47 111.84
  Q 47.69 112.02 47.00 111.64
  Q 46.52 111.38 45.98 111.38
  Q 36.09 111.48 25.75 111.31
  C 22.41 111.25 19.14 110.53 16.77 113.61
  Q 15.92 114.72 14.79 115.74
  Q 14.08 116.38 13.40 117.12
  Q 12.75 117.84 11.89 118.36
  Q 9.49 119.83 7.44 122.15
  Q 7.11 122.53 7.10 123.04
  Q 7.07 124.78 7.82 126.27
  A 0.61 0.61 0.0 0 1 7.52 127.11
  Q 6.05 127.76 4.59 127.47
  Q 4.04 127.37 4.08 126.81
  Q 4.34 123.48 3.54 120.29
  Q 4.20 121.79 5.76 121.33
  Q 6.83 121.01 7.72 120.22
  Q 9.54 118.59 10.68 116.72
  Q 11.73 115.00 13.02 113.63
  Q 14.62 111.92 16.31 110.24
  A 2.71 2.69 67.8 0 0 17.11 108.32
  L 16.96 18.43
  A 2.21 2.20 -89.0 0 1 19.24 16.22
  Q 34.03 16.73 47.72 16.43
  Q 58.26 16.20 67.70 16.38
  C 80.38 16.63 93.75 15.89 106.74 16.90
  C 110.06 17.16 110.58 15.25 113.01 13.96
  Q 113.25 13.84 113.44 13.65
  L 121.43 5.64
  Z
  M 74.03 44.17
  C 74.72 54.58 64.30 56.81 56.23 55.89
  Q 56.01 55.86 56.01 56.08
  L 55.99 62.76
  Q 55.99 63.05 56.29 63.07
  L 67.35 63.68
  Q 76.25 66.60 75.01 76.80
  C 74.14 83.91 68.20 87.68 61.42 87.95
  Q 51.09 88.37 41.20 82.84
  A 0.05 0.04 17.2 0 0 41.13 82.87
  Q 40.89 87.53 41.03 91.68
  Q 41.04 91.92 41.26 92.01
  Q 51.97 96.36 62.29 95.88
  C 74.24 95.32 83.44 88.28 83.94 75.64
  Q 84.19 69.24 80.25 64.79
  Q 76.31 60.35 69.37 59.34
  Q 69.63 58.63 70.01 58.54
  C 81.05 55.98 87.34 44.72 79.36 34.94
  C 70.25 26.33 53.80 28.44 43.22 33.04
  Q 43.04 33.12 43.03 33.32
  Q 42.91 37.77 43.11 42.05
  A 0.06 0.06 0.0 0 0 43.20 42.10
  Q 55.25 35.31 66.74 37.47
  Q 72.51 38.55 74.03 44.17
  Z"
/>
<path fill="#79cdcd" d="
  M 13.25 120.61
  Q 9.61 121.92 10.55 124.82
  Q 10.70 125.28 10.26 125.07
  L 9.97 124.92
  Q 9.55 124.71 9.43 124.26
  Q 8.99 122.66 9.99 122.16
  Q 10.35 121.98 10.55 121.63
  L 11.47 120.06
  Q 11.79 119.52 12.38 119.28
  Q 15.90 117.90 17.67 115.00
  C 18.76 113.21 20.56 112.30 22.64 112.32
  Q 37.01 112.44 49.16 112.33
  Q 49.70 112.33 50.20 112.15
  Q 50.58 112.02 51.00 112.02
  C 62.87 112.14 75.76 112.87 86.34 112.90
  Q 96.25 112.92 106.23 112.84
  Q 108.01 112.83 109.74 113.15
  Q 112.11 113.60 113.26 111.86
  Q 114.31 110.30 114.05 108.36
  Q 113.60 104.85 113.70 101.07
  Q 114.32 76.67 114.10 51.59
  Q 114.05 45.05 113.57 36.89
  Q 113.11 29.10 113.53 22.01
  C 113.65 19.95 115.97 17.53 117.24 16.02
  Q 117.65 15.53 118.14 15.15
  Q 118.82 14.62 118.63 13.75
  A 0.82 0.81 -36.0 0 1 118.73 13.13
  L 119.36 12.08
  Q 119.71 11.51 119.54 12.16
  Q 119.50 12.32 119.46 12.47
  Q 119.23 13.37 119.92 12.76
  C 120.58 12.18 120.50 11.53 121.04 10.89
  Q 122.52 9.16 124.79 9.32
  Q 125.30 9.35 125.60 9.77
  Q 126.78 11.41 126.69 13.02
  Q 125.91 27.17 126.02 42.76
  Q 126.29 80.39 126.62 120.50
  Q 126.64 122.99 126.88 125.35
  A 0.95 0.95 0.0 0 1 125.83 126.40
  Q 121.78 125.98 117.50 125.90
  Q 66.92 125.00 21.37 125.96
  C 18.08 126.03 15.14 126.82 11.90 125.90
  A 1.69 1.68 11.2 0 1 10.68 124.08
  Q 10.82 122.82 11.75 122.18
  Q 12.07 121.95 12.17 121.58
  Q 12.32 120.97 12.90 121.12
  Q 13.16 121.18 13.31 120.96
  Q 13.40 120.85 13.39 120.71
  Q 13.39 120.56 13.25 120.61
  Z"
/>
<path fill="#0053aa" d="
  M 79.36 34.94
  Q 78.76 35.37 78.89 35.74
  Q 79.01 36.06 79.30 36.21
  Q 79.80 36.45 79.36 36.79
  Q 79.25 36.88 79.11 36.91
  Q 78.52 37.02 78.30 37.58
  Q 77.49 39.59 75.35 40.70
  Q 74.87 40.94 74.74 41.46
  L 74.03 44.17
  Q 72.51 38.55 66.74 37.47
  Q 55.25 35.31 43.20 42.10
  A 0.06 0.06 0.0 0 1 43.11 42.05
  Q 42.91 37.77 43.03 33.32
  Q 43.04 33.12 43.22 33.04
  C 53.80 28.44 70.25 26.33 79.36 34.94
  Z"
/>
<path fill="#006daa" d="
  M 79.36 34.94
  C 87.34 44.72 81.05 55.98 70.01 58.54
  Q 69.63 58.63 69.37 59.34
  L 68.85 61.32
  Q 68.73 61.76 68.27 61.85
  Q 66.66 62.16 67.35 63.68
  L 56.29 63.07
  Q 55.99 63.05 55.99 62.76
  L 56.01 56.08
  Q 56.01 55.86 56.23 55.89
  C 64.30 56.81 74.72 54.58 74.03 44.17
  L 74.74 41.46
  Q 74.87 40.94 75.35 40.70
  Q 77.49 39.59 78.30 37.58
  Q 78.52 37.02 79.11 36.91
  Q 79.25 36.88 79.36 36.79
  Q 79.80 36.45 79.30 36.21
  Q 79.01 36.06 78.89 35.74
  Q 78.76 35.37 79.36 34.94
  Z"
/>
<path fill="#007caa" d="
  M 69.37 59.34
  Q 76.31 60.35 80.25 64.79
  Q 84.19 69.24 83.94 75.64
  C 83.44 88.28 74.24 95.32 62.29 95.88
  Q 51.97 96.36 41.26 92.01
  Q 41.04 91.92 41.03 91.68
  Q 40.89 87.53 41.13 82.87
  A 0.05 0.04 17.2 0 1 41.20 82.84
  Q 51.09 88.37 61.42 87.95
  C 68.20 87.68 74.14 83.91 75.01 76.80
  Q 76.25 66.60 67.35 63.68
  Q 66.66 62.16 68.27 61.85
  Q 68.73 61.76 68.85 61.32
  L 69.37 59.34
  Z"
/>
</svg>
