<?xml version="1.0" encoding="UTF-8" standalone="no"?>
<!DOCTYPE svg PUBLIC "-//W3C//DTD SVG 1.1//EN" "http://www.w3.org/Graphics/SVG/1.1/DTD/svg11.dtd">
<svg xmlns="http://www.w3.org/2000/svg" version="1.1" viewBox="0.00 0.00 128.00 128.00">
<g stroke-width="2.00" fill="none" stroke-linecap="butt">
<path stroke="#bce5e6" vector-effect="non-scaling-stroke" d="
  M 5.82 121.51
  L 10.95 118.82
  Q 11.42 118.57 11.58 118.07
  Q 11.71 117.67 12.12 117.57
  Q 12.59 117.44 12.93 117.10
  Q 14.86 115.12 17.08 113.36
  Q 19.07 111.78 21.74 111.80
  C 24.45 111.82 27.04 112.11 29.80 112.07
  Q 35.41 112.00 47.50 113.02
  Q 51.57 113.37 66.97 113.26"
/>
<path stroke="#97d8d8" vector-effect="non-scaling-stroke" d="
  M 66.97 113.26
  Q 45.34 114.53 23.74 113.45
  Q 22.51 113.39 21.50 113.72
  C 19.40 114.39 18.87 116.32 17.30 117.63
  Q 15.35 119.26 13.10 120.41
  C 11.87 121.04 10.97 121.99 9.98 122.94
  A 1.21 1.21 0.0 0 0 10.05 124.75
  Q 12.19 126.52 14.93 126.39
  C 18.76 126.21 22.52 125.72 26.43 125.68
  Q 63.37 125.29 101.67 125.68
  C 109.77 125.76 117.78 125.71 125.87 126.40
  A 0.95 0.94 0.3 0 0 126.89 125.39
  Q 126.68 122.59 126.66 119.96
  Q 126.31 77.97 126.03 40.94
  Q 125.92 26.97 126.68 14.26
  Q 126.80 12.31 126.10 10.52
  A 1.51 1.51 0.0 0 0 123.40 10.27
  Q 122.68 11.42 121.63 12.24
  Q 120.59 13.05 119.77 14.16
  Q 117.47 17.27 113.43 20.16"
/>
<path stroke="#bce5e6" vector-effect="non-scaling-stroke" d="
  M 113.43 20.16
  L 115.40 16.75
  Q 115.63 16.35 115.55 15.89
  Q 115.32 14.60 116.31 13.72
  Q 116.94 13.16 117.49 12.50
  Q 122.33 6.64 123.26 4.50
  Q 123.97 2.89 121.72 2.92"
/>
<path stroke="#daf1f1" vector-effect="non-scaling-stroke" d="
  M 121.72 2.92
  Q 119.23 1.40 116.00 1.40
  Q 65.88 1.29 15.77 1.39
  Q 12.91 1.40 10.27 1.16
  C 7.73 0.93 4.42 0.31 1.98 1.12
  A 1.47 1.46 -12.1 0 0 0.98 2.66
  C 1.44 7.40 2.24 11.90 2.25 16.79
  Q 2.33 65.40 2.04 114.00
  Q 2.00 120.97 5.82 121.51"
/>
<path stroke="#e1f4f4" vector-effect="non-scaling-stroke" d="
  M 121.72 2.92
  Q 122.34 4.03 121.57 5.22
  Q 119.93 7.75 118.35 9.16
  Q 115.62 11.58 112.58 14.33
  C 110.98 15.78 109.13 17.15 106.89 16.92
  C 104.64 16.69 102.34 16.52 100.04 16.52
  Q 59.26 16.54 19.05 16.43
  A 2.25 2.25 0.0 0 0 16.79 18.77
  Q 17.05 25.91 17.02 33.02
  Q 16.85 73.54 17.29 107.09
  Q 17.32 109.44 15.55 111.10
  Q 14.05 112.51 13.01 113.99
  Q 10.30 117.84 5.82 121.51"
/>
<path stroke="#9edbdb" vector-effect="non-scaling-stroke" d="
  M 113.43 20.16
  Q 114.65 27.97 114.44 36.17
  Q 114.12 48.26 114.12 48.35
  Q 114.25 75.32 113.71 102.00
  Q 113.64 105.49 114.00 108.76
  Q 114.26 111.09 112.79 112.97
  Q 112.45 113.40 111.90 113.40
  Q 106.03 113.34 100.16 113.40
  Q 100.12 113.40 92.35 113.81
  Q 88.58 114.01 84.50 113.68
  Q 76.40 113.02 66.97 113.26"
/>
<path stroke="#62b0c9" vector-effect="non-scaling-stroke" d="
  M 37.16 74.41
  Q 36.75 75.15 37.13 76.52
  Q 37.26 77.00 37.75 77.00
  L 68.50 77.00
  A 0.50 0.50 0.0 0 1 69.00 77.50
  L 69.01 94.25
  A 0.75 0.74 90.0 0 0 69.75 95.00
  L 76.25 95.00
  Q 77.00 95.00 77.00 94.25
  L 77.00 77.51
  A 0.49 0.49 0.0 0 1 77.49 77.02
  L 86.27 76.99
  Q 87.02 76.99 87.02 76.23
  L 86.98 70.74
  Q 86.98 70.01 86.25 70.01
  L 77.69 70.00
  A 0.72 0.72 0.0 0 1 76.98 69.28
  L 76.97 44.83"
/>
<path stroke="#62a4c9" vector-effect="non-scaling-stroke" d="
  M 76.97 44.83
  L 76.93 30.63
  Q 76.93 29.98 76.28 29.99
  L 70.29 30.00
  A 1.93 1.90 20.2 0 0 68.84 30.66
  Q 53.90 47.73 38.52 65.23
  Q 37.29 66.62 37.07 68.57
  Q 36.76 71.21 37.16 74.41"
/>
<path stroke="#006caa" vector-effect="non-scaling-stroke" d="
  M 76.97 44.83
  L 69.03 51.61"
/>
<path stroke="#62a4c9" vector-effect="non-scaling-stroke" d="
  M 69.03 51.61
  L 68.98 41.82
  Q 68.97 40.85 68.33 41.58
  L 43.66 69.62"
/>
<path stroke="#006caa" vector-effect="non-scaling-stroke" d="
  M 43.66 69.62
  L 37.16 74.41"
/>
<path stroke="#62b0c9" vector-effect="non-scaling-stroke" d="
  M 69.03 51.61
  L 68.94 69.22
  Q 68.93 69.73 68.43 69.76
  Q 56.33 70.47 43.66 69.62"
/>
</g>
<path fill="#b4e2e3" d="
  M 0.00 0.00
  L 128.00 0.00
  L 128.00 128.00
  L 0.00 128.00
  L 0.00 0.00
  Z
  M 5.82 121.51
  L 10.95 118.82
  Q 11.42 118.57 11.58 118.07
  Q 11.71 117.67 12.12 117.57
  Q 12.59 117.44 12.93 117.10
  Q 14.86 115.12 17.08 113.36
  Q 19.07 111.78 21.74 111.80
  C 24.45 111.82 27.04 112.11 29.80 112.07
  Q 35.41 112.00 47.50 113.02
  Q 51.57 113.37 66.97 113.26
  Q 45.34 114.53 23.74 113.45
  Q 22.51 113.39 21.50 113.72
  C 19.40 114.39 18.87 116.32 17.30 117.63
  Q 15.35 119.26 13.10 120.41
  C 11.87 121.04 10.97 121.99 9.98 122.94
  A 1.21 1.21 0.0 0 0 10.05 124.75
  Q 12.19 126.52 14.93 126.39
  C 18.76 126.21 22.52 125.72 26.43 125.68
  Q 63.37 125.29 101.67 125.68
  C 109.77 125.76 117.78 125.71 125.87 126.40
  A 0.95 0.94 0.3 0 0 126.89 125.39
  Q 126.68 122.59 126.66 119.96
  Q 126.31 77.97 126.03 40.94
  Q 125.92 26.97 126.68 14.26
  Q 126.80 12.31 126.10 10.52
  A 1.51 1.51 0.0 0 0 123.40 10.27
  Q 122.68 11.42 121.63 12.24
  Q 120.59 13.05 119.77 14.16
  Q 117.47 17.27 113.43 20.16
  L 115.40 16.75
  Q 115.63 16.35 115.55 15.89
  Q 115.32 14.60 116.31 13.72
  Q 116.94 13.16 117.49 12.50
  Q 122.33 6.64 123.26 4.50
  Q 123.97 2.89 121.72 2.92
  Q 119.23 1.40 116.00 1.40
  Q 65.88 1.29 15.77 1.39
  Q 12.91 1.40 10.27 1.16
  C 7.73 0.93 4.42 0.31 1.98 1.12
  A 1.47 1.46 -12.1 0 0 0.98 2.66
  C 1.44 7.40 2.24 11.90 2.25 16.79
  Q 2.33 65.40 2.04 114.00
  Q 2.00 120.97 5.82 121.51
  Z"
/>
<path fill="#ffffff" d="
  M 121.72 2.92
  Q 122.34 4.03 121.57 5.22
  Q 119.93 7.75 118.35 9.16
  Q 115.62 11.58 112.58 14.33
  C 110.98 15.78 109.13 17.15 106.89 16.92
  C 104.64 16.69 102.34 16.52 100.04 16.52
  Q 59.26 16.54 19.05 16.43
  A 2.25 2.25 0.0 0 0 16.79 18.77
  Q 17.05 25.91 17.02 33.02
  Q 16.85 73.54 17.29 107.09
  Q 17.32 109.44 15.55 111.10
  Q 14.05 112.51 13.01 113.99
  Q 10.30 117.84 5.82 121.51
  Q 2.00 120.97 2.04 114.00
  Q 2.33 65.40 2.25 16.79
  C 2.24 11.90 1.44 7.40 0.98 2.66
  A 1.47 1.46 -12.1 0 1 1.98 1.12
  C 4.42 0.31 7.73 0.93 10.27 1.16
  Q 12.91 1.40 15.77 1.39
  Q 65.88 1.29 116.00 1.40
  Q 119.23 1.40 121.72 2.92
  Z"
/>
<path fill="#c3e8e8" d="
  M 121.72 2.92
  Q 123.97 2.89 123.26 4.50
  Q 122.33 6.64 117.49 12.50
  Q 116.94 13.16 116.31 13.72
  Q 115.32 14.60 115.55 15.89
  Q 115.63 16.35 115.40 16.75
  L 113.43 20.16
  Q 114.65 27.97 114.44 36.17
  Q 114.12 48.26 114.12 48.35
  Q 114.25 75.32 113.71 102.00
  Q 113.64 105.49 114.00 108.76
  Q 114.26 111.09 112.79 112.97
  Q 112.45 113.40 111.90 113.40
  Q 106.03 113.34 100.16 113.40
  Q 100.12 113.40 92.35 113.81
  Q 88.58 114.01 84.50 113.68
  Q 76.40 113.02 66.97 113.26
  Q 51.57 113.37 47.50 113.02
  Q 35.41 112.00 29.80 112.07
  C 27.04 112.11 24.45 111.82 21.74 111.80
  Q 19.07 111.78 17.08 113.36
  Q 14.86 115.12 12.93 117.10
  Q 12.59 117.44 12.12 117.57
  Q 11.71 117.67 11.58 118.07
  Q 11.42 118.57 10.95 118.82
  L 5.82 121.51
  Q 10.30 117.84 13.01 113.99
  Q 14.05 112.51 15.55 111.10
  Q 17.32 109.44 17.29 107.09
  Q 16.85 73.54 17.02 33.02
  Q 17.05 25.91 16.79 18.77
  A 2.25 2.25 0.0 0 1 19.05 16.43
  Q 59.26 16.54 100.04 16.52
  C 102.34 16.52 104.64 16.69 106.89 16.92
  C 109.13 17.15 110.98 15.78 112.58 14.33
  Q 115.62 11.58 118.35 9.16
  Q 119.93 7.75 121.57 5.22
  Q 122.34 4.03 121.72 2.92
  Z
  M 37.16 74.41
  Q 36.75 75.15 37.13 76.52
  Q 37.26 77.00 37.75 77.00
  L 68.50 77.00
  A 0.50 0.50 0.0 0 1 69.00 77.50
  L 69.01 94.25
  A 0.75 0.74 90.0 0 0 69.75 95.00
  L 76.25 95.00
  Q 77.00 95.00 77.00 94.25
  L 77.00 77.51
  A 0.49 0.49 0.0 0 1 77.49 77.02
  L 86.27 76.99
  Q 87.02 76.99 87.02 76.23
  L 86.98 70.74
  Q 86.98 70.01 86.25 70.01
  L 77.69 70.00
  A 0.72 0.72 0.0 0 1 76.98 69.28
  L 76.97 44.83
  L 76.93 30.63
  Q 76.93 29.98 76.28 29.99
  L 70.29 30.00
  A 1.93 1.90 20.2 0 0 68.84 30.66
  Q 53.90 47.73 38.52 65.23
  Q 37.29 66.62 37.07 68.57
  Q 36.76 71.21 37.16 74.41
  Z"
/>
<path fill="#79cdcd" d="
  M 66.97 113.26
  Q 76.40 113.02 84.50 113.68
  Q 88.58 114.01 92.35 113.81
  Q 100.12 113.40 100.16 113.40
  Q 106.03 113.34 111.90 113.40
  Q 112.45 113.40 112.79 112.97
  Q 114.26 111.09 114.00 108.76
  Q 113.64 105.49 113.71 102.00
  Q 114.25 75.32 114.12 48.35
  Q 114.12 48.26 114.44 36.17
  Q 114.65 27.97 113.43 20.16
  Q 117.47 17.27 119.77 14.16
  Q 120.59 13.05 121.63 12.24
  Q 122.68 11.42 123.40 10.27
  A 1.51 1.51 0.0 0 1 126.10 10.52
  Q 126.80 12.31 126.68 14.26
  Q 125.92 26.97 126.03 40.94
  Q 126.31 77.97 126.66 119.96
  Q 126.68 122.59 126.89 125.39
  A 0.95 0.94 0.3 0 1 125.87 126.40
  C 117.78 125.71 109.77 125.76 101.67 125.68
  Q 63.37 125.29 26.43 125.68
  C 22.52 125.72 18.76 126.21 14.93 126.39
  Q 12.19 126.52 10.05 124.75
  A 1.21 1.21 0.0 0 1 9.98 122.94
  C 10.97 121.99 11.87 121.04 13.10 120.41
  Q 15.35 119.26 17.30 117.63
  C 18.87 116.32 19.40 114.39 21.50 113.72
  Q 22.51 113.39 23.74 113.45
  Q 45.34 114.53 66.97 113.26
  Z"
/>
<path fill="#0060aa" d="
  M 76.97 44.83
  L 69.03 51.61
  L 68.98 41.82
  Q 68.97 40.85 68.33 41.58
  L 43.66 69.62
  L 37.16 74.41
  Q 36.76 71.21 37.07 68.57
  Q 37.29 66.62 38.52 65.23
  Q 53.90 47.73 68.84 30.66
  A 1.93 1.90 20.2 0 1 70.29 30.00
  L 76.28 29.99
  Q 76.93 29.98 76.93 30.63
  L 76.97 44.83
  Z"
/>
<path fill="#c3e8e8" d="
  M 69.03 51.61
  L 68.94 69.22
  Q 68.93 69.73 68.43 69.76
  Q 56.33 70.47 43.66 69.62
  L 68.33 41.58
  Q 68.97 40.85 68.98 41.82
  L 69.03 51.61
  Z"
/>
<path fill="#0078aa" d="
  M 76.97 44.83
  L 76.98 69.28
  A 0.72 0.72 0.0 0 0 77.69 70.00
  L 86.25 70.01
  Q 86.98 70.01 86.98 70.74
  L 87.02 76.23
  Q 87.02 76.99 86.27 76.99
  L 77.49 77.02
  A 0.49 0.49 0.0 0 0 77.00 77.51
  L 77.00 94.25
  Q 77.00 95.00 76.25 95.00
  L 69.75 95.00
  A 0.75 0.74 -90.0 0 1 69.01 94.25
  L 69.00 77.50
  A 0.50 0.50 0.0 0 0 68.50 77.00
  L 37.75 77.00
  Q 37.26 77.00 37.13 76.52
  Q 36.75 75.15 37.16 74.41
  L 43.66 69.62
  Q 56.33 70.47 68.43 69.76
  Q 68.93 69.73 68.94 69.22
  L 69.03 51.61
  L 76.97 44.83
  Z"
/>
</svg>
