<?xml version="1.0" encoding="UTF-8" standalone="no"?>
<!DOCTYPE svg PUBLIC "-//W3C//DTD SVG 1.1//EN" "http://www.w3.org/Graphics/SVG/1.1/DTD/svg11.dtd">
<svg xmlns="http://www.w3.org/2000/svg" version="1.1" viewBox="0.00 0.00 128.00 128.00">
<g stroke-width="2.00" fill="none" stroke-linecap="butt">
<path stroke="#bce5e6" vector-effect="non-scaling-stroke" d="
  M 3.81 120.81
  L 4.05 126.58
  Q 4.07 127.07 4.50 127.30
  Q 5.95 128.09 7.10 126.90
  Q 7.45 126.54 7.34 126.05
  Q 6.94 124.27 7.20 122.46
  Q 7.28 121.96 7.66 121.63
  Q 9.95 119.66 12.58 118.09
  Q 13.98 117.26 15.11 115.76
  C 17.08 113.17 19.96 110.91 23.46 111.39
  Q 25.26 111.63 27.06 111.63
  Q 36.63 111.61 46.73 111.65
  Q 46.97 111.65 47.20 111.74
  Q 47.56 111.88 47.95 111.88
  Q 57.47 111.87 67.00 111.80
  Q 67.26 111.80 67.44 111.94
  Q 67.70 112.16 68.04 112.14
  Q 74.23 111.74 80.27 112.82"
/>
<path stroke="#97d8d8" vector-effect="non-scaling-stroke" d="
  M 80.27 112.82
  L 21.87 112.46
  A 1.91 1.88 -61.9 0 0 20.79 112.80
  Q 17.47 115.14 14.75 118.31
  A 1.77 1.77 0.0 0 1 13.94 118.84
  Q 10.77 119.87 9.46 122.51
  Q 8.77 123.90 10.10 124.98
  Q 10.62 125.39 10.62 124.73
  L 10.62 123.44
  Q 10.62 122.97 10.96 122.66
  Q 12.38 121.31 13.88 120.41
  Q 14.31 120.15 13.98 120.54
  C 13.37 121.25 12.60 121.23 12.10 122.05
  Q 11.03 123.82 11.76 125.48
  Q 11.97 125.95 12.47 126.07
  C 15.52 126.80 18.43 125.97 21.50 125.91
  Q 60.71 125.23 82.00 125.52
  C 96.48 125.72 111.44 125.24 125.91 126.39
  A 0.92 0.91 -88.9 0 0 126.89 125.44
  Q 126.79 123.25 126.76 121.13
  Q 126.11 74.66 126.08 25.72
  C 126.08 21.12 126.92 16.58 126.57 12.02
  Q 126.42 9.96 124.94 9.65
  Q 124.43 9.55 123.99 9.82
  L 121.28 11.54
  Q 120.90 11.78 120.71 12.18
  Q 120.18 13.30 119.53 14.43
  Q 119.42 14.62 119.23 14.50
  L 119.23 14.50
  Q 119.11 14.42 119.18 14.30
  Q 119.91 13.07 120.13 11.81
  Q 120.21 11.35 120.67 11.41
  Q 121.26 11.48 121.35 10.87
  Q 121.40 10.53 121.67 10.32
  Q 122.88 9.37 124.14 9.20
  A 0.04 0.04 0.0 0 0 124.13 9.12
  L 123.48 9.12
  Q 122.94 9.12 122.54 9.48
  Q 121.78 10.15 120.78 10.47
  A 1.29 1.29 0.0 0 0 120.00 11.15
  Q 119.05 13.18 118.35 15.23
  Q 117.99 16.29 115.32 18.05"
/>
<path stroke="#bce5e6" vector-effect="non-scaling-stroke" d="
  M 115.32 18.05
  Q 116.10 16.66 116.46 15.57
  Q 117.12 13.55 117.41 13.07
  Q 118.25 11.65 119.30 10.37
  Q 120.39 9.04 121.24 7.70
  Q 122.24 6.16 123.39 5.00
  Q 123.72 4.67 123.63 4.21
  Q 123.36 2.87 121.33 2.58"
/>
<path stroke="#daf1f1" vector-effect="non-scaling-stroke" d="
  M 121.33 2.58
  Q 118.44 1.38 116.00 1.38
  Q 64.55 1.36 16.39 1.40
  C 11.71 1.40 7.34 0.70 2.76 0.84
  A 1.85 1.85 0.0 0 0 0.98 2.90
  C 1.44 6.80 2.23 11.96 2.25 16.40
  Q 2.36 62.03 2.05 115.75
  Q 2.04 117.65 3.81 120.81"
/>
<path stroke="#e1f4f4" vector-effect="non-scaling-stroke" d="
  M 121.33 2.58
  Q 122.69 5.77 118.73 9.12
  Q 117.90 9.82 117.50 10.35
  Q 117.25 10.69 116.92 10.93
  L 109.95 16.15
  A 3.77 3.74 -61.0 0 1 107.37 16.90
  C 100.14 16.31 92.65 16.27 85.30 16.68
  C 79.33 17.01 71.18 16.65 67.67 16.67
  Q 42.75 16.79 18.87 16.44
  A 1.93 1.92 1.4 0 0 16.91 18.30
  C 16.78 22.51 17.06 26.65 17.05 30.86
  Q 17.01 64.12 17.04 94.80
  Q 17.05 100.63 17.38 105.50
  Q 17.51 107.26 16.92 109.02
  Q 16.77 109.46 16.37 109.70
  Q 15.00 110.53 13.70 112.24
  Q 11.88 114.63 11.51 115.03
  Q 9.25 117.50 7.19 120.11
  Q 6.47 121.02 5.79 121.28
  Q 4.54 121.76 3.81 120.81"
/>
<path stroke="#9edbdb" vector-effect="non-scaling-stroke" d="
  M 115.32 18.05
  Q 115.44 18.78 113.86 20.17
  Q 113.47 20.51 113.45 21.03
  Q 113.09 28.47 113.55 35.79
  Q 114.04 43.58 114.06 50.01
  C 114.11 65.54 114.06 81.05 113.76 96.55
  Q 113.62 103.48 113.88 110.37
  A 2.69 2.68 89.2 0 1 111.17 113.16
  L 80.27 112.82"
/>
<path stroke="#62a6c9" vector-effect="non-scaling-stroke" d="
  M 45.03 51.28
  L 45.13 62.37
  Q 45.14 62.89 45.64 62.76
  C 53.18 60.80 61.97 60.01 69.40 62.69"
/>
<path stroke="#62b2c9" vector-effect="non-scaling-stroke" d="
  M 69.40 62.69
  C 76.05 65.79 77.13 72.38 75.24 78.82
  C 73.62 84.32 68.71 87.49 63.11 87.89
  Q 52.25 88.66 42.19 82.79
  A 0.04 0.04 0.0 0 0 42.13 82.82
  Q 41.88 87.45 42.03 91.94
  A 0.36 0.35 10.8 0 0 42.25 92.25
  C 53.98 97.05 70.51 98.62 79.65 88.47
  C 84.54 83.05 86.10 74.26 84.10 67.25
  Q 81.93 59.69 73.89 56.20"
/>
<path stroke="#62a6c9" vector-effect="non-scaling-stroke" d="
  M 73.89 56.20
  Q 64.25 52.90 53.75 54.52
  A 0.67 0.66 85.9 0 1 52.99 53.86
  L 52.99 43.25"
/>
<path stroke="#629ec9" vector-effect="non-scaling-stroke" d="
  M 52.99 43.25
  L 53.08 37.59
  Q 53.09 36.99 53.69 36.99
  L 84.50 36.99
  Q 85.00 36.99 85.00 36.50
  L 84.99 29.49
  Q 84.99 28.98 84.49 28.98
  L 45.74 28.99
  A 0.72 0.72 0.0 0 0 45.02 29.71
  L 45.03 51.28"
/>
<path stroke="#005caa" vector-effect="non-scaling-stroke" d="
  M 52.99 43.25
  Q 51.92 44.17 51.79 45.31
  Q 51.73 45.88 51.15 45.86
  Q 50.99 45.85 50.85 45.92
  Q 50.47 46.11 50.16 46.43
  Q 47.73 48.96 45.03 51.28"
/>
<path stroke="#0070aa" vector-effect="non-scaling-stroke" d="
  M 73.89 56.20
  Q 73.80 58.35 72.58 58.19
  Q 71.17 59.10 70.61 60.63
  A 0.38 0.37 -74.4 0 1 70.19 60.87
  Q 69.99 60.83 69.82 60.87
  Q 69.29 60.98 69.33 61.51
  L 69.40 62.69"
/>
</g>
<path fill="#b4e2e3" d="
  M 0.00 0.00
  L 128.00 0.00
  L 128.00 128.00
  L 0.00 128.00
  L 0.00 0.00
  Z
  M 3.81 120.81
  L 4.05 126.58
  Q 4.07 127.07 4.50 127.30
  Q 5.95 128.09 7.10 126.90
  Q 7.45 126.54 7.34 126.05
  Q 6.94 124.27 7.20 122.46
  Q 7.28 121.96 7.66 121.63
  Q 9.95 119.66 12.58 118.09
  Q 13.98 117.26 15.11 115.76
  C 17.08 113.17 19.96 110.91 23.46 111.39
  Q 25.26 111.63 27.06 111.63
  Q 36.63 111.61 46.73 111.65
  Q 46.97 111.65 47.20 111.74
  Q 47.56 111.88 47.95 111.88
  Q 57.47 111.87 67.00 111.80
  Q 67.26 111.80 67.44 111.94
  Q 67.70 112.16 68.04 112.14
  Q 74.23 111.74 80.27 112.82
  L 21.87 112.46
  A 1.91 1.88 -61.9 0 0 20.79 112.80
  Q 17.47 115.14 14.75 118.31
  A 1.77 1.77 0.0 0 1 13.94 118.84
  Q 10.77 119.87 9.46 122.51
  Q 8.77 123.90 10.10 124.98
  Q 10.62 125.39 10.62 124.73
  L 10.62 123.44
  Q 10.62 122.97 10.96 122.66
  Q 12.38 121.31 13.88 120.41
  Q 14.31 120.15 13.98 120.54
  C 13.37 121.25 12.60 121.23 12.10 122.05
  Q 11.03 123.82 11.76 125.48
  Q 11.97 125.95 12.47 126.07
  C 15.52 126.80 18.43 125.97 21.50 125.91
  Q 60.71 125.23 82.00 125.52
  C 96.48 125.72 111.44 125.24 125.91 126.39
  A 0.92 0.91 -88.9 0 0 126.89 125.44
  Q 126.79 123.25 126.76 121.13
  Q 126.11 74.66 126.08 25.72
  C 126.08 21.12 126.92 16.58 126.57 12.02
  Q 126.42 9.96 124.94 9.65
  Q 124.43 9.55 123.99 9.82
  L 121.28 11.54
  Q 120.90 11.78 120.71 12.18
  Q 120.18 13.30 119.53 14.43
  Q 119.42 14.62 119.23 14.50
  L 119.23 14.50
  Q 119.11 14.42 119.18 14.30
  Q 119.91 13.07 120.13 11.81
  Q 120.21 11.35 120.67 11.41
  Q 121.26 11.48 121.35 10.87
  Q 121.40 10.53 121.67 10.32
  Q 122.88 9.37 124.14 9.20
  A 0.04 0.04 0.0 0 0 124.13 9.12
  L 123.48 9.12
  Q 122.94 9.12 122.54 9.48
  Q 121.78 10.15 120.78 10.47
  A 1.29 1.29 0.0 0 0 120.00 11.15
  Q 119.05 13.18 118.35 15.23
  Q 117.99 16.29 115.32 18.05
  Q 116.10 16.66 116.46 15.57
  Q 117.12 13.55 117.41 13.07
  Q 118.25 11.65 119.30 10.37
  Q 120.39 9.04 121.24 7.70
  Q 122.24 6.16 123.39 5.00
  Q 123.72 4.67 123.63 4.21
  Q 123.36 2.87 121.33 2.58
  Q 118.44 1.38 116.00 1.38
  Q 64.55 1.36 16.39 1.40
  C 11.71 1.40 7.34 0.70 2.76 0.84
  A 1.85 1.85 0.0 0 0 0.98 2.90
  C 1.44 6.80 2.23 11.96 2.25 16.40
  Q 2.36 62.03 2.05 115.75
  Q 2.04 117.65 3.81 120.81
  Z"
/>
<path fill="#ffffff" d="
  M 121.33 2.58
  Q 122.69 5.77 118.73 9.12
  Q 117.90 9.82 117.50 10.35
  Q 117.25 10.69 116.92 10.93
  L 109.95 16.15
  A 3.77 3.74 -61.0 0 1 107.37 16.90
  C 100.14 16.31 92.65 16.27 85.30 16.68
  C 79.33 17.01 71.18 16.65 67.67 16.67
  Q 42.75 16.79 18.87 16.44
  A 1.93 1.92 1.4 0 0 16.91 18.30
  C 16.78 22.51 17.06 26.65 17.05 30.86
  Q 17.01 64.12 17.04 94.80
  Q 17.05 100.63 17.38 105.50
  Q 17.51 107.26 16.92 109.02
  Q 16.77 109.46 16.37 109.70
  Q 15.00 110.53 13.70 112.24
  Q 11.88 114.63 11.51 115.03
  Q 9.25 117.50 7.19 120.11
  Q 6.47 121.02 5.79 121.28
  Q 4.54 121.76 3.81 120.81
  Q 2.04 117.65 2.05 115.75
  Q 2.36 62.03 2.25 16.40
  C 2.23 11.96 1.44 6.80 0.98 2.90
  A 1.85 1.85 0.0 0 1 2.76 0.84
  C 7.34 0.70 11.71 1.40 16.39 1.40
  Q 64.55 1.36 116.00 1.38
  Q 118.44 1.38 121.33 2.58
  Z"
/>
<path fill="#c3e8e8" d="
  M 121.33 2.58
  Q 123.36 2.87 123.63 4.21
  Q 123.72 4.67 123.39 5.00
  Q 122.24 6.16 121.24 7.70
  Q 120.39 9.04 119.30 10.37
  Q 118.25 11.65 117.41 13.07
  Q 117.12 13.55 116.46 15.57
  Q 116.10 16.66 115.32 18.05
  Q 115.44 18.78 113.86 20.17
  Q 113.47 20.51 113.45 21.03
  Q 113.09 28.47 113.55 35.79
  Q 114.04 43.58 114.06 50.01
  C 114.11 65.54 114.06 81.05 113.76 96.55
  Q 113.62 103.48 113.88 110.37
  A 2.69 2.68 89.2 0 1 111.17 113.16
  L 80.27 112.82
  Q 74.23 111.74 68.04 112.14
  Q 67.70 112.16 67.44 111.94
  Q 67.26 111.80 67.00 111.80
  Q 57.47 111.87 47.95 111.88
  Q 47.56 111.88 47.20 111.74
  Q 46.97 111.65 46.73 111.65
  Q 36.63 111.61 27.06 111.63
  Q 25.26 111.63 23.46 111.39
  C 19.96 110.91 17.08 113.17 15.11 115.76
  Q 13.98 117.26 12.58 118.09
  Q 9.95 119.66 7.66 121.63
  Q 7.28 121.96 7.20 122.46
  Q 6.94 124.27 7.34 126.05
  Q 7.45 126.54 7.10 126.90
  Q 5.95 128.09 4.50 127.30
  Q 4.07 127.07 4.05 126.58
  L 3.81 120.81
  Q 4.54 121.76 5.79 121.28
  Q 6.47 121.02 7.19 120.11
  Q 9.25 117.50 11.51 115.03
  Q 11.88 114.63 13.70 112.24
  Q 15.00 110.53 16.37 109.70
  Q 16.77 109.46 16.92 109.02
  Q 17.51 107.26 17.38 105.50
  Q 17.05 100.63 17.04 94.80
  Q 17.01 64.12 17.05 30.86
  C 17.06 26.65 16.78 22.51 16.91 18.30
  A 1.93 1.92 1.4 0 1 18.87 16.44
  Q 42.75 16.79 67.67 16.67
  C 71.18 16.65 79.33 17.01 85.30 16.68
  C 92.65 16.27 100.14 16.31 107.37 16.90
  A 3.77 3.74 -61.0 0 0 109.95 16.15
  L 116.92 10.93
  Q 117.25 10.69 117.50 10.35
  Q 117.90 9.82 118.73 9.12
  Q 122.69 5.77 121.33 2.58
  Z
  M 45.03 51.28
  L 45.13 62.37
  Q 45.14 62.89 45.64 62.76
  C 53.18 60.80 61.97 60.01 69.40 62.69
  C 76.05 65.79 77.13 72.38 75.24 78.82
  C 73.62 84.32 68.71 87.49 63.11 87.89
  Q 52.25 88.66 42.19 82.79
  A 0.04 0.04 0.0 0 0 42.13 82.82
  Q 41.88 87.45 42.03 91.94
  A 0.36 0.35 10.8 0 0 42.25 92.25
  C 53.98 97.05 70.51 98.62 79.65 88.47
  C 84.54 83.05 86.10 74.26 84.10 67.25
  Q 81.93 59.69 73.89 56.20
  Q 64.25 52.90 53.75 54.52
  A 0.67 0.66 85.9 0 1 52.99 53.86
  L 52.99 43.25
  L 53.08 37.59
  Q 53.09 36.99 53.69 36.99
  L 84.50 36.99
  Q 85.00 36.99 85.00 36.50
  L 84.99 29.49
  Q 84.99 28.98 84.49 28.98
  L 45.74 28.99
  A 0.72 0.72 0.0 0 0 45.02 29.71
  L 45.03 51.28
  Z"
/>
<path fill="#79cdcd" d="
  M 80.27 112.82
  L 111.17 113.16
  A 2.69 2.68 89.2 0 0 113.88 110.37
  Q 113.62 103.48 113.76 96.55
  C 114.06 81.05 114.11 65.54 114.06 50.01
  Q 114.04 43.58 113.55 35.79
  Q 113.09 28.47 113.45 21.03
  Q 113.47 20.51 113.86 20.17
  Q 115.44 18.78 115.32 18.05
  Q 117.99 16.29 118.35 15.23
  Q 119.05 13.18 120.00 11.15
  A 1.29 1.29 0.0 0 1 120.78 10.47
  Q 121.78 10.15 122.54 9.48
  Q 122.94 9.12 123.48 9.12
  L 124.13 9.12
  A 0.04 0.04 0.0 0 1 124.14 9.20
  Q 122.88 9.37 121.67 10.32
  Q 121.40 10.53 121.35 10.87
  Q 121.26 11.48 120.67 11.41
  Q 120.21 11.35 120.13 11.81
  Q 119.91 13.07 119.18 14.30
  Q 119.11 14.42 119.23 14.50
  L 119.23 14.50
  Q 119.42 14.62 119.53 14.43
  Q 120.18 13.30 120.71 12.18
  Q 120.90 11.78 121.28 11.54
  L 123.99 9.82
  Q 124.43 9.55 124.94 9.65
  Q 126.42 9.96 126.57 12.02
  C 126.92 16.58 126.08 21.12 126.08 25.72
  Q 126.11 74.66 126.76 121.13
  Q 126.79 123.25 126.89 125.44
  A 0.92 0.91 -88.9 0 1 125.91 126.39
  C 111.44 125.24 96.48 125.72 82.00 125.52
  Q 60.71 125.23 21.50 125.91
  C 18.43 125.97 15.52 126.80 12.47 126.07
  Q 11.97 125.95 11.76 125.48
  Q 11.03 123.82 12.10 122.05
  C 12.60 121.23 13.37 121.25 13.98 120.54
  Q 14.31 120.15 13.88 120.41
  Q 12.38 121.31 10.96 122.66
  Q 10.62 122.97 10.62 123.44
  L 10.62 124.73
  Q 10.62 125.39 10.10 124.98
  Q 8.77 123.90 9.46 122.51
  Q 10.77 119.87 13.94 118.84
  A 1.77 1.77 0.0 0 0 14.75 118.31
  Q 17.47 115.14 20.79 112.80
  A 1.91 1.88 -61.9 0 1 21.87 112.46
  L 80.27 112.82
  Z"
/>
<path fill="#0054aa" d="
  M 52.99 43.25
  Q 51.92 44.17 51.79 45.31
  Q 51.73 45.88 51.15 45.86
  Q 50.99 45.85 50.85 45.92
  Q 50.47 46.11 50.16 46.43
  Q 47.73 48.96 45.03 51.28
  L 45.02 29.71
  A 0.72 0.72 0.0 0 1 45.74 28.99
  L 84.49 28.98
  Q 84.99 28.98 84.99 29.49
  L 85.00 36.50
  Q 85.00 36.99 84.50 36.99
  L 53.69 36.99
  Q 53.09 36.99 53.08 37.59
  L 52.99 43.25
  Z"
/>
<path fill="#0064aa" d="
  M 52.99 43.25
  L 52.99 53.86
  A 0.67 0.66 85.9 0 0 53.75 54.52
  Q 64.25 52.90 73.89 56.20
  Q 73.80 58.35 72.58 58.19
  Q 71.17 59.10 70.61 60.63
  A 0.38 0.37 -74.4 0 1 70.19 60.87
  Q 69.99 60.83 69.82 60.87
  Q 69.29 60.98 69.33 61.51
  L 69.40 62.69
  C 61.97 60.01 53.18 60.80 45.64 62.76
  Q 45.14 62.89 45.13 62.37
  L 45.03 51.28
  Q 47.73 48.96 50.16 46.43
  Q 50.47 46.11 50.85 45.92
  Q 50.99 45.85 51.15 45.86
  Q 51.73 45.88 51.79 45.31
  Q 51.92 44.17 52.99 43.25
  Z"
/>
<path fill="#007caa" d="
  M 73.89 56.20
  Q 81.93 59.69 84.10 67.25
  C 86.10 74.26 84.54 83.05 79.65 88.47
  C 70.51 98.62 53.98 97.05 42.25 92.25
  A 0.36 0.35 10.8 0 1 42.03 91.94
  Q 41.88 87.45 42.13 82.82
  A 0.04 0.04 0.0 0 1 42.19 82.79
  Q 52.25 88.66 63.11 87.89
  C 68.71 87.49 73.62 84.32 75.24 78.82
  C 77.13 72.38 76.05 65.79 69.40 62.69
  L 69.33 61.51
  Q 69.29 60.98 69.82 60.87
  Q 69.99 60.83 70.19 60.87
  A 0.38 0.37 -74.4 0 0 70.61 60.63
  Q 71.17 59.10 72.58 58.19
  Q 73.80 58.35 73.89 56.20
  Z"
/>
</svg>
