<?xml version="1.0" encoding="UTF-8" standalone="no"?>
<!DOCTYPE svg PUBLIC "-//W3C//DTD SVG 1.1//EN" "http://www.w3.org/Graphics/SVG/1.1/DTD/svg11.dtd">
<svg xmlns="http://www.w3.org/2000/svg" version="1.1" viewBox="0.00 0.00 128.00 128.00">
<g stroke-width="2.00" fill="none" stroke-linecap="butt">
<path stroke="#bce5e6" vector-effect="non-scaling-stroke" d="
  M 3.51 120.29
  Q 4.46 123.46 4.09 126.11
  Q 3.89 127.54 5.33 127.61
  Q 6.81 127.68 7.25 126.67
  Q 7.52 126.07 7.29 125.30
  Q 6.40 122.34 9.09 120.38
  Q 11.37 118.72 13.79 116.81
  Q 15.00 115.86 16.04 114.72
  C 17.38 113.25 18.93 111.58 21.05 111.59
  Q 39.95 111.70 58.20 111.61
  Q 58.37 111.61 58.51 111.54
  Q 58.74 111.42 58.99 111.41
  Q 67.01 111.17 75.15 111.88
  Q 81.22 112.40 87.09 112.40
  Q 93.20 112.39 99.41 112.34
  Q 99.44 112.34 99.44 112.38
  L 99.44 112.63
  Q 99.44 112.79 99.28 112.79
  Q 87.02 113.04 74.39 112.77
  Q 59.32 112.45 48.37 112.80
  Q 36.67 113.18 23.39 112.56
  Q 21.28 112.46 19.70 113.61
  Q 17.23 115.40 15.66 117.65
  Q 15.42 117.99 15.04 118.16
  Q 11.71 119.66 9.39 122.05
  Q 8.57 122.89 8.87 123.84
  Q 9.16 124.76 10.46 125.45"
/>
<path stroke="#97d8d8" vector-effect="non-scaling-stroke" d="
  M 10.46 125.45
  Q 10.96 122.32 12.01 121.74
  Q 14.09 120.58 16.00 119.26
  Q 16.64 118.82 16.13 119.37
  Q 16.01 119.51 15.85 119.60
  Q 13.64 120.74 12.01 122.88
  A 1.23 1.23 0.0 0 0 11.76 123.78
  Q 12.09 126.84 15.21 126.43
  Q 19.26 125.90 22.96 125.84
  Q 62.79 125.18 109.59 125.72
  Q 118.65 125.83 125.90 126.38
  A 0.93 0.92 0.3 0 0 126.90 125.39
  Q 126.72 123.02 126.69 120.75
  Q 126.33 87.38 126.06 51.00
  Q 125.90 28.58 126.71 12.75
  Q 126.78 11.26 125.30 9.39"
/>
<path stroke="#bce5e6" vector-effect="non-scaling-stroke" d="
  M 125.30 9.39
  Q 123.85 8.75 122.50 9.62
  Q 119.91 11.31 119.09 15.28
  Q 118.99 15.77 118.55 16.04
  Q 117.92 16.41 118.19 15.73
  Q 118.86 14.06 119.10 12.26
  Q 119.14 11.96 118.99 12.23
  L 118.85 12.49
  Q 118.63 12.90 118.62 13.37
  Q 118.60 14.25 118.20 15.03
  Q 117.95 15.52 117.70 15.03
  Q 117.42 14.50 117.63 13.99
  Q 117.94 13.24 118.86 11.32
  Q 119.09 10.83 120.49 8.93
  Q 121.67 7.33 121.62 5.10"
/>
<path stroke="#daf1f1" vector-effect="non-scaling-stroke" d="
  M 121.62 5.10
  Q 122.04 4.59 122.08 4.33
  A 1.84 1.80 14.2 0 0 120.88 2.37
  Q 118.07 1.35 115.25 1.37
  C 105.17 1.45 94.84 1.22 84.63 1.36
  C 63.16 1.66 38.58 1.12 15.26 1.45
  C 11.67 1.50 8.14 0.82 4.57 0.76
  Q 3.30 0.74 2.08 1.08
  A 1.51 1.51 0.0 0 0 0.98 2.68
  C 1.41 7.33 2.23 11.71 2.24 16.46
  Q 2.34 65.43 2.05 115.75
  Q 2.04 117.37 3.51 120.29"
/>
<path stroke="#e1f4f4" vector-effect="non-scaling-stroke" d="
  M 121.62 5.10
  Q 120.45 6.59 119.42 8.00
  Q 118.25 9.59 116.98 10.68
  Q 113.35 13.76 109.79 16.33
  Q 108.82 17.03 107.53 16.93
  C 97.63 16.16 87.82 16.49 78.08 16.45
  Q 55.87 16.35 34.26 16.47
  Q 27.64 16.50 19.29 16.26
  A 2.42 2.42 0.0 0 0 16.81 18.75
  Q 17.21 30.91 17.12 43.50
  Q 16.91 72.75 17.13 106.00
  Q 17.13 106.86 17.11 107.75
  Q 17.10 108.23 16.76 108.58
  Q 15.38 110.01 13.86 111.41
  Q 13.81 111.46 13.87 111.48
  Q 13.92 111.50 13.89 111.55
  Q 13.80 111.68 13.92 111.57
  Q 15.13 110.31 16.75 109.73
  Q 17.20 109.57 17.26 109.09
  Q 17.34 108.46 17.30 107.62
  Q 17.28 106.89 17.38 107.61
  C 17.81 110.46 16.06 111.58 14.19 113.16
  Q 13.88 113.42 13.71 113.78
  Q 13.24 114.76 12.29 115.35
  A 1.74 1.73 -1.6 0 0 11.68 115.99
  L 10.31 118.52
  Q 10.10 118.91 9.69 119.08
  Q 7.93 119.82 6.53 121.44
  A 1.44 1.44 0.0 0 1 4.26 121.34
  L 3.51 120.29"
/>
<path stroke="#9edbdb" vector-effect="non-scaling-stroke" d="
  M 125.30 9.39
  Q 121.96 11.12 119.77 14.73
  Q 118.77 16.39 117.57 17.29
  Q 116.37 18.19 115.14 19.30
  Q 113.58 20.70 113.89 22.33
  Q 114.99 28.16 114.78 32.34
  Q 114.60 35.75 114.63 39.49
  Q 114.63 39.99 114.45 40.46
  Q 114.10 41.32 114.09 42.45
  Q 113.95 62.28 114.01 84.62
  Q 114.02 92.19 113.73 99.76
  C 113.59 103.44 113.91 107.09 113.90 110.76
  A 2.35 2.35 0.0 0 1 111.57 113.11
  Q 92.30 113.32 72.00 113.12
  Q 49.66 112.90 23.51 112.93
  Q 22.21 112.93 21.06 113.35
  Q 19.30 114.00 18.33 115.30
  Q 16.10 118.28 12.96 119.81
  Q 10.79 120.86 9.34 123.10
  Q 8.79 123.95 10.46 125.45"
/>
<path stroke="#62a8c9" vector-effect="non-scaling-stroke" d="
  M 40.06 65.26
  Q 39.83 71.94 41.62 78.78"
/>
<path stroke="#62b2c9" vector-effect="non-scaling-stroke" d="
  M 41.62 78.78
  Q 43.74 87.56 50.39 92.09
  C 63.27 100.87 82.70 94.30 85.50 78.18
  C 87.30 67.77 83.75 58.08 73.18 54.27"
/>
<path stroke="#62a8c9" vector-effect="non-scaling-stroke" d="
  M 73.18 54.27
  Q 60.81 50.69 49.12 57.50"
/>
<path stroke="#629fc9" vector-effect="non-scaling-stroke" d="
  M 49.12 57.50
  C 50.26 45.61 57.85 37.19 69.75 36.97
  Q 75.34 36.87 79.80 38.95
  Q 79.97 39.03 79.97 38.85
  L 80.01 30.29
  Q 80.01 30.00 79.72 29.93
  Q 70.32 27.89 61.15 30.66
  C 45.32 35.44 40.49 50.29 40.06 65.26"
/>
<path stroke="#005faa" vector-effect="non-scaling-stroke" d="
  M 49.12 57.50
  L 44.43 61.32
  Q 44.05 61.63 43.77 62.03
  Q 42.98 63.12 41.72 63.73
  A 0.70 0.56 6.5 0 0 41.56 63.83
  Q 40.96 64.27 41.12 64.86
  Q 41.30 65.55 40.61 65.39
  L 40.06 65.26"
/>
<path stroke="#0071aa" vector-effect="non-scaling-stroke" d="
  M 73.18 54.27
  Q 73.26 54.98 72.84 55.56
  Q 72.53 55.97 72.02 55.91
  Q 71.25 55.80 71.22 56.59
  Q 71.19 57.54 70.24 57.65
  Q 69.71 57.71 69.39 58.13
  L 67.67 60.41"
/>
<path stroke="#62a8c9" vector-effect="non-scaling-stroke" d="
  M 67.67 60.41
  Q 57.81 58.78 49.69 63.29
  Q 49.24 63.54 49.23 64.06
  L 49.10 71.75"
/>
<path stroke="#0071aa" vector-effect="non-scaling-stroke" d="
  M 49.10 71.75
  Q 48.10 73.54 46.23 74.84
  Q 44.73 75.89 41.62 78.78"
/>
<path stroke="#62b2c9" vector-effect="non-scaling-stroke" d="
  M 49.10 71.75
  C 49.54 82.19 55.39 90.60 66.63 88.75
  C 74.51 87.46 76.97 80.52 76.98 73.50
  Q 76.99 62.93 67.67 60.41"
/>
</g>
<path fill="#b4e2e3" d="
  M 0.00 0.00
  L 128.00 0.00
  L 128.00 128.00
  L 0.00 128.00
  L 0.00 0.00
  Z
  M 3.51 120.29
  Q 4.46 123.46 4.09 126.11
  Q 3.89 127.54 5.33 127.61
  Q 6.81 127.68 7.25 126.67
  Q 7.52 126.07 7.29 125.30
  Q 6.40 122.34 9.09 120.38
  Q 11.37 118.72 13.79 116.81
  Q 15.00 115.86 16.04 114.72
  C 17.38 113.25 18.93 111.58 21.05 111.59
  Q 39.95 111.70 58.20 111.61
  Q 58.37 111.61 58.51 111.54
  Q 58.74 111.42 58.99 111.41
  Q 67.01 111.17 75.15 111.88
  Q 81.22 112.40 87.09 112.40
  Q 93.20 112.39 99.41 112.34
  Q 99.44 112.34 99.44 112.38
  L 99.44 112.63
  Q 99.44 112.79 99.28 112.79
  Q 87.02 113.04 74.39 112.77
  Q 59.32 112.45 48.37 112.80
  Q 36.67 113.18 23.39 112.56
  Q 21.28 112.46 19.70 113.61
  Q 17.23 115.40 15.66 117.65
  Q 15.42 117.99 15.04 118.16
  Q 11.71 119.66 9.39 122.05
  Q 8.57 122.89 8.87 123.84
  Q 9.16 124.76 10.46 125.45
  Q 10.96 122.32 12.01 121.74
  Q 14.09 120.58 16.00 119.26
  Q 16.64 118.82 16.13 119.37
  Q 16.01 119.51 15.85 119.60
  Q 13.64 120.74 12.01 122.88
  A 1.23 1.23 0.0 0 0 11.76 123.78
  Q 12.09 126.84 15.21 126.43
  Q 19.26 125.90 22.96 125.84
  Q 62.79 125.18 109.59 125.72
  Q 118.65 125.83 125.90 126.38
  A 0.93 0.92 0.3 0 0 126.90 125.39
  Q 126.72 123.02 126.69 120.75
  Q 126.33 87.38 126.06 51.00
  Q 125.90 28.58 126.71 12.75
  Q 126.78 11.26 125.30 9.39
  Q 123.85 8.75 122.50 9.62
  Q 119.91 11.31 119.09 15.28
  Q 118.99 15.77 118.55 16.04
  Q 117.92 16.41 118.19 15.73
  Q 118.86 14.06 119.10 12.26
  Q 119.14 11.96 118.99 12.23
  L 118.85 12.49
  Q 118.63 12.90 118.62 13.37
  Q 118.60 14.25 118.20 15.03
  Q 117.95 15.52 117.70 15.03
  Q 117.42 14.50 117.63 13.99
  Q 117.94 13.24 118.86 11.32
  Q 119.09 10.83 120.49 8.93
  Q 121.67 7.33 121.62 5.10
  Q 122.04 4.59 122.08 4.33
  A 1.84 1.80 14.2 0 0 120.88 2.37
  Q 118.07 1.35 115.25 1.37
  C 105.17 1.45 94.84 1.22 84.63 1.36
  C 63.16 1.66 38.58 1.12 15.26 1.45
  C 11.67 1.50 8.14 0.82 4.57 0.76
  Q 3.30 0.74 2.08 1.08
  A 1.51 1.51 0.0 0 0 0.98 2.68
  C 1.41 7.33 2.23 11.71 2.24 16.46
  Q 2.34 65.43 2.05 115.75
  Q 2.04 117.37 3.51 120.29
  Z"
/>
<path fill="#ffffff" d="
  M 121.62 5.10
  Q 120.45 6.59 119.42 8.00
  Q 118.25 9.59 116.98 10.68
  Q 113.35 13.76 109.79 16.33
  Q 108.82 17.03 107.53 16.93
  C 97.63 16.16 87.82 16.49 78.08 16.45
  Q 55.87 16.35 34.26 16.47
  Q 27.64 16.50 19.29 16.26
  A 2.42 2.42 0.0 0 0 16.81 18.75
  Q 17.21 30.91 17.12 43.50
  Q 16.91 72.75 17.13 106.00
  Q 17.13 106.86 17.11 107.75
  Q 17.10 108.23 16.76 108.58
  Q 15.38 110.01 13.86 111.41
  Q 13.81 111.46 13.87 111.48
  Q 13.92 111.50 13.89 111.55
  Q 13.80 111.68 13.92 111.57
  Q 15.13 110.31 16.75 109.73
  Q 17.20 109.57 17.26 109.09
  Q 17.34 108.46 17.30 107.62
  Q 17.28 106.89 17.38 107.61
  C 17.81 110.46 16.06 111.58 14.19 113.16
  Q 13.88 113.42 13.71 113.78
  Q 13.24 114.76 12.29 115.35
  A 1.74 1.73 -1.6 0 0 11.68 115.99
  L 10.31 118.52
  Q 10.10 118.91 9.69 119.08
  Q 7.93 119.82 6.53 121.44
  A 1.44 1.44 0.0 0 1 4.26 121.34
  L 3.51 120.29
  Q 2.04 117.37 2.05 115.75
  Q 2.34 65.43 2.24 16.46
  C 2.23 11.71 1.41 7.33 0.98 2.68
  A 1.51 1.51 0.0 0 1 2.08 1.08
  Q 3.30 0.74 4.57 0.76
  C 8.14 0.82 11.67 1.50 15.26 1.45
  C 38.58 1.12 63.16 1.66 84.63 1.36
  C 94.84 1.22 105.17 1.45 115.25 1.37
  Q 118.07 1.35 120.88 2.37
  A 1.84 1.80 14.2 0 1 122.08 4.33
  Q 122.04 4.59 121.62 5.10
  Z"
/>
<path fill="#c3e8e8" d="
  M 121.62 5.10
  Q 121.67 7.33 120.49 8.93
  Q 119.09 10.83 118.86 11.32
  Q 117.94 13.24 117.63 13.99
  Q 117.42 14.50 117.70 15.03
  Q 117.95 15.52 118.20 15.03
  Q 118.60 14.25 118.62 13.37
  Q 118.63 12.90 118.85 12.49
  L 118.99 12.23
  Q 119.14 11.96 119.10 12.26
  Q 118.86 14.06 118.19 15.73
  Q 117.92 16.41 118.55 16.04
  Q 118.99 15.77 119.09 15.28
  Q 119.91 11.31 122.50 9.62
  Q 123.85 8.75 125.30 9.39
  Q 121.96 11.12 119.77 14.73
  Q 118.77 16.39 117.57 17.29
  Q 116.37 18.19 115.14 19.30
  Q 113.58 20.70 113.89 22.33
  Q 114.99 28.16 114.78 32.34
  Q 114.60 35.75 114.63 39.49
  Q 114.63 39.99 114.45 40.46
  Q 114.10 41.32 114.09 42.45
  Q 113.95 62.28 114.01 84.62
  Q 114.02 92.19 113.73 99.76
  C 113.59 103.44 113.91 107.09 113.90 110.76
  A 2.35 2.35 0.0 0 1 111.57 113.11
  Q 92.30 113.32 72.00 113.12
  Q 49.66 112.90 23.51 112.93
  Q 22.21 112.93 21.06 113.35
  Q 19.30 114.00 18.33 115.30
  Q 16.10 118.28 12.96 119.81
  Q 10.79 120.86 9.34 123.10
  Q 8.79 123.95 10.46 125.45
  Q 9.16 124.76 8.87 123.84
  Q 8.57 122.89 9.39 122.05
  Q 11.71 119.66 15.04 118.16
  Q 15.42 117.99 15.66 117.65
  Q 17.23 115.40 19.70 113.61
  Q 21.28 112.46 23.39 112.56
  Q 36.67 113.18 48.37 112.80
  Q 59.32 112.45 74.39 112.77
  Q 87.02 113.04 99.28 112.79
  Q 99.44 112.79 99.44 112.63
  L 99.44 112.38
  Q 99.44 112.34 99.41 112.34
  Q 93.20 112.39 87.09 112.40
  Q 81.22 112.40 75.15 111.88
  Q 67.01 111.17 58.99 111.41
  Q 58.74 111.42 58.51 111.54
  Q 58.37 111.61 58.20 111.61
  Q 39.95 111.70 21.05 111.59
  C 18.93 111.58 17.38 113.25 16.04 114.72
  Q 15.00 115.86 13.79 116.81
  Q 11.37 118.72 9.09 120.38
  Q 6.40 122.34 7.29 125.30
  Q 7.52 126.07 7.25 126.67
  Q 6.81 127.68 5.33 127.61
  Q 3.89 127.54 4.09 126.11
  Q 4.46 123.46 3.51 120.29
  L 4.26 121.34
  A 1.44 1.44 0.0 0 0 6.53 121.44
  Q 7.93 119.82 9.69 119.08
  Q 10.10 118.91 10.31 118.52
  L 11.68 115.99
  A 1.74 1.73 -1.6 0 1 12.29 115.35
  Q 13.24 114.76 13.71 113.78
  Q 13.88 113.42 14.19 113.16
  C 16.06 111.58 17.81 110.46 17.38 107.61
  Q 17.28 106.89 17.30 107.62
  Q 17.34 108.46 17.26 109.09
  Q 17.20 109.57 16.75 109.73
  Q 15.13 110.31 13.92 111.57
  Q 13.80 111.68 13.89 111.55
  Q 13.92 111.50 13.87 111.48
  Q 13.81 111.46 13.86 111.41
  Q 15.38 110.01 16.76 108.58
  Q 17.10 108.23 17.11 107.75
  Q 17.13 106.86 17.13 106.00
  Q 16.91 72.75 17.12 43.50
  Q 17.21 30.91 16.81 18.75
  A 2.42 2.42 0.0 0 1 19.29 16.26
  Q 27.64 16.50 34.26 16.47
  Q 55.87 16.35 78.08 16.45
  C 87.82 16.49 97.63 16.16 107.53 16.93
  Q 108.82 17.03 109.79 16.33
  Q 113.35 13.76 116.98 10.68
  Q 118.25 9.59 119.42 8.00
  Q 120.45 6.59 121.62 5.10
  Z
  M 40.06 65.26
  Q 39.83 71.94 41.62 78.78
  Q 43.74 87.56 50.39 92.09
  C 63.27 100.87 82.70 94.30 85.50 78.18
  C 87.30 67.77 83.75 58.08 73.18 54.27
  Q 60.81 50.69 49.12 57.50
  C 50.26 45.61 57.85 37.19 69.75 36.97
  Q 75.34 36.87 79.80 38.95
  Q 79.97 39.03 79.97 38.85
  L 80.01 30.29
  Q 80.01 30.00 79.72 29.93
  Q 70.32 27.89 61.15 30.66
  C 45.32 35.44 40.49 50.29 40.06 65.26
  Z"
/>
<path fill="#79cdcd" d="
  M 125.30 9.39
  Q 126.78 11.26 126.71 12.75
  Q 125.90 28.58 126.06 51.00
  Q 126.33 87.38 126.69 120.75
  Q 126.72 123.02 126.90 125.39
  A 0.93 0.92 0.3 0 1 125.90 126.38
  Q 118.65 125.83 109.59 125.72
  Q 62.79 125.18 22.96 125.84
  Q 19.26 125.90 15.21 126.43
  Q 12.09 126.84 11.76 123.78
  A 1.23 1.23 0.0 0 1 12.01 122.88
  Q 13.64 120.74 15.85 119.60
  Q 16.01 119.51 16.13 119.37
  Q 16.64 118.82 16.00 119.26
  Q 14.09 120.58 12.01 121.74
  Q 10.96 122.32 10.46 125.45
  Q 8.79 123.95 9.34 123.10
  Q 10.79 120.86 12.96 119.81
  Q 16.10 118.28 18.33 115.30
  Q 19.30 114.00 21.06 113.35
  Q 22.21 112.93 23.51 112.93
  Q 49.66 112.90 72.00 113.12
  Q 92.30 113.32 111.57 113.11
  A 2.35 2.35 0.0 0 0 113.90 110.76
  C 113.91 107.09 113.59 103.44 113.73 99.76
  Q 114.02 92.19 114.01 84.62
  Q 113.95 62.28 114.09 42.45
  Q 114.10 41.32 114.45 40.46
  Q 114.63 39.99 114.63 39.49
  Q 114.60 35.75 114.78 32.34
  Q 114.99 28.16 113.89 22.33
  Q 113.58 20.70 115.14 19.30
  Q 116.37 18.19 117.57 17.29
  Q 118.77 16.39 119.77 14.73
  Q 121.96 11.12 125.30 9.39
  Z"
/>
<path fill="#0056aa" d="
  M 49.12 57.50
  L 44.43 61.32
  Q 44.05 61.63 43.77 62.03
  Q 42.98 63.12 41.72 63.73
  A 0.70 0.56 6.5 0 0 41.56 63.83
  Q 40.96 64.27 41.12 64.86
  Q 41.30 65.55 40.61 65.39
  L 40.06 65.26
  C 40.49 50.29 45.32 35.44 61.15 30.66
  Q 70.32 27.89 79.72 29.93
  Q 80.01 30.00 80.01 30.29
  L 79.97 38.85
  Q 79.97 39.03 79.80 38.95
  Q 75.34 36.87 69.75 36.97
  C 57.85 37.19 50.26 45.61 49.12 57.50
  Z"
/>
<path fill="#0067aa" d="
  M 73.18 54.27
  Q 73.26 54.98 72.84 55.56
  Q 72.53 55.97 72.02 55.91
  Q 71.25 55.80 71.22 56.59
  Q 71.19 57.54 70.24 57.65
  Q 69.71 57.71 69.39 58.13
  L 67.67 60.41
  Q 57.81 58.78 49.69 63.29
  Q 49.24 63.54 49.23 64.06
  L 49.10 71.75
  Q 48.10 73.54 46.23 74.84
  Q 44.73 75.89 41.62 78.78
  Q 39.83 71.94 40.06 65.26
  L 40.61 65.39
  Q 41.30 65.55 41.12 64.86
  Q 40.96 64.27 41.56 63.83
  A 0.70 0.56 6.5 0 1 41.72 63.73
  Q 42.98 63.12 43.77 62.03
  Q 44.05 61.63 44.43 61.32
  L 49.12 57.50
  Q 60.81 50.69 73.18 54.27
  Z"
/>
<path fill="#007baa" d="
  M 73.18 54.27
  C 83.75 58.08 87.30 67.77 85.50 78.18
  C 82.70 94.30 63.27 100.87 50.39 92.09
  Q 43.74 87.56 41.62 78.78
  Q 44.73 75.89 46.23 74.84
  Q 48.10 73.54 49.10 71.75
  C 49.54 82.19 55.39 90.60 66.63 88.75
  C 74.51 87.46 76.97 80.52 76.98 73.50
  Q 76.99 62.93 67.67 60.41
  L 69.39 58.13
  Q 69.71 57.71 70.24 57.65
  Q 71.19 57.54 71.22 56.59
  Q 71.25 55.80 72.02 55.91
  Q 72.53 55.97 72.84 55.56
  Q 73.26 54.98 73.18 54.27
  Z"
/>
<path fill="#c3e8e8" d="
  M 67.67 60.41
  Q 76.99 62.93 76.98 73.50
  C 76.97 80.52 74.51 87.46 66.63 88.75
  C 55.39 90.60 49.54 82.19 49.10 71.75
  L 49.23 64.06
  Q 49.24 63.54 49.69 63.29
  Q 57.81 58.78 67.67 60.41
  Z"
/>
</svg>
