<?xml version="1.0" encoding="UTF-8" standalone="no"?>
<!DOCTYPE svg PUBLIC "-//W3C//DTD SVG 1.1//EN" "http://www.w3.org/Graphics/SVG/1.1/DTD/svg11.dtd">
<svg xmlns="http://www.w3.org/2000/svg" version="1.1" viewBox="0.00 0.00 128.00 128.00">
<g stroke-width="2.00" fill="none" stroke-linecap="butt">
<path stroke="#bce5e6" vector-effect="non-scaling-stroke" d="
  M 9.00 119.77
  Q 13.46 117.32 16.47 113.96
  Q 17.84 112.43 19.25 111.96
  Q 21.09 111.35 22.87 111.50
  Q 28.78 111.98 34.65 111.85
  Q 35.13 111.84 35.51 112.11
  Q 35.85 112.36 36.27 112.38
  L 45.86 112.97
  Q 50.83 113.27 55.81 113.21
  Q 60.84 113.15 65.90 113.15
  Q 66.00 113.15 66.09 113.19
  Q 66.20 113.26 66.31 113.33
  Q 66.51 113.46 66.74 113.46
  L 99.47 113.53"
/>
<path stroke="#97d8d8" vector-effect="non-scaling-stroke" d="
  M 99.47 113.53
  Q 82.04 114.34 74.75 113.83
  C 71.09 113.57 66.86 113.47 62.75 113.49
  Q 43.76 113.56 27.70 113.15
  C 25.36 113.09 23.14 112.50 20.50 113.43
  Q 19.36 113.83 18.28 115.00
  C 16.84 116.56 15.86 117.85 13.89 118.87
  Q 11.98 119.86 11.15 120.38
  Q 9.34 121.50 9.30 123.73
  Q 9.30 124.27 9.73 124.60
  Q 12.26 126.51 14.79 126.41
  C 17.99 126.28 21.24 125.79 24.51 125.73
  C 53.01 125.21 81.88 125.43 109.50 125.69
  Q 117.78 125.77 125.93 126.40
  A 0.89 0.89 0.0 0 0 126.89 125.44
  Q 126.72 123.27 126.70 121.44
  Q 126.20 79.72 126.10 29.84
  C 126.09 24.30 126.47 18.90 126.71 13.50
  Q 126.82 11.21 125.39 9.56
  Q 125.03 9.14 124.48 9.25
  Q 121.38 9.83 120.14 12.89
  Q 118.71 16.44 115.75 18.50
  Q 114.70 19.23 113.94 20.40
  Q 113.32 21.36 113.44 22.24
  Q 115.07 33.81 113.90 45.62"
/>
<path stroke="#bce5e6" vector-effect="non-scaling-stroke" d="
  M 113.90 45.62
  Q 112.80 36.91 113.06 28.12
  Q 113.06 28.02 112.92 24.38
  Q 112.76 20.08 115.84 16.53
  Q 116.16 16.17 116.17 15.69
  Q 116.21 14.87 116.73 14.28
  Q 117.87 12.97 118.68 11.51
  Q 120.06 9.06 120.38 8.63
  Q 121.91 6.63 123.51 4.60
  Q 123.84 4.19 123.55 3.76
  Q 122.73 2.53 121.01 2.49"
/>
<path stroke="#daf1f1" vector-effect="non-scaling-stroke" d="
  M 121.01 2.49
  Q 118.57 1.39 115.75 1.39
  Q 65.27 1.51 15.75 1.41
  Q 11.19 1.40 5.80 0.77
  Q 3.98 0.56 2.08 1.10
  A 1.51 1.50 -10.5 0 0 0.99 2.68
  C 1.37 7.11 2.21 11.34 2.23 15.83
  Q 2.36 65.45 2.04 114.27
  C 2.02 116.75 2.69 119.05 4.05 121.11
  A 1.08 1.08 0.0 0 0 5.54 121.43
  Q 7.83 119.95 9.00 119.77"
/>
<path stroke="#e1f4f4" vector-effect="non-scaling-stroke" d="
  M 121.01 2.49
  Q 122.92 3.76 121.21 5.75
  Q 120.22 6.89 119.63 7.64
  Q 118.73 8.79 117.95 9.43
  Q 114.95 11.90 112.00 14.62
  C 110.76 15.76 109.13 16.98 107.35 16.85
  C 96.67 16.09 84.08 16.95 72.29 16.43
  Q 64.77 16.10 58.87 16.13
  C 56.41 16.15 53.99 16.49 51.52 16.52
  Q 35.21 16.69 19.06 16.29
  A 2.26 2.25 89.8 0 0 16.75 18.62
  Q 17.02 25.93 17.01 32.51
  Q 16.95 64.47 17.18 98.71
  Q 17.21 102.70 17.46 106.76
  Q 17.59 108.85 16.70 109.71
  Q 12.66 113.60 9.00 119.77"
/>
<path stroke="#9edbdb" vector-effect="non-scaling-stroke" d="
  M 113.90 45.62
  L 113.97 110.21
  A 3.41 3.41 0.0 0 1 110.53 113.63
  L 99.47 113.53"
/>
<path stroke="#62afc9" vector-effect="non-scaling-stroke" d="
  M 74.94 37.98
  Q 76.69 37.77 78.18 38.11
  Q 78.68 38.22 78.43 38.67
  Q 63.00 66.33 47.17 94.82
  A 0.05 0.05 0.0 0 0 47.22 94.89
  Q 51.52 95.10 55.86 94.96
  A 0.41 0.41 0.0 0 0 56.20 94.75
  Q 69.90 69.42 84.53 42.64
  Q 85.76 40.39 85.97 37.64
  Q 86.25 33.86 85.84 30.01"
/>
<path stroke="#629ec9" vector-effect="non-scaling-stroke" d="
  M 85.84 30.01
  L 41.73 30.03
  Q 40.99 30.03 40.99 30.77
  L 41.00 37.25
  Q 41.00 37.99 41.75 37.99
  L 74.94 37.98"
/>
<path stroke="#0064aa" vector-effect="non-scaling-stroke" d="
  M 85.84 30.01
  Q 83.28 31.89 81.78 34.38
  Q 81.50 34.85 80.96 34.92
  Q 80.40 35.00 80.09 35.45
  Q 79.90 35.73 79.63 35.94
  L 77.74 37.44
  A 1.24 1.24 0.0 0 1 76.77 37.69
  Q 75.63 37.50 74.94 37.98"
/>
</g>
<path fill="#b4e2e3" d="
  M 0.00 0.00
  L 128.00 0.00
  L 128.00 128.00
  L 0.00 128.00
  L 0.00 0.00
  Z
  M 9.00 119.77
  Q 13.46 117.32 16.47 113.96
  Q 17.84 112.43 19.25 111.96
  Q 21.09 111.35 22.87 111.50
  Q 28.78 111.98 34.65 111.85
  Q 35.13 111.84 35.51 112.11
  Q 35.85 112.36 36.27 112.38
  L 45.86 112.97
  Q 50.83 113.27 55.81 113.21
  Q 60.84 113.15 65.90 113.15
  Q 66.00 113.15 66.09 113.19
  Q 66.20 113.26 66.31 113.33
  Q 66.51 113.46 66.74 113.46
  L 99.47 113.53
  Q 82.04 114.34 74.75 113.83
  C 71.09 113.57 66.86 113.47 62.75 113.49
  Q 43.76 113.56 27.70 113.15
  C 25.36 113.09 23.14 112.50 20.50 113.43
  Q 19.36 113.83 18.28 115.00
  C 16.84 116.56 15.86 117.85 13.89 118.87
  Q 11.98 119.86 11.15 120.38
  Q 9.34 121.50 9.30 123.73
  Q 9.30 124.27 9.73 124.60
  Q 12.26 126.51 14.79 126.41
  C 17.99 126.28 21.24 125.79 24.51 125.73
  C 53.01 125.21 81.88 125.43 109.50 125.69
  Q 117.78 125.77 125.93 126.40
  A 0.89 0.89 0.0 0 0 126.89 125.44
  Q 126.72 123.27 126.70 121.44
  Q 126.20 79.72 126.10 29.84
  C 126.09 24.30 126.47 18.90 126.71 13.50
  Q 126.82 11.21 125.39 9.56
  Q 125.03 9.14 124.48 9.25
  Q 121.38 9.83 120.14 12.89
  Q 118.71 16.44 115.75 18.50
  Q 114.70 19.23 113.94 20.40
  Q 113.32 21.36 113.44 22.24
  Q 115.07 33.81 113.90 45.62
  Q 112.80 36.91 113.06 28.12
  Q 113.06 28.02 112.92 24.38
  Q 112.76 20.08 115.84 16.53
  Q 116.16 16.17 116.17 15.69
  Q 116.21 14.87 116.73 14.28
  Q 117.87 12.97 118.68 11.51
  Q 120.06 9.06 120.38 8.63
  Q 121.91 6.63 123.51 4.60
  Q 123.84 4.19 123.55 3.76
  Q 122.73 2.53 121.01 2.49
  Q 118.57 1.39 115.75 1.39
  Q 65.27 1.51 15.75 1.41
  Q 11.19 1.40 5.80 0.77
  Q 3.98 0.56 2.08 1.10
  A 1.51 1.50 -10.5 0 0 0.99 2.68
  C 1.37 7.11 2.21 11.34 2.23 15.83
  Q 2.36 65.45 2.04 114.27
  C 2.02 116.75 2.69 119.05 4.05 121.11
  A 1.08 1.08 0.0 0 0 5.54 121.43
  Q 7.83 119.95 9.00 119.77
  Z"
/>
<path fill="#ffffff" d="
  M 121.01 2.49
  Q 122.92 3.76 121.21 5.75
  Q 120.22 6.89 119.63 7.64
  Q 118.73 8.79 117.95 9.43
  Q 114.95 11.90 112.00 14.62
  C 110.76 15.76 109.13 16.98 107.35 16.85
  C 96.67 16.09 84.08 16.95 72.29 16.43
  Q 64.77 16.10 58.87 16.13
  C 56.41 16.15 53.99 16.49 51.52 16.52
  Q 35.21 16.69 19.06 16.29
  A 2.26 2.25 89.8 0 0 16.75 18.62
  Q 17.02 25.93 17.01 32.51
  Q 16.95 64.47 17.18 98.71
  Q 17.21 102.70 17.46 106.76
  Q 17.59 108.85 16.70 109.71
  Q 12.66 113.60 9.00 119.77
  Q 7.83 119.95 5.54 121.43
  A 1.08 1.08 0.0 0 1 4.05 121.11
  C 2.69 119.05 2.02 116.75 2.04 114.27
  Q 2.36 65.45 2.23 15.83
  C 2.21 11.34 1.37 7.11 0.99 2.68
  A 1.51 1.50 -10.5 0 1 2.08 1.10
  Q 3.98 0.56 5.80 0.77
  Q 11.19 1.40 15.75 1.41
  Q 65.27 1.51 115.75 1.39
  Q 118.57 1.39 121.01 2.49
  Z"
/>
<path fill="#c3e8e8" d="
  M 121.01 2.49
  Q 122.73 2.53 123.55 3.76
  Q 123.84 4.19 123.51 4.60
  Q 121.91 6.63 120.38 8.63
  Q 120.06 9.06 118.68 11.51
  Q 117.87 12.97 116.73 14.28
  Q 116.21 14.87 116.17 15.69
  Q 116.16 16.17 115.84 16.53
  Q 112.76 20.08 112.92 24.38
  Q 113.06 28.02 113.06 28.12
  Q 112.80 36.91 113.90 45.62
  L 113.97 110.21
  A 3.41 3.41 0.0 0 1 110.53 113.63
  L 99.47 113.53
  L 66.74 113.46
  Q 66.51 113.46 66.31 113.33
  Q 66.20 113.26 66.09 113.19
  Q 66.00 113.15 65.90 113.15
  Q 60.84 113.15 55.81 113.21
  Q 50.83 113.27 45.86 112.97
  L 36.27 112.38
  Q 35.85 112.36 35.51 112.11
  Q 35.13 111.84 34.65 111.85
  Q 28.78 111.98 22.87 111.50
  Q 21.09 111.35 19.25 111.96
  Q 17.84 112.43 16.47 113.96
  Q 13.46 117.32 9.00 119.77
  Q 12.66 113.60 16.70 109.71
  Q 17.59 108.85 17.46 106.76
  Q 17.21 102.70 17.18 98.71
  Q 16.95 64.47 17.01 32.51
  Q 17.02 25.93 16.75 18.62
  A 2.26 2.25 89.8 0 1 19.06 16.29
  Q 35.21 16.69 51.52 16.52
  C 53.99 16.49 56.41 16.15 58.87 16.13
  Q 64.77 16.10 72.29 16.43
  C 84.08 16.95 96.67 16.09 107.35 16.85
  C 109.13 16.98 110.76 15.76 112.00 14.62
  Q 114.95 11.90 117.95 9.43
  Q 118.73 8.79 119.63 7.64
  Q 120.22 6.89 121.21 5.75
  Q 122.92 3.76 121.01 2.49
  Z
  M 74.94 37.98
  Q 76.69 37.77 78.18 38.11
  Q 78.68 38.22 78.43 38.67
  Q 63.00 66.33 47.17 94.82
  A 0.05 0.05 0.0 0 0 47.22 94.89
  Q 51.52 95.10 55.86 94.96
  A 0.41 0.41 0.0 0 0 56.20 94.75
  Q 69.90 69.42 84.53 42.64
  Q 85.76 40.39 85.97 37.64
  Q 86.25 33.86 85.84 30.01
  L 41.73 30.03
  Q 40.99 30.03 40.99 30.77
  L 41.00 37.25
  Q 41.00 37.99 41.75 37.99
  L 74.94 37.98
  Z"
/>
<path fill="#79cdcd" d="
  M 99.47 113.53
  L 110.53 113.63
  A 3.41 3.41 0.0 0 0 113.97 110.21
  L 113.90 45.62
  Q 115.07 33.81 113.44 22.24
  Q 113.32 21.36 113.94 20.40
  Q 114.70 19.23 115.75 18.50
  Q 118.71 16.44 120.14 12.89
  Q 121.38 9.83 124.48 9.25
  Q 125.03 9.14 125.39 9.56
  Q 126.82 11.21 126.71 13.50
  C 126.47 18.90 126.09 24.30 126.10 29.84
  Q 126.20 79.72 126.70 121.44
  Q 126.72 123.27 126.89 125.44
  A 0.89 0.89 0.0 0 1 125.93 126.40
  Q 117.78 125.77 109.50 125.69
  C 81.88 125.43 53.01 125.21 24.51 125.73
  C 21.24 125.79 17.99 126.28 14.79 126.41
  Q 12.26 126.51 9.73 124.60
  Q 9.30 124.27 9.30 123.73
  Q 9.34 121.50 11.15 120.38
  Q 11.98 119.86 13.89 118.87
  C 15.86 117.85 16.84 116.56 18.28 115.00
  Q 19.36 113.83 20.50 113.43
  C 23.14 112.50 25.36 113.09 27.70 113.15
  Q 43.76 113.56 62.75 113.49
  C 66.86 113.47 71.09 113.57 74.75 113.83
  Q 82.04 114.34 99.47 113.53
  Z"
/>
<path fill="#0053aa" d="
  M 85.84 30.01
  Q 83.28 31.89 81.78 34.38
  Q 81.50 34.85 80.96 34.92
  Q 80.40 35.00 80.09 35.45
  Q 79.90 35.73 79.63 35.94
  L 77.74 37.44
  A 1.24 1.24 0.0 0 1 76.77 37.69
  Q 75.63 37.50 74.94 37.98
  L 41.75 37.99
  Q 41.00 37.99 41.00 37.25
  L 40.99 30.77
  Q 40.99 30.03 41.73 30.03
  L 85.84 30.01
  Z"
/>
<path fill="#0075aa" d="
  M 85.84 30.01
  Q 86.25 33.86 85.97 37.64
  Q 85.76 40.39 84.53 42.64
  Q 69.90 69.42 56.20 94.75
  A 0.41 0.41 0.0 0 1 55.86 94.96
  Q 51.52 95.10 47.22 94.89
  A 0.05 0.05 0.0 0 1 47.17 94.82
  Q 63.00 66.33 78.43 38.67
  Q 78.68 38.22 78.18 38.11
  Q 76.69 37.77 74.94 37.98
  Q 75.63 37.50 76.77 37.69
  A 1.24 1.24 0.0 0 0 77.74 37.44
  L 79.63 35.94
  Q 79.90 35.73 80.09 35.45
  Q 80.40 35.00 80.96 34.92
  Q 81.50 34.85 81.78 34.38
  Q 83.28 31.89 85.84 30.01
  Z"
/>
</svg>
