<?xml version="1.0" encoding="UTF-8" standalone="no"?>
<!DOCTYPE svg PUBLIC "-//W3C//DTD SVG 1.1//EN" "http://www.w3.org/Graphics/SVG/1.1/DTD/svg11.dtd">
<svg xmlns="http://www.w3.org/2000/svg" version="1.1" viewBox="0.00 0.00 128.00 128.00">
<g stroke-width="2.00" fill="none" stroke-linecap="butt">
<path stroke="#bce5e6" vector-effect="non-scaling-stroke" d="
  M 3.81 120.80
  Q 4.37 123.64 3.98 126.45
  A 0.94 0.94 0.0 0 0 4.78 127.50
  Q 6.04 127.68 7.27 127.24
  A 0.74 0.73 -22.8 0 0 7.69 126.23
  Q 5.78 122.14 9.62 120.17
  Q 10.03 119.96 10.30 119.59
  C 11.64 117.77 13.69 117.03 15.20 115.28
  Q 16.37 113.93 17.75 112.91
  Q 20.24 111.07 23.15 111.43
  Q 24.77 111.63 26.33 111.63
  Q 46.54 111.63 66.75 111.63
  Q 71.02 111.63 79.36 112.72"
/>
<path stroke="#97d8d8" vector-effect="non-scaling-stroke" d="
  M 79.36 112.72
  C 75.79 113.09 71.45 112.63 68.88 112.63
  Q 43.86 112.61 22.54 112.63
  C 21.00 112.63 18.85 114.12 17.79 115.22
  Q 16.65 116.40 15.54 117.57
  Q 14.79 118.34 13.73 118.86
  C 12.60 119.42 11.16 120.06 10.45 121.01
  Q 9.93 121.71 9.12 122.08
  Q 8.66 122.29 8.61 122.80
  Q 8.38 125.02 10.49 125.27
  Q 10.94 125.32 10.92 124.87
  L 10.85 123.20
  Q 10.83 122.68 11.22 122.34
  Q 12.32 121.37 13.58 120.54
  Q 13.69 120.47 13.77 120.58
  L 13.77 120.58
  Q 13.92 120.79 13.69 120.90
  Q 12.43 121.50 11.64 122.58
  A 2.31 2.31 0.0 0 0 13.03 126.21
  Q 14.07 126.42 15.37 126.33
  Q 22.50 125.79 29.85 125.70
  Q 64.10 125.30 107.20 125.69
  Q 116.93 125.77 125.87 126.40
  A 0.97 0.97 0.0 0 0 126.91 125.35
  Q 126.71 122.87 126.69 120.74
  Q 126.34 87.25 126.11 50.25
  Q 126.03 38.20 126.13 26.38
  C 126.16 21.65 126.83 17.09 126.60 12.56
  Q 126.49 10.59 125.19 8.72
  Q 124.31 7.47 122.83 7.94
  Q 121.57 8.34 120.33 9.95"
/>
<path stroke="#bce5e6" vector-effect="non-scaling-stroke" d="
  M 120.33 9.95
  Q 120.16 9.19 120.61 8.54
  C 121.40 7.39 121.60 6.91 121.42 5.61"
/>
<path stroke="#daf1f1" vector-effect="non-scaling-stroke" d="
  M 121.42 5.61
  Q 123.03 3.26 120.74 2.32
  Q 118.70 1.48 116.50 1.45
  Q 100.08 1.26 81.49 1.35
  Q 45.64 1.54 15.59 1.44
  C 11.17 1.42 7.04 0.61 2.66 0.87
  A 1.79 1.78 85.5 0 0 0.99 2.83
  C 1.42 7.40 2.23 11.74 2.24 16.40
  Q 2.34 65.92 2.05 114.75
  Q 2.03 117.76 3.81 120.80"
/>
<path stroke="#e1f4f4" vector-effect="non-scaling-stroke" d="
  M 121.42 5.61
  Q 119.97 7.37 118.55 9.09
  Q 117.87 9.92 116.81 10.06
  Q 116.34 10.12 116.05 10.49
  Q 113.91 13.27 110.51 15.88
  Q 109.09 16.98 107.97 16.90
  Q 103.66 16.61 99.86 16.60
  Q 70.14 16.46 30.49 16.42
  Q 24.84 16.42 19.13 16.22
  A 2.26 2.26 0.0 0 0 16.80 18.59
  Q 17.25 27.32 17.13 36.89
  C 16.91 53.83 17.13 70.72 17.00 88.00
  Q 16.92 97.47 17.19 107.32
  C 17.22 108.66 15.97 110.53 14.91 111.34
  Q 12.13 113.46 10.56 116.43
  Q 10.34 116.86 9.89 117.01
  Q 9.40 117.17 9.12 117.62
  Q 8.12 119.19 6.83 120.47
  Q 5.14 122.16 3.81 120.80"
/>
<path stroke="#9edbdb" vector-effect="non-scaling-stroke" d="
  M 120.33 9.95
  Q 119.35 10.98 118.84 12.51
  Q 118.69 12.95 118.36 13.28
  Q 117.68 13.95 117.87 14.91
  Q 117.97 15.47 117.56 15.87
  Q 115.78 17.59 114.35 19.61
  C 113.17 21.28 113.31 22.89 113.57 24.79
  Q 113.84 26.74 113.86 28.76
  Q 114.26 59.77 113.98 81.50
  C 113.94 84.39 114.13 87.02 114.01 89.69
  Q 113.60 99.37 113.85 109.75
  Q 113.89 111.33 112.66 112.68
  Q 112.30 113.06 111.79 113.10
  C 109.40 113.28 107.16 112.52 105.07 112.60
  Q 92.13 113.11 79.36 112.72"
/>
<path stroke="#62a9c9" vector-effect="non-scaling-stroke" d="
  M 43.12 53.37
  Q 46.50 57.69 51.31 59.86
  A 0.34 0.34 0.0 0 1 51.31 60.48
  C 40.92 64.86 35.68 75.28 41.37 85.82"
/>
<path stroke="#62b2c9" vector-effect="non-scaling-stroke" d="
  M 41.37 85.82
  Q 45.88 92.93 54.52 94.98
  Q 64.52 97.36 73.17 94.01
  C 80.31 91.24 85.69 85.14 85.90 77.22
  C 86.13 68.91 81.17 64.22 73.67 60.95
  Q 73.13 60.71 73.52 60.26
  Q 73.76 59.98 74.23 59.82"
/>
<path stroke="#62a9c9" vector-effect="non-scaling-stroke" d="
  M 74.23 59.82
  C 82.00 56.02 86.80 46.26 82.18 38.31
  Q 79.31 33.37 73.80 31.16"
/>
<path stroke="#629cc9" vector-effect="non-scaling-stroke" d="
  M 73.80 31.16
  C 64.06 27.51 50.38 28.25 43.90 37.15
  Q 38.40 44.71 43.12 53.37"
/>
<path stroke="#005daa" vector-effect="non-scaling-stroke" d="
  M 73.80 31.16
  Q 71.74 33.78 68.68 35.80"
/>
<path stroke="#629cc9" vector-effect="non-scaling-stroke" d="
  M 68.68 35.80
  C 60.47 33.39 48.50 35.86 50.13 47.08"
/>
<path stroke="#005daa" vector-effect="non-scaling-stroke" d="
  M 50.13 47.08
  L 48.54 49.19
  Q 48.20 49.64 47.69 49.88
  Q 45.98 50.69 44.47 52.46
  Q 44.41 52.53 44.40 52.62
  Q 44.37 52.78 44.36 52.97
  A 0.38 0.38 0.0 0 1 44.00 53.33
  L 43.12 53.37"
/>
<path stroke="#0073aa" vector-effect="non-scaling-stroke" d="
  M 74.23 59.82
  Q 73.33 59.46 73.00 60.01
  Q 72.82 60.31 72.47 60.28
  Q 71.91 60.24 71.56 60.61
  Q 70.15 62.08 68.55 63.04
  A 1.99 1.91 1.1 0 0 68.01 63.54
  L 66.61 65.51"
/>
<path stroke="#62a9c9" vector-effect="non-scaling-stroke" d="
  M 66.61 65.51
  L 57.47 62.42
  Q 57.00 62.26 56.56 62.50
  Q 46.32 68.12 48.34 79.66"
/>
<path stroke="#0073aa" vector-effect="non-scaling-stroke" d="
  M 48.34 79.66
  L 41.37 85.82"
/>
<path stroke="#62a9c9" vector-effect="non-scaling-stroke" d="
  M 50.13 47.08
  C 52.80 53.91 60.94 56.05 67.20 58.25
  Q 67.71 58.43 68.17 58.16
  Q 74.37 54.49 75.71 48.76
  Q 77.94 39.25 68.68 35.80"
/>
<path stroke="#62b2c9" vector-effect="non-scaling-stroke" d="
  M 48.34 79.66
  Q 50.56 85.58 55.75 87.70
  C 64.94 91.45 78.00 87.87 76.95 75.53
  C 76.47 69.90 71.29 67.49 66.61 65.51"
/>
</g>
<path fill="#b4e2e3" d="
  M 0.00 0.00
  L 128.00 0.00
  L 128.00 128.00
  L 0.00 128.00
  L 0.00 0.00
  Z
  M 3.81 120.80
  Q 4.37 123.64 3.98 126.45
  A 0.94 0.94 0.0 0 0 4.78 127.50
  Q 6.04 127.68 7.27 127.24
  A 0.74 0.73 -22.8 0 0 7.69 126.23
  Q 5.78 122.14 9.62 120.17
  Q 10.03 119.96 10.30 119.59
  C 11.64 117.77 13.69 117.03 15.20 115.28
  Q 16.37 113.93 17.75 112.91
  Q 20.24 111.07 23.15 111.43
  Q 24.77 111.63 26.33 111.63
  Q 46.54 111.63 66.75 111.63
  Q 71.02 111.63 79.36 112.72
  C 75.79 113.09 71.45 112.63 68.88 112.63
  Q 43.86 112.61 22.54 112.63
  C 21.00 112.63 18.85 114.12 17.79 115.22
  Q 16.65 116.40 15.54 117.57
  Q 14.79 118.34 13.73 118.86
  C 12.60 119.42 11.16 120.06 10.45 121.01
  Q 9.93 121.71 9.12 122.08
  Q 8.66 122.29 8.61 122.80
  Q 8.38 125.02 10.49 125.27
  Q 10.94 125.32 10.92 124.87
  L 10.85 123.20
  Q 10.83 122.68 11.22 122.34
  Q 12.32 121.37 13.58 120.54
  Q 13.69 120.47 13.77 120.58
  L 13.77 120.58
  Q 13.92 120.79 13.69 120.90
  Q 12.43 121.50 11.64 122.58
  A 2.31 2.31 0.0 0 0 13.03 126.21
  Q 14.07 126.42 15.37 126.33
  Q 22.50 125.79 29.85 125.70
  Q 64.10 125.30 107.20 125.69
  Q 116.93 125.77 125.87 126.40
  A 0.97 0.97 0.0 0 0 126.91 125.35
  Q 126.71 122.87 126.69 120.74
  Q 126.34 87.25 126.11 50.25
  Q 126.03 38.20 126.13 26.38
  C 126.16 21.65 126.83 17.09 126.60 12.56
  Q 126.49 10.59 125.19 8.72
  Q 124.31 7.47 122.83 7.94
  Q 121.57 8.34 120.33 9.95
  Q 120.16 9.19 120.61 8.54
  C 121.40 7.39 121.60 6.91 121.42 5.61
  Q 123.03 3.26 120.74 2.32
  Q 118.70 1.48 116.50 1.45
  Q 100.08 1.26 81.49 1.35
  Q 45.64 1.54 15.59 1.44
  C 11.17 1.42 7.04 0.61 2.66 0.87
  A 1.79 1.78 85.5 0 0 0.99 2.83
  C 1.42 7.40 2.23 11.74 2.24 16.40
  Q 2.34 65.92 2.05 114.75
  Q 2.03 117.76 3.81 120.80
  Z"
/>
<path fill="#ffffff" d="
  M 121.42 5.61
  Q 119.97 7.37 118.55 9.09
  Q 117.87 9.92 116.81 10.06
  Q 116.34 10.12 116.05 10.49
  Q 113.91 13.27 110.51 15.88
  Q 109.09 16.98 107.97 16.90
  Q 103.66 16.61 99.86 16.60
  Q 70.14 16.46 30.49 16.42
  Q 24.84 16.42 19.13 16.22
  A 2.26 2.26 0.0 0 0 16.80 18.59
  Q 17.25 27.32 17.13 36.89
  C 16.91 53.83 17.13 70.72 17.00 88.00
  Q 16.92 97.47 17.19 107.32
  C 17.22 108.66 15.97 110.53 14.91 111.34
  Q 12.13 113.46 10.56 116.43
  Q 10.34 116.86 9.89 117.01
  Q 9.40 117.17 9.12 117.62
  Q 8.12 119.19 6.83 120.47
  Q 5.14 122.16 3.81 120.80
  Q 2.03 117.76 2.05 114.75
  Q 2.34 65.92 2.24 16.40
  C 2.23 11.74 1.42 7.40 0.99 2.83
  A 1.79 1.78 85.5 0 1 2.66 0.87
  C 7.04 0.61 11.17 1.42 15.59 1.44
  Q 45.64 1.54 81.49 1.35
  Q 100.08 1.26 116.50 1.45
  Q 118.70 1.48 120.74 2.32
  Q 123.03 3.26 121.42 5.61
  Z"
/>
<path fill="#c3e8e8" d="
  M 121.42 5.61
  C 121.60 6.91 121.40 7.39 120.61 8.54
  Q 120.16 9.19 120.33 9.95
  Q 119.35 10.98 118.84 12.51
  Q 118.69 12.95 118.36 13.28
  Q 117.68 13.95 117.87 14.91
  Q 117.97 15.47 117.56 15.87
  Q 115.78 17.59 114.35 19.61
  C 113.17 21.28 113.31 22.89 113.57 24.79
  Q 113.84 26.74 113.86 28.76
  Q 114.26 59.77 113.98 81.50
  C 113.94 84.39 114.13 87.02 114.01 89.69
  Q 113.60 99.37 113.85 109.75
  Q 113.89 111.33 112.66 112.68
  Q 112.30 113.06 111.79 113.10
  C 109.40 113.28 107.16 112.52 105.07 112.60
  Q 92.13 113.11 79.36 112.72
  Q 71.02 111.63 66.75 111.63
  Q 46.54 111.63 26.33 111.63
  Q 24.77 111.63 23.15 111.43
  Q 20.24 111.07 17.75 112.91
  Q 16.37 113.93 15.20 115.28
  C 13.69 117.03 11.64 117.77 10.30 119.59
  Q 10.03 119.96 9.62 120.17
  Q 5.78 122.14 7.69 126.23
  A 0.74 0.73 -22.8 0 1 7.27 127.24
  Q 6.04 127.68 4.78 127.50
  A 0.94 0.94 0.0 0 1 3.98 126.45
  Q 4.37 123.64 3.81 120.80
  Q 5.14 122.16 6.83 120.47
  Q 8.12 119.19 9.12 117.62
  Q 9.40 117.17 9.89 117.01
  Q 10.34 116.86 10.56 116.43
  Q 12.13 113.46 14.91 111.34
  C 15.97 110.53 17.22 108.66 17.19 107.32
  Q 16.92 97.47 17.00 88.00
  C 17.13 70.72 16.91 53.83 17.13 36.89
  Q 17.25 27.32 16.80 18.59
  A 2.26 2.26 0.0 0 1 19.13 16.22
  Q 24.84 16.42 30.49 16.42
  Q 70.14 16.46 99.86 16.60
  Q 103.66 16.61 107.97 16.90
  Q 109.09 16.98 110.51 15.88
  Q 113.91 13.27 116.05 10.49
  Q 116.34 10.12 116.81 10.06
  Q 117.87 9.92 118.55 9.09
  Q 119.97 7.37 121.42 5.61
  Z
  M 43.12 53.37
  Q 46.50 57.69 51.31 59.86
  A 0.34 0.34 0.0 0 1 51.31 60.48
  C 40.92 64.86 35.68 75.28 41.37 85.82
  Q 45.88 92.93 54.52 94.98
  Q 64.52 97.36 73.17 94.01
  C 80.31 91.24 85.69 85.14 85.90 77.22
  C 86.13 68.91 81.17 64.22 73.67 60.95
  Q 73.13 60.71 73.52 60.26
  Q 73.76 59.98 74.23 59.82
  C 82.00 56.02 86.80 46.26 82.18 38.31
  Q 79.31 33.37 73.80 31.16
  C 64.06 27.51 50.38 28.25 43.90 37.15
  Q 38.40 44.71 43.12 53.37
  Z"
/>
<path fill="#79cdcd" d="
  M 79.36 112.72
  Q 92.13 113.11 105.07 112.60
  C 107.16 112.52 109.40 113.28 111.79 113.10
  Q 112.30 113.06 112.66 112.68
  Q 113.89 111.33 113.85 109.75
  Q 113.60 99.37 114.01 89.69
  C 114.13 87.02 113.94 84.39 113.98 81.50
  Q 114.26 59.77 113.86 28.76
  Q 113.84 26.74 113.57 24.79
  C 113.31 22.89 113.17 21.28 114.35 19.61
  Q 115.78 17.59 117.56 15.87
  Q 117.97 15.47 117.87 14.91
  Q 117.68 13.95 118.36 13.28
  Q 118.69 12.95 118.84 12.51
  Q 119.35 10.98 120.33 9.95
  Q 121.57 8.34 122.83 7.94
  Q 124.31 7.47 125.19 8.72
  Q 126.49 10.59 126.60 12.56
  C 126.83 17.09 126.16 21.65 126.13 26.38
  Q 126.03 38.20 126.11 50.25
  Q 126.34 87.25 126.69 120.74
  Q 126.71 122.87 126.91 125.35
  A 0.97 0.97 0.0 0 1 125.87 126.40
  Q 116.93 125.77 107.20 125.69
  Q 64.10 125.30 29.85 125.70
  Q 22.50 125.79 15.37 126.33
  Q 14.07 126.42 13.03 126.21
  A 2.31 2.31 0.0 0 1 11.64 122.58
  Q 12.43 121.50 13.69 120.90
  Q 13.92 120.79 13.77 120.58
  L 13.77 120.58
  Q 13.69 120.47 13.58 120.54
  Q 12.32 121.37 11.22 122.34
  Q 10.83 122.68 10.85 123.20
  L 10.92 124.87
  Q 10.94 125.32 10.49 125.27
  Q 8.38 125.02 8.61 122.80
  Q 8.66 122.29 9.12 122.08
  Q 9.93 121.71 10.45 121.01
  C 11.16 120.06 12.60 119.42 13.73 118.86
  Q 14.79 118.34 15.54 117.57
  Q 16.65 116.40 17.79 115.22
  C 18.85 114.12 21.00 112.63 22.54 112.63
  Q 43.86 112.61 68.88 112.63
  C 71.45 112.63 75.79 113.09 79.36 112.72
  Z"
/>
<path fill="#0050aa" d="
  M 73.80 31.16
  Q 71.74 33.78 68.68 35.80
  C 60.47 33.39 48.50 35.86 50.13 47.08
  L 48.54 49.19
  Q 48.20 49.64 47.69 49.88
  Q 45.98 50.69 44.47 52.46
  Q 44.41 52.53 44.40 52.62
  Q 44.37 52.78 44.36 52.97
  A 0.38 0.38 0.0 0 1 44.00 53.33
  L 43.12 53.37
  Q 38.40 44.71 43.90 37.15
  C 50.38 28.25 64.06 27.51 73.80 31.16
  Z"
/>
<path fill="#006aaa" d="
  M 73.80 31.16
  Q 79.31 33.37 82.18 38.31
  C 86.80 46.26 82.00 56.02 74.23 59.82
  Q 73.33 59.46 73.00 60.01
  Q 72.82 60.31 72.47 60.28
  Q 71.91 60.24 71.56 60.61
  Q 70.15 62.08 68.55 63.04
  A 1.99 1.91 1.1 0 0 68.01 63.54
  L 66.61 65.51
  L 57.47 62.42
  Q 57.00 62.26 56.56 62.50
  Q 46.32 68.12 48.34 79.66
  L 41.37 85.82
  C 35.68 75.28 40.92 64.86 51.31 60.48
  A 0.34 0.34 0.0 0 0 51.31 59.86
  Q 46.50 57.69 43.12 53.37
  L 44.00 53.33
  A 0.38 0.38 0.0 0 0 44.36 52.97
  Q 44.37 52.78 44.40 52.62
  Q 44.41 52.53 44.47 52.46
  Q 45.98 50.69 47.69 49.88
  Q 48.20 49.64 48.54 49.19
  L 50.13 47.08
  C 52.80 53.91 60.94 56.05 67.20 58.25
  Q 67.71 58.43 68.17 58.16
  Q 74.37 54.49 75.71 48.76
  Q 77.94 39.25 68.68 35.80
  Q 71.74 33.78 73.80 31.16
  Z"
/>
<path fill="#c3e8e8" d="
  M 68.68 35.80
  Q 77.94 39.25 75.71 48.76
  Q 74.37 54.49 68.17 58.16
  Q 67.71 58.43 67.20 58.25
  C 60.94 56.05 52.80 53.91 50.13 47.08
  C 48.50 35.86 60.47 33.39 68.68 35.80
  Z"
/>
<path fill="#007caa" d="
  M 74.23 59.82
  Q 73.76 59.98 73.52 60.26
  Q 73.13 60.71 73.67 60.95
  C 81.17 64.22 86.13 68.91 85.90 77.22
  C 85.69 85.14 80.31 91.24 73.17 94.01
  Q 64.52 97.36 54.52 94.98
  Q 45.88 92.93 41.37 85.82
  L 48.34 79.66
  Q 50.56 85.58 55.75 87.70
  C 64.94 91.45 78.00 87.87 76.95 75.53
  C 76.47 69.90 71.29 67.49 66.61 65.51
  L 68.01 63.54
  A 1.99 1.91 1.1 0 1 68.55 63.04
  Q 70.15 62.08 71.56 60.61
  Q 71.91 60.24 72.47 60.28
  Q 72.82 60.31 73.00 60.01
  Q 73.33 59.46 74.23 59.82
  Z"
/>
<path fill="#c3e8e8" d="
  M 66.61 65.51
  C 71.29 67.49 76.47 69.90 76.95 75.53
  C 78.00 87.87 64.94 91.45 55.75 87.70
  Q 50.56 85.58 48.34 79.66
  Q 46.32 68.12 56.56 62.50
  Q 57.00 62.26 57.47 62.42
  L 66.61 65.51
  Z"
/>
</svg>
