<?xml version="1.0" encoding="UTF-8" standalone="no"?>
<!DOCTYPE svg PUBLIC "-//W3C//DTD SVG 1.1//EN" "http://www.w3.org/Graphics/SVG/1.1/DTD/svg11.dtd">
<svg xmlns="http://www.w3.org/2000/svg" version="1.1" viewBox="0.00 0.00 128.00 128.00">
<g stroke-width="2.00" fill="none" stroke-linecap="butt">
<path stroke="#bb9bbb" vector-effect="non-scaling-stroke" d="
  M 4.08 121.30
  Q 4.60 123.78 3.48 126.55
  A 0.55 0.54 -72.1 0 0 3.85 127.28
  Q 6.28 127.89 7.45 126.40
  Q 7.85 125.90 7.70 125.27
  L 7.37 123.84
  Q 7.25 123.31 7.60 122.90
  Q 10.82 119.02 14.82 116.00
  Q 14.93 115.91 17.15 113.91
  Q 19.21 112.05 22.25 111.95
  Q 25.74 111.83 29.30 112.94"
/>
<path stroke="#967d96" vector-effect="non-scaling-stroke" d="
  M 29.30 112.94
  L 21.58 112.84
  A 1.46 1.46 0.0 0 0 20.51 113.28
  Q 19.50 114.31 18.70 115.58
  Q 16.27 119.41 11.65 121.36
  Q 11.41 121.46 11.56 121.25
  Q 11.59 121.21 11.61 121.16
  Q 11.74 120.66 11.36 121.01
  Q 10.70 121.64 9.89 122.07
  A 1.60 1.60 0.0 0 0 9.71 124.78
  Q 11.85 126.33 14.48 126.18
  Q 32.23 125.14 49.00 125.29
  Q 72.26 125.51 92.37 125.37
  Q 94.19 125.36 96.00 125.39
  Q 111.20 125.64 125.98 126.30
  A 0.82 0.82 0.0 0 0 126.83 125.39
  Q 126.54 122.34 126.53 119.40
  Q 126.40 79.28 126.03 38.96
  Q 125.90 25.74 126.55 13.25
  Q 126.65 11.42 125.62 10.07
  Q 125.29 9.64 124.75 9.60
  Q 124.02 9.56 123.40 9.82
  Q 123.31 9.86 123.23 9.80
  Q 123.12 9.71 123.24 9.53
  Q 123.29 9.45 123.37 9.44
  Q 123.55 9.40 123.73 9.45
  Q 124.14 9.54 123.76 9.37
  Q 123.28 9.15 123.04 9.52
  Q 121.62 11.80 119.66 14.45"
/>
<path stroke="#bb9bbb" vector-effect="non-scaling-stroke" d="
  M 119.66 14.45
  Q 120.16 11.58 121.81 9.24
  Q 121.89 9.12 121.76 9.08
  Q 121.44 8.97 121.63 9.17
  Q 120.92 10.95 119.86 12.05
  Q 119.28 10.99 119.88 10.24
  Q 121.53 8.21 122.69 6.03
  Q 122.93 5.57 123.45 5.62
  L 126.43 5.90
  A 1.09 1.08 -87.1 0 0 127.62 4.82
  L 127.62 4.28
  Q 127.62 2.81 126.15 2.90
  Q 123.13 3.08 120.02 2.00"
/>
<path stroke="#d8b5d4" vector-effect="non-scaling-stroke" d="
  M 120.02 2.00
  Q 117.04 1.45 116.00 1.37
  Q 109.93 0.85 98.16 1.22
  Q 86.83 1.57 80.33 1.55
  Q 64.65 1.49 47.75 1.53
  Q 31.86 1.57 15.51 1.42
  C 10.97 1.38 6.87 0.41 2.42 0.84
  Q 0.60 1.02 0.87 2.82
  C 1.66 8.11 2.22 12.89 2.22 18.42
  Q 2.31 88.50 2.10 114.00
  Q 2.07 117.93 4.08 121.30"
/>
<path stroke="#e0bcdc" vector-effect="non-scaling-stroke" d="
  M 120.02 2.00
  Q 122.73 3.53 121.08 5.80
  Q 120.30 6.87 119.40 7.54
  Q 117.94 8.61 117.56 9.01
  Q 113.64 13.08 109.20 16.48
  Q 108.77 16.80 108.24 16.85
  C 104.55 17.18 100.90 16.46 97.22 16.47
  Q 58.88 16.60 19.13 16.35
  A 2.23 2.23 0.0 0 0 16.88 18.65
  Q 17.09 26.26 17.06 33.49
  Q 16.90 68.29 17.18 101.41
  C 17.21 105.32 18.36 108.48 14.75 111.35
  Q 12.37 113.25 9.28 118.27
  Q 7.17 121.68 4.08 121.30"
/>
<path stroke="#bb9bbb" vector-effect="non-scaling-stroke" d="
  M 119.86 12.05
  Q 118.80 12.04 118.64 13.61
  Q 118.59 14.11 118.16 14.36
  Q 116.31 15.44 115.48 17.29
  Q 115.13 18.10 115.80 17.53
  Q 117.41 16.18 118.49 15.01
  Q 119.62 13.78 119.86 12.05"
/>
<path stroke="#9f849f" vector-effect="non-scaling-stroke" d="
  M 119.66 14.45
  Q 117.97 17.15 114.83 19.45
  Q 114.43 19.74 114.28 20.22
  C 113.80 21.77 114.42 23.48 114.38 25.10
  Q 114.25 31.05 114.64 37.00
  Q 114.84 40.10 114.56 44.50
  Q 114.31 48.56 114.38 52.00
  Q 114.78 70.43 114.16 78.75
  Q 113.92 81.96 114.05 84.12
  Q 114.13 85.61 114.10 87.09
  Q 113.89 98.96 113.82 110.86
  A 2.18 2.18 0.0 0 1 111.66 113.03
  Q 105.17 113.10 97.79 113.58
  C 94.31 113.81 90.92 113.14 87.40 113.36
  Q 84.48 113.53 81.84 113.55
  Q 68.81 113.61 56.58 113.83
  Q 50.98 113.93 42.94 113.39
  Q 36.10 112.92 29.30 112.94"
/>
</g>
<path fill="#b294b2" d="
  M 0.00 0.00
  L 128.00 0.00
  L 128.00 128.00
  L 0.00 128.00
  L 0.00 0.00
  Z
  M 4.08 121.30
  Q 4.60 123.78 3.48 126.55
  A 0.55 0.54 -72.1 0 0 3.85 127.28
  Q 6.28 127.89 7.45 126.40
  Q 7.85 125.90 7.70 125.27
  L 7.37 123.84
  Q 7.25 123.31 7.60 122.90
  Q 10.82 119.02 14.82 116.00
  Q 14.93 115.91 17.15 113.91
  Q 19.21 112.05 22.25 111.95
  Q 25.74 111.83 29.30 112.94
  L 21.58 112.84
  A 1.46 1.46 0.0 0 0 20.51 113.28
  Q 19.50 114.31 18.70 115.58
  Q 16.27 119.41 11.65 121.36
  Q 11.41 121.46 11.56 121.25
  Q 11.59 121.21 11.61 121.16
  Q 11.74 120.66 11.36 121.01
  Q 10.70 121.64 9.89 122.07
  A 1.60 1.60 0.0 0 0 9.71 124.78
  Q 11.85 126.33 14.48 126.18
  Q 32.23 125.14 49.00 125.29
  Q 72.26 125.51 92.37 125.37
  Q 94.19 125.36 96.00 125.39
  Q 111.20 125.64 125.98 126.30
  A 0.82 0.82 0.0 0 0 126.83 125.39
  Q 126.54 122.34 126.53 119.40
  Q 126.40 79.28 126.03 38.96
  Q 125.90 25.74 126.55 13.25
  Q 126.65 11.42 125.62 10.07
  Q 125.29 9.64 124.75 9.60
  Q 124.02 9.56 123.40 9.82
  Q 123.31 9.86 123.23 9.80
  Q 123.12 9.71 123.24 9.53
  Q 123.29 9.45 123.37 9.44
  Q 123.55 9.40 123.73 9.45
  Q 124.14 9.54 123.76 9.37
  Q 123.28 9.15 123.04 9.52
  Q 121.62 11.80 119.66 14.45
  Q 120.16 11.58 121.81 9.24
  Q 121.89 9.12 121.76 9.08
  Q 121.44 8.97 121.63 9.17
  Q 120.92 10.95 119.86 12.05
  Q 119.28 10.99 119.88 10.24
  Q 121.53 8.21 122.69 6.03
  Q 122.93 5.57 123.45 5.62
  L 126.43 5.90
  A 1.09 1.08 -87.1 0 0 127.62 4.82
  L 127.62 4.28
  Q 127.62 2.81 126.15 2.90
  Q 123.13 3.08 120.02 2.00
  Q 117.04 1.45 116.00 1.37
  Q 109.93 0.85 98.16 1.22
  Q 86.83 1.57 80.33 1.55
  Q 64.65 1.49 47.75 1.53
  Q 31.86 1.57 15.51 1.42
  C 10.97 1.38 6.87 0.41 2.42 0.84
  Q 0.60 1.02 0.87 2.82
  C 1.66 8.11 2.22 12.89 2.22 18.42
  Q 2.31 88.50 2.10 114.00
  Q 2.07 117.93 4.08 121.30
  Z"
/>
<path fill="#fdd5f5" d="
  M 120.02 2.00
  Q 122.73 3.53 121.08 5.80
  Q 120.30 6.87 119.40 7.54
  Q 117.94 8.61 117.56 9.01
  Q 113.64 13.08 109.20 16.48
  Q 108.77 16.80 108.24 16.85
  C 104.55 17.18 100.90 16.46 97.22 16.47
  Q 58.88 16.60 19.13 16.35
  A 2.23 2.23 0.0 0 0 16.88 18.65
  Q 17.09 26.26 17.06 33.49
  Q 16.90 68.29 17.18 101.41
  C 17.21 105.32 18.36 108.48 14.75 111.35
  Q 12.37 113.25 9.28 118.27
  Q 7.17 121.68 4.08 121.30
  Q 2.07 117.93 2.10 114.00
  Q 2.31 88.50 2.22 18.42
  C 2.22 12.89 1.66 8.11 0.87 2.82
  Q 0.60 1.02 2.42 0.84
  C 6.87 0.41 10.97 1.38 15.51 1.42
  Q 31.86 1.57 47.75 1.53
  Q 64.65 1.49 80.33 1.55
  Q 86.83 1.57 98.16 1.22
  Q 109.93 0.85 116.00 1.37
  Q 117.04 1.45 120.02 2.00
  Z"
/>
<path fill="#c3a2c3" d="
  M 120.02 2.00
  Q 123.13 3.08 126.15 2.90
  Q 127.62 2.81 127.62 4.28
  L 127.62 4.82
  A 1.09 1.08 -87.1 0 1 126.43 5.90
  L 123.45 5.62
  Q 122.93 5.57 122.69 6.03
  Q 121.53 8.21 119.88 10.24
  Q 119.28 10.99 119.86 12.05
  Q 118.80 12.04 118.64 13.61
  Q 118.59 14.11 118.16 14.36
  Q 116.31 15.44 115.48 17.29
  Q 115.13 18.10 115.80 17.53
  Q 117.41 16.18 118.49 15.01
  Q 119.62 13.78 119.86 12.05
  Q 120.92 10.95 121.63 9.17
  Q 121.44 8.97 121.76 9.08
  Q 121.89 9.12 121.81 9.24
  Q 120.16 11.58 119.66 14.45
  Q 117.97 17.15 114.83 19.45
  Q 114.43 19.74 114.28 20.22
  C 113.80 21.77 114.42 23.48 114.38 25.10
  Q 114.25 31.05 114.64 37.00
  Q 114.84 40.10 114.56 44.50
  Q 114.31 48.56 114.38 52.00
  Q 114.78 70.43 114.16 78.75
  Q 113.92 81.96 114.05 84.12
  Q 114.13 85.61 114.10 87.09
  Q 113.89 98.96 113.82 110.86
  A 2.18 2.18 0.0 0 1 111.66 113.03
  Q 105.17 113.10 97.79 113.58
  C 94.31 113.81 90.92 113.14 87.40 113.36
  Q 84.48 113.53 81.84 113.55
  Q 68.81 113.61 56.58 113.83
  Q 50.98 113.93 42.94 113.39
  Q 36.10 112.92 29.30 112.94
  Q 25.74 111.83 22.25 111.95
  Q 19.21 112.05 17.15 113.91
  Q 14.93 115.91 14.82 116.00
  Q 10.82 119.02 7.60 122.90
  Q 7.25 123.31 7.37 123.84
  L 7.70 125.27
  Q 7.85 125.90 7.45 126.40
  Q 6.28 127.89 3.85 127.28
  A 0.55 0.54 -72.1 0 1 3.48 126.55
  Q 4.60 123.78 4.08 121.30
  Q 7.17 121.68 9.28 118.27
  Q 12.37 113.25 14.75 111.35
  C 18.36 108.48 17.21 105.32 17.18 101.41
  Q 16.90 68.29 17.06 33.49
  Q 17.09 26.26 16.88 18.65
  A 2.23 2.23 0.0 0 1 19.13 16.35
  Q 58.88 16.60 97.22 16.47
  C 100.90 16.46 104.55 17.18 108.24 16.85
  Q 108.77 16.80 109.20 16.48
  Q 113.64 13.08 117.56 9.01
  Q 117.94 8.61 119.40 7.54
  Q 120.30 6.87 121.08 5.80
  Q 122.73 3.53 120.02 2.00
  Z"
/>
<path fill="#7a667a" d="
  M 29.30 112.94
  Q 36.10 112.92 42.94 113.39
  Q 50.98 113.93 56.58 113.83
  Q 68.81 113.61 81.84 113.55
  Q 84.48 113.53 87.40 113.36
  C 90.92 113.14 94.31 113.81 97.79 113.58
  Q 105.17 113.10 111.66 113.03
  A 2.18 2.18 0.0 0 0 113.82 110.86
  Q 113.89 98.96 114.10 87.09
  Q 114.13 85.61 114.05 84.12
  Q 113.92 81.96 114.16 78.75
  Q 114.78 70.43 114.38 52.00
  Q 114.31 48.56 114.56 44.50
  Q 114.84 40.10 114.64 37.00
  Q 114.25 31.05 114.38 25.10
  C 114.42 23.48 113.80 21.77 114.28 20.22
  Q 114.43 19.74 114.83 19.45
  Q 117.97 17.15 119.66 14.45
  Q 121.62 11.80 123.04 9.52
  Q 123.28 9.15 123.76 9.37
  Q 124.14 9.54 123.73 9.45
  Q 123.55 9.40 123.37 9.44
  Q 123.29 9.45 123.24 9.53
  Q 123.12 9.71 123.23 9.80
  Q 123.31 9.86 123.40 9.82
  Q 124.02 9.56 124.75 9.60
  Q 125.29 9.64 125.62 10.07
  Q 126.65 11.42 126.55 13.25
  Q 125.90 25.74 126.03 38.96
  Q 126.40 79.28 126.53 119.40
  Q 126.54 122.34 126.83 125.39
  A 0.82 0.82 0.0 0 1 125.98 126.30
  Q 111.20 125.64 96.00 125.39
  Q 94.19 125.36 92.37 125.37
  Q 72.26 125.51 49.00 125.29
  Q 32.23 125.14 14.48 126.18
  Q 11.85 126.33 9.71 124.78
  A 1.60 1.60 0.0 0 1 9.89 122.07
  Q 10.70 121.64 11.36 121.01
  Q 11.74 120.66 11.61 121.16
  Q 11.59 121.21 11.56 121.25
  Q 11.41 121.46 11.65 121.36
  Q 16.27 119.41 18.70 115.58
  Q 19.50 114.31 20.51 113.28
  A 1.46 1.46 0.0 0 1 21.58 112.84
  L 29.30 112.94
  Z"
/>
<path fill="#b294b2" d="
  M 119.86 12.05
  Q 119.62 13.78 118.49 15.01
  Q 117.41 16.18 115.80 17.53
  Q 115.13 18.10 115.48 17.29
  Q 116.31 15.44 118.16 14.36
  Q 118.59 14.11 118.64 13.61
  Q 118.80 12.04 119.86 12.05
  Z"
/>
</svg>
