<?xml version="1.0" encoding="UTF-8" standalone="no"?>
<!DOCTYPE svg PUBLIC "-//W3C//DTD SVG 1.1//EN" "http://www.w3.org/Graphics/SVG/1.1/DTD/svg11.dtd">
<svg xmlns="http://www.w3.org/2000/svg" version="1.1" viewBox="0.00 0.00 128.00 128.00">
<g stroke-width="2.00" fill="none" stroke-linecap="butt">
<path stroke="#d6bcc0" vector-effect="non-scaling-stroke" d="
  M 4.17 121.07
  Q 4.70 123.37 3.97 126.34
  A 0.90 0.90 0.0 0 0 4.65 127.43
  Q 5.99 127.71 7.23 127.32
  A 0.71 0.70 -17.4 0 0 7.70 126.43
  Q 7.06 124.46 7.61 122.63
  Q 7.99 121.35 9.90 120.14
  Q 11.90 118.88 13.85 117.52
  Q 14.21 117.27 17.43 114.44
  Q 20.09 112.11 23.23 111.88
  Q 29.53 111.41 40.62 112.48"
/>
<path stroke="#c197ac" vector-effect="non-scaling-stroke" d="
  M 40.62 112.48
  L 21.71 112.84
  Q 21.24 112.85 20.85 113.09
  Q 18.76 114.33 17.67 116.42
  Q 16.13 119.38 12.58 121.21
  Q 10.40 122.33 10.38 124.62
  Q 10.38 125.21 10.88 125.51
  Q 12.20 126.30 13.73 126.25
  C 30.16 125.65 47.03 125.27 64.25 125.40
  Q 90.99 125.61 115.77 125.90
  Q 120.74 125.96 125.80 126.13
  A 0.70 0.70 0.0 0 0 126.52 125.49
  C 126.68 123.88 126.31 122.35 126.31 120.76
  Q 126.29 78.88 126.11 37.00
  Q 126.07 28.99 126.61 13.85
  C 126.65 12.68 126.41 11.55 126.04 10.44
  Q 125.67 9.32 124.47 9.66
  A 0.91 0.91 0.0 0 0 123.91 10.15
  Q 123.41 11.21 122.18 11.44
  Q 121.82 11.51 121.64 11.83
  Q 119.22 16.20 115.41 19.86
  C 114.48 20.75 114.02 22.16 114.13 23.43
  Q 115.02 33.32 114.34 43.33"
/>
<path stroke="#d6bcc0" vector-effect="non-scaling-stroke" d="
  M 114.34 43.33
  Q 113.56 39.07 113.61 36.50
  Q 113.75 29.00 113.62 21.50
  Q 113.60 20.37 115.73 17.00
  Q 115.81 16.86 116.95 15.76
  Q 117.83 14.90 117.40 13.75
  A 0.92 0.90 -38.8 0 1 117.50 12.93
  L 122.20 5.90
  A 0.94 0.94 0.0 0 1 123.28 5.54
  Q 125.49 6.30 126.91 5.04
  Q 127.92 4.15 126.72 3.54
  Q 125.37 2.85 123.46 3.17
  Q 122.86 3.27 122.32 2.98
  Q 121.44 2.51 120.50 2.48"
/>
<path stroke="#e8dade" vector-effect="non-scaling-stroke" d="
  M 120.50 2.48
  Q 118.43 1.59 116.00 1.58
  Q 76.38 1.39 39.25 1.31
  C 28.54 1.28 17.52 2.40 6.88 0.91
  Q 4.52 0.58 2.15 1.18
  A 1.27 1.27 0.0 0 0 1.18 2.50
  Q 1.42 6.18 1.91 10.25
  Q 2.33 13.75 2.32 18.21
  Q 2.18 66.10 2.28 114.00
  Q 2.29 117.64 4.17 121.07"
/>
<path stroke="#ede1e2" vector-effect="non-scaling-stroke" d="
  M 120.50 2.48
  Q 122.22 3.39 121.66 4.63
  C 121.04 6.00 119.37 8.18 117.96 9.36
  Q 114.36 12.37 110.80 15.42
  Q 109.34 16.68 107.62 16.60
  Q 85.19 15.54 58.80 16.81
  Q 45.49 17.45 29.43 16.40
  C 25.80 16.17 22.27 16.35 18.66 16.26
  A 1.52 1.52 0.0 0 0 17.11 17.59
  Q 16.87 19.48 16.87 21.34
  Q 16.75 60.89 16.83 97.94
  Q 16.83 101.18 17.13 104.45
  C 17.36 107.00 17.05 109.46 14.80 111.14
  Q 12.09 113.17 9.45 117.47
  Q 7.08 121.32 4.17 121.07"
/>
<path stroke="#c69fb0" vector-effect="non-scaling-stroke" d="
  M 114.34 43.33
  Q 114.42 46.53 114.30 52.25
  Q 114.09 61.77 114.30 74.99
  Q 114.54 90.62 114.07 108.02
  Q 114.02 110.03 113.41 111.75
  A 2.31 2.30 -78.0 0 1 111.04 113.29
  C 104.42 112.77 98.28 113.74 91.98 113.67
  Q 72.07 113.45 52.15 113.39
  C 48.26 113.38 44.50 112.83 40.62 112.48"
/>
<path stroke="#bbafb0" vector-effect="non-scaling-stroke" d="
  M 39.01 68.57
  L 39.27 105.18
  A 1.95 1.95 0.0 0 0 40.87 107.09
  Q 43.41 107.55 45.46 106.38
  Q 46.11 106.02 46.12 105.28
  L 46.95 67.78"
/>
<path stroke="#abc9ca" vector-effect="non-scaling-stroke" d="
  M 46.95 67.78
  L 53.79 67.65
  A 1.01 1.00 2.3 0 0 54.77 66.75
  L 55.04 64.01
  Q 55.11 63.37 55.74 63.28
  L 61.57 62.44
  A 0.97 0.95 -78.6 0 0 62.29 61.95
  C 62.88 60.87 63.50 59.78 64.83 59.49
  Q 67.65 58.88 70.35 58.35
  A 1.44 1.40 11.3 0 0 71.27 57.75
  C 72.87 55.46 76.30 54.86 78.90 54.46
  A 1.90 1.86 -72.2 0 0 79.96 53.90
  C 81.01 52.78 81.93 51.76 83.51 51.39
  Q 85.51 50.93 87.52 50.34
  A 1.86 1.83 9.2 0 0 88.51 49.64
  C 90.19 47.30 93.17 46.72 95.93 46.50
  C 97.20 46.39 97.88 45.42 97.31 44.17
  A 0.97 0.95 82.6 0 0 96.61 43.62
  Q 94.27 43.19 91.78 42.81
  C 89.99 42.54 89.26 41.40 88.30 40.08
  Q 87.89 39.52 87.21 39.40
  C 84.68 38.93 81.87 38.51 80.30 36.22
  A 1.42 1.41 79.0 0 0 79.42 35.62
  Q 77.00 35.08 74.44 34.45
  C 71.58 33.76 72.34 30.69 69.98 30.42
  Q 66.70 30.04 63.70 28.86
  Q 63.27 28.70 63.02 28.31
  C 61.50 25.88 59.50 26.33 57.08 25.51
  Q 56.07 25.17 54.35 23.79
  Q 51.36 21.39 46.98 22.19"
/>
<path stroke="#a4a7cf" vector-effect="non-scaling-stroke" d="
  M 46.98 22.19
  Q 43.46 21.08 40.06 21.61
  A 1.22 1.21 85.6 0 0 39.04 22.81
  L 39.01 68.57"
/>
<path stroke="#75add4" vector-effect="non-scaling-stroke" d="
  M 46.98 22.19
  L 46.95 67.78"
/>
<path stroke="#8493ba" vector-effect="non-scaling-stroke" d="
  M 46.95 67.78
  Q 46.74 67.98 46.51 68.02
  Q 46.31 68.06 46.03 67.92
  Q 42.63 66.16 39.01 68.57"
/>
</g>
<path fill="#d1b4bc" d="
  M 0.00 0.00
  L 128.00 0.00
  L 128.00 128.00
  L 0.00 128.00
  L 0.00 0.00
  Z
  M 4.17 121.07
  Q 4.70 123.37 3.97 126.34
  A 0.90 0.90 0.0 0 0 4.65 127.43
  Q 5.99 127.71 7.23 127.32
  A 0.71 0.70 -17.4 0 0 7.70 126.43
  Q 7.06 124.46 7.61 122.63
  Q 7.99 121.35 9.90 120.14
  Q 11.90 118.88 13.85 117.52
  Q 14.21 117.27 17.43 114.44
  Q 20.09 112.11 23.23 111.88
  Q 29.53 111.41 40.62 112.48
  L 21.71 112.84
  Q 21.24 112.85 20.85 113.09
  Q 18.76 114.33 17.67 116.42
  Q 16.13 119.38 12.58 121.21
  Q 10.40 122.33 10.38 124.62
  Q 10.38 125.21 10.88 125.51
  Q 12.20 126.30 13.73 126.25
  C 30.16 125.65 47.03 125.27 64.25 125.40
  Q 90.99 125.61 115.77 125.90
  Q 120.74 125.96 125.80 126.13
  A 0.70 0.70 0.0 0 0 126.52 125.49
  C 126.68 123.88 126.31 122.35 126.31 120.76
  Q 126.29 78.88 126.11 37.00
  Q 126.07 28.99 126.61 13.85
  C 126.65 12.68 126.41 11.55 126.04 10.44
  Q 125.67 9.32 124.47 9.66
  A 0.91 0.91 0.0 0 0 123.91 10.15
  Q 123.41 11.21 122.18 11.44
  Q 121.82 11.51 121.64 11.83
  Q 119.22 16.20 115.41 19.86
  C 114.48 20.75 114.02 22.16 114.13 23.43
  Q 115.02 33.32 114.34 43.33
  Q 113.56 39.07 113.61 36.50
  Q 113.75 29.00 113.62 21.50
  Q 113.60 20.37 115.73 17.00
  Q 115.81 16.86 116.95 15.76
  Q 117.83 14.90 117.40 13.75
  A 0.92 0.90 -38.8 0 1 117.50 12.93
  L 122.20 5.90
  A 0.94 0.94 0.0 0 1 123.28 5.54
  Q 125.49 6.30 126.91 5.04
  Q 127.92 4.15 126.72 3.54
  Q 125.37 2.85 123.46 3.17
  Q 122.86 3.27 122.32 2.98
  Q 121.44 2.51 120.50 2.48
  Q 118.43 1.59 116.00 1.58
  Q 76.38 1.39 39.25 1.31
  C 28.54 1.28 17.52 2.40 6.88 0.91
  Q 4.52 0.58 2.15 1.18
  A 1.27 1.27 0.0 0 0 1.18 2.50
  Q 1.42 6.18 1.91 10.25
  Q 2.33 13.75 2.32 18.21
  Q 2.18 66.10 2.28 114.00
  Q 2.29 117.64 4.17 121.07
  Z"
/>
<path fill="#ffffff" d="
  M 120.50 2.48
  Q 122.22 3.39 121.66 4.63
  C 121.04 6.00 119.37 8.18 117.96 9.36
  Q 114.36 12.37 110.80 15.42
  Q 109.34 16.68 107.62 16.60
  Q 85.19 15.54 58.80 16.81
  Q 45.49 17.45 29.43 16.40
  C 25.80 16.17 22.27 16.35 18.66 16.26
  A 1.52 1.52 0.0 0 0 17.11 17.59
  Q 16.87 19.48 16.87 21.34
  Q 16.75 60.89 16.83 97.94
  Q 16.83 101.18 17.13 104.45
  C 17.36 107.00 17.05 109.46 14.80 111.14
  Q 12.09 113.17 9.45 117.47
  Q 7.08 121.32 4.17 121.07
  Q 2.29 117.64 2.28 114.00
  Q 2.18 66.10 2.32 18.21
  Q 2.33 13.75 1.91 10.25
  Q 1.42 6.18 1.18 2.50
  A 1.27 1.27 0.0 0 1 2.15 1.18
  Q 4.52 0.58 6.88 0.91
  C 17.52 2.40 28.54 1.28 39.25 1.31
  Q 76.38 1.39 116.00 1.58
  Q 118.43 1.59 120.50 2.48
  Z"
/>
<path fill="#dac3c4" d="
  M 120.50 2.48
  Q 121.44 2.51 122.32 2.98
  Q 122.86 3.27 123.46 3.17
  Q 125.37 2.85 126.72 3.54
  Q 127.92 4.15 126.91 5.04
  Q 125.49 6.30 123.28 5.54
  A 0.94 0.94 0.0 0 0 122.20 5.90
  L 117.50 12.93
  A 0.92 0.90 -38.8 0 0 117.40 13.75
  Q 117.83 14.90 116.95 15.76
  Q 115.81 16.86 115.73 17.00
  Q 113.60 20.37 113.62 21.50
  Q 113.75 29.00 113.61 36.50
  Q 113.56 39.07 114.34 43.33
  Q 114.42 46.53 114.30 52.25
  Q 114.09 61.77 114.30 74.99
  Q 114.54 90.62 114.07 108.02
  Q 114.02 110.03 113.41 111.75
  A 2.31 2.30 -78.0 0 1 111.04 113.29
  C 104.42 112.77 98.28 113.74 91.98 113.67
  Q 72.07 113.45 52.15 113.39
  C 48.26 113.38 44.50 112.83 40.62 112.48
  Q 29.53 111.41 23.23 111.88
  Q 20.09 112.11 17.43 114.44
  Q 14.21 117.27 13.85 117.52
  Q 11.90 118.88 9.90 120.14
  Q 7.99 121.35 7.61 122.63
  Q 7.06 124.46 7.70 126.43
  A 0.71 0.70 -17.4 0 1 7.23 127.32
  Q 5.99 127.71 4.65 127.43
  A 0.90 0.90 0.0 0 1 3.97 126.34
  Q 4.70 123.37 4.17 121.07
  Q 7.08 121.32 9.45 117.47
  Q 12.09 113.17 14.80 111.14
  C 17.05 109.46 17.36 107.00 17.13 104.45
  Q 16.83 101.18 16.83 97.94
  Q 16.75 60.89 16.87 21.34
  Q 16.87 19.48 17.11 17.59
  A 1.52 1.52 0.0 0 1 18.66 16.26
  C 22.27 16.35 25.80 16.17 29.43 16.40
  Q 45.49 17.45 58.80 16.81
  Q 85.19 15.54 107.62 16.60
  Q 109.34 16.68 110.80 15.42
  Q 114.36 12.37 117.96 9.36
  C 119.37 8.18 121.04 6.00 121.66 4.63
  Q 122.22 3.39 120.50 2.48
  Z
  M 39.01 68.57
  L 39.27 105.18
  A 1.95 1.95 0.0 0 0 40.87 107.09
  Q 43.41 107.55 45.46 106.38
  Q 46.11 106.02 46.12 105.28
  L 46.95 67.78
  L 53.79 67.65
  A 1.01 1.00 2.3 0 0 54.77 66.75
  L 55.04 64.01
  Q 55.11 63.37 55.74 63.28
  L 61.57 62.44
  A 0.97 0.95 -78.6 0 0 62.29 61.95
  C 62.88 60.87 63.50 59.78 64.83 59.49
  Q 67.65 58.88 70.35 58.35
  A 1.44 1.40 11.3 0 0 71.27 57.75
  C 72.87 55.46 76.30 54.86 78.90 54.46
  A 1.90 1.86 -72.2 0 0 79.96 53.90
  C 81.01 52.78 81.93 51.76 83.51 51.39
  Q 85.51 50.93 87.52 50.34
  A 1.86 1.83 9.2 0 0 88.51 49.64
  C 90.19 47.30 93.17 46.72 95.93 46.50
  C 97.20 46.39 97.88 45.42 97.31 44.17
  A 0.97 0.95 82.6 0 0 96.61 43.62
  Q 94.27 43.19 91.78 42.81
  C 89.99 42.54 89.26 41.40 88.30 40.08
  Q 87.89 39.52 87.21 39.40
  C 84.68 38.93 81.87 38.51 80.30 36.22
  A 1.42 1.41 79.0 0 0 79.42 35.62
  Q 77.00 35.08 74.44 34.45
  C 71.58 33.76 72.34 30.69 69.98 30.42
  Q 66.70 30.04 63.70 28.86
  Q 63.27 28.70 63.02 28.31
  C 61.50 25.88 59.50 26.33 57.08 25.51
  Q 56.07 25.17 54.35 23.79
  Q 51.36 21.39 46.98 22.19
  Q 43.46 21.08 40.06 21.61
  A 1.22 1.21 85.6 0 0 39.04 22.81
  L 39.01 68.57
  Z"
/>
<path fill="#b17a9b" d="
  M 40.62 112.48
  C 44.50 112.83 48.26 113.38 52.15 113.39
  Q 72.07 113.45 91.98 113.67
  C 98.28 113.74 104.42 112.77 111.04 113.29
  A 2.31 2.30 -78.0 0 0 113.41 111.75
  Q 114.02 110.03 114.07 108.02
  Q 114.54 90.62 114.30 74.99
  Q 114.09 61.77 114.30 52.25
  Q 114.42 46.53 114.34 43.33
  Q 115.02 33.32 114.13 23.43
  C 114.02 22.16 114.48 20.75 115.41 19.86
  Q 119.22 16.20 121.64 11.83
  Q 121.82 11.51 122.18 11.44
  Q 123.41 11.21 123.91 10.15
  A 0.91 0.91 0.0 0 1 124.47 9.66
  Q 125.67 9.32 126.04 10.44
  C 126.41 11.55 126.65 12.68 126.61 13.85
  Q 126.07 28.99 126.11 37.00
  Q 126.29 78.88 126.31 120.76
  C 126.31 122.35 126.68 123.88 126.52 125.49
  A 0.70 0.70 0.0 0 1 125.80 126.13
  Q 120.74 125.96 115.77 125.90
  Q 90.99 125.61 64.25 125.40
  C 47.03 125.27 30.16 125.65 13.73 126.25
  Q 12.20 126.30 10.88 125.51
  Q 10.38 125.21 10.38 124.62
  Q 10.40 122.33 12.58 121.21
  Q 16.13 119.38 17.67 116.42
  Q 18.76 114.33 20.85 113.09
  Q 21.24 112.85 21.71 112.84
  L 40.62 112.48
  Z"
/>
<path fill="#6d8bd9" d="
  M 46.98 22.19
  L 46.95 67.78
  Q 46.74 67.98 46.51 68.02
  Q 46.31 68.06 46.03 67.92
  Q 42.63 66.16 39.01 68.57
  L 39.04 22.81
  A 1.22 1.21 85.6 0 1 40.06 21.61
  Q 43.46 21.08 46.98 22.19
  Z"
/>
<path fill="#7ccfcf" d="
  M 46.95 67.78
  L 46.98 22.19
  Q 51.36 21.39 54.35 23.79
  Q 56.07 25.17 57.08 25.51
  C 59.50 26.33 61.50 25.88 63.02 28.31
  Q 63.27 28.70 63.70 28.86
  Q 66.70 30.04 69.98 30.42
  C 72.34 30.69 71.58 33.76 74.44 34.45
  Q 77.00 35.08 79.42 35.62
  A 1.42 1.41 79.0 0 1 80.30 36.22
  C 81.87 38.51 84.68 38.93 87.21 39.40
  Q 87.89 39.52 88.30 40.08
  C 89.26 41.40 89.99 42.54 91.78 42.81
  Q 94.27 43.19 96.61 43.62
  A 0.97 0.95 82.6 0 1 97.31 44.17
  C 97.88 45.42 97.20 46.39 95.93 46.50
  C 93.17 46.72 90.19 47.30 88.51 49.64
  A 1.86 1.83 9.2 0 1 87.52 50.34
  Q 85.51 50.93 83.51 51.39
  C 81.93 51.76 81.01 52.78 79.96 53.90
  A 1.90 1.86 -72.2 0 1 78.90 54.46
  C 76.30 54.86 72.87 55.46 71.27 57.75
  A 1.44 1.40 11.3 0 1 70.35 58.35
  Q 67.65 58.88 64.83 59.49
  C 63.50 59.78 62.88 60.87 62.29 61.95
  A 0.97 0.95 -78.6 0 1 61.57 62.44
  L 55.74 63.28
  Q 55.11 63.37 55.04 64.01
  L 54.77 66.75
  A 1.01 1.00 2.3 0 1 53.79 67.65
  L 46.95 67.78
  Z"
/>
<path fill="#9b9b9b" d="
  M 46.95 67.78
  L 46.12 105.28
  Q 46.11 106.02 45.46 106.38
  Q 43.41 107.55 40.87 107.09
  A 1.95 1.95 0.0 0 1 39.27 105.18
  L 39.01 68.57
  Q 42.63 66.16 46.03 67.92
  Q 46.31 68.06 46.51 68.02
  Q 46.74 67.98 46.95 67.78
  Z"
/>
</svg>
