<?xml version="1.0" encoding="UTF-8" standalone="no"?>
<!DOCTYPE svg PUBLIC "-//W3C//DTD SVG 1.1//EN" "http://www.w3.org/Graphics/SVG/1.1/DTD/svg11.dtd">
<svg xmlns="http://www.w3.org/2000/svg" version="1.1" viewBox="0.00 0.00 128.00 128.00">
<g stroke-width="2.00" fill="none" stroke-linecap="butt">
<path stroke="#d6bcc0" vector-effect="non-scaling-stroke" d="
  M 4.25 121.10
  Q 4.60 123.72 3.99 126.08
  Q 3.59 127.63 5.19 127.63
  L 6.36 127.63
  Q 8.00 127.63 7.57 126.04
  Q 6.53 122.22 9.96 120.22
  Q 11.46 119.35 12.76 118.04
  Q 16.08 114.69 19.91 112.66
  Q 21.44 111.85 23.19 111.85
  Q 34.25 111.85 44.90 112.14
  Q 47.90 112.22 52.02 111.38
  Q 56.71 110.42 61.77 110.36"
/>
<path stroke="#a7c2c6" vector-effect="non-scaling-stroke" d="
  M 61.77 110.36
  L 60.16 113.41"
/>
<path stroke="#c196ab" vector-effect="non-scaling-stroke" d="
  M 60.16 113.41
  Q 60.10 113.78 59.98 113.96
  Q 59.85 114.15 59.51 114.01
  Q 59.21 113.89 58.92 113.75
  Q 58.62 113.61 58.30 113.62
  Q 55.03 113.75 51.57 113.34
  Q 47.09 112.82 44.88 112.81
  Q 31.55 112.75 22.50 112.90
  Q 20.42 112.94 19.13 114.55
  Q 18.44 115.42 17.74 116.22
  C 16.41 117.76 15.99 119.11 13.83 119.87
  C 12.21 120.43 11.29 121.76 10.13 123.05
  A 1.57 1.56 -54.1 0 0 10.51 125.46
  C 11.58 126.07 13.32 126.32 14.53 126.26
  Q 26.81 125.65 37.06 125.57
  Q 72.80 125.29 115.48 125.85
  Q 120.57 125.91 125.64 126.18
  A 0.98 0.98 0.0 0 0 126.67 125.11
  Q 126.38 122.01 126.37 118.75
  Q 126.30 78.26 126.14 38.75
  Q 126.08 26.11 126.59 13.01
  Q 126.65 11.51 125.67 9.76
  Q 125.45 9.38 125.01 9.33
  Q 122.24 9.01 121.28 11.87
  Q 120.13 15.32 117.41 17.45
  Q 116.24 18.37 115.00 19.19
  Q 114.38 19.61 114.37 20.35
  Q 114.32 25.75 114.39 31.15
  Q 114.44 35.02 114.74 38.80
  C 114.90 40.84 115.42 46.67 114.28 48.53
  Q 114.04 48.92 114.04 49.38
  Q 113.73 73.15 113.90 96.24
  C 113.92 98.29 113.48 100.27 113.60 102.37
  Q 113.85 106.59 113.05 110.36
  A 3.16 3.15 -83.9 0 1 109.95 112.87
  Q 90.25 112.85 69.99 113.62
  Q 67.01 113.73 65.52 111.75"
/>
<path stroke="#a7c2c6" vector-effect="non-scaling-stroke" d="
  M 65.52 111.75
  Q 65.78 111.09 66.24 110.53
  Q 66.56 110.15 67.06 110.13
  L 70.27 110.03"
/>
<path stroke="#d6bcc0" vector-effect="non-scaling-stroke" d="
  M 70.27 110.03
  Q 69.91 110.46 69.91 110.85
  Q 69.90 111.30 69.46 111.37
  Q 68.47 111.51 67.46 111.06
  Q 67.23 110.96 67.15 111.20
  L 67.07 111.48
  Q 66.97 111.79 67.29 111.86
  Q 72.22 112.88 81.21 112.54
  Q 94.20 112.04 110.62 112.10
  A 2.02 2.01 -85.5 0 0 112.61 110.40
  Q 112.75 109.52 112.78 108.65
  Q 113.14 98.74 112.72 88.63
  Q 112.37 80.46 113.16 57.01
  Q 113.32 52.22 113.78 47.47
  Q 113.99 45.24 113.58 42.72
  Q 113.19 40.34 113.59 37.99
  C 113.86 36.36 113.34 34.75 113.44 33.08
  Q 113.78 27.55 113.60 22.00
  C 113.51 19.22 115.44 17.81 117.15 15.97
  Q 118.73 14.29 118.57 11.57
  Q 118.54 11.01 118.87 10.55
  Q 121.69 6.75 122.34 4.24
  Q 122.76 2.62 121.27 2.96"
/>
<path stroke="#e8dade" vector-effect="non-scaling-stroke" d="
  M 121.27 2.96
  Q 119.25 1.65 116.75 1.61
  Q 66.02 0.82 16.27 1.62
  C 12.86 1.67 9.61 1.20 6.22 0.84
  Q 3.50 0.55 1.64 1.47
  A 0.85 0.83 -15.3 0 0 1.18 2.26
  C 1.49 7.53 2.33 12.45 2.32 17.92
  Q 2.18 65.84 2.28 113.75
  Q 2.29 117.88 4.25 121.10"
/>
<path stroke="#ede1e2" vector-effect="non-scaling-stroke" d="
  M 121.27 2.96
  Q 122.21 3.94 121.42 5.15
  C 118.71 9.30 114.64 12.52 110.37 15.72
  C 108.22 17.33 104.33 16.37 101.85 16.33
  Q 62.14 15.75 18.75 16.32
  Q 17.50 16.33 17.16 17.54
  Q 16.78 18.87 16.78 20.24
  Q 17.00 56.94 16.78 95.88
  C 16.76 100.00 17.44 104.19 16.79 108.25
  Q 16.55 109.76 15.35 110.58
  C 12.18 112.76 10.08 116.52 7.67 119.41
  Q 6.15 121.22 4.25 121.10"
/>
<path stroke="#abc9ca" vector-effect="non-scaling-stroke" d="
  M 70.27 110.03
  L 73.50 105.63
  A 1.69 1.67 27.6 0 1 75.41 105.04
  Q 77.36 105.73 78.45 103.99
  Q 79.93 101.65 81.21 99.04
  A 0.97 0.97 0.0 0 1 82.59 98.64
  C 86.48 101.04 87.94 96.87 89.58 94.44
  C 90.80 92.63 93.24 94.33 94.95 91.81
  Q 96.01 90.24 97.13 88.83
  Q 97.48 88.37 98.05 88.29
  C 99.90 88.02 101.13 88.12 102.31 86.31
  Q 104.19 83.44 105.04 81.13"
/>
<path stroke="#a4a7cf" vector-effect="non-scaling-stroke" d="
  M 105.04 81.13
  L 108.10 75.43
  A 0.71 0.70 -62.0 0 0 107.81 74.47
  L 67.18 53.18"
/>
<path stroke="#bbafb0" vector-effect="non-scaling-stroke" d="
  M 67.18 53.18
  L 58.25 48.48
  A 0.30 0.30 0.0 0 0 57.85 48.61
  L 54.39 55.19
  Q 54.25 55.47 54.53 55.62
  Q 58.38 57.59 62.43 59.75
  Q 62.70 59.89 63.00 59.87
  Q 63.37 59.85 63.52 59.60"
/>
<path stroke="#a4a7cf" vector-effect="non-scaling-stroke" d="
  M 63.52 59.60
  Q 64.09 59.86 63.96 60.99"
/>
<path stroke="#abc9ca" vector-effect="non-scaling-stroke" d="
  M 63.96 60.99
  L 60.67 67.24
  Q 60.38 67.77 60.93 68.04
  L 64.08 69.61
  A 0.73 0.72 -62.9 0 1 64.40 70.60
  L 61.38 76.31
  Q 60.93 77.17 61.82 77.56
  L 63.44 78.27
  A 1.23 1.23 0.0 0 1 64.03 79.98
  L 60.86 85.99
  A 1.08 1.07 26.9 0 0 61.35 87.47
  L 63.08 88.29
  A 0.99 0.98 -63.2 0 1 63.52 89.65
  L 60.23 95.71
  Q 59.88 96.35 60.42 96.85
  Q 61.33 97.71 62.50 98.18
  A 0.73 0.73 0.0 0 1 62.89 99.17
  L 60.31 104.58
  A 1.17 1.16 -53.4 0 0 60.50 105.87
  Q 61.21 106.64 62.19 107.12
  Q 62.68 107.35 62.66 107.90
  Q 62.60 109.06 61.77 110.36"
/>
<path stroke="#8493ba" vector-effect="non-scaling-stroke" d="
  M 67.18 53.18
  Q 65.95 57.11 63.52 59.60"
/>
<path stroke="#75add4" vector-effect="non-scaling-stroke" d="
  M 105.04 81.13
  Q 97.50 77.09 92.59 74.91
  Q 80.22 69.40 70.36 63.93
  C 68.73 63.03 67.10 62.75 65.76 61.36
  A 1.22 1.22 0.0 0 0 64.91 60.99
  L 63.96 60.99"
/>
<path stroke="#96a4b5" vector-effect="non-scaling-stroke" d="
  M 60.16 113.41
  Q 59.58 116.45 62.97 114.90
  A 2.30 2.27 -84.9 0 0 63.95 114.07
  L 65.52 111.75"
/>
<path stroke="#d6bcc0" vector-effect="non-scaling-stroke" d="
  M 110.74 111.16
  Q 111.86 110.59 112.18 109.05
  C 112.82 105.93 112.44 103.53 112.37 100.57
  Q 112.17 92.31 112.13 84.83
  Q 112.11 82.05 111.78 79.09
  Q 111.38 75.41 111.75 73.20
  Q 112.30 69.85 112.37 66.25
  Q 112.49 60.57 113.02 52.21
  Q 113.41 45.96 112.45 37.10
  Q 112.44 37.06 112.41 37.05
  Q 112.39 37.04 112.37 37.05
  Q 112.29 37.05 112.29 37.13
  C 112.23 43.70 112.54 50.12 112.07 56.92
  Q 111.73 61.73 111.66 66.38
  Q 111.63 67.75 111.15 69.51
  Q 110.72 71.04 110.73 72.75
  Q 110.74 76.79 111.04 80.59
  Q 111.35 84.53 111.43 88.40
  Q 111.60 96.47 112.09 105.69
  Q 112.23 108.30 110.62 110.45
  A 0.96 0.94 -71.4 0 1 109.89 110.82
  Q 92.55 110.95 76.04 110.69
  Q 75.03 110.68 74.06 110.28
  Q 72.93 109.83 71.76 110.09
  Q 70.37 110.41 71.73 110.84
  C 73.07 111.26 74.40 111.63 75.82 111.63
  Q 92.56 111.61 108.71 111.63
  Q 109.82 111.63 110.74 111.16"
/>
<path stroke="#bbafb0" vector-effect="non-scaling-stroke" d="
  M 47.0380 80.0503
  A 1.03 1.03 0.0 0 0 46.0134 79.0150
  L 40.3734 78.9854
  A 1.03 1.03 0.0 0 0 39.3381 80.0100
  L 39.2020 105.9897
  A 1.03 1.03 0.0 0 0 40.2266 107.0250
  L 45.8666 107.0546
  A 1.03 1.03 0.0 0 0 46.9019 106.0300
  L 47.0380 80.0503"
/>
</g>
<path fill="#d1b4bc" d="
  M 0.00 0.00
  L 128.00 0.00
  L 128.00 128.00
  L 0.00 128.00
  L 0.00 0.00
  Z
  M 4.25 121.10
  Q 4.60 123.72 3.99 126.08
  Q 3.59 127.63 5.19 127.63
  L 6.36 127.63
  Q 8.00 127.63 7.57 126.04
  Q 6.53 122.22 9.96 120.22
  Q 11.46 119.35 12.76 118.04
  Q 16.08 114.69 19.91 112.66
  Q 21.44 111.85 23.19 111.85
  Q 34.25 111.85 44.90 112.14
  Q 47.90 112.22 52.02 111.38
  Q 56.71 110.42 61.77 110.36
  L 60.16 113.41
  Q 60.10 113.78 59.98 113.96
  Q 59.85 114.15 59.51 114.01
  Q 59.21 113.89 58.92 113.75
  Q 58.62 113.61 58.30 113.62
  Q 55.03 113.75 51.57 113.34
  Q 47.09 112.82 44.88 112.81
  Q 31.55 112.75 22.50 112.90
  Q 20.42 112.94 19.13 114.55
  Q 18.44 115.42 17.74 116.22
  C 16.41 117.76 15.99 119.11 13.83 119.87
  C 12.21 120.43 11.29 121.76 10.13 123.05
  A 1.57 1.56 -54.1 0 0 10.51 125.46
  C 11.58 126.07 13.32 126.32 14.53 126.26
  Q 26.81 125.65 37.06 125.57
  Q 72.80 125.29 115.48 125.85
  Q 120.57 125.91 125.64 126.18
  A 0.98 0.98 0.0 0 0 126.67 125.11
  Q 126.38 122.01 126.37 118.75
  Q 126.30 78.26 126.14 38.75
  Q 126.08 26.11 126.59 13.01
  Q 126.65 11.51 125.67 9.76
  Q 125.45 9.38 125.01 9.33
  Q 122.24 9.01 121.28 11.87
  Q 120.13 15.32 117.41 17.45
  Q 116.24 18.37 115.00 19.19
  Q 114.38 19.61 114.37 20.35
  Q 114.32 25.75 114.39 31.15
  Q 114.44 35.02 114.74 38.80
  C 114.90 40.84 115.42 46.67 114.28 48.53
  Q 114.04 48.92 114.04 49.38
  Q 113.73 73.15 113.90 96.24
  C 113.92 98.29 113.48 100.27 113.60 102.37
  Q 113.85 106.59 113.05 110.36
  A 3.16 3.15 -83.9 0 1 109.95 112.87
  Q 90.25 112.85 69.99 113.62
  Q 67.01 113.73 65.52 111.75
  Q 65.78 111.09 66.24 110.53
  Q 66.56 110.15 67.06 110.13
  L 70.27 110.03
  Q 69.91 110.46 69.91 110.85
  Q 69.90 111.30 69.46 111.37
  Q 68.47 111.51 67.46 111.06
  Q 67.23 110.96 67.15 111.20
  L 67.07 111.48
  Q 66.97 111.79 67.29 111.86
  Q 72.22 112.88 81.21 112.54
  Q 94.20 112.04 110.62 112.10
  A 2.02 2.01 -85.5 0 0 112.61 110.40
  Q 112.75 109.52 112.78 108.65
  Q 113.14 98.74 112.72 88.63
  Q 112.37 80.46 113.16 57.01
  Q 113.32 52.22 113.78 47.47
  Q 113.99 45.24 113.58 42.72
  Q 113.19 40.34 113.59 37.99
  C 113.86 36.36 113.34 34.75 113.44 33.08
  Q 113.78 27.55 113.60 22.00
  C 113.51 19.22 115.44 17.81 117.15 15.97
  Q 118.73 14.29 118.57 11.57
  Q 118.54 11.01 118.87 10.55
  Q 121.69 6.75 122.34 4.24
  Q 122.76 2.62 121.27 2.96
  Q 119.25 1.65 116.75 1.61
  Q 66.02 0.82 16.27 1.62
  C 12.86 1.67 9.61 1.20 6.22 0.84
  Q 3.50 0.55 1.64 1.47
  A 0.85 0.83 -15.3 0 0 1.18 2.26
  C 1.49 7.53 2.33 12.45 2.32 17.92
  Q 2.18 65.84 2.28 113.75
  Q 2.29 117.88 4.25 121.10
  Z"
/>
<path fill="#ffffff" d="
  M 121.27 2.96
  Q 122.21 3.94 121.42 5.15
  C 118.71 9.30 114.64 12.52 110.37 15.72
  C 108.22 17.33 104.33 16.37 101.85 16.33
  Q 62.14 15.75 18.75 16.32
  Q 17.50 16.33 17.16 17.54
  Q 16.78 18.87 16.78 20.24
  Q 17.00 56.94 16.78 95.88
  C 16.76 100.00 17.44 104.19 16.79 108.25
  Q 16.55 109.76 15.35 110.58
  C 12.18 112.76 10.08 116.52 7.67 119.41
  Q 6.15 121.22 4.25 121.10
  Q 2.29 117.88 2.28 113.75
  Q 2.18 65.84 2.32 17.92
  C 2.33 12.45 1.49 7.53 1.18 2.26
  A 0.85 0.83 -15.3 0 1 1.64 1.47
  Q 3.50 0.55 6.22 0.84
  C 9.61 1.20 12.86 1.67 16.27 1.62
  Q 66.02 0.82 116.75 1.61
  Q 119.25 1.65 121.27 2.96
  Z"
/>
<path fill="#dac3c4" d="
  M 121.27 2.96
  Q 122.76 2.62 122.34 4.24
  Q 121.69 6.75 118.87 10.55
  Q 118.54 11.01 118.57 11.57
  Q 118.73 14.29 117.15 15.97
  C 115.44 17.81 113.51 19.22 113.60 22.00
  Q 113.78 27.55 113.44 33.08
  C 113.34 34.75 113.86 36.36 113.59 37.99
  Q 113.19 40.34 113.58 42.72
  Q 113.99 45.24 113.78 47.47
  Q 113.32 52.22 113.16 57.01
  Q 112.37 80.46 112.72 88.63
  Q 113.14 98.74 112.78 108.65
  Q 112.75 109.52 112.61 110.40
  A 2.02 2.01 -85.5 0 1 110.62 112.10
  Q 94.20 112.04 81.21 112.54
  Q 72.22 112.88 67.29 111.86
  Q 66.97 111.79 67.07 111.48
  L 67.15 111.20
  Q 67.23 110.96 67.46 111.06
  Q 68.47 111.51 69.46 111.37
  Q 69.90 111.30 69.91 110.85
  Q 69.91 110.46 70.27 110.03
  L 73.50 105.63
  A 1.69 1.67 27.6 0 1 75.41 105.04
  Q 77.36 105.73 78.45 103.99
  Q 79.93 101.65 81.21 99.04
  A 0.97 0.97 0.0 0 1 82.59 98.64
  C 86.48 101.04 87.94 96.87 89.58 94.44
  C 90.80 92.63 93.24 94.33 94.95 91.81
  Q 96.01 90.24 97.13 88.83
  Q 97.48 88.37 98.05 88.29
  C 99.90 88.02 101.13 88.12 102.31 86.31
  Q 104.19 83.44 105.04 81.13
  L 108.10 75.43
  A 0.71 0.70 -62.0 0 0 107.81 74.47
  L 67.18 53.18
  L 58.25 48.48
  A 0.30 0.30 0.0 0 0 57.85 48.61
  L 54.39 55.19
  Q 54.25 55.47 54.53 55.62
  Q 58.38 57.59 62.43 59.75
  Q 62.70 59.89 63.00 59.87
  Q 63.37 59.85 63.52 59.60
  Q 64.09 59.86 63.96 60.99
  L 60.67 67.24
  Q 60.38 67.77 60.93 68.04
  L 64.08 69.61
  A 0.73 0.72 -62.9 0 1 64.40 70.60
  L 61.38 76.31
  Q 60.93 77.17 61.82 77.56
  L 63.44 78.27
  A 1.23 1.23 0.0 0 1 64.03 79.98
  L 60.86 85.99
  A 1.08 1.07 26.9 0 0 61.35 87.47
  L 63.08 88.29
  A 0.99 0.98 -63.2 0 1 63.52 89.65
  L 60.23 95.71
  Q 59.88 96.35 60.42 96.85
  Q 61.33 97.71 62.50 98.18
  A 0.73 0.73 0.0 0 1 62.89 99.17
  L 60.31 104.58
  A 1.17 1.16 -53.4 0 0 60.50 105.87
  Q 61.21 106.64 62.19 107.12
  Q 62.68 107.35 62.66 107.90
  Q 62.60 109.06 61.77 110.36
  Q 56.71 110.42 52.02 111.38
  Q 47.90 112.22 44.90 112.14
  Q 34.25 111.85 23.19 111.85
  Q 21.44 111.85 19.91 112.66
  Q 16.08 114.69 12.76 118.04
  Q 11.46 119.35 9.96 120.22
  Q 6.53 122.22 7.57 126.04
  Q 8.00 127.63 6.36 127.63
  L 5.19 127.63
  Q 3.59 127.63 3.99 126.08
  Q 4.60 123.72 4.25 121.10
  Q 6.15 121.22 7.67 119.41
  C 10.08 116.52 12.18 112.76 15.35 110.58
  Q 16.55 109.76 16.79 108.25
  C 17.44 104.19 16.76 100.00 16.78 95.88
  Q 17.00 56.94 16.78 20.24
  Q 16.78 18.87 17.16 17.54
  Q 17.50 16.33 18.75 16.32
  Q 62.14 15.75 101.85 16.33
  C 104.33 16.37 108.22 17.33 110.37 15.72
  C 114.64 12.52 118.71 9.30 121.42 5.15
  Q 122.21 3.94 121.27 2.96
  Z
  M 110.74 111.16
  Q 111.86 110.59 112.18 109.05
  C 112.82 105.93 112.44 103.53 112.37 100.57
  Q 112.17 92.31 112.13 84.83
  Q 112.11 82.05 111.78 79.09
  Q 111.38 75.41 111.75 73.20
  Q 112.30 69.85 112.37 66.25
  Q 112.49 60.57 113.02 52.21
  Q 113.41 45.96 112.45 37.10
  Q 112.44 37.06 112.41 37.05
  Q 112.39 37.04 112.37 37.05
  Q 112.29 37.05 112.29 37.13
  C 112.23 43.70 112.54 50.12 112.07 56.92
  Q 111.73 61.73 111.66 66.38
  Q 111.63 67.75 111.15 69.51
  Q 110.72 71.04 110.73 72.75
  Q 110.74 76.79 111.04 80.59
  Q 111.35 84.53 111.43 88.40
  Q 111.60 96.47 112.09 105.69
  Q 112.23 108.30 110.62 110.45
  A 0.96 0.94 -71.4 0 1 109.89 110.82
  Q 92.55 110.95 76.04 110.69
  Q 75.03 110.68 74.06 110.28
  Q 72.93 109.83 71.76 110.09
  Q 70.37 110.41 71.73 110.84
  C 73.07 111.26 74.40 111.63 75.82 111.63
  Q 92.56 111.61 108.71 111.63
  Q 109.82 111.63 110.74 111.16
  Z
  M 47.0380 80.0503
  A 1.03 1.03 0.0 0 0 46.0134 79.0150
  L 40.3734 78.9854
  A 1.03 1.03 0.0 0 0 39.3381 80.0100
  L 39.2020 105.9897
  A 1.03 1.03 0.0 0 0 40.2266 107.0250
  L 45.8666 107.0546
  A 1.03 1.03 0.0 0 0 46.9019 106.0300
  L 47.0380 80.0503
  Z"
/>
<path fill="#b0789a" d="
  M 60.16 113.41
  Q 59.58 116.45 62.97 114.90
  A 2.30 2.27 -84.9 0 0 63.95 114.07
  L 65.52 111.75
  Q 67.01 113.73 69.99 113.62
  Q 90.25 112.85 109.95 112.87
  A 3.16 3.15 -83.9 0 0 113.05 110.36
  Q 113.85 106.59 113.60 102.37
  C 113.48 100.27 113.92 98.29 113.90 96.24
  Q 113.73 73.15 114.04 49.38
  Q 114.04 48.92 114.28 48.53
  C 115.42 46.67 114.90 40.84 114.74 38.80
  Q 114.44 35.02 114.39 31.15
  Q 114.32 25.75 114.37 20.35
  Q 114.38 19.61 115.00 19.19
  Q 116.24 18.37 117.41 17.45
  Q 120.13 15.32 121.28 11.87
  Q 122.24 9.01 125.01 9.33
  Q 125.45 9.38 125.67 9.76
  Q 126.65 11.51 126.59 13.01
  Q 126.08 26.11 126.14 38.75
  Q 126.30 78.26 126.37 118.75
  Q 126.38 122.01 126.67 125.11
  A 0.98 0.98 0.0 0 1 125.64 126.18
  Q 120.57 125.91 115.48 125.85
  Q 72.80 125.29 37.06 125.57
  Q 26.81 125.65 14.53 126.26
  C 13.32 126.32 11.58 126.07 10.51 125.46
  A 1.57 1.56 -54.1 0 1 10.13 123.05
  C 11.29 121.76 12.21 120.43 13.83 119.87
  C 15.99 119.11 16.41 117.76 17.74 116.22
  Q 18.44 115.42 19.13 114.55
  Q 20.42 112.94 22.50 112.90
  Q 31.55 112.75 44.88 112.81
  Q 47.09 112.82 51.57 113.34
  Q 55.03 113.75 58.30 113.62
  Q 58.62 113.61 58.92 113.75
  Q 59.21 113.89 59.51 114.01
  Q 59.85 114.15 59.98 113.96
  Q 60.10 113.78 60.16 113.41
  Z"
/>
<path fill="#d1b4bc" d="
  M 110.74 111.16
  Q 109.82 111.63 108.71 111.63
  Q 92.56 111.61 75.82 111.63
  C 74.40 111.63 73.07 111.26 71.73 110.84
  Q 70.37 110.41 71.76 110.09
  Q 72.93 109.83 74.06 110.28
  Q 75.03 110.68 76.04 110.69
  Q 92.55 110.95 109.89 110.82
  A 0.96 0.94 -71.4 0 0 110.62 110.45
  Q 112.23 108.30 112.09 105.69
  Q 111.60 96.47 111.43 88.40
  Q 111.35 84.53 111.04 80.59
  Q 110.74 76.79 110.73 72.75
  Q 110.72 71.04 111.15 69.51
  Q 111.63 67.75 111.66 66.38
  Q 111.73 61.73 112.07 56.92
  C 112.54 50.12 112.23 43.70 112.29 37.13
  Q 112.29 37.05 112.37 37.05
  Q 112.39 37.04 112.41 37.05
  Q 112.44 37.06 112.45 37.10
  Q 113.41 45.96 113.02 52.21
  Q 112.49 60.57 112.37 66.25
  Q 112.30 69.85 111.75 73.20
  Q 111.38 75.41 111.78 79.09
  Q 112.11 82.05 112.13 84.83
  Q 112.17 92.31 112.37 100.57
  C 112.44 103.53 112.82 105.93 112.18 109.05
  Q 111.86 110.59 110.74 111.16
  Z"
/>
<path fill="#9b9b9b" d="
  M 67.18 53.18
  Q 65.95 57.11 63.52 59.60
  Q 63.37 59.85 63.00 59.87
  Q 62.70 59.89 62.43 59.75
  Q 58.38 57.59 54.53 55.62
  Q 54.25 55.47 54.39 55.19
  L 57.85 48.61
  A 0.30 0.30 0.0 0 1 58.25 48.48
  L 67.18 53.18
  Z"
/>
<path fill="#6d8bd9" d="
  M 67.18 53.18
  L 107.81 74.47
  A 0.71 0.70 -62.0 0 1 108.10 75.43
  L 105.04 81.13
  Q 97.50 77.09 92.59 74.91
  Q 80.22 69.40 70.36 63.93
  C 68.73 63.03 67.10 62.75 65.76 61.36
  A 1.22 1.22 0.0 0 0 64.91 60.99
  L 63.96 60.99
  Q 64.09 59.86 63.52 59.60
  Q 65.95 57.11 67.18 53.18
  Z"
/>
<path fill="#7ccfcf" d="
  M 63.96 60.99
  L 64.91 60.99
  A 1.22 1.22 0.0 0 1 65.76 61.36
  C 67.10 62.75 68.73 63.03 70.36 63.93
  Q 80.22 69.40 92.59 74.91
  Q 97.50 77.09 105.04 81.13
  Q 104.19 83.44 102.31 86.31
  C 101.13 88.12 99.90 88.02 98.05 88.29
  Q 97.48 88.37 97.13 88.83
  Q 96.01 90.24 94.95 91.81
  C 93.24 94.33 90.80 92.63 89.58 94.44
  C 87.94 96.87 86.48 101.04 82.59 98.64
  A 0.97 0.97 0.0 0 0 81.21 99.04
  Q 79.93 101.65 78.45 103.99
  Q 77.36 105.73 75.41 105.04
  A 1.69 1.67 27.6 0 0 73.50 105.63
  L 70.27 110.03
  L 67.06 110.13
  Q 66.56 110.15 66.24 110.53
  Q 65.78 111.09 65.52 111.75
  L 63.95 114.07
  A 2.30 2.27 -84.9 0 1 62.97 114.90
  Q 59.58 116.45 60.16 113.41
  L 61.77 110.36
  Q 62.60 109.06 62.66 107.90
  Q 62.68 107.35 62.19 107.12
  Q 61.21 106.64 60.50 105.87
  A 1.17 1.16 -53.4 0 1 60.31 104.58
  L 62.89 99.17
  A 0.73 0.73 0.0 0 0 62.50 98.18
  Q 61.33 97.71 60.42 96.85
  Q 59.88 96.35 60.23 95.71
  L 63.52 89.65
  A 0.99 0.98 -63.2 0 0 63.08 88.29
  L 61.35 87.47
  A 1.08 1.07 26.9 0 1 60.86 85.99
  L 64.03 79.98
  A 1.23 1.23 0.0 0 0 63.44 78.27
  L 61.82 77.56
  Q 60.93 77.17 61.38 76.31
  L 64.40 70.60
  A 0.73 0.72 -62.9 0 0 64.08 69.61
  L 60.93 68.04
  Q 60.38 67.77 60.67 67.24
  L 63.96 60.99
  Z"
/>
<rect fill="#9b9b9b" x="-3.85" y="-14.02" transform="translate(43.12,93.02) rotate(0.3)" width="7.70" height="28.04" rx="1.03"/>
</svg>
