<?xml version="1.0" encoding="UTF-8" standalone="no"?>
<!DOCTYPE svg PUBLIC "-//W3C//DTD SVG 1.1//EN" "http://www.w3.org/Graphics/SVG/1.1/DTD/svg11.dtd">
<svg xmlns="http://www.w3.org/2000/svg" version="1.1" viewBox="0.00 0.00 128.00 128.00">
<g stroke-width="2.00" fill="none" stroke-linecap="butt">
<path stroke="#d6bcc0" vector-effect="non-scaling-stroke" d="
  M 4.74 121.53
  L 4.90 123.99
  Q 4.93 124.49 4.60 124.86
  Q 3.89 125.64 4.16 126.64
  Q 4.35 127.32 5.04 127.40
  Q 6.04 127.52 6.73 127.15
  Q 7.17 126.92 7.12 126.42
  L 6.76 122.92
  Q 6.64 121.78 7.59 121.14
  Q 10.67 119.06 14.22 117.77
  Q 14.69 117.60 15.02 117.22
  Q 17.45 114.38 20.64 112.72
  Q 22.41 111.80 24.75 112.16
  Q 26.51 112.44 28.28 112.52
  Q 34.50 112.78 40.77 112.88
  C 43.68 112.92 46.37 113.63 49.34 113.62
  Q 69.41 113.52 89.48 113.61
  Q 92.10 113.63 97.45 112.92
  Q 103.58 112.12 109.85 113.14"
/>
<path stroke="#c197ac" vector-effect="non-scaling-stroke" d="
  M 109.85 113.14
  Q 105.15 113.34 100.58 113.39
  C 99.78 113.40 99.27 113.74 98.33 113.74
  Q 80.02 113.66 58.78 113.86
  Q 50.03 113.94 40.71 113.54
  Q 31.39 113.14 22.61 112.89
  A 2.01 1.96 28.7 0 0 21.46 113.21
  C 18.90 114.86 17.50 117.49 14.96 119.17
  Q 13.18 120.33 11.47 121.71
  Q 9.89 122.99 10.08 124.74
  Q 10.14 125.27 10.62 125.52
  Q 12.38 126.42 14.00 126.32
  Q 28.69 125.47 43.80 125.50
  Q 75.22 125.56 108.82 125.74
  Q 117.22 125.78 125.74 126.15
  A 0.78 0.77 -87.4 0 0 126.54 125.41
  C 126.64 123.76 126.34 122.12 126.34 120.45
  Q 126.24 80.34 126.15 39.34
  Q 126.12 26.18 126.56 13.37
  Q 126.62 11.58 125.83 10.01
  Q 125.60 9.56 125.11 9.46
  Q 123.11 9.08 122.08 11.06
  Q 121.09 12.95 119.69 15.05"
/>
<path stroke="#d6bcc0" vector-effect="non-scaling-stroke" d="
  M 119.69 15.05
  Q 120.77 8.54 124.65 8.76
  Q 125.58 8.81 124.75 8.37
  C 123.22 7.57 121.19 8.88 120.59 10.22
  Q 119.94 11.66 119.67 13.74
  Q 119.61 14.24 119.27 14.61
  C 118.26 15.77 117.81 17.32 116.38 18.12
  Q 116.06 18.30 115.93 17.95
  L 115.83 17.71
  A 0.05 0.04 -14.9 0 1 115.87 17.65
  Q 117.24 17.35 117.17 16.32
  A 0.97 0.92 59.8 0 1 117.30 15.77
  L 117.92 14.77
  Q 118.21 14.30 117.98 13.80
  Q 117.57 12.90 118.30 12.22
  Q 118.65 11.90 118.66 11.43
  C 118.68 10.09 119.56 9.89 119.90 8.86
  Q 120.31 7.63 119.52 8.65
  Q 118.94 9.39 118.05 9.47"
/>
<path stroke="#e8dade" vector-effect="non-scaling-stroke" d="
  M 118.05 9.47
  Q 120.42 7.27 121.68 4.63
  A 1.37 1.36 -61.3 0 0 121.18 2.89
  Q 119.01 1.53 116.25 1.53
  Q 105.72 1.52 95.26 1.38
  Q 63.33 0.95 16.73 1.61
  C 13.35 1.66 10.14 1.30 6.85 0.90
  Q 4.49 0.62 2.24 1.13
  A 1.38 1.37 -8.7 0 0 1.18 2.56
  Q 1.45 6.50 1.92 10.34
  Q 2.33 13.70 2.32 18.18
  Q 2.09 93.27 2.29 115.75
  Q 2.32 118.44 4.74 121.53"
/>
<path stroke="#ede1e2" vector-effect="non-scaling-stroke" d="
  M 118.05 9.47
  Q 114.62 12.34 111.19 15.19
  C 108.26 17.64 103.72 16.24 100.24 16.21
  Q 59.81 15.83 19.09 16.28
  A 2.29 2.28 89.6 0 0 16.84 18.57
  Q 16.82 61.52 17.02 101.52
  C 17.04 103.92 17.88 108.46 16.01 110.14
  Q 12.43 113.36 9.47 117.71
  Q 7.70 120.31 4.74 121.53"
/>
<path stroke="#c69fb0" vector-effect="non-scaling-stroke" d="
  M 119.69 15.05
  Q 117.91 17.26 115.67 19.35
  C 114.95 20.02 114.24 21.14 114.27 22.00
  C 114.69 32.04 114.09 43.79 114.12 51.67
  Q 114.23 74.29 114.38 96.66
  Q 114.40 100.04 114.19 103.34
  Q 113.97 106.67 113.75 109.99
  Q 113.48 113.98 109.85 113.14"
/>
</g>
<path fill="#d1b4bc" d="
  M 0.00 0.00
  L 128.00 0.00
  L 128.00 128.00
  L 0.00 128.00
  L 0.00 0.00
  Z
  M 4.74 121.53
  L 4.90 123.99
  Q 4.93 124.49 4.60 124.86
  Q 3.89 125.64 4.16 126.64
  Q 4.35 127.32 5.04 127.40
  Q 6.04 127.52 6.73 127.15
  Q 7.17 126.92 7.12 126.42
  L 6.76 122.92
  Q 6.64 121.78 7.59 121.14
  Q 10.67 119.06 14.22 117.77
  Q 14.69 117.60 15.02 117.22
  Q 17.45 114.38 20.64 112.72
  Q 22.41 111.80 24.75 112.16
  Q 26.51 112.44 28.28 112.52
  Q 34.50 112.78 40.77 112.88
  C 43.68 112.92 46.37 113.63 49.34 113.62
  Q 69.41 113.52 89.48 113.61
  Q 92.10 113.63 97.45 112.92
  Q 103.58 112.12 109.85 113.14
  Q 105.15 113.34 100.58 113.39
  C 99.78 113.40 99.27 113.74 98.33 113.74
  Q 80.02 113.66 58.78 113.86
  Q 50.03 113.94 40.71 113.54
  Q 31.39 113.14 22.61 112.89
  A 2.01 1.96 28.7 0 0 21.46 113.21
  C 18.90 114.86 17.50 117.49 14.96 119.17
  Q 13.18 120.33 11.47 121.71
  Q 9.89 122.99 10.08 124.74
  Q 10.14 125.27 10.62 125.52
  Q 12.38 126.42 14.00 126.32
  Q 28.69 125.47 43.80 125.50
  Q 75.22 125.56 108.82 125.74
  Q 117.22 125.78 125.74 126.15
  A 0.78 0.77 -87.4 0 0 126.54 125.41
  C 126.64 123.76 126.34 122.12 126.34 120.45
  Q 126.24 80.34 126.15 39.34
  Q 126.12 26.18 126.56 13.37
  Q 126.62 11.58 125.83 10.01
  Q 125.60 9.56 125.11 9.46
  Q 123.11 9.08 122.08 11.06
  Q 121.09 12.95 119.69 15.05
  Q 120.77 8.54 124.65 8.76
  Q 125.58 8.81 124.75 8.37
  C 123.22 7.57 121.19 8.88 120.59 10.22
  Q 119.94 11.66 119.67 13.74
  Q 119.61 14.24 119.27 14.61
  C 118.26 15.77 117.81 17.32 116.38 18.12
  Q 116.06 18.30 115.93 17.95
  L 115.83 17.71
  A 0.05 0.04 -14.9 0 1 115.87 17.65
  Q 117.24 17.35 117.17 16.32
  A 0.97 0.92 59.8 0 1 117.30 15.77
  L 117.92 14.77
  Q 118.21 14.30 117.98 13.80
  Q 117.57 12.90 118.30 12.22
  Q 118.65 11.90 118.66 11.43
  C 118.68 10.09 119.56 9.89 119.90 8.86
  Q 120.31 7.63 119.52 8.65
  Q 118.94 9.39 118.05 9.47
  Q 120.42 7.27 121.68 4.63
  A 1.37 1.36 -61.3 0 0 121.18 2.89
  Q 119.01 1.53 116.25 1.53
  Q 105.72 1.52 95.26 1.38
  Q 63.33 0.95 16.73 1.61
  C 13.35 1.66 10.14 1.30 6.85 0.90
  Q 4.49 0.62 2.24 1.13
  A 1.38 1.37 -8.7 0 0 1.18 2.56
  Q 1.45 6.50 1.92 10.34
  Q 2.33 13.70 2.32 18.18
  Q 2.09 93.27 2.29 115.75
  Q 2.32 118.44 4.74 121.53
  Z"
/>
<path fill="#ffffff" d="
  M 118.05 9.47
  Q 114.62 12.34 111.19 15.19
  C 108.26 17.64 103.72 16.24 100.24 16.21
  Q 59.81 15.83 19.09 16.28
  A 2.29 2.28 89.6 0 0 16.84 18.57
  Q 16.82 61.52 17.02 101.52
  C 17.04 103.92 17.88 108.46 16.01 110.14
  Q 12.43 113.36 9.47 117.71
  Q 7.70 120.31 4.74 121.53
  Q 2.32 118.44 2.29 115.75
  Q 2.09 93.27 2.32 18.18
  Q 2.33 13.70 1.92 10.34
  Q 1.45 6.50 1.18 2.56
  A 1.38 1.37 -8.7 0 1 2.24 1.13
  Q 4.49 0.62 6.85 0.90
  C 10.14 1.30 13.35 1.66 16.73 1.61
  Q 63.33 0.95 95.26 1.38
  Q 105.72 1.52 116.25 1.53
  Q 119.01 1.53 121.18 2.89
  A 1.37 1.36 -61.3 0 1 121.68 4.63
  Q 120.42 7.27 118.05 9.47
  Z"
/>
<path fill="#dac3c4" d="
  M 119.69 15.05
  Q 117.91 17.26 115.67 19.35
  C 114.95 20.02 114.24 21.14 114.27 22.00
  C 114.69 32.04 114.09 43.79 114.12 51.67
  Q 114.23 74.29 114.38 96.66
  Q 114.40 100.04 114.19 103.34
  Q 113.97 106.67 113.75 109.99
  Q 113.48 113.98 109.85 113.14
  Q 103.58 112.12 97.45 112.92
  Q 92.10 113.63 89.48 113.61
  Q 69.41 113.52 49.34 113.62
  C 46.37 113.63 43.68 112.92 40.77 112.88
  Q 34.50 112.78 28.28 112.52
  Q 26.51 112.44 24.75 112.16
  Q 22.41 111.80 20.64 112.72
  Q 17.45 114.38 15.02 117.22
  Q 14.69 117.60 14.22 117.77
  Q 10.67 119.06 7.59 121.14
  Q 6.64 121.78 6.76 122.92
  L 7.12 126.42
  Q 7.17 126.92 6.73 127.15
  Q 6.04 127.52 5.04 127.40
  Q 4.35 127.32 4.16 126.64
  Q 3.89 125.64 4.60 124.86
  Q 4.93 124.49 4.90 123.99
  L 4.74 121.53
  Q 7.70 120.31 9.47 117.71
  Q 12.43 113.36 16.01 110.14
  C 17.88 108.46 17.04 103.92 17.02 101.52
  Q 16.82 61.52 16.84 18.57
  A 2.29 2.28 89.6 0 1 19.09 16.28
  Q 59.81 15.83 100.24 16.21
  C 103.72 16.24 108.26 17.64 111.19 15.19
  Q 114.62 12.34 118.05 9.47
  Q 118.94 9.39 119.52 8.65
  Q 120.31 7.63 119.90 8.86
  C 119.56 9.89 118.68 10.09 118.66 11.43
  Q 118.65 11.90 118.30 12.22
  Q 117.57 12.90 117.98 13.80
  Q 118.21 14.30 117.92 14.77
  L 117.30 15.77
  A 0.97 0.92 59.8 0 0 117.17 16.32
  Q 117.24 17.35 115.87 17.65
  A 0.05 0.04 -14.9 0 0 115.83 17.71
  L 115.93 17.95
  Q 116.06 18.30 116.38 18.12
  C 117.81 17.32 118.26 15.77 119.27 14.61
  Q 119.61 14.24 119.67 13.74
  Q 119.94 11.66 120.59 10.22
  C 121.19 8.88 123.22 7.57 124.75 8.37
  Q 125.58 8.81 124.65 8.76
  Q 120.77 8.54 119.69 15.05
  Z"
/>
<path fill="#b17a9c" d="
  M 109.85 113.14
  Q 113.48 113.98 113.75 109.99
  Q 113.97 106.67 114.19 103.34
  Q 114.40 100.04 114.38 96.66
  Q 114.23 74.29 114.12 51.67
  C 114.09 43.79 114.69 32.04 114.27 22.00
  C 114.24 21.14 114.95 20.02 115.67 19.35
  Q 117.91 17.26 119.69 15.05
  Q 121.09 12.95 122.08 11.06
  Q 123.11 9.08 125.11 9.46
  Q 125.60 9.56 125.83 10.01
  Q 126.62 11.58 126.56 13.37
  Q 126.12 26.18 126.15 39.34
  Q 126.24 80.34 126.34 120.45
  C 126.34 122.12 126.64 123.76 126.54 125.41
  A 0.78 0.77 -87.4 0 1 125.74 126.15
  Q 117.22 125.78 108.82 125.74
  Q 75.22 125.56 43.80 125.50
  Q 28.69 125.47 14.00 126.32
  Q 12.38 126.42 10.62 125.52
  Q 10.14 125.27 10.08 124.74
  Q 9.89 122.99 11.47 121.71
  Q 13.18 120.33 14.96 119.17
  C 17.50 117.49 18.90 114.86 21.46 113.21
  A 2.01 1.96 28.7 0 1 22.61 112.89
  Q 31.39 113.14 40.71 113.54
  Q 50.03 113.94 58.78 113.86
  Q 80.02 113.66 98.33 113.74
  C 99.27 113.74 99.78 113.40 100.58 113.39
  Q 105.15 113.34 109.85 113.14
  Z"
/>
</svg>
