<?xml version="1.0" encoding="UTF-8" standalone="no"?>
<!DOCTYPE svg PUBLIC "-//W3C//DTD SVG 1.1//EN" "http://www.w3.org/Graphics/SVG/1.1/DTD/svg11.dtd">
<svg xmlns="http://www.w3.org/2000/svg" version="1.1" viewBox="0.00 0.00 128.00 128.00">
<g stroke-width="2.00" fill="none" stroke-linecap="butt">
<path stroke="#d6bcc0" vector-effect="non-scaling-stroke" d="
  M 4.56 121.40
  C 4.77 122.57 4.85 124.23 4.29 125.39
  Q 4.01 125.96 4.13 126.58
  A 1.12 1.11 83.0 0 0 5.29 127.49
  L 6.96 127.39
  A 0.76 0.76 0.0 0 0 7.67 126.53
  L 7.32 124.05
  Q 7.24 123.47 7.67 123.06
  Q 8.27 122.47 8.36 121.69
  Q 8.43 120.98 9.07 120.67
  Q 11.51 119.46 13.80 118.34
  Q 16.40 117.07 18.51 113.97
  C 19.62 112.32 21.25 111.53 23.25 111.54
  Q 34.12 111.58 44.42 111.77
  Q 49.50 111.86 56.07 111.45
  Q 62.22 111.06 67.91 111.24
  Q 74.70 111.45 81.65 112.13
  C 90.07 112.94 98.54 111.89 107.08 112.47
  Q 107.19 112.47 107.19 112.58
  L 107.19 112.59
  Q 107.19 112.74 107.04 112.75
  Q 96.33 113.29 85.26 113.00
  Q 81.70 112.91 78.24 112.52
  Q 74.73 112.12 71.24 112.12
  C 65.79 112.13 59.97 111.76 54.58 112.38
  Q 52.53 112.62 50.91 112.62
  Q 36.48 112.68 22.03 112.51"
/>
<path stroke="#c197ac" vector-effect="non-scaling-stroke" d="
  M 22.03 112.51
  C 19.43 113.26 18.71 115.24 17.23 117.06
  Q 16.38 118.11 14.39 119.54
  Q 12.30 121.03 10.59 123.13
  A 1.17 1.16 61.2 0 0 10.35 123.97
  Q 10.66 126.50 13.98 126.31
  Q 32.89 125.24 56.16 125.40
  Q 82.84 125.59 111.02 125.81
  Q 119.09 125.87 125.76 126.14
  A 0.79 0.78 0.4 0 0 126.58 125.34
  C 126.54 123.46 126.34 121.64 126.33 119.75
  Q 126.21 78.61 126.16 38.04
  Q 126.14 25.52 126.55 13.00
  Q 126.61 11.19 125.64 9.82
  Q 125.33 9.39 124.80 9.38
  Q 121.81 9.32 121.21 11.98
  Q 120.98 13.00 120.42 13.95
  Q 118.83 16.62 116.54 18.60"
/>
<path stroke="#d6bcc0" vector-effect="non-scaling-stroke" d="
  M 116.54 18.60
  Q 114.71 18.82 114.61 19.96
  Q 114.52 20.84 113.98 20.14
  Q 113.42 19.44 114.13 18.56
  Q 114.37 18.26 114.62 18.55
  Q 114.75 18.68 114.88 18.56
  Q 115.81 17.74 115.98 16.53
  Q 116.07 15.88 116.72 15.82
  Q 117.04 15.80 117.25 15.56
  Q 117.63 15.13 117.72 14.59
  C 117.94 13.35 117.74 12.47 118.42 11.28
  Q 119.20 9.90 119.98 8.53
  Q 120.08 8.36 119.90 8.27
  L 119.89 8.27
  Q 119.71 8.18 119.63 8.37
  Q 119.19 9.39 118.05 9.48"
/>
<path stroke="#e8dade" vector-effect="non-scaling-stroke" d="
  M 118.05 9.48
  Q 120.44 7.25 121.71 4.57
  A 1.28 1.28 0.0 0 0 121.22 2.93
  Q 119.06 1.61 116.30 1.58
  Q 64.84 0.95 16.05 1.62
  C 12.92 1.66 9.89 1.25 6.78 0.89
  Q 4.46 0.62 2.25 1.13
  A 1.39 1.39 0.0 0 0 1.18 2.59
  Q 1.45 6.49 1.92 10.33
  Q 2.33 13.73 2.31 18.16
  Q 2.18 66.03 2.28 113.75
  Q 2.29 118.20 4.56 121.40"
/>
<path stroke="#ede1e2" vector-effect="non-scaling-stroke" d="
  M 118.05 9.48
  Q 115.01 11.97 111.98 14.52
  Q 110.37 15.86 109.01 16.32
  C 106.82 17.05 104.14 16.28 101.80 16.27
  Q 60.99 15.93 19.04 16.30
  A 2.22 2.21 -0.4 0 0 16.84 18.52
  Q 16.95 59.53 16.85 99.42
  C 16.84 102.64 17.66 105.75 16.77 108.91
  Q 16.64 109.38 16.29 109.72
  Q 12.78 113.17 8.22 119.20
  Q 6.80 121.07 4.56 121.40"
/>
<path stroke="#c69eb0" vector-effect="non-scaling-stroke" d="
  M 116.54 18.60
  Q 114.10 20.24 114.27 22.74
  Q 114.83 30.86 114.55 38.08
  Q 114.15 48.44 114.15 48.51
  Q 113.99 61.30 114.27 73.79
  Q 114.67 91.60 113.96 110.40
  A 2.72 2.72 0.0 0 1 111.26 113.02
  Q 99.13 113.14 85.05 113.44
  Q 84.69 113.44 84.38 113.26
  Q 83.95 112.99 83.44 113.02
  Q 79.69 113.26 76.12 112.94
  Q 72.52 112.62 68.82 112.60
  Q 57.98 112.51 47.26 113.00
  Q 46.51 113.03 45.75 113.05
  Q 32.80 113.34 22.03 112.51"
/>
<path stroke="#c197ac" vector-effect="non-scaling-stroke" d="
  M 10.24 124.95
  Q 9.78 123.00 11.04 121.94
  Q 11.11 121.88 11.14 121.79
  Q 11.15 121.74 11.14 121.69
  Q 11.13 121.62 11.07 121.66
  Q 9.54 122.85 9.33 124.71
  Q 9.28 125.20 9.75 125.30
  L 10.22 125.40
  Q 10.59 125.48 10.36 125.18
  Q 10.27 125.08 10.24 124.95"
/>
<path stroke="#c1e1e2" vector-effect="non-scaling-stroke" d="
  M 59.99 45.75
  L 60.00 87.23
  A 0.74 0.74 0.0 0 1 59.27 87.97
  L 47.24 88.06
  A 1.17 1.17 0.0 0 0 46.08 89.25
  L 46.18 93.91
  Q 46.19 94.72 47.00 94.75
  Q 63.15 95.31 79.59 94.82
  Q 81.14 94.77 81.16 93.22
  L 81.23 89.38
  Q 81.25 88.00 79.87 88.00
  L 68.62 87.99
  A 0.62 0.62 0.0 0 1 68.00 87.37
  L 67.98 31.16
  A 1.10 1.10 0.0 0 0 67.04 30.07
  Q 64.70 29.73 62.77 30.32
  Q 62.29 30.47 62.04 30.91
  Q 61.34 32.14 60.79 33.56
  C 58.97 38.31 51.55 39.07 47.25 39.10
  A 1.20 1.20 0.0 0 0 46.05 40.28
  L 46.00 43.73
  Q 45.98 44.99 47.24 44.99
  L 59.25 45.01
  A 0.74 0.74 0.0 0 1 59.99 45.75"
/>
</g>
<path fill="#d1b4bc" d="
  M 0.00 0.00
  L 128.00 0.00
  L 128.00 128.00
  L 0.00 128.00
  L 0.00 0.00
  Z
  M 4.56 121.40
  C 4.77 122.57 4.85 124.23 4.29 125.39
  Q 4.01 125.96 4.13 126.58
  A 1.12 1.11 83.0 0 0 5.29 127.49
  L 6.96 127.39
  A 0.76 0.76 0.0 0 0 7.67 126.53
  L 7.32 124.05
  Q 7.24 123.47 7.67 123.06
  Q 8.27 122.47 8.36 121.69
  Q 8.43 120.98 9.07 120.67
  Q 11.51 119.46 13.80 118.34
  Q 16.40 117.07 18.51 113.97
  C 19.62 112.32 21.25 111.53 23.25 111.54
  Q 34.12 111.58 44.42 111.77
  Q 49.50 111.86 56.07 111.45
  Q 62.22 111.06 67.91 111.24
  Q 74.70 111.45 81.65 112.13
  C 90.07 112.94 98.54 111.89 107.08 112.47
  Q 107.19 112.47 107.19 112.58
  L 107.19 112.59
  Q 107.19 112.74 107.04 112.75
  Q 96.33 113.29 85.26 113.00
  Q 81.70 112.91 78.24 112.52
  Q 74.73 112.12 71.24 112.12
  C 65.79 112.13 59.97 111.76 54.58 112.38
  Q 52.53 112.62 50.91 112.62
  Q 36.48 112.68 22.03 112.51
  C 19.43 113.26 18.71 115.24 17.23 117.06
  Q 16.38 118.11 14.39 119.54
  Q 12.30 121.03 10.59 123.13
  A 1.17 1.16 61.2 0 0 10.35 123.97
  Q 10.66 126.50 13.98 126.31
  Q 32.89 125.24 56.16 125.40
  Q 82.84 125.59 111.02 125.81
  Q 119.09 125.87 125.76 126.14
  A 0.79 0.78 0.4 0 0 126.58 125.34
  C 126.54 123.46 126.34 121.64 126.33 119.75
  Q 126.21 78.61 126.16 38.04
  Q 126.14 25.52 126.55 13.00
  Q 126.61 11.19 125.64 9.82
  Q 125.33 9.39 124.80 9.38
  Q 121.81 9.32 121.21 11.98
  Q 120.98 13.00 120.42 13.95
  Q 118.83 16.62 116.54 18.60
  Q 114.71 18.82 114.61 19.96
  Q 114.52 20.84 113.98 20.14
  Q 113.42 19.44 114.13 18.56
  Q 114.37 18.26 114.62 18.55
  Q 114.75 18.68 114.88 18.56
  Q 115.81 17.74 115.98 16.53
  Q 116.07 15.88 116.72 15.82
  Q 117.04 15.80 117.25 15.56
  Q 117.63 15.13 117.72 14.59
  C 117.94 13.35 117.74 12.47 118.42 11.28
  Q 119.20 9.90 119.98 8.53
  Q 120.08 8.36 119.90 8.27
  L 119.89 8.27
  Q 119.71 8.18 119.63 8.37
  Q 119.19 9.39 118.05 9.48
  Q 120.44 7.25 121.71 4.57
  A 1.28 1.28 0.0 0 0 121.22 2.93
  Q 119.06 1.61 116.30 1.58
  Q 64.84 0.95 16.05 1.62
  C 12.92 1.66 9.89 1.25 6.78 0.89
  Q 4.46 0.62 2.25 1.13
  A 1.39 1.39 0.0 0 0 1.18 2.59
  Q 1.45 6.49 1.92 10.33
  Q 2.33 13.73 2.31 18.16
  Q 2.18 66.03 2.28 113.75
  Q 2.29 118.20 4.56 121.40
  Z
  M 10.24 124.95
  Q 9.78 123.00 11.04 121.94
  Q 11.11 121.88 11.14 121.79
  Q 11.15 121.74 11.14 121.69
  Q 11.13 121.62 11.07 121.66
  Q 9.54 122.85 9.33 124.71
  Q 9.28 125.20 9.75 125.30
  L 10.22 125.40
  Q 10.59 125.48 10.36 125.18
  Q 10.27 125.08 10.24 124.95
  Z"
/>
<path fill="#ffffff" d="
  M 118.05 9.48
  Q 115.01 11.97 111.98 14.52
  Q 110.37 15.86 109.01 16.32
  C 106.82 17.05 104.14 16.28 101.80 16.27
  Q 60.99 15.93 19.04 16.30
  A 2.22 2.21 -0.4 0 0 16.84 18.52
  Q 16.95 59.53 16.85 99.42
  C 16.84 102.64 17.66 105.75 16.77 108.91
  Q 16.64 109.38 16.29 109.72
  Q 12.78 113.17 8.22 119.20
  Q 6.80 121.07 4.56 121.40
  Q 2.29 118.20 2.28 113.75
  Q 2.18 66.03 2.31 18.16
  Q 2.33 13.73 1.92 10.33
  Q 1.45 6.49 1.18 2.59
  A 1.39 1.39 0.0 0 1 2.25 1.13
  Q 4.46 0.62 6.78 0.89
  C 9.89 1.25 12.92 1.66 16.05 1.62
  Q 64.84 0.95 116.30 1.58
  Q 119.06 1.61 121.22 2.93
  A 1.28 1.28 0.0 0 1 121.71 4.57
  Q 120.44 7.25 118.05 9.48
  Z"
/>
<path fill="#dac3c4" d="
  M 116.54 18.60
  Q 114.10 20.24 114.27 22.74
  Q 114.83 30.86 114.55 38.08
  Q 114.15 48.44 114.15 48.51
  Q 113.99 61.30 114.27 73.79
  Q 114.67 91.60 113.96 110.40
  A 2.72 2.72 0.0 0 1 111.26 113.02
  Q 99.13 113.14 85.05 113.44
  Q 84.69 113.44 84.38 113.26
  Q 83.95 112.99 83.44 113.02
  Q 79.69 113.26 76.12 112.94
  Q 72.52 112.62 68.82 112.60
  Q 57.98 112.51 47.26 113.00
  Q 46.51 113.03 45.75 113.05
  Q 32.80 113.34 22.03 112.51
  Q 36.48 112.68 50.91 112.62
  Q 52.53 112.62 54.58 112.38
  C 59.97 111.76 65.79 112.13 71.24 112.12
  Q 74.73 112.12 78.24 112.52
  Q 81.70 112.91 85.26 113.00
  Q 96.33 113.29 107.04 112.75
  Q 107.19 112.74 107.19 112.59
  L 107.19 112.58
  Q 107.19 112.47 107.08 112.47
  C 98.54 111.89 90.07 112.94 81.65 112.13
  Q 74.70 111.45 67.91 111.24
  Q 62.22 111.06 56.07 111.45
  Q 49.50 111.86 44.42 111.77
  Q 34.12 111.58 23.25 111.54
  C 21.25 111.53 19.62 112.32 18.51 113.97
  Q 16.40 117.07 13.80 118.34
  Q 11.51 119.46 9.07 120.67
  Q 8.43 120.98 8.36 121.69
  Q 8.27 122.47 7.67 123.06
  Q 7.24 123.47 7.32 124.05
  L 7.67 126.53
  A 0.76 0.76 0.0 0 1 6.96 127.39
  L 5.29 127.49
  A 1.12 1.11 83.0 0 1 4.13 126.58
  Q 4.01 125.96 4.29 125.39
  C 4.85 124.23 4.77 122.57 4.56 121.40
  Q 6.80 121.07 8.22 119.20
  Q 12.78 113.17 16.29 109.72
  Q 16.64 109.38 16.77 108.91
  C 17.66 105.75 16.84 102.64 16.85 99.42
  Q 16.95 59.53 16.84 18.52
  A 2.22 2.21 -0.4 0 1 19.04 16.30
  Q 60.99 15.93 101.80 16.27
  C 104.14 16.28 106.82 17.05 109.01 16.32
  Q 110.37 15.86 111.98 14.52
  Q 115.01 11.97 118.05 9.48
  Q 119.19 9.39 119.63 8.37
  Q 119.71 8.18 119.89 8.27
  L 119.90 8.27
  Q 120.08 8.36 119.98 8.53
  Q 119.20 9.90 118.42 11.28
  C 117.74 12.47 117.94 13.35 117.72 14.59
  Q 117.63 15.13 117.25 15.56
  Q 117.04 15.80 116.72 15.82
  Q 116.07 15.88 115.98 16.53
  Q 115.81 17.74 114.88 18.56
  Q 114.75 18.68 114.62 18.55
  Q 114.37 18.26 114.13 18.56
  Q 113.42 19.44 113.98 20.14
  Q 114.52 20.84 114.61 19.96
  Q 114.71 18.82 116.54 18.60
  Z
  M 59.99 45.75
  L 60.00 87.23
  A 0.74 0.74 0.0 0 1 59.27 87.97
  L 47.24 88.06
  A 1.17 1.17 0.0 0 0 46.08 89.25
  L 46.18 93.91
  Q 46.19 94.72 47.00 94.75
  Q 63.15 95.31 79.59 94.82
  Q 81.14 94.77 81.16 93.22
  L 81.23 89.38
  Q 81.25 88.00 79.87 88.00
  L 68.62 87.99
  A 0.62 0.62 0.0 0 1 68.00 87.37
  L 67.98 31.16
  A 1.10 1.10 0.0 0 0 67.04 30.07
  Q 64.70 29.73 62.77 30.32
  Q 62.29 30.47 62.04 30.91
  Q 61.34 32.14 60.79 33.56
  C 58.97 38.31 51.55 39.07 47.25 39.10
  A 1.20 1.20 0.0 0 0 46.05 40.28
  L 46.00 43.73
  Q 45.98 44.99 47.24 44.99
  L 59.25 45.01
  A 0.74 0.74 0.0 0 1 59.99 45.75
  Z"
/>
<path fill="#b1799b" d="
  M 22.03 112.51
  Q 32.80 113.34 45.75 113.05
  Q 46.51 113.03 47.26 113.00
  Q 57.98 112.51 68.82 112.60
  Q 72.52 112.62 76.12 112.94
  Q 79.69 113.26 83.44 113.02
  Q 83.95 112.99 84.38 113.26
  Q 84.69 113.44 85.05 113.44
  Q 99.13 113.14 111.26 113.02
  A 2.72 2.72 0.0 0 0 113.96 110.40
  Q 114.67 91.60 114.27 73.79
  Q 113.99 61.30 114.15 48.51
  Q 114.15 48.44 114.55 38.08
  Q 114.83 30.86 114.27 22.74
  Q 114.10 20.24 116.54 18.60
  Q 118.83 16.62 120.42 13.95
  Q 120.98 13.00 121.21 11.98
  Q 121.81 9.32 124.80 9.38
  Q 125.33 9.39 125.64 9.82
  Q 126.61 11.19 126.55 13.00
  Q 126.14 25.52 126.16 38.04
  Q 126.21 78.61 126.33 119.75
  C 126.34 121.64 126.54 123.46 126.58 125.34
  A 0.79 0.78 0.4 0 1 125.76 126.14
  Q 119.09 125.87 111.02 125.81
  Q 82.84 125.59 56.16 125.40
  Q 32.89 125.24 13.98 126.31
  Q 10.66 126.50 10.35 123.97
  A 1.17 1.16 61.2 0 1 10.59 123.13
  Q 12.30 121.03 14.39 119.54
  Q 16.38 118.11 17.23 117.06
  C 18.71 115.24 19.43 113.26 22.03 112.51
  Z"
/>
<path fill="#a7ffff" d="
  M 59.99 45.75
  A 0.74 0.74 0.0 0 0 59.25 45.01
  L 47.24 44.99
  Q 45.98 44.99 46.00 43.73
  L 46.05 40.28
  A 1.20 1.20 0.0 0 1 47.25 39.10
  C 51.55 39.07 58.97 38.31 60.79 33.56
  Q 61.34 32.14 62.04 30.91
  Q 62.29 30.47 62.77 30.32
  Q 64.70 29.73 67.04 30.07
  A 1.10 1.10 0.0 0 1 67.98 31.16
  L 68.00 87.37
  A 0.62 0.62 0.0 0 0 68.62 87.99
  L 79.87 88.00
  Q 81.25 88.00 81.23 89.38
  L 81.16 93.22
  Q 81.14 94.77 79.59 94.82
  Q 63.15 95.31 47.00 94.75
  Q 46.19 94.72 46.18 93.91
  L 46.08 89.25
  A 1.17 1.17 0.0 0 1 47.24 88.06
  L 59.27 87.97
  A 0.74 0.74 0.0 0 0 60.00 87.23
  L 59.99 45.75
  Z"
/>
<path fill="#b1799b" d="
  M 10.24 124.95
  Q 10.27 125.08 10.36 125.18
  Q 10.59 125.48 10.22 125.40
  L 9.75 125.30
  Q 9.28 125.20 9.33 124.71
  Q 9.54 122.85 11.07 121.66
  Q 11.13 121.62 11.14 121.69
  Q 11.15 121.74 11.14 121.79
  Q 11.11 121.88 11.04 121.94
  Q 9.78 123.00 10.24 124.95
  Z"
/>
</svg>
