<?xml version="1.0" encoding="UTF-8" standalone="no"?>
<!DOCTYPE svg PUBLIC "-//W3C//DTD SVG 1.1//EN" "http://www.w3.org/Graphics/SVG/1.1/DTD/svg11.dtd">
<svg xmlns="http://www.w3.org/2000/svg" version="1.1" viewBox="0.00 0.00 128.00 128.00">
<g stroke-width="2.00" fill="none" stroke-linecap="butt">
<path stroke="#d6bcc0" vector-effect="non-scaling-stroke" d="
  M 7.38 128.00
  C 8.39 126.53 7.62 124.67 7.89 122.97
  Q 7.98 122.41 8.43 122.04
  Q 9.87 120.86 10.95 119.63
  Q 10.98 119.60 11.02 119.60
  Q 11.17 119.61 11.32 119.63
  Q 11.53 119.66 11.68 119.51
  Q 12.78 118.45 14.23 118.12
  Q 14.65 118.03 14.82 117.64
  L 15.01 117.25
  Q 15.23 116.77 15.68 116.51
  Q 16.69 115.92 18.01 114.40
  Q 19.25 112.97 21.74 111.95
  Q 23.49 111.22 25.56 111.46
  Q 27.45 111.67 29.33 111.63
  Q 40.16 111.39 51.11 111.96
  Q 36.47 112.82 21.92 112.19
  Q 21.82 112.19 21.82 112.09
  Q 21.90 110.82 21.86 112.31
  Q 21.86 112.38 21.92 112.38
  Q 25.87 112.28 32.70 112.52
  Q 42.32 112.87 54.75 112.22
  Q 58.38 112.02 70.17 112.11
  Q 73.23 112.14 76.38 112.47
  Q 79.42 112.79 82.34 112.62
  C 84.32 112.51 86.18 113.15 88.20 113.14
  Q 93.78 113.10 99.20 113.14
  Q 99.44 113.14 99.44 113.38
  L 99.44 113.39
  Q 99.44 113.61 99.22 113.61
  Q 92.60 113.58 85.96 113.61"
/>
<path stroke="#c197ac" vector-effect="non-scaling-stroke" d="
  M 85.96 113.61
  Q 56.95 113.24 27.92 113.34
  C 25.12 113.34 21.26 112.37 19.22 115.08
  C 17.78 116.99 16.38 118.59 14.31 119.91
  Q 12.43 121.11 10.70 122.78
  A 1.84 1.84 0.0 0 0 11.12 125.72
  Q 12.29 126.34 13.50 126.28
  Q 23.95 125.72 32.50 125.63
  Q 68.72 125.28 115.25 125.86
  Q 120.53 125.92 125.68 126.14
  A 0.89 0.89 0.0 0 0 126.61 125.22
  Q 126.54 123.36 126.53 121.72
  Q 126.14 82.34 126.13 38.75
  Q 126.12 25.70 126.60 13.25
  Q 126.64 12.22 126.13 10.67
  Q 125.97 10.18 125.48 10.02
  Q 124.21 9.63 122.98 10.66
  A 1.01 0.94 -13.7 0 0 122.66 11.15
  Q 122.53 11.66 122.07 11.82
  Q 121.58 11.99 121.30 12.43
  L 119.67 14.94"
/>
<path stroke="#d6bcc0" vector-effect="non-scaling-stroke" d="
  M 119.67 14.94
  Q 119.71 12.90 120.20 10.91
  Q 120.21 10.88 120.24 10.90
  Q 120.24 10.90 120.14 10.87
  Q 120.05 10.85 120.04 10.94
  Q 119.55 14.47 117.65 17.05
  Q 117.07 17.85 116.16 18.36
  Q 115.40 18.81 115.82 18.03
  Q 116.56 16.68 117.65 15.52
  Q 117.94 15.21 118.03 14.78
  Q 118.32 13.27 118.57 11.57
  Q 118.80 10.02 120.09 9.30
  A 1.33 1.29 85.1 0 0 120.71 8.54
  L 121.63 5.54"
/>
<path stroke="#e8dade" vector-effect="non-scaling-stroke" d="
  M 121.63 5.54
  Q 122.15 3.06 120.31 2.41
  Q 117.85 1.54 115.55 1.53
  Q 66.24 1.34 16.71 1.59
  Q 12.28 1.62 6.88 0.87
  Q 4.60 0.55 2.02 1.21
  A 0.86 0.85 -1.2 0 0 1.39 1.86
  Q 1.07 3.26 1.26 4.73
  C 1.84 9.13 2.33 13.16 2.31 17.76
  Q 2.18 61.92 2.28 113.50
  Q 2.29 117.89 4.36 121.26"
/>
<path stroke="#d6bcc0" vector-effect="non-scaling-stroke" d="
  M 4.36 121.26
  Q 4.63 123.67 3.78 126.81
  A 0.66 0.66 0.0 0 0 4.53 127.63
  Q 6.01 127.35 7.32 128.00"
/>
<path stroke="#ede1e2" vector-effect="non-scaling-stroke" d="
  M 121.63 5.54
  Q 117.27 10.77 111.04 15.34
  Q 108.94 16.88 107.25 16.69
  Q 103.51 16.27 99.75 16.24
  Q 59.30 15.96 18.69 16.31
  A 1.65 1.64 3.7 0 0 17.08 17.72
  Q 16.77 19.86 16.79 22.16
  Q 17.02 57.02 16.84 98.99
  C 16.83 102.55 17.78 105.88 16.56 109.30
  Q 16.38 109.79 15.98 110.12
  Q 12.03 113.37 9.33 117.60
  Q 7.22 120.91 4.36 121.26"
/>
<path stroke="#c69eb0" vector-effect="non-scaling-stroke" d="
  M 119.67 14.94
  L 115.06 20.01
  A 2.45 2.43 -23.6 0 0 114.42 21.63
  Q 113.87 57.24 114.51 96.52
  Q 114.61 102.21 113.84 110.06
  C 113.65 111.98 112.59 113.39 110.54 113.23
  Q 106.07 112.86 102.30 113.28
  Q 98.56 113.70 94.61 113.70
  Q 90.28 113.69 85.96 113.61"
/>
<path stroke="#d6bcc0" vector-effect="non-scaling-stroke" d="
  M 51.11 111.96
  Q 62.43 111.74 73.92 112.06
  C 77.65 112.16 81.44 112.89 85.31 112.53
  Q 85.44 112.52 85.44 112.40
  L 85.44 112.39
  Q 85.44 112.17 85.23 112.15
  Q 68.28 110.20 51.24 111.23
  Q 50.81 111.25 51.11 111.96"
/>
<path stroke="#c1e1e2" vector-effect="non-scaling-stroke" d="
  M 50.33 86.70
  A 0.16 0.16 0.0 0 1 50.32 86.44
  C 59.30 79.11 69.39 70.80 76.47 61.73
  Q 82.23 54.35 81.73 45.32
  C 81.13 34.69 72.51 29.53 62.67 29.27
  Q 52.80 29.01 44.01 32.73
  Q 42.99 33.16 43.00 34.26
  L 43.00 41.04
  Q 43.00 42.14 43.94 41.58
  Q 52.47 36.50 62.74 37.03
  C 68.08 37.31 72.70 40.67 73.03 46.21
  Q 73.44 53.02 69.82 58.03
  C 63.04 67.43 52.53 76.02 43.22 83.66
  C 40.31 86.05 40.89 90.68 41.02 94.04
  A 1.02 1.01 88.8 0 0 42.03 95.02
  L 83.71 94.93
  A 1.42 1.41 0.4 0 0 85.13 93.54
  L 85.19 88.48
  Q 85.22 87.00 83.73 87.00
  L 51.01 86.99
  A 0.78 0.76 58.3 0 1 50.65 86.90
  L 50.33 86.70"
/>
<path stroke="#d6bcc0" vector-effect="non-scaling-stroke" d="
  M 88.69 112.95
  Q 91.53 113.43 95.32 112.98
  Q 97.02 112.78 95.31 112.70
  Q 91.94 112.53 88.71 112.67
  Q 87.40 112.73 88.69 112.95"
/>
</g>
<path fill="#d1b4bc" d="
  M 0.00 0.00
  L 128.00 0.00
  L 128.00 128.00
  L 7.38 128.00
  C 8.39 126.53 7.62 124.67 7.89 122.97
  Q 7.98 122.41 8.43 122.04
  Q 9.87 120.86 10.95 119.63
  Q 10.98 119.60 11.02 119.60
  Q 11.17 119.61 11.32 119.63
  Q 11.53 119.66 11.68 119.51
  Q 12.78 118.45 14.23 118.12
  Q 14.65 118.03 14.82 117.64
  L 15.01 117.25
  Q 15.23 116.77 15.68 116.51
  Q 16.69 115.92 18.01 114.40
  Q 19.25 112.97 21.74 111.95
  Q 23.49 111.22 25.56 111.46
  Q 27.45 111.67 29.33 111.63
  Q 40.16 111.39 51.11 111.96
  Q 36.47 112.82 21.92 112.19
  Q 21.82 112.19 21.82 112.09
  Q 21.90 110.82 21.86 112.31
  Q 21.86 112.38 21.92 112.38
  Q 25.87 112.28 32.70 112.52
  Q 42.32 112.87 54.75 112.22
  Q 58.38 112.02 70.17 112.11
  Q 73.23 112.14 76.38 112.47
  Q 79.42 112.79 82.34 112.62
  C 84.32 112.51 86.18 113.15 88.20 113.14
  Q 93.78 113.10 99.20 113.14
  Q 99.44 113.14 99.44 113.38
  L 99.44 113.39
  Q 99.44 113.61 99.22 113.61
  Q 92.60 113.58 85.96 113.61
  Q 56.95 113.24 27.92 113.34
  C 25.12 113.34 21.26 112.37 19.22 115.08
  C 17.78 116.99 16.38 118.59 14.31 119.91
  Q 12.43 121.11 10.70 122.78
  A 1.84 1.84 0.0 0 0 11.12 125.72
  Q 12.29 126.34 13.50 126.28
  Q 23.95 125.72 32.50 125.63
  Q 68.72 125.28 115.25 125.86
  Q 120.53 125.92 125.68 126.14
  A 0.89 0.89 0.0 0 0 126.61 125.22
  Q 126.54 123.36 126.53 121.72
  Q 126.14 82.34 126.13 38.75
  Q 126.12 25.70 126.60 13.25
  Q 126.64 12.22 126.13 10.67
  Q 125.97 10.18 125.48 10.02
  Q 124.21 9.63 122.98 10.66
  A 1.01 0.94 -13.7 0 0 122.66 11.15
  Q 122.53 11.66 122.07 11.82
  Q 121.58 11.99 121.30 12.43
  L 119.67 14.94
  Q 119.71 12.90 120.20 10.91
  Q 120.21 10.88 120.24 10.90
  Q 120.24 10.90 120.14 10.87
  Q 120.05 10.85 120.04 10.94
  Q 119.55 14.47 117.65 17.05
  Q 117.07 17.85 116.16 18.36
  Q 115.40 18.81 115.82 18.03
  Q 116.56 16.68 117.65 15.52
  Q 117.94 15.21 118.03 14.78
  Q 118.32 13.27 118.57 11.57
  Q 118.80 10.02 120.09 9.30
  A 1.33 1.29 85.1 0 0 120.71 8.54
  L 121.63 5.54
  Q 122.15 3.06 120.31 2.41
  Q 117.85 1.54 115.55 1.53
  Q 66.24 1.34 16.71 1.59
  Q 12.28 1.62 6.88 0.87
  Q 4.60 0.55 2.02 1.21
  A 0.86 0.85 -1.2 0 0 1.39 1.86
  Q 1.07 3.26 1.26 4.73
  C 1.84 9.13 2.33 13.16 2.31 17.76
  Q 2.18 61.92 2.28 113.50
  Q 2.29 117.89 4.36 121.26
  Q 4.63 123.67 3.78 126.81
  A 0.66 0.66 0.0 0 0 4.53 127.63
  Q 6.01 127.35 7.32 128.00
  L 0.00 128.00
  L 0.00 0.00
  Z"
/>
<path fill="#ffffff" d="
  M 121.63 5.54
  Q 117.27 10.77 111.04 15.34
  Q 108.94 16.88 107.25 16.69
  Q 103.51 16.27 99.75 16.24
  Q 59.30 15.96 18.69 16.31
  A 1.65 1.64 3.7 0 0 17.08 17.72
  Q 16.77 19.86 16.79 22.16
  Q 17.02 57.02 16.84 98.99
  C 16.83 102.55 17.78 105.88 16.56 109.30
  Q 16.38 109.79 15.98 110.12
  Q 12.03 113.37 9.33 117.60
  Q 7.22 120.91 4.36 121.26
  Q 2.29 117.89 2.28 113.50
  Q 2.18 61.92 2.31 17.76
  C 2.33 13.16 1.84 9.13 1.26 4.73
  Q 1.07 3.26 1.39 1.86
  A 0.86 0.85 -1.2 0 1 2.02 1.21
  Q 4.60 0.55 6.88 0.87
  Q 12.28 1.62 16.71 1.59
  Q 66.24 1.34 115.55 1.53
  Q 117.85 1.54 120.31 2.41
  Q 122.15 3.06 121.63 5.54
  Z"
/>
<path fill="#dac3c4" d="
  M 121.63 5.54
  L 120.71 8.54
  A 1.33 1.29 85.1 0 1 120.09 9.30
  Q 118.80 10.02 118.57 11.57
  Q 118.32 13.27 118.03 14.78
  Q 117.94 15.21 117.65 15.52
  Q 116.56 16.68 115.82 18.03
  Q 115.40 18.81 116.16 18.36
  Q 117.07 17.85 117.65 17.05
  Q 119.55 14.47 120.04 10.94
  Q 120.05 10.85 120.14 10.87
  Q 120.24 10.90 120.24 10.90
  Q 120.21 10.88 120.20 10.91
  Q 119.71 12.90 119.67 14.94
  L 115.06 20.01
  A 2.45 2.43 -23.6 0 0 114.42 21.63
  Q 113.87 57.24 114.51 96.52
  Q 114.61 102.21 113.84 110.06
  C 113.65 111.98 112.59 113.39 110.54 113.23
  Q 106.07 112.86 102.30 113.28
  Q 98.56 113.70 94.61 113.70
  Q 90.28 113.69 85.96 113.61
  Q 92.60 113.58 99.22 113.61
  Q 99.44 113.61 99.44 113.39
  L 99.44 113.38
  Q 99.44 113.14 99.20 113.14
  Q 93.78 113.10 88.20 113.14
  C 86.18 113.15 84.32 112.51 82.34 112.62
  Q 79.42 112.79 76.38 112.47
  Q 73.23 112.14 70.17 112.11
  Q 58.38 112.02 54.75 112.22
  Q 42.32 112.87 32.70 112.52
  Q 25.87 112.28 21.92 112.38
  Q 21.86 112.38 21.86 112.31
  Q 21.90 110.82 21.82 112.09
  Q 21.82 112.19 21.92 112.19
  Q 36.47 112.82 51.11 111.96
  Q 62.43 111.74 73.92 112.06
  C 77.65 112.16 81.44 112.89 85.31 112.53
  Q 85.44 112.52 85.44 112.40
  L 85.44 112.39
  Q 85.44 112.17 85.23 112.15
  Q 68.28 110.20 51.24 111.23
  Q 50.81 111.25 51.11 111.96
  Q 40.16 111.39 29.33 111.63
  Q 27.45 111.67 25.56 111.46
  Q 23.49 111.22 21.74 111.95
  Q 19.25 112.97 18.01 114.40
  Q 16.69 115.92 15.68 116.51
  Q 15.23 116.77 15.01 117.25
  L 14.82 117.64
  Q 14.65 118.03 14.23 118.12
  Q 12.78 118.45 11.68 119.51
  Q 11.53 119.66 11.32 119.63
  Q 11.17 119.61 11.02 119.60
  Q 10.98 119.60 10.95 119.63
  Q 9.87 120.86 8.43 122.04
  Q 7.98 122.41 7.89 122.97
  C 7.62 124.67 8.39 126.53 7.38 128.00
  Q 7.35 127.97 7.32 128.00
  Q 6.01 127.35 4.53 127.63
  A 0.66 0.66 0.0 0 1 3.78 126.81
  Q 4.63 123.67 4.36 121.26
  Q 7.22 120.91 9.33 117.60
  Q 12.03 113.37 15.98 110.12
  Q 16.38 109.79 16.56 109.30
  C 17.78 105.88 16.83 102.55 16.84 98.99
  Q 17.02 57.02 16.79 22.16
  Q 16.77 19.86 17.08 17.72
  A 1.65 1.64 3.7 0 1 18.69 16.31
  Q 59.30 15.96 99.75 16.24
  Q 103.51 16.27 107.25 16.69
  Q 108.94 16.88 111.04 15.34
  Q 117.27 10.77 121.63 5.54
  Z
  M 50.33 86.70
  A 0.16 0.16 0.0 0 1 50.32 86.44
  C 59.30 79.11 69.39 70.80 76.47 61.73
  Q 82.23 54.35 81.73 45.32
  C 81.13 34.69 72.51 29.53 62.67 29.27
  Q 52.80 29.01 44.01 32.73
  Q 42.99 33.16 43.00 34.26
  L 43.00 41.04
  Q 43.00 42.14 43.94 41.58
  Q 52.47 36.50 62.74 37.03
  C 68.08 37.31 72.70 40.67 73.03 46.21
  Q 73.44 53.02 69.82 58.03
  C 63.04 67.43 52.53 76.02 43.22 83.66
  C 40.31 86.05 40.89 90.68 41.02 94.04
  A 1.02 1.01 88.8 0 0 42.03 95.02
  L 83.71 94.93
  A 1.42 1.41 0.4 0 0 85.13 93.54
  L 85.19 88.48
  Q 85.22 87.00 83.73 87.00
  L 51.01 86.99
  A 0.78 0.76 58.3 0 1 50.65 86.90
  L 50.33 86.70
  Z
  M 88.69 112.95
  Q 91.53 113.43 95.32 112.98
  Q 97.02 112.78 95.31 112.70
  Q 91.94 112.53 88.71 112.67
  Q 87.40 112.73 88.69 112.95
  Z"
/>
<path fill="#b1799b" d="
  M 85.96 113.61
  Q 90.28 113.69 94.61 113.70
  Q 98.56 113.70 102.30 113.28
  Q 106.07 112.86 110.54 113.23
  C 112.59 113.39 113.65 111.98 113.84 110.06
  Q 114.61 102.21 114.51 96.52
  Q 113.87 57.24 114.42 21.63
  A 2.45 2.43 -23.6 0 1 115.06 20.01
  L 119.67 14.94
  L 121.30 12.43
  Q 121.58 11.99 122.07 11.82
  Q 122.53 11.66 122.66 11.15
  A 1.01 0.94 -13.7 0 1 122.98 10.66
  Q 124.21 9.63 125.48 10.02
  Q 125.97 10.18 126.13 10.67
  Q 126.64 12.22 126.60 13.25
  Q 126.12 25.70 126.13 38.75
  Q 126.14 82.34 126.53 121.72
  Q 126.54 123.36 126.61 125.22
  A 0.89 0.89 0.0 0 1 125.68 126.14
  Q 120.53 125.92 115.25 125.86
  Q 68.72 125.28 32.50 125.63
  Q 23.95 125.72 13.50 126.28
  Q 12.29 126.34 11.12 125.72
  A 1.84 1.84 0.0 0 1 10.70 122.78
  Q 12.43 121.11 14.31 119.91
  C 16.38 118.59 17.78 116.99 19.22 115.08
  C 21.26 112.37 25.12 113.34 27.92 113.34
  Q 56.95 113.24 85.96 113.61
  Z"
/>
<path fill="#a7ffff" d="
  M 50.33 86.70
  L 50.65 86.90
  A 0.78 0.76 58.3 0 0 51.01 86.99
  L 83.73 87.00
  Q 85.22 87.00 85.19 88.48
  L 85.13 93.54
  A 1.42 1.41 0.4 0 1 83.71 94.93
  L 42.03 95.02
  A 1.02 1.01 88.8 0 1 41.02 94.04
  C 40.89 90.68 40.31 86.05 43.22 83.66
  C 52.53 76.02 63.04 67.43 69.82 58.03
  Q 73.44 53.02 73.03 46.21
  C 72.70 40.67 68.08 37.31 62.74 37.03
  Q 52.47 36.50 43.94 41.58
  Q 43.00 42.14 43.00 41.04
  L 43.00 34.26
  Q 42.99 33.16 44.01 32.73
  Q 52.80 29.01 62.67 29.27
  C 72.51 29.53 81.13 34.69 81.73 45.32
  Q 82.23 54.35 76.47 61.73
  C 69.39 70.80 59.30 79.11 50.32 86.44
  A 0.16 0.16 0.0 0 0 50.33 86.70
  Z"
/>
<path fill="#d1b4bc" d="
  M 51.11 111.96
  Q 50.81 111.25 51.24 111.23
  Q 68.28 110.20 85.23 112.15
  Q 85.44 112.17 85.44 112.39
  L 85.44 112.40
  Q 85.44 112.52 85.31 112.53
  C 81.44 112.89 77.65 112.16 73.92 112.06
  Q 62.43 111.74 51.11 111.96
  Z"
/>
<path fill="#d1b4bc" d="
  M 88.71 112.67
  Q 91.94 112.53 95.31 112.70
  Q 97.02 112.78 95.32 112.98
  Q 91.53 113.43 88.69 112.95
  Q 87.40 112.73 88.71 112.67
  Z"
/>
</svg>
