<?xml version="1.0" encoding="UTF-8" standalone="no"?>
<!DOCTYPE svg PUBLIC "-//W3C//DTD SVG 1.1//EN" "http://www.w3.org/Graphics/SVG/1.1/DTD/svg11.dtd">
<svg xmlns="http://www.w3.org/2000/svg" version="1.1" viewBox="0.00 0.00 128.00 128.00">
<g stroke-width="2.00" fill="none" stroke-linecap="butt">
<path stroke="#d6bcc0" vector-effect="non-scaling-stroke" d="
  M 8.52 119.38
  L 8.01 120.07
  Q 7.37 120.94 8.28 120.36
  Q 12.22 117.82 15.77 115.56
  Q 17.28 114.60 18.97 113.17
  C 21.92 110.69 24.47 111.34 27.97 111.39
  Q 38.77 111.57 49.50 111.47
  Q 69.62 111.29 84.50 112.12
  Q 84.56 112.12 84.56 112.18
  L 84.55 112.44
  Q 84.54 112.66 84.32 112.66
  C 74.05 112.58 63.68 112.03 53.56 112.18
  Q 39.39 112.38 25.21 112.50"
/>
<path stroke="#c197ac" vector-effect="non-scaling-stroke" d="
  M 25.21 112.50
  Q 21.62 111.68 19.55 113.76
  Q 18.22 115.09 17.02 117.11
  Q 15.85 119.08 14.13 120.14
  Q 12.45 121.18 10.84 122.43
  A 1.90 1.89 -27.3 0 0 10.18 124.48
  Q 10.72 126.29 12.99 126.22
  Q 43.93 125.25 75.00 125.49
  C 92.80 125.62 109.24 125.70 125.79 126.11
  A 0.71 0.71 0.0 0 0 126.52 125.46
  C 126.67 123.82 126.32 122.19 126.32 120.54
  Q 126.17 80.34 126.16 38.76
  Q 126.16 30.80 126.30 21.36
  C 126.35 17.77 126.99 14.31 126.22 10.89
  Q 125.84 9.19 124.22 9.43
  A 2.81 2.79 -81.1 0 0 122.09 11.00
  Q 119.62 16.16 114.43 20.68"
/>
<path stroke="#d6bcc0" vector-effect="non-scaling-stroke" d="
  M 114.43 20.68
  Q 112.89 22.27 115.28 18.58
  Q 116.52 16.66 117.82 15.14
  Q 118.39 14.47 117.98 13.66
  Q 117.64 13.01 118.24 12.59
  Q 118.75 12.23 118.65 11.59
  Q 118.56 11.03 118.94 10.61
  Q 122.15 7.02 121.92 3.08"
/>
<path stroke="#e8dade" vector-effect="non-scaling-stroke" d="
  M 121.92 3.08
  Q 118.41 1.53 116.75 1.53
  Q 51.09 1.31 18.25 1.58
  Q 11.93 1.63 7.12 0.93
  Q 4.81 0.59 2.10 1.16
  A 0.93 0.93 0.0 0 0 1.38 1.87
  Q 1.06 3.24 1.26 4.69
  C 1.82 8.80 2.32 12.88 2.31 17.01
  Q 2.19 63.61 2.28 114.64
  Q 2.28 118.08 4.16 120.83
  A 1.25 1.25 0.0 0 0 5.89 121.16
  L 8.52 119.38"
/>
<path stroke="#ede1e2" vector-effect="non-scaling-stroke" d="
  M 121.92 3.08
  Q 121.00 7.05 117.46 9.97
  Q 114.26 12.62 111.03 15.25
  C 108.06 17.67 103.78 16.23 100.29 16.21
  Q 56.56 16.00 18.80 16.30
  A 1.96 1.95 -0.3 0 0 16.86 18.25
  Q 16.85 62.06 16.95 107.13
  Q 16.95 108.03 16.68 108.89
  Q 16.39 109.78 15.73 110.48
  Q 14.30 111.98 13.10 113.79
  A 0.07 0.07 0.0 0 1 13.07 113.82
  L 12.47 114.21
  Q 12.15 114.42 11.92 114.73
  L 8.52 119.38"
/>
<path stroke="#c69eb0" vector-effect="non-scaling-stroke" d="
  M 114.43 20.68
  Q 115.63 32.44 115.13 39.25
  Q 115.04 40.36 114.53 43.76
  Q 114.19 45.95 114.17 48.21
  Q 114.04 59.46 114.28 71.30
  Q 114.70 91.54 113.89 110.51
  A 2.72 2.72 0.0 0 1 111.07 113.12
  Q 103.47 112.84 96.15 113.25
  Q 91.15 113.52 83.01 113.17
  Q 76.03 112.87 69.99 112.79
  Q 47.60 112.49 25.21 112.50"
/>
<path stroke="#c1e1e2" vector-effect="non-scaling-stroke" d="
  M 70.41 59.51
  Q 68.46 58.82 70.47 58.30
  C 78.63 56.22 84.56 49.21 82.25 40.51
  C 80.26 33.05 72.53 29.87 65.25 29.36
  Q 54.36 28.59 44.02 32.76
  A 1.66 1.64 -11.2 0 0 42.99 34.28
  L 43.00 41.19
  Q 43.01 42.09 43.79 41.65
  Q 53.91 36.00 65.16 37.15
  C 69.52 37.59 73.85 40.18 74.05 44.97
  C 74.48 55.13 64.06 56.41 56.56 55.94
  Q 55.99 55.91 55.99 56.47
  L 56.01 62.66
  A 0.43 0.43 0.0 0 0 56.47 63.09
  C 64.02 62.58 74.45 62.85 75.04 72.94
  Q 75.25 76.49 74.58 78.94
  C 72.35 87.00 63.89 88.70 56.44 87.92
  Q 48.81 87.12 41.17 82.99
  A 0.05 0.05 0.0 0 0 41.10 83.03
  Q 40.88 86.99 41.08 91.62
  A 0.31 0.30 -81.3 0 0 41.27 91.89
  C 54.50 97.29 76.39 99.47 82.59 82.36
  C 85.86 73.37 82.97 63.51 73.17 60.43
  Q 71.77 59.99 70.41 59.51"
/>
</g>
<path fill="#d1b4bc" d="
  M 0.00 0.00
  L 128.00 0.00
  L 128.00 128.00
  L 0.00 128.00
  L 0.00 0.00
  Z
  M 8.52 119.38
  L 8.01 120.07
  Q 7.37 120.94 8.28 120.36
  Q 12.22 117.82 15.77 115.56
  Q 17.28 114.60 18.97 113.17
  C 21.92 110.69 24.47 111.34 27.97 111.39
  Q 38.77 111.57 49.50 111.47
  Q 69.62 111.29 84.50 112.12
  Q 84.56 112.12 84.56 112.18
  L 84.55 112.44
  Q 84.54 112.66 84.32 112.66
  C 74.05 112.58 63.68 112.03 53.56 112.18
  Q 39.39 112.38 25.21 112.50
  Q 21.62 111.68 19.55 113.76
  Q 18.22 115.09 17.02 117.11
  Q 15.85 119.08 14.13 120.14
  Q 12.45 121.18 10.84 122.43
  A 1.90 1.89 -27.3 0 0 10.18 124.48
  Q 10.72 126.29 12.99 126.22
  Q 43.93 125.25 75.00 125.49
  C 92.80 125.62 109.24 125.70 125.79 126.11
  A 0.71 0.71 0.0 0 0 126.52 125.46
  C 126.67 123.82 126.32 122.19 126.32 120.54
  Q 126.17 80.34 126.16 38.76
  Q 126.16 30.80 126.30 21.36
  C 126.35 17.77 126.99 14.31 126.22 10.89
  Q 125.84 9.19 124.22 9.43
  A 2.81 2.79 -81.1 0 0 122.09 11.00
  Q 119.62 16.16 114.43 20.68
  Q 112.89 22.27 115.28 18.58
  Q 116.52 16.66 117.82 15.14
  Q 118.39 14.47 117.98 13.66
  Q 117.64 13.01 118.24 12.59
  Q 118.75 12.23 118.65 11.59
  Q 118.56 11.03 118.94 10.61
  Q 122.15 7.02 121.92 3.08
  Q 118.41 1.53 116.75 1.53
  Q 51.09 1.31 18.25 1.58
  Q 11.93 1.63 7.12 0.93
  Q 4.81 0.59 2.10 1.16
  A 0.93 0.93 0.0 0 0 1.38 1.87
  Q 1.06 3.24 1.26 4.69
  C 1.82 8.80 2.32 12.88 2.31 17.01
  Q 2.19 63.61 2.28 114.64
  Q 2.28 118.08 4.16 120.83
  A 1.25 1.25 0.0 0 0 5.89 121.16
  L 8.52 119.38
  Z"
/>
<path fill="#ffffff" d="
  M 121.92 3.08
  Q 121.00 7.05 117.46 9.97
  Q 114.26 12.62 111.03 15.25
  C 108.06 17.67 103.78 16.23 100.29 16.21
  Q 56.56 16.00 18.80 16.30
  A 1.96 1.95 -0.3 0 0 16.86 18.25
  Q 16.85 62.06 16.95 107.13
  Q 16.95 108.03 16.68 108.89
  Q 16.39 109.78 15.73 110.48
  Q 14.30 111.98 13.10 113.79
  A 0.07 0.07 0.0 0 1 13.07 113.82
  L 12.47 114.21
  Q 12.15 114.42 11.92 114.73
  L 8.52 119.38
  L 5.89 121.16
  A 1.25 1.25 0.0 0 1 4.16 120.83
  Q 2.28 118.08 2.28 114.64
  Q 2.19 63.61 2.31 17.01
  C 2.32 12.88 1.82 8.80 1.26 4.69
  Q 1.06 3.24 1.38 1.87
  A 0.93 0.93 0.0 0 1 2.10 1.16
  Q 4.81 0.59 7.12 0.93
  Q 11.93 1.63 18.25 1.58
  Q 51.09 1.31 116.75 1.53
  Q 118.41 1.53 121.92 3.08
  Z"
/>
<path fill="#dac3c4" d="
  M 121.92 3.08
  Q 122.15 7.02 118.94 10.61
  Q 118.56 11.03 118.65 11.59
  Q 118.75 12.23 118.24 12.59
  Q 117.64 13.01 117.98 13.66
  Q 118.39 14.47 117.82 15.14
  Q 116.52 16.66 115.28 18.58
  Q 112.89 22.27 114.43 20.68
  Q 115.63 32.44 115.13 39.25
  Q 115.04 40.36 114.53 43.76
  Q 114.19 45.95 114.17 48.21
  Q 114.04 59.46 114.28 71.30
  Q 114.70 91.54 113.89 110.51
  A 2.72 2.72 0.0 0 1 111.07 113.12
  Q 103.47 112.84 96.15 113.25
  Q 91.15 113.52 83.01 113.17
  Q 76.03 112.87 69.99 112.79
  Q 47.60 112.49 25.21 112.50
  Q 39.39 112.38 53.56 112.18
  C 63.68 112.03 74.05 112.58 84.32 112.66
  Q 84.54 112.66 84.55 112.44
  L 84.56 112.18
  Q 84.56 112.12 84.50 112.12
  Q 69.62 111.29 49.50 111.47
  Q 38.77 111.57 27.97 111.39
  C 24.47 111.34 21.92 110.69 18.97 113.17
  Q 17.28 114.60 15.77 115.56
  Q 12.22 117.82 8.28 120.36
  Q 7.37 120.94 8.01 120.07
  L 8.52 119.38
  L 11.92 114.73
  Q 12.15 114.42 12.47 114.21
  L 13.07 113.82
  A 0.07 0.07 0.0 0 0 13.10 113.79
  Q 14.30 111.98 15.73 110.48
  Q 16.39 109.78 16.68 108.89
  Q 16.95 108.03 16.95 107.13
  Q 16.85 62.06 16.86 18.25
  A 1.96 1.95 -0.3 0 1 18.80 16.30
  Q 56.56 16.00 100.29 16.21
  C 103.78 16.23 108.06 17.67 111.03 15.25
  Q 114.26 12.62 117.46 9.97
  Q 121.00 7.05 121.92 3.08
  Z
  M 70.41 59.51
  Q 68.46 58.82 70.47 58.30
  C 78.63 56.22 84.56 49.21 82.25 40.51
  C 80.26 33.05 72.53 29.87 65.25 29.36
  Q 54.36 28.59 44.02 32.76
  A 1.66 1.64 -11.2 0 0 42.99 34.28
  L 43.00 41.19
  Q 43.01 42.09 43.79 41.65
  Q 53.91 36.00 65.16 37.15
  C 69.52 37.59 73.85 40.18 74.05 44.97
  C 74.48 55.13 64.06 56.41 56.56 55.94
  Q 55.99 55.91 55.99 56.47
  L 56.01 62.66
  A 0.43 0.43 0.0 0 0 56.47 63.09
  C 64.02 62.58 74.45 62.85 75.04 72.94
  Q 75.25 76.49 74.58 78.94
  C 72.35 87.00 63.89 88.70 56.44 87.92
  Q 48.81 87.12 41.17 82.99
  A 0.05 0.05 0.0 0 0 41.10 83.03
  Q 40.88 86.99 41.08 91.62
  A 0.31 0.30 -81.3 0 0 41.27 91.89
  C 54.50 97.29 76.39 99.47 82.59 82.36
  C 85.86 73.37 82.97 63.51 73.17 60.43
  Q 71.77 59.99 70.41 59.51
  Z"
/>
<path fill="#b1799b" d="
  M 25.21 112.50
  Q 47.60 112.49 69.99 112.79
  Q 76.03 112.87 83.01 113.17
  Q 91.15 113.52 96.15 113.25
  Q 103.47 112.84 111.07 113.12
  A 2.72 2.72 0.0 0 0 113.89 110.51
  Q 114.70 91.54 114.28 71.30
  Q 114.04 59.46 114.17 48.21
  Q 114.19 45.95 114.53 43.76
  Q 115.04 40.36 115.13 39.25
  Q 115.63 32.44 114.43 20.68
  Q 119.62 16.16 122.09 11.00
  A 2.81 2.79 -81.1 0 1 124.22 9.43
  Q 125.84 9.19 126.22 10.89
  C 126.99 14.31 126.35 17.77 126.30 21.36
  Q 126.16 30.80 126.16 38.76
  Q 126.17 80.34 126.32 120.54
  C 126.32 122.19 126.67 123.82 126.52 125.46
  A 0.71 0.71 0.0 0 1 125.79 126.11
  C 109.24 125.70 92.80 125.62 75.00 125.49
  Q 43.93 125.25 12.99 126.22
  Q 10.72 126.29 10.18 124.48
  A 1.90 1.89 -27.3 0 1 10.84 122.43
  Q 12.45 121.18 14.13 120.14
  Q 15.85 119.08 17.02 117.11
  Q 18.22 115.09 19.55 113.76
  Q 21.62 111.68 25.21 112.50
  Z"
/>
<path fill="#a7ffff" d="
  M 70.41 59.51
  Q 71.77 59.99 73.17 60.43
  C 82.97 63.51 85.86 73.37 82.59 82.36
  C 76.39 99.47 54.50 97.29 41.27 91.89
  A 0.31 0.30 -81.3 0 1 41.08 91.62
  Q 40.88 86.99 41.10 83.03
  A 0.05 0.05 0.0 0 1 41.17 82.99
  Q 48.81 87.12 56.44 87.92
  C 63.89 88.70 72.35 87.00 74.58 78.94
  Q 75.25 76.49 75.04 72.94
  C 74.45 62.85 64.02 62.58 56.47 63.09
  A 0.43 0.43 0.0 0 1 56.01 62.66
  L 55.99 56.47
  Q 55.99 55.91 56.56 55.94
  C 64.06 56.41 74.48 55.13 74.05 44.97
  C 73.85 40.18 69.52 37.59 65.16 37.15
  Q 53.91 36.00 43.79 41.65
  Q 43.01 42.09 43.00 41.19
  L 42.99 34.28
  A 1.66 1.64 -11.2 0 1 44.02 32.76
  Q 54.36 28.59 65.25 29.36
  C 72.53 29.87 80.26 33.05 82.25 40.51
  C 84.56 49.21 78.63 56.22 70.47 58.30
  Q 68.46 58.82 70.41 59.51
  Z"
/>
</svg>
