<?xml version="1.0" encoding="UTF-8" standalone="no"?>
<!DOCTYPE svg PUBLIC "-//W3C//DTD SVG 1.1//EN" "http://www.w3.org/Graphics/SVG/1.1/DTD/svg11.dtd">
<svg xmlns="http://www.w3.org/2000/svg" version="1.1" viewBox="0.00 0.00 128.00 128.00">
<g stroke-width="2.00" fill="none" stroke-linecap="butt">
<path stroke="#d6bcc0" vector-effect="non-scaling-stroke" d="
  M 4.58 121.48
  Q 5.00 123.01 4.10 126.14
  A 0.99 0.99 0.0 0 0 4.97 127.40
  L 6.09 127.49
  Q 7.52 127.60 7.37 126.17
  Q 7.22 124.74 7.26 123.47
  Q 7.30 122.57 7.85 121.48
  Q 8.12 120.96 8.55 120.61
  Q 8.95 120.28 9.46 120.37
  Q 10.33 120.51 10.83 119.76
  Q 11.13 119.32 11.66 119.28
  Q 15.16 118.99 16.63 116.24
  Q 16.78 115.95 17.10 115.90
  Q 17.64 115.82 17.61 115.25
  Q 19.31 113.15 21.77 112.82"
/>
<path stroke="#c197ac" vector-effect="non-scaling-stroke" d="
  M 21.77 112.82
  Q 19.47 114.59 17.54 116.77
  Q 16.19 118.29 14.77 119.27
  Q 13.01 120.49 11.32 121.87
  Q 9.82 123.10 10.13 124.91
  Q 10.20 125.33 10.58 125.50
  Q 12.78 126.47 15.44 126.28
  Q 25.96 125.56 42.99 125.49
  Q 84.14 125.30 125.84 126.05
  A 0.75 0.74 88.6 0 0 126.60 125.25
  Q 126.38 122.38 126.37 119.50
  Q 126.29 79.06 126.17 40.50
  Q 126.13 25.89 126.63 12.76
  Q 126.73 10.32 124.79 9.85
  Q 124.29 9.73 123.87 10.04
  Q 121.66 11.70 121.02 14.00
  Q 120.94 14.29 120.88 13.99
  Q 120.85 13.87 120.67 13.84
  Q 120.55 13.82 120.48 13.92
  Q 118.33 17.07 115.41 19.80
  A 3.12 3.12 0.0 0 0 114.42 22.19
  Q 114.77 32.88 114.57 44.07
  Q 114.57 44.26 114.39 44.32
  Q 114.14 44.41 114.16 44.67
  Q 114.35 46.39 113.75 47.86"
/>
<path stroke="#d6bcc0" vector-effect="non-scaling-stroke" d="
  M 113.75 47.86
  Q 112.62 35.37 113.71 20.76
  Q 113.80 19.50 114.48 18.86
  C 115.70 17.71 116.70 16.27 117.65 14.90
  Q 117.92 14.51 117.90 14.02
  Q 117.89 13.75 117.78 13.50
  Q 117.58 13.03 117.81 12.56
  Q 118.93 10.30 120.39 8.24
  Q 120.48 8.12 120.36 8.04
  L 120.35 8.04
  Q 120.23 7.95 120.15 8.08
  Q 119.04 9.86 117.00 10.41"
/>
<path stroke="#e8dade" vector-effect="non-scaling-stroke" d="
  M 117.00 10.41
  Q 120.11 7.86 121.72 4.55
  A 1.25 1.25 0.0 0 0 121.23 2.93
  Q 118.91 1.57 116.46 1.55
  Q 78.70 1.30 42.21 1.28
  C 33.09 1.27 23.85 1.70 14.43 1.58
  C 10.76 1.53 5.83 0.09 2.36 1.13
  Q 1.02 1.53 1.15 2.92
  C 1.65 8.05 2.32 12.85 2.31 18.28
  Q 2.19 66.46 2.28 113.75
  Q 2.29 118.15 4.58 121.48"
/>
<path stroke="#ede1e2" vector-effect="non-scaling-stroke" d="
  M 117.00 10.41
  C 114.71 12.23 110.43 16.70 107.41 16.65
  C 105.14 16.62 102.90 16.27 100.57 16.24
  Q 61.31 15.88 18.79 16.32
  A 1.82 1.81 1.9 0 0 17.00 17.99
  C 16.56 23.84 16.98 29.52 16.93 35.33
  Q 16.71 66.22 16.98 100.24
  C 17.00 102.70 17.99 108.41 15.96 110.18
  Q 12.67 113.05 9.49 117.74
  Q 7.61 120.52 4.58 121.48"
/>
<path stroke="#c69eb0" vector-effect="non-scaling-stroke" d="
  M 113.75 47.86
  Q 114.83 77.83 113.95 107.99
  Q 113.90 109.67 113.66 111.15
  A 2.56 2.56 0.0 0 1 110.81 113.27
  Q 104.90 112.51 99.14 113.05
  Q 93.48 113.58 88.31 113.59
  C 72.37 113.59 56.25 114.03 40.09 113.41
  Q 30.92 113.05 21.77 112.82"
/>
<path stroke="#c1e1e2" vector-effect="non-scaling-stroke" d="
  M 77.00 69.24
  L 76.99 31.00
  A 1.02 1.02 0.0 0 0 75.99 29.98
  Q 73.75 29.94 71.43 30.06
  C 68.72 30.19 66.64 33.26 64.95 35.22
  Q 51.69 50.51 39.89 63.71
  Q 37.85 65.99 37.43 67.70
  Q 36.66 70.80 37.05 76.10
  A 0.98 0.97 87.8 0 0 38.02 77.00
  L 68.25 77.01
  Q 68.99 77.01 68.99 77.75
  L 69.01 93.75
  Q 69.01 94.99 70.25 94.99
  L 75.79 94.97
  A 1.26 1.26 0.0 0 0 77.05 93.71
  L 77.04 77.73
  A 0.74 0.73 -0.4 0 1 77.77 77.00
  L 85.51 76.99
  Q 87.01 76.98 87.01 75.49
  L 87.00 71.51
  A 1.50 1.49 -90.0 0 0 85.51 70.01
  L 77.74 69.98
  Q 77.00 69.98 77.00 69.24"
/>
<path stroke="#c1e1e2" vector-effect="non-scaling-stroke" d="
  M 68.98 41.65
  A 0.33 0.33 0.0 0 0 68.40 41.43
  L 43.85 69.43
  A 0.33 0.33 0.0 0 0 44.10 69.98
  L 68.67 70.00
  A 0.33 0.33 0.0 0 0 69.00 69.67
  L 68.98 41.65"
/>
</g>
<path fill="#d1b4bc" d="
  M 0.00 0.00
  L 128.00 0.00
  L 128.00 128.00
  L 0.00 128.00
  L 0.00 0.00
  Z
  M 4.58 121.48
  Q 5.00 123.01 4.10 126.14
  A 0.99 0.99 0.0 0 0 4.97 127.40
  L 6.09 127.49
  Q 7.52 127.60 7.37 126.17
  Q 7.22 124.74 7.26 123.47
  Q 7.30 122.57 7.85 121.48
  Q 8.12 120.96 8.55 120.61
  Q 8.95 120.28 9.46 120.37
  Q 10.33 120.51 10.83 119.76
  Q 11.13 119.32 11.66 119.28
  Q 15.16 118.99 16.63 116.24
  Q 16.78 115.95 17.10 115.90
  Q 17.64 115.82 17.61 115.25
  Q 19.31 113.15 21.77 112.82
  Q 19.47 114.59 17.54 116.77
  Q 16.19 118.29 14.77 119.27
  Q 13.01 120.49 11.32 121.87
  Q 9.82 123.10 10.13 124.91
  Q 10.20 125.33 10.58 125.50
  Q 12.78 126.47 15.44 126.28
  Q 25.96 125.56 42.99 125.49
  Q 84.14 125.30 125.84 126.05
  A 0.75 0.74 88.6 0 0 126.60 125.25
  Q 126.38 122.38 126.37 119.50
  Q 126.29 79.06 126.17 40.50
  Q 126.13 25.89 126.63 12.76
  Q 126.73 10.32 124.79 9.85
  Q 124.29 9.73 123.87 10.04
  Q 121.66 11.70 121.02 14.00
  Q 120.94 14.29 120.88 13.99
  Q 120.85 13.87 120.67 13.84
  Q 120.55 13.82 120.48 13.92
  Q 118.33 17.07 115.41 19.80
  A 3.12 3.12 0.0 0 0 114.42 22.19
  Q 114.77 32.88 114.57 44.07
  Q 114.57 44.26 114.39 44.32
  Q 114.14 44.41 114.16 44.67
  Q 114.35 46.39 113.75 47.86
  Q 112.62 35.37 113.71 20.76
  Q 113.80 19.50 114.48 18.86
  C 115.70 17.71 116.70 16.27 117.65 14.90
  Q 117.92 14.51 117.90 14.02
  Q 117.89 13.75 117.78 13.50
  Q 117.58 13.03 117.81 12.56
  Q 118.93 10.30 120.39 8.24
  Q 120.48 8.12 120.36 8.04
  L 120.35 8.04
  Q 120.23 7.95 120.15 8.08
  Q 119.04 9.86 117.00 10.41
  Q 120.11 7.86 121.72 4.55
  A 1.25 1.25 0.0 0 0 121.23 2.93
  Q 118.91 1.57 116.46 1.55
  Q 78.70 1.30 42.21 1.28
  C 33.09 1.27 23.85 1.70 14.43 1.58
  C 10.76 1.53 5.83 0.09 2.36 1.13
  Q 1.02 1.53 1.15 2.92
  C 1.65 8.05 2.32 12.85 2.31 18.28
  Q 2.19 66.46 2.28 113.75
  Q 2.29 118.15 4.58 121.48
  Z"
/>
<path fill="#ffffff" d="
  M 117.00 10.41
  C 114.71 12.23 110.43 16.70 107.41 16.65
  C 105.14 16.62 102.90 16.27 100.57 16.24
  Q 61.31 15.88 18.79 16.32
  A 1.82 1.81 1.9 0 0 17.00 17.99
  C 16.56 23.84 16.98 29.52 16.93 35.33
  Q 16.71 66.22 16.98 100.24
  C 17.00 102.70 17.99 108.41 15.96 110.18
  Q 12.67 113.05 9.49 117.74
  Q 7.61 120.52 4.58 121.48
  Q 2.29 118.15 2.28 113.75
  Q 2.19 66.46 2.31 18.28
  C 2.32 12.85 1.65 8.05 1.15 2.92
  Q 1.02 1.53 2.36 1.13
  C 5.83 0.09 10.76 1.53 14.43 1.58
  C 23.85 1.70 33.09 1.27 42.21 1.28
  Q 78.70 1.30 116.46 1.55
  Q 118.91 1.57 121.23 2.93
  A 1.25 1.25 0.0 0 1 121.72 4.55
  Q 120.11 7.86 117.00 10.41
  Z"
/>
<path fill="#dac3c4" d="
  M 113.75 47.86
  Q 114.83 77.83 113.95 107.99
  Q 113.90 109.67 113.66 111.15
  A 2.56 2.56 0.0 0 1 110.81 113.27
  Q 104.90 112.51 99.14 113.05
  Q 93.48 113.58 88.31 113.59
  C 72.37 113.59 56.25 114.03 40.09 113.41
  Q 30.92 113.05 21.77 112.82
  Q 19.31 113.15 17.61 115.25
  Q 17.64 115.82 17.10 115.90
  Q 16.78 115.95 16.63 116.24
  Q 15.16 118.99 11.66 119.28
  Q 11.13 119.32 10.83 119.76
  Q 10.33 120.51 9.46 120.37
  Q 8.95 120.28 8.55 120.61
  Q 8.12 120.96 7.85 121.48
  Q 7.30 122.57 7.26 123.47
  Q 7.22 124.74 7.37 126.17
  Q 7.52 127.60 6.09 127.49
  L 4.97 127.40
  A 0.99 0.99 0.0 0 1 4.10 126.14
  Q 5.00 123.01 4.58 121.48
  Q 7.61 120.52 9.49 117.74
  Q 12.67 113.05 15.96 110.18
  C 17.99 108.41 17.00 102.70 16.98 100.24
  Q 16.71 66.22 16.93 35.33
  C 16.98 29.52 16.56 23.84 17.00 17.99
  A 1.82 1.81 1.9 0 1 18.79 16.32
  Q 61.31 15.88 100.57 16.24
  C 102.90 16.27 105.14 16.62 107.41 16.65
  C 110.43 16.70 114.71 12.23 117.00 10.41
  Q 119.04 9.86 120.15 8.08
  Q 120.23 7.95 120.35 8.04
  L 120.36 8.04
  Q 120.48 8.12 120.39 8.24
  Q 118.93 10.30 117.81 12.56
  Q 117.58 13.03 117.78 13.50
  Q 117.89 13.75 117.90 14.02
  Q 117.92 14.51 117.65 14.90
  C 116.70 16.27 115.70 17.71 114.48 18.86
  Q 113.80 19.50 113.71 20.76
  Q 112.62 35.37 113.75 47.86
  Z
  M 77.00 69.24
  L 76.99 31.00
  A 1.02 1.02 0.0 0 0 75.99 29.98
  Q 73.75 29.94 71.43 30.06
  C 68.72 30.19 66.64 33.26 64.95 35.22
  Q 51.69 50.51 39.89 63.71
  Q 37.85 65.99 37.43 67.70
  Q 36.66 70.80 37.05 76.10
  A 0.98 0.97 87.8 0 0 38.02 77.00
  L 68.25 77.01
  Q 68.99 77.01 68.99 77.75
  L 69.01 93.75
  Q 69.01 94.99 70.25 94.99
  L 75.79 94.97
  A 1.26 1.26 0.0 0 0 77.05 93.71
  L 77.04 77.73
  A 0.74 0.73 -0.4 0 1 77.77 77.00
  L 85.51 76.99
  Q 87.01 76.98 87.01 75.49
  L 87.00 71.51
  A 1.50 1.49 -90.0 0 0 85.51 70.01
  L 77.74 69.98
  Q 77.00 69.98 77.00 69.24
  Z"
/>
<path fill="#b1799b" d="
  M 21.77 112.82
  Q 30.92 113.05 40.09 113.41
  C 56.25 114.03 72.37 113.59 88.31 113.59
  Q 93.48 113.58 99.14 113.05
  Q 104.90 112.51 110.81 113.27
  A 2.56 2.56 0.0 0 0 113.66 111.15
  Q 113.90 109.67 113.95 107.99
  Q 114.83 77.83 113.75 47.86
  Q 114.35 46.39 114.16 44.67
  Q 114.14 44.41 114.39 44.32
  Q 114.57 44.26 114.57 44.07
  Q 114.77 32.88 114.42 22.19
  A 3.12 3.12 0.0 0 1 115.41 19.80
  Q 118.33 17.07 120.48 13.92
  Q 120.55 13.82 120.67 13.84
  Q 120.85 13.87 120.88 13.99
  Q 120.94 14.29 121.02 14.00
  Q 121.66 11.70 123.87 10.04
  Q 124.29 9.73 124.79 9.85
  Q 126.73 10.32 126.63 12.76
  Q 126.13 25.89 126.17 40.50
  Q 126.29 79.06 126.37 119.50
  Q 126.38 122.38 126.60 125.25
  A 0.75 0.74 88.6 0 1 125.84 126.05
  Q 84.14 125.30 42.99 125.49
  Q 25.96 125.56 15.44 126.28
  Q 12.78 126.47 10.58 125.50
  Q 10.20 125.33 10.13 124.91
  Q 9.82 123.10 11.32 121.87
  Q 13.01 120.49 14.77 119.27
  Q 16.19 118.29 17.54 116.77
  Q 19.47 114.59 21.77 112.82
  Z"
/>
<path fill="#a7ffff" d="
  M 77.74 69.98
  L 85.51 70.01
  A 1.50 1.49 90.0 0 1 87.00 71.51
  L 87.01 75.49
  Q 87.01 76.98 85.51 76.99
  L 77.77 77.00
  A 0.74 0.73 -0.4 0 0 77.04 77.73
  L 77.05 93.71
  A 1.26 1.26 0.0 0 1 75.79 94.97
  L 70.25 94.99
  Q 69.01 94.99 69.01 93.75
  L 68.99 77.75
  Q 68.99 77.01 68.25 77.01
  L 38.02 77.00
  A 0.98 0.97 87.8 0 1 37.05 76.10
  Q 36.66 70.80 37.43 67.70
  Q 37.85 65.99 39.89 63.71
  Q 51.69 50.51 64.95 35.22
  C 66.64 33.26 68.72 30.19 71.43 30.06
  Q 73.75 29.94 75.99 29.98
  A 1.02 1.02 0.0 0 1 76.99 31.00
  L 77.00 69.24
  Q 77.00 69.98 77.74 69.98
  Z
  M 68.98 41.65
  A 0.33 0.33 0.0 0 0 68.40 41.43
  L 43.85 69.43
  A 0.33 0.33 0.0 0 0 44.10 69.98
  L 68.67 70.00
  A 0.33 0.33 0.0 0 0 69.00 69.67
  L 68.98 41.65
  Z"
/>
<path fill="#dac3c4" d="
  M 68.98 41.65
  L 69.00 69.67
  A 0.33 0.33 0.0 0 1 68.67 70.00
  L 44.10 69.98
  A 0.33 0.33 0.0 0 1 43.85 69.43
  L 68.40 41.43
  A 0.33 0.33 0.0 0 1 68.98 41.65
  Z"
/>
</svg>
