<?xml version="1.0" encoding="UTF-8" standalone="no"?>
<!DOCTYPE svg PUBLIC "-//W3C//DTD SVG 1.1//EN" "http://www.w3.org/Graphics/SVG/1.1/DTD/svg11.dtd">
<svg xmlns="http://www.w3.org/2000/svg" version="1.1" viewBox="0.00 0.00 128.00 128.00">
<g stroke-width="2.00" fill="none" stroke-linecap="butt">
<path stroke="#d6bcc0" vector-effect="non-scaling-stroke" d="
  M 4.74 121.66
  L 4.59 124.38
  A 1.78 1.72 61.3 0 1 4.39 125.11
  Q 4.06 125.72 4.08 126.49
  Q 4.10 127.37 4.98 127.37
  L 6.47 127.37
  Q 7.35 127.37 7.37 126.50
  C 7.41 124.83 6.64 122.79 7.61 121.33
  Q 8.57 119.88 10.57 119.16
  Q 11.85 118.69 12.95 117.85
  Q 14.48 116.66 16.08 115.62
  Q 17.74 114.54 19.21 113.26
  Q 21.87 110.96 25.12 111.41
  Q 26.98 111.67 28.86 111.64
  Q 37.70 111.53 46.42 111.74
  C 52.75 111.89 59.30 111.47 65.76 111.67
  C 67.13 111.71 68.31 112.08 69.72 112.11
  Q 77.00 112.27 84.29 112.48
  Q 84.79 112.49 85.17 112.80
  Q 85.56 113.10 86.04 113.11
  Q 88.69 113.18 91.34 113.31
  Q 93.89 113.44 96.66 113.21
  Q 103.95 112.61 111.26 112.96
  Q 111.44 112.96 111.44 113.15
  L 111.44 113.16
  Q 111.43 113.36 111.23 113.36
  Q 108.43 113.32 105.60 113.38
  Q 102.77 113.44 99.92 113.68
  Q 95.09 114.08 90.22 113.87
  C 78.07 113.34 65.83 113.62 53.52 113.59
  Q 53.20 113.59 52.91 113.46
  A 1.08 1.00 -30.4 0 0 52.46 113.36
  Q 37.57 113.33 23.20 113.40
  Q 21.62 113.41 20.03 114.23
  Q 19.58 114.46 19.32 114.88
  Q 17.70 117.54 15.30 119.44"
/>
<path stroke="#c197ac" vector-effect="non-scaling-stroke" d="
  M 15.30 119.44
  Q 12.56 120.44 10.51 122.47
  Q 10.37 122.60 10.51 122.74
  L 10.71 122.93
  A 0.13 0.13 0.0 0 0 10.91 122.90
  Q 11.72 121.43 13.31 120.76
  Q 13.45 120.70 13.54 120.84
  L 13.54 120.85
  Q 13.67 121.06 13.46 121.20
  Q 12.05 122.14 10.99 123.29
  A 1.63 1.62 32.5 0 0 11.57 125.89
  Q 12.51 126.27 13.45 126.23
  Q 23.62 125.73 32.54 125.64
  Q 70.05 125.29 113.81 125.83
  Q 120.15 125.91 125.75 126.14
  A 0.77 0.76 -86.5 0 0 126.54 125.43
  C 126.66 123.86 126.32 122.32 126.32 120.76
  Q 126.28 78.88 126.21 37.00
  Q 126.19 24.27 126.54 12.97
  Q 126.59 11.43 125.88 10.14
  A 1.09 1.08 -33.3 0 0 124.27 9.81
  C 123.08 10.73 122.15 10.86 121.35 12.28
  Q 119.02 16.49 115.30 19.94
  Q 114.43 20.75 114.49 22.00
  Q 115.03 33.87 114.15 45.94"
/>
<path stroke="#d6bcc0" vector-effect="non-scaling-stroke" d="
  M 114.15 45.94
  Q 113.31 43.14 113.33 40.25
  Q 113.41 30.36 113.84 20.01
  Q 113.86 19.51 114.19 19.14
  Q 115.40 17.75 116.60 16.15
  Q 116.65 16.08 117.50 15.29
  Q 118.12 14.72 117.79 13.91
  A 1.16 1.10 -45.1 0 1 117.81 12.98
  Q 118.95 10.47 120.58 8.49
  C 121.55 7.31 121.43 6.02 122.17 4.74
  Q 122.47 4.23 122.31 3.69
  Q 122.11 2.99 121.25 2.94"
/>
<path stroke="#e8dade" vector-effect="non-scaling-stroke" d="
  M 121.25 2.94
  Q 119.02 1.57 116.75 1.56
  Q 83.68 1.37 13.75 1.36
  Q 10.25 1.36 6.75 0.91
  Q 4.54 0.63 2.34 1.11
  A 1.49 1.48 81.8 0 0 1.17 2.68
  Q 1.42 6.04 1.93 10.39
  Q 2.32 13.74 2.31 18.11
  Q 2.18 62.29 2.28 114.25
  Q 2.29 118.20 4.74 121.66"
/>
<path stroke="#ede1e2" vector-effect="non-scaling-stroke" d="
  M 121.25 2.94
  Q 122.07 3.98 121.44 4.97
  C 120.45 6.55 119.55 8.03 118.08 9.27
  Q 115.05 11.82 111.91 14.53
  C 108.29 17.65 105.78 16.41 101.55 16.32
  Q 90.26 16.08 78.74 16.18
  C 58.81 16.35 39.01 16.25 19.18 16.26
  Q 17.05 16.26 16.96 18.38
  Q 16.73 24.24 16.78 32.16
  Q 17.03 64.68 16.85 99.85
  C 16.84 102.88 17.55 105.86 16.75 108.80
  C 16.36 110.22 15.08 110.91 14.06 111.83
  Q 12.94 112.84 12.04 114.20
  Q 8.98 118.82 4.74 121.66"
/>
<path stroke="#c69eb0" vector-effect="non-scaling-stroke" d="
  M 114.15 45.94
  Q 114.19 54.16 114.34 62.75
  Q 114.77 86.03 113.93 109.99
  Q 113.88 111.39 113.41 112.43
  Q 112.80 113.77 111.00 113.65
  Q 110.30 113.61 109.59 113.64
  Q 95.48 114.27 81.75 114.17
  Q 74.75 114.12 67.77 114.50
  Q 60.68 114.87 53.75 114.54
  Q 46.22 114.17 38.73 114.12
  Q 31.30 114.07 23.68 113.66
  Q 22.24 113.58 21.35 113.88
  Q 19.98 114.35 19.39 115.26
  Q 17.44 118.29 15.30 119.44"
/>
<path stroke="#c1e1e2" vector-effect="non-scaling-stroke" d="
  M 53.67 54.61
  A 0.58 0.57 -4.7 0 1 53.00 54.05
  L 53.00 37.50
  A 0.50 0.49 0.0 0 1 53.50 37.01
  L 83.98 37.01
  A 1.01 1.00 0.3 0 0 84.99 36.02
  L 85.05 30.06
  Q 85.06 29.06 84.06 29.06
  L 46.26 28.98
  A 1.26 1.26 0.0 0 0 45.00 30.24
  L 44.99 62.21
  Q 44.99 62.88 45.64 62.71
  C 54.34 60.33 75.37 57.90 76.04 72.17
  C 76.64 84.93 67.96 89.16 56.57 87.83
  Q 49.33 86.98 42.18 82.97
  A 0.05 0.05 0.0 0 0 42.11 83.01
  Q 41.83 87.53 42.16 91.96
  Q 42.17 92.09 42.29 92.14
  C 56.77 98.07 78.98 98.84 84.09 79.58
  Q 85.47 74.39 84.38 69.13
  Q 82.00 57.53 69.16 54.97
  Q 61.16 53.38 53.67 54.61"
/>
</g>
<path fill="#d1b4bc" d="
  M 0.00 0.00
  L 128.00 0.00
  L 128.00 128.00
  L 0.00 128.00
  L 0.00 0.00
  Z
  M 4.74 121.66
  L 4.59 124.38
  A 1.78 1.72 61.3 0 1 4.39 125.11
  Q 4.06 125.72 4.08 126.49
  Q 4.10 127.37 4.98 127.37
  L 6.47 127.37
  Q 7.35 127.37 7.37 126.50
  C 7.41 124.83 6.64 122.79 7.61 121.33
  Q 8.57 119.88 10.57 119.16
  Q 11.85 118.69 12.95 117.85
  Q 14.48 116.66 16.08 115.62
  Q 17.74 114.54 19.21 113.26
  Q 21.87 110.96 25.12 111.41
  Q 26.98 111.67 28.86 111.64
  Q 37.70 111.53 46.42 111.74
  C 52.75 111.89 59.30 111.47 65.76 111.67
  C 67.13 111.71 68.31 112.08 69.72 112.11
  Q 77.00 112.27 84.29 112.48
  Q 84.79 112.49 85.17 112.80
  Q 85.56 113.10 86.04 113.11
  Q 88.69 113.18 91.34 113.31
  Q 93.89 113.44 96.66 113.21
  Q 103.95 112.61 111.26 112.96
  Q 111.44 112.96 111.44 113.15
  L 111.44 113.16
  Q 111.43 113.36 111.23 113.36
  Q 108.43 113.32 105.60 113.38
  Q 102.77 113.44 99.92 113.68
  Q 95.09 114.08 90.22 113.87
  C 78.07 113.34 65.83 113.62 53.52 113.59
  Q 53.20 113.59 52.91 113.46
  A 1.08 1.00 -30.4 0 0 52.46 113.36
  Q 37.57 113.33 23.20 113.40
  Q 21.62 113.41 20.03 114.23
  Q 19.58 114.46 19.32 114.88
  Q 17.70 117.54 15.30 119.44
  Q 12.56 120.44 10.51 122.47
  Q 10.37 122.60 10.51 122.74
  L 10.71 122.93
  A 0.13 0.13 0.0 0 0 10.91 122.90
  Q 11.72 121.43 13.31 120.76
  Q 13.45 120.70 13.54 120.84
  L 13.54 120.85
  Q 13.67 121.06 13.46 121.20
  Q 12.05 122.14 10.99 123.29
  A 1.63 1.62 32.5 0 0 11.57 125.89
  Q 12.51 126.27 13.45 126.23
  Q 23.62 125.73 32.54 125.64
  Q 70.05 125.29 113.81 125.83
  Q 120.15 125.91 125.75 126.14
  A 0.77 0.76 -86.5 0 0 126.54 125.43
  C 126.66 123.86 126.32 122.32 126.32 120.76
  Q 126.28 78.88 126.21 37.00
  Q 126.19 24.27 126.54 12.97
  Q 126.59 11.43 125.88 10.14
  A 1.09 1.08 -33.3 0 0 124.27 9.81
  C 123.08 10.73 122.15 10.86 121.35 12.28
  Q 119.02 16.49 115.30 19.94
  Q 114.43 20.75 114.49 22.00
  Q 115.03 33.87 114.15 45.94
  Q 113.31 43.14 113.33 40.25
  Q 113.41 30.36 113.84 20.01
  Q 113.86 19.51 114.19 19.14
  Q 115.40 17.75 116.60 16.15
  Q 116.65 16.08 117.50 15.29
  Q 118.12 14.72 117.79 13.91
  A 1.16 1.10 -45.1 0 1 117.81 12.98
  Q 118.95 10.47 120.58 8.49
  C 121.55 7.31 121.43 6.02 122.17 4.74
  Q 122.47 4.23 122.31 3.69
  Q 122.11 2.99 121.25 2.94
  Q 119.02 1.57 116.75 1.56
  Q 83.68 1.37 13.75 1.36
  Q 10.25 1.36 6.75 0.91
  Q 4.54 0.63 2.34 1.11
  A 1.49 1.48 81.8 0 0 1.17 2.68
  Q 1.42 6.04 1.93 10.39
  Q 2.32 13.74 2.31 18.11
  Q 2.18 62.29 2.28 114.25
  Q 2.29 118.20 4.74 121.66
  Z"
/>
<path fill="#ffffff" d="
  M 121.25 2.94
  Q 122.07 3.98 121.44 4.97
  C 120.45 6.55 119.55 8.03 118.08 9.27
  Q 115.05 11.82 111.91 14.53
  C 108.29 17.65 105.78 16.41 101.55 16.32
  Q 90.26 16.08 78.74 16.18
  C 58.81 16.35 39.01 16.25 19.18 16.26
  Q 17.05 16.26 16.96 18.38
  Q 16.73 24.24 16.78 32.16
  Q 17.03 64.68 16.85 99.85
  C 16.84 102.88 17.55 105.86 16.75 108.80
  C 16.36 110.22 15.08 110.91 14.06 111.83
  Q 12.94 112.84 12.04 114.20
  Q 8.98 118.82 4.74 121.66
  Q 2.29 118.20 2.28 114.25
  Q 2.18 62.29 2.31 18.11
  Q 2.32 13.74 1.93 10.39
  Q 1.42 6.04 1.17 2.68
  A 1.49 1.48 81.8 0 1 2.34 1.11
  Q 4.54 0.63 6.75 0.91
  Q 10.25 1.36 13.75 1.36
  Q 83.68 1.37 116.75 1.56
  Q 119.02 1.57 121.25 2.94
  Z"
/>
<path fill="#dac3c4" d="
  M 121.25 2.94
  Q 122.11 2.99 122.31 3.69
  Q 122.47 4.23 122.17 4.74
  C 121.43 6.02 121.55 7.31 120.58 8.49
  Q 118.95 10.47 117.81 12.98
  A 1.16 1.10 -45.1 0 0 117.79 13.91
  Q 118.12 14.72 117.50 15.29
  Q 116.65 16.08 116.60 16.15
  Q 115.40 17.75 114.19 19.14
  Q 113.86 19.51 113.84 20.01
  Q 113.41 30.36 113.33 40.25
  Q 113.31 43.14 114.15 45.94
  Q 114.19 54.16 114.34 62.75
  Q 114.77 86.03 113.93 109.99
  Q 113.88 111.39 113.41 112.43
  Q 112.80 113.77 111.00 113.65
  Q 110.30 113.61 109.59 113.64
  Q 95.48 114.27 81.75 114.17
  Q 74.75 114.12 67.77 114.50
  Q 60.68 114.87 53.75 114.54
  Q 46.22 114.17 38.73 114.12
  Q 31.30 114.07 23.68 113.66
  Q 22.24 113.58 21.35 113.88
  Q 19.98 114.35 19.39 115.26
  Q 17.44 118.29 15.30 119.44
  Q 17.70 117.54 19.32 114.88
  Q 19.58 114.46 20.03 114.23
  Q 21.62 113.41 23.20 113.40
  Q 37.57 113.33 52.46 113.36
  A 1.08 1.00 -30.4 0 1 52.91 113.46
  Q 53.20 113.59 53.52 113.59
  C 65.83 113.62 78.07 113.34 90.22 113.87
  Q 95.09 114.08 99.92 113.68
  Q 102.77 113.44 105.60 113.38
  Q 108.43 113.32 111.23 113.36
  Q 111.43 113.36 111.44 113.16
  L 111.44 113.15
  Q 111.44 112.96 111.26 112.96
  Q 103.95 112.61 96.66 113.21
  Q 93.89 113.44 91.34 113.31
  Q 88.69 113.18 86.04 113.11
  Q 85.56 113.10 85.17 112.80
  Q 84.79 112.49 84.29 112.48
  Q 77.00 112.27 69.72 112.11
  C 68.31 112.08 67.13 111.71 65.76 111.67
  C 59.30 111.47 52.75 111.89 46.42 111.74
  Q 37.70 111.53 28.86 111.64
  Q 26.98 111.67 25.12 111.41
  Q 21.87 110.96 19.21 113.26
  Q 17.74 114.54 16.08 115.62
  Q 14.48 116.66 12.95 117.85
  Q 11.85 118.69 10.57 119.16
  Q 8.57 119.88 7.61 121.33
  C 6.64 122.79 7.41 124.83 7.37 126.50
  Q 7.35 127.37 6.47 127.37
  L 4.98 127.37
  Q 4.10 127.37 4.08 126.49
  Q 4.06 125.72 4.39 125.11
  A 1.78 1.72 61.3 0 0 4.59 124.38
  L 4.74 121.66
  Q 8.98 118.82 12.04 114.20
  Q 12.94 112.84 14.06 111.83
  C 15.08 110.91 16.36 110.22 16.75 108.80
  C 17.55 105.86 16.84 102.88 16.85 99.85
  Q 17.03 64.68 16.78 32.16
  Q 16.73 24.24 16.96 18.38
  Q 17.05 16.26 19.18 16.26
  C 39.01 16.25 58.81 16.35 78.74 16.18
  Q 90.26 16.08 101.55 16.32
  C 105.78 16.41 108.29 17.65 111.91 14.53
  Q 115.05 11.82 118.08 9.27
  C 119.55 8.03 120.45 6.55 121.44 4.97
  Q 122.07 3.98 121.25 2.94
  Z
  M 53.67 54.61
  A 0.58 0.57 -4.7 0 1 53.00 54.05
  L 53.00 37.50
  A 0.50 0.49 0.0 0 1 53.50 37.01
  L 83.98 37.01
  A 1.01 1.00 0.3 0 0 84.99 36.02
  L 85.05 30.06
  Q 85.06 29.06 84.06 29.06
  L 46.26 28.98
  A 1.26 1.26 0.0 0 0 45.00 30.24
  L 44.99 62.21
  Q 44.99 62.88 45.64 62.71
  C 54.34 60.33 75.37 57.90 76.04 72.17
  C 76.64 84.93 67.96 89.16 56.57 87.83
  Q 49.33 86.98 42.18 82.97
  A 0.05 0.05 0.0 0 0 42.11 83.01
  Q 41.83 87.53 42.16 91.96
  Q 42.17 92.09 42.29 92.14
  C 56.77 98.07 78.98 98.84 84.09 79.58
  Q 85.47 74.39 84.38 69.13
  Q 82.00 57.53 69.16 54.97
  Q 61.16 53.38 53.67 54.61
  Z"
/>
<path fill="#b1799b" d="
  M 15.30 119.44
  Q 17.44 118.29 19.39 115.26
  Q 19.98 114.35 21.35 113.88
  Q 22.24 113.58 23.68 113.66
  Q 31.30 114.07 38.73 114.12
  Q 46.22 114.17 53.75 114.54
  Q 60.68 114.87 67.77 114.50
  Q 74.75 114.12 81.75 114.17
  Q 95.48 114.27 109.59 113.64
  Q 110.30 113.61 111.00 113.65
  Q 112.80 113.77 113.41 112.43
  Q 113.88 111.39 113.93 109.99
  Q 114.77 86.03 114.34 62.75
  Q 114.19 54.16 114.15 45.94
  Q 115.03 33.87 114.49 22.00
  Q 114.43 20.75 115.30 19.94
  Q 119.02 16.49 121.35 12.28
  C 122.15 10.86 123.08 10.73 124.27 9.81
  A 1.09 1.08 -33.3 0 1 125.88 10.14
  Q 126.59 11.43 126.54 12.97
  Q 126.19 24.27 126.21 37.00
  Q 126.28 78.88 126.32 120.76
  C 126.32 122.32 126.66 123.86 126.54 125.43
  A 0.77 0.76 -86.5 0 1 125.75 126.14
  Q 120.15 125.91 113.81 125.83
  Q 70.05 125.29 32.54 125.64
  Q 23.62 125.73 13.45 126.23
  Q 12.51 126.27 11.57 125.89
  A 1.63 1.62 32.5 0 1 10.99 123.29
  Q 12.05 122.14 13.46 121.20
  Q 13.67 121.06 13.54 120.85
  L 13.54 120.84
  Q 13.45 120.70 13.31 120.76
  Q 11.72 121.43 10.91 122.90
  A 0.13 0.13 0.0 0 1 10.71 122.93
  L 10.51 122.74
  Q 10.37 122.60 10.51 122.47
  Q 12.56 120.44 15.30 119.44
  Z"
/>
<path fill="#a7ffff" d="
  M 53.67 54.61
  Q 61.16 53.38 69.16 54.97
  Q 82.00 57.53 84.38 69.13
  Q 85.47 74.39 84.09 79.58
  C 78.98 98.84 56.77 98.07 42.29 92.14
  Q 42.17 92.09 42.16 91.96
  Q 41.83 87.53 42.11 83.01
  A 0.05 0.05 0.0 0 1 42.18 82.97
  Q 49.33 86.98 56.57 87.83
  C 67.96 89.16 76.64 84.93 76.04 72.17
  C 75.37 57.90 54.34 60.33 45.64 62.71
  Q 44.99 62.88 44.99 62.21
  L 45.00 30.24
  A 1.26 1.26 0.0 0 1 46.26 28.98
  L 84.06 29.06
  Q 85.06 29.06 85.05 30.06
  L 84.99 36.02
  A 1.01 1.00 0.3 0 1 83.98 37.01
  L 53.50 37.01
  A 0.50 0.49 -0.0 0 0 53.00 37.50
  L 53.00 54.05
  A 0.58 0.57 -4.7 0 0 53.67 54.61
  Z"
/>
</svg>
