<?xml version="1.0" encoding="UTF-8" standalone="no"?>
<!DOCTYPE svg PUBLIC "-//W3C//DTD SVG 1.1//EN" "http://www.w3.org/Graphics/SVG/1.1/DTD/svg11.dtd">
<svg xmlns="http://www.w3.org/2000/svg" version="1.1" viewBox="0.00 0.00 128.00 128.00">
<g stroke-width="2.00" fill="none" stroke-linecap="butt">
<path stroke="#d6bcc0" vector-effect="non-scaling-stroke" d="
  M 4.71 121.68
  Q 4.96 123.60 4.05 126.12
  A 1.01 1.01 0.0 0 0 5.03 127.47
  L 6.68 127.43
  Q 7.16 127.42 7.32 126.97
  Q 7.76 125.72 7.43 124.93
  A 3.18 3.17 64.6 0 1 8.86 120.90
  Q 10.83 119.85 12.91 118.44
  Q 13.36 118.13 13.94 118.16
  Q 14.48 118.18 14.81 117.77
  Q 17.47 114.49 21.17 111.94
  A 0.42 0.41 -24.7 0 1 21.81 112.17
  Q 21.81 112.20 21.34 112.53"
/>
<path stroke="#c197ac" vector-effect="non-scaling-stroke" d="
  M 21.34 112.53
  Q 21.30 112.67 21.22 112.79
  Q 21.16 112.87 21.26 112.87
  L 80.94 113.01
  Q 81.19 113.01 81.19 113.25
  L 81.18 113.56
  A 0.08 0.07 -90.0 0 1 81.11 113.64
  Q 42.18 113.22 23.22 113.23
  Q 19.05 113.24 17.91 117.18
  Q 17.75 117.70 17.27 117.95
  Q 14.31 119.50 11.58 121.62
  Q 10.08 122.77 10.05 124.52
  Q 10.03 125.07 10.50 125.38
  Q 11.97 126.37 13.52 126.28
  Q 23.03 125.72 31.50 125.64
  Q 70.39 125.26 114.75 125.83
  Q 120.24 125.90 125.76 126.13
  A 0.74 0.74 0.0 0 0 126.54 125.45
  C 126.64 124.11 126.42 122.33 126.32 120.76
  Q 126.32 120.68 126.11 38.85
  Q 126.08 25.26 126.62 12.96
  Q 126.67 11.63 125.90 10.18
  A 1.58 1.57 63.7 0 0 123.85 9.48
  Q 122.09 10.29 121.54 11.77
  Q 121.24 12.58 120.79 13.30
  Q 118.52 16.96 115.45 19.76
  A 3.18 3.18 0.0 0 0 114.43 22.31
  Q 115.27 34.73 113.86 47.41"
/>
<path stroke="#d6bcc0" vector-effect="non-scaling-stroke" d="
  M 113.86 47.41
  Q 112.57 35.28 113.51 22.89
  Q 113.74 19.89 114.75 18.58
  Q 115.98 16.98 117.40 15.72
  Q 118.52 14.73 117.95 13.39
  A 0.36 0.35 -35.2 0 1 118.02 13.01
  Q 118.59 12.43 118.64 11.68
  Q 118.67 11.25 118.88 10.87
  L 122.32 4.59
  A 1.21 1.20 48.0 0 0 122.37 3.54
  Q 122.00 2.63 121.27 2.94"
/>
<path stroke="#e8dade" vector-effect="non-scaling-stroke" d="
  M 121.27 2.94
  Q 118.73 1.48 115.25 1.49
  Q 87.96 1.59 45.44 1.36
  C 36.00 1.31 26.18 1.54 16.69 1.63
  C 13.03 1.67 9.62 1.20 6.03 0.82
  Q 3.58 0.57 1.63 1.50
  A 0.77 0.77 0.0 0 0 1.19 2.24
  Q 1.40 6.23 1.90 10.24
  Q 2.33 13.69 2.32 18.27
  Q 2.18 66.14 2.28 114.00
  Q 2.29 118.14 4.71 121.68"
/>
<path stroke="#ede1e2" vector-effect="non-scaling-stroke" d="
  M 121.27 2.94
  Q 122.09 3.88 121.43 4.98
  C 118.69 9.59 114.79 12.13 110.83 15.33
  C 108.08 17.55 104.55 16.36 101.41 16.32
  Q 63.42 15.86 18.74 16.32
  A 1.72 1.71 -87.1 0 0 17.06 17.85
  C 16.55 22.45 16.95 27.22 16.93 31.83
  Q 16.73 63.99 16.96 99.24
  Q 16.98 102.54 17.18 105.94
  C 17.37 109.06 16.16 110.08 14.07 111.96
  Q 13.01 112.92 12.04 114.39
  Q 9.02 118.97 4.71 121.68"
/>
<path stroke="#c69eb0" vector-effect="non-scaling-stroke" d="
  M 113.86 47.41
  Q 114.99 77.43 114.06 107.75
  Q 113.99 109.81 113.53 111.50
  A 2.22 2.21 -85.3 0 1 111.63 113.12
  Q 110.20 113.26 108.85 112.90
  C 106.94 112.39 105.18 112.89 103.35 112.41
  Q 101.98 112.05 100.61 112.08
  Q 92.95 112.25 85.30 112.67"
/>
<path stroke="#d6bcc0" vector-effect="non-scaling-stroke" d="
  M 85.30 112.67
  Q 85.30 112.50 85.13 112.37
  Q 85.03 112.29 84.84 112.28
  Q 68.85 111.16 52.89 112.60"
/>
<path stroke="#c69eb0" vector-effect="non-scaling-stroke" d="
  M 52.89 112.60
  L 21.34 112.53"
/>
<path stroke="#c197ac" vector-effect="non-scaling-stroke" d="
  M 52.89 112.60
  L 85.30 112.67"
/>
<path stroke="#c1e1e2" vector-effect="non-scaling-stroke" d="
  M 49.07 56.96
  C 50.24 46.90 56.18 38.61 66.70 37.19
  Q 73.80 36.24 79.54 38.74
  Q 79.99 38.94 79.99 38.44
  L 80.00 30.72
  Q 80.00 30.10 79.39 29.97
  C 60.98 26.29 45.01 35.25 41.33 54.28
  Q 39.11 65.74 41.08 76.22
  Q 42.55 84.11 47.25 89.28
  C 52.61 95.19 61.72 97.06 69.34 95.12
  C 81.39 92.04 87.37 81.03 85.48 69.04
  C 84.29 61.50 79.00 55.69 71.75 53.98
  Q 59.92 51.20 49.78 57.41
  A 0.47 0.47 0.0 0 1 49.07 56.96"
/>
<path stroke="#c1e1e2" vector-effect="non-scaling-stroke" d="
  M 59.31 88.46
  C 67.44 90.50 74.95 87.28 76.62 78.63
  C 78.19 70.55 76.46 62.00 67.05 60.31
  Q 58.25 58.73 49.60 63.16
  Q 49.13 63.40 49.10 63.92
  Q 48.64 70.70 49.41 75.78
  C 50.19 81.01 54.02 87.13 59.31 88.46"
/>
</g>
<path fill="#d1b4bc" d="
  M 0.00 0.00
  L 128.00 0.00
  L 128.00 128.00
  L 0.00 128.00
  L 0.00 0.00
  Z
  M 4.71 121.68
  Q 4.96 123.60 4.05 126.12
  A 1.01 1.01 0.0 0 0 5.03 127.47
  L 6.68 127.43
  Q 7.16 127.42 7.32 126.97
  Q 7.76 125.72 7.43 124.93
  A 3.18 3.17 64.6 0 1 8.86 120.90
  Q 10.83 119.85 12.91 118.44
  Q 13.36 118.13 13.94 118.16
  Q 14.48 118.18 14.81 117.77
  Q 17.47 114.49 21.17 111.94
  A 0.42 0.41 -24.7 0 1 21.81 112.17
  Q 21.81 112.20 21.34 112.53
  Q 21.30 112.67 21.22 112.79
  Q 21.16 112.87 21.26 112.87
  L 80.94 113.01
  Q 81.19 113.01 81.19 113.25
  L 81.18 113.56
  A 0.08 0.07 -90.0 0 1 81.11 113.64
  Q 42.18 113.22 23.22 113.23
  Q 19.05 113.24 17.91 117.18
  Q 17.75 117.70 17.27 117.95
  Q 14.31 119.50 11.58 121.62
  Q 10.08 122.77 10.05 124.52
  Q 10.03 125.07 10.50 125.38
  Q 11.97 126.37 13.52 126.28
  Q 23.03 125.72 31.50 125.64
  Q 70.39 125.26 114.75 125.83
  Q 120.24 125.90 125.76 126.13
  A 0.74 0.74 0.0 0 0 126.54 125.45
  C 126.64 124.11 126.42 122.33 126.32 120.76
  Q 126.32 120.68 126.11 38.85
  Q 126.08 25.26 126.62 12.96
  Q 126.67 11.63 125.90 10.18
  A 1.58 1.57 63.7 0 0 123.85 9.48
  Q 122.09 10.29 121.54 11.77
  Q 121.24 12.58 120.79 13.30
  Q 118.52 16.96 115.45 19.76
  A 3.18 3.18 0.0 0 0 114.43 22.31
  Q 115.27 34.73 113.86 47.41
  Q 112.57 35.28 113.51 22.89
  Q 113.74 19.89 114.75 18.58
  Q 115.98 16.98 117.40 15.72
  Q 118.52 14.73 117.95 13.39
  A 0.36 0.35 -35.2 0 1 118.02 13.01
  Q 118.59 12.43 118.64 11.68
  Q 118.67 11.25 118.88 10.87
  L 122.32 4.59
  A 1.21 1.20 48.0 0 0 122.37 3.54
  Q 122.00 2.63 121.27 2.94
  Q 118.73 1.48 115.25 1.49
  Q 87.96 1.59 45.44 1.36
  C 36.00 1.31 26.18 1.54 16.69 1.63
  C 13.03 1.67 9.62 1.20 6.03 0.82
  Q 3.58 0.57 1.63 1.50
  A 0.77 0.77 0.0 0 0 1.19 2.24
  Q 1.40 6.23 1.90 10.24
  Q 2.33 13.69 2.32 18.27
  Q 2.18 66.14 2.28 114.00
  Q 2.29 118.14 4.71 121.68
  Z"
/>
<path fill="#ffffff" d="
  M 121.27 2.94
  Q 122.09 3.88 121.43 4.98
  C 118.69 9.59 114.79 12.13 110.83 15.33
  C 108.08 17.55 104.55 16.36 101.41 16.32
  Q 63.42 15.86 18.74 16.32
  A 1.72 1.71 -87.1 0 0 17.06 17.85
  C 16.55 22.45 16.95 27.22 16.93 31.83
  Q 16.73 63.99 16.96 99.24
  Q 16.98 102.54 17.18 105.94
  C 17.37 109.06 16.16 110.08 14.07 111.96
  Q 13.01 112.92 12.04 114.39
  Q 9.02 118.97 4.71 121.68
  Q 2.29 118.14 2.28 114.00
  Q 2.18 66.14 2.32 18.27
  Q 2.33 13.69 1.90 10.24
  Q 1.40 6.23 1.19 2.24
  A 0.77 0.77 0.0 0 1 1.63 1.50
  Q 3.58 0.57 6.03 0.82
  C 9.62 1.20 13.03 1.67 16.69 1.63
  C 26.18 1.54 36.00 1.31 45.44 1.36
  Q 87.96 1.59 115.25 1.49
  Q 118.73 1.48 121.27 2.94
  Z"
/>
<path fill="#dac3c4" d="
  M 121.27 2.94
  Q 122.00 2.63 122.37 3.54
  A 1.21 1.20 48.0 0 1 122.32 4.59
  L 118.88 10.87
  Q 118.67 11.25 118.64 11.68
  Q 118.59 12.43 118.02 13.01
  A 0.36 0.35 -35.2 0 0 117.95 13.39
  Q 118.52 14.73 117.40 15.72
  Q 115.98 16.98 114.75 18.58
  Q 113.74 19.89 113.51 22.89
  Q 112.57 35.28 113.86 47.41
  Q 114.99 77.43 114.06 107.75
  Q 113.99 109.81 113.53 111.50
  A 2.22 2.21 -85.3 0 1 111.63 113.12
  Q 110.20 113.26 108.85 112.90
  C 106.94 112.39 105.18 112.89 103.35 112.41
  Q 101.98 112.05 100.61 112.08
  Q 92.95 112.25 85.30 112.67
  Q 85.30 112.50 85.13 112.37
  Q 85.03 112.29 84.84 112.28
  Q 68.85 111.16 52.89 112.60
  L 21.34 112.53
  Q 21.81 112.20 21.81 112.17
  A 0.42 0.41 -24.7 0 0 21.17 111.94
  Q 17.47 114.49 14.81 117.77
  Q 14.48 118.18 13.94 118.16
  Q 13.36 118.13 12.91 118.44
  Q 10.83 119.85 8.86 120.90
  A 3.18 3.17 64.6 0 0 7.43 124.93
  Q 7.76 125.72 7.32 126.97
  Q 7.16 127.42 6.68 127.43
  L 5.03 127.47
  A 1.01 1.01 0.0 0 1 4.05 126.12
  Q 4.96 123.60 4.71 121.68
  Q 9.02 118.97 12.04 114.39
  Q 13.01 112.92 14.07 111.96
  C 16.16 110.08 17.37 109.06 17.18 105.94
  Q 16.98 102.54 16.96 99.24
  Q 16.73 63.99 16.93 31.83
  C 16.95 27.22 16.55 22.45 17.06 17.85
  A 1.72 1.71 -87.1 0 1 18.74 16.32
  Q 63.42 15.86 101.41 16.32
  C 104.55 16.36 108.08 17.55 110.83 15.33
  C 114.79 12.13 118.69 9.59 121.43 4.98
  Q 122.09 3.88 121.27 2.94
  Z
  M 49.07 56.96
  C 50.24 46.90 56.18 38.61 66.70 37.19
  Q 73.80 36.24 79.54 38.74
  Q 79.99 38.94 79.99 38.44
  L 80.00 30.72
  Q 80.00 30.10 79.39 29.97
  C 60.98 26.29 45.01 35.25 41.33 54.28
  Q 39.11 65.74 41.08 76.22
  Q 42.55 84.11 47.25 89.28
  C 52.61 95.19 61.72 97.06 69.34 95.12
  C 81.39 92.04 87.37 81.03 85.48 69.04
  C 84.29 61.50 79.00 55.69 71.75 53.98
  Q 59.92 51.20 49.78 57.41
  A 0.47 0.47 0.0 0 1 49.07 56.96
  Z"
/>
<path fill="#b1799b" d="
  M 21.34 112.53
  L 52.89 112.60
  L 85.30 112.67
  Q 92.95 112.25 100.61 112.08
  Q 101.98 112.05 103.35 112.41
  C 105.18 112.89 106.94 112.39 108.85 112.90
  Q 110.20 113.26 111.63 113.12
  A 2.22 2.21 -85.3 0 0 113.53 111.50
  Q 113.99 109.81 114.06 107.75
  Q 114.99 77.43 113.86 47.41
  Q 115.27 34.73 114.43 22.31
  A 3.18 3.18 0.0 0 1 115.45 19.76
  Q 118.52 16.96 120.79 13.30
  Q 121.24 12.58 121.54 11.77
  Q 122.09 10.29 123.85 9.48
  A 1.58 1.57 63.7 0 1 125.90 10.18
  Q 126.67 11.63 126.62 12.96
  Q 126.08 25.26 126.11 38.85
  Q 126.32 120.68 126.32 120.76
  C 126.42 122.33 126.64 124.11 126.54 125.45
  A 0.74 0.74 0.0 0 1 125.76 126.13
  Q 120.24 125.90 114.75 125.83
  Q 70.39 125.26 31.50 125.64
  Q 23.03 125.72 13.52 126.28
  Q 11.97 126.37 10.50 125.38
  Q 10.03 125.07 10.05 124.52
  Q 10.08 122.77 11.58 121.62
  Q 14.31 119.50 17.27 117.95
  Q 17.75 117.70 17.91 117.18
  Q 19.05 113.24 23.22 113.23
  Q 42.18 113.22 81.11 113.64
  A 0.08 0.07 90.0 0 0 81.18 113.56
  L 81.19 113.25
  Q 81.19 113.01 80.94 113.01
  L 21.26 112.87
  Q 21.16 112.87 21.22 112.79
  Q 21.30 112.67 21.34 112.53
  Z"
/>
<path fill="#a7ffff" d="
  M 49.07 56.96
  A 0.47 0.47 0.0 0 0 49.78 57.41
  Q 59.92 51.20 71.75 53.98
  C 79.00 55.69 84.29 61.50 85.48 69.04
  C 87.37 81.03 81.39 92.04 69.34 95.12
  C 61.72 97.06 52.61 95.19 47.25 89.28
  Q 42.55 84.11 41.08 76.22
  Q 39.11 65.74 41.33 54.28
  C 45.01 35.25 60.98 26.29 79.39 29.97
  Q 80.00 30.10 80.00 30.72
  L 79.99 38.44
  Q 79.99 38.94 79.54 38.74
  Q 73.80 36.24 66.70 37.19
  C 56.18 38.61 50.24 46.90 49.07 56.96
  Z
  M 59.31 88.46
  C 67.44 90.50 74.95 87.28 76.62 78.63
  C 78.19 70.55 76.46 62.00 67.05 60.31
  Q 58.25 58.73 49.60 63.16
  Q 49.13 63.40 49.10 63.92
  Q 48.64 70.70 49.41 75.78
  C 50.19 81.01 54.02 87.13 59.31 88.46
  Z"
/>
<path fill="#dac3c4" d="
  M 76.62 78.63
  C 74.95 87.28 67.44 90.50 59.31 88.46
  C 54.02 87.13 50.19 81.01 49.41 75.78
  Q 48.64 70.70 49.10 63.92
  Q 49.13 63.40 49.60 63.16
  Q 58.25 58.73 67.05 60.31
  C 76.46 62.00 78.19 70.55 76.62 78.63
  Z"
/>
<path fill="#d1b4bc" d="
  M 85.30 112.67
  L 52.89 112.60
  Q 68.85 111.16 84.84 112.28
  Q 85.03 112.29 85.13 112.37
  Q 85.30 112.50 85.30 112.67
  Z"
/>
</svg>
