<?xml version="1.0" encoding="UTF-8" standalone="no"?>
<!DOCTYPE svg PUBLIC "-//W3C//DTD SVG 1.1//EN" "http://www.w3.org/Graphics/SVG/1.1/DTD/svg11.dtd">
<svg xmlns="http://www.w3.org/2000/svg" version="1.1" viewBox="0.00 0.00 128.00 128.00">
<g stroke-width="2.00" fill="none" stroke-linecap="butt">
<path stroke="#d6bcc0" vector-effect="non-scaling-stroke" d="
  M 4.69 121.65
  Q 4.98 123.61 4.15 125.82
  Q 3.74 126.91 4.84 127.27
  Q 6.34 127.76 7.12 126.98
  Q 7.49 126.61 7.38 126.11
  Q 6.90 123.88 7.63 121.80
  Q 7.81 121.27 8.29 121.00
  Q 10.48 119.79 12.70 118.55
  Q 15.27 117.11 16.94 115.42
  Q 19.19 113.14 22.06 112.09
  Q 22.94 111.77 24.00 111.79
  Q 30.65 111.92 37.75 112.14
  Q 40.70 112.24 43.58 113.11"
/>
<path stroke="#c197ac" vector-effect="non-scaling-stroke" d="
  M 43.58 113.11
  L 21.95 112.61
  A 1.43 1.41 21.2 0 0 20.87 113.08
  L 16.14 118.31
  Q 15.82 118.67 15.38 118.87
  Q 11.86 120.52 9.58 123.51
  A 1.36 1.35 -65.0 0 0 10.36 125.66
  C 11.73 125.96 12.75 126.27 14.19 126.22
  Q 48.47 124.94 82.56 125.56
  C 97.00 125.83 111.52 125.55 125.70 126.13
  A 0.87 0.86 -1.2 0 0 126.60 125.20
  Q 126.38 122.53 126.37 120.02
  Q 126.21 78.57 126.11 38.86
  Q 126.08 28.39 126.60 13.01
  Q 126.65 11.54 125.82 10.06
  Q 125.48 9.44 124.80 9.66
  Q 124.15 9.88 123.49 10.00
  Q 122.49 10.19 121.77 11.62
  Q 119.44 16.26 114.77 20.09"
/>
<path stroke="#d6bcc0" vector-effect="non-scaling-stroke" d="
  M 114.77 20.09
  Q 115.19 18.33 116.12 17.38
  Q 117.59 15.88 117.95 14.37
  Q 118.38 12.52 119.11 11.21
  Q 120.24 9.17 121.39 7.18
  Q 121.61 6.79 122.01 6.60
  Q 123.48 5.88 125.16 6.18
  Q 125.88 6.31 126.39 5.80
  Q 126.99 5.21 127.33 4.48
  Q 127.65 3.79 126.93 3.54
  Q 125.29 2.96 123.51 3.12
  Q 123.02 3.17 122.56 2.97
  Q 121.54 2.53 120.53 2.49"
/>
<path stroke="#e8dade" vector-effect="non-scaling-stroke" d="
  M 120.53 2.49
  Q 118.46 1.58 116.75 1.57
  Q 77.89 1.31 16.18 1.60
  Q 13.69 1.61 11.37 1.39
  C 8.32 1.11 4.57 0.21 1.73 1.40
  A 0.88 0.87 -13.0 0 0 1.19 2.25
  Q 1.40 6.18 1.91 10.25
  Q 2.33 13.68 2.32 18.27
  Q 2.18 66.14 2.28 114.00
  Q 2.29 118.15 4.69 121.65"
/>
<path stroke="#ede1e2" vector-effect="non-scaling-stroke" d="
  M 120.53 2.49
  Q 122.66 3.74 120.98 5.77
  Q 120.29 6.59 119.70 7.46
  Q 119.08 8.36 118.29 9.03
  Q 114.48 12.26 110.85 15.37
  Q 109.28 16.71 107.67 16.63
  Q 92.99 15.89 78.99 16.18
  Q 65.04 16.47 58.99 16.42
  Q 39.55 16.24 18.80 16.23
  Q 17.28 16.22 17.06 17.72
  Q 16.81 19.51 16.81 21.24
  Q 16.89 61.18 16.93 99.51
  C 16.94 102.66 18.25 108.46 15.49 110.72
  C 14.08 111.87 13.01 112.82 11.98 114.47
  Q 9.07 119.10 4.69 121.65"
/>
<path stroke="#c69fb0" vector-effect="non-scaling-stroke" d="
  M 114.77 20.09
  Q 113.96 28.42 114.57 37.50
  Q 114.80 40.76 114.50 43.53
  Q 114.14 46.85 114.15 49.58
  Q 114.27 74.31 114.26 98.89
  Q 114.25 104.40 113.84 110.62
  A 2.80 2.79 -86.5 0 1 110.89 113.23
  Q 106.22 112.96 101.51 113.12
  Q 99.77 113.17 98.04 113.44
  Q 96.34 113.70 94.50 113.69
  Q 80.06 113.62 65.48 113.41
  Q 64.93 113.41 54.54 113.71
  Q 48.97 113.88 43.58 113.11"
/>
<path stroke="#c1e1e2" vector-effect="non-scaling-stroke" d="
  M 78.46 38.77
  L 47.74 94.04
  A 0.66 0.66 0.0 0 0 48.31 95.02
  L 54.76 95.02
  A 1.97 1.96 -75.6 0 0 56.48 94.00
  Q 70.23 68.70 84.29 42.75
  C 86.23 39.17 85.99 35.05 86.06 31.07
  A 1.08 1.08 0.0 0 0 84.98 29.98
  L 42.98 30.04
  Q 41.00 30.04 40.99 32.02
  L 40.96 36.30
  Q 40.95 37.90 42.55 37.91
  L 78.04 38.05
  Q 78.86 38.06 78.46 38.77"
/>
</g>
<path fill="#d1b4bc" d="
  M 0.00 0.00
  L 128.00 0.00
  L 128.00 128.00
  L 0.00 128.00
  L 0.00 0.00
  Z
  M 4.69 121.65
  Q 4.98 123.61 4.15 125.82
  Q 3.74 126.91 4.84 127.27
  Q 6.34 127.76 7.12 126.98
  Q 7.49 126.61 7.38 126.11
  Q 6.90 123.88 7.63 121.80
  Q 7.81 121.27 8.29 121.00
  Q 10.48 119.79 12.70 118.55
  Q 15.27 117.11 16.94 115.42
  Q 19.19 113.14 22.06 112.09
  Q 22.94 111.77 24.00 111.79
  Q 30.65 111.92 37.75 112.14
  Q 40.70 112.24 43.58 113.11
  L 21.95 112.61
  A 1.43 1.41 21.2 0 0 20.87 113.08
  L 16.14 118.31
  Q 15.82 118.67 15.38 118.87
  Q 11.86 120.52 9.58 123.51
  A 1.36 1.35 -65.0 0 0 10.36 125.66
  C 11.73 125.96 12.75 126.27 14.19 126.22
  Q 48.47 124.94 82.56 125.56
  C 97.00 125.83 111.52 125.55 125.70 126.13
  A 0.87 0.86 -1.2 0 0 126.60 125.20
  Q 126.38 122.53 126.37 120.02
  Q 126.21 78.57 126.11 38.86
  Q 126.08 28.39 126.60 13.01
  Q 126.65 11.54 125.82 10.06
  Q 125.48 9.44 124.80 9.66
  Q 124.15 9.88 123.49 10.00
  Q 122.49 10.19 121.77 11.62
  Q 119.44 16.26 114.77 20.09
  Q 115.19 18.33 116.12 17.38
  Q 117.59 15.88 117.95 14.37
  Q 118.38 12.52 119.11 11.21
  Q 120.24 9.17 121.39 7.18
  Q 121.61 6.79 122.01 6.60
  Q 123.48 5.88 125.16 6.18
  Q 125.88 6.31 126.39 5.80
  Q 126.99 5.21 127.33 4.48
  Q 127.65 3.79 126.93 3.54
  Q 125.29 2.96 123.51 3.12
  Q 123.02 3.17 122.56 2.97
  Q 121.54 2.53 120.53 2.49
  Q 118.46 1.58 116.75 1.57
  Q 77.89 1.31 16.18 1.60
  Q 13.69 1.61 11.37 1.39
  C 8.32 1.11 4.57 0.21 1.73 1.40
  A 0.88 0.87 -13.0 0 0 1.19 2.25
  Q 1.40 6.18 1.91 10.25
  Q 2.33 13.68 2.32 18.27
  Q 2.18 66.14 2.28 114.00
  Q 2.29 118.15 4.69 121.65
  Z"
/>
<path fill="#ffffff" d="
  M 120.53 2.49
  Q 122.66 3.74 120.98 5.77
  Q 120.29 6.59 119.70 7.46
  Q 119.08 8.36 118.29 9.03
  Q 114.48 12.26 110.85 15.37
  Q 109.28 16.71 107.67 16.63
  Q 92.99 15.89 78.99 16.18
  Q 65.04 16.47 58.99 16.42
  Q 39.55 16.24 18.80 16.23
  Q 17.28 16.22 17.06 17.72
  Q 16.81 19.51 16.81 21.24
  Q 16.89 61.18 16.93 99.51
  C 16.94 102.66 18.25 108.46 15.49 110.72
  C 14.08 111.87 13.01 112.82 11.98 114.47
  Q 9.07 119.10 4.69 121.65
  Q 2.29 118.15 2.28 114.00
  Q 2.18 66.14 2.32 18.27
  Q 2.33 13.68 1.91 10.25
  Q 1.40 6.18 1.19 2.25
  A 0.88 0.87 -13.0 0 1 1.73 1.40
  C 4.57 0.21 8.32 1.11 11.37 1.39
  Q 13.69 1.61 16.18 1.60
  Q 77.89 1.31 116.75 1.57
  Q 118.46 1.58 120.53 2.49
  Z"
/>
<path fill="#dac3c4" d="
  M 120.53 2.49
  Q 121.54 2.53 122.56 2.97
  Q 123.02 3.17 123.51 3.12
  Q 125.29 2.96 126.93 3.54
  Q 127.65 3.79 127.33 4.48
  Q 126.99 5.21 126.39 5.80
  Q 125.88 6.31 125.16 6.18
  Q 123.48 5.88 122.01 6.60
  Q 121.61 6.79 121.39 7.18
  Q 120.24 9.17 119.11 11.21
  Q 118.38 12.52 117.95 14.37
  Q 117.59 15.88 116.12 17.38
  Q 115.19 18.33 114.77 20.09
  Q 113.96 28.42 114.57 37.50
  Q 114.80 40.76 114.50 43.53
  Q 114.14 46.85 114.15 49.58
  Q 114.27 74.31 114.26 98.89
  Q 114.25 104.40 113.84 110.62
  A 2.80 2.79 -86.5 0 1 110.89 113.23
  Q 106.22 112.96 101.51 113.12
  Q 99.77 113.17 98.04 113.44
  Q 96.34 113.70 94.50 113.69
  Q 80.06 113.62 65.48 113.41
  Q 64.93 113.41 54.54 113.71
  Q 48.97 113.88 43.58 113.11
  Q 40.70 112.24 37.75 112.14
  Q 30.65 111.92 24.00 111.79
  Q 22.94 111.77 22.06 112.09
  Q 19.19 113.14 16.94 115.42
  Q 15.27 117.11 12.70 118.55
  Q 10.48 119.79 8.29 121.00
  Q 7.81 121.27 7.63 121.80
  Q 6.90 123.88 7.38 126.11
  Q 7.49 126.61 7.12 126.98
  Q 6.34 127.76 4.84 127.27
  Q 3.74 126.91 4.15 125.82
  Q 4.98 123.61 4.69 121.65
  Q 9.07 119.10 11.98 114.47
  C 13.01 112.82 14.08 111.87 15.49 110.72
  C 18.25 108.46 16.94 102.66 16.93 99.51
  Q 16.89 61.18 16.81 21.24
  Q 16.81 19.51 17.06 17.72
  Q 17.28 16.22 18.80 16.23
  Q 39.55 16.24 58.99 16.42
  Q 65.04 16.47 78.99 16.18
  Q 92.99 15.89 107.67 16.63
  Q 109.28 16.71 110.85 15.37
  Q 114.48 12.26 118.29 9.03
  Q 119.08 8.36 119.70 7.46
  Q 120.29 6.59 120.98 5.77
  Q 122.66 3.74 120.53 2.49
  Z
  M 78.46 38.77
  L 47.74 94.04
  A 0.66 0.66 0.0 0 0 48.31 95.02
  L 54.76 95.02
  A 1.97 1.96 -75.6 0 0 56.48 94.00
  Q 70.23 68.70 84.29 42.75
  C 86.23 39.17 85.99 35.05 86.06 31.07
  A 1.08 1.08 0.0 0 0 84.98 29.98
  L 42.98 30.04
  Q 41.00 30.04 40.99 32.02
  L 40.96 36.30
  Q 40.95 37.90 42.55 37.91
  L 78.04 38.05
  Q 78.86 38.06 78.46 38.77
  Z"
/>
<path fill="#b17a9c" d="
  M 43.58 113.11
  Q 48.97 113.88 54.54 113.71
  Q 64.93 113.41 65.48 113.41
  Q 80.06 113.62 94.50 113.69
  Q 96.34 113.70 98.04 113.44
  Q 99.77 113.17 101.51 113.12
  Q 106.22 112.96 110.89 113.23
  A 2.80 2.79 -86.5 0 0 113.84 110.62
  Q 114.25 104.40 114.26 98.89
  Q 114.27 74.31 114.15 49.58
  Q 114.14 46.85 114.50 43.53
  Q 114.80 40.76 114.57 37.50
  Q 113.96 28.42 114.77 20.09
  Q 119.44 16.26 121.77 11.62
  Q 122.49 10.19 123.49 10.00
  Q 124.15 9.88 124.80 9.66
  Q 125.48 9.44 125.82 10.06
  Q 126.65 11.54 126.60 13.01
  Q 126.08 28.39 126.11 38.86
  Q 126.21 78.57 126.37 120.02
  Q 126.38 122.53 126.60 125.20
  A 0.87 0.86 -1.2 0 1 125.70 126.13
  C 111.52 125.55 97.00 125.83 82.56 125.56
  Q 48.47 124.94 14.19 126.22
  C 12.75 126.27 11.73 125.96 10.36 125.66
  A 1.36 1.35 -65.0 0 1 9.58 123.51
  Q 11.86 120.52 15.38 118.87
  Q 15.82 118.67 16.14 118.31
  L 20.87 113.08
  A 1.43 1.41 21.2 0 1 21.95 112.61
  L 43.58 113.11
  Z"
/>
<path fill="#a7ffff" d="
  M 78.46 38.77
  Q 78.86 38.06 78.04 38.05
  L 42.55 37.91
  Q 40.95 37.90 40.96 36.30
  L 40.99 32.02
  Q 41.00 30.04 42.98 30.04
  L 84.98 29.98
  A 1.08 1.08 0.0 0 1 86.06 31.07
  C 85.99 35.05 86.23 39.17 84.29 42.75
  Q 70.23 68.70 56.48 94.00
  A 1.97 1.96 -75.6 0 1 54.76 95.02
  L 48.31 95.02
  A 0.66 0.66 0.0 0 1 47.74 94.04
  L 78.46 38.77
  Z"
/>
</svg>
