<?xml version="1.0" encoding="UTF-8" standalone="no"?>
<!DOCTYPE svg PUBLIC "-//W3C//DTD SVG 1.1//EN" "http://www.w3.org/Graphics/SVG/1.1/DTD/svg11.dtd">
<svg xmlns="http://www.w3.org/2000/svg" version="1.1" viewBox="0.00 0.00 128.00 128.00">
<g stroke-width="2.00" fill="none" stroke-linecap="butt">
<path stroke="#d6bcc0" vector-effect="non-scaling-stroke" d="
  M 4.55 121.42
  Q 5.03 122.93 4.07 126.25
  Q 3.71 127.50 5.01 127.48
  L 6.45 127.46
  Q 7.78 127.44 7.54 126.13
  Q 7.24 124.50 7.43 122.95
  A 3.17 3.17 0.0 0 1 8.47 120.98
  Q 10.01 119.62 12.06 119.00
  Q 12.38 118.90 12.57 118.61
  Q 12.66 118.48 12.75 118.34
  Q 12.98 117.97 13.36 117.77
  Q 15.79 116.50 16.85 115.49
  Q 18.56 113.85 20.34 112.55
  C 21.56 111.66 23.19 111.73 24.63 111.70
  Q 36.54 111.44 47.26 111.83
  Q 47.44 111.84 47.44 112.02
  L 47.44 112.27
  Q 47.44 112.35 47.36 112.35
  Q 34.81 112.41 21.96 112.37
  Q 21.78 112.37 21.78 112.37
  C 39.96 113.04 58.65 112.03 76.98 112.72
  Q 77.19 112.73 77.19 112.94
  L 77.19 112.95
  Q 77.18 113.12 77.01 113.12
  Q 49.27 113.13 21.52 113.10"
/>
<path stroke="#c197ac" vector-effect="non-scaling-stroke" d="
  M 21.52 113.10
  Q 17.39 117.76 12.24 121.21
  Q 11.00 122.04 10.39 123.17
  Q 9.34 125.15 11.45 125.89
  Q 12.54 126.27 13.50 126.22
  Q 24.91 125.63 32.50 125.57
  Q 69.41 125.31 113.75 125.80
  Q 119.85 125.87 125.77 126.14
  A 0.74 0.73 1.9 0 0 126.54 125.43
  C 126.61 123.60 126.30 121.88 126.30 120.07
  Q 126.20 79.47 126.14 38.64
  Q 126.13 26.71 126.50 12.99
  Q 126.54 11.52 126.03 10.43
  A 1.89 1.89 0.0 0 0 123.21 9.70
  L 121.84 10.70
  A 1.45 1.41 77.6 0 0 121.26 11.63
  Q 121.08 12.73 120.51 13.73
  Q 118.49 17.29 114.62 20.16"
/>
<path stroke="#d6bcc0" vector-effect="non-scaling-stroke" d="
  M 114.62 20.16
  Q 115.05 18.08 116.50 17.00
  Q 118.34 15.63 117.98 12.99
  Q 117.95 12.79 118.07 12.62
  Q 118.15 12.51 118.24 12.41
  Q 118.57 12.02 118.66 11.53
  Q 119.05 9.53 120.65 8.39
  Q 121.05 8.11 121.16 7.64
  Q 121.42 6.52 122.67 6.13
  Q 123.97 5.72 125.28 5.89
  Q 126.04 5.98 126.65 5.52
  Q 127.39 4.98 127.37 4.53
  A 1.50 1.50 0.0 0 0 125.70 3.10
  Q 123.01 3.40 120.51 2.44"
/>
<path stroke="#e8dade" vector-effect="non-scaling-stroke" d="
  M 120.51 2.44
  Q 118.23 1.54 115.25 1.53
  Q 47.15 1.30 18.51 1.56
  Q 11.89 1.62 6.96 0.93
  Q 4.73 0.62 2.17 1.15
  Q 1.53 1.28 1.38 1.91
  Q 1.07 3.22 1.27 4.72
  C 1.86 9.14 2.33 13.22 2.31 17.77
  Q 2.18 65.88 2.28 114.00
  Q 2.29 118.18 4.55 121.42"
/>
<path stroke="#ede1e2" vector-effect="non-scaling-stroke" d="
  M 120.51 2.44
  Q 122.45 3.60 121.44 5.15
  Q 119.86 7.57 118.66 8.72
  Q 114.97 12.24 110.85 15.38
  C 107.88 17.64 103.70 16.23 100.25 16.21
  Q 62.09 15.97 18.50 16.31
  A 1.45 1.44 2.4 0 0 17.07 17.62
  Q 16.78 20.81 16.79 24.39
  Q 16.88 58.45 16.88 97.95
  C 16.88 100.95 17.31 103.93 17.12 107.05
  Q 16.98 109.24 16.06 110.05
  Q 12.18 113.44 8.86 118.33
  Q 7.18 120.82 4.55 121.42"
/>
<path stroke="#c69eb0" vector-effect="non-scaling-stroke" d="
  M 114.62 20.16
  Q 113.97 31.03 114.55 42.75
  C 114.64 44.47 114.04 47.03 114.09 49.17
  Q 114.49 70.31 114.51 92.32
  C 114.51 97.54 114.10 102.73 114.08 107.99
  C 114.07 110.07 113.77 113.39 110.97 113.39
  Q 106.80 113.38 102.30 113.37
  A 2.44 2.36 -56.4 0 0 101.30 113.59
  Q 100.70 113.86 100.01 113.87
  Q 93.73 113.99 87.49 113.74
  Q 81.29 113.48 75.00 113.43
  Q 48.78 113.21 21.52 113.10"
/>
<path stroke="#c1e1e2" vector-effect="non-scaling-stroke" d="
  M 51.23 60.65
  C 33.51 68.13 36.06 89.95 54.08 94.75
  C 65.45 97.78 81.20 94.48 84.92 81.98
  C 87.94 71.83 82.88 64.82 73.53 60.98
  A 0.50 0.49 -46.0 0 1 73.52 60.07
  C 80.64 56.81 85.50 49.13 83.29 41.47
  C 78.38 24.51 45.41 25.06 41.53 42.71
  Q 39.64 51.31 47.04 57.19
  C 48.33 58.22 49.93 58.91 51.31 59.83
  Q 52.04 60.31 51.23 60.65"
/>
<path stroke="#c1e1e2" vector-effect="non-scaling-stroke" d="
  M 76.09 45.07
  C 75.96 35.23 64.03 33.66 57.10 35.76
  Q 50.92 37.63 50.07 43.15
  Q 49.15 49.11 54.07 52.49
  Q 58.90 55.80 67.24 58.31
  Q 67.73 58.46 68.19 58.21
  Q 76.20 53.77 76.09 45.07"
/>
<path stroke="#c1e1e2" vector-effect="non-scaling-stroke" d="
  M 60.37 88.95
  C 70.06 89.93 78.77 85.41 76.76 74.08
  C 75.56 67.25 63.15 64.20 57.60 62.33
  Q 56.93 62.11 56.32 62.47
  Q 49.25 66.64 48.16 73.24
  C 46.75 81.76 52.11 88.11 60.37 88.95"
/>
</g>
<path fill="#d1b4bc" d="
  M 0.00 0.00
  L 128.00 0.00
  L 128.00 128.00
  L 0.00 128.00
  L 0.00 0.00
  Z
  M 4.55 121.42
  Q 5.03 122.93 4.07 126.25
  Q 3.71 127.50 5.01 127.48
  L 6.45 127.46
  Q 7.78 127.44 7.54 126.13
  Q 7.24 124.50 7.43 122.95
  A 3.17 3.17 0.0 0 1 8.47 120.98
  Q 10.01 119.62 12.06 119.00
  Q 12.38 118.90 12.57 118.61
  Q 12.66 118.48 12.75 118.34
  Q 12.98 117.97 13.36 117.77
  Q 15.79 116.50 16.85 115.49
  Q 18.56 113.85 20.34 112.55
  C 21.56 111.66 23.19 111.73 24.63 111.70
  Q 36.54 111.44 47.26 111.83
  Q 47.44 111.84 47.44 112.02
  L 47.44 112.27
  Q 47.44 112.35 47.36 112.35
  Q 34.81 112.41 21.96 112.37
  Q 21.78 112.37 21.78 112.37
  C 39.96 113.04 58.65 112.03 76.98 112.72
  Q 77.19 112.73 77.19 112.94
  L 77.19 112.95
  Q 77.18 113.12 77.01 113.12
  Q 49.27 113.13 21.52 113.10
  Q 17.39 117.76 12.24 121.21
  Q 11.00 122.04 10.39 123.17
  Q 9.34 125.15 11.45 125.89
  Q 12.54 126.27 13.50 126.22
  Q 24.91 125.63 32.50 125.57
  Q 69.41 125.31 113.75 125.80
  Q 119.85 125.87 125.77 126.14
  A 0.74 0.73 1.9 0 0 126.54 125.43
  C 126.61 123.60 126.30 121.88 126.30 120.07
  Q 126.20 79.47 126.14 38.64
  Q 126.13 26.71 126.50 12.99
  Q 126.54 11.52 126.03 10.43
  A 1.89 1.89 0.0 0 0 123.21 9.70
  L 121.84 10.70
  A 1.45 1.41 77.6 0 0 121.26 11.63
  Q 121.08 12.73 120.51 13.73
  Q 118.49 17.29 114.62 20.16
  Q 115.05 18.08 116.50 17.00
  Q 118.34 15.63 117.98 12.99
  Q 117.95 12.79 118.07 12.62
  Q 118.15 12.51 118.24 12.41
  Q 118.57 12.02 118.66 11.53
  Q 119.05 9.53 120.65 8.39
  Q 121.05 8.11 121.16 7.64
  Q 121.42 6.52 122.67 6.13
  Q 123.97 5.72 125.28 5.89
  Q 126.04 5.98 126.65 5.52
  Q 127.39 4.98 127.37 4.53
  A 1.50 1.50 0.0 0 0 125.70 3.10
  Q 123.01 3.40 120.51 2.44
  Q 118.23 1.54 115.25 1.53
  Q 47.15 1.30 18.51 1.56
  Q 11.89 1.62 6.96 0.93
  Q 4.73 0.62 2.17 1.15
  Q 1.53 1.28 1.38 1.91
  Q 1.07 3.22 1.27 4.72
  C 1.86 9.14 2.33 13.22 2.31 17.77
  Q 2.18 65.88 2.28 114.00
  Q 2.29 118.18 4.55 121.42
  Z"
/>
<path fill="#ffffff" d="
  M 120.51 2.44
  Q 122.45 3.60 121.44 5.15
  Q 119.86 7.57 118.66 8.72
  Q 114.97 12.24 110.85 15.38
  C 107.88 17.64 103.70 16.23 100.25 16.21
  Q 62.09 15.97 18.50 16.31
  A 1.45 1.44 2.4 0 0 17.07 17.62
  Q 16.78 20.81 16.79 24.39
  Q 16.88 58.45 16.88 97.95
  C 16.88 100.95 17.31 103.93 17.12 107.05
  Q 16.98 109.24 16.06 110.05
  Q 12.18 113.44 8.86 118.33
  Q 7.18 120.82 4.55 121.42
  Q 2.29 118.18 2.28 114.00
  Q 2.18 65.88 2.31 17.77
  C 2.33 13.22 1.86 9.14 1.27 4.72
  Q 1.07 3.22 1.38 1.91
  Q 1.53 1.28 2.17 1.15
  Q 4.73 0.62 6.96 0.93
  Q 11.89 1.62 18.51 1.56
  Q 47.15 1.30 115.25 1.53
  Q 118.23 1.54 120.51 2.44
  Z"
/>
<path fill="#dac3c4" d="
  M 120.51 2.44
  Q 123.01 3.40 125.70 3.10
  A 1.50 1.50 0.0 0 1 127.37 4.53
  Q 127.39 4.98 126.65 5.52
  Q 126.04 5.98 125.28 5.89
  Q 123.97 5.72 122.67 6.13
  Q 121.42 6.52 121.16 7.64
  Q 121.05 8.11 120.65 8.39
  Q 119.05 9.53 118.66 11.53
  Q 118.57 12.02 118.24 12.41
  Q 118.15 12.51 118.07 12.62
  Q 117.95 12.79 117.98 12.99
  Q 118.34 15.63 116.50 17.00
  Q 115.05 18.08 114.62 20.16
  Q 113.97 31.03 114.55 42.75
  C 114.64 44.47 114.04 47.03 114.09 49.17
  Q 114.49 70.31 114.51 92.32
  C 114.51 97.54 114.10 102.73 114.08 107.99
  C 114.07 110.07 113.77 113.39 110.97 113.39
  Q 106.80 113.38 102.30 113.37
  A 2.44 2.36 -56.4 0 0 101.30 113.59
  Q 100.70 113.86 100.01 113.87
  Q 93.73 113.99 87.49 113.74
  Q 81.29 113.48 75.00 113.43
  Q 48.78 113.21 21.52 113.10
  Q 49.27 113.13 77.01 113.12
  Q 77.18 113.12 77.19 112.95
  L 77.19 112.94
  Q 77.19 112.73 76.98 112.72
  C 58.65 112.03 39.96 113.04 21.78 112.37
  Q 21.78 112.37 21.96 112.37
  Q 34.81 112.41 47.36 112.35
  Q 47.44 112.35 47.44 112.27
  L 47.44 112.02
  Q 47.44 111.84 47.26 111.83
  Q 36.54 111.44 24.63 111.70
  C 23.19 111.73 21.56 111.66 20.34 112.55
  Q 18.56 113.85 16.85 115.49
  Q 15.79 116.50 13.36 117.77
  Q 12.98 117.97 12.75 118.34
  Q 12.66 118.48 12.57 118.61
  Q 12.38 118.90 12.06 119.00
  Q 10.01 119.62 8.47 120.98
  A 3.17 3.17 0.0 0 0 7.43 122.95
  Q 7.24 124.50 7.54 126.13
  Q 7.78 127.44 6.45 127.46
  L 5.01 127.48
  Q 3.71 127.50 4.07 126.25
  Q 5.03 122.93 4.55 121.42
  Q 7.18 120.82 8.86 118.33
  Q 12.18 113.44 16.06 110.05
  Q 16.98 109.24 17.12 107.05
  C 17.31 103.93 16.88 100.95 16.88 97.95
  Q 16.88 58.45 16.79 24.39
  Q 16.78 20.81 17.07 17.62
  A 1.45 1.44 2.4 0 1 18.50 16.31
  Q 62.09 15.97 100.25 16.21
  C 103.70 16.23 107.88 17.64 110.85 15.38
  Q 114.97 12.24 118.66 8.72
  Q 119.86 7.57 121.44 5.15
  Q 122.45 3.60 120.51 2.44
  Z
  M 51.23 60.65
  C 33.51 68.13 36.06 89.95 54.08 94.75
  C 65.45 97.78 81.20 94.48 84.92 81.98
  C 87.94 71.83 82.88 64.82 73.53 60.98
  A 0.50 0.49 -46.0 0 1 73.52 60.07
  C 80.64 56.81 85.50 49.13 83.29 41.47
  C 78.38 24.51 45.41 25.06 41.53 42.71
  Q 39.64 51.31 47.04 57.19
  C 48.33 58.22 49.93 58.91 51.31 59.83
  Q 52.04 60.31 51.23 60.65
  Z"
/>
<path fill="#b1799b" d="
  M 21.52 113.10
  Q 48.78 113.21 75.00 113.43
  Q 81.29 113.48 87.49 113.74
  Q 93.73 113.99 100.01 113.87
  Q 100.70 113.86 101.30 113.59
  A 2.44 2.36 -56.4 0 1 102.30 113.37
  Q 106.80 113.38 110.97 113.39
  C 113.77 113.39 114.07 110.07 114.08 107.99
  C 114.10 102.73 114.51 97.54 114.51 92.32
  Q 114.49 70.31 114.09 49.17
  C 114.04 47.03 114.64 44.47 114.55 42.75
  Q 113.97 31.03 114.62 20.16
  Q 118.49 17.29 120.51 13.73
  Q 121.08 12.73 121.26 11.63
  A 1.45 1.41 77.6 0 1 121.84 10.70
  L 123.21 9.70
  A 1.89 1.89 0.0 0 1 126.03 10.43
  Q 126.54 11.52 126.50 12.99
  Q 126.13 26.71 126.14 38.64
  Q 126.20 79.47 126.30 120.07
  C 126.30 121.88 126.61 123.60 126.54 125.43
  A 0.74 0.73 1.9 0 1 125.77 126.14
  Q 119.85 125.87 113.75 125.80
  Q 69.41 125.31 32.50 125.57
  Q 24.91 125.63 13.50 126.22
  Q 12.54 126.27 11.45 125.89
  Q 9.34 125.15 10.39 123.17
  Q 11.00 122.04 12.24 121.21
  Q 17.39 117.76 21.52 113.10
  Z"
/>
<path fill="#a7ffff" d="
  M 51.31 59.83
  C 49.93 58.91 48.33 58.22 47.04 57.19
  Q 39.64 51.31 41.53 42.71
  C 45.41 25.06 78.38 24.51 83.29 41.47
  C 85.50 49.13 80.64 56.81 73.52 60.07
  A 0.50 0.49 -46.0 0 0 73.53 60.98
  C 82.88 64.82 87.94 71.83 84.92 81.98
  C 81.20 94.48 65.45 97.78 54.08 94.75
  C 36.06 89.95 33.51 68.13 51.23 60.65
  Q 52.04 60.31 51.31 59.83
  Z
  M 76.09 45.07
  C 75.96 35.23 64.03 33.66 57.10 35.76
  Q 50.92 37.63 50.07 43.15
  Q 49.15 49.11 54.07 52.49
  Q 58.90 55.80 67.24 58.31
  Q 67.73 58.46 68.19 58.21
  Q 76.20 53.77 76.09 45.07
  Z
  M 60.37 88.95
  C 70.06 89.93 78.77 85.41 76.76 74.08
  C 75.56 67.25 63.15 64.20 57.60 62.33
  Q 56.93 62.11 56.32 62.47
  Q 49.25 66.64 48.16 73.24
  C 46.75 81.76 52.11 88.11 60.37 88.95
  Z"
/>
<path fill="#dac3c4" d="
  M 57.10 35.76
  C 64.03 33.66 75.96 35.23 76.09 45.07
  Q 76.20 53.77 68.19 58.21
  Q 67.73 58.46 67.24 58.31
  Q 58.90 55.80 54.07 52.49
  Q 49.15 49.11 50.07 43.15
  Q 50.92 37.63 57.10 35.76
  Z"
/>
<path fill="#dac3c4" d="
  M 76.76 74.08
  C 78.77 85.41 70.06 89.93 60.37 88.95
  C 52.11 88.11 46.75 81.76 48.16 73.24
  Q 49.25 66.64 56.32 62.47
  Q 56.93 62.11 57.60 62.33
  C 63.15 64.20 75.56 67.25 76.76 74.08
  Z"
/>
</svg>
