<?xml version="1.0" encoding="UTF-8" standalone="no"?>
<!DOCTYPE svg PUBLIC "-//W3C//DTD SVG 1.1//EN" "http://www.w3.org/Graphics/SVG/1.1/DTD/svg11.dtd">
<svg xmlns="http://www.w3.org/2000/svg" version="1.1" viewBox="0.00 0.00 128.00 128.00">
<g stroke-width="2.00" fill="none" stroke-linecap="butt">
<path stroke="#574957" vector-effect="non-scaling-stroke" d="
  M 60.88 0.00
  L 59.48 1.12"
/>
<path stroke="#caa8c7" vector-effect="non-scaling-stroke" d="
  M 59.48 1.12
  L 58.90 0.67
  A 1.12 1.08 -28.5 0 0 58.07 0.44
  C 54.75 0.88 51.81 1.25 48.27 1.15
  Q 42.90 0.98 37.49 1.49"
/>
<path stroke="#d5b3d1" vector-effect="non-scaling-stroke" d="
  M 37.49 1.49
  L 1.51 0.90
  A 0.73 0.73 0.0 0 0 0.78 1.71
  L 2.27 15.90"
/>
<path stroke="#caa8c7" vector-effect="non-scaling-stroke" d="
  M 2.27 15.90
  L 1.42 36.68
  Q 1.41 36.95 1.27 37.17
  Q 1.17 37.33 1.16 37.50
  Q 1.08 47.13 1.16 56.75
  Q 1.17 57.49 1.79 58.54"
/>
<path stroke="#574957" vector-effect="non-scaling-stroke" d="
  M 1.79 58.54
  L 0.00 61.24"
/>
<path stroke="#574957" vector-effect="non-scaling-stroke" d="
  M 67.47 0.00
  L 70.30 1.82"
/>
<path stroke="#7f6b7b" vector-effect="non-scaling-stroke" d="
  M 70.30 1.82
  C 70.73 3.24 71.23 4.35 71.26 5.78
  Q 71.33 8.55 71.23 11.25
  Q 71.21 11.85 71.81 11.86
  L 72.80 11.88
  Q 73.35 11.89 73.49 12.42
  L 74.22 15.26"
/>
<path stroke="#746171" vector-effect="non-scaling-stroke" d="
  M 74.22 15.26
  L 83.47 18.35"
/>
<path stroke="#574957" vector-effect="non-scaling-stroke" d="
  M 83.47 18.35
  L 92.88 23.43
  Q 93.38 23.70 93.89 23.44
  Q 94.80 22.96 95.80 22.56
  Q 96.81 22.16 97.30 23.12
  A 0.75 0.74 -34.6 0 0 98.47 23.33
  Q 100.86 21.13 103.23 18.84
  C 105.00 17.13 108.10 17.61 109.55 19.64
  Q 110.73 21.30 112.26 22.66
  A 4.34 4.34 0.0 0 1 112.44 28.99
  L 107.81 33.58
  A 0.68 0.68 0.0 0 0 108.13 34.72
  Q 108.90 34.91 108.89 35.64
  Q 108.88 36.07 108.56 36.39
  C 106.53 38.41 108.39 39.47 109.27 41.17
  Q 111.88 46.20 113.34 51.27
  Q 113.49 51.77 113.98 51.96
  L 115.50 52.54"
/>
<path stroke="#3c333d" vector-effect="non-scaling-stroke" d="
  M 115.50 52.54
  Q 116.19 52.97 116.85 54.71
  A 0.51 0.51 0.0 0 0 117.34 55.04
  Q 120.06 54.98 122.86 55.00
  C 125.12 55.01 126.30 56.01 127.43 57.78"
/>
<path stroke="#574957" vector-effect="non-scaling-stroke" d="
  M 127.43 57.78
  L 128.00 59.04"
/>
<path stroke="#574957" vector-effect="non-scaling-stroke" d="
  M 128.00 65.28
  L 127.24 66.99"
/>
<path stroke="#3c333d" vector-effect="non-scaling-stroke" d="
  M 127.24 66.99
  C 124.59 69.92 120.51 69.03 117.16 69.00
  Q 116.54 68.99 116.52 69.60
  L 116.47 70.51
  Q 116.45 71.06 115.97 71.33
  Q 115.07 71.85 114.63 72.66"
/>
<path stroke="#574957" vector-effect="non-scaling-stroke" d="
  M 114.63 72.66
  C 113.56 75.91 112.81 79.19 111.54 82.34
  Q 110.11 85.86 108.14 88.88
  Q 107.72 89.52 108.32 89.98
  Q 109.16 90.63 109.56 91.62
  Q 109.78 92.16 109.32 92.52
  Q 107.69 93.82 109.32 95.21
  Q 111.87 97.40 113.67 99.73
  Q 115.24 101.76 113.62 103.91
  Q 112.57 105.29 111.93 106.32"
/>
<path stroke="#574957" vector-effect="non-scaling-stroke" d="
  M 111.93 106.32
  C 109.25 108.22 107.23 111.94 103.60 108.81
  Q 101.26 106.78 99.21 104.47
  Q 98.69 103.88 98.02 104.30
  L 96.99 104.94
  A 1.20 1.20 0.0 0 1 95.49 104.77
  L 95.05 104.33
  Q 94.55 103.82 93.96 104.22
  Q 88.46 107.96 81.44 110.81"
/>
<path stroke="#574957" vector-effect="non-scaling-stroke" d="
  M 81.44 110.81
  Q 79.94 111.19 77.92 112.01
  C 76.52 112.58 76.45 113.45 76.05 114.79"
/>
<path stroke="#3c333d" vector-effect="non-scaling-stroke" d="
  M 76.05 114.79
  Q 73.12 116.78 73.42 122.53
  C 73.50 124.04 73.12 124.90 72.64 126.30"
/>
<path stroke="#574957" vector-effect="non-scaling-stroke" d="
  M 72.64 126.30
  L 69.74 128.00"
/>
<path stroke="#574957" vector-effect="non-scaling-stroke" d="
  M 63.45 128.00
  L 60.71 126.37"
/>
<path stroke="#3c333d" vector-effect="non-scaling-stroke" d="
  M 60.71 126.37
  Q 59.25 122.82 59.43 117.55
  Q 59.45 117.04 58.99 116.80
  Q 57.07 115.81 56.69 113.64
  Q 56.60 113.15 56.13 112.96
  Q 55.55 112.72 54.87 112.98"
/>
<path stroke="#574957" vector-effect="non-scaling-stroke" d="
  M 54.87 112.98
  Q 44.94 110.71 36.61 105.75
  A 1.54 1.53 -56.5 0 0 34.57 106.17
  Q 33.46 107.70 32.20 106.37
  A 1.29 1.28 42.5 0 0 30.26 106.45
  Q 28.49 108.67 26.20 110.93
  Q 23.90 113.20 21.54 111.98"
/>
<path stroke="#574957" vector-effect="non-scaling-stroke" d="
  M 21.54 111.98
  L 17.87 108.50"
/>
<path stroke="#746171" vector-effect="non-scaling-stroke" d="
  M 17.87 108.50
  Q 15.90 106.85 15.27 104.82"
/>
<path stroke="#7f6b7b" vector-effect="non-scaling-stroke" d="
  M 15.27 104.82
  Q 15.21 102.34 17.22 100.71"
/>
<path stroke="#574957" vector-effect="non-scaling-stroke" d="
  M 17.22 100.71
  L 20.51 96.92
  Q 20.89 96.48 20.58 95.99
  L 19.95 94.97
  Q 19.57 94.34 19.92 93.70
  L 21.17 91.37
  Q 21.42 90.92 21.16 90.48
  L 18.29 85.44"
/>
<path stroke="#7f6b7b" vector-effect="non-scaling-stroke" d="
  M 18.29 85.44
  L 14.67 75.11
  Q 14.46 74.51 13.83 74.49
  Q 11.49 74.41 11.43 72.34
  Q 11.41 71.69 10.76 71.65
  L 2.54 71.15"
/>
<path stroke="#574957" vector-effect="non-scaling-stroke" d="
  M 2.54 71.15
  L 0.00 67.63"
/>
<path stroke="#746171" vector-effect="non-scaling-stroke" d="
  M 1.79 58.54
  Q 3.43 57.43 4.40 57.29"
/>
<path stroke="#7f6b7b" vector-effect="non-scaling-stroke" d="
  M 4.40 57.29
  L 10.91 57.24
  Q 11.40 57.23 11.39 56.75
  Q 11.34 54.78 14.56 53.87"
/>
<path stroke="#746171" vector-effect="non-scaling-stroke" d="
  M 14.56 53.87
  Q 16.69 44.72 20.98 38.15
  A 1.36 1.36 0.0 0 0 20.85 36.51
  Q 20.21 35.80 19.93 34.86
  A 1.09 1.08 60.6 0 1 20.24 33.74
  Q 20.66 33.35 20.63 32.77
  Q 20.61 32.21 19.90 31.53
  C 16.82 28.61 13.05 25.26 16.37 21.40
  C 18.89 18.48 22.11 14.57 25.55 17.56"
/>
<path stroke="#574957" vector-effect="non-scaling-stroke" d="
  M 25.55 17.56
  L 30.32 22.37
  A 0.63 0.63 0.0 0 0 31.25 22.32
  Q 31.75 21.70 32.45 21.40
  Q 32.94 21.20 33.34 21.55
  L 34.91 22.93
  Q 35.31 23.29 35.80 23.06
  L 40.70 20.66"
/>
<path stroke="#1b3031" vector-effect="non-scaling-stroke" d="
  M 40.70 20.66
  Q 41.16 20.87 41.05 21.17"
/>
<path stroke="#213c3c" vector-effect="non-scaling-stroke" d="
  M 41.05 21.17
  C 38.35 22.43 35.72 23.64 33.44 25.51
  Q 24.43 32.92 20.74 43.96"
/>
<path stroke="#1b3031" vector-effect="non-scaling-stroke" d="
  M 20.74 43.96
  Q 16.29 56.11 19.91 68.19"
/>
<path stroke="#132223" vector-effect="non-scaling-stroke" d="
  M 19.91 68.19
  Q 22.26 77.75 29.06 84.99"
/>
<path stroke="#0a1212" vector-effect="non-scaling-stroke" d="
  M 29.06 84.99
  Q 40.19 97.88 57.53 97.85
  Q 57.61 97.85 57.67 97.80
  Q 57.79 97.72 57.91 97.66
  Q 58.24 97.47 58.63 97.45
  Q 61.19 97.27 63.84 96.89
  Q 71.18 95.84 76.68 92.69"
/>
<path stroke="#060b12" vector-effect="non-scaling-stroke" d="
  M 76.68 92.69
  Q 77.63 92.25 78.16 91.83
  C 79.19 90.99 80.16 91.07 81.18 90.26
  Q 82.33 89.36 83.55 88.73
  C 85.44 87.76 86.05 85.92 88.00 85.09
  A 1.43 1.40 88.7 0 0 88.76 84.28
  Q 89.42 82.40 91.19 81.10
  Q 91.73 80.71 91.93 80.07
  Q 92.43 78.49 93.79 77.65
  Q 94.24 77.38 94.14 76.87
  Q 94.02 76.24 94.50 75.86
  Q 94.89 75.56 95.12 75.13
  C 95.99 73.57 96.12 71.86 97.03 70.34
  Q 98.32 68.17 98.34 65.34
  Q 98.34 65.03 98.50 64.75
  Q 98.66 64.47 98.86 64.22
  Q 99.23 63.78 99.25 63.20
  C 99.31 61.48 100.32 60.30 100.40 58.61
  Q 100.52 56.02 101.08 53.55
  Q 101.61 51.19 100.88 49.05
  Q 100.42 47.73 100.38 46.26
  Q 100.18 39.54 96.64 32.99
  Q 95.97 31.75 93.23 29.00"
/>
<path stroke="#0a1212" vector-effect="non-scaling-stroke" d="
  M 93.23 29.00
  L 89.51 25.46"
/>
<path stroke="#132223" vector-effect="non-scaling-stroke" d="
  M 89.51 25.46
  Q 83.68 20.48 75.42 17.62"
/>
<path stroke="#1b3031" vector-effect="non-scaling-stroke" d="
  M 75.42 17.62
  Q 66.00 14.42 54.24 15.49"
/>
<path stroke="#746171" vector-effect="non-scaling-stroke" d="
  M 54.24 15.49
  Q 54.72 13.75 54.45 13.36"
/>
<path stroke="#7f6b7b" vector-effect="non-scaling-stroke" d="
  M 54.45 13.36
  Q 55.09 11.89 56.75 11.73
  Q 57.23 11.68 57.24 11.19
  L 57.41 3.22"
/>
<path stroke="#746171" vector-effect="non-scaling-stroke" d="
  M 57.41 3.22
  Q 58.24 2.03 59.48 1.12"
/>
<path stroke="#1e3a5d" vector-effect="non-scaling-stroke" d="
  M 63.3980 12.9199
  A 4.21 2.65 90.3 0 0 66.0700 8.7239
  A 4.21 2.65 90.3 0 0 63.4420 4.5001
  A 4.21 2.65 90.3 0 0 60.7700 8.6961
  A 4.21 2.65 90.3 0 0 63.3980 12.9199"
/>
<path stroke="#0f2033" vector-effect="non-scaling-stroke" d="
  M 28.78 24.95
  A 2.38 2.38 0.0 0 0 26.40 22.57
  A 2.38 2.38 0.0 0 0 24.02 24.95
  A 2.38 2.38 0.0 0 0 26.40 27.33
  A 2.38 2.38 0.0 0 0 28.78 24.95"
/>
<path stroke="#0f2033" vector-effect="non-scaling-stroke" d="
  M 105.9733 24.0184
  A 2.28 2.12 -26.9 0 0 102.9808 23.1594
  A 2.28 2.12 -26.9 0 0 101.9067 26.0816
  A 2.28 2.12 -26.9 0 0 104.8992 26.9406
  A 2.28 2.12 -26.9 0 0 105.9733 24.0184"
/>
<path stroke="#1e3a5d" vector-effect="non-scaling-stroke" d="
  M 13.06 64.53
  L 13.14 60.47
  A 0.88 0.88 0.0 0 0 12.28 59.57
  L 10.93 59.55
  A 4.13 2.79 1.1 0 0 6.74 62.26
  L 6.74 62.50
  A 4.13 2.79 1.1 0 0 10.81 65.37
  L 12.16 65.39
  A 0.88 0.88 0.0 0 0 13.06 64.53"
/>
<path stroke="#060b12" vector-effect="non-scaling-stroke" d="
  M 123.4695 62.0881
  A 3.94 2.61 -0.9 0 0 119.4890 59.5403
  A 3.94 2.61 -0.9 0 0 115.5905 62.2119
  A 3.94 2.61 -0.9 0 0 119.5710 64.7597
  A 3.94 2.61 -0.9 0 0 123.4695 62.0881"
/>
<path stroke="#060b12" vector-effect="non-scaling-stroke" d="
  M 67.3000 123.3700
  A 4.39 2.11 90.0 0 0 69.4100 118.9800
  A 4.39 2.11 90.0 0 0 67.3000 114.5900
  A 4.39 2.11 90.0 0 0 65.1900 118.9800
  A 4.39 2.11 90.0 0 0 67.3000 123.3700"
/>
<path stroke="#937a93" vector-effect="non-scaling-stroke" d="
  M 127.43 57.78
  Q 126.90 48.52 127.19 39.39
  Q 127.19 39.37 127.18 39.37
  Q 127.17 39.37 127.15 39.37
  Q 127.09 39.37 127.09 39.43
  Q 127.13 46.30 127.10 53.23
  Q 127.10 53.43 126.90 53.43
  L 126.89 53.43
  Q 126.70 53.44 126.69 53.24
  Q 126.46 45.51 126.81 37.61
  Q 126.92 34.91 126.62 32.41
  Q 126.30 29.71 126.36 27.19
  Q 126.36 27.15 126.36 27.09
  Q 126.34 27.00 126.32 27.09
  Q 126.30 27.14 126.30 27.19
  Q 126.11 30.91 126.30 35.20
  Q 126.70 44.22 126.42 54.23
  Q 126.42 54.32 126.33 54.32
  L 126.32 54.32
  Q 126.22 54.32 126.22 54.21
  Q 125.82 33.76 126.51 13.17
  Q 126.57 11.44 125.56 10.17
  A 0.89 0.88 -37.4 0 0 124.34 10.01
  Q 121.75 11.94 120.86 14.93
  A 1.82 1.80 80.0 0 1 120.21 15.87
  Q 116.55 18.62 115.39 22.19
  Q 114.86 23.81 115.44 25.83
  Q 115.91 27.46 115.90 29.10
  Q 115.85 40.92 115.89 52.06
  Q 115.89 52.25 115.74 52.38
  Q 115.61 52.50 115.50 52.54"
/>
<path stroke="#caa8c7" vector-effect="non-scaling-stroke" d="
  M 83.47 18.35
  L 101.97 18.53
  Q 102.51 18.54 102.93 18.20
  C 104.27 17.16 107.15 17.48 108.69 17.84
  Q 109.31 17.99 109.81 17.60
  Q 111.93 15.96 113.78 13.96
  Q 115.43 12.18 117.80 10.20
  Q 120.51 7.92 122.31 4.81"
/>
<path stroke="#caa8c7" vector-effect="non-scaling-stroke" d="
  M 122.31 4.81
  L 122.72 4.82
  Q 123.12 4.84 123.12 4.45
  L 123.12 3.52
  Q 123.12 2.95 122.56 2.90
  Q 122.23 2.87 121.91 2.95"
/>
<path stroke="#d5b3d1" vector-effect="non-scaling-stroke" d="
  M 121.91 2.95
  Q 118.06 0.89 115.24 1.10
  Q 106.00 1.77 92.00 1.52
  Q 86.23 1.42 70.30 1.82"
/>
<path stroke="#f2cbeb" vector-effect="non-scaling-stroke" d="
  M 57.41 3.22
  C 54.87 3.22 52.45 2.32 50.18 2.17
  Q 43.90 1.73 37.49 1.49"
/>
<path stroke="#f2cbeb" vector-effect="non-scaling-stroke" d="
  M 54.45 13.36
  Q 51.34 13.81 48.16 13.70
  Q 46.40 13.65 42.87 13.98
  Q 40.50 14.20 37.50 13.91
  Q 31.93 13.39 16.37 14.22
  A 1.12 1.11 13.1 0 0 15.45 14.79
  Q 14.44 16.56 14.15 18.70
  Q 13.64 22.40 14.20 25.35
  Q 14.62 27.55 14.75 29.75
  Q 15.19 37.56 14.84 42.00
  Q 14.28 49.12 14.56 53.87"
/>
<path stroke="#f2cbeb" vector-effect="non-scaling-stroke" d="
  M 4.40 57.29
  Q 4.69 48.64 3.52 38.50
  Q 2.41 29.00 2.27 15.90"
/>
<path stroke="#f2cbeb" vector-effect="non-scaling-stroke" d="
  M 121.91 2.95
  L 122.31 4.81"
/>
<path stroke="#f2cbeb" vector-effect="non-scaling-stroke" d="
  M 122.31 4.81
  Q 121.78 4.83 121.47 5.05
  Q 121.39 5.11 121.38 5.01
  Q 121.37 4.85 121.25 4.76"
/>
<path stroke="#f2cbeb" vector-effect="non-scaling-stroke" d="
  M 121.25 4.76
  Q 121.86 4.90 122.07 4.37
  Q 122.25 3.91 121.92 3.58
  Q 121.67 3.32 121.36 3.12
  Q 120.61 2.60 120.96 3.45
  Q 121.20 4.06 121.25 4.76"
/>
<path stroke="#f2cbeb" vector-effect="non-scaling-stroke" d="
  M 121.25 4.76
  Q 120.31 4.95 119.88 5.74
  Q 119.16 7.06 119.12 7.10
  Q 118.03 8.35 116.56 8.93
  Q 116.08 9.12 115.73 9.51
  Q 112.70 12.88 109.43 15.25
  A 2.08 2.06 26.9 0 1 108.22 15.64
  Q 93.22 15.59 78.30 15.66
  Q 77.36 15.66 76.45 15.14
  Q 76.05 14.92 74.22 15.26"
/>
<path stroke="#8e8fa1" vector-effect="non-scaling-stroke" d="
  M 54.24 15.49
  Q 48.13 16.83 41.78 20.01"
/>
<path stroke="#caa8c7" vector-effect="non-scaling-stroke" d="
  M 41.78 20.01
  L 37.52 18.95
  Q 37.04 18.83 36.56 18.87
  Q 30.71 19.42 25.55 17.56"
/>
<path stroke="#2d5052" vector-effect="non-scaling-stroke" d="
  M 75.42 17.62
  Q 77.64 20.22 80.20 22.13
  Q 82.56 23.90 83.60 25.51
  Q 85.32 28.20 87.22 30.84
  Q 87.99 31.92 88.56 33.13
  Q 89.11 34.32 89.70 35.53
  Q 90.55 37.25 90.62 38.96
  Q 90.67 40.25 91.10 41.47
  Q 91.61 42.93 91.69 44.45
  Q 91.90 48.47 91.89 52.68
  Q 91.89 55.00 91.33 57.29
  Q 90.74 59.73 90.16 62.01
  Q 89.86 63.24 89.23 64.44
  Q 88.59 65.70 88.09 67.13
  C 87.58 68.62 86.83 70.64 85.61 71.65
  Q 85.07 72.10 84.94 72.78
  Q 84.84 73.35 84.26 73.35
  L 83.32 73.34"
/>
<path stroke="#1b3031" vector-effect="non-scaling-stroke" d="
  M 83.32 73.34
  Q 83.32 69.78 81.33 67.15
  Q 79.95 65.33 78.81 63.91"
/>
<path stroke="#3c6a6c" vector-effect="non-scaling-stroke" d="
  M 78.81 63.91
  Q 80.73 61.06 81.11 57.91
  Q 81.16 57.43 81.50 57.08
  Q 81.83 56.74 81.75 56.26
  Q 81.68 55.82 81.86 55.41
  Q 82.46 53.98 82.58 52.37
  Q 83.16 44.76 81.16 39.73
  Q 80.56 38.22 80.17 36.70
  Q 79.72 34.93 78.76 33.44
  Q 76.66 30.21 74.46 27.14
  Q 74.00 26.51 73.32 26.07
  Q 72.66 25.64 72.02 25.20
  Q 71.06 24.54 70.42 23.65
  Q 69.53 22.44 67.95 22.47
  Q 67.37 22.49 67.37 21.91
  L 67.37 21.63
  Q 67.37 21.16 66.93 21.01
  Q 63.62 19.89 60.32 18.67
  Q 59.99 18.55 59.15 18.47
  Q 58.48 18.41 58.00 17.95
  Q 57.63 17.60 57.15 17.45
  Q 55.19 16.79 53.27 16.81
  Q 52.75 16.82 52.31 17.08
  Q 51.48 17.58 50.57 17.57
  Q 49.49 17.56 48.45 17.95
  Q 44.67 19.39 41.05 21.17"
/>
<path stroke="#717787" vector-effect="non-scaling-stroke" d="
  M 40.70 20.66
  L 41.78 20.01"
/>
<path stroke="#213c3c" vector-effect="non-scaling-stroke" d="
  M 78.81 63.91
  L 74.67 59.43"
/>
<path stroke="#477f80" vector-effect="non-scaling-stroke" d="
  M 74.67 59.43
  Q 77.36 53.03 76.86 48.00
  Q 76.68 46.18 76.63 44.99
  Q 76.56 43.43 76.14 42.11
  Q 75.79 41.02 75.64 39.91
  C 75.45 38.51 74.39 37.42 74.14 35.97
  Q 74.05 35.46 73.70 35.08
  Q 72.66 33.98 72.25 32.58
  Q 72.14 32.20 71.84 31.92
  Q 70.93 31.09 70.22 30.03
  Q 70.03 29.74 69.79 29.49
  Q 68.12 27.76 65.83 25.85
  Q 65.04 25.20 64.04 24.76
  Q 62.98 24.30 61.91 23.55
  Q 59.20 21.62 54.68 21.33
  Q 53.00 21.22 51.36 20.97
  Q 49.73 20.73 48.04 21.15
  Q 46.28 21.59 44.51 21.85
  Q 40.00 22.49 35.37 24.77
  Q 33.54 25.67 32.51 27.47
  Q 31.07 29.99 29.15 31.98
  C 28.53 32.62 28.16 33.51 27.92 34.37
  Q 27.81 34.81 27.43 35.06
  Q 26.80 35.48 26.91 36.23
  Q 26.95 36.55 26.73 36.78
  L 26.44 37.07
  Q 26.05 37.45 25.93 37.98
  Q 25.37 40.29 24.69 42.64
  C 24.16 44.50 24.52 46.34 24.25 48.24
  Q 23.96 50.29 24.39 52.28
  Q 24.93 54.77 25.44 57.18
  C 25.84 59.12 27.32 60.68 28.03 62.53
  Q 28.23 63.05 28.74 63.30
  Q 29.12 63.48 29.09 63.89
  Q 29.05 64.48 29.45 64.91
  Q 32.68 68.43 36.37 71.11
  Q 37.73 72.10 39.42 72.74
  C 41.37 73.47 42.93 74.35 45.10 74.36
  A 2.10 2.06 -29.4 0 1 46.07 74.62
  Q 48.12 75.80 50.49 75.12
  Q 51.21 74.92 51.93 75.27
  A 0.93 0.91 36.7 0 0 52.96 75.13
  Q 53.46 74.68 54.07 74.93
  A 1.27 1.25 -43.9 0 0 55.00 74.94
  C 56.30 74.41 56.72 74.32 58.34 74.32
  Q 59.73 74.32 60.03 72.99"
/>
<path stroke="#213c3c" vector-effect="non-scaling-stroke" d="
  M 60.03 72.99
  L 67.64 78.11"
/>
<path stroke="#3c6a6c" vector-effect="non-scaling-stroke" d="
  M 67.64 78.11
  Q 63.66 79.48 60.02 80.63
  Q 58.55 81.10 56.41 81.25
  Q 54.45 81.38 52.73 81.78
  Q 52.23 81.89 51.77 81.66
  Q 50.99 81.27 50.18 81.59
  A 1.47 1.44 42.0 0 1 49.24 81.63
  Q 47.27 81.09 45.21 80.88
  Q 44.25 80.78 43.34 80.38
  Q 42.26 79.91 41.11 79.58
  Q 39.54 79.13 38.22 78.24
  Q 36.36 76.99 34.39 75.92
  Q 30.00 73.55 26.70 69.07
  Q 18.48 57.90 20.74 43.96"
/>
<path stroke="#1c3333" vector-effect="non-scaling-stroke" d="
  M 89.51 25.46
  Q 91.14 28.90 92.99 32.00
  Q 94.16 33.97 94.77 37.76
  A 1.89 1.87 -68.2 0 0 95.14 38.64
  Q 95.37 38.94 95.52 39.24
  Q 95.89 39.96 96.05 40.69
  Q 97.62 48.19 96.48 56.85
  Q 96.28 58.32 95.90 59.65
  Q 95.50 61.04 95.36 62.48
  C 95.15 64.60 94.20 66.46 93.45 68.40
  A 2.62 2.58 -10.3 0 1 92.74 69.41
  Q 91.56 70.46 91.91 72.00
  Q 92.03 72.54 91.57 72.85
  Q 90.74 73.40 90.41 74.42
  Q 90.06 75.52 89.29 76.44
  Q 88.30 77.65 87.22 78.63
  Q 86.85 78.97 86.84 79.46
  Q 86.82 80.17 86.12 80.30
  A 1.17 1.15 -74.5 0 0 85.41 80.71
  Q 83.96 82.44 82.22 83.76
  Q 78.08 86.91 73.33 89.32
  C 72.18 89.90 70.97 90.05 70.03 90.98
  Q 69.73 91.28 69.30 91.34
  L 66.77 91.69
  Q 66.41 91.74 66.21 92.05
  Q 65.80 92.69 65.04 92.65
  Q 64.51 92.62 63.95 92.73
  Q 54.05 94.56 46.99 93.12
  Q 38.22 91.33 29.06 84.99"
/>
<path stroke="#2d5052" vector-effect="non-scaling-stroke" d="
  M 19.91 68.19
  Q 21.30 69.97 21.96 72.15
  C 22.35 73.46 23.89 75.43 24.99 76.25
  Q 26.54 77.42 27.46 79.08
  Q 27.74 79.56 28.25 79.76
  Q 29.16 80.11 29.53 81.01
  A 1.68 1.65 -87.6 0 0 30.29 81.85
  Q 32.21 82.89 34.15 84.11
  Q 36.03 85.30 37.76 86.04
  Q 48.50 90.59 60.48 88.66
  Q 67.62 87.50 73.53 83.76
  Q 73.67 83.68 73.74 83.52
  Q 73.81 83.38 73.89 83.24
  Q 73.98 83.10 74.14 83.06
  Q 75.51 82.73 75.70 81.41"
/>
<path stroke="#132223" vector-effect="non-scaling-stroke" d="
  M 75.70 81.41
  Q 82.99 79.63 83.32 73.34"
/>
<path stroke="#264445" vector-effect="non-scaling-stroke" d="
  M 74.67 59.43
  L 70.66 55.09"
/>
<path stroke="#508d8e" vector-effect="non-scaling-stroke" d="
  M 70.66 55.09
  Q 72.42 49.92 71.91 45.74
  Q 71.76 44.52 71.82 43.91
  A 2.01 1.98 -54.5 0 0 71.67 42.97
  Q 70.65 40.55 70.00 38.13
  Q 69.38 35.86 68.18 34.55
  Q 66.87 33.12 65.63 31.64
  Q 64.62 30.42 63.31 29.52
  Q 61.93 28.58 60.73 27.45
  Q 60.31 27.05 59.73 27.06
  Q 59.22 27.07 58.82 26.81
  Q 56.33 25.17 53.44 24.14
  A 0.37 0.36 -59.3 0 0 53.03 24.25
  Q 52.91 24.38 52.74 24.40
  Q 52.47 24.43 52.22 24.34
  Q 50.81 23.84 49.40 24.39
  Q 48.92 24.58 48.40 24.54
  L 45.88 24.33
  Q 45.32 24.28 44.86 24.61
  Q 43.83 25.36 42.57 25.38
  Q 41.93 25.39 41.62 25.95
  Q 41.42 26.32 41.02 26.40
  C 39.94 26.62 39.01 27.29 37.88 27.54
  Q 36.76 27.79 35.99 28.41
  Q 34.72 29.45 33.52 30.70
  A 1.39 1.36 -18.8 0 0 33.15 31.43
  Q 32.98 32.47 31.93 32.84
  Q 31.41 33.02 31.17 33.51
  C 30.50 34.83 29.36 35.58 28.81 36.95
  Q 26.71 42.17 26.61 47.73
  Q 26.54 51.61 28.25 55.50
  Q 30.22 59.98 32.89 63.18
  Q 36.29 67.26 42.77 69.44
  Q 43.32 69.63 43.87 69.42
  Q 44.38 69.23 44.71 69.67
  Q 45.10 70.19 45.75 70.26
  Q 49.44 70.69 53.27 70.55
  Q 54.75 70.50 55.95 70.10"
/>
<path stroke="#264445" vector-effect="non-scaling-stroke" d="
  M 55.95 70.10
  Q 58.00 71.01 60.03 72.99"
/>
<path stroke="#2a4a4b" vector-effect="non-scaling-stroke" d="
  M 70.66 55.09
  L 65.10 50.94"
/>
<path stroke="#5ba1a2" vector-effect="non-scaling-stroke" d="
  M 65.10 50.94
  Q 66.96 42.84 62.71 36.20
  Q 59.84 31.72 55.78 29.90
  Q 51.32 27.89 45.86 28.50
  Q 43.43 28.77 41.07 29.41
  Q 39.16 29.93 37.82 31.30
  Q 36.34 32.81 34.89 34.20
  Q 33.69 35.35 33.08 36.71
  Q 32.49 38.03 31.80 39.28
  Q 30.71 41.23 30.43 43.64
  Q 29.51 51.48 34.41 57.97
  Q 35.93 60.00 38.85 61.82
  Q 39.76 62.39 40.72 62.57
  Q 41.37 62.70 41.95 63.07
  Q 42.44 63.38 43.00 63.50
  L 47.27 64.47
  Q 47.75 64.58 48.23 64.49
  Q 50.19 64.14 51.84 64.83"
/>
<path stroke="#2a4a4b" vector-effect="non-scaling-stroke" d="
  M 51.84 64.83
  L 55.95 70.10"
/>
<path stroke="#0f1c23" vector-effect="non-scaling-stroke" d="
  M 93.23 29.00
  Q 94.37 31.29 94.91 33.37
  Q 95.09 34.04 96.17 35.66
  Q 97.06 37.00 97.21 38.47
  Q 97.51 41.36 98.46 44.37
  Q 99.27 46.92 99.19 49.86
  Q 99.01 57.03 97.80 62.80
  Q 97.51 64.22 96.78 65.69
  A 0.92 0.86 -3.1 0 1 96.41 66.08
  Q 96.03 66.31 95.90 66.76
  Q 93.85 74.12 88.86 80.06
  Q 87.67 81.48 86.71 82.93
  Q 85.67 84.51 84.25 85.76
  C 82.37 87.42 81.17 88.96 78.65 90.13
  A 1.83 1.81 -85.9 0 0 77.91 90.78
  L 76.68 92.69"
/>
<path stroke="#325858" vector-effect="non-scaling-stroke" d="
  M 65.10 50.94
  Q 50.32 49.89 51.84 64.83"
/>
<path stroke="#6bbdbd" vector-effect="non-scaling-stroke" d="
  M 54.67 38.79
  Q 53.16 35.68 50.40 34.53
  C 49.23 34.04 48.08 34.26 46.93 33.74
  Q 46.21 33.42 45.45 33.63
  Q 43.75 34.12 42.11 34.53
  C 40.34 34.97 39.09 36.69 37.76 37.91
  Q 36.49 39.08 36.06 40.86
  Q 35.08 44.86 36.29 48.63
  Q 37.46 52.25 40.90 54.32
  Q 44.03 56.19 48.30 55.52
  A 5.03 5.02 19.0 0 0 50.93 54.24
  C 52.46 52.84 54.52 51.72 55.28 49.72
  Q 56.26 47.12 56.14 44.82
  Q 56.00 42.26 55.54 39.69
  Q 55.49 39.41 55.22 39.30
  Q 54.85 39.15 54.67 38.79"
/>
<path stroke="#1b3031" vector-effect="non-scaling-stroke" d="
  M 67.64 78.11
  L 75.70 81.41"
/>
<path stroke="#274975" vector-effect="non-scaling-stroke" d="
  M 65.94 60.37
  A 4.68 4.68 0.0 0 0 61.26 55.69
  A 4.68 4.68 0.0 0 0 56.58 60.37
  A 4.68 4.68 0.0 0 0 61.26 65.05
  A 4.68 4.68 0.0 0 0 65.94 60.37"
/>
<path stroke="#937a93" vector-effect="non-scaling-stroke" d="
  M 72.64 126.30
  Q 94.99 125.35 116.99 125.97
  Q 121.33 126.10 125.32 126.53
  Q 127.09 126.72 127.08 124.94
  C 127.06 120.45 126.36 116.09 126.43 111.52
  C 126.57 102.10 126.89 92.70 126.68 83.34
  Q 126.59 79.17 126.95 75.00
  C 127.19 72.32 127.09 69.69 127.24 66.99"
/>
<path stroke="#937a93" vector-effect="non-scaling-stroke" d="
  M 76.05 114.79
  Q 92.65 114.94 109.17 114.89
  Q 110.32 114.89 111.26 114.44
  Q 112.23 113.97 113.18 113.53
  A 2.48 2.46 81.0 0 0 114.59 111.57
  Q 114.73 110.36 115.27 109.29
  Q 115.48 108.88 115.47 108.43
  L 115.34 74.45
  Q 115.34 73.99 115.12 73.59
  L 114.63 72.66"
/>
<path stroke="#d5b3d1" vector-effect="non-scaling-stroke" d="
  M 2.54 71.15
  Q 1.64 81.54 1.87 90.75
  Q 2.22 104.41 1.87 115.50
  Q 1.82 116.94 3.02 119.56"
/>
<path stroke="#caa8c7" vector-effect="non-scaling-stroke" d="
  M 3.02 119.56
  Q 5.28 122.26 9.91 117.78
  Q 10.07 117.62 10.15 117.83
  Q 10.22 118.01 10.39 118.04"
/>
<path stroke="#caa8c7" vector-effect="non-scaling-stroke" d="
  M 10.39 118.04
  Q 8.62 118.74 7.98 119.98"
/>
<path stroke="#caa8c7" vector-effect="non-scaling-stroke" d="
  M 7.98 119.98
  L 5.30 121.24
  Q 4.76 121.50 4.22 121.25
  L 3.78 121.04
  Q 2.68 120.53 3.54 121.39
  L 4.27 122.11
  Q 4.62 122.47 5.09 122.29
  Q 7.02 121.57 7.98 119.98"
/>
<path stroke="#caa8c7" vector-effect="non-scaling-stroke" d="
  M 7.98 119.98
  Q 9.81 119.43 10.39 118.04"
/>
<path stroke="#caa8c7" vector-effect="non-scaling-stroke" d="
  M 10.39 118.04
  L 17.61 110.73
  A 0.76 0.72 -23.5 0 0 17.83 110.21
  L 17.87 108.50"
/>
<path stroke="#ad90ad" vector-effect="non-scaling-stroke" d="
  M 21.54 111.98
  L 17.37 114.63
  Q 17.05 114.83 16.86 115.17
  Q 15.91 116.87 14.33 117.92
  Q 11.43 119.84 9.61 122.79
  Q 9.06 123.68 8.97 124.85
  Q 8.92 125.45 9.52 125.51
  Q 10.22 125.59 10.67 125.44"
/>
<path stroke="#937a93" vector-effect="non-scaling-stroke" d="
  M 10.67 125.44
  C 11.99 125.83 13.07 126.19 14.47 126.14
  Q 37.63 125.23 60.71 126.37"
/>
<path stroke="#d5b3d1" vector-effect="non-scaling-stroke" d="
  M 18.29 85.44
  Q 19.01 93.76 17.22 100.71"
/>
<path stroke="#f2cbeb" vector-effect="non-scaling-stroke" d="
  M 15.27 104.82
  L 14.77 109.75
  A 1.69 1.64 71.3 0 1 14.28 110.78
  Q 11.21 113.82 8.70 117.73
  Q 7.72 119.25 6.27 119.81
  Q 4.60 120.44 3.02 119.56"
/>
<path stroke="#ad90ad" vector-effect="non-scaling-stroke" d="
  M 81.44 110.81
  Q 90.78 111.49 99.67 111.29
  Q 102.01 111.23 104.27 111.55
  Q 106.60 111.88 108.95 111.28
  Q 110.52 110.89 111.36 109.47
  Q 112.33 107.82 111.93 106.32"
/>
<path stroke="#937a93" vector-effect="non-scaling-stroke" d="
  M 54.87 112.98
  Q 55.28 113.38 54.92 113.73
  Q 54.72 113.92 54.34 113.93
  Q 41.56 114.31 29.67 114.14
  C 26.31 114.09 20.36 112.35 18.39 116.35
  Q 17.07 119.05 13.82 120.48
  A 1.01 1.00 -2.9 0 0 13.27 121.08
  Q 13.06 121.70 12.53 121.59
  Q 9.91 123.09 10.67 125.44"
/>
</g>
<path fill="#ad90ad" d="
  M 0.00 0.00
  L 60.88 0.00
  L 59.48 1.12
  L 58.90 0.67
  A 1.12 1.08 -28.5 0 0 58.07 0.44
  C 54.75 0.88 51.81 1.25 48.27 1.15
  Q 42.90 0.98 37.49 1.49
  L 1.51 0.90
  A 0.73 0.73 0.0 0 0 0.78 1.71
  L 2.27 15.90
  L 1.42 36.68
  Q 1.41 36.95 1.27 37.17
  Q 1.17 37.33 1.16 37.50
  Q 1.08 47.13 1.16 56.75
  Q 1.17 57.49 1.79 58.54
  L 0.00 61.24
  L 0.00 0.00
  Z"
/>
<path fill="#000101" d="
  M 60.88 0.00
  L 67.47 0.00
  L 70.30 1.82
  C 70.73 3.24 71.23 4.35 71.26 5.78
  Q 71.33 8.55 71.23 11.25
  Q 71.21 11.85 71.81 11.86
  L 72.80 11.88
  Q 73.35 11.89 73.49 12.42
  L 74.22 15.26
  L 83.47 18.35
  L 92.88 23.43
  Q 93.38 23.70 93.89 23.44
  Q 94.80 22.96 95.80 22.56
  Q 96.81 22.16 97.30 23.12
  A 0.75 0.74 -34.6 0 0 98.47 23.33
  Q 100.86 21.13 103.23 18.84
  C 105.00 17.13 108.10 17.61 109.55 19.64
  Q 110.73 21.30 112.26 22.66
  A 4.34 4.34 0.0 0 1 112.44 28.99
  L 107.81 33.58
  A 0.68 0.68 0.0 0 0 108.13 34.72
  Q 108.90 34.91 108.89 35.64
  Q 108.88 36.07 108.56 36.39
  C 106.53 38.41 108.39 39.47 109.27 41.17
  Q 111.88 46.20 113.34 51.27
  Q 113.49 51.77 113.98 51.96
  L 115.50 52.54
  Q 116.19 52.97 116.85 54.71
  A 0.51 0.51 0.0 0 0 117.34 55.04
  Q 120.06 54.98 122.86 55.00
  C 125.12 55.01 126.30 56.01 127.43 57.78
  L 128.00 59.04
  L 128.00 65.28
  L 127.24 66.99
  C 124.59 69.92 120.51 69.03 117.16 69.00
  Q 116.54 68.99 116.52 69.60
  L 116.47 70.51
  Q 116.45 71.06 115.97 71.33
  Q 115.07 71.85 114.63 72.66
  C 113.56 75.91 112.81 79.19 111.54 82.34
  Q 110.11 85.86 108.14 88.88
  Q 107.72 89.52 108.32 89.98
  Q 109.16 90.63 109.56 91.62
  Q 109.78 92.16 109.32 92.52
  Q 107.69 93.82 109.32 95.21
  Q 111.87 97.40 113.67 99.73
  Q 115.24 101.76 113.62 103.91
  Q 112.57 105.29 111.93 106.32
  C 109.25 108.22 107.23 111.94 103.60 108.81
  Q 101.26 106.78 99.21 104.47
  Q 98.69 103.88 98.02 104.30
  L 96.99 104.94
  A 1.20 1.20 0.0 0 1 95.49 104.77
  L 95.05 104.33
  Q 94.55 103.82 93.96 104.22
  Q 88.46 107.96 81.44 110.81
  Q 79.94 111.19 77.92 112.01
  C 76.52 112.58 76.45 113.45 76.05 114.79
  Q 73.12 116.78 73.42 122.53
  C 73.50 124.04 73.12 124.90 72.64 126.30
  L 69.74 128.00
  L 63.45 128.00
  L 60.71 126.37
  Q 59.25 122.82 59.43 117.55
  Q 59.45 117.04 58.99 116.80
  Q 57.07 115.81 56.69 113.64
  Q 56.60 113.15 56.13 112.96
  Q 55.55 112.72 54.87 112.98
  Q 44.94 110.71 36.61 105.75
  A 1.54 1.53 -56.5 0 0 34.57 106.17
  Q 33.46 107.70 32.20 106.37
  A 1.29 1.28 42.5 0 0 30.26 106.45
  Q 28.49 108.67 26.20 110.93
  Q 23.90 113.20 21.54 111.98
  L 17.87 108.50
  Q 15.90 106.85 15.27 104.82
  Q 15.21 102.34 17.22 100.71
  L 20.51 96.92
  Q 20.89 96.48 20.58 95.99
  L 19.95 94.97
  Q 19.57 94.34 19.92 93.70
  L 21.17 91.37
  Q 21.42 90.92 21.16 90.48
  L 18.29 85.44
  L 14.67 75.11
  Q 14.46 74.51 13.83 74.49
  Q 11.49 74.41 11.43 72.34
  Q 11.41 71.69 10.76 71.65
  L 2.54 71.15
  L 0.00 67.63
  L 0.00 61.24
  L 1.79 58.54
  Q 3.43 57.43 4.40 57.29
  L 10.91 57.24
  Q 11.40 57.23 11.39 56.75
  Q 11.34 54.78 14.56 53.87
  Q 16.69 44.72 20.98 38.15
  A 1.36 1.36 0.0 0 0 20.85 36.51
  Q 20.21 35.80 19.93 34.86
  A 1.09 1.08 60.6 0 1 20.24 33.74
  Q 20.66 33.35 20.63 32.77
  Q 20.61 32.21 19.90 31.53
  C 16.82 28.61 13.05 25.26 16.37 21.40
  C 18.89 18.48 22.11 14.57 25.55 17.56
  L 30.32 22.37
  A 0.63 0.63 0.0 0 0 31.25 22.32
  Q 31.75 21.70 32.45 21.40
  Q 32.94 21.20 33.34 21.55
  L 34.91 22.93
  Q 35.31 23.29 35.80 23.06
  L 40.70 20.66
  Q 41.16 20.87 41.05 21.17
  C 38.35 22.43 35.72 23.64 33.44 25.51
  Q 24.43 32.92 20.74 43.96
  Q 16.29 56.11 19.91 68.19
  Q 22.26 77.75 29.06 84.99
  Q 40.19 97.88 57.53 97.85
  Q 57.61 97.85 57.67 97.80
  Q 57.79 97.72 57.91 97.66
  Q 58.24 97.47 58.63 97.45
  Q 61.19 97.27 63.84 96.89
  Q 71.18 95.84 76.68 92.69
  Q 77.63 92.25 78.16 91.83
  C 79.19 90.99 80.16 91.07 81.18 90.26
  Q 82.33 89.36 83.55 88.73
  C 85.44 87.76 86.05 85.92 88.00 85.09
  A 1.43 1.40 88.7 0 0 88.76 84.28
  Q 89.42 82.40 91.19 81.10
  Q 91.73 80.71 91.93 80.07
  Q 92.43 78.49 93.79 77.65
  Q 94.24 77.38 94.14 76.87
  Q 94.02 76.24 94.50 75.86
  Q 94.89 75.56 95.12 75.13
  C 95.99 73.57 96.12 71.86 97.03 70.34
  Q 98.32 68.17 98.34 65.34
  Q 98.34 65.03 98.50 64.75
  Q 98.66 64.47 98.86 64.22
  Q 99.23 63.78 99.25 63.20
  C 99.31 61.48 100.32 60.30 100.40 58.61
  Q 100.52 56.02 101.08 53.55
  Q 101.61 51.19 100.88 49.05
  Q 100.42 47.73 100.38 46.26
  Q 100.18 39.54 96.64 32.99
  Q 95.97 31.75 93.23 29.00
  L 89.51 25.46
  Q 83.68 20.48 75.42 17.62
  Q 66.00 14.42 54.24 15.49
  Q 54.72 13.75 54.45 13.36
  Q 55.09 11.89 56.75 11.73
  Q 57.23 11.68 57.24 11.19
  L 57.41 3.22
  Q 58.24 2.03 59.48 1.12
  L 60.88 0.00
  Z
  M 63.3980 12.9199
  A 4.21 2.65 90.3 0 0 66.0700 8.7239
  A 4.21 2.65 90.3 0 0 63.4420 4.5001
  A 4.21 2.65 90.3 0 0 60.7700 8.6961
  A 4.21 2.65 90.3 0 0 63.3980 12.9199
  Z
  M 28.78 24.95
  A 2.38 2.38 0.0 0 0 26.40 22.57
  A 2.38 2.38 0.0 0 0 24.02 24.95
  A 2.38 2.38 0.0 0 0 26.40 27.33
  A 2.38 2.38 0.0 0 0 28.78 24.95
  Z
  M 105.9733 24.0184
  A 2.28 2.12 -26.9 0 0 102.9808 23.1594
  A 2.28 2.12 -26.9 0 0 101.9067 26.0816
  A 2.28 2.12 -26.9 0 0 104.8992 26.9406
  A 2.28 2.12 -26.9 0 0 105.9733 24.0184
  Z
  M 13.06 64.53
  L 13.14 60.47
  A 0.88 0.88 0.0 0 0 12.28 59.57
  L 10.93 59.55
  A 4.13 2.79 1.1 0 0 6.74 62.26
  L 6.74 62.50
  A 4.13 2.79 1.1 0 0 10.81 65.37
  L 12.16 65.39
  A 0.88 0.88 0.0 0 0 13.06 64.53
  Z
  M 123.4695 62.0881
  A 3.94 2.61 -0.9 0 0 119.4890 59.5403
  A 3.94 2.61 -0.9 0 0 115.5905 62.2119
  A 3.94 2.61 -0.9 0 0 119.5710 64.7597
  A 3.94 2.61 -0.9 0 0 123.4695 62.0881
  Z
  M 67.3000 123.3700
  A 4.39 2.11 90.0 0 0 69.4100 118.9800
  A 4.39 2.11 90.0 0 0 67.3000 114.5900
  A 4.39 2.11 90.0 0 0 65.1900 118.9800
  A 4.39 2.11 90.0 0 0 67.3000 123.3700
  Z"
/>
<path fill="#ad90ad" d="
  M 67.47 0.00
  L 128.00 0.00
  L 128.00 59.04
  L 127.43 57.78
  Q 126.90 48.52 127.19 39.39
  Q 127.19 39.37 127.18 39.37
  Q 127.17 39.37 127.15 39.37
  Q 127.09 39.37 127.09 39.43
  Q 127.13 46.30 127.10 53.23
  Q 127.10 53.43 126.90 53.43
  L 126.89 53.43
  Q 126.70 53.44 126.69 53.24
  Q 126.46 45.51 126.81 37.61
  Q 126.92 34.91 126.62 32.41
  Q 126.30 29.71 126.36 27.19
  Q 126.36 27.15 126.36 27.09
  Q 126.34 27.00 126.32 27.09
  Q 126.30 27.14 126.30 27.19
  Q 126.11 30.91 126.30 35.20
  Q 126.70 44.22 126.42 54.23
  Q 126.42 54.32 126.33 54.32
  L 126.32 54.32
  Q 126.22 54.32 126.22 54.21
  Q 125.82 33.76 126.51 13.17
  Q 126.57 11.44 125.56 10.17
  A 0.89 0.88 -37.4 0 0 124.34 10.01
  Q 121.75 11.94 120.86 14.93
  A 1.82 1.80 80.0 0 1 120.21 15.87
  Q 116.55 18.62 115.39 22.19
  Q 114.86 23.81 115.44 25.83
  Q 115.91 27.46 115.90 29.10
  Q 115.85 40.92 115.89 52.06
  Q 115.89 52.25 115.74 52.38
  Q 115.61 52.50 115.50 52.54
  L 113.98 51.96
  Q 113.49 51.77 113.34 51.27
  Q 111.88 46.20 109.27 41.17
  C 108.39 39.47 106.53 38.41 108.56 36.39
  Q 108.88 36.07 108.89 35.64
  Q 108.90 34.91 108.13 34.72
  A 0.68 0.68 0.0 0 1 107.81 33.58
  L 112.44 28.99
  A 4.34 4.34 0.0 0 0 112.26 22.66
  Q 110.73 21.30 109.55 19.64
  C 108.10 17.61 105.00 17.13 103.23 18.84
  Q 100.86 21.13 98.47 23.33
  A 0.75 0.74 -34.6 0 1 97.30 23.12
  Q 96.81 22.16 95.80 22.56
  Q 94.80 22.96 93.89 23.44
  Q 93.38 23.70 92.88 23.43
  L 83.47 18.35
  L 101.97 18.53
  Q 102.51 18.54 102.93 18.20
  C 104.27 17.16 107.15 17.48 108.69 17.84
  Q 109.31 17.99 109.81 17.60
  Q 111.93 15.96 113.78 13.96
  Q 115.43 12.18 117.80 10.20
  Q 120.51 7.92 122.31 4.81
  L 122.72 4.82
  Q 123.12 4.84 123.12 4.45
  L 123.12 3.52
  Q 123.12 2.95 122.56 2.90
  Q 122.23 2.87 121.91 2.95
  Q 118.06 0.89 115.24 1.10
  Q 106.00 1.77 92.00 1.52
  Q 86.23 1.42 70.30 1.82
  L 67.47 0.00
  Z"
/>
<path fill="#e7c0e1" d="
  M 59.48 1.12
  Q 58.24 2.03 57.41 3.22
  C 54.87 3.22 52.45 2.32 50.18 2.17
  Q 43.90 1.73 37.49 1.49
  Q 42.90 0.98 48.27 1.15
  C 51.81 1.25 54.75 0.88 58.07 0.44
  A 1.12 1.08 -28.5 0 1 58.90 0.67
  L 59.48 1.12
  Z"
/>
<path fill="#fdd5f5" d="
  M 37.49 1.49
  Q 43.90 1.73 50.18 2.17
  C 52.45 2.32 54.87 3.22 57.41 3.22
  L 57.24 11.19
  Q 57.23 11.68 56.75 11.73
  Q 55.09 11.89 54.45 13.36
  Q 51.34 13.81 48.16 13.70
  Q 46.40 13.65 42.87 13.98
  Q 40.50 14.20 37.50 13.91
  Q 31.93 13.39 16.37 14.22
  A 1.12 1.11 13.1 0 0 15.45 14.79
  Q 14.44 16.56 14.15 18.70
  Q 13.64 22.40 14.20 25.35
  Q 14.62 27.55 14.75 29.75
  Q 15.19 37.56 14.84 42.00
  Q 14.28 49.12 14.56 53.87
  Q 11.34 54.78 11.39 56.75
  Q 11.40 57.23 10.91 57.24
  L 4.40 57.29
  Q 4.69 48.64 3.52 38.50
  Q 2.41 29.00 2.27 15.90
  L 0.78 1.71
  A 0.73 0.73 0.0 0 1 1.51 0.90
  L 37.49 1.49
  Z"
/>
<path fill="#fdd5f5" d="
  M 121.91 2.95
  L 122.31 4.81
  Q 121.78 4.83 121.47 5.05
  Q 121.39 5.11 121.38 5.01
  Q 121.37 4.85 121.25 4.76
  Q 121.86 4.90 122.07 4.37
  Q 122.25 3.91 121.92 3.58
  Q 121.67 3.32 121.36 3.12
  Q 120.61 2.60 120.96 3.45
  Q 121.20 4.06 121.25 4.76
  Q 120.31 4.95 119.88 5.74
  Q 119.16 7.06 119.12 7.10
  Q 118.03 8.35 116.56 8.93
  Q 116.08 9.12 115.73 9.51
  Q 112.70 12.88 109.43 15.25
  A 2.08 2.06 26.9 0 1 108.22 15.64
  Q 93.22 15.59 78.30 15.66
  Q 77.36 15.66 76.45 15.14
  Q 76.05 14.92 74.22 15.26
  L 73.49 12.42
  Q 73.35 11.89 72.80 11.88
  L 71.81 11.86
  Q 71.21 11.85 71.23 11.25
  Q 71.33 8.55 71.26 5.78
  C 71.23 4.35 70.73 3.24 70.30 1.82
  Q 86.23 1.42 92.00 1.52
  Q 106.00 1.77 115.24 1.10
  Q 118.06 0.89 121.91 2.95
  Z"
/>
<path fill="#e7c0e1" d="
  M 121.25 4.76
  Q 121.20 4.06 120.96 3.45
  Q 120.61 2.60 121.36 3.12
  Q 121.67 3.32 121.92 3.58
  Q 122.25 3.91 122.07 4.37
  Q 121.86 4.90 121.25 4.76
  Z"
/>
<path fill="#e7c0e1" d="
  M 121.91 2.95
  Q 122.23 2.87 122.56 2.90
  Q 123.12 2.95 123.12 3.52
  L 123.12 4.45
  Q 123.12 4.84 122.72 4.82
  L 122.31 4.81
  L 121.91 2.95
  Z"
/>
<ellipse fill="#3c72b8" cx="0.00" cy="0.00" transform="translate(63.42,8.71) rotate(90.3)" rx="4.21" ry="2.65"/>
<path fill="#e7c0e1" d="
  M 121.25 4.76
  Q 121.37 4.85 121.38 5.01
  Q 121.39 5.11 121.47 5.05
  Q 121.78 4.83 122.31 4.81
  Q 120.51 7.92 117.80 10.20
  Q 115.43 12.18 113.78 13.96
  Q 111.93 15.96 109.81 17.60
  Q 109.31 17.99 108.69 17.84
  C 107.15 17.48 104.27 17.16 102.93 18.20
  Q 102.51 18.54 101.97 18.53
  L 83.47 18.35
  L 74.22 15.26
  Q 76.05 14.92 76.45 15.14
  Q 77.36 15.66 78.30 15.66
  Q 93.22 15.59 108.22 15.64
  A 2.08 2.06 26.9 0 0 109.43 15.25
  Q 112.70 12.88 115.73 9.51
  Q 116.08 9.12 116.56 8.93
  Q 118.03 8.35 119.12 7.10
  Q 119.16 7.06 119.88 5.74
  Q 120.31 4.95 121.25 4.76
  Z"
/>
<path fill="#786478" d="
  M 127.43 57.78
  C 126.30 56.01 125.12 55.01 122.86 55.00
  Q 120.06 54.98 117.34 55.04
  A 0.51 0.51 0.0 0 1 116.85 54.71
  Q 116.19 52.97 115.50 52.54
  Q 115.61 52.50 115.74 52.38
  Q 115.89 52.25 115.89 52.06
  Q 115.85 40.92 115.90 29.10
  Q 115.91 27.46 115.44 25.83
  Q 114.86 23.81 115.39 22.19
  Q 116.55 18.62 120.21 15.87
  A 1.82 1.80 80.0 0 0 120.86 14.93
  Q 121.75 11.94 124.34 10.01
  A 0.89 0.88 -37.4 0 1 125.56 10.17
  Q 126.57 11.44 126.51 13.17
  Q 125.82 33.76 126.22 54.21
  Q 126.22 54.32 126.32 54.32
  L 126.33 54.32
  Q 126.42 54.32 126.42 54.23
  Q 126.70 44.22 126.30 35.20
  Q 126.11 30.91 126.30 27.19
  Q 126.30 27.14 126.32 27.09
  Q 126.34 27.00 126.36 27.09
  Q 126.36 27.15 126.36 27.19
  Q 126.30 29.71 126.62 32.41
  Q 126.92 34.91 126.81 37.61
  Q 126.46 45.51 126.69 53.24
  Q 126.70 53.44 126.89 53.43
  L 126.90 53.43
  Q 127.10 53.43 127.10 53.23
  Q 127.13 46.30 127.09 39.43
  Q 127.09 39.37 127.15 39.37
  Q 127.17 39.37 127.18 39.37
  Q 127.19 39.37 127.19 39.39
  Q 126.90 48.52 127.43 57.78
  Z"
/>
<path fill="#e7c0e1" d="
  M 54.45 13.36
  Q 54.72 13.75 54.24 15.49
  Q 48.13 16.83 41.78 20.01
  L 37.52 18.95
  Q 37.04 18.83 36.56 18.87
  Q 30.71 19.42 25.55 17.56
  C 22.11 14.57 18.89 18.48 16.37 21.40
  C 13.05 25.26 16.82 28.61 19.90 31.53
  Q 20.61 32.21 20.63 32.77
  Q 20.66 33.35 20.24 33.74
  A 1.09 1.08 60.6 0 0 19.93 34.86
  Q 20.21 35.80 20.85 36.51
  A 1.36 1.36 0.0 0 1 20.98 38.15
  Q 16.69 44.72 14.56 53.87
  Q 14.28 49.12 14.84 42.00
  Q 15.19 37.56 14.75 29.75
  Q 14.62 27.55 14.20 25.35
  Q 13.64 22.40 14.15 18.70
  Q 14.44 16.56 15.45 14.79
  A 1.12 1.11 13.1 0 1 16.37 14.22
  Q 31.93 13.39 37.50 13.91
  Q 40.50 14.20 42.87 13.98
  Q 46.40 13.65 48.16 13.70
  Q 51.34 13.81 54.45 13.36
  Z"
/>
<path fill="#355e60" d="
  M 54.24 15.49
  Q 66.00 14.42 75.42 17.62
  Q 77.64 20.22 80.20 22.13
  Q 82.56 23.90 83.60 25.51
  Q 85.32 28.20 87.22 30.84
  Q 87.99 31.92 88.56 33.13
  Q 89.11 34.32 89.70 35.53
  Q 90.55 37.25 90.62 38.96
  Q 90.67 40.25 91.10 41.47
  Q 91.61 42.93 91.69 44.45
  Q 91.90 48.47 91.89 52.68
  Q 91.89 55.00 91.33 57.29
  Q 90.74 59.73 90.16 62.01
  Q 89.86 63.24 89.23 64.44
  Q 88.59 65.70 88.09 67.13
  C 87.58 68.62 86.83 70.64 85.61 71.65
  Q 85.07 72.10 84.94 72.78
  Q 84.84 73.35 84.26 73.35
  L 83.32 73.34
  Q 83.32 69.78 81.33 67.15
  Q 79.95 65.33 78.81 63.91
  Q 80.73 61.06 81.11 57.91
  Q 81.16 57.43 81.50 57.08
  Q 81.83 56.74 81.75 56.26
  Q 81.68 55.82 81.86 55.41
  Q 82.46 53.98 82.58 52.37
  Q 83.16 44.76 81.16 39.73
  Q 80.56 38.22 80.17 36.70
  Q 79.72 34.93 78.76 33.44
  Q 76.66 30.21 74.46 27.14
  Q 74.00 26.51 73.32 26.07
  Q 72.66 25.64 72.02 25.20
  Q 71.06 24.54 70.42 23.65
  Q 69.53 22.44 67.95 22.47
  Q 67.37 22.49 67.37 21.91
  L 67.37 21.63
  Q 67.37 21.16 66.93 21.01
  Q 63.62 19.89 60.32 18.67
  Q 59.99 18.55 59.15 18.47
  Q 58.48 18.41 58.00 17.95
  Q 57.63 17.60 57.15 17.45
  Q 55.19 16.79 53.27 16.81
  Q 52.75 16.82 52.31 17.08
  Q 51.48 17.58 50.57 17.57
  Q 49.49 17.56 48.45 17.95
  Q 44.67 19.39 41.05 21.17
  Q 41.16 20.87 40.70 20.66
  L 41.78 20.01
  Q 48.13 16.83 54.24 15.49
  Z"
/>
<path fill="#e7c0e1" d="
  M 2.27 15.90
  Q 2.41 29.00 3.52 38.50
  Q 4.69 48.64 4.40 57.29
  Q 3.43 57.43 1.79 58.54
  Q 1.17 57.49 1.16 56.75
  Q 1.08 47.13 1.16 37.50
  Q 1.17 37.33 1.27 37.17
  Q 1.41 36.95 1.42 36.68
  L 2.27 15.90
  Z"
/>
<path fill="#427677" d="
  M 78.81 63.91
  L 74.67 59.43
  Q 77.36 53.03 76.86 48.00
  Q 76.68 46.18 76.63 44.99
  Q 76.56 43.43 76.14 42.11
  Q 75.79 41.02 75.64 39.91
  C 75.45 38.51 74.39 37.42 74.14 35.97
  Q 74.05 35.46 73.70 35.08
  Q 72.66 33.98 72.25 32.58
  Q 72.14 32.20 71.84 31.92
  Q 70.93 31.09 70.22 30.03
  Q 70.03 29.74 69.79 29.49
  Q 68.12 27.76 65.83 25.85
  Q 65.04 25.20 64.04 24.76
  Q 62.98 24.30 61.91 23.55
  Q 59.20 21.62 54.68 21.33
  Q 53.00 21.22 51.36 20.97
  Q 49.73 20.73 48.04 21.15
  Q 46.28 21.59 44.51 21.85
  Q 40.00 22.49 35.37 24.77
  Q 33.54 25.67 32.51 27.47
  Q 31.07 29.99 29.15 31.98
  C 28.53 32.62 28.16 33.51 27.92 34.37
  Q 27.81 34.81 27.43 35.06
  Q 26.80 35.48 26.91 36.23
  Q 26.95 36.55 26.73 36.78
  L 26.44 37.07
  Q 26.05 37.45 25.93 37.98
  Q 25.37 40.29 24.69 42.64
  C 24.16 44.50 24.52 46.34 24.25 48.24
  Q 23.96 50.29 24.39 52.28
  Q 24.93 54.77 25.44 57.18
  C 25.84 59.12 27.32 60.68 28.03 62.53
  Q 28.23 63.05 28.74 63.30
  Q 29.12 63.48 29.09 63.89
  Q 29.05 64.48 29.45 64.91
  Q 32.68 68.43 36.37 71.11
  Q 37.73 72.10 39.42 72.74
  C 41.37 73.47 42.93 74.35 45.10 74.36
  A 2.10 2.06 -29.4 0 1 46.07 74.62
  Q 48.12 75.80 50.49 75.12
  Q 51.21 74.92 51.93 75.27
  A 0.93 0.91 36.7 0 0 52.96 75.13
  Q 53.46 74.68 54.07 74.93
  A 1.27 1.25 -43.9 0 0 55.00 74.94
  C 56.30 74.41 56.72 74.32 58.34 74.32
  Q 59.73 74.32 60.03 72.99
  L 67.64 78.11
  Q 63.66 79.48 60.02 80.63
  Q 58.55 81.10 56.41 81.25
  Q 54.45 81.38 52.73 81.78
  Q 52.23 81.89 51.77 81.66
  Q 50.99 81.27 50.18 81.59
  A 1.47 1.44 42.0 0 1 49.24 81.63
  Q 47.27 81.09 45.21 80.88
  Q 44.25 80.78 43.34 80.38
  Q 42.26 79.91 41.11 79.58
  Q 39.54 79.13 38.22 78.24
  Q 36.36 76.99 34.39 75.92
  Q 30.00 73.55 26.70 69.07
  Q 18.48 57.90 20.74 43.96
  Q 24.43 32.92 33.44 25.51
  C 35.72 23.64 38.35 22.43 41.05 21.17
  Q 44.67 19.39 48.45 17.95
  Q 49.49 17.56 50.57 17.57
  Q 51.48 17.58 52.31 17.08
  Q 52.75 16.82 53.27 16.81
  Q 55.19 16.79 57.15 17.45
  Q 57.63 17.60 58.00 17.95
  Q 58.48 18.41 59.15 18.47
  Q 59.99 18.55 60.32 18.67
  Q 63.62 19.89 66.93 21.01
  Q 67.37 21.16 67.37 21.63
  L 67.37 21.91
  Q 67.37 22.49 67.95 22.47
  Q 69.53 22.44 70.42 23.65
  Q 71.06 24.54 72.02 25.20
  Q 72.66 25.64 73.32 26.07
  Q 74.00 26.51 74.46 27.14
  Q 76.66 30.21 78.76 33.44
  Q 79.72 34.93 80.17 36.70
  Q 80.56 38.22 81.16 39.73
  Q 83.16 44.76 82.58 52.37
  Q 82.46 53.98 81.86 55.41
  Q 81.68 55.82 81.75 56.26
  Q 81.83 56.74 81.50 57.08
  Q 81.16 57.43 81.11 57.91
  Q 80.73 61.06 78.81 63.91
  Z"
/>
<path fill="#ad90ad" d="
  M 25.55 17.56
  Q 30.71 19.42 36.56 18.87
  Q 37.04 18.83 37.52 18.95
  L 41.78 20.01
  L 40.70 20.66
  L 35.80 23.06
  Q 35.31 23.29 34.91 22.93
  L 33.34 21.55
  Q 32.94 21.20 32.45 21.40
  Q 31.75 21.70 31.25 22.32
  A 0.63 0.63 0.0 0 1 30.32 22.37
  L 25.55 17.56
  Z"
/>
<path fill="#254244" d="
  M 75.42 17.62
  Q 83.68 20.48 89.51 25.46
  Q 91.14 28.90 92.99 32.00
  Q 94.16 33.97 94.77 37.76
  A 1.89 1.87 -68.2 0 0 95.14 38.64
  Q 95.37 38.94 95.52 39.24
  Q 95.89 39.96 96.05 40.69
  Q 97.62 48.19 96.48 56.85
  Q 96.28 58.32 95.90 59.65
  Q 95.50 61.04 95.36 62.48
  C 95.15 64.60 94.20 66.46 93.45 68.40
  A 2.62 2.58 -10.3 0 1 92.74 69.41
  Q 91.56 70.46 91.91 72.00
  Q 92.03 72.54 91.57 72.85
  Q 90.74 73.40 90.41 74.42
  Q 90.06 75.52 89.29 76.44
  Q 88.30 77.65 87.22 78.63
  Q 86.85 78.97 86.84 79.46
  Q 86.82 80.17 86.12 80.30
  A 1.17 1.15 -74.5 0 0 85.41 80.71
  Q 83.96 82.44 82.22 83.76
  Q 78.08 86.91 73.33 89.32
  C 72.18 89.90 70.97 90.05 70.03 90.98
  Q 69.73 91.28 69.30 91.34
  L 66.77 91.69
  Q 66.41 91.74 66.21 92.05
  Q 65.80 92.69 65.04 92.65
  Q 64.51 92.62 63.95 92.73
  Q 54.05 94.56 46.99 93.12
  Q 38.22 91.33 29.06 84.99
  Q 22.26 77.75 19.91 68.19
  Q 21.30 69.97 21.96 72.15
  C 22.35 73.46 23.89 75.43 24.99 76.25
  Q 26.54 77.42 27.46 79.08
  Q 27.74 79.56 28.25 79.76
  Q 29.16 80.11 29.53 81.01
  A 1.68 1.65 -87.6 0 0 30.29 81.85
  Q 32.21 82.89 34.15 84.11
  Q 36.03 85.30 37.76 86.04
  Q 48.50 90.59 60.48 88.66
  Q 67.62 87.50 73.53 83.76
  Q 73.67 83.68 73.74 83.52
  Q 73.81 83.38 73.89 83.24
  Q 73.98 83.10 74.14 83.06
  Q 75.51 82.73 75.70 81.41
  Q 82.99 79.63 83.32 73.34
  L 84.26 73.35
  Q 84.84 73.35 84.94 72.78
  Q 85.07 72.10 85.61 71.65
  C 86.83 70.64 87.58 68.62 88.09 67.13
  Q 88.59 65.70 89.23 64.44
  Q 89.86 63.24 90.16 62.01
  Q 90.74 59.73 91.33 57.29
  Q 91.89 55.00 91.89 52.68
  Q 91.90 48.47 91.69 44.45
  Q 91.61 42.93 91.10 41.47
  Q 90.67 40.25 90.62 38.96
  Q 90.55 37.25 89.70 35.53
  Q 89.11 34.32 88.56 33.13
  Q 87.99 31.92 87.22 30.84
  Q 85.32 28.20 83.60 25.51
  Q 82.56 23.90 80.20 22.13
  Q 77.64 20.22 75.42 17.62
  Z"
/>
<path fill="#4c8788" d="
  M 74.67 59.43
  L 70.66 55.09
  Q 72.42 49.92 71.91 45.74
  Q 71.76 44.52 71.82 43.91
  A 2.01 1.98 -54.5 0 0 71.67 42.97
  Q 70.65 40.55 70.00 38.13
  Q 69.38 35.86 68.18 34.55
  Q 66.87 33.12 65.63 31.64
  Q 64.62 30.42 63.31 29.52
  Q 61.93 28.58 60.73 27.45
  Q 60.31 27.05 59.73 27.06
  Q 59.22 27.07 58.82 26.81
  Q 56.33 25.17 53.44 24.14
  A 0.37 0.36 -59.3 0 0 53.03 24.25
  Q 52.91 24.38 52.74 24.40
  Q 52.47 24.43 52.22 24.34
  Q 50.81 23.84 49.40 24.39
  Q 48.92 24.58 48.40 24.54
  L 45.88 24.33
  Q 45.32 24.28 44.86 24.61
  Q 43.83 25.36 42.57 25.38
  Q 41.93 25.39 41.62 25.95
  Q 41.42 26.32 41.02 26.40
  C 39.94 26.62 39.01 27.29 37.88 27.54
  Q 36.76 27.79 35.99 28.41
  Q 34.72 29.45 33.52 30.70
  A 1.39 1.36 -18.8 0 0 33.15 31.43
  Q 32.98 32.47 31.93 32.84
  Q 31.41 33.02 31.17 33.51
  C 30.50 34.83 29.36 35.58 28.81 36.95
  Q 26.71 42.17 26.61 47.73
  Q 26.54 51.61 28.25 55.50
  Q 30.22 59.98 32.89 63.18
  Q 36.29 67.26 42.77 69.44
  Q 43.32 69.63 43.87 69.42
  Q 44.38 69.23 44.71 69.67
  Q 45.10 70.19 45.75 70.26
  Q 49.44 70.69 53.27 70.55
  Q 54.75 70.50 55.95 70.10
  Q 58.00 71.01 60.03 72.99
  Q 59.73 74.32 58.34 74.32
  C 56.72 74.32 56.30 74.41 55.00 74.94
  A 1.27 1.25 -43.9 0 1 54.07 74.93
  Q 53.46 74.68 52.96 75.13
  A 0.93 0.91 36.7 0 1 51.93 75.27
  Q 51.21 74.92 50.49 75.12
  Q 48.12 75.80 46.07 74.62
  A 2.10 2.06 -29.4 0 0 45.10 74.36
  C 42.93 74.35 41.37 73.47 39.42 72.74
  Q 37.73 72.10 36.37 71.11
  Q 32.68 68.43 29.45 64.91
  Q 29.05 64.48 29.09 63.89
  Q 29.12 63.48 28.74 63.30
  Q 28.23 63.05 28.03 62.53
  C 27.32 60.68 25.84 59.12 25.44 57.18
  Q 24.93 54.77 24.39 52.28
  Q 23.96 50.29 24.25 48.24
  C 24.52 46.34 24.16 44.50 24.69 42.64
  Q 25.37 40.29 25.93 37.98
  Q 26.05 37.45 26.44 37.07
  L 26.73 36.78
  Q 26.95 36.55 26.91 36.23
  Q 26.80 35.48 27.43 35.06
  Q 27.81 34.81 27.92 34.37
  C 28.16 33.51 28.53 32.62 29.15 31.98
  Q 31.07 29.99 32.51 27.47
  Q 33.54 25.67 35.37 24.77
  Q 40.00 22.49 44.51 21.85
  Q 46.28 21.59 48.04 21.15
  Q 49.73 20.73 51.36 20.97
  Q 53.00 21.22 54.68 21.33
  Q 59.20 21.62 61.91 23.55
  Q 62.98 24.30 64.04 24.76
  Q 65.04 25.20 65.83 25.85
  Q 68.12 27.76 69.79 29.49
  Q 70.03 29.74 70.22 30.03
  Q 70.93 31.09 71.84 31.92
  Q 72.14 32.20 72.25 32.58
  Q 72.66 33.98 73.70 35.08
  Q 74.05 35.46 74.14 35.97
  C 74.39 37.42 75.45 38.51 75.64 39.91
  Q 75.79 41.02 76.14 42.11
  Q 76.56 43.43 76.63 44.99
  Q 76.68 46.18 76.86 48.00
  Q 77.36 53.03 74.67 59.43
  Z"
/>
<circle fill="#1e3e64" cx="26.40" cy="24.95" r="2.38"/>
<ellipse fill="#1e3e64" cx="0.00" cy="0.00" transform="translate(103.94,25.05) rotate(-26.9)" rx="2.28" ry="2.12"/>
<path fill="#539394" d="
  M 70.66 55.09
  L 65.10 50.94
  Q 66.96 42.84 62.71 36.20
  Q 59.84 31.72 55.78 29.90
  Q 51.32 27.89 45.86 28.50
  Q 43.43 28.77 41.07 29.41
  Q 39.16 29.93 37.82 31.30
  Q 36.34 32.81 34.89 34.20
  Q 33.69 35.35 33.08 36.71
  Q 32.49 38.03 31.80 39.28
  Q 30.71 41.23 30.43 43.64
  Q 29.51 51.48 34.41 57.97
  Q 35.93 60.00 38.85 61.82
  Q 39.76 62.39 40.72 62.57
  Q 41.37 62.70 41.95 63.07
  Q 42.44 63.38 43.00 63.50
  L 47.27 64.47
  Q 47.75 64.58 48.23 64.49
  Q 50.19 64.14 51.84 64.83
  L 55.95 70.10
  Q 54.75 70.50 53.27 70.55
  Q 49.44 70.69 45.75 70.26
  Q 45.10 70.19 44.71 69.67
  Q 44.38 69.23 43.87 69.42
  Q 43.32 69.63 42.77 69.44
  Q 36.29 67.26 32.89 63.18
  Q 30.22 59.98 28.25 55.50
  Q 26.54 51.61 26.61 47.73
  Q 26.71 42.17 28.81 36.95
  C 29.36 35.58 30.50 34.83 31.17 33.51
  Q 31.41 33.02 31.93 32.84
  Q 32.98 32.47 33.15 31.43
  A 1.39 1.36 -18.8 0 1 33.52 30.70
  Q 34.72 29.45 35.99 28.41
  Q 36.76 27.79 37.88 27.54
  C 39.01 27.29 39.94 26.62 41.02 26.40
  Q 41.42 26.32 41.62 25.95
  Q 41.93 25.39 42.57 25.38
  Q 43.83 25.36 44.86 24.61
  Q 45.32 24.28 45.88 24.33
  L 48.40 24.54
  Q 48.92 24.58 49.40 24.39
  Q 50.81 23.84 52.22 24.34
  Q 52.47 24.43 52.74 24.40
  Q 52.91 24.38 53.03 24.25
  A 0.37 0.36 -59.3 0 1 53.44 24.14
  Q 56.33 25.17 58.82 26.81
  Q 59.22 27.07 59.73 27.06
  Q 60.31 27.05 60.73 27.45
  Q 61.93 28.58 63.31 29.52
  Q 64.62 30.42 65.63 31.64
  Q 66.87 33.12 68.18 34.55
  Q 69.38 35.86 70.00 38.13
  Q 70.65 40.55 71.67 42.97
  A 2.01 1.98 -54.5 0 1 71.82 43.91
  Q 71.76 44.52 71.91 45.74
  Q 72.42 49.92 70.66 55.09
  Z"
/>
<path fill="#132322" d="
  M 89.51 25.46
  L 93.23 29.00
  Q 94.37 31.29 94.91 33.37
  Q 95.09 34.04 96.17 35.66
  Q 97.06 37.00 97.21 38.47
  Q 97.51 41.36 98.46 44.37
  Q 99.27 46.92 99.19 49.86
  Q 99.01 57.03 97.80 62.80
  Q 97.51 64.22 96.78 65.69
  A 0.92 0.86 -3.1 0 1 96.41 66.08
  Q 96.03 66.31 95.90 66.76
  Q 93.85 74.12 88.86 80.06
  Q 87.67 81.48 86.71 82.93
  Q 85.67 84.51 84.25 85.76
  C 82.37 87.42 81.17 88.96 78.65 90.13
  A 1.83 1.81 -85.9 0 0 77.91 90.78
  L 76.68 92.69
  Q 71.18 95.84 63.84 96.89
  Q 61.19 97.27 58.63 97.45
  Q 58.24 97.47 57.91 97.66
  Q 57.79 97.72 57.67 97.80
  Q 57.61 97.85 57.53 97.85
  Q 40.19 97.88 29.06 84.99
  Q 38.22 91.33 46.99 93.12
  Q 54.05 94.56 63.95 92.73
  Q 64.51 92.62 65.04 92.65
  Q 65.80 92.69 66.21 92.05
  Q 66.41 91.74 66.77 91.69
  L 69.30 91.34
  Q 69.73 91.28 70.03 90.98
  C 70.97 90.05 72.18 89.90 73.33 89.32
  Q 78.08 86.91 82.22 83.76
  Q 83.96 82.44 85.41 80.71
  A 1.17 1.15 -74.5 0 1 86.12 80.30
  Q 86.82 80.17 86.84 79.46
  Q 86.85 78.97 87.22 78.63
  Q 88.30 77.65 89.29 76.44
  Q 90.06 75.52 90.41 74.42
  Q 90.74 73.40 91.57 72.85
  Q 92.03 72.54 91.91 72.00
  Q 91.56 70.46 92.74 69.41
  A 2.62 2.58 -10.3 0 0 93.45 68.40
  C 94.20 66.46 95.15 64.60 95.36 62.48
  Q 95.50 61.04 95.90 59.65
  Q 96.28 58.32 96.48 56.85
  Q 97.62 48.19 96.05 40.69
  Q 95.89 39.96 95.52 39.24
  Q 95.37 38.94 95.14 38.64
  A 1.89 1.87 -68.2 0 1 94.77 37.76
  Q 94.16 33.97 92.99 32.00
  Q 91.14 28.90 89.51 25.46
  Z"
/>
<path fill="#63afaf" d="
  M 65.10 50.94
  Q 50.32 49.89 51.84 64.83
  Q 50.19 64.14 48.23 64.49
  Q 47.75 64.58 47.27 64.47
  L 43.00 63.50
  Q 42.44 63.38 41.95 63.07
  Q 41.37 62.70 40.72 62.57
  Q 39.76 62.39 38.85 61.82
  Q 35.93 60.00 34.41 57.97
  Q 29.51 51.48 30.43 43.64
  Q 30.71 41.23 31.80 39.28
  Q 32.49 38.03 33.08 36.71
  Q 33.69 35.35 34.89 34.20
  Q 36.34 32.81 37.82 31.30
  Q 39.16 29.93 41.07 29.41
  Q 43.43 28.77 45.86 28.50
  Q 51.32 27.89 55.78 29.90
  Q 59.84 31.72 62.71 36.20
  Q 66.96 42.84 65.10 50.94
  Z
  M 54.67 38.79
  Q 53.16 35.68 50.40 34.53
  C 49.23 34.04 48.08 34.26 46.93 33.74
  Q 46.21 33.42 45.45 33.63
  Q 43.75 34.12 42.11 34.53
  C 40.34 34.97 39.09 36.69 37.76 37.91
  Q 36.49 39.08 36.06 40.86
  Q 35.08 44.86 36.29 48.63
  Q 37.46 52.25 40.90 54.32
  Q 44.03 56.19 48.30 55.52
  A 5.03 5.02 19.0 0 0 50.93 54.24
  C 52.46 52.84 54.52 51.72 55.28 49.72
  Q 56.26 47.12 56.14 44.82
  Q 56.00 42.26 55.54 39.69
  Q 55.49 39.41 55.22 39.30
  Q 54.85 39.15 54.67 38.79
  Z"
/>
<path fill="#0b1523" d="
  M 93.23 29.00
  Q 95.97 31.75 96.64 32.99
  Q 100.18 39.54 100.38 46.26
  Q 100.42 47.73 100.88 49.05
  Q 101.61 51.19 101.08 53.55
  Q 100.52 56.02 100.40 58.61
  C 100.32 60.30 99.31 61.48 99.25 63.20
  Q 99.23 63.78 98.86 64.22
  Q 98.66 64.47 98.50 64.75
  Q 98.34 65.03 98.34 65.34
  Q 98.32 68.17 97.03 70.34
  C 96.12 71.86 95.99 73.57 95.12 75.13
  Q 94.89 75.56 94.50 75.86
  Q 94.02 76.24 94.14 76.87
  Q 94.24 77.38 93.79 77.65
  Q 92.43 78.49 91.93 80.07
  Q 91.73 80.71 91.19 81.10
  Q 89.42 82.40 88.76 84.28
  A 1.43 1.40 88.7 0 1 88.00 85.09
  C 86.05 85.92 85.44 87.76 83.55 88.73
  Q 82.33 89.36 81.18 90.26
  C 80.16 91.07 79.19 90.99 78.16 91.83
  Q 77.63 92.25 76.68 92.69
  L 77.91 90.78
  A 1.83 1.81 -85.9 0 1 78.65 90.13
  C 81.17 88.96 82.37 87.42 84.25 85.76
  Q 85.67 84.51 86.71 82.93
  Q 87.67 81.48 88.86 80.06
  Q 93.85 74.12 95.90 66.76
  Q 96.03 66.31 96.41 66.08
  A 0.92 0.86 -3.1 0 0 96.78 65.69
  Q 97.51 64.22 97.80 62.80
  Q 99.01 57.03 99.19 49.86
  Q 99.27 46.92 98.46 44.37
  Q 97.51 41.36 97.21 38.47
  Q 97.06 37.00 96.17 35.66
  Q 95.09 34.04 94.91 33.37
  Q 94.37 31.29 93.23 29.00
  Z"
/>
<path fill="#73cbcb" d="
  M 55.22 39.30
  Q 55.49 39.41 55.54 39.69
  Q 56.00 42.26 56.14 44.82
  Q 56.26 47.12 55.28 49.72
  C 54.52 51.72 52.46 52.84 50.93 54.24
  A 5.03 5.02 19.0 0 1 48.30 55.52
  Q 44.03 56.19 40.90 54.32
  Q 37.46 52.25 36.29 48.63
  Q 35.08 44.86 36.06 40.86
  Q 36.49 39.08 37.76 37.91
  C 39.09 36.69 40.34 34.97 42.11 34.53
  Q 43.75 34.12 45.45 33.63
  Q 46.21 33.42 46.93 33.74
  C 48.08 34.26 49.23 34.04 50.40 34.53
  Q 53.16 35.68 54.67 38.79
  Q 54.85 39.15 55.22 39.30
  Z"
/>
<path fill="#355e60" d="
  M 20.74 43.96
  Q 18.48 57.90 26.70 69.07
  Q 30.00 73.55 34.39 75.92
  Q 36.36 76.99 38.22 78.24
  Q 39.54 79.13 41.11 79.58
  Q 42.26 79.91 43.34 80.38
  Q 44.25 80.78 45.21 80.88
  Q 47.27 81.09 49.24 81.63
  A 1.47 1.44 42.0 0 0 50.18 81.59
  Q 50.99 81.27 51.77 81.66
  Q 52.23 81.89 52.73 81.78
  Q 54.45 81.38 56.41 81.25
  Q 58.55 81.10 60.02 80.63
  Q 63.66 79.48 67.64 78.11
  L 75.70 81.41
  Q 75.51 82.73 74.14 83.06
  Q 73.98 83.10 73.89 83.24
  Q 73.81 83.38 73.74 83.52
  Q 73.67 83.68 73.53 83.76
  Q 67.62 87.50 60.48 88.66
  Q 48.50 90.59 37.76 86.04
  Q 36.03 85.30 34.15 84.11
  Q 32.21 82.89 30.29 81.85
  A 1.68 1.65 -87.6 0 1 29.53 81.01
  Q 29.16 80.11 28.25 79.76
  Q 27.74 79.56 27.46 79.08
  Q 26.54 77.42 24.99 76.25
  C 23.89 75.43 22.35 73.46 21.96 72.15
  Q 21.30 69.97 19.91 68.19
  Q 16.29 56.11 20.74 43.96
  Z"
/>
<path fill="#000101" d="
  M 65.10 50.94
  L 70.66 55.09
  L 74.67 59.43
  L 78.81 63.91
  Q 79.95 65.33 81.33 67.15
  Q 83.32 69.78 83.32 73.34
  Q 82.99 79.63 75.70 81.41
  L 67.64 78.11
  L 60.03 72.99
  Q 58.00 71.01 55.95 70.10
  L 51.84 64.83
  Q 50.32 49.89 65.10 50.94
  Z
  M 65.94 60.37
  A 4.68 4.68 0.0 0 0 61.26 55.69
  A 4.68 4.68 0.0 0 0 56.58 60.37
  A 4.68 4.68 0.0 0 0 61.26 65.05
  A 4.68 4.68 0.0 0 0 65.94 60.37
  Z"
/>
<circle fill="#4d91e9" cx="61.26" cy="60.37" r="4.68"/>
<path fill="#3c72b8" d="
  M 13.06 64.53
  A 0.88 0.88 0.0 0 1 12.16 65.39
  L 10.81 65.37
  A 4.13 2.79 1.1 0 1 6.74 62.50
  L 6.74 62.26
  A 4.13 2.79 1.1 0 1 10.93 59.55
  L 12.28 59.57
  A 0.88 0.88 0.0 0 1 13.14 60.47
  L 13.06 64.53
  Z"
/>
<ellipse fill="#0b1523" cx="0.00" cy="0.00" transform="translate(119.53,62.15) rotate(-0.9)" rx="3.94" ry="2.61"/>
<path fill="#ad90ad" d="
  M 128.00 65.28
  L 128.00 128.00
  L 69.74 128.00
  L 72.64 126.30
  Q 94.99 125.35 116.99 125.97
  Q 121.33 126.10 125.32 126.53
  Q 127.09 126.72 127.08 124.94
  C 127.06 120.45 126.36 116.09 126.43 111.52
  C 126.57 102.10 126.89 92.70 126.68 83.34
  Q 126.59 79.17 126.95 75.00
  C 127.19 72.32 127.09 69.69 127.24 66.99
  L 128.00 65.28
  Z"
/>
<path fill="#786478" d="
  M 127.24 66.99
  C 127.09 69.69 127.19 72.32 126.95 75.00
  Q 126.59 79.17 126.68 83.34
  C 126.89 92.70 126.57 102.10 126.43 111.52
  C 126.36 116.09 127.06 120.45 127.08 124.94
  Q 127.09 126.72 125.32 126.53
  Q 121.33 126.10 116.99 125.97
  Q 94.99 125.35 72.64 126.30
  C 73.12 124.90 73.50 124.04 73.42 122.53
  Q 73.12 116.78 76.05 114.79
  Q 92.65 114.94 109.17 114.89
  Q 110.32 114.89 111.26 114.44
  Q 112.23 113.97 113.18 113.53
  A 2.48 2.46 81.0 0 0 114.59 111.57
  Q 114.73 110.36 115.27 109.29
  Q 115.48 108.88 115.47 108.43
  L 115.34 74.45
  Q 115.34 73.99 115.12 73.59
  L 114.63 72.66
  Q 115.07 71.85 115.97 71.33
  Q 116.45 71.06 116.47 70.51
  L 116.52 69.60
  Q 116.54 68.99 117.16 69.00
  C 120.51 69.03 124.59 69.92 127.24 66.99
  Z"
/>
<path fill="#ad90ad" d="
  M 0.00 67.63
  L 2.54 71.15
  Q 1.64 81.54 1.87 90.75
  Q 2.22 104.41 1.87 115.50
  Q 1.82 116.94 3.02 119.56
  Q 5.28 122.26 9.91 117.78
  Q 10.07 117.62 10.15 117.83
  Q 10.22 118.01 10.39 118.04
  Q 8.62 118.74 7.98 119.98
  L 5.30 121.24
  Q 4.76 121.50 4.22 121.25
  L 3.78 121.04
  Q 2.68 120.53 3.54 121.39
  L 4.27 122.11
  Q 4.62 122.47 5.09 122.29
  Q 7.02 121.57 7.98 119.98
  Q 9.81 119.43 10.39 118.04
  L 17.61 110.73
  A 0.76 0.72 -23.5 0 0 17.83 110.21
  L 17.87 108.50
  L 21.54 111.98
  L 17.37 114.63
  Q 17.05 114.83 16.86 115.17
  Q 15.91 116.87 14.33 117.92
  Q 11.43 119.84 9.61 122.79
  Q 9.06 123.68 8.97 124.85
  Q 8.92 125.45 9.52 125.51
  Q 10.22 125.59 10.67 125.44
  C 11.99 125.83 13.07 126.19 14.47 126.14
  Q 37.63 125.23 60.71 126.37
  L 63.45 128.00
  L 0.00 128.00
  L 0.00 67.63
  Z"
/>
<path fill="#fdd5f5" d="
  M 2.54 71.15
  L 10.76 71.65
  Q 11.41 71.69 11.43 72.34
  Q 11.49 74.41 13.83 74.49
  Q 14.46 74.51 14.67 75.11
  L 18.29 85.44
  Q 19.01 93.76 17.22 100.71
  Q 15.21 102.34 15.27 104.82
  L 14.77 109.75
  A 1.69 1.64 71.3 0 1 14.28 110.78
  Q 11.21 113.82 8.70 117.73
  Q 7.72 119.25 6.27 119.81
  Q 4.60 120.44 3.02 119.56
  Q 1.82 116.94 1.87 115.50
  Q 2.22 104.41 1.87 90.75
  Q 1.64 81.54 2.54 71.15
  Z"
/>
<path fill="#ad90ad" d="
  M 114.63 72.66
  L 115.12 73.59
  Q 115.34 73.99 115.34 74.45
  L 115.47 108.43
  Q 115.48 108.88 115.27 109.29
  Q 114.73 110.36 114.59 111.57
  A 2.48 2.46 81.0 0 1 113.18 113.53
  Q 112.23 113.97 111.26 114.44
  Q 110.32 114.89 109.17 114.89
  Q 92.65 114.94 76.05 114.79
  C 76.45 113.45 76.52 112.58 77.92 112.01
  Q 79.94 111.19 81.44 110.81
  Q 90.78 111.49 99.67 111.29
  Q 102.01 111.23 104.27 111.55
  Q 106.60 111.88 108.95 111.28
  Q 110.52 110.89 111.36 109.47
  Q 112.33 107.82 111.93 106.32
  Q 112.57 105.29 113.62 103.91
  Q 115.24 101.76 113.67 99.73
  Q 111.87 97.40 109.32 95.21
  Q 107.69 93.82 109.32 92.52
  Q 109.78 92.16 109.56 91.62
  Q 109.16 90.63 108.32 89.98
  Q 107.72 89.52 108.14 88.88
  Q 110.11 85.86 111.54 82.34
  C 112.81 79.19 113.56 75.91 114.63 72.66
  Z"
/>
<path fill="#ad90ad" d="
  M 18.29 85.44
  L 21.16 90.48
  Q 21.42 90.92 21.17 91.37
  L 19.92 93.70
  Q 19.57 94.34 19.95 94.97
  L 20.58 95.99
  Q 20.89 96.48 20.51 96.92
  L 17.22 100.71
  Q 19.01 93.76 18.29 85.44
  Z"
/>
<path fill="#ad90ad" d="
  M 111.93 106.32
  Q 112.33 107.82 111.36 109.47
  Q 110.52 110.89 108.95 111.28
  Q 106.60 111.88 104.27 111.55
  Q 102.01 111.23 99.67 111.29
  Q 90.78 111.49 81.44 110.81
  Q 88.46 107.96 93.96 104.22
  Q 94.55 103.82 95.05 104.33
  L 95.49 104.77
  A 1.20 1.20 0.0 0 0 96.99 104.94
  L 98.02 104.30
  Q 98.69 103.88 99.21 104.47
  Q 101.26 106.78 103.60 108.81
  C 107.23 111.94 109.25 108.22 111.93 106.32
  Z"
/>
<path fill="#e7c0e1" d="
  M 15.27 104.82
  Q 15.90 106.85 17.87 108.50
  L 17.83 110.21
  A 0.76 0.72 -23.5 0 1 17.61 110.73
  L 10.39 118.04
  Q 10.22 118.01 10.15 117.83
  Q 10.07 117.62 9.91 117.78
  Q 5.28 122.26 3.02 119.56
  Q 4.60 120.44 6.27 119.81
  Q 7.72 119.25 8.70 117.73
  Q 11.21 113.82 14.28 110.78
  A 1.69 1.64 71.3 0 0 14.77 109.75
  L 15.27 104.82
  Z"
/>
<path fill="#ad90ad" d="
  M 54.87 112.98
  Q 55.28 113.38 54.92 113.73
  Q 54.72 113.92 54.34 113.93
  Q 41.56 114.31 29.67 114.14
  C 26.31 114.09 20.36 112.35 18.39 116.35
  Q 17.07 119.05 13.82 120.48
  A 1.01 1.00 -2.9 0 0 13.27 121.08
  Q 13.06 121.70 12.53 121.59
  Q 9.91 123.09 10.67 125.44
  Q 10.22 125.59 9.52 125.51
  Q 8.92 125.45 8.97 124.85
  Q 9.06 123.68 9.61 122.79
  Q 11.43 119.84 14.33 117.92
  Q 15.91 116.87 16.86 115.17
  Q 17.05 114.83 17.37 114.63
  L 21.54 111.98
  Q 23.90 113.20 26.20 110.93
  Q 28.49 108.67 30.26 106.45
  A 1.29 1.28 42.5 0 1 32.20 106.37
  Q 33.46 107.70 34.57 106.17
  A 1.54 1.53 -56.5 0 1 36.61 105.75
  Q 44.94 110.71 54.87 112.98
  Z"
/>
<path fill="#786478" d="
  M 54.87 112.98
  Q 55.55 112.72 56.13 112.96
  Q 56.60 113.15 56.69 113.64
  Q 57.07 115.81 58.99 116.80
  Q 59.45 117.04 59.43 117.55
  Q 59.25 122.82 60.71 126.37
  Q 37.63 125.23 14.47 126.14
  C 13.07 126.19 11.99 125.83 10.67 125.44
  Q 9.91 123.09 12.53 121.59
  Q 13.06 121.70 13.27 121.08
  A 1.01 1.00 -2.9 0 1 13.82 120.48
  Q 17.07 119.05 18.39 116.35
  C 20.36 112.35 26.31 114.09 29.67 114.14
  Q 41.56 114.31 54.34 113.93
  Q 54.72 113.92 54.92 113.73
  Q 55.28 113.38 54.87 112.98
  Z"
/>
<ellipse fill="#0b1523" cx="0.00" cy="0.00" transform="translate(67.30,118.98) rotate(90.0)" rx="4.39" ry="2.11"/>
<path fill="#e7c0e1" d="
  M 10.39 118.04
  Q 9.81 119.43 7.98 119.98
  Q 8.62 118.74 10.39 118.04
  Z"
/>
<path fill="#e7c0e1" d="
  M 7.98 119.98
  Q 7.02 121.57 5.09 122.29
  Q 4.62 122.47 4.27 122.11
  L 3.54 121.39
  Q 2.68 120.53 3.78 121.04
  L 4.22 121.25
  Q 4.76 121.50 5.30 121.24
  L 7.98 119.98
  Z"
/>
</svg>
