<?xml version="1.0" encoding="UTF-8" standalone="no"?>
<!DOCTYPE svg PUBLIC "-//W3C//DTD SVG 1.1//EN" "http://www.w3.org/Graphics/SVG/1.1/DTD/svg11.dtd">
<svg xmlns="http://www.w3.org/2000/svg" version="1.1" viewBox="0.00 0.00 128.00 128.00">
<g stroke-width="2.00" fill="none" stroke-linecap="butt">
<path stroke="#278036" vector-effect="non-scaling-stroke" d="
  M 106.96 128.00
  Q 112.34 122.24 111.12 112.42
  Q 110.75 109.40 110.73 107.52
  Q 110.71 105.16 110.61 102.59"
/>
<path stroke="#659c6f" vector-effect="non-scaling-stroke" d="
  M 110.61 102.59
  Q 111.17 101.64 108.90 100.10
  Q 107.02 98.83 106.32 97.76
  Q 104.81 95.46 102.89 93.24
  A 0.51 0.51 0.0 0 1 103.14 92.41
  Q 103.78 92.23 104.29 91.84
  Q 104.65 91.57 104.77 91.14
  Q 105.36 89.05 104.57 87.28
  Q 103.95 85.90 102.06 85.08
  Q 97.26 82.99 94.57 88.13
  Q 94.35 88.56 94.37 89.04
  Q 94.40 89.47 94.58 89.85
  A 0.70 0.70 0.0 0 1 94.07 90.85
  Q 89.05 91.73 85.20 89.99"
/>
<path stroke="#278036" vector-effect="non-scaling-stroke" d="
  M 85.20 89.99
  Q 83.29 89.28 85.70 88.74
  Q 86.25 88.62 86.76 88.36
  C 91.53 85.91 95.64 84.19 98.13 79.06
  Q 104.85 65.22 109.78 51.54
  A 2.70 2.69 -47.6 0 0 109.69 49.46
  Q 105.40 40.18 100.86 31.01
  Q 98.78 26.79 96.66 21.50
  Q 96.55 21.22 96.32 21.03
  Q 96.04 20.79 95.79 20.74"
/>
<path stroke="#388f48" vector-effect="non-scaling-stroke" d="
  M 95.79 20.74
  Q 95.52 20.29 95.15 20.08
  Q 80.35 11.81 64.77 5.13
  Q 63.75 4.70 62.97 5.23"
/>
<path stroke="#40a74f" vector-effect="non-scaling-stroke" d="
  M 62.97 5.23
  Q 47.38 11.55 33.67 21.18
  Q 31.94 22.39 30.96 24.24
  Q 28.32 29.20 25.84 34.26"
/>
<path stroke="#278036" vector-effect="non-scaling-stroke" d="
  M 25.84 34.26
  Q 22.59 41.67 19.51 49.18
  Q 18.36 51.99 19.42 54.75
  C 21.06 59.01 22.60 63.34 24.68 67.42
  Q 27.55 73.05 30.68 78.88
  Q 31.09 79.63 31.70 80.27
  Q 32.35 80.95 32.32 81.82
  Q 32.29 82.52 31.60 82.37
  Q 28.63 81.76 27.09 83.46"
/>
<path stroke="#659c6f" vector-effect="non-scaling-stroke" d="
  M 27.09 83.46
  L 24.42 85.67"
/>
<path stroke="#278036" vector-effect="non-scaling-stroke" d="
  M 24.42 85.67
  C 22.03 86.76 21.99 88.36 22.94 90.67
  Q 23.69 92.53 24.25 94.55"
/>
<path stroke="#659c6f" vector-effect="non-scaling-stroke" d="
  M 24.25 94.55
  L 17.68 100.72
  Q 17.45 100.94 17.13 101.01
  L 16.46 101.16
  Q 15.82 101.30 16.16 101.86
  Q 16.30 102.08 16.62 102.21"
/>
<path stroke="#388f48" vector-effect="non-scaling-stroke" d="
  M 16.62 102.21
  L 16.88 117.20"
/>
<path stroke="#278036" vector-effect="non-scaling-stroke" d="
  M 16.88 117.20
  Q 15.74 123.65 21.45 128.00"
/>
<path stroke="#388f48" vector-effect="non-scaling-stroke" d="
  M 36.57 4.10
  A 1.51 1.51 0.0 0 0 35.21 3.67
  L 33.85 3.92
  A 1.51 1.51 0.0 0 0 32.80 6.12
  L 33.95 8.26
  A 1.51 1.51 0.0 0 0 36.41 8.54
  L 37.61 7.19
  A 1.51 1.51 0.0 0 0 37.57 5.14
  L 36.57 4.10"
/>
<path stroke="#388f48" vector-effect="non-scaling-stroke" d="
  M 93.9545 6.6677
  A 2.35 2.35 0.0 0 0 91.1300 4.9164
  L 89.9227 5.1995
  A 2.35 2.35 0.0 0 0 88.1715 8.0241
  L 88.4455 9.1923
  A 2.35 2.35 0.0 0 0 91.2700 10.9436
  L 92.4773 10.6605
  A 2.35 2.35 0.0 0 0 94.2285 7.8359
  L 93.9545 6.6677"
/>
<path stroke="#278036" vector-effect="non-scaling-stroke" d="
  M 25.45 11.64
  Q 21.70 13.31 21.20 16.47
  Q 21.10 17.12 21.47 17.67
  Q 23.52 20.71 26.59 23.47
  Q 27.45 24.25 28.39 23.56
  Q 30.24 22.20 32.48 20.92
  Q 34.66 19.68 35.67 17.97
  C 37.19 15.40 34.26 12.50 32.32 11.06
  Q 29.49 8.97 25.83 11.15
  Q 25.71 11.22 25.68 11.36
  Q 25.64 11.55 25.45 11.64"
/>
<path stroke="#388f48" vector-effect="non-scaling-stroke" d="
  M 94.25 14.90
  Q 93.31 15.80 94.28 16.96
  Q 96.51 19.63 99.26 21.80
  A 2.00 2.00 0.0 0 0 101.97 21.59
  L 105.61 17.65
  Q 105.99 17.23 105.84 16.69
  Q 105.19 14.43 103.18 12.99
  Q 102.79 12.71 102.57 12.29
  Q 101.94 11.09 100.09 10.48"
/>
<path stroke="#659c6f" vector-effect="non-scaling-stroke" d="
  M 100.09 10.48
  Q 96.98 10.59 94.25 14.90"
/>
<path stroke="#7ad88b" vector-effect="non-scaling-stroke" d="
  M 100.09 10.48
  Q 103.09 13.42 100.76 15.54
  Q 97.71 18.31 94.25 14.90"
/>
<path stroke="#388f48" vector-effect="non-scaling-stroke" d="
  M 23.43 74.58
  A 2.97 2.97 0.0 0 0 20.46 71.61
  A 2.97 2.97 0.0 0 0 17.49 74.58
  A 2.97 2.97 0.0 0 0 20.46 77.55
  A 2.97 2.97 0.0 0 0 23.43 74.58"
/>
<path stroke="#3cbc52" vector-effect="non-scaling-stroke" d="
  M 95.79 20.74
  Q 95.61 21.04 95.61 21.45
  Q 95.61 22.02 95.07 22.21
  Q 93.26 22.85 91.26 22.81
  C 89.97 22.79 88.66 23.42 87.57 24.04
  Q 86.81 24.47 87.63 24.76
  Q 88.70 25.16 89.82 25.25
  Q 90.27 25.28 90.42 25.71
  Q 90.61 26.24 90.54 26.80
  Q 90.48 27.29 90.03 27.50
  Q 89.00 27.99 88.45 29.01
  Q 87.00 31.71 86.33 34.12
  Q 85.70 36.39 86.73 39.09
  Q 86.92 39.58 87.45 39.53
  L 90.00 39.31
  Q 90.72 39.24 90.37 39.88
  L 88.51 43.22
  Q 88.25 43.68 88.13 44.20
  L 86.76 50.20"
/>
<path stroke="#3cd655" vector-effect="non-scaling-stroke" d="
  M 86.76 50.20
  Q 86.55 50.34 86.45 50.46
  Q 86.15 50.82 86.30 50.37
  Q 86.81 48.84 86.65 47.13
  A 1.67 1.67 0.0 0 0 86.33 46.28
  Q 85.52 45.16 85.37 43.75
  Q 85.32 43.25 84.97 42.88
  Q 84.22 42.08 84.16 40.79
  Q 84.13 40.24 83.82 39.77
  Q 83.27 38.94 83.05 38.01
  Q 82.92 37.46 82.52 37.07
  Q 81.07 35.65 80.29 33.64
  Q 79.83 32.44 79.02 31.41
  Q 78.23 30.42 77.24 29.56
  Q 76.32 28.77 75.32 28.12
  Q 74.63 27.67 75.45 27.65
  Q 76.14 27.63 76.47 27.28"
/>
<path stroke="#a0e4ab" vector-effect="non-scaling-stroke" d="
  M 76.47 27.28
  Q 77.51 27.58 78.69 28.73"
/>
<path stroke="#55e36b" vector-effect="non-scaling-stroke" d="
  M 78.69 28.73
  L 84.01 36.58
  Q 84.92 37.92 85.17 36.33
  Q 85.22 35.99 85.17 35.64
  Q 85.12 35.20 85.29 34.81
  Q 86.62 31.85 87.67 28.78
  Q 87.89 28.15 88.51 27.92
  Q 89.29 27.64 89.38 26.77
  A 0.76 0.75 10.1 0 0 88.81 25.96
  L 78.82 23.53"
/>
<path stroke="#a0e4ab" vector-effect="non-scaling-stroke" d="
  M 78.82 23.53
  Q 78.11 23.24 77.71 22.73"
/>
<path stroke="#55e36b" vector-effect="non-scaling-stroke" d="
  M 77.71 22.73
  Q 76.49 21.74 75.53 20.60
  C 71.77 16.12 66.91 12.82 63.99 7.72
  Q 63.73 7.27 63.92 6.78
  L 64.14 6.23
  Q 64.41 5.55 63.69 5.39
  L 62.97 5.23"
/>
<path stroke="#a8fbb2" vector-effect="non-scaling-stroke" d="
  M 77.71 22.73
  Q 76.86 22.19 76.22 22.10
  Q 75.71 22.03 75.39 22.43
  Q 73.50 24.78 70.46 25.22"
/>
<path stroke="#76fa89" vector-effect="non-scaling-stroke" d="
  M 70.46 25.22
  Q 62.72 25.81 54.90 24.30"
/>
<path stroke="#a8fbb2" vector-effect="non-scaling-stroke" d="
  M 54.90 24.30
  Q 52.78 23.78 50.40 22.21
  Q 49.93 21.91 49.44 22.16
  Q 43.71 25.09 37.24 24.99
  Q 36.66 24.99 36.49 25.53
  L 32.07 39.34"
/>
<path stroke="#44ed5c" vector-effect="non-scaling-stroke" d="
  M 32.07 39.34
  L 22.14 47.23"
/>
<path stroke="#43d359" vector-effect="non-scaling-stroke" d="
  M 22.14 47.23
  Q 21.58 43.29 24.52 40.14
  C 25.04 39.59 25.18 39.04 25.15 38.30
  Q 25.12 37.78 25.40 37.35
  Q 26.20 36.09 25.84 34.26"
/>
<path stroke="#68c979" vector-effect="non-scaling-stroke" d="
  M 23.07 14.05
  A 1.36 1.36 0.0 0 0 22.90 16.18
  L 23.45 16.70
  A 1.36 1.36 0.0 0 0 24.00 17.01
  L 28.87 18.42
  A 1.36 1.36 0.0 0 0 30.58 16.83
  L 29.54 11.99
  A 1.36 1.36 0.0 0 0 27.46 11.14
  L 23.07 14.05"
/>
<path stroke="#68c979" vector-effect="non-scaling-stroke" d="
  M 85.20 89.99
  L 79.79 89.92"
/>
<path stroke="#2bc643" vector-effect="non-scaling-stroke" d="
  M 79.79 89.92
  Q 81.60 88.68 83.76 88.80
  Q 84.26 88.83 84.52 88.41
  Q 84.72 88.08 85.01 87.87
  Q 89.12 84.86 93.63 82.13
  Q 95.19 81.18 95.86 79.47
  Q 97.14 76.24 97.36 72.62
  Q 97.36 72.52 97.41 72.42
  Q 97.47 72.28 97.59 72.18
  Q 97.99 71.82 97.78 71.32
  C 96.67 68.66 96.15 64.07 97.96 61.47
  Q 98.82 60.24 99.22 58.80
  Q 99.48 57.87 99.82 57.02
  A 1.27 1.27 0.0 0 0 98.52 55.29
  L 94.99 55.64
  A 1.44 1.43 -29.0 0 1 94.00 55.36
  Q 93.05 54.64 92.11 55.16
  Q 91.73 55.36 91.31 55.22
  Q 89.72 54.65 88.98 56.04
  A 1.28 1.28 0.0 0 1 86.83 56.22
  Q 85.57 54.58 86.34 52.63
  Q 86.52 52.17 86.58 51.69
  L 86.76 50.20"
/>
<path stroke="#c1fbc8" vector-effect="non-scaling-stroke" d="
  M 54.90 24.30
  Q 54.94 24.56 55.13 24.75
  Q 55.64 25.26 55.63 25.44
  Q 55.63 25.53 55.57 25.60
  Q 55.27 26.01 54.77 26.04
  Q 52.68 26.16 50.78 27.22
  Q 50.14 27.57 50.87 27.61
  L 53.92 27.77"
/>
<path stroke="#cdf1d1" vector-effect="non-scaling-stroke" d="
  M 53.92 27.77
  L 56.57 29.24"
/>
<path stroke="#c1fbc8" vector-effect="non-scaling-stroke" d="
  M 56.57 29.24
  Q 56.66 32.08 55.03 34.45
  Q 54.52 35.19 53.36 36.00
  C 51.77 37.11 50.49 38.76 48.53 39.03
  C 46.29 39.34 44.89 37.43 42.71 39.14
  Q 41.98 39.72 41.67 41.22
  Q 41.05 44.21 39.79 47.00"
/>
<path stroke="#8fee9c" vector-effect="non-scaling-stroke" d="
  M 39.79 47.00
  Q 36.93 42.38 32.07 39.34"
/>
<path stroke="#a8fbb2" vector-effect="non-scaling-stroke" d="
  M 78.82 23.53
  Q 82.30 25.70 78.69 28.73"
/>
<path stroke="#8fee9c" vector-effect="non-scaling-stroke" d="
  M 76.47 27.28
  Q 75.05 25.99 73.00 26.31"
/>
<path stroke="#c1fbc8" vector-effect="non-scaling-stroke" d="
  M 73.00 26.31
  Q 69.77 26.62 70.46 25.22"
/>
<path stroke="#5ded73" vector-effect="non-scaling-stroke" d="
  M 73.00 26.31
  Q 70.21 26.75 67.91 28.03
  Q 67.36 28.34 67.95 28.55
  Q 68.44 28.72 69.33 28.65"
/>
<path stroke="#76fa89" vector-effect="non-scaling-stroke" d="
  M 69.33 28.65
  Q 68.28 29.44 67.56 30.27
  Q 67.32 30.54 67.36 30.19
  Q 67.37 30.05 67.57 30.13
  Q 67.75 30.20 67.80 30.02
  Q 67.93 29.62 67.85 29.20
  Q 67.80 28.98 67.60 28.91
  Q 67.45 28.85 67.28 28.89
  Q 66.88 28.97 66.91 29.37
  Q 66.97 30.28 66.20 30.86
  Q 65.75 31.20 65.39 31.65
  Q 62.40 35.38 58.95 40.09
  Q 57.72 41.78 55.63 42.57
  Q 53.36 43.43 50.24 43.89
  Q 45.42 44.60 42.45 48.24"
/>
<path stroke="#5ded73" vector-effect="non-scaling-stroke" d="
  M 42.45 48.24
  L 42.03 50.80
  Q 41.68 52.87 41.04 50.87
  L 39.79 47.00"
/>
<path stroke="#9befa8" vector-effect="non-scaling-stroke" d="
  M 56.57 29.24
  Q 55.52 26.78 57.86 29.28
  Q 57.96 29.38 58.09 29.35
  Q 58.27 29.30 58.29 29.15
  Q 58.35 28.63 58.60 29.10
  Q 58.70 29.29 58.90 29.34
  A 0.39 0.39 0.0 0 0 59.39 28.95
  Q 59.37 28.50 58.96 28.31
  Q 56.74 27.28 53.92 27.77"
/>
<path stroke="#69e37c" vector-effect="non-scaling-stroke" d="
  M 79.79 89.92
  Q 77.73 88.84 75.49 88.97
  A 2.27 2.26 -35.2 0 1 74.49 88.80
  C 72.63 88.04 70.83 88.18 68.92 87.53
  C 66.51 86.71 63.39 86.78 60.97 87.74
  Q 58.33 88.79 55.24 88.98
  Q 54.05 89.05 52.39 89.65
  Q 50.67 90.26 49.35 89.74"
/>
<path stroke="#2bc643" vector-effect="non-scaling-stroke" d="
  M 49.35 89.74
  Q 47.93 88.86 46.32 88.24
  Q 44.59 87.57 43.39 86.68
  Q 40.54 84.57 37.48 82.74
  A 1.49 1.49 0.0 0 1 37.85 80.02
  Q 39.80 79.48 42.36 79.09
  Q 43.25 78.95 44.53 77.50"
/>
<path stroke="#3cd655" vector-effect="non-scaling-stroke" d="
  M 44.53 77.50
  Q 45.58 76.03 46.98 75.45
  Q 49.29 74.50 49.38 74.45
  Q 51.94 73.13 54.00 73.91
  Q 56.68 74.93 57.98 74.73
  A 4.80 4.77 56.0 0 1 61.23 75.37
  Q 62.82 76.35 64.77 77.71"
/>
<path stroke="#2bc643" vector-effect="non-scaling-stroke" d="
  M 64.77 77.71
  L 67.35 81.44
  Q 67.64 81.85 68.14 81.84
  L 72.94 81.70
  Q 73.45 81.68 73.84 81.35
  Q 74.34 80.91 74.96 80.83
  C 77.36 80.51 79.55 79.88 82.03 79.84
  Q 86.73 79.75 90.85 79.55
  A 2.00 1.99 -86.5 0 0 92.71 77.89
  L 94.74 65.63
  A 1.40 1.40 0.0 0 0 93.59 64.02
  C 91.91 63.73 90.57 64.88 89.12 65.27
  Q 88.69 65.38 88.39 65.70
  Q 85.76 68.53 84.67 71.58
  Q 84.39 72.35 84.63 73.09
  Q 85.47 75.75 83.25 73.97
  Q 81.14 72.28 77.93 70.13"
/>
<path stroke="#44ed5c" vector-effect="non-scaling-stroke" d="
  M 77.93 70.13
  Q 84.06 67.89 88.30 63.83
  Q 88.74 63.41 88.24 63.06
  Q 86.65 61.94 84.73 61.79
  Q 82.81 61.64 81.34 62.98
  Q 78.79 65.31 76.22 67.62
  C 73.59 69.98 69.61 69.29 66.26 69.53
  Q 65.83 69.56 65.66 69.94
  Q 65.49 70.33 65.76 71.05"
/>
<path stroke="#2bc643" vector-effect="non-scaling-stroke" d="
  M 65.76 71.05
  Q 65.51 70.86 65.05 70.86"
/>
<path stroke="#3cd655" vector-effect="non-scaling-stroke" d="
  M 65.05 70.86
  Q 62.86 70.79 60.67 70.80
  Q 58.45 70.82 56.34 70.38
  Q 54.48 70.00 52.73 70.16
  C 51.19 70.29 50.03 69.31 49.33 68.02"
/>
<path stroke="#2bc643" vector-effect="non-scaling-stroke" d="
  M 49.33 68.02
  Q 45.91 64.10 43.77 62.98
  Q 42.71 62.42 42.26 63.27
  Q 42.04 63.70 41.57 63.81
  L 37.21 64.86
  Q 36.67 64.99 36.37 65.46
  L 35.85 66.28
  Q 35.53 66.78 35.10 66.37
  Q 29.40 60.92 24.06 55.94
  C 22.65 54.63 21.96 52.84 21.02 51.18
  Q 20.75 50.71 20.96 50.21
  L 22.14 47.23"
/>
<path stroke="#44ed5c" vector-effect="non-scaling-stroke" d="
  M 42.45 48.24
  Q 45.72 46.03 51.08 46.35
  Q 54.75 46.57 56.55 46.03
  Q 59.99 45.00 64.07 42.08
  Q 65.01 41.41 65.45 40.39
  Q 65.80 39.58 66.29 38.87
  Q 68.10 36.21 68.51 32.67
  A 1.48 1.48 0.0 0 1 69.31 31.52
  Q 70.58 30.87 70.61 29.43
  Q 70.63 28.92 70.36 28.61
  Q 69.91 28.09 69.33 28.65"
/>
<path stroke="#3cbc52" vector-effect="non-scaling-stroke" d="
  M 49.33 68.02
  Q 49.76 69.21 49.49 70.24
  A 1.47 1.42 -12.7 0 1 48.97 71.03
  Q 47.35 72.25 46.86 74.15
  Q 46.73 74.62 46.37 74.95
  Q 45.12 76.06 44.53 77.50"
/>
<path stroke="#68c979" vector-effect="non-scaling-stroke" d="
  M 49.35 89.74
  L 45.71 89.94"
/>
<path stroke="#278036" vector-effect="non-scaling-stroke" d="
  M 45.71 89.94
  L 36.76 85.72
  A 0.51 0.51 0.0 0 0 36.04 86.26
  Q 36.41 88.71 35.73 90.91"
/>
<path stroke="#68c979" vector-effect="non-scaling-stroke" d="
  M 35.73 90.91
  L 28.81 90.83
  A 1.03 1.03 0.0 0 0 27.80 91.64
  Q 27.57 92.72 26.27 92.98
  Q 24.48 93.34 24.25 94.55"
/>
<path stroke="#68c979" vector-effect="non-scaling-stroke" d="
  M 24.42 85.67
  Q 21.93 89.64 24.90 90.13
  A 0.46 0.29 -31.7 0 0 25.03 90.13
  L 30.20 89.47
  Q 30.66 89.41 30.79 88.96
  Q 32.46 83.48 27.09 83.46"
/>
<path stroke="#43d359" vector-effect="non-scaling-stroke" d="
  M 77.93 70.13
  L 65.76 71.05"
/>
<path stroke="#3cbc52" vector-effect="non-scaling-stroke" d="
  M 64.77 77.71
  Q 64.66 76.81 64.01 76.52
  Q 63.58 76.33 63.42 75.89
  Q 63.03 74.85 62.19 74.27
  Q 60.51 73.10 58.74 72.07
  Q 56.79 70.93 59.04 70.91
  L 65.05 70.86"
/>
<path stroke="#68c979" vector-effect="non-scaling-stroke" d="
  M 110.61 102.59
  L 107.39 104.47
  Q 106.92 104.74 106.96 105.28
  Q 107.29 110.30 107.42 115.05
  Q 107.46 116.75 108.26 118.29
  Q 108.49 118.75 108.24 119.19
  C 106.12 123.00 103.55 125.94 99.25 125.83
  Q 88.83 125.58 78.60 127.20"
/>
<path stroke="#659c6f" vector-effect="non-scaling-stroke" d="
  M 78.60 127.20
  Q 77.76 127.69 76.09 128.00"
/>
<path stroke="#7ad88b" vector-effect="non-scaling-stroke" d="
  M 73.13 128.00
  Q 78.05 125.28 80.87 125.35
  Q 88.46 125.51 97.52 125.14
  Q 103.61 124.88 106.69 119.89
  Q 106.98 119.42 106.95 118.86
  Q 106.64 112.84 105.82 104.99
  Q 105.59 102.79 104.46 101.21
  C 102.55 98.57 100.86 95.50 97.12 95.40
  Q 90.32 95.22 83.39 95.16
  Q 79.17 95.12 73.24 94.05
  Q 70.85 93.62 68.53 92.76
  C 64.55 91.29 62.16 93.01 58.47 93.63
  Q 44.98 95.89 31.99 95.99
  Q 29.23 96.02 27.54 97.73
  C 25.88 99.41 22.91 102.72 22.25 105.15
  Q 22.05 105.89 22.03 106.63
  Q 21.90 110.91 21.94 118.33
  A 0.30 0.29 -90.0 0 1 21.65 118.63
  L 21.35 118.63
  A 0.54 0.54 0.0 0 1 20.81 118.08
  Q 20.92 111.85 20.07 105.50
  Q 19.70 102.74 16.62 102.21"
/>
<path stroke="#659c6f" vector-effect="non-scaling-stroke" d="
  M 35.73 90.91
  Q 38.71 91.05 41.75 91.05
  Q 44.60 91.04 45.71 89.94"
/>
<path stroke="#388f48" vector-effect="non-scaling-stroke" d="
  M 55.18 128.00
  Q 55.23 127.72 54.49 127.79"
/>
<path stroke="#3cbc52" vector-effect="non-scaling-stroke" d="
  M 54.49 127.79
  L 54.10 127.03
  Q 53.87 126.59 53.37 126.57
  Q 44.73 126.21 36.01 126.30
  C 32.45 126.33 28.90 125.84 25.25 125.60
  Q 24.73 125.56 24.38 125.18
  L 16.88 117.20"
/>
<path stroke="#a6e5b2" vector-effect="non-scaling-stroke" d="
  M 50.74 116.95
  Q 50.49 117.85 49.55 117.90
  L 46.48 118.07
  Q 46.40 118.07 46.36 118.14
  L 46.19 118.42
  Q 45.94 118.83 46.42 118.91
  Q 49.59 119.41 51.67 118.27
  A 2.53 2.51 76.0 0 0 52.98 116.07
  L 53.04 108.52
  A 0.63 0.62 84.7 0 0 52.30 107.90
  C 50.24 108.28 48.19 107.44 46.42 108.87
  Q 44.85 110.15 45.02 112.13
  Q 45.47 117.29 50.32 115.40
  Q 51.28 115.02 51.00 116.02
  L 50.74 116.95"
/>
<path stroke="#a6e5b2" vector-effect="non-scaling-stroke" d="
  M 57.51 112.13
  L 61.41 112.06
  Q 62.17 112.05 62.06 111.30
  C 61.86 109.96 61.67 108.68 60.15 108.24
  C 55.07 106.77 53.23 113.61 56.76 115.46
  Q 59.26 116.77 62.07 115.04
  Q 62.27 114.91 62.17 114.69
  L 61.97 114.21
  Q 61.70 113.60 61.17 113.99
  Q 58.01 116.29 57.03 112.76
  A 0.50 0.50 0.0 0 1 57.51 112.13"
/>
<path stroke="#a6e5b2" vector-effect="non-scaling-stroke" d="
  M 66.1510 108.6427
  A 0.64 0.64 0.0 0 0 65.5245 107.9895
  L 64.7047 107.9723
  A 0.64 0.64 0.0 0 0 64.0514 108.5988
  L 63.9090 115.3973
  A 0.64 0.64 0.0 0 0 64.5355 116.0505
  L 65.3553 116.0677
  A 0.64 0.64 0.0 0 0 66.0086 115.4412
  L 66.1510 108.6427"
/>
<path stroke="#a6e5b2" vector-effect="non-scaling-stroke" d="
  M 68.91 110.25
  L 68.99 115.25
  Q 69.00 116.00 69.75 116.00
  L 70.24 116.00
  Q 70.97 116.00 70.98 115.26
  L 71.09 109.67
  Q 71.10 109.11 70.66 108.79
  Q 69.23 107.74 67.44 108.10
  Q 67.19 108.15 67.07 108.39
  Q 66.97 108.57 67.06 108.79
  A 0.33 0.32 -11.0 0 0 67.38 109.00
  Q 68.02 108.97 68.49 109.37
  Q 68.90 109.72 68.91 110.25"
/>
<path stroke="#a6e5b2" vector-effect="non-scaling-stroke" d="
  M 72.37 108.92
  A 1.50 1.49 87.1 0 1 73.93 110.34
  Q 74.05 112.77 74.00 115.23
  Q 73.98 116.04 74.79 116.04
  L 75.20 116.04
  A 0.75 0.75 0.0 0 0 75.96 115.33
  C 76.08 112.59 76.99 107.02 72.18 108.17
  A 0.36 0.36 0.0 0 0 72.05 108.82
  Q 72.19 108.93 72.37 108.92"
/>
<path stroke="#a6e5b2" vector-effect="non-scaling-stroke" d="
  M 80.40 109.49
  Q 81.52 108.58 83.32 109.71
  Q 83.69 109.93 83.88 109.55
  L 84.03 109.27
  A 0.43 0.43 0.0 0 0 83.87 108.70
  C 82.01 107.60 78.14 107.60 78.07 110.60
  Q 78.03 112.24 79.62 112.66
  Q 80.54 112.91 81.37 113.35
  Q 82.57 113.98 81.41 114.68
  Q 80.21 115.41 78.74 114.36
  Q 78.37 114.10 78.17 114.51
  L 77.98 114.89
  A 0.23 0.22 -60.4 0 0 78.06 115.19
  Q 80.96 117.02 83.33 114.99
  A 2.13 2.13 0.0 0 0 82.52 111.32
  L 80.67 110.80
  Q 79.28 110.41 80.40 109.49"
/>
<path stroke="#278036" vector-effect="non-scaling-stroke" d="
  M 96.76 128.00
  L 78.60 127.20"
/>
<path stroke="#a6e5b2" vector-effect="non-scaling-stroke" d="
  M 48.61 114.88
  C 51.70 115.31 51.19 111.08 50.82 109.32
  Q 50.72 108.82 50.21 108.87
  Q 46.22 109.20 47.17 113.55
  A 1.73 1.72 -2.2 0 0 48.61 114.88"
/>
<path stroke="#a6e5b2" vector-effect="non-scaling-stroke" d="
  M 57.53 110.90
  L 59.23 111.01
  A 0.74 0.74 0.0 0 0 59.84 109.78
  Q 58.86 108.66 57.69 109.45
  Q 57.19 109.79 57.12 110.41
  A 0.44 0.43 5.5 0 0 57.53 110.90"
/>
<path stroke="#278036" vector-effect="non-scaling-stroke" d="
  M 54.49 127.79
  L 30.36 128.00"
/>
</g>
<path fill="#23532c" d="
  M 0.00 0.00
  L 128.00 0.00
  L 128.00 128.00
  L 106.96 128.00
  Q 112.34 122.24 111.12 112.42
  Q 110.75 109.40 110.73 107.52
  Q 110.71 105.16 110.61 102.59
  Q 111.17 101.64 108.90 100.10
  Q 107.02 98.83 106.32 97.76
  Q 104.81 95.46 102.89 93.24
  A 0.51 0.51 0.0 0 1 103.14 92.41
  Q 103.78 92.23 104.29 91.84
  Q 104.65 91.57 104.77 91.14
  Q 105.36 89.05 104.57 87.28
  Q 103.95 85.90 102.06 85.08
  Q 97.26 82.99 94.57 88.13
  Q 94.35 88.56 94.37 89.04
  Q 94.40 89.47 94.58 89.85
  A 0.70 0.70 0.0 0 1 94.07 90.85
  Q 89.05 91.73 85.20 89.99
  Q 83.29 89.28 85.70 88.74
  Q 86.25 88.62 86.76 88.36
  C 91.53 85.91 95.64 84.19 98.13 79.06
  Q 104.85 65.22 109.78 51.54
  A 2.70 2.69 -47.6 0 0 109.69 49.46
  Q 105.40 40.18 100.86 31.01
  Q 98.78 26.79 96.66 21.50
  Q 96.55 21.22 96.32 21.03
  Q 96.04 20.79 95.79 20.74
  Q 95.52 20.29 95.15 20.08
  Q 80.35 11.81 64.77 5.13
  Q 63.75 4.70 62.97 5.23
  Q 47.38 11.55 33.67 21.18
  Q 31.94 22.39 30.96 24.24
  Q 28.32 29.20 25.84 34.26
  Q 22.59 41.67 19.51 49.18
  Q 18.36 51.99 19.42 54.75
  C 21.06 59.01 22.60 63.34 24.68 67.42
  Q 27.55 73.05 30.68 78.88
  Q 31.09 79.63 31.70 80.27
  Q 32.35 80.95 32.32 81.82
  Q 32.29 82.52 31.60 82.37
  Q 28.63 81.76 27.09 83.46
  L 24.42 85.67
  C 22.03 86.76 21.99 88.36 22.94 90.67
  Q 23.69 92.53 24.25 94.55
  L 17.68 100.72
  Q 17.45 100.94 17.13 101.01
  L 16.46 101.16
  Q 15.82 101.30 16.16 101.86
  Q 16.30 102.08 16.62 102.21
  L 16.88 117.20
  Q 15.74 123.65 21.45 128.00
  L 0.00 128.00
  L 0.00 0.00
  Z
  M 36.57 4.10
  A 1.51 1.51 0.0 0 0 35.21 3.67
  L 33.85 3.92
  A 1.51 1.51 0.0 0 0 32.80 6.12
  L 33.95 8.26
  A 1.51 1.51 0.0 0 0 36.41 8.54
  L 37.61 7.19
  A 1.51 1.51 0.0 0 0 37.57 5.14
  L 36.57 4.10
  Z
  M 93.9545 6.6677
  A 2.35 2.35 0.0 0 0 91.1300 4.9164
  L 89.9227 5.1995
  A 2.35 2.35 0.0 0 0 88.1715 8.0241
  L 88.4455 9.1923
  A 2.35 2.35 0.0 0 0 91.2700 10.9436
  L 92.4773 10.6605
  A 2.35 2.35 0.0 0 0 94.2285 7.8359
  L 93.9545 6.6677
  Z
  M 25.45 11.64
  Q 21.70 13.31 21.20 16.47
  Q 21.10 17.12 21.47 17.67
  Q 23.52 20.71 26.59 23.47
  Q 27.45 24.25 28.39 23.56
  Q 30.24 22.20 32.48 20.92
  Q 34.66 19.68 35.67 17.97
  C 37.19 15.40 34.26 12.50 32.32 11.06
  Q 29.49 8.97 25.83 11.15
  Q 25.71 11.22 25.68 11.36
  Q 25.64 11.55 25.45 11.64
  Z
  M 94.25 14.90
  Q 93.31 15.80 94.28 16.96
  Q 96.51 19.63 99.26 21.80
  A 2.00 2.00 0.0 0 0 101.97 21.59
  L 105.61 17.65
  Q 105.99 17.23 105.84 16.69
  Q 105.19 14.43 103.18 12.99
  Q 102.79 12.71 102.57 12.29
  Q 101.94 11.09 100.09 10.48
  Q 96.98 10.59 94.25 14.90
  Z
  M 23.43 74.58
  A 2.97 2.97 0.0 0 0 20.46 71.61
  A 2.97 2.97 0.0 0 0 17.49 74.58
  A 2.97 2.97 0.0 0 0 20.46 77.55
  A 2.97 2.97 0.0 0 0 23.43 74.58
  Z"
/>
<path fill="#4dcb64" d="
  M 36.57 4.10
  L 37.57 5.14
  A 1.51 1.51 0.0 0 1 37.61 7.19
  L 36.41 8.54
  A 1.51 1.51 0.0 0 1 33.95 8.26
  L 32.80 6.12
  A 1.51 1.51 0.0 0 1 33.85 3.92
  L 35.21 3.67
  A 1.51 1.51 0.0 0 1 36.57 4.10
  Z"
/>
<path fill="#4dcb64" d="
  M 95.79 20.74
  Q 95.61 21.04 95.61 21.45
  Q 95.61 22.02 95.07 22.21
  Q 93.26 22.85 91.26 22.81
  C 89.97 22.79 88.66 23.42 87.57 24.04
  Q 86.81 24.47 87.63 24.76
  Q 88.70 25.16 89.82 25.25
  Q 90.27 25.28 90.42 25.71
  Q 90.61 26.24 90.54 26.80
  Q 90.48 27.29 90.03 27.50
  Q 89.00 27.99 88.45 29.01
  Q 87.00 31.71 86.33 34.12
  Q 85.70 36.39 86.73 39.09
  Q 86.92 39.58 87.45 39.53
  L 90.00 39.31
  Q 90.72 39.24 90.37 39.88
  L 88.51 43.22
  Q 88.25 43.68 88.13 44.20
  L 86.76 50.20
  Q 86.55 50.34 86.45 50.46
  Q 86.15 50.82 86.30 50.37
  Q 86.81 48.84 86.65 47.13
  A 1.67 1.67 0.0 0 0 86.33 46.28
  Q 85.52 45.16 85.37 43.75
  Q 85.32 43.25 84.97 42.88
  Q 84.22 42.08 84.16 40.79
  Q 84.13 40.24 83.82 39.77
  Q 83.27 38.94 83.05 38.01
  Q 82.92 37.46 82.52 37.07
  Q 81.07 35.65 80.29 33.64
  Q 79.83 32.44 79.02 31.41
  Q 78.23 30.42 77.24 29.56
  Q 76.32 28.77 75.32 28.12
  Q 74.63 27.67 75.45 27.65
  Q 76.14 27.63 76.47 27.28
  Q 77.51 27.58 78.69 28.73
  L 84.01 36.58
  Q 84.92 37.92 85.17 36.33
  Q 85.22 35.99 85.17 35.64
  Q 85.12 35.20 85.29 34.81
  Q 86.62 31.85 87.67 28.78
  Q 87.89 28.15 88.51 27.92
  Q 89.29 27.64 89.38 26.77
  A 0.76 0.75 10.1 0 0 88.81 25.96
  L 78.82 23.53
  Q 78.11 23.24 77.71 22.73
  Q 76.49 21.74 75.53 20.60
  C 71.77 16.12 66.91 12.82 63.99 7.72
  Q 63.73 7.27 63.92 6.78
  L 64.14 6.23
  Q 64.41 5.55 63.69 5.39
  L 62.97 5.23
  Q 63.75 4.70 64.77 5.13
  Q 80.35 11.81 95.15 20.08
  Q 95.52 20.29 95.79 20.74
  Z"
/>
<rect fill="#4dcb64" x="-2.97" y="-2.95" transform="translate(91.20,7.93) rotate(-13.2)" width="5.94" height="5.90" rx="2.35"/>
<path fill="#5cfa72" d="
  M 62.97 5.23
  L 63.69 5.39
  Q 64.41 5.55 64.14 6.23
  L 63.92 6.78
  Q 63.73 7.27 63.99 7.72
  C 66.91 12.82 71.77 16.12 75.53 20.60
  Q 76.49 21.74 77.71 22.73
  Q 76.86 22.19 76.22 22.10
  Q 75.71 22.03 75.39 22.43
  Q 73.50 24.78 70.46 25.22
  Q 62.72 25.81 54.90 24.30
  Q 52.78 23.78 50.40 22.21
  Q 49.93 21.91 49.44 22.16
  Q 43.71 25.09 37.24 24.99
  Q 36.66 24.99 36.49 25.53
  L 32.07 39.34
  L 22.14 47.23
  Q 21.58 43.29 24.52 40.14
  C 25.04 39.59 25.18 39.04 25.15 38.30
  Q 25.12 37.78 25.40 37.35
  Q 26.20 36.09 25.84 34.26
  Q 28.32 29.20 30.96 24.24
  Q 31.94 22.39 33.67 21.18
  Q 47.38 11.55 62.97 5.23
  Z"
/>
<path fill="#2aac40" d="
  M 25.68 11.36
  Q 25.71 11.22 25.83 11.15
  Q 29.49 8.97 32.32 11.06
  C 34.26 12.50 37.19 15.40 35.67 17.97
  Q 34.66 19.68 32.48 20.92
  Q 30.24 22.20 28.39 23.56
  Q 27.45 24.25 26.59 23.47
  Q 23.52 20.71 21.47 17.67
  Q 21.10 17.12 21.20 16.47
  Q 21.70 13.31 25.45 11.64
  Q 25.64 11.55 25.68 11.36
  Z
  M 23.07 14.05
  A 1.36 1.36 0.0 0 0 22.90 16.18
  L 23.45 16.70
  A 1.36 1.36 0.0 0 0 24.00 17.01
  L 28.87 18.42
  A 1.36 1.36 0.0 0 0 30.58 16.83
  L 29.54 11.99
  A 1.36 1.36 0.0 0 0 27.46 11.14
  L 23.07 14.05
  Z"
/>
<path fill="#a6e5b1" d="
  M 100.09 10.48
  Q 103.09 13.42 100.76 15.54
  Q 97.71 18.31 94.25 14.90
  Q 96.98 10.59 100.09 10.48
  Z"
/>
<path fill="#4dcb64" d="
  M 100.09 10.48
  Q 101.94 11.09 102.57 12.29
  Q 102.79 12.71 103.18 12.99
  Q 105.19 14.43 105.84 16.69
  Q 105.99 17.23 105.61 17.65
  L 101.97 21.59
  A 2.00 2.00 0.0 0 1 99.26 21.80
  Q 96.51 19.63 94.28 16.96
  Q 93.31 15.80 94.25 14.90
  Q 97.71 18.31 100.76 15.54
  Q 103.09 13.42 100.09 10.48
  Z"
/>
<path fill="#a6e5b1" d="
  M 23.07 14.05
  L 27.46 11.14
  A 1.36 1.36 0.0 0 1 29.54 11.99
  L 30.58 16.83
  A 1.36 1.36 0.0 0 1 28.87 18.42
  L 24.00 17.01
  A 1.36 1.36 0.0 0 1 23.45 16.70
  L 22.90 16.18
  A 1.36 1.36 0.0 0 1 23.07 14.05
  Z"
/>
<path fill="#2aac40" d="
  M 95.79 20.74
  Q 96.04 20.79 96.32 21.03
  Q 96.55 21.22 96.66 21.50
  Q 98.78 26.79 100.86 31.01
  Q 105.40 40.18 109.69 49.46
  A 2.70 2.69 -47.6 0 1 109.78 51.54
  Q 104.85 65.22 98.13 79.06
  C 95.64 84.19 91.53 85.91 86.76 88.36
  Q 86.25 88.62 85.70 88.74
  Q 83.29 89.28 85.20 89.99
  L 79.79 89.92
  Q 81.60 88.68 83.76 88.80
  Q 84.26 88.83 84.52 88.41
  Q 84.72 88.08 85.01 87.87
  Q 89.12 84.86 93.63 82.13
  Q 95.19 81.18 95.86 79.47
  Q 97.14 76.24 97.36 72.62
  Q 97.36 72.52 97.41 72.42
  Q 97.47 72.28 97.59 72.18
  Q 97.99 71.82 97.78 71.32
  C 96.67 68.66 96.15 64.07 97.96 61.47
  Q 98.82 60.24 99.22 58.80
  Q 99.48 57.87 99.82 57.02
  A 1.27 1.27 0.0 0 0 98.52 55.29
  L 94.99 55.64
  A 1.44 1.43 -29.0 0 1 94.00 55.36
  Q 93.05 54.64 92.11 55.16
  Q 91.73 55.36 91.31 55.22
  Q 89.72 54.65 88.98 56.04
  A 1.28 1.28 0.0 0 1 86.83 56.22
  Q 85.57 54.58 86.34 52.63
  Q 86.52 52.17 86.58 51.69
  L 86.76 50.20
  L 88.13 44.20
  Q 88.25 43.68 88.51 43.22
  L 90.37 39.88
  Q 90.72 39.24 90.00 39.31
  L 87.45 39.53
  Q 86.92 39.58 86.73 39.09
  Q 85.70 36.39 86.33 34.12
  Q 87.00 31.71 88.45 29.01
  Q 89.00 27.99 90.03 27.50
  Q 90.48 27.29 90.54 26.80
  Q 90.61 26.24 90.42 25.71
  Q 90.27 25.28 89.82 25.25
  Q 88.70 25.16 87.63 24.76
  Q 86.81 24.47 87.57 24.04
  C 88.66 23.42 89.97 22.79 91.26 22.81
  Q 93.26 22.85 95.07 22.21
  Q 95.61 22.02 95.61 21.45
  Q 95.61 21.04 95.79 20.74
  Z"
/>
<path fill="#f3fcf1" d="
  M 54.90 24.30
  Q 54.94 24.56 55.13 24.75
  Q 55.64 25.26 55.63 25.44
  Q 55.63 25.53 55.57 25.60
  Q 55.27 26.01 54.77 26.04
  Q 52.68 26.16 50.78 27.22
  Q 50.14 27.57 50.87 27.61
  L 53.92 27.77
  L 56.57 29.24
  Q 56.66 32.08 55.03 34.45
  Q 54.52 35.19 53.36 36.00
  C 51.77 37.11 50.49 38.76 48.53 39.03
  C 46.29 39.34 44.89 37.43 42.71 39.14
  Q 41.98 39.72 41.67 41.22
  Q 41.05 44.21 39.79 47.00
  Q 36.93 42.38 32.07 39.34
  L 36.49 25.53
  Q 36.66 24.99 37.24 24.99
  Q 43.71 25.09 49.44 22.16
  Q 49.93 21.91 50.40 22.21
  Q 52.78 23.78 54.90 24.30
  Z"
/>
<path fill="#f3fcf1" d="
  M 77.71 22.73
  Q 78.11 23.24 78.82 23.53
  Q 82.30 25.70 78.69 28.73
  Q 77.51 27.58 76.47 27.28
  Q 75.05 25.99 73.00 26.31
  Q 69.77 26.62 70.46 25.22
  Q 73.50 24.78 75.39 22.43
  Q 75.71 22.03 76.22 22.10
  Q 76.86 22.19 77.71 22.73
  Z"
/>
<path fill="#5cfa72" d="
  M 78.82 23.53
  L 88.81 25.96
  A 0.76 0.75 10.1 0 1 89.38 26.77
  Q 89.29 27.64 88.51 27.92
  Q 87.89 28.15 87.67 28.78
  Q 86.62 31.85 85.29 34.81
  Q 85.12 35.20 85.17 35.64
  Q 85.22 35.99 85.17 36.33
  Q 84.92 37.92 84.01 36.58
  L 78.69 28.73
  Q 82.30 25.70 78.82 23.53
  Z"
/>
<path fill="#8ff99f" d="
  M 54.90 24.30
  Q 62.72 25.81 70.46 25.22
  Q 69.77 26.62 73.00 26.31
  Q 70.21 26.75 67.91 28.03
  Q 67.36 28.34 67.95 28.55
  Q 68.44 28.72 69.33 28.65
  Q 68.28 29.44 67.56 30.27
  Q 67.32 30.54 67.36 30.19
  Q 67.37 30.05 67.57 30.13
  Q 67.75 30.20 67.80 30.02
  Q 67.93 29.62 67.85 29.20
  Q 67.80 28.98 67.60 28.91
  Q 67.45 28.85 67.28 28.89
  Q 66.88 28.97 66.91 29.37
  Q 66.97 30.28 66.20 30.86
  Q 65.75 31.20 65.39 31.65
  Q 62.40 35.38 58.95 40.09
  Q 57.72 41.78 55.63 42.57
  Q 53.36 43.43 50.24 43.89
  Q 45.42 44.60 42.45 48.24
  L 42.03 50.80
  Q 41.68 52.87 41.04 50.87
  L 39.79 47.00
  Q 41.05 44.21 41.67 41.22
  Q 41.98 39.72 42.71 39.14
  C 44.89 37.43 46.29 39.34 48.53 39.03
  C 50.49 38.76 51.77 37.11 53.36 36.00
  Q 54.52 35.19 55.03 34.45
  Q 56.66 32.08 56.57 29.24
  Q 55.52 26.78 57.86 29.28
  Q 57.96 29.38 58.09 29.35
  Q 58.27 29.30 58.29 29.15
  Q 58.35 28.63 58.60 29.10
  Q 58.70 29.29 58.90 29.34
  A 0.39 0.39 0.0 0 0 59.39 28.95
  Q 59.37 28.50 58.96 28.31
  Q 56.74 27.28 53.92 27.77
  L 50.87 27.61
  Q 50.14 27.57 50.78 27.22
  Q 52.68 26.16 54.77 26.04
  Q 55.27 26.01 55.57 25.60
  Q 55.63 25.53 55.63 25.44
  Q 55.64 25.26 55.13 24.75
  Q 54.94 24.56 54.90 24.30
  Z"
/>
<path fill="#2be046" d="
  M 73.00 26.31
  Q 75.05 25.99 76.47 27.28
  Q 76.14 27.63 75.45 27.65
  Q 74.63 27.67 75.32 28.12
  Q 76.32 28.77 77.24 29.56
  Q 78.23 30.42 79.02 31.41
  Q 79.83 32.44 80.29 33.64
  Q 81.07 35.65 82.52 37.07
  Q 82.92 37.46 83.05 38.01
  Q 83.27 38.94 83.82 39.77
  Q 84.13 40.24 84.16 40.79
  Q 84.22 42.08 84.97 42.88
  Q 85.32 43.25 85.37 43.75
  Q 85.52 45.16 86.33 46.28
  A 1.67 1.67 0.0 0 1 86.65 47.13
  Q 86.81 48.84 86.30 50.37
  Q 86.15 50.82 86.45 50.46
  Q 86.55 50.34 86.76 50.20
  L 86.58 51.69
  Q 86.52 52.17 86.34 52.63
  Q 85.57 54.58 86.83 56.22
  A 1.28 1.28 0.0 0 0 88.98 56.04
  Q 89.72 54.65 91.31 55.22
  Q 91.73 55.36 92.11 55.16
  Q 93.05 54.64 94.00 55.36
  A 1.44 1.43 -29.0 0 0 94.99 55.64
  L 98.52 55.29
  A 1.27 1.27 0.0 0 1 99.82 57.02
  Q 99.48 57.87 99.22 58.80
  Q 98.82 60.24 97.96 61.47
  C 96.15 64.07 96.67 68.66 97.78 71.32
  Q 97.99 71.82 97.59 72.18
  Q 97.47 72.28 97.41 72.42
  Q 97.36 72.52 97.36 72.62
  Q 97.14 76.24 95.86 79.47
  Q 95.19 81.18 93.63 82.13
  Q 89.12 84.86 85.01 87.87
  Q 84.72 88.08 84.52 88.41
  Q 84.26 88.83 83.76 88.80
  Q 81.60 88.68 79.79 89.92
  Q 77.73 88.84 75.49 88.97
  A 2.27 2.26 -35.2 0 1 74.49 88.80
  C 72.63 88.04 70.83 88.18 68.92 87.53
  C 66.51 86.71 63.39 86.78 60.97 87.74
  Q 58.33 88.79 55.24 88.98
  Q 54.05 89.05 52.39 89.65
  Q 50.67 90.26 49.35 89.74
  Q 47.93 88.86 46.32 88.24
  Q 44.59 87.57 43.39 86.68
  Q 40.54 84.57 37.48 82.74
  A 1.49 1.49 0.0 0 1 37.85 80.02
  Q 39.80 79.48 42.36 79.09
  Q 43.25 78.95 44.53 77.50
  Q 45.58 76.03 46.98 75.45
  Q 49.29 74.50 49.38 74.45
  Q 51.94 73.13 54.00 73.91
  Q 56.68 74.93 57.98 74.73
  A 4.80 4.77 56.0 0 1 61.23 75.37
  Q 62.82 76.35 64.77 77.71
  L 67.35 81.44
  Q 67.64 81.85 68.14 81.84
  L 72.94 81.70
  Q 73.45 81.68 73.84 81.35
  Q 74.34 80.91 74.96 80.83
  C 77.36 80.51 79.55 79.88 82.03 79.84
  Q 86.73 79.75 90.85 79.55
  A 2.00 1.99 -86.5 0 0 92.71 77.89
  L 94.74 65.63
  A 1.40 1.40 0.0 0 0 93.59 64.02
  C 91.91 63.73 90.57 64.88 89.12 65.27
  Q 88.69 65.38 88.39 65.70
  Q 85.76 68.53 84.67 71.58
  Q 84.39 72.35 84.63 73.09
  Q 85.47 75.75 83.25 73.97
  Q 81.14 72.28 77.93 70.13
  Q 84.06 67.89 88.30 63.83
  Q 88.74 63.41 88.24 63.06
  Q 86.65 61.94 84.73 61.79
  Q 82.81 61.64 81.34 62.98
  Q 78.79 65.31 76.22 67.62
  C 73.59 69.98 69.61 69.29 66.26 69.53
  Q 65.83 69.56 65.66 69.94
  Q 65.49 70.33 65.76 71.05
  Q 65.51 70.86 65.05 70.86
  Q 62.86 70.79 60.67 70.80
  Q 58.45 70.82 56.34 70.38
  Q 54.48 70.00 52.73 70.16
  C 51.19 70.29 50.03 69.31 49.33 68.02
  Q 45.91 64.10 43.77 62.98
  Q 42.71 62.42 42.26 63.27
  Q 42.04 63.70 41.57 63.81
  L 37.21 64.86
  Q 36.67 64.99 36.37 65.46
  L 35.85 66.28
  Q 35.53 66.78 35.10 66.37
  Q 29.40 60.92 24.06 55.94
  C 22.65 54.63 21.96 52.84 21.02 51.18
  Q 20.75 50.71 20.96 50.21
  L 22.14 47.23
  L 32.07 39.34
  Q 36.93 42.38 39.79 47.00
  L 41.04 50.87
  Q 41.68 52.87 42.03 50.80
  L 42.45 48.24
  Q 45.72 46.03 51.08 46.35
  Q 54.75 46.57 56.55 46.03
  Q 59.99 45.00 64.07 42.08
  Q 65.01 41.41 65.45 40.39
  Q 65.80 39.58 66.29 38.87
  Q 68.10 36.21 68.51 32.67
  A 1.48 1.48 0.0 0 1 69.31 31.52
  Q 70.58 30.87 70.61 29.43
  Q 70.63 28.92 70.36 28.61
  Q 69.91 28.09 69.33 28.65
  Q 68.44 28.72 67.95 28.55
  Q 67.36 28.34 67.91 28.03
  Q 70.21 26.75 73.00 26.31
  Z"
/>
<path fill="#a6e5b1" d="
  M 56.57 29.24
  L 53.92 27.77
  Q 56.74 27.28 58.96 28.31
  Q 59.37 28.50 59.39 28.95
  A 0.39 0.39 0.0 0 1 58.90 29.34
  Q 58.70 29.29 58.60 29.10
  Q 58.35 28.63 58.29 29.15
  Q 58.27 29.30 58.09 29.35
  Q 57.96 29.38 57.86 29.28
  Q 55.52 26.78 56.57 29.24
  Z"
/>
<path fill="#5cfa72" d="
  M 69.33 28.65
  Q 69.91 28.09 70.36 28.61
  Q 70.63 28.92 70.61 29.43
  Q 70.58 30.87 69.31 31.52
  A 1.48 1.48 0.0 0 0 68.51 32.67
  Q 68.10 36.21 66.29 38.87
  Q 65.80 39.58 65.45 40.39
  Q 65.01 41.41 64.07 42.08
  Q 59.99 45.00 56.55 46.03
  Q 54.75 46.57 51.08 46.35
  Q 45.72 46.03 42.45 48.24
  Q 45.42 44.60 50.24 43.89
  Q 53.36 43.43 55.63 42.57
  Q 57.72 41.78 58.95 40.09
  Q 62.40 35.38 65.39 31.65
  Q 65.75 31.20 66.20 30.86
  Q 66.97 30.28 66.91 29.37
  Q 66.88 28.97 67.28 28.89
  Q 67.45 28.85 67.60 28.91
  Q 67.80 28.98 67.85 29.20
  Q 67.93 29.62 67.80 30.02
  Q 67.75 30.20 67.57 30.13
  Q 67.37 30.05 67.36 30.19
  Q 67.32 30.54 67.56 30.27
  Q 68.28 29.44 69.33 28.65
  Z"
/>
<path fill="#2aac40" d="
  M 25.84 34.26
  Q 26.20 36.09 25.40 37.35
  Q 25.12 37.78 25.15 38.30
  C 25.18 39.04 25.04 39.59 24.52 40.14
  Q 21.58 43.29 22.14 47.23
  L 20.96 50.21
  Q 20.75 50.71 21.02 51.18
  C 21.96 52.84 22.65 54.63 24.06 55.94
  Q 29.40 60.92 35.10 66.37
  Q 35.53 66.78 35.85 66.28
  L 36.37 65.46
  Q 36.67 64.99 37.21 64.86
  L 41.57 63.81
  Q 42.04 63.70 42.26 63.27
  Q 42.71 62.42 43.77 62.98
  Q 45.91 64.10 49.33 68.02
  Q 49.76 69.21 49.49 70.24
  A 1.47 1.42 -12.7 0 1 48.97 71.03
  Q 47.35 72.25 46.86 74.15
  Q 46.73 74.62 46.37 74.95
  Q 45.12 76.06 44.53 77.50
  Q 43.25 78.95 42.36 79.09
  Q 39.80 79.48 37.85 80.02
  A 1.49 1.49 0.0 0 0 37.48 82.74
  Q 40.54 84.57 43.39 86.68
  Q 44.59 87.57 46.32 88.24
  Q 47.93 88.86 49.35 89.74
  L 45.71 89.94
  L 36.76 85.72
  A 0.51 0.51 0.0 0 0 36.04 86.26
  Q 36.41 88.71 35.73 90.91
  L 28.81 90.83
  A 1.03 1.03 0.0 0 0 27.80 91.64
  Q 27.57 92.72 26.27 92.98
  Q 24.48 93.34 24.25 94.55
  Q 23.69 92.53 22.94 90.67
  C 21.99 88.36 22.03 86.76 24.42 85.67
  Q 21.93 89.64 24.90 90.13
  A 0.46 0.29 -31.7 0 0 25.03 90.13
  L 30.20 89.47
  Q 30.66 89.41 30.79 88.96
  Q 32.46 83.48 27.09 83.46
  Q 28.63 81.76 31.60 82.37
  Q 32.29 82.52 32.32 81.82
  Q 32.35 80.95 31.70 80.27
  Q 31.09 79.63 30.68 78.88
  Q 27.55 73.05 24.68 67.42
  C 22.60 63.34 21.06 59.01 19.42 54.75
  Q 18.36 51.99 19.51 49.18
  Q 22.59 41.67 25.84 34.26
  Z"
/>
<path fill="#5cfa72" d="
  M 77.93 70.13
  L 65.76 71.05
  Q 65.49 70.33 65.66 69.94
  Q 65.83 69.56 66.26 69.53
  C 69.61 69.29 73.59 69.98 76.22 67.62
  Q 78.79 65.31 81.34 62.98
  Q 82.81 61.64 84.73 61.79
  Q 86.65 61.94 88.24 63.06
  Q 88.74 63.41 88.30 63.83
  Q 84.06 67.89 77.93 70.13
  Z"
/>
<path fill="#2aac40" d="
  M 64.77 77.71
  Q 64.66 76.81 64.01 76.52
  Q 63.58 76.33 63.42 75.89
  Q 63.03 74.85 62.19 74.27
  Q 60.51 73.10 58.74 72.07
  Q 56.79 70.93 59.04 70.91
  L 65.05 70.86
  Q 65.51 70.86 65.76 71.05
  L 77.93 70.13
  Q 81.14 72.28 83.25 73.97
  Q 85.47 75.75 84.63 73.09
  Q 84.39 72.35 84.67 71.58
  Q 85.76 68.53 88.39 65.70
  Q 88.69 65.38 89.12 65.27
  C 90.57 64.88 91.91 63.73 93.59 64.02
  A 1.40 1.40 0.0 0 1 94.74 65.63
  L 92.71 77.89
  A 2.00 1.99 -86.5 0 1 90.85 79.55
  Q 86.73 79.75 82.03 79.84
  C 79.55 79.88 77.36 80.51 74.96 80.83
  Q 74.34 80.91 73.84 81.35
  Q 73.45 81.68 72.94 81.70
  L 68.14 81.84
  Q 67.64 81.85 67.35 81.44
  L 64.77 77.71
  Z"
/>
<path fill="#4dcb64" d="
  M 49.33 68.02
  C 50.03 69.31 51.19 70.29 52.73 70.16
  Q 54.48 70.00 56.34 70.38
  Q 58.45 70.82 60.67 70.80
  Q 62.86 70.79 65.05 70.86
  L 59.04 70.91
  Q 56.79 70.93 58.74 72.07
  Q 60.51 73.10 62.19 74.27
  Q 63.03 74.85 63.42 75.89
  Q 63.58 76.33 64.01 76.52
  Q 64.66 76.81 64.77 77.71
  Q 62.82 76.35 61.23 75.37
  A 4.80 4.77 56.0 0 0 57.98 74.73
  Q 56.68 74.93 54.00 73.91
  Q 51.94 73.13 49.38 74.45
  Q 49.29 74.50 46.98 75.45
  Q 45.58 76.03 44.53 77.50
  Q 45.12 76.06 46.37 74.95
  Q 46.73 74.62 46.86 74.15
  Q 47.35 72.25 48.97 71.03
  A 1.47 1.42 -12.7 0 0 49.49 70.24
  Q 49.76 69.21 49.33 68.02
  Z"
/>
<circle fill="#4dcb64" cx="20.46" cy="74.58" r="2.97"/>
<path fill="#a6e5b1" d="
  M 27.09 83.46
  Q 32.46 83.48 30.79 88.96
  Q 30.66 89.41 30.20 89.47
  L 25.03 90.13
  A 0.46 0.29 -31.7 0 1 24.90 90.13
  Q 21.93 89.64 24.42 85.67
  L 27.09 83.46
  Z"
/>
<path fill="#a6e5b1" d="
  M 110.61 102.59
  L 107.39 104.47
  Q 106.92 104.74 106.96 105.28
  Q 107.29 110.30 107.42 115.05
  Q 107.46 116.75 108.26 118.29
  Q 108.49 118.75 108.24 119.19
  C 106.12 123.00 103.55 125.94 99.25 125.83
  Q 88.83 125.58 78.60 127.20
  Q 77.76 127.69 76.09 128.00
  L 73.13 128.00
  Q 78.05 125.28 80.87 125.35
  Q 88.46 125.51 97.52 125.14
  Q 103.61 124.88 106.69 119.89
  Q 106.98 119.42 106.95 118.86
  Q 106.64 112.84 105.82 104.99
  Q 105.59 102.79 104.46 101.21
  C 102.55 98.57 100.86 95.50 97.12 95.40
  Q 90.32 95.22 83.39 95.16
  Q 79.17 95.12 73.24 94.05
  Q 70.85 93.62 68.53 92.76
  C 64.55 91.29 62.16 93.01 58.47 93.63
  Q 44.98 95.89 31.99 95.99
  Q 29.23 96.02 27.54 97.73
  C 25.88 99.41 22.91 102.72 22.25 105.15
  Q 22.05 105.89 22.03 106.63
  Q 21.90 110.91 21.94 118.33
  A 0.30 0.29 -90.0 0 1 21.65 118.63
  L 21.35 118.63
  A 0.54 0.54 0.0 0 1 20.81 118.08
  Q 20.92 111.85 20.07 105.50
  Q 19.70 102.74 16.62 102.21
  Q 16.30 102.08 16.16 101.86
  Q 15.82 101.30 16.46 101.16
  L 17.13 101.01
  Q 17.45 100.94 17.68 100.72
  L 24.25 94.55
  Q 24.48 93.34 26.27 92.98
  Q 27.57 92.72 27.80 91.64
  A 1.03 1.03 0.0 0 1 28.81 90.83
  L 35.73 90.91
  Q 38.71 91.05 41.75 91.05
  Q 44.60 91.04 45.71 89.94
  L 49.35 89.74
  Q 50.67 90.26 52.39 89.65
  Q 54.05 89.05 55.24 88.98
  Q 58.33 88.79 60.97 87.74
  C 63.39 86.78 66.51 86.71 68.92 87.53
  C 70.83 88.18 72.63 88.04 74.49 88.80
  A 2.27 2.26 -35.2 0 0 75.49 88.97
  Q 77.73 88.84 79.79 89.92
  L 85.20 89.99
  Q 89.05 91.73 94.07 90.85
  A 0.70 0.70 0.0 0 0 94.58 89.85
  Q 94.40 89.47 94.37 89.04
  Q 94.35 88.56 94.57 88.13
  Q 97.26 82.99 102.06 85.08
  Q 103.95 85.90 104.57 87.28
  Q 105.36 89.05 104.77 91.14
  Q 104.65 91.57 104.29 91.84
  Q 103.78 92.23 103.14 92.41
  A 0.51 0.51 0.0 0 0 102.89 93.24
  Q 104.81 95.46 106.32 97.76
  Q 107.02 98.83 108.90 100.10
  Q 111.17 101.64 110.61 102.59
  Z"
/>
<path fill="#23532c" d="
  M 45.71 89.94
  Q 44.60 91.04 41.75 91.05
  Q 38.71 91.05 35.73 90.91
  Q 36.41 88.71 36.04 86.26
  A 0.51 0.51 0.0 0 1 36.76 85.72
  L 45.71 89.94
  Z"
/>
<path fill="#4dcb64" d="
  M 73.13 128.00
  L 55.18 128.00
  Q 55.23 127.72 54.49 127.79
  L 54.10 127.03
  Q 53.87 126.59 53.37 126.57
  Q 44.73 126.21 36.01 126.30
  C 32.45 126.33 28.90 125.84 25.25 125.60
  Q 24.73 125.56 24.38 125.18
  L 16.88 117.20
  L 16.62 102.21
  Q 19.70 102.74 20.07 105.50
  Q 20.92 111.85 20.81 118.08
  A 0.54 0.54 0.0 0 0 21.35 118.63
  L 21.65 118.63
  A 0.30 0.29 90.0 0 0 21.94 118.33
  Q 21.90 110.91 22.03 106.63
  Q 22.05 105.89 22.25 105.15
  C 22.91 102.72 25.88 99.41 27.54 97.73
  Q 29.23 96.02 31.99 95.99
  Q 44.98 95.89 58.47 93.63
  C 62.16 93.01 64.55 91.29 68.53 92.76
  Q 70.85 93.62 73.24 94.05
  Q 79.17 95.12 83.39 95.16
  Q 90.32 95.22 97.12 95.40
  C 100.86 95.50 102.55 98.57 104.46 101.21
  Q 105.59 102.79 105.82 104.99
  Q 106.64 112.84 106.95 118.86
  Q 106.98 119.42 106.69 119.89
  Q 103.61 124.88 97.52 125.14
  Q 88.46 125.51 80.87 125.35
  Q 78.05 125.28 73.13 128.00
  Z
  M 50.74 116.95
  Q 50.49 117.85 49.55 117.90
  L 46.48 118.07
  Q 46.40 118.07 46.36 118.14
  L 46.19 118.42
  Q 45.94 118.83 46.42 118.91
  Q 49.59 119.41 51.67 118.27
  A 2.53 2.51 76.0 0 0 52.98 116.07
  L 53.04 108.52
  A 0.63 0.62 84.7 0 0 52.30 107.90
  C 50.24 108.28 48.19 107.44 46.42 108.87
  Q 44.85 110.15 45.02 112.13
  Q 45.47 117.29 50.32 115.40
  Q 51.28 115.02 51.00 116.02
  L 50.74 116.95
  Z
  M 57.51 112.13
  L 61.41 112.06
  Q 62.17 112.05 62.06 111.30
  C 61.86 109.96 61.67 108.68 60.15 108.24
  C 55.07 106.77 53.23 113.61 56.76 115.46
  Q 59.26 116.77 62.07 115.04
  Q 62.27 114.91 62.17 114.69
  L 61.97 114.21
  Q 61.70 113.60 61.17 113.99
  Q 58.01 116.29 57.03 112.76
  A 0.50 0.50 0.0 0 1 57.51 112.13
  Z
  M 66.1510 108.6427
  A 0.64 0.64 0.0 0 0 65.5245 107.9895
  L 64.7047 107.9723
  A 0.64 0.64 0.0 0 0 64.0514 108.5988
  L 63.9090 115.3973
  A 0.64 0.64 0.0 0 0 64.5355 116.0505
  L 65.3553 116.0677
  A 0.64 0.64 0.0 0 0 66.0086 115.4412
  L 66.1510 108.6427
  Z
  M 68.91 110.25
  L 68.99 115.25
  Q 69.00 116.00 69.75 116.00
  L 70.24 116.00
  Q 70.97 116.00 70.98 115.26
  L 71.09 109.67
  Q 71.10 109.11 70.66 108.79
  Q 69.23 107.74 67.44 108.10
  Q 67.19 108.15 67.07 108.39
  Q 66.97 108.57 67.06 108.79
  A 0.33 0.32 -11.0 0 0 67.38 109.00
  Q 68.02 108.97 68.49 109.37
  Q 68.90 109.72 68.91 110.25
  Z
  M 72.37 108.92
  A 1.50 1.49 87.1 0 1 73.93 110.34
  Q 74.05 112.77 74.00 115.23
  Q 73.98 116.04 74.79 116.04
  L 75.20 116.04
  A 0.75 0.75 0.0 0 0 75.96 115.33
  C 76.08 112.59 76.99 107.02 72.18 108.17
  A 0.36 0.36 0.0 0 0 72.05 108.82
  Q 72.19 108.93 72.37 108.92
  Z
  M 80.40 109.49
  Q 81.52 108.58 83.32 109.71
  Q 83.69 109.93 83.88 109.55
  L 84.03 109.27
  A 0.43 0.43 0.0 0 0 83.87 108.70
  C 82.01 107.60 78.14 107.60 78.07 110.60
  Q 78.03 112.24 79.62 112.66
  Q 80.54 112.91 81.37 113.35
  Q 82.57 113.98 81.41 114.68
  Q 80.21 115.41 78.74 114.36
  Q 78.37 114.10 78.17 114.51
  L 77.98 114.89
  A 0.23 0.22 -60.4 0 0 78.06 115.19
  Q 80.96 117.02 83.33 114.99
  A 2.13 2.13 0.0 0 0 82.52 111.32
  L 80.67 110.80
  Q 79.28 110.41 80.40 109.49
  Z"
/>
<path fill="#2aac40" d="
  M 110.61 102.59
  Q 110.71 105.16 110.73 107.52
  Q 110.75 109.40 111.12 112.42
  Q 112.34 122.24 106.96 128.00
  L 96.76 128.00
  L 78.60 127.20
  Q 88.83 125.58 99.25 125.83
  C 103.55 125.94 106.12 123.00 108.24 119.19
  Q 108.49 118.75 108.26 118.29
  Q 107.46 116.75 107.42 115.05
  Q 107.29 110.30 106.96 105.28
  Q 106.92 104.74 107.39 104.47
  L 110.61 102.59
  Z"
/>
<path fill="#feffff" d="
  M 50.74 116.95
  L 51.00 116.02
  Q 51.28 115.02 50.32 115.40
  Q 45.47 117.29 45.02 112.13
  Q 44.85 110.15 46.42 108.87
  C 48.19 107.44 50.24 108.28 52.30 107.90
  A 0.63 0.62 84.7 0 1 53.04 108.52
  L 52.98 116.07
  A 2.53 2.51 76.0 0 1 51.67 118.27
  Q 49.59 119.41 46.42 118.91
  Q 45.94 118.83 46.19 118.42
  L 46.36 118.14
  Q 46.40 118.07 46.48 118.07
  L 49.55 117.90
  Q 50.49 117.85 50.74 116.95
  Z
  M 48.61 114.88
  C 51.70 115.31 51.19 111.08 50.82 109.32
  Q 50.72 108.82 50.21 108.87
  Q 46.22 109.20 47.17 113.55
  A 1.73 1.72 -2.2 0 0 48.61 114.88
  Z"
/>
<path fill="#feffff" d="
  M 57.51 112.13
  A 0.50 0.50 0.0 0 0 57.03 112.76
  Q 58.01 116.29 61.17 113.99
  Q 61.70 113.60 61.97 114.21
  L 62.17 114.69
  Q 62.27 114.91 62.07 115.04
  Q 59.26 116.77 56.76 115.46
  C 53.23 113.61 55.07 106.77 60.15 108.24
  C 61.67 108.68 61.86 109.96 62.06 111.30
  Q 62.17 112.05 61.41 112.06
  L 57.51 112.13
  Z
  M 57.53 110.90
  L 59.23 111.01
  A 0.74 0.74 0.0 0 0 59.84 109.78
  Q 58.86 108.66 57.69 109.45
  Q 57.19 109.79 57.12 110.41
  A 0.44 0.43 5.5 0 0 57.53 110.90
  Z"
/>
<rect fill="#feffff" x="-1.05" y="-4.04" transform="translate(65.03,112.02) rotate(1.2)" width="2.10" height="8.08" rx="0.64"/>
<path fill="#feffff" d="
  M 68.49 109.37
  Q 68.02 108.97 67.38 109.00
  A 0.33 0.32 -11.0 0 1 67.06 108.79
  Q 66.97 108.57 67.07 108.39
  Q 67.19 108.15 67.44 108.10
  Q 69.23 107.74 70.66 108.79
  Q 71.10 109.11 71.09 109.67
  L 70.98 115.26
  Q 70.97 116.00 70.24 116.00
  L 69.75 116.00
  Q 69.00 116.00 68.99 115.25
  L 68.91 110.25
  Q 68.90 109.72 68.49 109.37
  Z"
/>
<path fill="#feffff" d="
  M 72.37 108.92
  Q 72.19 108.93 72.05 108.82
  A 0.36 0.36 0.0 0 1 72.18 108.17
  C 76.99 107.02 76.08 112.59 75.96 115.33
  A 0.75 0.75 0.0 0 1 75.20 116.04
  L 74.79 116.04
  Q 73.98 116.04 74.00 115.23
  Q 74.05 112.77 73.93 110.34
  A 1.50 1.49 87.1 0 0 72.37 108.92
  Z"
/>
<path fill="#feffff" d="
  M 80.40 109.49
  Q 79.28 110.41 80.67 110.80
  L 82.52 111.32
  A 2.13 2.13 0.0 0 1 83.33 114.99
  Q 80.96 117.02 78.06 115.19
  A 0.23 0.22 -60.4 0 1 77.98 114.89
  L 78.17 114.51
  Q 78.37 114.10 78.74 114.36
  Q 80.21 115.41 81.41 114.68
  Q 82.57 113.98 81.37 113.35
  Q 80.54 112.91 79.62 112.66
  Q 78.03 112.24 78.07 110.60
  C 78.14 107.60 82.01 107.60 83.87 108.70
  A 0.43 0.43 0.0 0 1 84.03 109.27
  L 83.88 109.55
  Q 83.69 109.93 83.32 109.71
  Q 81.52 108.58 80.40 109.49
  Z"
/>
<path fill="#4dcb64" d="
  M 48.61 114.88
  A 1.73 1.72 -2.2 0 1 47.17 113.55
  Q 46.22 109.20 50.21 108.87
  Q 50.72 108.82 50.82 109.32
  C 51.19 111.08 51.70 115.31 48.61 114.88
  Z"
/>
<path fill="#4dcb64" d="
  M 57.53 110.90
  A 0.44 0.43 5.5 0 1 57.12 110.41
  Q 57.19 109.79 57.69 109.45
  Q 58.86 108.66 59.84 109.78
  A 0.74 0.74 0.0 0 1 59.23 111.01
  L 57.53 110.90
  Z"
/>
<path fill="#2aac40" d="
  M 16.88 117.20
  L 24.38 125.18
  Q 24.73 125.56 25.25 125.60
  C 28.90 125.84 32.45 126.33 36.01 126.30
  Q 44.73 126.21 53.37 126.57
  Q 53.87 126.59 54.10 127.03
  L 54.49 127.79
  L 30.36 128.00
  L 21.45 128.00
  Q 15.74 123.65 16.88 117.20
  Z"
/>
<path fill="#23532c" d="
  M 54.49 127.79
  Q 55.23 127.72 55.18 128.00
  L 30.36 128.00
  L 54.49 127.79
  Z"
/>
<path fill="#23532c" d="
  M 78.60 127.20
  L 96.76 128.00
  L 76.09 128.00
  Q 77.76 127.69 78.60 127.20
  Z"
/>
</svg>
