<?xml version="1.0" encoding="UTF-8" standalone="no"?>
<!DOCTYPE svg PUBLIC "-//W3C//DTD SVG 1.1//EN" "http://www.w3.org/Graphics/SVG/1.1/DTD/svg11.dtd">
<svg xmlns="http://www.w3.org/2000/svg" version="1.1" viewBox="0.00 0.00 128.00 128.00">
<g stroke-width="2.00" fill="none" stroke-linecap="butt">
<path stroke="#727272" vector-effect="non-scaling-stroke" d="
  M 3.80 120.76
  Q 3.48 121.54 4.09 122.32
  Q 4.40 122.71 4.44 123.20
  Q 4.57 124.79 3.71 126.05
  Q 2.69 127.53 4.49 127.58
  L 6.56 127.63
  A 1.25 1.25 0.0 0 0 7.79 126.03
  C 7.04 123.49 8.33 122.71 9.65 120.98
  Q 10.25 120.21 11.01 119.59
  Q 14.42 116.84 17.29 113.92
  Q 17.61 113.59 18.00 113.35
  Q 18.49 113.05 18.62 112.45
  A 1.03 1.02 4.8 0 1 19.57 111.65
  Q 22.98 111.45 26.50 111.81
  C 31.21 112.30 35.96 112.13 40.70 111.92
  C 43.45 111.80 46.05 112.58 48.80 112.93"
/>
<path stroke="#4f4f4f" vector-effect="non-scaling-stroke" d="
  M 48.80 112.93
  Q 47.38 112.88 42.00 113.36
  Q 37.18 113.78 21.99 113.10
  Q 21.48 113.07 21.08 113.38
  Q 18.66 115.27 18.13 116.02
  Q 15.72 119.42 13.43 120.23
  C 12.51 120.55 11.80 121.33 10.93 121.87
  Q 10.21 122.31 9.77 123.46
  Q 9.27 124.78 10.61 125.60
  Q 12.42 126.70 14.74 126.55
  Q 20.38 126.20 25.10 126.16
  Q 63.00 125.82 110.01 126.10
  Q 118.51 126.15 125.69 126.91
  A 1.44 1.44 0.0 0 0 127.28 125.36
  Q 126.72 118.62 126.67 112.50
  Q 126.43 83.67 126.63 54.02
  Q 126.72 40.54 126.53 26.50
  Q 126.46 20.75 126.99 14.01
  C 127.12 12.42 126.47 9.17 124.29 9.11
  Q 122.94 9.07 122.14 10.39
  Q 121.77 11.00 120.01 13.07"
/>
<path stroke="#727272" vector-effect="non-scaling-stroke" d="
  M 120.01 13.07
  L 114.15 19.73
  Q 112.25 21.89 113.55 19.32
  Q 115.81 14.85 120.03 12.05
  Q 120.32 11.86 120.38 11.51
  Q 120.82 8.90 122.68 6.86
  A 1.33 1.31 -72.0 0 1 123.49 6.44
  L 126.16 6.07
  Q 127.56 5.87 127.61 4.46
  Q 127.62 4.18 127.55 3.92
  A 1.18 1.17 -10.7 0 0 126.27 3.06
  Q 123.36 3.42 120.42 2.41"
/>
<path stroke="#909090" vector-effect="non-scaling-stroke" d="
  M 120.42 2.41
  Q 118.25 1.53 114.50 1.51
  Q 59.24 1.23 26.15 1.65
  C 20.62 1.72 14.51 1.82 9.03 1.09
  Q 5.79 0.65 2.29 0.96
  A 1.54 1.53 -6.0 0 0 0.90 2.67
  C 1.50 7.64 2.30 11.92 2.29 17.12
  Q 2.07 93.48 2.19 115.75
  Q 2.20 117.99 3.80 120.76"
/>
<path stroke="#989898" vector-effect="non-scaling-stroke" d="
  M 120.42 2.41
  Q 120.18 3.24 120.75 3.24
  Q 121.41 3.91 121.38 4.74
  A 0.03 0.03 0.0 0 1 121.32 4.75
  Q 121.22 4.28 121.42 3.84
  Q 121.72 3.19 121.94 3.88
  Q 122.32 5.03 121.28 5.96
  Q 120.86 6.33 120.68 6.87
  Q 119.93 9.24 117.43 9.67
  Q 116.70 9.80 116.43 10.48
  Q 116.20 11.02 115.49 11.17
  Q 114.92 11.28 114.54 11.73
  Q 112.68 13.97 109.84 15.84
  Q 108.47 16.74 106.91 16.86
  Q 105.25 16.99 103.62 16.87
  Q 99.04 16.52 94.08 16.65
  C 92.26 16.69 90.57 16.19 88.76 16.22
  Q 54.52 16.86 19.04 16.05
  A 2.03 2.03 0.0 0 0 16.98 17.84
  C 16.52 21.68 17.03 25.52 17.01 29.38
  Q 16.87 67.77 17.14 104.03
  C 17.15 105.04 17.60 106.11 17.32 107.07
  A 7.40 3.77 -31.8 0 1 15.73 109.70
  Q 14.19 111.44 12.22 112.56
  Q 11.78 112.81 11.58 113.27
  Q 9.15 118.63 5.04 121.28
  Q 4.51 121.62 3.80 120.76"
/>
<path stroke="#585858" vector-effect="non-scaling-stroke" d="
  M 120.01 13.07
  Q 119.04 15.72 116.69 17.35
  Q 116.55 17.45 116.72 17.46
  Q 116.77 17.47 116.80 17.51
  Q 116.92 17.67 116.75 17.79
  Q 115.06 18.96 113.74 20.55
  A 1.55 1.50 69.7 0 0 113.39 21.34
  Q 113.18 22.86 113.49 24.26
  Q 114.17 27.38 114.24 30.00
  Q 114.34 33.56 114.57 36.82
  Q 114.67 38.15 114.26 40.59
  Q 113.94 42.52 114.34 44.44
  C 114.57 45.57 114.24 46.55 113.69 47.52
  Q 113.43 47.97 113.44 48.49
  C 113.50 63.89 113.77 79.29 113.40 94.71
  Q 113.21 102.94 113.52 111.13
  A 1.63 1.62 -1.2 0 1 111.89 112.82
  L 48.80 112.93"
/>
</g>
<path fill="#696969" d="
  M 0.00 0.00
  L 128.00 0.00
  L 128.00 128.00
  L 0.00 128.00
  L 0.00 0.00
  Z
  M 3.80 120.76
  Q 3.48 121.54 4.09 122.32
  Q 4.40 122.71 4.44 123.20
  Q 4.57 124.79 3.71 126.05
  Q 2.69 127.53 4.49 127.58
  L 6.56 127.63
  A 1.25 1.25 0.0 0 0 7.79 126.03
  C 7.04 123.49 8.33 122.71 9.65 120.98
  Q 10.25 120.21 11.01 119.59
  Q 14.42 116.84 17.29 113.92
  Q 17.61 113.59 18.00 113.35
  Q 18.49 113.05 18.62 112.45
  A 1.03 1.02 4.8 0 1 19.57 111.65
  Q 22.98 111.45 26.50 111.81
  C 31.21 112.30 35.96 112.13 40.70 111.92
  C 43.45 111.80 46.05 112.58 48.80 112.93
  Q 47.38 112.88 42.00 113.36
  Q 37.18 113.78 21.99 113.10
  Q 21.48 113.07 21.08 113.38
  Q 18.66 115.27 18.13 116.02
  Q 15.72 119.42 13.43 120.23
  C 12.51 120.55 11.80 121.33 10.93 121.87
  Q 10.21 122.31 9.77 123.46
  Q 9.27 124.78 10.61 125.60
  Q 12.42 126.70 14.74 126.55
  Q 20.38 126.20 25.10 126.16
  Q 63.00 125.82 110.01 126.10
  Q 118.51 126.15 125.69 126.91
  A 1.44 1.44 0.0 0 0 127.28 125.36
  Q 126.72 118.62 126.67 112.50
  Q 126.43 83.67 126.63 54.02
  Q 126.72 40.54 126.53 26.50
  Q 126.46 20.75 126.99 14.01
  C 127.12 12.42 126.47 9.17 124.29 9.11
  Q 122.94 9.07 122.14 10.39
  Q 121.77 11.00 120.01 13.07
  L 114.15 19.73
  Q 112.25 21.89 113.55 19.32
  Q 115.81 14.85 120.03 12.05
  Q 120.32 11.86 120.38 11.51
  Q 120.82 8.90 122.68 6.86
  A 1.33 1.31 -72.0 0 1 123.49 6.44
  L 126.16 6.07
  Q 127.56 5.87 127.61 4.46
  Q 127.62 4.18 127.55 3.92
  A 1.18 1.17 -10.7 0 0 126.27 3.06
  Q 123.36 3.42 120.42 2.41
  Q 118.25 1.53 114.50 1.51
  Q 59.24 1.23 26.15 1.65
  C 20.62 1.72 14.51 1.82 9.03 1.09
  Q 5.79 0.65 2.29 0.96
  A 1.54 1.53 -6.0 0 0 0.90 2.67
  C 1.50 7.64 2.30 11.92 2.29 17.12
  Q 2.07 93.48 2.19 115.75
  Q 2.20 117.99 3.80 120.76
  Z"
/>
<path fill="#b6b6b6" d="
  M 120.42 2.41
  Q 120.18 3.24 120.75 3.24
  Q 121.41 3.91 121.38 4.74
  A 0.03 0.03 0.0 0 1 121.32 4.75
  Q 121.22 4.28 121.42 3.84
  Q 121.72 3.19 121.94 3.88
  Q 122.32 5.03 121.28 5.96
  Q 120.86 6.33 120.68 6.87
  Q 119.93 9.24 117.43 9.67
  Q 116.70 9.80 116.43 10.48
  Q 116.20 11.02 115.49 11.17
  Q 114.92 11.28 114.54 11.73
  Q 112.68 13.97 109.84 15.84
  Q 108.47 16.74 106.91 16.86
  Q 105.25 16.99 103.62 16.87
  Q 99.04 16.52 94.08 16.65
  C 92.26 16.69 90.57 16.19 88.76 16.22
  Q 54.52 16.86 19.04 16.05
  A 2.03 2.03 0.0 0 0 16.98 17.84
  C 16.52 21.68 17.03 25.52 17.01 29.38
  Q 16.87 67.77 17.14 104.03
  C 17.15 105.04 17.60 106.11 17.32 107.07
  A 7.40 3.77 -31.8 0 1 15.73 109.70
  Q 14.19 111.44 12.22 112.56
  Q 11.78 112.81 11.58 113.27
  Q 9.15 118.63 5.04 121.28
  Q 4.51 121.62 3.80 120.76
  Q 2.20 117.99 2.19 115.75
  Q 2.07 93.48 2.29 17.12
  C 2.30 11.92 1.50 7.64 0.90 2.67
  A 1.54 1.53 -6.0 0 1 2.29 0.96
  Q 5.79 0.65 9.03 1.09
  C 14.51 1.82 20.62 1.72 26.15 1.65
  Q 59.24 1.23 114.50 1.51
  Q 118.25 1.53 120.42 2.41
  Z"
/>
<path fill="#7a7a7a" d="
  M 120.42 2.41
  Q 123.36 3.42 126.27 3.06
  A 1.18 1.17 -10.7 0 1 127.55 3.92
  Q 127.62 4.18 127.61 4.46
  Q 127.56 5.87 126.16 6.07
  L 123.49 6.44
  A 1.33 1.31 -72.0 0 0 122.68 6.86
  Q 120.82 8.90 120.38 11.51
  Q 120.32 11.86 120.03 12.05
  Q 115.81 14.85 113.55 19.32
  Q 112.25 21.89 114.15 19.73
  L 120.01 13.07
  Q 119.04 15.72 116.69 17.35
  Q 116.55 17.45 116.72 17.46
  Q 116.77 17.47 116.80 17.51
  Q 116.92 17.67 116.75 17.79
  Q 115.06 18.96 113.74 20.55
  A 1.55 1.50 69.7 0 0 113.39 21.34
  Q 113.18 22.86 113.49 24.26
  Q 114.17 27.38 114.24 30.00
  Q 114.34 33.56 114.57 36.82
  Q 114.67 38.15 114.26 40.59
  Q 113.94 42.52 114.34 44.44
  C 114.57 45.57 114.24 46.55 113.69 47.52
  Q 113.43 47.97 113.44 48.49
  C 113.50 63.89 113.77 79.29 113.40 94.71
  Q 113.21 102.94 113.52 111.13
  A 1.63 1.62 -1.2 0 1 111.89 112.82
  L 48.80 112.93
  C 46.05 112.58 43.45 111.80 40.70 111.92
  C 35.96 112.13 31.21 112.30 26.50 111.81
  Q 22.98 111.45 19.57 111.65
  A 1.03 1.02 4.8 0 0 18.62 112.45
  Q 18.49 113.05 18.00 113.35
  Q 17.61 113.59 17.29 113.92
  Q 14.42 116.84 11.01 119.59
  Q 10.25 120.21 9.65 120.98
  C 8.33 122.71 7.04 123.49 7.79 126.03
  A 1.25 1.25 0.0 0 1 6.56 127.63
  L 4.49 127.58
  Q 2.69 127.53 3.71 126.05
  Q 4.57 124.79 4.44 123.20
  Q 4.40 122.71 4.09 122.32
  Q 3.48 121.54 3.80 120.76
  Q 4.51 121.62 5.04 121.28
  Q 9.15 118.63 11.58 113.27
  Q 11.78 112.81 12.22 112.56
  Q 14.19 111.44 15.73 109.70
  A 7.40 3.77 -31.8 0 0 17.32 107.07
  C 17.60 106.11 17.15 105.04 17.14 104.03
  Q 16.87 67.77 17.01 29.38
  C 17.03 25.52 16.52 21.68 16.98 17.84
  A 2.03 2.03 0.0 0 1 19.04 16.05
  Q 54.52 16.86 88.76 16.22
  C 90.57 16.19 92.26 16.69 94.08 16.65
  Q 99.04 16.52 103.62 16.87
  Q 105.25 16.99 106.91 16.86
  Q 108.47 16.74 109.84 15.84
  Q 112.68 13.97 114.54 11.73
  Q 114.92 11.28 115.49 11.17
  Q 116.20 11.02 116.43 10.48
  Q 116.70 9.80 117.43 9.67
  Q 119.93 9.24 120.68 6.87
  Q 120.86 6.33 121.28 5.96
  Q 122.32 5.03 121.94 3.88
  Q 121.72 3.19 121.42 3.84
  Q 121.22 4.28 121.32 4.75
  A 0.03 0.03 0.0 0 0 121.38 4.74
  Q 121.41 3.91 120.75 3.24
  Q 120.18 3.24 120.42 2.41
  Z"
/>
<path fill="#353535" d="
  M 48.80 112.93
  L 111.89 112.82
  A 1.63 1.62 -1.2 0 0 113.52 111.13
  Q 113.21 102.94 113.40 94.71
  C 113.77 79.29 113.50 63.89 113.44 48.49
  Q 113.43 47.97 113.69 47.52
  C 114.24 46.55 114.57 45.57 114.34 44.44
  Q 113.94 42.52 114.26 40.59
  Q 114.67 38.15 114.57 36.82
  Q 114.34 33.56 114.24 30.00
  Q 114.17 27.38 113.49 24.26
  Q 113.18 22.86 113.39 21.34
  A 1.55 1.50 69.7 0 1 113.74 20.55
  Q 115.06 18.96 116.75 17.79
  Q 116.92 17.67 116.80 17.51
  Q 116.77 17.47 116.72 17.46
  Q 116.55 17.45 116.69 17.35
  Q 119.04 15.72 120.01 13.07
  Q 121.77 11.00 122.14 10.39
  Q 122.94 9.07 124.29 9.11
  C 126.47 9.17 127.12 12.42 126.99 14.01
  Q 126.46 20.75 126.53 26.50
  Q 126.72 40.54 126.63 54.02
  Q 126.43 83.67 126.67 112.50
  Q 126.72 118.62 127.28 125.36
  A 1.44 1.44 0.0 0 1 125.69 126.91
  Q 118.51 126.15 110.01 126.10
  Q 63.00 125.82 25.10 126.16
  Q 20.38 126.20 14.74 126.55
  Q 12.42 126.70 10.61 125.60
  Q 9.27 124.78 9.77 123.46
  Q 10.21 122.31 10.93 121.87
  C 11.80 121.33 12.51 120.55 13.43 120.23
  Q 15.72 119.42 18.13 116.02
  Q 18.66 115.27 21.08 113.38
  Q 21.48 113.07 21.99 113.10
  Q 37.18 113.78 42.00 113.36
  Q 47.38 112.88 48.80 112.93
  Z"
/>
</svg>
