<?xml version="1.0" encoding="UTF-8" standalone="no"?>
<!DOCTYPE svg PUBLIC "-//W3C//DTD SVG 1.1//EN" "http://www.w3.org/Graphics/SVG/1.1/DTD/svg11.dtd">
<svg xmlns="http://www.w3.org/2000/svg" version="1.1" viewBox="0.00 0.00 128.00 128.00">
<g stroke-width="2.00" fill="none" stroke-linecap="butt">
<path stroke="#bfbfbf" vector-effect="non-scaling-stroke" d="
  M 47.53 0.79
  Q 31.23 1.22 14.93 1.54
  C 10.79 1.62 7.17 0.49 2.96 0.92
  Q 0.60 1.16 0.98 3.35
  Q 2.34 11.21 2.37 17.00
  Q 2.57 51.03 2.53 85.06
  Q 2.53 85.13 2.51 85.19
  Q 2.48 85.25 2.44 85.31
  Q 2.31 85.49 2.31 85.72
  C 2.27 95.28 2.50 104.95 2.19 114.52
  Q 2.02 119.61 5.36 121.18"
/>
<path stroke="#a5a5a5" vector-effect="non-scaling-stroke" d="
  M 5.36 121.18
  Q 9.35 119.24 11.07 116.59
  Q 11.23 116.36 11.04 116.56
  Q 10.94 116.67 11.13 116.69
  A 0.05 0.04 18.8 0 1 11.17 116.76
  Q 9.27 119.45 6.75 121.15
  Q 5.48 122.02 4.16 121.35
  Q 3.62 121.07 3.81 121.65
  Q 4.55 123.93 3.75 125.99
  A 1.19 1.19 0.0 0 0 4.74 127.61
  Q 6.26 127.76 7.28 127.19
  A 0.90 0.88 -21.5 0 0 7.71 126.23
  Q 7.01 123.12 9.21 121.64
  Q 9.69 121.31 9.86 120.76
  Q 10.13 119.91 10.86 119.42
  Q 13.04 117.97 14.63 116.13
  Q 15.90 114.67 17.46 113.22
  Q 19.00 111.78 20.95 111.56
  C 25.34 111.07 30.32 111.58 34.33 111.93
  C 37.99 112.25 41.51 111.74 45.04 112.60
  Q 45.13 112.62 45.20 112.69
  Q 45.29 112.78 45.29 112.94
  Q 45.28 113.09 45.43 113.09
  C 56.37 113.26 67.44 112.65 78.24 113.24
  Q 78.45 113.25 78.44 113.45
  L 78.44 113.46
  Q 78.43 113.62 78.27 113.62
  Q 71.96 113.59 65.63 113.63
  Q 65.62 113.63 65.62 113.63
  Q 65.62 113.63 65.62 113.63
  Q 68.17 113.52 70.73 113.81"
/>
<path stroke="#848584" vector-effect="non-scaling-stroke" d="
  M 70.73 113.81
  Q 54.48 114.21 38.25 114.36
  Q 37.94 114.37 37.17 114.87
  Q 36.73 115.16 36.21 115.13
  C 33.85 115.02 31.65 115.40 29.26 115.25
  Q 26.78 115.09 24.41 114.70
  Q 20.45 114.05 18.87 117.43
  Q 18.33 118.59 17.23 119.45
  Q 16.18 120.28 14.97 120.62
  Q 14.16 120.84 13.40 121.16
  Q 13.05 121.30 12.81 121.60
  L 11.30 123.43
  A 1.69 1.69 0.0 0 0 12.00 126.08
  Q 12.91 126.43 13.91 126.37
  Q 38.79 124.87 62.75 125.39
  Q 72.47 125.60 82.76 125.60
  Q 100.20 125.59 115.27 125.84
  Q 120.71 125.93 125.93 126.44
  A 0.87 0.87 0.0 0 0 126.88 125.49
  Q 126.40 120.54 126.41 113.81
  Q 126.49 72.24 126.04 27.74
  C 125.99 22.23 126.75 16.66 126.38 11.20
  A 1.45 1.45 0.0 0 0 123.90 10.28
  Q 122.59 11.59 121.38 13.05
  C 120.28 14.39 119.98 15.97 118.67 17.27
  Q 118.35 17.59 117.91 17.72
  Q 114.31 18.80 114.36 22.24
  Q 114.64 43.42 114.09 56.07"
/>
<path stroke="#a5a5a5" vector-effect="non-scaling-stroke" d="
  M 114.09 56.07
  Q 113.56 44.10 113.89 38.75
  Q 114.24 33.08 113.63 29.07
  C 113.30 26.85 113.47 24.78 113.21 22.60
  C 113.05 21.21 113.48 20.42 114.34 19.46
  Q 114.39 19.41 114.38 19.34
  Q 114.37 19.29 114.37 19.24
  Q 114.38 18.95 114.29 19.22
  Q 114.14 19.66 113.78 19.83
  Q 113.24 20.08 113.45 19.53
  Q 114.29 17.34 116.04 15.56
  Q 117.59 14.00 118.88 12.17
  Q 120.56 9.80 122.09 7.43
  A 1.72 1.71 -84.1 0 1 122.90 6.77
  Q 124.33 6.22 125.78 5.99
  Q 126.42 5.88 126.84 5.43
  Q 127.39 4.82 127.10 4.04
  Q 126.92 3.57 126.44 3.42
  Q 125.04 2.97 123.52 3.09
  Q 123.03 3.13 122.60 2.90
  Q 121.70 2.43 120.51 2.55"
/>
<path stroke="#bfbfbf" vector-effect="non-scaling-stroke" d="
  M 120.51 2.55
  Q 118.89 1.73 117.00 1.67
  Q 108.03 1.42 99.03 1.15"
/>
<path stroke="#a5a5a5" vector-effect="non-scaling-stroke" d="
  M 99.03 1.15
  Q 90.65 0.00 82.22 0.55
  Q 78.82 0.77 75.41 0.77
  L 47.53 0.79"
/>
<path stroke="#c6c6c6" vector-effect="non-scaling-stroke" d="
  M 99.03 1.15
  Q 73.29 2.00 47.53 0.79"
/>
<path stroke="#c6c6c6" vector-effect="non-scaling-stroke" d="
  M 120.51 2.55
  L 121.01 2.89
  A 1.80 1.80 0.0 0 1 121.30 5.64
  L 118.48 8.53
  Q 117.92 9.11 117.83 8.31
  Q 117.77 7.77 118.16 7.66
  Q 118.63 7.52 118.15 7.61
  Q 118.09 7.62 118.03 7.63
  Q 117.90 7.64 117.78 7.72
  Q 115.65 9.27 114.40 11.04
  Q 113.32 12.58 112.08 14.00
  Q 109.57 16.88 106.48 16.63
  Q 95.22 15.70 85.87 16.34
  Q 78.68 16.83 70.02 17.48
  Q 66.80 17.72 63.30 17.56
  C 59.09 17.36 54.97 17.43 50.76 17.03
  Q 47.19 16.70 43.83 17.45
  C 42.21 17.81 40.86 17.45 39.29 17.14
  Q 37.62 16.81 35.86 16.74
  Q 26.74 16.40 18.99 16.17
  A 2.07 2.07 0.0 0 0 16.85 18.15
  C 16.68 22.15 17.16 25.98 17.14 29.98
  Q 16.94 70.18 16.86 107.90
  Q 16.86 108.43 16.49 108.82
  L 11.09 114.56
  Q 10.79 114.88 10.64 115.29
  Q 9.86 117.46 8.14 118.99
  Q 7.73 119.36 7.89 118.83
  Q 8.06 118.23 8.65 117.86
  Q 8.78 117.77 8.72 117.64
  Q 8.70 117.58 8.64 117.60
  Q 8.60 117.62 8.56 117.66
  Q 7.49 118.94 5.36 121.18"
/>
<path stroke="#8b8b8b" vector-effect="non-scaling-stroke" d="
  M 114.09 56.07
  L 114.02 110.32
  A 2.81 2.81 0.0 0 1 111.25 113.13
  L 70.73 113.81"
/>
<path stroke="#606060" vector-effect="non-scaling-stroke" d="
  M 39.00 68.01
  L 39.02 105.57
  Q 39.02 107.10 40.55 107.13
  L 45.27 107.22
  A 1.63 1.63 0.0 0 0 46.94 105.59
  L 47.02 68.18"
/>
<path stroke="#d5d45e" vector-effect="non-scaling-stroke" d="
  M 47.02 68.18
  L 54.14 68.05
  A 0.87 0.87 0.0 0 0 55.00 67.19
  L 55.03 63.74
  A 0.66 0.65 88.6 0 1 55.64 63.09
  Q 58.52 62.89 61.24 63.02
  Q 63.18 63.12 63.00 60.72
  A 1.25 1.24 -5.4 0 1 64.11 59.38
  L 70.80 58.67
  Q 71.29 58.62 71.48 58.16
  L 72.28 56.30
  Q 72.50 55.78 73.06 55.68
  L 79.69 54.55
  Q 80.23 54.46 80.42 53.95
  C 81.45 51.20 84.60 51.23 87.01 50.78
  C 89.11 50.40 89.01 47.96 91.35 47.55
  Q 94.01 47.07 97.04 46.61
  Q 97.65 46.52 97.82 45.93
  Q 98.08 45.06 98.03 44.12
  Q 97.99 43.49 97.36 43.41
  L 90.55 42.56
  A 1.20 1.17 77.7 0 1 89.68 41.99
  L 88.49 39.98
  A 1.18 1.17 80.1 0 0 87.70 39.42
  C 85.48 39.02 82.16 38.93 80.83 36.80
  A 3.27 3.23 78.5 0 0 78.61 35.31
  L 73.45 34.46
  Q 72.82 34.35 72.51 33.78
  Q 71.87 32.58 71.72 31.13
  Q 71.66 30.59 71.12 30.50
  L 64.32 29.33
  A 1.30 1.30 0.0 0 1 63.36 28.58
  L 62.65 26.96
  Q 62.30 26.18 61.45 26.08
  L 56.44 25.53
  Q 55.62 25.44 55.28 24.70
  L 54.56 23.15
  A 1.08 1.08 0.0 0 0 53.65 22.53
  L 46.99 22.16"
/>
<path stroke="#d5d5a6" vector-effect="non-scaling-stroke" d="
  M 46.99 22.16
  L 40.00 22.08
  A 0.97 0.97 0.0 0 0 39.02 23.05
  L 39.00 68.01"
/>
<path stroke="#fffe59" vector-effect="non-scaling-stroke" d="
  M 46.99 22.16
  L 46.97 68.00"
/>
<path stroke="#8a8a5b" vector-effect="non-scaling-stroke" d="
  M 46.97 68.00
  L 39.00 68.01"
/>
<path stroke="#8a8913" vector-effect="non-scaling-stroke" d="
  M 47.02 68.18
  Q 46.52 67.90 46.97 68.00"
/>
<path stroke="#a5a5a5" vector-effect="non-scaling-stroke" d="
  M 82.66 112.95
  Q 86.66 113.46 91.24 112.93
  Q 92.19 112.82 91.24 112.75
  Q 87.12 112.44 82.67 112.74
  Q 81.58 112.81 82.66 112.95"
/>
</g>
<path fill="#9e9e9e" d="
  M 0.00 0.00
  L 128.00 0.00
  L 128.00 128.00
  L 0.00 128.00
  L 0.00 0.00
  Z
  M 47.53 0.79
  Q 31.23 1.22 14.93 1.54
  C 10.79 1.62 7.17 0.49 2.96 0.92
  Q 0.60 1.16 0.98 3.35
  Q 2.34 11.21 2.37 17.00
  Q 2.57 51.03 2.53 85.06
  Q 2.53 85.13 2.51 85.19
  Q 2.48 85.25 2.44 85.31
  Q 2.31 85.49 2.31 85.72
  C 2.27 95.28 2.50 104.95 2.19 114.52
  Q 2.02 119.61 5.36 121.18
  Q 9.35 119.24 11.07 116.59
  Q 11.23 116.36 11.04 116.56
  Q 10.94 116.67 11.13 116.69
  A 0.05 0.04 18.8 0 1 11.17 116.76
  Q 9.27 119.45 6.75 121.15
  Q 5.48 122.02 4.16 121.35
  Q 3.62 121.07 3.81 121.65
  Q 4.55 123.93 3.75 125.99
  A 1.19 1.19 0.0 0 0 4.74 127.61
  Q 6.26 127.76 7.28 127.19
  A 0.90 0.88 -21.5 0 0 7.71 126.23
  Q 7.01 123.12 9.21 121.64
  Q 9.69 121.31 9.86 120.76
  Q 10.13 119.91 10.86 119.42
  Q 13.04 117.97 14.63 116.13
  Q 15.90 114.67 17.46 113.22
  Q 19.00 111.78 20.95 111.56
  C 25.34 111.07 30.32 111.58 34.33 111.93
  C 37.99 112.25 41.51 111.74 45.04 112.60
  Q 45.13 112.62 45.20 112.69
  Q 45.29 112.78 45.29 112.94
  Q 45.28 113.09 45.43 113.09
  C 56.37 113.26 67.44 112.65 78.24 113.24
  Q 78.45 113.25 78.44 113.45
  L 78.44 113.46
  Q 78.43 113.62 78.27 113.62
  Q 71.96 113.59 65.63 113.63
  Q 65.62 113.63 65.62 113.63
  Q 65.62 113.63 65.62 113.63
  Q 68.17 113.52 70.73 113.81
  Q 54.48 114.21 38.25 114.36
  Q 37.94 114.37 37.17 114.87
  Q 36.73 115.16 36.21 115.13
  C 33.85 115.02 31.65 115.40 29.26 115.25
  Q 26.78 115.09 24.41 114.70
  Q 20.45 114.05 18.87 117.43
  Q 18.33 118.59 17.23 119.45
  Q 16.18 120.28 14.97 120.62
  Q 14.16 120.84 13.40 121.16
  Q 13.05 121.30 12.81 121.60
  L 11.30 123.43
  A 1.69 1.69 0.0 0 0 12.00 126.08
  Q 12.91 126.43 13.91 126.37
  Q 38.79 124.87 62.75 125.39
  Q 72.47 125.60 82.76 125.60
  Q 100.20 125.59 115.27 125.84
  Q 120.71 125.93 125.93 126.44
  A 0.87 0.87 0.0 0 0 126.88 125.49
  Q 126.40 120.54 126.41 113.81
  Q 126.49 72.24 126.04 27.74
  C 125.99 22.23 126.75 16.66 126.38 11.20
  A 1.45 1.45 0.0 0 0 123.90 10.28
  Q 122.59 11.59 121.38 13.05
  C 120.28 14.39 119.98 15.97 118.67 17.27
  Q 118.35 17.59 117.91 17.72
  Q 114.31 18.80 114.36 22.24
  Q 114.64 43.42 114.09 56.07
  Q 113.56 44.10 113.89 38.75
  Q 114.24 33.08 113.63 29.07
  C 113.30 26.85 113.47 24.78 113.21 22.60
  C 113.05 21.21 113.48 20.42 114.34 19.46
  Q 114.39 19.41 114.38 19.34
  Q 114.37 19.29 114.37 19.24
  Q 114.38 18.95 114.29 19.22
  Q 114.14 19.66 113.78 19.83
  Q 113.24 20.08 113.45 19.53
  Q 114.29 17.34 116.04 15.56
  Q 117.59 14.00 118.88 12.17
  Q 120.56 9.80 122.09 7.43
  A 1.72 1.71 -84.1 0 1 122.90 6.77
  Q 124.33 6.22 125.78 5.99
  Q 126.42 5.88 126.84 5.43
  Q 127.39 4.82 127.10 4.04
  Q 126.92 3.57 126.44 3.42
  Q 125.04 2.97 123.52 3.09
  Q 123.03 3.13 122.60 2.90
  Q 121.70 2.43 120.51 2.55
  Q 118.89 1.73 117.00 1.67
  Q 108.03 1.42 99.03 1.15
  Q 90.65 0.00 82.22 0.55
  Q 78.82 0.77 75.41 0.77
  L 47.53 0.79
  Z"
/>
<path fill="#ababab" d="
  M 99.03 1.15
  Q 73.29 2.00 47.53 0.79
  L 75.41 0.77
  Q 78.82 0.77 82.22 0.55
  Q 90.65 0.00 99.03 1.15
  Z"
/>
<path fill="#e0e0e0" d="
  M 47.53 0.79
  Q 73.29 2.00 99.03 1.15
  Q 108.03 1.42 117.00 1.67
  Q 118.89 1.73 120.51 2.55
  L 121.01 2.89
  A 1.80 1.80 0.0 0 1 121.30 5.64
  L 118.48 8.53
  Q 117.92 9.11 117.83 8.31
  Q 117.77 7.77 118.16 7.66
  Q 118.63 7.52 118.15 7.61
  Q 118.09 7.62 118.03 7.63
  Q 117.90 7.64 117.78 7.72
  Q 115.65 9.27 114.40 11.04
  Q 113.32 12.58 112.08 14.00
  Q 109.57 16.88 106.48 16.63
  Q 95.22 15.70 85.87 16.34
  Q 78.68 16.83 70.02 17.48
  Q 66.80 17.72 63.30 17.56
  C 59.09 17.36 54.97 17.43 50.76 17.03
  Q 47.19 16.70 43.83 17.45
  C 42.21 17.81 40.86 17.45 39.29 17.14
  Q 37.62 16.81 35.86 16.74
  Q 26.74 16.40 18.99 16.17
  A 2.07 2.07 0.0 0 0 16.85 18.15
  C 16.68 22.15 17.16 25.98 17.14 29.98
  Q 16.94 70.18 16.86 107.90
  Q 16.86 108.43 16.49 108.82
  L 11.09 114.56
  Q 10.79 114.88 10.64 115.29
  Q 9.86 117.46 8.14 118.99
  Q 7.73 119.36 7.89 118.83
  Q 8.06 118.23 8.65 117.86
  Q 8.78 117.77 8.72 117.64
  Q 8.70 117.58 8.64 117.60
  Q 8.60 117.62 8.56 117.66
  Q 7.49 118.94 5.36 121.18
  Q 2.02 119.61 2.19 114.52
  C 2.50 104.95 2.27 95.28 2.31 85.72
  Q 2.31 85.49 2.44 85.31
  Q 2.48 85.25 2.51 85.19
  Q 2.53 85.13 2.53 85.06
  Q 2.57 51.03 2.37 17.00
  Q 2.34 11.21 0.98 3.35
  Q 0.60 1.16 2.96 0.92
  C 7.17 0.49 10.79 1.62 14.93 1.54
  Q 31.23 1.22 47.53 0.79
  Z"
/>
<path fill="#ababab" d="
  M 120.51 2.55
  Q 121.70 2.43 122.60 2.90
  Q 123.03 3.13 123.52 3.09
  Q 125.04 2.97 126.44 3.42
  Q 126.92 3.57 127.10 4.04
  Q 127.39 4.82 126.84 5.43
  Q 126.42 5.88 125.78 5.99
  Q 124.33 6.22 122.90 6.77
  A 1.72 1.71 -84.1 0 0 122.09 7.43
  Q 120.56 9.80 118.88 12.17
  Q 117.59 14.00 116.04 15.56
  Q 114.29 17.34 113.45 19.53
  Q 113.24 20.08 113.78 19.83
  Q 114.14 19.66 114.29 19.22
  Q 114.38 18.95 114.37 19.24
  Q 114.37 19.29 114.38 19.34
  Q 114.39 19.41 114.34 19.46
  C 113.48 20.42 113.05 21.21 113.21 22.60
  C 113.47 24.78 113.30 26.85 113.63 29.07
  Q 114.24 33.08 113.89 38.75
  Q 113.56 44.10 114.09 56.07
  L 114.02 110.32
  A 2.81 2.81 0.0 0 1 111.25 113.13
  L 70.73 113.81
  Q 68.17 113.52 65.62 113.63
  Q 65.62 113.63 65.62 113.63
  Q 65.62 113.63 65.63 113.63
  Q 71.96 113.59 78.27 113.62
  Q 78.43 113.62 78.44 113.46
  L 78.44 113.45
  Q 78.45 113.25 78.24 113.24
  C 67.44 112.65 56.37 113.26 45.43 113.09
  Q 45.28 113.09 45.29 112.94
  Q 45.29 112.78 45.20 112.69
  Q 45.13 112.62 45.04 112.60
  C 41.51 111.74 37.99 112.25 34.33 111.93
  C 30.32 111.58 25.34 111.07 20.95 111.56
  Q 19.00 111.78 17.46 113.22
  Q 15.90 114.67 14.63 116.13
  Q 13.04 117.97 10.86 119.42
  Q 10.13 119.91 9.86 120.76
  Q 9.69 121.31 9.21 121.64
  Q 7.01 123.12 7.71 126.23
  A 0.90 0.88 -21.5 0 1 7.28 127.19
  Q 6.26 127.76 4.74 127.61
  A 1.19 1.19 0.0 0 1 3.75 125.99
  Q 4.55 123.93 3.81 121.65
  Q 3.62 121.07 4.16 121.35
  Q 5.48 122.02 6.75 121.15
  Q 9.27 119.45 11.17 116.76
  A 0.05 0.04 18.8 0 0 11.13 116.69
  Q 10.94 116.67 11.04 116.56
  Q 11.23 116.36 11.07 116.59
  Q 9.35 119.24 5.36 121.18
  Q 7.49 118.94 8.56 117.66
  Q 8.60 117.62 8.64 117.60
  Q 8.70 117.58 8.72 117.64
  Q 8.78 117.77 8.65 117.86
  Q 8.06 118.23 7.89 118.83
  Q 7.73 119.36 8.14 118.99
  Q 9.86 117.46 10.64 115.29
  Q 10.79 114.88 11.09 114.56
  L 16.49 108.82
  Q 16.86 108.43 16.86 107.90
  Q 16.94 70.18 17.14 29.98
  C 17.16 25.98 16.68 22.15 16.85 18.15
  A 2.07 2.07 0.0 0 1 18.99 16.17
  Q 26.74 16.40 35.86 16.74
  Q 37.62 16.81 39.29 17.14
  C 40.86 17.45 42.21 17.81 43.83 17.45
  Q 47.19 16.70 50.76 17.03
  C 54.97 17.43 59.09 17.36 63.30 17.56
  Q 66.80 17.72 70.02 17.48
  Q 78.68 16.83 85.87 16.34
  Q 95.22 15.70 106.48 16.63
  Q 109.57 16.88 112.08 14.00
  Q 113.32 12.58 114.40 11.04
  Q 115.65 9.27 117.78 7.72
  Q 117.90 7.64 118.03 7.63
  Q 118.09 7.62 118.15 7.61
  Q 118.63 7.52 118.16 7.66
  Q 117.77 7.77 117.83 8.31
  Q 117.92 9.11 118.48 8.53
  L 121.30 5.64
  A 1.80 1.80 0.0 0 0 121.01 2.89
  L 120.51 2.55
  Z
  M 39.00 68.01
  L 39.02 105.57
  Q 39.02 107.10 40.55 107.13
  L 45.27 107.22
  A 1.63 1.63 0.0 0 0 46.94 105.59
  L 47.02 68.18
  L 54.14 68.05
  A 0.87 0.87 0.0 0 0 55.00 67.19
  L 55.03 63.74
  A 0.66 0.65 88.6 0 1 55.64 63.09
  Q 58.52 62.89 61.24 63.02
  Q 63.18 63.12 63.00 60.72
  A 1.25 1.24 -5.4 0 1 64.11 59.38
  L 70.80 58.67
  Q 71.29 58.62 71.48 58.16
  L 72.28 56.30
  Q 72.50 55.78 73.06 55.68
  L 79.69 54.55
  Q 80.23 54.46 80.42 53.95
  C 81.45 51.20 84.60 51.23 87.01 50.78
  C 89.11 50.40 89.01 47.96 91.35 47.55
  Q 94.01 47.07 97.04 46.61
  Q 97.65 46.52 97.82 45.93
  Q 98.08 45.06 98.03 44.12
  Q 97.99 43.49 97.36 43.41
  L 90.55 42.56
  A 1.20 1.17 77.7 0 1 89.68 41.99
  L 88.49 39.98
  A 1.18 1.17 80.1 0 0 87.70 39.42
  C 85.48 39.02 82.16 38.93 80.83 36.80
  A 3.27 3.23 78.5 0 0 78.61 35.31
  L 73.45 34.46
  Q 72.82 34.35 72.51 33.78
  Q 71.87 32.58 71.72 31.13
  Q 71.66 30.59 71.12 30.50
  L 64.32 29.33
  A 1.30 1.30 0.0 0 1 63.36 28.58
  L 62.65 26.96
  Q 62.30 26.18 61.45 26.08
  L 56.44 25.53
  Q 55.62 25.44 55.28 24.70
  L 54.56 23.15
  A 1.08 1.08 0.0 0 0 53.65 22.53
  L 46.99 22.16
  L 40.00 22.08
  A 0.97 0.97 0.0 0 0 39.02 23.05
  L 39.00 68.01
  Z
  M 82.66 112.95
  Q 86.66 113.46 91.24 112.93
  Q 92.19 112.82 91.24 112.75
  Q 87.12 112.44 82.67 112.74
  Q 81.58 112.81 82.66 112.95
  Z"
/>
<path fill="#6a6b6a" d="
  M 70.73 113.81
  L 111.25 113.13
  A 2.81 2.81 0.0 0 0 114.02 110.32
  L 114.09 56.07
  Q 114.64 43.42 114.36 22.24
  Q 114.31 18.80 117.91 17.72
  Q 118.35 17.59 118.67 17.27
  C 119.98 15.97 120.28 14.39 121.38 13.05
  Q 122.59 11.59 123.90 10.28
  A 1.45 1.45 0.0 0 1 126.38 11.20
  C 126.75 16.66 125.99 22.23 126.04 27.74
  Q 126.49 72.24 126.41 113.81
  Q 126.40 120.54 126.88 125.49
  A 0.87 0.87 0.0 0 1 125.93 126.44
  Q 120.71 125.93 115.27 125.84
  Q 100.20 125.59 82.76 125.60
  Q 72.47 125.60 62.75 125.39
  Q 38.79 124.87 13.91 126.37
  Q 12.91 126.43 12.00 126.08
  A 1.69 1.69 0.0 0 1 11.30 123.43
  L 12.81 121.60
  Q 13.05 121.30 13.40 121.16
  Q 14.16 120.84 14.97 120.62
  Q 16.18 120.28 17.23 119.45
  Q 18.33 118.59 18.87 117.43
  Q 20.45 114.05 24.41 114.70
  Q 26.78 115.09 29.26 115.25
  C 31.65 115.40 33.85 115.02 36.21 115.13
  Q 36.73 115.16 37.17 114.87
  Q 37.94 114.37 38.25 114.36
  Q 54.48 114.21 70.73 113.81
  Z"
/>
<path fill="#ffffa1" d="
  M 46.99 22.16
  L 46.97 68.00
  L 39.00 68.01
  L 39.02 23.05
  A 0.97 0.97 0.0 0 1 40.00 22.08
  L 46.99 22.16
  Z"
/>
<path fill="#fffd11" d="
  M 47.02 68.18
  Q 46.52 67.90 46.97 68.00
  L 46.99 22.16
  L 53.65 22.53
  A 1.08 1.08 0.0 0 1 54.56 23.15
  L 55.28 24.70
  Q 55.62 25.44 56.44 25.53
  L 61.45 26.08
  Q 62.30 26.18 62.65 26.96
  L 63.36 28.58
  A 1.30 1.30 0.0 0 0 64.32 29.33
  L 71.12 30.50
  Q 71.66 30.59 71.72 31.13
  Q 71.87 32.58 72.51 33.78
  Q 72.82 34.35 73.45 34.46
  L 78.61 35.31
  A 3.27 3.23 78.5 0 1 80.83 36.80
  C 82.16 38.93 85.48 39.02 87.70 39.42
  A 1.18 1.17 80.1 0 1 88.49 39.98
  L 89.68 41.99
  A 1.20 1.17 77.7 0 0 90.55 42.56
  L 97.36 43.41
  Q 97.99 43.49 98.03 44.12
  Q 98.08 45.06 97.82 45.93
  Q 97.65 46.52 97.04 46.61
  Q 94.01 47.07 91.35 47.55
  C 89.01 47.96 89.11 50.40 87.01 50.78
  C 84.60 51.23 81.45 51.20 80.42 53.95
  Q 80.23 54.46 79.69 54.55
  L 73.06 55.68
  Q 72.50 55.78 72.28 56.30
  L 71.48 58.16
  Q 71.29 58.62 70.80 58.67
  L 64.11 59.38
  A 1.25 1.24 -5.4 0 0 63.00 60.72
  Q 63.18 63.12 61.24 63.02
  Q 58.52 62.89 55.64 63.09
  A 0.66 0.65 88.6 0 0 55.03 63.74
  L 55.00 67.19
  A 0.87 0.87 0.0 0 1 54.14 68.05
  L 47.02 68.18
  Z"
/>
<path fill="#151515" d="
  M 39.00 68.01
  L 46.97 68.00
  Q 46.52 67.90 47.02 68.18
  L 46.94 105.59
  A 1.63 1.63 0.0 0 1 45.27 107.22
  L 40.55 107.13
  Q 39.02 107.10 39.02 105.57
  L 39.00 68.01
  Z"
/>
<path fill="#9e9e9e" d="
  M 82.67 112.74
  Q 87.12 112.44 91.24 112.75
  Q 92.19 112.82 91.24 112.93
  Q 86.66 113.46 82.66 112.95
  Q 81.58 112.81 82.67 112.74
  Z"
/>
</svg>
