<?xml version="1.0" encoding="UTF-8" standalone="no"?>
<!DOCTYPE svg PUBLIC "-//W3C//DTD SVG 1.1//EN" "http://www.w3.org/Graphics/SVG/1.1/DTD/svg11.dtd">
<svg xmlns="http://www.w3.org/2000/svg" version="1.1" viewBox="0.00 0.00 128.00 128.00">
<g stroke-width="2.00" fill="none" stroke-linecap="butt">
<path stroke="#a5a5a5" vector-effect="non-scaling-stroke" d="
  M 10.18 118.84
  Q 8.52 120.26 7.02 121.45
  Q 6.44 121.90 5.88 122.06
  Q 4.92 122.32 4.27 121.85
  Q 3.92 121.60 4.00 122.02
  Q 4.39 124.21 3.69 126.51
  A 0.85 0.85 0.0 0 0 4.49 127.61
  L 6.79 127.64
  A 1.37 1.37 0.0 0 0 8.15 126.00
  C 7.95 124.99 7.62 124.03 8.14 123.03
  Q 9.27 120.86 10.67 119.62
  Q 13.43 117.17 13.51 117.08
  Q 15.35 115.14 17.29 113.29
  Q 19.54 111.14 21.00 111.09
  Q 27.10 110.84 43.46 112.10"
/>
<path stroke="#838484" vector-effect="non-scaling-stroke" d="
  M 43.46 112.10
  L 21.40 112.27
  A 1.07 1.06 -70.1 0 0 20.58 112.66
  Q 17.95 115.94 17.00 116.63
  Q 14.28 118.59 11.31 120.68
  Q 10.04 121.57 9.85 124.17
  Q 9.81 124.71 10.24 125.03
  Q 12.21 126.54 14.30 126.38
  Q 19.76 125.94 25.51 125.80
  Q 42.06 125.37 57.51 125.43
  C 70.98 125.47 85.21 125.10 98.49 125.48
  Q 112.40 125.88 126.19 126.33
  A 0.72 0.72 0.0 0 0 126.93 125.57
  Q 126.55 119.51 126.51 112.82
  Q 126.29 69.90 126.17 26.87
  C 126.16 21.91 126.61 16.66 126.40 11.88
  Q 126.29 9.29 123.79 8.82
  A 1.15 1.12 27.7 0 0 122.81 9.11
  L 120.24 11.60
  Q 119.91 11.92 119.86 12.38
  C 119.65 14.28 118.03 14.73 117.73 16.27
  A 0.80 0.79 1.5 0 1 117.06 16.90
  Q 116.53 16.98 116.34 17.51
  Q 116.22 17.86 115.96 18.13
  L 113.94 20.16
  Q 113.58 20.52 113.52 21.03
  Q 113.36 22.49 113.59 24.00
  Q 113.82 25.57 113.85 27.09
  Q 114.04 38.25 113.67 48.50
  Q 113.45 54.91 113.01 61.75
  Q 112.77 65.63 112.81 69.93
  C 112.85 73.05 113.60 75.98 113.34 79.08
  Q 113.12 81.76 113.12 84.44
  Q 113.12 96.50 113.12 108.55
  Q 113.12 109.92 112.38 110.98
  Q 111.76 111.87 110.30 112.12
  C 104.20 113.15 97.88 112.34 91.69 112.92
  C 88.07 113.26 84.31 112.77 80.76 113.35
  Q 78.75 113.68 76.78 113.95
  Q 73.83 114.36 71.40 112.87
  Q 70.97 112.61 70.48 112.56
  L 65.28 112.10"
/>
<path stroke="#cfce58" vector-effect="non-scaling-stroke" d="
  M 65.28 112.10
  L 66.51 109.75
  Q 66.75 109.28 67.20 109.57
  Q 69.29 110.89 70.59 110.70"
/>
<path stroke="#a5a5a5" vector-effect="non-scaling-stroke" d="
  M 70.59 110.70
  Q 72.81 109.79 74.09 111.47
  Q 74.39 111.87 74.88 111.96
  Q 77.28 112.38 79.82 111.88
  Q 82.29 111.39 84.72 111.35
  Q 97.75 111.12 109.56 110.97
  A 2.55 2.55 0.0 0 0 112.03 108.96
  Q 112.35 107.47 112.38 105.28
  Q 112.45 99.26 112.02 92.16
  Q 111.72 87.24 111.48 82.32
  Q 111.25 77.53 110.85 72.50
  Q 110.69 70.51 111.17 68.70
  Q 111.66 66.87 111.67 64.97
  Q 111.70 61.31 111.98 57.60
  Q 111.99 57.45 112.14 57.42
  Q 112.19 57.40 112.24 57.39
  Q 112.38 57.35 112.38 57.20
  Q 112.47 50.56 111.96 40.78
  Q 111.74 36.55 112.41 32.22
  Q 113.00 28.44 112.45 23.61
  Q 112.20 21.49 113.27 19.49
  Q 114.85 16.50 117.14 14.41
  Q 117.18 14.37 117.24 14.37
  Q 117.29 14.37 117.34 14.38
  Q 117.74 14.50 117.63 14.10
  Q 117.59 13.92 117.66 13.73
  Q 117.70 13.62 117.76 13.54
  Q 119.73 11.02 121.71 8.22
  Q 122.61 6.93 124.05 6.85
  Q 124.39 6.83 124.57 6.54
  Q 124.93 5.96 125.58 6.13
  Q 126.35 6.33 126.80 5.67
  Q 127.23 5.03 127.11 4.38
  A 1.53 1.51 -21.2 0 0 124.80 3.38
  Q 124.13 3.80 122.70 3.53"
/>
<path stroke="#bfbfbf" vector-effect="non-scaling-stroke" d="
  M 122.70 3.53
  Q 119.25 1.57 116.75 1.52
  Q 78.91 0.70 15.72 1.53
  C 11.24 1.59 7.12 0.47 2.66 0.93
  A 1.95 1.95 0.0 0 0 0.94 3.21
  C 2.04 9.45 2.46 15.07 2.41 21.57
  C 2.19 45.63 2.57 68.98 2.29 92.50
  Q 2.14 105.42 2.35 116.35
  Q 2.39 118.15 3.76 120.34
  Q 4.04 120.79 4.56 120.87
  Q 6.61 121.20 7.93 119.49
  Q 8.09 119.29 8.33 119.18
  Q 9.04 118.84 8.51 119.43
  Q 8.34 119.62 8.16 119.80
  Q 7.50 120.44 8.30 120.01
  Q 8.59 119.85 8.77 119.58
  Q 9.40 118.59 10.18 118.84"
/>
<path stroke="#c6c6c6" vector-effect="non-scaling-stroke" d="
  M 122.70 3.53
  L 123.15 4.16
  A 0.78 0.77 -38.3 0 1 123.02 5.21
  L 122.13 5.95
  Q 121.69 6.31 121.68 6.87
  Q 121.66 7.62 120.95 7.82
  A 0.08 0.07 23.1 0 1 120.89 7.68
  Q 121.18 7.55 121.06 7.31
  Q 120.84 6.84 120.55 7.27
  Q 119.67 8.59 118.72 9.76
  Q 117.88 10.80 116.65 11.08
  Q 115.58 11.33 114.67 12.04
  Q 113.51 12.96 112.52 14.02
  Q 111.73 14.87 110.75 15.43
  Q 109.74 16.01 108.80 16.64
  Q 108.37 16.93 107.86 16.92
  Q 101.26 16.77 94.59 16.43
  Q 88.09 16.10 81.36 16.28
  C 60.52 16.84 39.98 16.43 18.99 16.09
  A 1.99 1.98 -84.3 0 0 17.02 17.71
  C 16.49 20.61 16.99 24.32 16.98 26.44
  Q 16.89 49.47 17.00 73.70
  Q 17.02 77.08 17.33 89.77
  Q 17.52 97.56 17.43 105.90
  Q 17.40 108.61 16.25 110.05
  Q 14.53 112.19 11.89 113.93
  Q 11.53 114.16 11.42 114.58
  L 11.30 115.00
  Q 11.10 115.69 11.67 115.24
  Q 14.15 113.25 16.30 110.91
  Q 16.69 110.48 16.82 109.90
  Q 16.91 109.47 17.30 109.29
  Q 17.79 109.06 18.00 108.56
  Q 18.12 108.25 18.11 107.92
  Q 18.11 107.86 18.16 107.83
  Q 18.23 107.78 18.22 107.87
  Q 18.22 107.92 18.20 107.97
  Q 17.73 109.26 17.25 110.56
  Q 16.77 111.84 15.53 112.97
  Q 12.55 115.69 10.18 118.84"
/>
<path stroke="#d5d45e" vector-effect="non-scaling-stroke" d="
  M 70.59 110.70
  L 73.69 104.61
  Q 74.01 103.96 74.65 104.30
  L 76.99 105.51
  Q 77.53 105.79 77.81 105.25
  L 81.38 98.32
  A 0.61 0.60 -61.6 0 1 82.21 98.07
  L 85.39 99.83
  Q 86.09 100.22 86.46 99.51
  L 89.87 92.95
  Q 90.21 92.29 90.89 92.59
  L 93.24 93.66
  Q 93.81 93.91 94.10 93.37
  L 97.17 87.72
  A 0.78 0.78 0.0 0 1 98.18 87.37
  L 100.27 88.30
  Q 100.97 88.61 101.32 87.94
  L 104.26 82.40"
/>
<path stroke="#d5d5a6" vector-effect="non-scaling-stroke" d="
  M 104.26 82.40
  L 107.46 75.35
  A 0.96 0.95 -63.9 0 0 107.04 74.11
  L 69.52 54.52
  A 1.33 1.31 56.3 0 0 68.80 54.37
  Q 68.47 54.40 68.20 54.30"
/>
<path stroke="#606060" vector-effect="non-scaling-stroke" d="
  M 68.20 54.30
  Q 68.08 53.99 67.92 53.76
  Q 67.76 53.53 67.51 53.40
  Q 62.96 51.10 58.54 48.74
  A 0.57 0.56 27.5 0 0 57.77 48.98
  L 54.62 55.05
  Q 54.39 55.48 54.83 55.70
  Q 60.89 58.65 63.56 60.19
  Q 63.85 60.36 63.99 61.04"
/>
<path stroke="#d5d45e" vector-effect="non-scaling-stroke" d="
  M 63.99 61.04
  L 60.76 66.97
  A 0.69 0.69 0.0 0 0 61.06 67.92
  L 64.40 69.57
  A 0.60 0.60 0.0 0 1 64.66 70.39
  L 61.56 76.30
  A 0.80 0.80 0.0 0 0 61.91 77.38
  L 64.18 78.52
  Q 64.80 78.83 64.48 79.43
  L 60.93 86.19
  A 0.76 0.76 0.0 0 0 61.27 87.23
  L 63.64 88.34
  A 0.59 0.59 0.0 0 1 63.91 89.15
  L 60.21 96.20
  Q 59.92 96.74 60.47 97.00
  L 63.09 98.24
  Q 63.51 98.44 63.30 98.86
  L 60.06 105.15
  A 0.60 0.60 0.0 0 0 60.34 105.96
  L 62.77 107.12
  Q 63.29 107.37 63.03 107.87
  L 61.42 111.01"
/>
<path stroke="#a5a5a5" vector-effect="non-scaling-stroke" d="
  M 61.42 111.01
  Q 58.58 110.07 57.14 112.39"
/>
<path stroke="#8a8a8a" vector-effect="non-scaling-stroke" d="
  M 57.14 112.39
  Q 56.52 112.82 55.73 113.25
  Q 55.02 113.63 54.19 113.63
  Q 48.65 113.67 43.46 112.10"
/>
<path stroke="#8a8a5b" vector-effect="non-scaling-stroke" d="
  M 68.20 54.30
  L 65.13 60.58"
/>
<path stroke="#8a8913" vector-effect="non-scaling-stroke" d="
  M 65.13 60.58
  Q 64.72 60.99 63.99 61.04"
/>
<path stroke="#cfce58" vector-effect="non-scaling-stroke" d="
  M 60.91 112.03
  L 61.42 111.01"
/>
<path stroke="#838484" vector-effect="non-scaling-stroke" d="
  M 57.14 112.39
  Q 59.25 110.98 60.91 112.03"
/>
<path stroke="#b4b33d" vector-effect="non-scaling-stroke" d="
  M 60.91 112.03
  L 59.49 114.84
  Q 59.09 115.63 59.91 115.99
  L 61.69 116.75
  Q 62.57 117.13 63.02 116.29
  L 65.28 112.10"
/>
<path stroke="#fffe59" vector-effect="non-scaling-stroke" d="
  M 104.26 82.40
  Q 96.43 79.17 92.66 76.82
  C 90.47 75.46 88.09 74.63 86.26 73.52
  Q 81.37 70.54 76.24 68.01
  Q 72.74 66.29 70.47 64.65
  Q 67.74 62.69 65.13 60.58"
/>
<path stroke="#606060" vector-effect="non-scaling-stroke" d="
  M 47.00 79.76
  A 0.78 0.78 0.0 0 0 46.22 78.98
  L 39.78 78.98
  A 0.78 0.78 0.0 0 0 39.00 79.76
  L 39.00 106.32
  A 0.78 0.78 0.0 0 0 39.78 107.10
  L 46.22 107.10
  A 0.78 0.78 0.0 0 0 47.00 106.32
  L 47.00 79.76"
/>
<path stroke="#c6c6c6" vector-effect="non-scaling-stroke" d="
  M 17.8300 101.2900
  A 4.54 0.04 90.0 0 0 17.8700 96.7500
  A 4.54 0.04 90.0 0 0 17.8300 92.2100
  A 4.54 0.04 90.0 0 0 17.7900 96.7500
  A 4.54 0.04 90.0 0 0 17.8300 101.2900"
/>
</g>
<path fill="#9e9e9e" d="
  M 0.00 0.00
  L 128.00 0.00
  L 128.00 128.00
  L 0.00 128.00
  L 0.00 0.00
  Z
  M 10.18 118.84
  Q 8.52 120.26 7.02 121.45
  Q 6.44 121.90 5.88 122.06
  Q 4.92 122.32 4.27 121.85
  Q 3.92 121.60 4.00 122.02
  Q 4.39 124.21 3.69 126.51
  A 0.85 0.85 0.0 0 0 4.49 127.61
  L 6.79 127.64
  A 1.37 1.37 0.0 0 0 8.15 126.00
  C 7.95 124.99 7.62 124.03 8.14 123.03
  Q 9.27 120.86 10.67 119.62
  Q 13.43 117.17 13.51 117.08
  Q 15.35 115.14 17.29 113.29
  Q 19.54 111.14 21.00 111.09
  Q 27.10 110.84 43.46 112.10
  L 21.40 112.27
  A 1.07 1.06 -70.1 0 0 20.58 112.66
  Q 17.95 115.94 17.00 116.63
  Q 14.28 118.59 11.31 120.68
  Q 10.04 121.57 9.85 124.17
  Q 9.81 124.71 10.24 125.03
  Q 12.21 126.54 14.30 126.38
  Q 19.76 125.94 25.51 125.80
  Q 42.06 125.37 57.51 125.43
  C 70.98 125.47 85.21 125.10 98.49 125.48
  Q 112.40 125.88 126.19 126.33
  A 0.72 0.72 0.0 0 0 126.93 125.57
  Q 126.55 119.51 126.51 112.82
  Q 126.29 69.90 126.17 26.87
  C 126.16 21.91 126.61 16.66 126.40 11.88
  Q 126.29 9.29 123.79 8.82
  A 1.15 1.12 27.7 0 0 122.81 9.11
  L 120.24 11.60
  Q 119.91 11.92 119.86 12.38
  C 119.65 14.28 118.03 14.73 117.73 16.27
  A 0.80 0.79 1.5 0 1 117.06 16.90
  Q 116.53 16.98 116.34 17.51
  Q 116.22 17.86 115.96 18.13
  L 113.94 20.16
  Q 113.58 20.52 113.52 21.03
  Q 113.36 22.49 113.59 24.00
  Q 113.82 25.57 113.85 27.09
  Q 114.04 38.25 113.67 48.50
  Q 113.45 54.91 113.01 61.75
  Q 112.77 65.63 112.81 69.93
  C 112.85 73.05 113.60 75.98 113.34 79.08
  Q 113.12 81.76 113.12 84.44
  Q 113.12 96.50 113.12 108.55
  Q 113.12 109.92 112.38 110.98
  Q 111.76 111.87 110.30 112.12
  C 104.20 113.15 97.88 112.34 91.69 112.92
  C 88.07 113.26 84.31 112.77 80.76 113.35
  Q 78.75 113.68 76.78 113.95
  Q 73.83 114.36 71.40 112.87
  Q 70.97 112.61 70.48 112.56
  L 65.28 112.10
  L 66.51 109.75
  Q 66.75 109.28 67.20 109.57
  Q 69.29 110.89 70.59 110.70
  Q 72.81 109.79 74.09 111.47
  Q 74.39 111.87 74.88 111.96
  Q 77.28 112.38 79.82 111.88
  Q 82.29 111.39 84.72 111.35
  Q 97.75 111.12 109.56 110.97
  A 2.55 2.55 0.0 0 0 112.03 108.96
  Q 112.35 107.47 112.38 105.28
  Q 112.45 99.26 112.02 92.16
  Q 111.72 87.24 111.48 82.32
  Q 111.25 77.53 110.85 72.50
  Q 110.69 70.51 111.17 68.70
  Q 111.66 66.87 111.67 64.97
  Q 111.70 61.31 111.98 57.60
  Q 111.99 57.45 112.14 57.42
  Q 112.19 57.40 112.24 57.39
  Q 112.38 57.35 112.38 57.20
  Q 112.47 50.56 111.96 40.78
  Q 111.74 36.55 112.41 32.22
  Q 113.00 28.44 112.45 23.61
  Q 112.20 21.49 113.27 19.49
  Q 114.85 16.50 117.14 14.41
  Q 117.18 14.37 117.24 14.37
  Q 117.29 14.37 117.34 14.38
  Q 117.74 14.50 117.63 14.10
  Q 117.59 13.92 117.66 13.73
  Q 117.70 13.62 117.76 13.54
  Q 119.73 11.02 121.71 8.22
  Q 122.61 6.93 124.05 6.85
  Q 124.39 6.83 124.57 6.54
  Q 124.93 5.96 125.58 6.13
  Q 126.35 6.33 126.80 5.67
  Q 127.23 5.03 127.11 4.38
  A 1.53 1.51 -21.2 0 0 124.80 3.38
  Q 124.13 3.80 122.70 3.53
  Q 119.25 1.57 116.75 1.52
  Q 78.91 0.70 15.72 1.53
  C 11.24 1.59 7.12 0.47 2.66 0.93
  A 1.95 1.95 0.0 0 0 0.94 3.21
  C 2.04 9.45 2.46 15.07 2.41 21.57
  C 2.19 45.63 2.57 68.98 2.29 92.50
  Q 2.14 105.42 2.35 116.35
  Q 2.39 118.15 3.76 120.34
  Q 4.04 120.79 4.56 120.87
  Q 6.61 121.20 7.93 119.49
  Q 8.09 119.29 8.33 119.18
  Q 9.04 118.84 8.51 119.43
  Q 8.34 119.62 8.16 119.80
  Q 7.50 120.44 8.30 120.01
  Q 8.59 119.85 8.77 119.58
  Q 9.40 118.59 10.18 118.84
  Z"
/>
<path fill="#e0e0e0" d="
  M 122.70 3.53
  L 123.15 4.16
  A 0.78 0.77 -38.3 0 1 123.02 5.21
  L 122.13 5.95
  Q 121.69 6.31 121.68 6.87
  Q 121.66 7.62 120.95 7.82
  A 0.08 0.07 23.1 0 1 120.89 7.68
  Q 121.18 7.55 121.06 7.31
  Q 120.84 6.84 120.55 7.27
  Q 119.67 8.59 118.72 9.76
  Q 117.88 10.80 116.65 11.08
  Q 115.58 11.33 114.67 12.04
  Q 113.51 12.96 112.52 14.02
  Q 111.73 14.87 110.75 15.43
  Q 109.74 16.01 108.80 16.64
  Q 108.37 16.93 107.86 16.92
  Q 101.26 16.77 94.59 16.43
  Q 88.09 16.10 81.36 16.28
  C 60.52 16.84 39.98 16.43 18.99 16.09
  A 1.99 1.98 -84.3 0 0 17.02 17.71
  C 16.49 20.61 16.99 24.32 16.98 26.44
  Q 16.89 49.47 17.00 73.70
  Q 17.02 77.08 17.33 89.77
  Q 17.52 97.56 17.43 105.90
  Q 17.40 108.61 16.25 110.05
  Q 14.53 112.19 11.89 113.93
  Q 11.53 114.16 11.42 114.58
  L 11.30 115.00
  Q 11.10 115.69 11.67 115.24
  Q 14.15 113.25 16.30 110.91
  Q 16.69 110.48 16.82 109.90
  Q 16.91 109.47 17.30 109.29
  Q 17.79 109.06 18.00 108.56
  Q 18.12 108.25 18.11 107.92
  Q 18.11 107.86 18.16 107.83
  Q 18.23 107.78 18.22 107.87
  Q 18.22 107.92 18.20 107.97
  Q 17.73 109.26 17.25 110.56
  Q 16.77 111.84 15.53 112.97
  Q 12.55 115.69 10.18 118.84
  Q 9.40 118.59 8.77 119.58
  Q 8.59 119.85 8.30 120.01
  Q 7.50 120.44 8.16 119.80
  Q 8.34 119.62 8.51 119.43
  Q 9.04 118.84 8.33 119.18
  Q 8.09 119.29 7.93 119.49
  Q 6.61 121.20 4.56 120.87
  Q 4.04 120.79 3.76 120.34
  Q 2.39 118.15 2.35 116.35
  Q 2.14 105.42 2.29 92.50
  C 2.57 68.98 2.19 45.63 2.41 21.57
  C 2.46 15.07 2.04 9.45 0.94 3.21
  A 1.95 1.95 0.0 0 1 2.66 0.93
  C 7.12 0.47 11.24 1.59 15.72 1.53
  Q 78.91 0.70 116.75 1.52
  Q 119.25 1.57 122.70 3.53
  Z"
/>
<path fill="#ababab" d="
  M 70.59 110.70
  L 73.69 104.61
  Q 74.01 103.96 74.65 104.30
  L 76.99 105.51
  Q 77.53 105.79 77.81 105.25
  L 81.38 98.32
  A 0.61 0.60 -61.6 0 1 82.21 98.07
  L 85.39 99.83
  Q 86.09 100.22 86.46 99.51
  L 89.87 92.95
  Q 90.21 92.29 90.89 92.59
  L 93.24 93.66
  Q 93.81 93.91 94.10 93.37
  L 97.17 87.72
  A 0.78 0.78 0.0 0 1 98.18 87.37
  L 100.27 88.30
  Q 100.97 88.61 101.32 87.94
  L 104.26 82.40
  L 107.46 75.35
  A 0.96 0.95 -63.9 0 0 107.04 74.11
  L 69.52 54.52
  A 1.33 1.31 56.3 0 0 68.80 54.37
  Q 68.47 54.40 68.20 54.30
  Q 68.08 53.99 67.92 53.76
  Q 67.76 53.53 67.51 53.40
  Q 62.96 51.10 58.54 48.74
  A 0.57 0.56 27.5 0 0 57.77 48.98
  L 54.62 55.05
  Q 54.39 55.48 54.83 55.70
  Q 60.89 58.65 63.56 60.19
  Q 63.85 60.36 63.99 61.04
  L 60.76 66.97
  A 0.69 0.69 0.0 0 0 61.06 67.92
  L 64.40 69.57
  A 0.60 0.60 0.0 0 1 64.66 70.39
  L 61.56 76.30
  A 0.80 0.80 0.0 0 0 61.91 77.38
  L 64.18 78.52
  Q 64.80 78.83 64.48 79.43
  L 60.93 86.19
  A 0.76 0.76 0.0 0 0 61.27 87.23
  L 63.64 88.34
  A 0.59 0.59 0.0 0 1 63.91 89.15
  L 60.21 96.20
  Q 59.92 96.74 60.47 97.00
  L 63.09 98.24
  Q 63.51 98.44 63.30 98.86
  L 60.06 105.15
  A 0.60 0.60 0.0 0 0 60.34 105.96
  L 62.77 107.12
  Q 63.29 107.37 63.03 107.87
  L 61.42 111.01
  Q 58.58 110.07 57.14 112.39
  Q 56.52 112.82 55.73 113.25
  Q 55.02 113.63 54.19 113.63
  Q 48.65 113.67 43.46 112.10
  Q 27.10 110.84 21.00 111.09
  Q 19.54 111.14 17.29 113.29
  Q 15.35 115.14 13.51 117.08
  Q 13.43 117.17 10.67 119.62
  Q 9.27 120.86 8.14 123.03
  C 7.62 124.03 7.95 124.99 8.15 126.00
  A 1.37 1.37 0.0 0 1 6.79 127.64
  L 4.49 127.61
  A 0.85 0.85 0.0 0 1 3.69 126.51
  Q 4.39 124.21 4.00 122.02
  Q 3.92 121.60 4.27 121.85
  Q 4.92 122.32 5.88 122.06
  Q 6.44 121.90 7.02 121.45
  Q 8.52 120.26 10.18 118.84
  Q 12.55 115.69 15.53 112.97
  Q 16.77 111.84 17.25 110.56
  Q 17.73 109.26 18.20 107.97
  Q 18.22 107.92 18.22 107.87
  Q 18.23 107.78 18.16 107.83
  Q 18.11 107.86 18.11 107.92
  Q 18.12 108.25 18.00 108.56
  Q 17.79 109.06 17.30 109.29
  Q 16.91 109.47 16.82 109.90
  Q 16.69 110.48 16.30 110.91
  Q 14.15 113.25 11.67 115.24
  Q 11.10 115.69 11.30 115.00
  L 11.42 114.58
  Q 11.53 114.16 11.89 113.93
  Q 14.53 112.19 16.25 110.05
  Q 17.40 108.61 17.43 105.90
  Q 17.52 97.56 17.33 89.77
  Q 17.02 77.08 17.00 73.70
  Q 16.89 49.47 16.98 26.44
  C 16.99 24.32 16.49 20.61 17.02 17.71
  A 1.99 1.98 -84.3 0 1 18.99 16.09
  C 39.98 16.43 60.52 16.84 81.36 16.28
  Q 88.09 16.10 94.59 16.43
  Q 101.26 16.77 107.86 16.92
  Q 108.37 16.93 108.80 16.64
  Q 109.74 16.01 110.75 15.43
  Q 111.73 14.87 112.52 14.02
  Q 113.51 12.96 114.67 12.04
  Q 115.58 11.33 116.65 11.08
  Q 117.88 10.80 118.72 9.76
  Q 119.67 8.59 120.55 7.27
  Q 120.84 6.84 121.06 7.31
  Q 121.18 7.55 120.89 7.68
  A 0.08 0.07 23.1 0 0 120.95 7.82
  Q 121.66 7.62 121.68 6.87
  Q 121.69 6.31 122.13 5.95
  L 123.02 5.21
  A 0.78 0.77 -38.3 0 0 123.15 4.16
  L 122.70 3.53
  Q 124.13 3.80 124.80 3.38
  A 1.53 1.51 -21.2 0 1 127.11 4.38
  Q 127.23 5.03 126.80 5.67
  Q 126.35 6.33 125.58 6.13
  Q 124.93 5.96 124.57 6.54
  Q 124.39 6.83 124.05 6.85
  Q 122.61 6.93 121.71 8.22
  Q 119.73 11.02 117.76 13.54
  Q 117.70 13.62 117.66 13.73
  Q 117.59 13.92 117.63 14.10
  Q 117.74 14.50 117.34 14.38
  Q 117.29 14.37 117.24 14.37
  Q 117.18 14.37 117.14 14.41
  Q 114.85 16.50 113.27 19.49
  Q 112.20 21.49 112.45 23.61
  Q 113.00 28.44 112.41 32.22
  Q 111.74 36.55 111.96 40.78
  Q 112.47 50.56 112.38 57.20
  Q 112.38 57.35 112.24 57.39
  Q 112.19 57.40 112.14 57.42
  Q 111.99 57.45 111.98 57.60
  Q 111.70 61.31 111.67 64.97
  Q 111.66 66.87 111.17 68.70
  Q 110.69 70.51 110.85 72.50
  Q 111.25 77.53 111.48 82.32
  Q 111.72 87.24 112.02 92.16
  Q 112.45 99.26 112.38 105.28
  Q 112.35 107.47 112.03 108.96
  A 2.55 2.55 0.0 0 1 109.56 110.97
  Q 97.75 111.12 84.72 111.35
  Q 82.29 111.39 79.82 111.88
  Q 77.28 112.38 74.88 111.96
  Q 74.39 111.87 74.09 111.47
  Q 72.81 109.79 70.59 110.70
  Z
  M 47.00 79.76
  A 0.78 0.78 0.0 0 0 46.22 78.98
  L 39.78 78.98
  A 0.78 0.78 0.0 0 0 39.00 79.76
  L 39.00 106.32
  A 0.78 0.78 0.0 0 0 39.78 107.10
  L 46.22 107.10
  A 0.78 0.78 0.0 0 0 47.00 106.32
  L 47.00 79.76
  Z
  M 17.8300 101.2900
  A 4.54 0.04 90.0 0 0 17.8700 96.7500
  A 4.54 0.04 90.0 0 0 17.8300 92.2100
  A 4.54 0.04 90.0 0 0 17.7900 96.7500
  A 4.54 0.04 90.0 0 0 17.8300 101.2900
  Z"
/>
<path fill="#686969" d="
  M 43.46 112.10
  Q 48.65 113.67 54.19 113.63
  Q 55.02 113.63 55.73 113.25
  Q 56.52 112.82 57.14 112.39
  Q 59.25 110.98 60.91 112.03
  L 59.49 114.84
  Q 59.09 115.63 59.91 115.99
  L 61.69 116.75
  Q 62.57 117.13 63.02 116.29
  L 65.28 112.10
  L 70.48 112.56
  Q 70.97 112.61 71.40 112.87
  Q 73.83 114.36 76.78 113.95
  Q 78.75 113.68 80.76 113.35
  C 84.31 112.77 88.07 113.26 91.69 112.92
  C 97.88 112.34 104.20 113.15 110.30 112.12
  Q 111.76 111.87 112.38 110.98
  Q 113.12 109.92 113.12 108.55
  Q 113.12 96.50 113.12 84.44
  Q 113.12 81.76 113.34 79.08
  C 113.60 75.98 112.85 73.05 112.81 69.93
  Q 112.77 65.63 113.01 61.75
  Q 113.45 54.91 113.67 48.50
  Q 114.04 38.25 113.85 27.09
  Q 113.82 25.57 113.59 24.00
  Q 113.36 22.49 113.52 21.03
  Q 113.58 20.52 113.94 20.16
  L 115.96 18.13
  Q 116.22 17.86 116.34 17.51
  Q 116.53 16.98 117.06 16.90
  A 0.80 0.79 1.5 0 0 117.73 16.27
  C 118.03 14.73 119.65 14.28 119.86 12.38
  Q 119.91 11.92 120.24 11.60
  L 122.81 9.11
  A 1.15 1.12 27.7 0 1 123.79 8.82
  Q 126.29 9.29 126.40 11.88
  C 126.61 16.66 126.16 21.91 126.17 26.87
  Q 126.29 69.90 126.51 112.82
  Q 126.55 119.51 126.93 125.57
  A 0.72 0.72 0.0 0 1 126.19 126.33
  Q 112.40 125.88 98.49 125.48
  C 85.21 125.10 70.98 125.47 57.51 125.43
  Q 42.06 125.37 25.51 125.80
  Q 19.76 125.94 14.30 126.38
  Q 12.21 126.54 10.24 125.03
  Q 9.81 124.71 9.85 124.17
  Q 10.04 121.57 11.31 120.68
  Q 14.28 118.59 17.00 116.63
  Q 17.95 115.94 20.58 112.66
  A 1.07 1.06 -70.1 0 1 21.40 112.27
  L 43.46 112.10
  Z"
/>
<path fill="#151515" d="
  M 68.20 54.30
  L 65.13 60.58
  Q 64.72 60.99 63.99 61.04
  Q 63.85 60.36 63.56 60.19
  Q 60.89 58.65 54.83 55.70
  Q 54.39 55.48 54.62 55.05
  L 57.77 48.98
  A 0.57 0.56 27.5 0 1 58.54 48.74
  Q 62.96 51.10 67.51 53.40
  Q 67.76 53.53 67.92 53.76
  Q 68.08 53.99 68.20 54.30
  Z"
/>
<path fill="#ffffa1" d="
  M 68.20 54.30
  Q 68.47 54.40 68.80 54.37
  A 1.33 1.31 56.3 0 1 69.52 54.52
  L 107.04 74.11
  A 0.96 0.95 -63.9 0 1 107.46 75.35
  L 104.26 82.40
  Q 96.43 79.17 92.66 76.82
  C 90.47 75.46 88.09 74.63 86.26 73.52
  Q 81.37 70.54 76.24 68.01
  Q 72.74 66.29 70.47 64.65
  Q 67.74 62.69 65.13 60.58
  L 68.20 54.30
  Z"
/>
<path fill="#fffd11" d="
  M 65.13 60.58
  Q 67.74 62.69 70.47 64.65
  Q 72.74 66.29 76.24 68.01
  Q 81.37 70.54 86.26 73.52
  C 88.09 74.63 90.47 75.46 92.66 76.82
  Q 96.43 79.17 104.26 82.40
  L 101.32 87.94
  Q 100.97 88.61 100.27 88.30
  L 98.18 87.37
  A 0.78 0.78 0.0 0 0 97.17 87.72
  L 94.10 93.37
  Q 93.81 93.91 93.24 93.66
  L 90.89 92.59
  Q 90.21 92.29 89.87 92.95
  L 86.46 99.51
  Q 86.09 100.22 85.39 99.83
  L 82.21 98.07
  A 0.61 0.60 -61.6 0 0 81.38 98.32
  L 77.81 105.25
  Q 77.53 105.79 76.99 105.51
  L 74.65 104.30
  Q 74.01 103.96 73.69 104.61
  L 70.59 110.70
  Q 69.29 110.89 67.20 109.57
  Q 66.75 109.28 66.51 109.75
  L 65.28 112.10
  L 63.02 116.29
  Q 62.57 117.13 61.69 116.75
  L 59.91 115.99
  Q 59.09 115.63 59.49 114.84
  L 60.91 112.03
  L 61.42 111.01
  L 63.03 107.87
  Q 63.29 107.37 62.77 107.12
  L 60.34 105.96
  A 0.60 0.60 0.0 0 1 60.06 105.15
  L 63.30 98.86
  Q 63.51 98.44 63.09 98.24
  L 60.47 97.00
  Q 59.92 96.74 60.21 96.20
  L 63.91 89.15
  A 0.59 0.59 0.0 0 0 63.64 88.34
  L 61.27 87.23
  A 0.76 0.76 0.0 0 1 60.93 86.19
  L 64.48 79.43
  Q 64.80 78.83 64.18 78.52
  L 61.91 77.38
  A 0.80 0.80 0.0 0 1 61.56 76.30
  L 64.66 70.39
  A 0.60 0.60 0.0 0 0 64.40 69.57
  L 61.06 67.92
  A 0.69 0.69 0.0 0 1 60.76 66.97
  L 63.99 61.04
  Q 64.72 60.99 65.13 60.58
  Z"
/>
<rect fill="#151515" x="39.00" y="78.98" width="8.00" height="28.12" rx="0.78"/>
<ellipse fill="#e0e0e0" cx="0.00" cy="0.00" transform="translate(17.83,96.75) rotate(90.0)" rx="4.54" ry="0.04"/>
<path fill="#9e9e9e" d="
  M 61.42 111.01
  L 60.91 112.03
  Q 59.25 110.98 57.14 112.39
  Q 58.58 110.07 61.42 111.01
  Z"
/>
</svg>
