<?xml version="1.0" encoding="UTF-8" standalone="no"?>
<!DOCTYPE svg PUBLIC "-//W3C//DTD SVG 1.1//EN" "http://www.w3.org/Graphics/SVG/1.1/DTD/svg11.dtd">
<svg xmlns="http://www.w3.org/2000/svg" version="1.1" viewBox="0.00 0.00 128.00 128.00">
<g stroke-width="2.00" fill="none" stroke-linecap="butt">
<path stroke="#a5a5a5" vector-effect="non-scaling-stroke" d="
  M 4.02 120.84
  Q 4.73 122.73 3.97 126.37
  Q 3.75 127.42 4.83 127.39
  Q 5.55 127.38 6.27 127.09
  A 1.41 1.41 0.0 0 0 7.15 125.62
  C 6.88 123.29 8.70 122.17 9.73 120.35
  Q 10.00 119.88 10.51 119.69
  Q 11.29 119.41 11.81 118.75
  Q 12.46 117.90 13.33 117.27
  Q 15.50 115.67 17.31 113.76
  C 17.92 113.11 18.65 112.89 19.30 112.37
  Q 20.02 111.80 20.89 111.79
  Q 23.51 111.76 27.00 112.26
  Q 30.83 112.81 39.96 112.43
  Q 42.75 112.31 45.58 112.80
  Q 48.25 113.26 50.69 113.19
  Q 59.34 112.95 67.98 113.43"
/>
<path stroke="#848585" vector-effect="non-scaling-stroke" d="
  M 67.98 113.43
  Q 60.87 113.69 48.25 113.56
  Q 45.82 113.53 43.66 113.32
  Q 40.97 113.05 39.13 113.10
  Q 31.08 113.28 23.82 112.33
  Q 21.20 111.99 19.82 113.70
  Q 19.53 114.07 19.06 114.13
  Q 18.40 114.22 18.00 114.72
  Q 17.15 115.80 16.15 116.89
  Q 15.16 117.98 13.98 118.63
  Q 11.16 120.18 9.45 122.84
  Q 8.05 125.02 10.59 125.53
  C 11.61 125.74 12.42 126.29 13.52 126.27
  Q 17.17 126.20 21.22 125.94
  Q 33.27 125.16 55.37 125.31
  Q 85.27 125.51 109.09 125.70
  Q 116.73 125.76 126.01 126.39
  A 0.80 0.80 0.0 0 0 126.86 125.53
  C 126.25 117.43 126.47 109.12 126.44 100.86
  Q 126.32 63.02 126.20 25.20
  C 126.18 20.55 126.57 16.06 126.41 11.41
  A 1.51 1.51 0.0 0 0 124.02 10.23
  Q 123.90 10.31 123.80 10.40
  Q 123.41 10.74 123.71 10.32
  Q 123.82 10.18 123.93 10.02
  Q 124.16 9.69 123.76 9.73
  Q 123.42 9.77 123.13 10.13
  Q 121.78 11.81 120.74 13.70
  Q 119.33 16.24 115.56 19.09
  C 114.66 19.76 113.93 20.96 114.11 22.10
  Q 114.69 25.76 114.59 29.50
  Q 114.37 38.38 114.01 47.32"
/>
<path stroke="#a5a5a5" vector-effect="non-scaling-stroke" d="
  M 114.01 47.32
  Q 112.88 43.83 112.92 41.75
  Q 113.14 32.07 112.64 22.94
  C 112.51 20.46 113.61 19.76 114.22 17.70
  Q 114.62 16.37 115.79 15.59
  Q 116.86 14.87 117.59 13.93
  Q 120.14 10.65 121.79 7.63
  Q 122.34 6.62 123.31 6.09
  Q 124.49 5.46 125.79 5.65
  Q 126.42 5.74 126.88 5.32
  Q 127.66 4.60 126.66 3.56
  A 1.42 1.41 61.7 0 0 125.34 3.16
  Q 122.72 3.72 121.06 2.63"
/>
<path stroke="#bfbfbf" vector-effect="non-scaling-stroke" d="
  M 121.06 2.63
  Q 117.92 1.53 116.50 1.51
  Q 66.52 0.80 15.47 1.52
  C 11.19 1.58 7.40 0.57 3.18 0.88
  Q 0.50 1.07 0.97 3.56
  Q 2.26 10.26 2.29 16.04
  C 2.49 49.36 2.29 82.69 2.25 116.00
  Q 2.25 117.65 4.02 120.84"
/>
<path stroke="#c6c6c6" vector-effect="non-scaling-stroke" d="
  M 121.06 2.63
  Q 122.80 6.94 117.05 11.27
  A 1.85 1.77 21.7 0 1 116.16 11.63
  Q 115.06 11.77 114.51 12.63
  Q 114.26 13.02 113.83 13.14
  Q 112.86 13.40 112.24 14.25
  Q 111.99 14.59 111.64 14.81
  L 108.64 16.66
  Q 108.23 16.91 107.74 16.91
  C 100.12 16.82 92.55 16.03 85.13 16.27
  C 63.65 16.95 41.76 16.46 19.46 16.11
  Q 16.92 16.07 16.92 18.61
  Q 16.92 64.99 17.00 107.49
  Q 17.00 108.52 16.53 109.29
  Q 15.55 110.89 14.09 111.57
  Q 12.64 112.25 12.11 113.11
  Q 9.91 116.67 7.62 120.09
  Q 6.24 122.15 4.02 120.84"
/>
<path stroke="#8b8b8b" vector-effect="non-scaling-stroke" d="
  M 114.01 47.32
  Q 114.71 60.30 114.43 73.34
  Q 114.13 86.80 114.11 89.66
  Q 114.05 97.61 113.85 106.00
  C 113.79 108.60 115.25 113.81 110.57 112.99
  Q 109.70 112.84 108.75 112.84
  Q 93.51 112.86 79.25 113.38
  Q 70.51 113.70 67.98 113.43"
/>
<path stroke="#848585" vector-effect="non-scaling-stroke" d="
  M 13.52 119.83
  Q 13.84 119.83 13.92 119.49
  Q 14.01 119.06 13.61 119.23
  Q 12.34 119.77 11.42 120.90
  Q 10.90 121.54 11.66 121.19
  Q 12.42 120.84 12.94 120.14
  Q 13.15 119.84 13.52 119.83"
/>
</g>
<path fill="#9e9e9e" d="
  M 0.00 0.00
  L 128.00 0.00
  L 128.00 128.00
  L 0.00 128.00
  L 0.00 0.00
  Z
  M 4.02 120.84
  Q 4.73 122.73 3.97 126.37
  Q 3.75 127.42 4.83 127.39
  Q 5.55 127.38 6.27 127.09
  A 1.41 1.41 0.0 0 0 7.15 125.62
  C 6.88 123.29 8.70 122.17 9.73 120.35
  Q 10.00 119.88 10.51 119.69
  Q 11.29 119.41 11.81 118.75
  Q 12.46 117.90 13.33 117.27
  Q 15.50 115.67 17.31 113.76
  C 17.92 113.11 18.65 112.89 19.30 112.37
  Q 20.02 111.80 20.89 111.79
  Q 23.51 111.76 27.00 112.26
  Q 30.83 112.81 39.96 112.43
  Q 42.75 112.31 45.58 112.80
  Q 48.25 113.26 50.69 113.19
  Q 59.34 112.95 67.98 113.43
  Q 60.87 113.69 48.25 113.56
  Q 45.82 113.53 43.66 113.32
  Q 40.97 113.05 39.13 113.10
  Q 31.08 113.28 23.82 112.33
  Q 21.20 111.99 19.82 113.70
  Q 19.53 114.07 19.06 114.13
  Q 18.40 114.22 18.00 114.72
  Q 17.15 115.80 16.15 116.89
  Q 15.16 117.98 13.98 118.63
  Q 11.16 120.18 9.45 122.84
  Q 8.05 125.02 10.59 125.53
  C 11.61 125.74 12.42 126.29 13.52 126.27
  Q 17.17 126.20 21.22 125.94
  Q 33.27 125.16 55.37 125.31
  Q 85.27 125.51 109.09 125.70
  Q 116.73 125.76 126.01 126.39
  A 0.80 0.80 0.0 0 0 126.86 125.53
  C 126.25 117.43 126.47 109.12 126.44 100.86
  Q 126.32 63.02 126.20 25.20
  C 126.18 20.55 126.57 16.06 126.41 11.41
  A 1.51 1.51 0.0 0 0 124.02 10.23
  Q 123.90 10.31 123.80 10.40
  Q 123.41 10.74 123.71 10.32
  Q 123.82 10.18 123.93 10.02
  Q 124.16 9.69 123.76 9.73
  Q 123.42 9.77 123.13 10.13
  Q 121.78 11.81 120.74 13.70
  Q 119.33 16.24 115.56 19.09
  C 114.66 19.76 113.93 20.96 114.11 22.10
  Q 114.69 25.76 114.59 29.50
  Q 114.37 38.38 114.01 47.32
  Q 112.88 43.83 112.92 41.75
  Q 113.14 32.07 112.64 22.94
  C 112.51 20.46 113.61 19.76 114.22 17.70
  Q 114.62 16.37 115.79 15.59
  Q 116.86 14.87 117.59 13.93
  Q 120.14 10.65 121.79 7.63
  Q 122.34 6.62 123.31 6.09
  Q 124.49 5.46 125.79 5.65
  Q 126.42 5.74 126.88 5.32
  Q 127.66 4.60 126.66 3.56
  A 1.42 1.41 61.7 0 0 125.34 3.16
  Q 122.72 3.72 121.06 2.63
  Q 117.92 1.53 116.50 1.51
  Q 66.52 0.80 15.47 1.52
  C 11.19 1.58 7.40 0.57 3.18 0.88
  Q 0.50 1.07 0.97 3.56
  Q 2.26 10.26 2.29 16.04
  C 2.49 49.36 2.29 82.69 2.25 116.00
  Q 2.25 117.65 4.02 120.84
  Z"
/>
<path fill="#e0e0e0" d="
  M 121.06 2.63
  Q 122.80 6.94 117.05 11.27
  A 1.85 1.77 21.7 0 1 116.16 11.63
  Q 115.06 11.77 114.51 12.63
  Q 114.26 13.02 113.83 13.14
  Q 112.86 13.40 112.24 14.25
  Q 111.99 14.59 111.64 14.81
  L 108.64 16.66
  Q 108.23 16.91 107.74 16.91
  C 100.12 16.82 92.55 16.03 85.13 16.27
  C 63.65 16.95 41.76 16.46 19.46 16.11
  Q 16.92 16.07 16.92 18.61
  Q 16.92 64.99 17.00 107.49
  Q 17.00 108.52 16.53 109.29
  Q 15.55 110.89 14.09 111.57
  Q 12.64 112.25 12.11 113.11
  Q 9.91 116.67 7.62 120.09
  Q 6.24 122.15 4.02 120.84
  Q 2.25 117.65 2.25 116.00
  C 2.29 82.69 2.49 49.36 2.29 16.04
  Q 2.26 10.26 0.97 3.56
  Q 0.50 1.07 3.18 0.88
  C 7.40 0.57 11.19 1.58 15.47 1.52
  Q 66.52 0.80 116.50 1.51
  Q 117.92 1.53 121.06 2.63
  Z"
/>
<path fill="#ababab" d="
  M 121.06 2.63
  Q 122.72 3.72 125.34 3.16
  A 1.42 1.41 61.7 0 1 126.66 3.56
  Q 127.66 4.60 126.88 5.32
  Q 126.42 5.74 125.79 5.65
  Q 124.49 5.46 123.31 6.09
  Q 122.34 6.62 121.79 7.63
  Q 120.14 10.65 117.59 13.93
  Q 116.86 14.87 115.79 15.59
  Q 114.62 16.37 114.22 17.70
  C 113.61 19.76 112.51 20.46 112.64 22.94
  Q 113.14 32.07 112.92 41.75
  Q 112.88 43.83 114.01 47.32
  Q 114.71 60.30 114.43 73.34
  Q 114.13 86.80 114.11 89.66
  Q 114.05 97.61 113.85 106.00
  C 113.79 108.60 115.25 113.81 110.57 112.99
  Q 109.70 112.84 108.75 112.84
  Q 93.51 112.86 79.25 113.38
  Q 70.51 113.70 67.98 113.43
  Q 59.34 112.95 50.69 113.19
  Q 48.25 113.26 45.58 112.80
  Q 42.75 112.31 39.96 112.43
  Q 30.83 112.81 27.00 112.26
  Q 23.51 111.76 20.89 111.79
  Q 20.02 111.80 19.30 112.37
  C 18.65 112.89 17.92 113.11 17.31 113.76
  Q 15.50 115.67 13.33 117.27
  Q 12.46 117.90 11.81 118.75
  Q 11.29 119.41 10.51 119.69
  Q 10.00 119.88 9.73 120.35
  C 8.70 122.17 6.88 123.29 7.15 125.62
  A 1.41 1.41 0.0 0 1 6.27 127.09
  Q 5.55 127.38 4.83 127.39
  Q 3.75 127.42 3.97 126.37
  Q 4.73 122.73 4.02 120.84
  Q 6.24 122.15 7.62 120.09
  Q 9.91 116.67 12.11 113.11
  Q 12.64 112.25 14.09 111.57
  Q 15.55 110.89 16.53 109.29
  Q 17.00 108.52 17.00 107.49
  Q 16.92 64.99 16.92 18.61
  Q 16.92 16.07 19.46 16.11
  C 41.76 16.46 63.65 16.95 85.13 16.27
  C 92.55 16.03 100.12 16.82 107.74 16.91
  Q 108.23 16.91 108.64 16.66
  L 111.64 14.81
  Q 111.99 14.59 112.24 14.25
  Q 112.86 13.40 113.83 13.14
  Q 114.26 13.02 114.51 12.63
  Q 115.06 11.77 116.16 11.63
  A 1.85 1.77 21.7 0 0 117.05 11.27
  Q 122.80 6.94 121.06 2.63
  Z"
/>
<path fill="#6a6b6b" d="
  M 67.98 113.43
  Q 70.51 113.70 79.25 113.38
  Q 93.51 112.86 108.75 112.84
  Q 109.70 112.84 110.57 112.99
  C 115.25 113.81 113.79 108.60 113.85 106.00
  Q 114.05 97.61 114.11 89.66
  Q 114.13 86.80 114.43 73.34
  Q 114.71 60.30 114.01 47.32
  Q 114.37 38.38 114.59 29.50
  Q 114.69 25.76 114.11 22.10
  C 113.93 20.96 114.66 19.76 115.56 19.09
  Q 119.33 16.24 120.74 13.70
  Q 121.78 11.81 123.13 10.13
  Q 123.42 9.77 123.76 9.73
  Q 124.16 9.69 123.93 10.02
  Q 123.82 10.18 123.71 10.32
  Q 123.41 10.74 123.80 10.40
  Q 123.90 10.31 124.02 10.23
  A 1.51 1.51 0.0 0 1 126.41 11.41
  C 126.57 16.06 126.18 20.55 126.20 25.20
  Q 126.32 63.02 126.44 100.86
  C 126.47 109.12 126.25 117.43 126.86 125.53
  A 0.80 0.80 0.0 0 1 126.01 126.39
  Q 116.73 125.76 109.09 125.70
  Q 85.27 125.51 55.37 125.31
  Q 33.27 125.16 21.22 125.94
  Q 17.17 126.20 13.52 126.27
  C 12.42 126.29 11.61 125.74 10.59 125.53
  Q 8.05 125.02 9.45 122.84
  Q 11.16 120.18 13.98 118.63
  Q 15.16 117.98 16.15 116.89
  Q 17.15 115.80 18.00 114.72
  Q 18.40 114.22 19.06 114.13
  Q 19.53 114.07 19.82 113.70
  Q 21.20 111.99 23.82 112.33
  Q 31.08 113.28 39.13 113.10
  Q 40.97 113.05 43.66 113.32
  Q 45.82 113.53 48.25 113.56
  Q 60.87 113.69 67.98 113.43
  Z
  M 13.52 119.83
  Q 13.84 119.83 13.92 119.49
  Q 14.01 119.06 13.61 119.23
  Q 12.34 119.77 11.42 120.90
  Q 10.90 121.54 11.66 121.19
  Q 12.42 120.84 12.94 120.14
  Q 13.15 119.84 13.52 119.83
  Z"
/>
<path fill="#9e9e9e" d="
  M 12.94 120.14
  Q 12.42 120.84 11.66 121.19
  Q 10.90 121.54 11.42 120.90
  Q 12.34 119.77 13.61 119.23
  Q 14.01 119.06 13.92 119.49
  Q 13.84 119.83 13.52 119.83
  Q 13.15 119.84 12.94 120.14
  Z"
/>
</svg>
