<?xml version="1.0" encoding="UTF-8" standalone="no"?>
<!DOCTYPE svg PUBLIC "-//W3C//DTD SVG 1.1//EN" "http://www.w3.org/Graphics/SVG/1.1/DTD/svg11.dtd">
<svg xmlns="http://www.w3.org/2000/svg" version="1.1" viewBox="0.00 0.00 128.00 128.00">
<g stroke-width="2.00" fill="none" stroke-linecap="butt">
<path stroke="#a5a5a5" vector-effect="non-scaling-stroke" d="
  M 3.91 120.83
  Q 4.51 123.29 3.87 126.54
  Q 3.74 127.22 4.41 127.39
  Q 6.99 128.03 7.90 126.29
  Q 8.16 125.80 8.01 125.28
  C 7.22 122.52 9.44 121.80 10.94 120.21
  Q 14.13 116.82 17.91 113.67
  Q 17.95 113.63 18.01 113.64
  Q 18.05 113.64 18.10 113.65
  Q 18.38 113.73 18.18 113.93
  Q 15.54 116.72 12.56 119.49"
/>
<path stroke="#848584" vector-effect="non-scaling-stroke" d="
  M 12.56 119.49
  Q 12.07 120.91 10.61 121.76
  A 2.15 2.15 0.0 0 0 10.57 125.45
  Q 12.05 126.36 14.48 126.23
  Q 28.53 125.49 43.68 125.53
  C 71.17 125.60 98.26 125.23 126.21 126.33
  A 0.70 0.69 -2.1 0 0 126.93 125.56
  Q 126.58 122.34 126.56 119.02
  Q 126.32 78.50 126.27 40.63
  C 126.26 31.63 125.92 22.87 126.56 13.85
  Q 126.78 10.82 124.84 8.85
  A 2.03 2.02 -58.9 0 0 121.47 9.69
  Q 121.30 10.23 120.81 10.50
  Q 120.27 10.79 120.08 11.38
  Q 118.88 15.08 115.87 17.44
  Q 115.42 17.79 115.29 18.34
  Q 115.08 19.27 114.41 19.87
  Q 114.07 20.18 114.07 20.64
  C 114.11 23.65 114.78 26.40 114.71 29.43
  Q 114.51 38.31 113.97 47.26"
/>
<path stroke="#a5a5a5" vector-effect="non-scaling-stroke" d="
  M 113.97 47.26
  Q 112.91 43.23 112.91 41.25
  Q 112.92 33.91 112.93 27.03
  C 112.93 24.18 111.56 21.77 113.73 19.19
  Q 114.40 18.40 114.67 17.36
  Q 114.80 16.85 115.17 16.48
  Q 118.80 12.80 121.33 8.53
  Q 122.32 6.86 124.33 6.85
  Q 124.54 6.85 124.50 6.65
  Q 124.46 6.49 124.56 6.40
  Q 124.97 6.04 125.50 6.12
  Q 126.92 6.34 127.19 4.72
  A 1.12 1.11 -89.6 0 0 125.92 3.43
  Q 123.21 3.86 120.33 2.13"
/>
<path stroke="#bfbfbf" vector-effect="non-scaling-stroke" d="
  M 120.33 2.13
  Q 112.55 1.33 98.25 1.29
  Q 57.11 1.16 15.96 1.50
  Q 12.54 1.53 9.59 1.12
  Q 6.18 0.65 3.06 0.89
  Q 0.62 1.07 1.01 3.49
  C 1.87 8.84 2.37 13.56 2.36 19.19
  Q 2.28 67.60 2.26 116.00
  Q 2.26 117.32 3.91 120.83"
/>
<path stroke="#c6c6c6" vector-effect="non-scaling-stroke" d="
  M 120.33 2.13
  Q 122.83 4.21 121.26 6.26
  Q 118.84 9.44 115.98 11.38
  Q 114.02 12.70 112.06 14.43
  Q 109.06 17.09 105.55 16.78
  Q 97.30 16.03 87.89 16.23
  Q 83.98 16.31 80.13 16.33
  Q 49.39 16.49 19.04 16.13
  A 2.08 2.08 0.0 0 0 16.94 18.21
  Q 16.81 57.03 16.98 90.75
  Q 17.02 97.97 17.18 106.57
  C 17.21 108.27 16.73 109.84 15.13 110.67
  Q 11.61 112.51 10.63 115.55
  Q 10.00 117.46 8.66 118.80
  Q 6.31 121.12 3.91 120.83"
/>
<path stroke="#8b8b8b" vector-effect="non-scaling-stroke" d="
  M 113.97 47.26
  C 114.71 58.28 114.49 69.13 114.22 80.24
  C 114.14 83.49 114.57 87.43 114.39 91.25
  Q 113.97 100.22 113.52 110.48
  A 2.03 2.02 -0.6 0 1 111.63 112.41
  Q 100.54 113.13 89.82 113.28
  Q 85.17 113.35 79.66 112.95
  Q 64.79 111.87 47.54 112.74
  Q 42.47 112.99 36.10 112.73
  Q 29.35 112.44 22.20 112.34
  C 21.61 112.33 20.93 112.66 20.32 112.75
  Q 19.97 112.80 19.72 113.04
  Q 17.73 114.85 16.41 117.03
  Q 15.82 117.98 14.86 118.57
  Q 13.76 119.25 12.56 119.49"
/>
<path stroke="#d5cd75" vector-effect="non-scaling-stroke" d="
  M 59.93 44.85
  L 59.95 87.94"
/>
<path stroke="#6b6b6b" vector-effect="non-scaling-stroke" d="
  M 59.95 87.94
  L 46.96 87.99
  Q 46.00 87.99 46.00 88.95
  L 46.00 94.00
  A 1.00 1.00 0.0 0 0 47.00 95.00
  L 80.25 95.00
  Q 81.00 95.00 81.00 94.25
  L 80.99 88.81
  Q 80.99 88.00 80.17 87.99
  L 67.96 87.94"
/>
<path stroke="#d5cd75" vector-effect="non-scaling-stroke" d="
  M 67.96 87.94
  L 67.90 36.72"
/>
<path stroke="#6b6b6b" vector-effect="non-scaling-stroke" d="
  M 67.90 36.72
  L 68.00 30.77
  Q 68.01 29.99 67.24 30.00
  L 62.48 30.01
  Q 61.76 30.01 61.64 30.73
  C 60.49 38.03 52.99 39.22 46.78 38.94
  Q 46.00 38.90 46.00 39.69
  L 46.01 44.28
  A 0.68 0.67 89.6 0 0 46.69 44.96
  L 59.93 44.85"
/>
<path stroke="#958c35" vector-effect="non-scaling-stroke" d="
  M 67.90 36.72
  Q 65.29 42.50 59.93 44.85"
/>
<path stroke="#958c35" vector-effect="non-scaling-stroke" d="
  M 67.96 87.94
  L 59.95 87.94"
/>
<path stroke="#a5a5a5" vector-effect="non-scaling-stroke" d="
  M 19.21 112.19
  Q 18.62 112.38 18.42 112.92
  Q 18.11 113.72 18.79 113.20
  C 19.78 112.45 20.67 111.87 21.99 111.89
  C 30.33 111.99 38.93 112.46 47.00 112.27
  Q 57.34 112.03 67.69 111.76
  Q 67.74 111.76 67.77 111.73
  Q 67.80 111.69 67.79 111.64
  Q 67.75 111.55 67.66 111.55
  Q 62.06 111.14 53.00 111.52
  Q 39.13 112.10 21.25 111.16
  Q 20.50 111.12 19.93 111.74
  Q 19.63 112.06 19.21 112.19"
/>
</g>
<path fill="#9e9e9e" d="
  M 0.00 0.00
  L 128.00 0.00
  L 128.00 128.00
  L 0.00 128.00
  L 0.00 0.00
  Z
  M 3.91 120.83
  Q 4.51 123.29 3.87 126.54
  Q 3.74 127.22 4.41 127.39
  Q 6.99 128.03 7.90 126.29
  Q 8.16 125.80 8.01 125.28
  C 7.22 122.52 9.44 121.80 10.94 120.21
  Q 14.13 116.82 17.91 113.67
  Q 17.95 113.63 18.01 113.64
  Q 18.05 113.64 18.10 113.65
  Q 18.38 113.73 18.18 113.93
  Q 15.54 116.72 12.56 119.49
  Q 12.07 120.91 10.61 121.76
  A 2.15 2.15 0.0 0 0 10.57 125.45
  Q 12.05 126.36 14.48 126.23
  Q 28.53 125.49 43.68 125.53
  C 71.17 125.60 98.26 125.23 126.21 126.33
  A 0.70 0.69 -2.1 0 0 126.93 125.56
  Q 126.58 122.34 126.56 119.02
  Q 126.32 78.50 126.27 40.63
  C 126.26 31.63 125.92 22.87 126.56 13.85
  Q 126.78 10.82 124.84 8.85
  A 2.03 2.02 -58.9 0 0 121.47 9.69
  Q 121.30 10.23 120.81 10.50
  Q 120.27 10.79 120.08 11.38
  Q 118.88 15.08 115.87 17.44
  Q 115.42 17.79 115.29 18.34
  Q 115.08 19.27 114.41 19.87
  Q 114.07 20.18 114.07 20.64
  C 114.11 23.65 114.78 26.40 114.71 29.43
  Q 114.51 38.31 113.97 47.26
  Q 112.91 43.23 112.91 41.25
  Q 112.92 33.91 112.93 27.03
  C 112.93 24.18 111.56 21.77 113.73 19.19
  Q 114.40 18.40 114.67 17.36
  Q 114.80 16.85 115.17 16.48
  Q 118.80 12.80 121.33 8.53
  Q 122.32 6.86 124.33 6.85
  Q 124.54 6.85 124.50 6.65
  Q 124.46 6.49 124.56 6.40
  Q 124.97 6.04 125.50 6.12
  Q 126.92 6.34 127.19 4.72
  A 1.12 1.11 -89.6 0 0 125.92 3.43
  Q 123.21 3.86 120.33 2.13
  Q 112.55 1.33 98.25 1.29
  Q 57.11 1.16 15.96 1.50
  Q 12.54 1.53 9.59 1.12
  Q 6.18 0.65 3.06 0.89
  Q 0.62 1.07 1.01 3.49
  C 1.87 8.84 2.37 13.56 2.36 19.19
  Q 2.28 67.60 2.26 116.00
  Q 2.26 117.32 3.91 120.83
  Z"
/>
<path fill="#e0e0e0" d="
  M 120.33 2.13
  Q 122.83 4.21 121.26 6.26
  Q 118.84 9.44 115.98 11.38
  Q 114.02 12.70 112.06 14.43
  Q 109.06 17.09 105.55 16.78
  Q 97.30 16.03 87.89 16.23
  Q 83.98 16.31 80.13 16.33
  Q 49.39 16.49 19.04 16.13
  A 2.08 2.08 0.0 0 0 16.94 18.21
  Q 16.81 57.03 16.98 90.75
  Q 17.02 97.97 17.18 106.57
  C 17.21 108.27 16.73 109.84 15.13 110.67
  Q 11.61 112.51 10.63 115.55
  Q 10.00 117.46 8.66 118.80
  Q 6.31 121.12 3.91 120.83
  Q 2.26 117.32 2.26 116.00
  Q 2.28 67.60 2.36 19.19
  C 2.37 13.56 1.87 8.84 1.01 3.49
  Q 0.62 1.07 3.06 0.89
  Q 6.18 0.65 9.59 1.12
  Q 12.54 1.53 15.96 1.50
  Q 57.11 1.16 98.25 1.29
  Q 112.55 1.33 120.33 2.13
  Z"
/>
<path fill="#ababab" d="
  M 120.33 2.13
  Q 123.21 3.86 125.92 3.43
  A 1.12 1.11 -89.6 0 1 127.19 4.72
  Q 126.92 6.34 125.50 6.12
  Q 124.97 6.04 124.56 6.40
  Q 124.46 6.49 124.50 6.65
  Q 124.54 6.85 124.33 6.85
  Q 122.32 6.86 121.33 8.53
  Q 118.80 12.80 115.17 16.48
  Q 114.80 16.85 114.67 17.36
  Q 114.40 18.40 113.73 19.19
  C 111.56 21.77 112.93 24.18 112.93 27.03
  Q 112.92 33.91 112.91 41.25
  Q 112.91 43.23 113.97 47.26
  C 114.71 58.28 114.49 69.13 114.22 80.24
  C 114.14 83.49 114.57 87.43 114.39 91.25
  Q 113.97 100.22 113.52 110.48
  A 2.03 2.02 -0.6 0 1 111.63 112.41
  Q 100.54 113.13 89.82 113.28
  Q 85.17 113.35 79.66 112.95
  Q 64.79 111.87 47.54 112.74
  Q 42.47 112.99 36.10 112.73
  Q 29.35 112.44 22.20 112.34
  C 21.61 112.33 20.93 112.66 20.32 112.75
  Q 19.97 112.80 19.72 113.04
  Q 17.73 114.85 16.41 117.03
  Q 15.82 117.98 14.86 118.57
  Q 13.76 119.25 12.56 119.49
  Q 15.54 116.72 18.18 113.93
  Q 18.38 113.73 18.10 113.65
  Q 18.05 113.64 18.01 113.64
  Q 17.95 113.63 17.91 113.67
  Q 14.13 116.82 10.94 120.21
  C 9.44 121.80 7.22 122.52 8.01 125.28
  Q 8.16 125.80 7.90 126.29
  Q 6.99 128.03 4.41 127.39
  Q 3.74 127.22 3.87 126.54
  Q 4.51 123.29 3.91 120.83
  Q 6.31 121.12 8.66 118.80
  Q 10.00 117.46 10.63 115.55
  Q 11.61 112.51 15.13 110.67
  C 16.73 109.84 17.21 108.27 17.18 106.57
  Q 17.02 97.97 16.98 90.75
  Q 16.81 57.03 16.94 18.21
  A 2.08 2.08 0.0 0 1 19.04 16.13
  Q 49.39 16.49 80.13 16.33
  Q 83.98 16.31 87.89 16.23
  Q 97.30 16.03 105.55 16.78
  Q 109.06 17.09 112.06 14.43
  Q 114.02 12.70 115.98 11.38
  Q 118.84 9.44 121.26 6.26
  Q 122.83 4.21 120.33 2.13
  Z
  M 59.93 44.85
  L 59.95 87.94
  L 46.96 87.99
  Q 46.00 87.99 46.00 88.95
  L 46.00 94.00
  A 1.00 1.00 0.0 0 0 47.00 95.00
  L 80.25 95.00
  Q 81.00 95.00 81.00 94.25
  L 80.99 88.81
  Q 80.99 88.00 80.17 87.99
  L 67.96 87.94
  L 67.90 36.72
  L 68.00 30.77
  Q 68.01 29.99 67.24 30.00
  L 62.48 30.01
  Q 61.76 30.01 61.64 30.73
  C 60.49 38.03 52.99 39.22 46.78 38.94
  Q 46.00 38.90 46.00 39.69
  L 46.01 44.28
  A 0.68 0.67 89.6 0 0 46.69 44.96
  L 59.93 44.85
  Z
  M 19.21 112.19
  Q 18.62 112.38 18.42 112.92
  Q 18.11 113.72 18.79 113.20
  C 19.78 112.45 20.67 111.87 21.99 111.89
  C 30.33 111.99 38.93 112.46 47.00 112.27
  Q 57.34 112.03 67.69 111.76
  Q 67.74 111.76 67.77 111.73
  Q 67.80 111.69 67.79 111.64
  Q 67.75 111.55 67.66 111.55
  Q 62.06 111.14 53.00 111.52
  Q 39.13 112.10 21.25 111.16
  Q 20.50 111.12 19.93 111.74
  Q 19.63 112.06 19.21 112.19
  Z"
/>
<path fill="#6a6b6a" d="
  M 12.56 119.49
  Q 13.76 119.25 14.86 118.57
  Q 15.82 117.98 16.41 117.03
  Q 17.73 114.85 19.72 113.04
  Q 19.97 112.80 20.32 112.75
  C 20.93 112.66 21.61 112.33 22.20 112.34
  Q 29.35 112.44 36.10 112.73
  Q 42.47 112.99 47.54 112.74
  Q 64.79 111.87 79.66 112.95
  Q 85.17 113.35 89.82 113.28
  Q 100.54 113.13 111.63 112.41
  A 2.03 2.02 -0.6 0 0 113.52 110.48
  Q 113.97 100.22 114.39 91.25
  C 114.57 87.43 114.14 83.49 114.22 80.24
  C 114.49 69.13 114.71 58.28 113.97 47.26
  Q 114.51 38.31 114.71 29.43
  C 114.78 26.40 114.11 23.65 114.07 20.64
  Q 114.07 20.18 114.41 19.87
  Q 115.08 19.27 115.29 18.34
  Q 115.42 17.79 115.87 17.44
  Q 118.88 15.08 120.08 11.38
  Q 120.27 10.79 120.81 10.50
  Q 121.30 10.23 121.47 9.69
  A 2.03 2.02 -58.9 0 1 124.84 8.85
  Q 126.78 10.82 126.56 13.85
  C 125.92 22.87 126.26 31.63 126.27 40.63
  Q 126.32 78.50 126.56 119.02
  Q 126.58 122.34 126.93 125.56
  A 0.70 0.69 -2.1 0 1 126.21 126.33
  C 98.26 125.23 71.17 125.60 43.68 125.53
  Q 28.53 125.49 14.48 126.23
  Q 12.05 126.36 10.57 125.45
  A 2.15 2.15 0.0 0 1 10.61 121.76
  Q 12.07 120.91 12.56 119.49
  Z"
/>
<path fill="#2a2a2a" d="
  M 67.90 36.72
  Q 65.29 42.50 59.93 44.85
  L 46.69 44.96
  A 0.68 0.67 89.6 0 1 46.01 44.28
  L 46.00 39.69
  Q 46.00 38.90 46.78 38.94
  C 52.99 39.22 60.49 38.03 61.64 30.73
  Q 61.76 30.01 62.48 30.01
  L 67.24 30.00
  Q 68.01 29.99 68.00 30.77
  L 67.90 36.72
  Z"
/>
<path fill="#ffee3f" d="
  M 67.90 36.72
  L 67.96 87.94
  L 59.95 87.94
  L 59.93 44.85
  Q 65.29 42.50 67.90 36.72
  Z"
/>
<path fill="#2a2a2a" d="
  M 59.95 87.94
  L 67.96 87.94
  L 80.17 87.99
  Q 80.99 88.00 80.99 88.81
  L 81.00 94.25
  Q 81.00 95.00 80.25 95.00
  L 47.00 95.00
  A 1.00 1.00 0.0 0 1 46.00 94.00
  L 46.00 88.95
  Q 46.00 87.99 46.96 87.99
  L 59.95 87.94
  Z"
/>
<path fill="#9e9e9e" d="
  M 19.93 111.74
  Q 20.50 111.12 21.25 111.16
  Q 39.13 112.10 53.00 111.52
  Q 62.06 111.14 67.66 111.55
  Q 67.75 111.55 67.79 111.64
  Q 67.80 111.69 67.77 111.73
  Q 67.74 111.76 67.69 111.76
  Q 57.34 112.03 47.00 112.27
  C 38.93 112.46 30.33 111.99 21.99 111.89
  C 20.67 111.87 19.78 112.45 18.79 113.20
  Q 18.11 113.72 18.42 112.92
  Q 18.62 112.38 19.21 112.19
  Q 19.63 112.06 19.93 111.74
  Z"
/>
</svg>
