<?xml version="1.0" encoding="UTF-8" standalone="no"?>
<!DOCTYPE svg PUBLIC "-//W3C//DTD SVG 1.1//EN" "http://www.w3.org/Graphics/SVG/1.1/DTD/svg11.dtd">
<svg xmlns="http://www.w3.org/2000/svg" version="1.1" viewBox="0.00 0.00 128.00 128.00">
<g stroke-width="2.00" fill="none" stroke-linecap="butt">
<path stroke="#a5a5a5" vector-effect="non-scaling-stroke" d="
  M 7.83 119.75
  Q 9.30 119.93 10.52 118.58
  A 0.06 0.06 0.0 0 1 10.62 118.63
  Q 10.59 118.79 10.46 118.89
  Q 8.72 120.09 7.09 121.83
  Q 6.66 122.28 6.64 122.91
  Q 6.58 124.51 6.66 126.00
  Q 6.67 126.20 6.88 126.19
  L 6.88 126.19
  Q 7.09 126.18 7.09 125.98
  Q 7.06 124.97 7.31 123.98
  Q 7.57 122.97 8.29 122.27
  Q 11.17 119.48 14.55 116.76
  Q 14.67 116.66 14.82 116.65
  Q 15.11 116.63 15.32 116.44
  Q 17.51 114.46 20.15 112.30
  Q 20.91 111.68 21.79 112.01
  Q 22.29 112.19 22.82 112.18
  Q 32.78 111.91 42.79 112.39
  C 51.73 112.82 60.81 112.05 69.65 112.96
  Q 75.50 113.56 77.49 113.13
  Q 81.49 112.27 80.40 113.72"
/>
<path stroke="#848584" vector-effect="non-scaling-stroke" d="
  M 80.40 113.72
  Q 60.30 113.54 40.67 113.62
  Q 40.50 113.63 40.33 113.52
  Q 40.19 113.44 40.25 113.25
  Q 40.31 113.05 40.11 113.05
  L 23.07 112.81
  Q 21.49 112.79 20.16 113.66
  Q 15.58 116.65 11.84 120.23
  Q 11.54 120.52 11.30 120.85
  Q 11.11 121.11 10.84 121.28
  Q 9.07 122.45 9.08 124.62
  Q 9.08 125.31 9.77 125.35
  Q 10.72 125.40 11.59 125.81
  C 13.59 126.75 16.79 126.26 18.87 126.06
  Q 21.23 125.84 23.66 125.77
  C 34.00 125.49 44.62 125.23 55.12 125.30
  Q 82.58 125.48 111.51 125.82
  Q 118.30 125.89 126.15 126.39
  A 0.70 0.70 0.0 0 0 126.89 125.64
  Q 126.63 122.61 126.61 119.86
  Q 126.27 73.01 126.15 25.37
  C 126.14 20.89 126.50 16.56 126.49 12.16
  Q 126.49 10.22 124.85 9.70
  A 1.79 1.78 22.5 0 0 122.72 10.58
  Q 122.21 11.57 121.47 12.26"
/>
<path stroke="#a5a5a5" vector-effect="non-scaling-stroke" d="
  M 121.47 12.26
  Q 119.66 14.67 117.83 16.97
  C 117.00 18.01 115.89 18.09 115.26 19.20
  Q 115.09 19.50 114.80 19.32
  Q 114.67 19.23 114.67 19.08
  Q 114.69 18.19 114.35 19.01
  Q 114.18 19.43 113.81 19.68
  Q 113.37 19.99 113.52 19.47
  Q 114.19 17.27 115.76 15.80
  Q 117.25 14.40 118.52 12.67
  Q 120.62 9.79 122.25 7.00
  Q 122.52 6.54 123.00 6.29
  Q 124.12 5.72 125.22 5.88
  Q 126.05 6.00 126.73 5.44
  Q 127.40 4.90 127.13 4.19
  A 1.60 1.58 -22.6 0 0 124.99 3.32
  Q 124.10 3.72 122.49 3.50"
/>
<path stroke="#bfbfbf" vector-effect="non-scaling-stroke" d="
  M 122.49 3.50
  C 117.43 0.50 111.08 1.52 105.25 1.47
  Q 60.01 1.02 14.75 1.52
  C 10.61 1.57 6.63 0.29 2.54 1.01
  Q 0.67 1.34 0.99 3.34
  C 1.87 8.76 2.41 13.80 2.39 19.25
  Q 2.24 67.83 2.32 115.59
  Q 2.32 118.49 4.35 121.03
  Q 4.67 121.43 5.17 121.30
  Q 7.18 120.79 7.83 119.75"
/>
<path stroke="#c6c6c6" vector-effect="non-scaling-stroke" d="
  M 122.49 3.50
  Q 122.83 4.96 121.81 6.31
  Q 121.76 6.37 121.68 6.37
  Q 121.54 6.38 121.43 6.27
  Q 121.33 6.17 121.25 6.30
  Q 118.98 10.24 114.80 12.54
  Q 113.57 13.22 112.43 14.23
  Q 111.34 15.20 110.05 15.99
  Q 108.43 16.99 106.31 16.89
  Q 95.85 16.42 86.21 16.69
  Q 85.99 16.70 85.82 16.55
  Q 85.77 16.51 85.72 16.48
  Q 85.44 16.31 85.11 16.31
  C 62.98 16.35 41.21 16.43 19.36 16.12
  Q 16.94 16.09 16.93 18.51
  Q 16.81 63.85 17.23 106.77
  Q 17.24 108.08 16.65 109.28
  Q 15.78 111.06 14.35 112.21
  Q 12.77 113.47 11.50 115.24
  Q 9.86 117.54 7.83 119.75"
/>
<path stroke="#8b8b8b" vector-effect="non-scaling-stroke" d="
  M 121.47 12.26
  Q 119.53 16.34 115.88 18.94
  Q 115.61 19.13 115.52 19.44
  Q 114.84 21.73 115.24 24.16
  C 115.98 28.77 115.73 34.07 115.53 38.66
  Q 115.39 42.10 114.77 45.55
  Q 114.18 48.86 114.11 52.34
  Q 113.92 61.70 113.82 71.00
  C 113.81 72.81 114.34 74.46 114.03 76.31
  Q 113.57 79.01 114.09 81.55
  Q 114.73 84.68 114.58 86.61
  Q 114.28 90.16 114.37 94.23
  Q 114.39 95.01 113.97 95.72
  A 2.06 2.03 -27.1 0 0 113.67 96.63
  Q 113.03 103.20 113.68 110.44
  A 2.16 2.16 0.0 0 1 111.75 112.77
  Q 96.36 114.33 80.40 113.72"
/>
<path stroke="#d5cd75" vector-effect="non-scaling-stroke" d="
  M 37.52 77.11
  L 68.99 77.10"
/>
<path stroke="#6b6b6b" vector-effect="non-scaling-stroke" d="
  M 68.99 77.10
  L 69.00 94.21
  A 0.80 0.80 0.0 0 0 69.80 95.00
  L 76.25 95.00
  Q 77.00 95.00 77.00 94.25
  L 77.00 77.50
  Q 76.99 77.00 77.50 77.00
  L 86.25 77.00
  Q 87.00 77.00 87.00 76.25
  L 86.99 70.75
  A 0.75 0.75 0.0 0 0 86.25 70.00
  L 77.04 69.87"
/>
<path stroke="#d5cd75" vector-effect="non-scaling-stroke" d="
  M 77.04 69.87
  L 76.91 32.30"
/>
<path stroke="#6b6b6b" vector-effect="non-scaling-stroke" d="
  M 76.91 32.30
  L 76.93 30.63
  Q 76.94 30.00 76.31 30.00
  L 70.29 30.00
  A 1.81 1.80 -69.4 0 0 68.93 30.62
  L 37.36 66.64
  A 1.45 1.43 65.0 0 0 36.99 67.68
  L 37.52 77.11"
/>
<path stroke="#958c35" vector-effect="non-scaling-stroke" d="
  M 76.91 32.30
  L 68.84 41.08"
/>
<path stroke="#6b6b6b" vector-effect="non-scaling-stroke" d="
  M 68.84 41.08
  L 43.59 69.83"
/>
<path stroke="#958c35" vector-effect="non-scaling-stroke" d="
  M 43.59 69.83
  L 37.52 77.11"
/>
<path stroke="#958c35" vector-effect="non-scaling-stroke" d="
  M 77.04 69.87
  L 77.05 75.76
  A 1.24 1.24 0.0 0 1 75.83 77.00
  L 68.99 77.10"
/>
<path stroke="#d5cd75" vector-effect="non-scaling-stroke" d="
  M 43.59 69.83
  L 68.58 70.00
  A 0.39 0.39 0.0 0 0 68.98 69.60
  L 68.84 41.08"
/>
<path stroke="#848584" vector-effect="non-scaling-stroke" d="
  M 9.68 122.90
  Q 9.10 123.66 9.48 124.55
  Q 9.79 125.28 9.91 124.49
  Q 10.33 121.88 13.11 120.81
  Q 13.29 120.74 13.42 120.60
  Q 13.63 120.36 13.68 120.07
  Q 13.81 119.40 13.24 119.77
  Q 10.95 121.23 9.68 122.90"
/>
</g>
<path fill="#9e9e9e" d="
  M 0.00 0.00
  L 128.00 0.00
  L 128.00 128.00
  L 0.00 128.00
  L 0.00 0.00
  Z
  M 7.83 119.75
  Q 9.30 119.93 10.52 118.58
  A 0.06 0.06 0.0 0 1 10.62 118.63
  Q 10.59 118.79 10.46 118.89
  Q 8.72 120.09 7.09 121.83
  Q 6.66 122.28 6.64 122.91
  Q 6.58 124.51 6.66 126.00
  Q 6.67 126.20 6.88 126.19
  L 6.88 126.19
  Q 7.09 126.18 7.09 125.98
  Q 7.06 124.97 7.31 123.98
  Q 7.57 122.97 8.29 122.27
  Q 11.17 119.48 14.55 116.76
  Q 14.67 116.66 14.82 116.65
  Q 15.11 116.63 15.32 116.44
  Q 17.51 114.46 20.15 112.30
  Q 20.91 111.68 21.79 112.01
  Q 22.29 112.19 22.82 112.18
  Q 32.78 111.91 42.79 112.39
  C 51.73 112.82 60.81 112.05 69.65 112.96
  Q 75.50 113.56 77.49 113.13
  Q 81.49 112.27 80.40 113.72
  Q 60.30 113.54 40.67 113.62
  Q 40.50 113.63 40.33 113.52
  Q 40.19 113.44 40.25 113.25
  Q 40.31 113.05 40.11 113.05
  L 23.07 112.81
  Q 21.49 112.79 20.16 113.66
  Q 15.58 116.65 11.84 120.23
  Q 11.54 120.52 11.30 120.85
  Q 11.11 121.11 10.84 121.28
  Q 9.07 122.45 9.08 124.62
  Q 9.08 125.31 9.77 125.35
  Q 10.72 125.40 11.59 125.81
  C 13.59 126.75 16.79 126.26 18.87 126.06
  Q 21.23 125.84 23.66 125.77
  C 34.00 125.49 44.62 125.23 55.12 125.30
  Q 82.58 125.48 111.51 125.82
  Q 118.30 125.89 126.15 126.39
  A 0.70 0.70 0.0 0 0 126.89 125.64
  Q 126.63 122.61 126.61 119.86
  Q 126.27 73.01 126.15 25.37
  C 126.14 20.89 126.50 16.56 126.49 12.16
  Q 126.49 10.22 124.85 9.70
  A 1.79 1.78 22.5 0 0 122.72 10.58
  Q 122.21 11.57 121.47 12.26
  Q 119.66 14.67 117.83 16.97
  C 117.00 18.01 115.89 18.09 115.26 19.20
  Q 115.09 19.50 114.80 19.32
  Q 114.67 19.23 114.67 19.08
  Q 114.69 18.19 114.35 19.01
  Q 114.18 19.43 113.81 19.68
  Q 113.37 19.99 113.52 19.47
  Q 114.19 17.27 115.76 15.80
  Q 117.25 14.40 118.52 12.67
  Q 120.62 9.79 122.25 7.00
  Q 122.52 6.54 123.00 6.29
  Q 124.12 5.72 125.22 5.88
  Q 126.05 6.00 126.73 5.44
  Q 127.40 4.90 127.13 4.19
  A 1.60 1.58 -22.6 0 0 124.99 3.32
  Q 124.10 3.72 122.49 3.50
  C 117.43 0.50 111.08 1.52 105.25 1.47
  Q 60.01 1.02 14.75 1.52
  C 10.61 1.57 6.63 0.29 2.54 1.01
  Q 0.67 1.34 0.99 3.34
  C 1.87 8.76 2.41 13.80 2.39 19.25
  Q 2.24 67.83 2.32 115.59
  Q 2.32 118.49 4.35 121.03
  Q 4.67 121.43 5.17 121.30
  Q 7.18 120.79 7.83 119.75
  Z"
/>
<path fill="#e0e0e0" d="
  M 122.49 3.50
  Q 122.83 4.96 121.81 6.31
  Q 121.76 6.37 121.68 6.37
  Q 121.54 6.38 121.43 6.27
  Q 121.33 6.17 121.25 6.30
  Q 118.98 10.24 114.80 12.54
  Q 113.57 13.22 112.43 14.23
  Q 111.34 15.20 110.05 15.99
  Q 108.43 16.99 106.31 16.89
  Q 95.85 16.42 86.21 16.69
  Q 85.99 16.70 85.82 16.55
  Q 85.77 16.51 85.72 16.48
  Q 85.44 16.31 85.11 16.31
  C 62.98 16.35 41.21 16.43 19.36 16.12
  Q 16.94 16.09 16.93 18.51
  Q 16.81 63.85 17.23 106.77
  Q 17.24 108.08 16.65 109.28
  Q 15.78 111.06 14.35 112.21
  Q 12.77 113.47 11.50 115.24
  Q 9.86 117.54 7.83 119.75
  Q 7.18 120.79 5.17 121.30
  Q 4.67 121.43 4.35 121.03
  Q 2.32 118.49 2.32 115.59
  Q 2.24 67.83 2.39 19.25
  C 2.41 13.80 1.87 8.76 0.99 3.34
  Q 0.67 1.34 2.54 1.01
  C 6.63 0.29 10.61 1.57 14.75 1.52
  Q 60.01 1.02 105.25 1.47
  C 111.08 1.52 117.43 0.50 122.49 3.50
  Z"
/>
<path fill="#ababab" d="
  M 121.47 12.26
  Q 119.53 16.34 115.88 18.94
  Q 115.61 19.13 115.52 19.44
  Q 114.84 21.73 115.24 24.16
  C 115.98 28.77 115.73 34.07 115.53 38.66
  Q 115.39 42.10 114.77 45.55
  Q 114.18 48.86 114.11 52.34
  Q 113.92 61.70 113.82 71.00
  C 113.81 72.81 114.34 74.46 114.03 76.31
  Q 113.57 79.01 114.09 81.55
  Q 114.73 84.68 114.58 86.61
  Q 114.28 90.16 114.37 94.23
  Q 114.39 95.01 113.97 95.72
  A 2.06 2.03 -27.1 0 0 113.67 96.63
  Q 113.03 103.20 113.68 110.44
  A 2.16 2.16 0.0 0 1 111.75 112.77
  Q 96.36 114.33 80.40 113.72
  Q 81.49 112.27 77.49 113.13
  Q 75.50 113.56 69.65 112.96
  C 60.81 112.05 51.73 112.82 42.79 112.39
  Q 32.78 111.91 22.82 112.18
  Q 22.29 112.19 21.79 112.01
  Q 20.91 111.68 20.15 112.30
  Q 17.51 114.46 15.32 116.44
  Q 15.11 116.63 14.82 116.65
  Q 14.67 116.66 14.55 116.76
  Q 11.17 119.48 8.29 122.27
  Q 7.57 122.97 7.31 123.98
  Q 7.06 124.97 7.09 125.98
  Q 7.09 126.18 6.88 126.19
  L 6.88 126.19
  Q 6.67 126.20 6.66 126.00
  Q 6.58 124.51 6.64 122.91
  Q 6.66 122.28 7.09 121.83
  Q 8.72 120.09 10.46 118.89
  Q 10.59 118.79 10.62 118.63
  A 0.06 0.06 0.0 0 0 10.52 118.58
  Q 9.30 119.93 7.83 119.75
  Q 9.86 117.54 11.50 115.24
  Q 12.77 113.47 14.35 112.21
  Q 15.78 111.06 16.65 109.28
  Q 17.24 108.08 17.23 106.77
  Q 16.81 63.85 16.93 18.51
  Q 16.94 16.09 19.36 16.12
  C 41.21 16.43 62.98 16.35 85.11 16.31
  Q 85.44 16.31 85.72 16.48
  Q 85.77 16.51 85.82 16.55
  Q 85.99 16.70 86.21 16.69
  Q 95.85 16.42 106.31 16.89
  Q 108.43 16.99 110.05 15.99
  Q 111.34 15.20 112.43 14.23
  Q 113.57 13.22 114.80 12.54
  Q 118.98 10.24 121.25 6.30
  Q 121.33 6.17 121.43 6.27
  Q 121.54 6.38 121.68 6.37
  Q 121.76 6.37 121.81 6.31
  Q 122.83 4.96 122.49 3.50
  Q 124.10 3.72 124.99 3.32
  A 1.60 1.58 -22.6 0 1 127.13 4.19
  Q 127.40 4.90 126.73 5.44
  Q 126.05 6.00 125.22 5.88
  Q 124.12 5.72 123.00 6.29
  Q 122.52 6.54 122.25 7.00
  Q 120.62 9.79 118.52 12.67
  Q 117.25 14.40 115.76 15.80
  Q 114.19 17.27 113.52 19.47
  Q 113.37 19.99 113.81 19.68
  Q 114.18 19.43 114.35 19.01
  Q 114.69 18.19 114.67 19.08
  Q 114.67 19.23 114.80 19.32
  Q 115.09 19.50 115.26 19.20
  C 115.89 18.09 117.00 18.01 117.83 16.97
  Q 119.66 14.67 121.47 12.26
  Z
  M 37.52 77.11
  L 68.99 77.10
  L 69.00 94.21
  A 0.80 0.80 0.0 0 0 69.80 95.00
  L 76.25 95.00
  Q 77.00 95.00 77.00 94.25
  L 77.00 77.50
  Q 76.99 77.00 77.50 77.00
  L 86.25 77.00
  Q 87.00 77.00 87.00 76.25
  L 86.99 70.75
  A 0.75 0.75 0.0 0 0 86.25 70.00
  L 77.04 69.87
  L 76.91 32.30
  L 76.93 30.63
  Q 76.94 30.00 76.31 30.00
  L 70.29 30.00
  A 1.81 1.80 -69.4 0 0 68.93 30.62
  L 37.36 66.64
  A 1.45 1.43 65.0 0 0 36.99 67.68
  L 37.52 77.11
  Z"
/>
<path fill="#6a6b6a" d="
  M 80.40 113.72
  Q 96.36 114.33 111.75 112.77
  A 2.16 2.16 0.0 0 0 113.68 110.44
  Q 113.03 103.20 113.67 96.63
  A 2.06 2.03 -27.1 0 1 113.97 95.72
  Q 114.39 95.01 114.37 94.23
  Q 114.28 90.16 114.58 86.61
  Q 114.73 84.68 114.09 81.55
  Q 113.57 79.01 114.03 76.31
  C 114.34 74.46 113.81 72.81 113.82 71.00
  Q 113.92 61.70 114.11 52.34
  Q 114.18 48.86 114.77 45.55
  Q 115.39 42.10 115.53 38.66
  C 115.73 34.07 115.98 28.77 115.24 24.16
  Q 114.84 21.73 115.52 19.44
  Q 115.61 19.13 115.88 18.94
  Q 119.53 16.34 121.47 12.26
  Q 122.21 11.57 122.72 10.58
  A 1.79 1.78 22.5 0 1 124.85 9.70
  Q 126.49 10.22 126.49 12.16
  C 126.50 16.56 126.14 20.89 126.15 25.37
  Q 126.27 73.01 126.61 119.86
  Q 126.63 122.61 126.89 125.64
  A 0.70 0.70 0.0 0 1 126.15 126.39
  Q 118.30 125.89 111.51 125.82
  Q 82.58 125.48 55.12 125.30
  C 44.62 125.23 34.00 125.49 23.66 125.77
  Q 21.23 125.84 18.87 126.06
  C 16.79 126.26 13.59 126.75 11.59 125.81
  Q 10.72 125.40 9.77 125.35
  Q 9.08 125.31 9.08 124.62
  Q 9.07 122.45 10.84 121.28
  Q 11.11 121.11 11.30 120.85
  Q 11.54 120.52 11.84 120.23
  Q 15.58 116.65 20.16 113.66
  Q 21.49 112.79 23.07 112.81
  L 40.11 113.05
  Q 40.31 113.05 40.25 113.25
  Q 40.19 113.44 40.33 113.52
  Q 40.50 113.63 40.67 113.62
  Q 60.30 113.54 80.40 113.72
  Z
  M 9.68 122.90
  Q 9.10 123.66 9.48 124.55
  Q 9.79 125.28 9.91 124.49
  Q 10.33 121.88 13.11 120.81
  Q 13.29 120.74 13.42 120.60
  Q 13.63 120.36 13.68 120.07
  Q 13.81 119.40 13.24 119.77
  Q 10.95 121.23 9.68 122.90
  Z"
/>
<path fill="#2a2a2a" d="
  M 76.91 32.30
  L 68.84 41.08
  L 43.59 69.83
  L 37.52 77.11
  L 36.99 67.68
  A 1.45 1.43 65.0 0 1 37.36 66.64
  L 68.93 30.62
  A 1.81 1.80 -69.4 0 1 70.29 30.00
  L 76.31 30.00
  Q 76.94 30.00 76.93 30.63
  L 76.91 32.30
  Z"
/>
<path fill="#ffee3f" d="
  M 76.91 32.30
  L 77.04 69.87
  L 77.05 75.76
  A 1.24 1.24 0.0 0 1 75.83 77.00
  L 68.99 77.10
  L 37.52 77.11
  L 43.59 69.83
  L 68.58 70.00
  A 0.39 0.39 0.0 0 0 68.98 69.60
  L 68.84 41.08
  L 76.91 32.30
  Z"
/>
<path fill="#ababab" d="
  M 68.84 41.08
  L 68.98 69.60
  A 0.39 0.39 0.0 0 1 68.58 70.00
  L 43.59 69.83
  L 68.84 41.08
  Z"
/>
<path fill="#2a2a2a" d="
  M 77.04 69.87
  L 86.25 70.00
  A 0.75 0.75 0.0 0 1 86.99 70.75
  L 87.00 76.25
  Q 87.00 77.00 86.25 77.00
  L 77.50 77.00
  Q 76.99 77.00 77.00 77.50
  L 77.00 94.25
  Q 77.00 95.00 76.25 95.00
  L 69.80 95.00
  A 0.80 0.80 0.0 0 1 69.00 94.21
  L 68.99 77.10
  L 75.83 77.00
  A 1.24 1.24 0.0 0 0 77.05 75.76
  L 77.04 69.87
  Z"
/>
<path fill="#9e9e9e" d="
  M 9.68 122.90
  Q 10.95 121.23 13.24 119.77
  Q 13.81 119.40 13.68 120.07
  Q 13.63 120.36 13.42 120.60
  Q 13.29 120.74 13.11 120.81
  Q 10.33 121.88 9.91 124.49
  Q 9.79 125.28 9.48 124.55
  Q 9.10 123.66 9.68 122.90
  Z"
/>
</svg>
