<?xml version="1.0" encoding="UTF-8" standalone="no"?>
<!DOCTYPE svg PUBLIC "-//W3C//DTD SVG 1.1//EN" "http://www.w3.org/Graphics/SVG/1.1/DTD/svg11.dtd">
<svg xmlns="http://www.w3.org/2000/svg" version="1.1" viewBox="0.00 0.00 128.00 128.00">
<g stroke-width="2.00" fill="none" stroke-linecap="butt">
<path stroke="#a5a5a5" vector-effect="non-scaling-stroke" d="
  M 17.37 110.57
  Q 15.57 113.62 12.78 115.12
  A 1.66 1.62 -89.6 0 0 12.08 115.83
  Q 9.95 119.91 5.65 122.01
  Q 5.39 122.14 5.09 122.15
  Q 4.88 122.15 4.74 122.00
  Q 4.14 121.35 4.17 122.24
  Q 4.25 124.49 3.85 126.49
  Q 3.62 127.63 4.78 127.54
  L 6.63 127.38
  A 1.23 1.22 5.0 0 0 7.72 126.47
  Q 8.00 125.43 7.87 124.29
  Q 7.80 123.76 8.07 123.30
  Q 9.25 121.22 10.85 119.97
  C 12.13 118.95 13.15 117.52 14.08 116.18
  Q 14.26 115.90 14.60 115.89
  L 14.93 115.87
  Q 15.34 115.85 15.40 115.45
  Q 15.53 114.64 16.28 114.43
  Q 16.80 114.29 17.10 113.86
  Q 19.74 110.13 24.39 110.97
  Q 26.58 111.37 28.79 111.38
  Q 35.19 111.41 41.93 111.38
  Q 47.99 111.34 55.03 110.94
  Q 61.70 110.56 68.36 111.37
  C 70.95 111.68 73.37 111.65 75.95 111.63
  Q 76.19 111.63 76.19 111.87
  L 76.19 111.88
  Q 76.19 112.10 75.97 112.10
  Q 72.71 112.15 69.65 112.11
  Q 69.59 112.11 69.58 112.17
  Q 69.56 112.24 69.63 112.23
  Q 69.68 112.22 69.73 112.22
  Q 73.53 112.04 77.50 112.35
  Q 83.47 112.82 89.75 112.56
  Q 97.79 112.22 105.48 112.10
  Q 105.55 112.10 108.24 111.88
  Q 109.94 111.74 111.84 112.10"
/>
<path stroke="#848484" vector-effect="non-scaling-stroke" d="
  M 111.84 112.10
  C 110.41 112.87 109.02 112.54 107.82 112.66
  Q 104.85 112.96 101.87 112.90
  Q 101.78 112.90 101.74 112.99
  Q 101.73 113.03 101.69 113.07
  Q 101.53 113.26 101.27 113.27
  Q 86.31 113.96 83.25 113.61
  Q 69.49 112.03 55.94 112.77
  Q 54.13 112.87 52.25 112.85
  Q 50.31 112.82 48.48 112.92
  Q 45.48 113.09 42.87 113.04
  Q 32.56 112.86 22.57 112.59
  A 3.97 3.95 21.8 0 0 19.53 113.88
  Q 16.83 116.85 14.18 119.77
  Q 13.26 120.78 12.12 121.44
  Q 10.78 122.22 10.19 123.70
  A 1.46 1.46 0.0 0 0 10.88 125.53
  C 14.19 127.23 19.50 125.83 23.16 125.80
  Q 55.72 125.47 84.26 125.48
  Q 105.69 125.49 126.27 126.34
  A 0.60 0.60 0.0 0 0 126.90 125.70
  Q 126.65 122.53 126.63 119.67
  Q 126.26 78.70 126.16 27.77
  Q 126.15 20.56 126.53 13.74
  Q 126.61 12.25 126.26 10.81
  Q 126.13 10.31 125.64 10.14
  Q 123.52 9.41 122.57 11.60
  Q 122.38 12.05 122.01 12.38
  Q 121.43 12.91 121.07 13.56
  A 0.17 0.16 69.5 0 1 120.77 13.42
  Q 120.87 13.16 121.09 13.02
  Q 121.18 12.96 121.22 12.85
  Q 121.26 12.71 121.28 12.58
  A 0.10 0.10 0.0 0 0 121.11 12.49
  Q 120.28 13.42 119.66 14.50
  Q 118.95 15.73 118.31 16.31
  Q 117.13 17.39 115.62 18.40"
/>
<path stroke="#a5a5a5" vector-effect="non-scaling-stroke" d="
  M 115.62 18.40
  Q 116.64 17.00 117.68 16.18
  Q 117.72 16.15 117.70 16.11
  Q 117.67 16.06 117.62 16.07
  Q 117.55 16.08 117.50 16.12
  Q 115.48 17.59 114.42 19.56
  Q 114.26 19.85 113.99 19.66
  L 113.76 19.51
  A 0.12 0.11 -53.1 0 1 113.74 19.34
  Q 116.00 16.58 118.49 13.70
  Q 119.34 12.72 119.46 11.07
  A 1.43 1.43 0.0 0 1 120.06 10.01
  Q 121.20 9.20 121.76 7.91
  A 1.31 1.27 -87.9 0 1 122.48 7.22
  Q 124.22 6.53 126.07 5.92
  Q 127.47 5.45 127.09 3.97
  A 0.83 0.83 0.0 0 0 126.29 3.35
  L 123.90 3.37
  Q 123.40 3.37 122.97 3.13
  Q 121.82 2.50 120.52 2.54"
/>
<path stroke="#bfbfbf" vector-effect="non-scaling-stroke" d="
  M 120.52 2.54
  Q 118.76 1.69 117.38 1.62
  C 106.01 1.09 90.47 1.31 81.88 1.25
  Q 47.89 1.01 15.35 1.52
  C 12.44 1.56 9.85 1.20 7.00 0.84
  Q 4.78 0.56 2.37 1.08
  Q 0.69 1.45 0.96 3.15
  C 1.83 8.60 2.37 13.48 2.36 19.29
  Q 2.31 66.99 2.26 114.70
  C 2.26 116.91 2.83 118.77 3.94 120.63
  A 0.94 0.93 68.1 0 0 4.96 121.07
  Q 8.34 120.26 10.14 118.22
  Q 10.39 117.94 10.42 117.57
  Q 10.51 116.50 11.55 115.45
  Q 13.93 113.05 17.37 110.57"
/>
<path stroke="#c6c6c6" vector-effect="non-scaling-stroke" d="
  M 120.52 2.54
  L 121.77 3.57
  Q 122.15 3.88 122.14 4.38
  Q 122.11 5.39 121.31 6.12
  Q 120.95 6.45 120.89 6.94
  Q 120.75 8.20 119.71 8.92
  A 2.28 2.27 -3.1 0 0 119.00 9.71
  Q 118.07 11.38 116.29 11.67
  Q 115.81 11.74 115.41 12.03
  L 109.10 16.60
  Q 108.61 16.95 108.02 16.92
  Q 94.75 16.26 82.60 16.94
  Q 82.25 16.96 81.94 16.82
  Q 81.47 16.60 80.95 16.61
  Q 71.97 16.67 63.14 16.79
  Q 54.22 16.91 45.59 16.67
  Q 33.12 16.33 18.99 16.19
  A 2.12 2.12 0.0 0 0 16.85 18.33
  L 17.37 110.57"
/>
<path stroke="#8b8b8b" vector-effect="non-scaling-stroke" d="
  M 115.62 18.40
  Q 113.86 20.66 114.73 26.00
  Q 115.27 29.33 114.86 44.22
  C 114.84 44.96 114.49 45.44 114.47 46.27
  Q 114.23 55.24 113.94 63.47
  Q 113.69 70.58 114.08 78.28
  C 114.16 79.87 113.54 81.74 113.95 83.20
  Q 114.40 84.80 114.37 86.50
  C 114.27 91.81 113.61 97.30 113.61 102.34
  Q 113.62 106.27 113.62 110.03
  Q 113.62 110.53 113.29 110.91
  Q 112.50 111.83 111.84 112.10"
/>
<path stroke="#848484" vector-effect="non-scaling-stroke" d="
  M 122.65 9.64
  Q 122.22 10.12 122.01 10.67
  Q 121.67 11.59 122.18 10.75
  Q 122.67 9.92 123.54 9.31
  Q 123.95 9.02 124.40 9.17
  Q 124.40 9.17 124.30 9.14
  Q 124.04 9.05 123.78 9.07
  A 1.71 1.70 18.1 0 0 122.65 9.64"
/>
<path stroke="#6b6b6b" vector-effect="non-scaling-stroke" d="
  M 45.63 29.49
  Q 45.49 29.35 45.34 29.35
  Q 45.01 29.34 45.01 29.67
  L 45.08 61.37"
/>
<path stroke="#d5cd75" vector-effect="non-scaling-stroke" d="
  M 45.08 61.37
  Q 44.65 62.01 45.10 62.48
  Q 45.43 62.82 45.88 62.70
  C 54.25 60.46 74.73 58.04 75.94 71.41
  Q 76.41 76.66 74.70 80.49
  Q 73.19 83.88 68.59 86.94"
/>
<path stroke="#6b6b6b" vector-effect="non-scaling-stroke" d="
  M 68.59 86.94
  Q 55.54 90.36 42.24 82.88
  A 0.10 0.10 0.0 0 0 42.09 82.96
  Q 41.87 88.82 42.07 91.86
  Q 42.09 92.16 42.36 92.27
  C 54.15 97.12 74.03 98.99 81.68 85.71
  Q 89.21 72.66 80.49 60.85"
/>
<path stroke="#d5cd75" vector-effect="non-scaling-stroke" d="
  M 80.49 60.85
  Q 75.74 56.09 69.26 54.85
  Q 61.58 53.38 53.13 54.70"
/>
<path stroke="#6b6b6b" vector-effect="non-scaling-stroke" d="
  M 53.13 54.70
  L 53.00 37.07"
/>
<path stroke="#d5cd75" vector-effect="non-scaling-stroke" d="
  M 53.00 37.07
  L 84.17 37.04
  Q 85.00 37.04 85.00 36.21
  L 85.02 29.99
  Q 85.02 29.08 84.11 29.08
  Q 65.58 29.00 46.13 28.95
  Q 45.88 28.95 45.63 29.49"
/>
<path stroke="#958c35" vector-effect="non-scaling-stroke" d="
  M 53.00 37.07
  L 45.63 29.49"
/>
<path stroke="#958c35" vector-effect="non-scaling-stroke" d="
  M 53.13 54.70
  L 45.08 61.37"
/>
<path stroke="#958c35" vector-effect="non-scaling-stroke" d="
  M 80.49 60.85
  Q 83.18 71.99 77.33 81.06
  Q 74.27 85.82 68.59 86.94"
/>
</g>
<path fill="#9e9e9e" d="
  M 0.00 0.00
  L 128.00 0.00
  L 128.00 128.00
  L 0.00 128.00
  L 0.00 0.00
  Z
  M 17.37 110.57
  Q 15.57 113.62 12.78 115.12
  A 1.66 1.62 -89.6 0 0 12.08 115.83
  Q 9.95 119.91 5.65 122.01
  Q 5.39 122.14 5.09 122.15
  Q 4.88 122.15 4.74 122.00
  Q 4.14 121.35 4.17 122.24
  Q 4.25 124.49 3.85 126.49
  Q 3.62 127.63 4.78 127.54
  L 6.63 127.38
  A 1.23 1.22 5.0 0 0 7.72 126.47
  Q 8.00 125.43 7.87 124.29
  Q 7.80 123.76 8.07 123.30
  Q 9.25 121.22 10.85 119.97
  C 12.13 118.95 13.15 117.52 14.08 116.18
  Q 14.26 115.90 14.60 115.89
  L 14.93 115.87
  Q 15.34 115.85 15.40 115.45
  Q 15.53 114.64 16.28 114.43
  Q 16.80 114.29 17.10 113.86
  Q 19.74 110.13 24.39 110.97
  Q 26.58 111.37 28.79 111.38
  Q 35.19 111.41 41.93 111.38
  Q 47.99 111.34 55.03 110.94
  Q 61.70 110.56 68.36 111.37
  C 70.95 111.68 73.37 111.65 75.95 111.63
  Q 76.19 111.63 76.19 111.87
  L 76.19 111.88
  Q 76.19 112.10 75.97 112.10
  Q 72.71 112.15 69.65 112.11
  Q 69.59 112.11 69.58 112.17
  Q 69.56 112.24 69.63 112.23
  Q 69.68 112.22 69.73 112.22
  Q 73.53 112.04 77.50 112.35
  Q 83.47 112.82 89.75 112.56
  Q 97.79 112.22 105.48 112.10
  Q 105.55 112.10 108.24 111.88
  Q 109.94 111.74 111.84 112.10
  C 110.41 112.87 109.02 112.54 107.82 112.66
  Q 104.85 112.96 101.87 112.90
  Q 101.78 112.90 101.74 112.99
  Q 101.73 113.03 101.69 113.07
  Q 101.53 113.26 101.27 113.27
  Q 86.31 113.96 83.25 113.61
  Q 69.49 112.03 55.94 112.77
  Q 54.13 112.87 52.25 112.85
  Q 50.31 112.82 48.48 112.92
  Q 45.48 113.09 42.87 113.04
  Q 32.56 112.86 22.57 112.59
  A 3.97 3.95 21.8 0 0 19.53 113.88
  Q 16.83 116.85 14.18 119.77
  Q 13.26 120.78 12.12 121.44
  Q 10.78 122.22 10.19 123.70
  A 1.46 1.46 0.0 0 0 10.88 125.53
  C 14.19 127.23 19.50 125.83 23.16 125.80
  Q 55.72 125.47 84.26 125.48
  Q 105.69 125.49 126.27 126.34
  A 0.60 0.60 0.0 0 0 126.90 125.70
  Q 126.65 122.53 126.63 119.67
  Q 126.26 78.70 126.16 27.77
  Q 126.15 20.56 126.53 13.74
  Q 126.61 12.25 126.26 10.81
  Q 126.13 10.31 125.64 10.14
  Q 123.52 9.41 122.57 11.60
  Q 122.38 12.05 122.01 12.38
  Q 121.43 12.91 121.07 13.56
  A 0.17 0.16 69.5 0 1 120.77 13.42
  Q 120.87 13.16 121.09 13.02
  Q 121.18 12.96 121.22 12.85
  Q 121.26 12.71 121.28 12.58
  A 0.10 0.10 0.0 0 0 121.11 12.49
  Q 120.28 13.42 119.66 14.50
  Q 118.95 15.73 118.31 16.31
  Q 117.13 17.39 115.62 18.40
  Q 116.64 17.00 117.68 16.18
  Q 117.72 16.15 117.70 16.11
  Q 117.67 16.06 117.62 16.07
  Q 117.55 16.08 117.50 16.12
  Q 115.48 17.59 114.42 19.56
  Q 114.26 19.85 113.99 19.66
  L 113.76 19.51
  A 0.12 0.11 -53.1 0 1 113.74 19.34
  Q 116.00 16.58 118.49 13.70
  Q 119.34 12.72 119.46 11.07
  A 1.43 1.43 0.0 0 1 120.06 10.01
  Q 121.20 9.20 121.76 7.91
  A 1.31 1.27 -87.9 0 1 122.48 7.22
  Q 124.22 6.53 126.07 5.92
  Q 127.47 5.45 127.09 3.97
  A 0.83 0.83 0.0 0 0 126.29 3.35
  L 123.90 3.37
  Q 123.40 3.37 122.97 3.13
  Q 121.82 2.50 120.52 2.54
  Q 118.76 1.69 117.38 1.62
  C 106.01 1.09 90.47 1.31 81.88 1.25
  Q 47.89 1.01 15.35 1.52
  C 12.44 1.56 9.85 1.20 7.00 0.84
  Q 4.78 0.56 2.37 1.08
  Q 0.69 1.45 0.96 3.15
  C 1.83 8.60 2.37 13.48 2.36 19.29
  Q 2.31 66.99 2.26 114.70
  C 2.26 116.91 2.83 118.77 3.94 120.63
  A 0.94 0.93 68.1 0 0 4.96 121.07
  Q 8.34 120.26 10.14 118.22
  Q 10.39 117.94 10.42 117.57
  Q 10.51 116.50 11.55 115.45
  Q 13.93 113.05 17.37 110.57
  Z
  M 122.65 9.64
  Q 122.22 10.12 122.01 10.67
  Q 121.67 11.59 122.18 10.75
  Q 122.67 9.92 123.54 9.31
  Q 123.95 9.02 124.40 9.17
  Q 124.40 9.17 124.30 9.14
  Q 124.04 9.05 123.78 9.07
  A 1.71 1.70 18.1 0 0 122.65 9.64
  Z"
/>
<path fill="#e0e0e0" d="
  M 120.52 2.54
  L 121.77 3.57
  Q 122.15 3.88 122.14 4.38
  Q 122.11 5.39 121.31 6.12
  Q 120.95 6.45 120.89 6.94
  Q 120.75 8.20 119.71 8.92
  A 2.28 2.27 -3.1 0 0 119.00 9.71
  Q 118.07 11.38 116.29 11.67
  Q 115.81 11.74 115.41 12.03
  L 109.10 16.60
  Q 108.61 16.95 108.02 16.92
  Q 94.75 16.26 82.60 16.94
  Q 82.25 16.96 81.94 16.82
  Q 81.47 16.60 80.95 16.61
  Q 71.97 16.67 63.14 16.79
  Q 54.22 16.91 45.59 16.67
  Q 33.12 16.33 18.99 16.19
  A 2.12 2.12 0.0 0 0 16.85 18.33
  L 17.37 110.57
  Q 13.93 113.05 11.55 115.45
  Q 10.51 116.50 10.42 117.57
  Q 10.39 117.94 10.14 118.22
  Q 8.34 120.26 4.96 121.07
  A 0.94 0.93 68.1 0 1 3.94 120.63
  C 2.83 118.77 2.26 116.91 2.26 114.70
  Q 2.31 66.99 2.36 19.29
  C 2.37 13.48 1.83 8.60 0.96 3.15
  Q 0.69 1.45 2.37 1.08
  Q 4.78 0.56 7.00 0.84
  C 9.85 1.20 12.44 1.56 15.35 1.52
  Q 47.89 1.01 81.88 1.25
  C 90.47 1.31 106.01 1.09 117.38 1.62
  Q 118.76 1.69 120.52 2.54
  Z"
/>
<path fill="#ababab" d="
  M 120.52 2.54
  Q 121.82 2.50 122.97 3.13
  Q 123.40 3.37 123.90 3.37
  L 126.29 3.35
  A 0.83 0.83 0.0 0 1 127.09 3.97
  Q 127.47 5.45 126.07 5.92
  Q 124.22 6.53 122.48 7.22
  A 1.31 1.27 -87.9 0 0 121.76 7.91
  Q 121.20 9.20 120.06 10.01
  A 1.43 1.43 0.0 0 0 119.46 11.07
  Q 119.34 12.72 118.49 13.70
  Q 116.00 16.58 113.74 19.34
  A 0.12 0.11 -53.1 0 0 113.76 19.51
  L 113.99 19.66
  Q 114.26 19.85 114.42 19.56
  Q 115.48 17.59 117.50 16.12
  Q 117.55 16.08 117.62 16.07
  Q 117.67 16.06 117.70 16.11
  Q 117.72 16.15 117.68 16.18
  Q 116.64 17.00 115.62 18.40
  Q 113.86 20.66 114.73 26.00
  Q 115.27 29.33 114.86 44.22
  C 114.84 44.96 114.49 45.44 114.47 46.27
  Q 114.23 55.24 113.94 63.47
  Q 113.69 70.58 114.08 78.28
  C 114.16 79.87 113.54 81.74 113.95 83.20
  Q 114.40 84.80 114.37 86.50
  C 114.27 91.81 113.61 97.30 113.61 102.34
  Q 113.62 106.27 113.62 110.03
  Q 113.62 110.53 113.29 110.91
  Q 112.50 111.83 111.84 112.10
  Q 109.94 111.74 108.24 111.88
  Q 105.55 112.10 105.48 112.10
  Q 97.79 112.22 89.75 112.56
  Q 83.47 112.82 77.50 112.35
  Q 73.53 112.04 69.73 112.22
  Q 69.68 112.22 69.63 112.23
  Q 69.56 112.24 69.58 112.17
  Q 69.59 112.11 69.65 112.11
  Q 72.71 112.15 75.97 112.10
  Q 76.19 112.10 76.19 111.88
  L 76.19 111.87
  Q 76.19 111.63 75.95 111.63
  C 73.37 111.65 70.95 111.68 68.36 111.37
  Q 61.70 110.56 55.03 110.94
  Q 47.99 111.34 41.93 111.38
  Q 35.19 111.41 28.79 111.38
  Q 26.58 111.37 24.39 110.97
  Q 19.74 110.13 17.10 113.86
  Q 16.80 114.29 16.28 114.43
  Q 15.53 114.64 15.40 115.45
  Q 15.34 115.85 14.93 115.87
  L 14.60 115.89
  Q 14.26 115.90 14.08 116.18
  C 13.15 117.52 12.13 118.95 10.85 119.97
  Q 9.25 121.22 8.07 123.30
  Q 7.80 123.76 7.87 124.29
  Q 8.00 125.43 7.72 126.47
  A 1.23 1.22 5.0 0 1 6.63 127.38
  L 4.78 127.54
  Q 3.62 127.63 3.85 126.49
  Q 4.25 124.49 4.17 122.24
  Q 4.14 121.35 4.74 122.00
  Q 4.88 122.15 5.09 122.15
  Q 5.39 122.14 5.65 122.01
  Q 9.95 119.91 12.08 115.83
  A 1.66 1.62 -89.6 0 1 12.78 115.12
  Q 15.57 113.62 17.37 110.57
  L 16.85 18.33
  A 2.12 2.12 0.0 0 1 18.99 16.19
  Q 33.12 16.33 45.59 16.67
  Q 54.22 16.91 63.14 16.79
  Q 71.97 16.67 80.95 16.61
  Q 81.47 16.60 81.94 16.82
  Q 82.25 16.96 82.60 16.94
  Q 94.75 16.26 108.02 16.92
  Q 108.61 16.95 109.10 16.60
  L 115.41 12.03
  Q 115.81 11.74 116.29 11.67
  Q 118.07 11.38 119.00 9.71
  A 2.28 2.27 -3.1 0 1 119.71 8.92
  Q 120.75 8.20 120.89 6.94
  Q 120.95 6.45 121.31 6.12
  Q 122.11 5.39 122.14 4.38
  Q 122.15 3.88 121.77 3.57
  L 120.52 2.54
  Z
  M 45.63 29.49
  Q 45.49 29.35 45.34 29.35
  Q 45.01 29.34 45.01 29.67
  L 45.08 61.37
  Q 44.65 62.01 45.10 62.48
  Q 45.43 62.82 45.88 62.70
  C 54.25 60.46 74.73 58.04 75.94 71.41
  Q 76.41 76.66 74.70 80.49
  Q 73.19 83.88 68.59 86.94
  Q 55.54 90.36 42.24 82.88
  A 0.10 0.10 0.0 0 0 42.09 82.96
  Q 41.87 88.82 42.07 91.86
  Q 42.09 92.16 42.36 92.27
  C 54.15 97.12 74.03 98.99 81.68 85.71
  Q 89.21 72.66 80.49 60.85
  Q 75.74 56.09 69.26 54.85
  Q 61.58 53.38 53.13 54.70
  L 53.00 37.07
  L 84.17 37.04
  Q 85.00 37.04 85.00 36.21
  L 85.02 29.99
  Q 85.02 29.08 84.11 29.08
  Q 65.58 29.00 46.13 28.95
  Q 45.88 28.95 45.63 29.49
  Z"
/>
<path fill="#6a6a6a" d="
  M 123.78 9.07
  Q 124.04 9.05 124.30 9.14
  Q 124.40 9.17 124.40 9.17
  Q 123.95 9.02 123.54 9.31
  Q 122.67 9.92 122.18 10.75
  Q 121.67 11.59 122.01 10.67
  Q 122.22 10.12 122.65 9.64
  A 1.71 1.70 18.1 0 1 123.78 9.07
  Z"
/>
<path fill="#6a6a6a" d="
  M 111.84 112.10
  Q 112.50 111.83 113.29 110.91
  Q 113.62 110.53 113.62 110.03
  Q 113.62 106.27 113.61 102.34
  C 113.61 97.30 114.27 91.81 114.37 86.50
  Q 114.40 84.80 113.95 83.20
  C 113.54 81.74 114.16 79.87 114.08 78.28
  Q 113.69 70.58 113.94 63.47
  Q 114.23 55.24 114.47 46.27
  C 114.49 45.44 114.84 44.96 114.86 44.22
  Q 115.27 29.33 114.73 26.00
  Q 113.86 20.66 115.62 18.40
  Q 117.13 17.39 118.31 16.31
  Q 118.95 15.73 119.66 14.50
  Q 120.28 13.42 121.11 12.49
  A 0.10 0.10 0.0 0 1 121.28 12.58
  Q 121.26 12.71 121.22 12.85
  Q 121.18 12.96 121.09 13.02
  Q 120.87 13.16 120.77 13.42
  A 0.17 0.16 69.5 0 0 121.07 13.56
  Q 121.43 12.91 122.01 12.38
  Q 122.38 12.05 122.57 11.60
  Q 123.52 9.41 125.64 10.14
  Q 126.13 10.31 126.26 10.81
  Q 126.61 12.25 126.53 13.74
  Q 126.15 20.56 126.16 27.77
  Q 126.26 78.70 126.63 119.67
  Q 126.65 122.53 126.90 125.70
  A 0.60 0.60 0.0 0 1 126.27 126.34
  Q 105.69 125.49 84.26 125.48
  Q 55.72 125.47 23.16 125.80
  C 19.50 125.83 14.19 127.23 10.88 125.53
  A 1.46 1.46 0.0 0 1 10.19 123.70
  Q 10.78 122.22 12.12 121.44
  Q 13.26 120.78 14.18 119.77
  Q 16.83 116.85 19.53 113.88
  A 3.97 3.95 21.8 0 1 22.57 112.59
  Q 32.56 112.86 42.87 113.04
  Q 45.48 113.09 48.48 112.92
  Q 50.31 112.82 52.25 112.85
  Q 54.13 112.87 55.94 112.77
  Q 69.49 112.03 83.25 113.61
  Q 86.31 113.96 101.27 113.27
  Q 101.53 113.26 101.69 113.07
  Q 101.73 113.03 101.74 112.99
  Q 101.78 112.90 101.87 112.90
  Q 104.85 112.96 107.82 112.66
  C 109.02 112.54 110.41 112.87 111.84 112.10
  Z"
/>
<path fill="#ffee3f" d="
  M 53.00 37.07
  L 45.63 29.49
  Q 45.88 28.95 46.13 28.95
  Q 65.58 29.00 84.11 29.08
  Q 85.02 29.08 85.02 29.99
  L 85.00 36.21
  Q 85.00 37.04 84.17 37.04
  L 53.00 37.07
  Z"
/>
<path fill="#2a2a2a" d="
  M 45.63 29.49
  L 53.00 37.07
  L 53.13 54.70
  L 45.08 61.37
  L 45.01 29.67
  Q 45.01 29.34 45.34 29.35
  Q 45.49 29.35 45.63 29.49
  Z"
/>
<path fill="#ffee3f" d="
  M 80.49 60.85
  Q 83.18 71.99 77.33 81.06
  Q 74.27 85.82 68.59 86.94
  Q 73.19 83.88 74.70 80.49
  Q 76.41 76.66 75.94 71.41
  C 74.73 58.04 54.25 60.46 45.88 62.70
  Q 45.43 62.82 45.10 62.48
  Q 44.65 62.01 45.08 61.37
  L 53.13 54.70
  Q 61.58 53.38 69.26 54.85
  Q 75.74 56.09 80.49 60.85
  Z"
/>
<path fill="#2a2a2a" d="
  M 80.49 60.85
  Q 89.21 72.66 81.68 85.71
  C 74.03 98.99 54.15 97.12 42.36 92.27
  Q 42.09 92.16 42.07 91.86
  Q 41.87 88.82 42.09 82.96
  A 0.10 0.10 0.0 0 1 42.24 82.88
  Q 55.54 90.36 68.59 86.94
  Q 74.27 85.82 77.33 81.06
  Q 83.18 71.99 80.49 60.85
  Z"
/>
</svg>
