<?xml version="1.0" encoding="UTF-8" standalone="no"?>
<!DOCTYPE svg PUBLIC "-//W3C//DTD SVG 1.1//EN" "http://www.w3.org/Graphics/SVG/1.1/DTD/svg11.dtd">
<svg xmlns="http://www.w3.org/2000/svg" version="1.1" viewBox="0.00 0.00 128.00 128.00">
<g stroke-width="2.00" fill="none" stroke-linecap="butt">
<path stroke="#a5a5a5" vector-effect="non-scaling-stroke" d="
  M 4.40 121.26
  Q 6.02 121.99 8.07 120.14
  Q 10.62 117.85 11.31 116.68
  Q 11.39 116.55 11.39 116.70
  Q 11.39 116.76 11.38 116.81
  Q 11.38 116.93 11.31 117.03
  Q 9.76 119.36 7.19 121.26
  Q 6.03 122.11 4.68 121.73
  Q 4.10 121.57 4.16 122.17
  Q 4.35 124.25 3.83 126.32
  Q 3.66 126.99 4.30 127.26
  Q 6.68 128.27 7.89 126.31
  Q 8.16 125.87 8.01 125.37
  Q 7.77 124.55 7.88 123.71
  Q 7.95 123.18 8.35 122.83
  Q 11.29 120.15 13.34 116.98
  Q 13.40 116.90 13.49 116.89
  L 14.10 116.87
  A 0.55 0.52 16.4 0 0 14.51 116.66
  Q 17.06 113.26 19.51 111.92
  Q 21.49 110.83 24.01 111.08
  Q 27.40 111.42 27.52 111.42
  Q 46.06 111.66 64.60 111.35
  C 67.15 111.31 69.59 111.71 72.16 111.62
  Q 75.09 111.52 77.85 111.97
  Q 82.07 112.66 86.07 112.75
  Q 95.15 112.95 103.02 112.29
  Q 106.78 111.97 110.25 112.25
  Q 111.30 112.34 113.24 110.75"
/>
<path stroke="#848484" vector-effect="non-scaling-stroke" d="
  M 113.24 110.75
  Q 113.19 111.26 112.75 111.80
  A 1.32 1.29 15.6 0 1 111.93 112.25
  Q 94.34 114.38 77.02 113.26
  Q 76.60 113.23 76.26 112.97
  Q 76.07 112.81 75.82 112.81
  Q 60.03 112.90 44.12 113.08
  Q 41.55 113.12 38.51 112.94
  C 34.78 112.72 31.07 112.96 27.22 112.67
  Q 24.16 112.43 21.04 112.88
  Q 20.56 112.95 20.22 113.29
  L 14.52 118.94
  Q 14.18 119.27 13.72 119.38
  Q 12.25 119.73 11.74 121.10
  Q 11.56 121.60 11.12 121.91
  Q 9.29 123.16 10.15 124.87
  A 1.51 1.49 -0.4 0 0 10.84 125.54
  Q 12.70 126.43 14.75 126.32
  C 18.08 126.13 21.39 125.79 24.73 125.75
  C 57.50 125.36 92.57 124.96 126.27 126.34
  A 0.60 0.60 0.0 0 0 126.90 125.70
  Q 126.68 122.34 126.65 119.29
  Q 126.24 73.80 126.09 30.19
  Q 126.06 20.67 126.55 12.75
  Q 126.70 10.34 124.87 9.70
  A 1.91 1.78 -67.7 0 0 122.60 10.75
  Q 122.51 10.95 122.31 10.87
  Q 122.30 10.87 122.30 10.86
  L 122.29 10.86
  Q 122.13 10.77 122.23 10.62
  Q 122.89 9.54 124.00 9.16
  Q 124.87 8.86 123.95 8.84
  Q 122.70 8.83 122.04 10.02
  Q 120.80 12.25 119.77 14.32
  Q 118.78 16.29 115.65 18.49
  C 114.76 19.12 113.81 20.38 113.90 21.49
  Q 114.64 30.15 114.31 39.16
  Q 114.29 39.69 114.06 40.17
  Q 113.52 41.29 114.07 42.38
  Q 114.30 42.82 114.29 43.32
  L 113.92 66.56"
/>
<path stroke="#a5a5a5" vector-effect="non-scaling-stroke" d="
  M 113.92 66.56
  Q 113.96 56.88 113.41 50.37
  C 113.32 49.26 112.56 48.26 112.47 47.14
  Q 111.58 35.27 112.27 32.13
  Q 113.11 28.32 112.22 24.11
  Q 111.67 21.47 113.15 19.15
  A 2.61 2.61 0.0 0 0 113.55 17.95
  Q 113.70 15.87 115.50 14.84
  C 116.55 14.23 117.35 13.35 117.91 12.29
  Q 118.11 11.92 118.52 11.83
  Q 119.29 11.65 119.78 10.98
  Q 120.71 9.71 121.40 8.33
  A 1.88 1.84 87.8 0 1 122.05 7.61
  Q 123.93 6.41 125.90 6.14
  Q 126.99 5.98 127.18 4.90
  Q 127.35 3.92 126.18 3.35
  A 1.61 1.56 -33.4 0 0 125.44 3.21
  L 122.46 3.41"
/>
<path stroke="#bfbfbf" vector-effect="non-scaling-stroke" d="
  M 122.46 3.41
  Q 119.16 1.62 116.75 1.53
  Q 107.43 1.20 90.75 1.28
  C 65.42 1.41 40.09 1.23 14.76 1.54
  C 10.65 1.59 6.85 0.36 2.71 0.97
  Q 0.62 1.28 0.99 3.49
  C 2.04 9.66 2.42 14.85 2.39 21.52
  C 2.26 45.00 2.54 68.51 2.27 92.01
  Q 2.07 109.48 2.29 116.25
  Q 2.35 118.30 4.40 121.26"
/>
<path stroke="#c6c6c6" vector-effect="non-scaling-stroke" d="
  M 122.46 3.41
  Q 122.69 3.74 122.67 4.38
  Q 122.63 5.34 122.58 4.38
  Q 122.57 3.99 122.34 3.65
  Q 121.94 3.08 121.90 3.77
  Q 121.80 5.44 119.73 7.42
  Q 118.51 8.59 117.18 9.03
  Q 115.81 9.49 115.00 10.54
  Q 113.58 12.39 112.02 14.27
  Q 110.22 16.43 107.74 16.37
  Q 98.44 16.13 89.45 16.38
  C 81.42 16.60 73.23 16.07 65.29 16.17
  Q 41.81 16.45 18.93 16.12
  A 1.84 1.83 -84.7 0 0 17.09 17.66
  C 16.62 20.57 16.91 23.52 16.91 26.47
  Q 16.92 68.07 17.18 106.36
  Q 17.20 107.94 16.71 108.98
  Q 15.89 110.71 14.02 111.46
  C 11.90 112.30 10.56 115.19 9.79 117.24
  C 8.92 119.56 6.69 120.64 4.40 121.26"
/>
<path stroke="#8b8b8b" vector-effect="non-scaling-stroke" d="
  M 113.92 66.56
  Q 113.90 78.60 114.16 82.00
  Q 114.59 87.81 114.26 93.60
  Q 113.81 101.48 113.79 101.93
  Q 113.67 106.09 113.57 110.25
  Q 113.56 110.71 113.24 110.75"
/>
<path stroke="#6b6b6b" vector-effect="non-scaling-stroke" d="
  M 40.61 72.92
  Q 41.14 80.70 45.07 86.68
  C 52.22 97.57 68.72 98.89 78.39 90.53
  C 89.83 80.64 88.79 58.60 72.22 54.02
  C 65.68 52.22 58.72 52.89 52.48 55.96
  Q 50.92 56.73 49.07 57.31"
/>
<path stroke="#d5cd75" vector-effect="non-scaling-stroke" d="
  M 49.07 57.31
  Q 49.52 52.11 51.95 47.50
  C 57.33 37.29 69.15 34.76 79.39 38.67
  Q 80.00 38.91 80.00 38.26
  L 80.01 30.74
  Q 80.01 30.04 79.32 29.90
  C 62.67 26.71 46.94 33.73 42.16 50.72
  Q 39.07 61.71 40.61 72.92"
/>
<path stroke="#958c35" vector-effect="non-scaling-stroke" d="
  M 49.07 57.31
  L 49.16 63.55"
/>
<path stroke="#d5cd75" vector-effect="non-scaling-stroke" d="
  M 49.16 63.55
  Q 48.58 70.33 49.50 76.00
  Q 50.29 80.79 53.85 85.24"
/>
<path stroke="#958c35" vector-effect="non-scaling-stroke" d="
  M 53.85 85.24
  C 51.61 84.33 43.41 80.01 42.49 77.27
  Q 41.76 75.10 40.61 72.92"
/>
<path stroke="#6b6b6b" vector-effect="non-scaling-stroke" d="
  M 53.85 85.24
  Q 58.46 89.31 64.41 89.03
  C 74.64 88.55 78.04 79.71 76.87 70.82
  C 75.06 56.98 58.22 58.40 49.16 63.55"
/>
</g>
<path fill="#9e9e9e" d="
  M 0.00 0.00
  L 128.00 0.00
  L 128.00 128.00
  L 0.00 128.00
  L 0.00 0.00
  Z
  M 4.40 121.26
  Q 6.02 121.99 8.07 120.14
  Q 10.62 117.85 11.31 116.68
  Q 11.39 116.55 11.39 116.70
  Q 11.39 116.76 11.38 116.81
  Q 11.38 116.93 11.31 117.03
  Q 9.76 119.36 7.19 121.26
  Q 6.03 122.11 4.68 121.73
  Q 4.10 121.57 4.16 122.17
  Q 4.35 124.25 3.83 126.32
  Q 3.66 126.99 4.30 127.26
  Q 6.68 128.27 7.89 126.31
  Q 8.16 125.87 8.01 125.37
  Q 7.77 124.55 7.88 123.71
  Q 7.95 123.18 8.35 122.83
  Q 11.29 120.15 13.34 116.98
  Q 13.40 116.90 13.49 116.89
  L 14.10 116.87
  A 0.55 0.52 16.4 0 0 14.51 116.66
  Q 17.06 113.26 19.51 111.92
  Q 21.49 110.83 24.01 111.08
  Q 27.40 111.42 27.52 111.42
  Q 46.06 111.66 64.60 111.35
  C 67.15 111.31 69.59 111.71 72.16 111.62
  Q 75.09 111.52 77.85 111.97
  Q 82.07 112.66 86.07 112.75
  Q 95.15 112.95 103.02 112.29
  Q 106.78 111.97 110.25 112.25
  Q 111.30 112.34 113.24 110.75
  Q 113.19 111.26 112.75 111.80
  A 1.32 1.29 15.6 0 1 111.93 112.25
  Q 94.34 114.38 77.02 113.26
  Q 76.60 113.23 76.26 112.97
  Q 76.07 112.81 75.82 112.81
  Q 60.03 112.90 44.12 113.08
  Q 41.55 113.12 38.51 112.94
  C 34.78 112.72 31.07 112.96 27.22 112.67
  Q 24.16 112.43 21.04 112.88
  Q 20.56 112.95 20.22 113.29
  L 14.52 118.94
  Q 14.18 119.27 13.72 119.38
  Q 12.25 119.73 11.74 121.10
  Q 11.56 121.60 11.12 121.91
  Q 9.29 123.16 10.15 124.87
  A 1.51 1.49 -0.4 0 0 10.84 125.54
  Q 12.70 126.43 14.75 126.32
  C 18.08 126.13 21.39 125.79 24.73 125.75
  C 57.50 125.36 92.57 124.96 126.27 126.34
  A 0.60 0.60 0.0 0 0 126.90 125.70
  Q 126.68 122.34 126.65 119.29
  Q 126.24 73.80 126.09 30.19
  Q 126.06 20.67 126.55 12.75
  Q 126.70 10.34 124.87 9.70
  A 1.91 1.78 -67.7 0 0 122.60 10.75
  Q 122.51 10.95 122.31 10.87
  Q 122.30 10.87 122.30 10.86
  L 122.29 10.86
  Q 122.13 10.77 122.23 10.62
  Q 122.89 9.54 124.00 9.16
  Q 124.87 8.86 123.95 8.84
  Q 122.70 8.83 122.04 10.02
  Q 120.80 12.25 119.77 14.32
  Q 118.78 16.29 115.65 18.49
  C 114.76 19.12 113.81 20.38 113.90 21.49
  Q 114.64 30.15 114.31 39.16
  Q 114.29 39.69 114.06 40.17
  Q 113.52 41.29 114.07 42.38
  Q 114.30 42.82 114.29 43.32
  L 113.92 66.56
  Q 113.96 56.88 113.41 50.37
  C 113.32 49.26 112.56 48.26 112.47 47.14
  Q 111.58 35.27 112.27 32.13
  Q 113.11 28.32 112.22 24.11
  Q 111.67 21.47 113.15 19.15
  A 2.61 2.61 0.0 0 0 113.55 17.95
  Q 113.70 15.87 115.50 14.84
  C 116.55 14.23 117.35 13.35 117.91 12.29
  Q 118.11 11.92 118.52 11.83
  Q 119.29 11.65 119.78 10.98
  Q 120.71 9.71 121.40 8.33
  A 1.88 1.84 87.8 0 1 122.05 7.61
  Q 123.93 6.41 125.90 6.14
  Q 126.99 5.98 127.18 4.90
  Q 127.35 3.92 126.18 3.35
  A 1.61 1.56 -33.4 0 0 125.44 3.21
  L 122.46 3.41
  Q 119.16 1.62 116.75 1.53
  Q 107.43 1.20 90.75 1.28
  C 65.42 1.41 40.09 1.23 14.76 1.54
  C 10.65 1.59 6.85 0.36 2.71 0.97
  Q 0.62 1.28 0.99 3.49
  C 2.04 9.66 2.42 14.85 2.39 21.52
  C 2.26 45.00 2.54 68.51 2.27 92.01
  Q 2.07 109.48 2.29 116.25
  Q 2.35 118.30 4.40 121.26
  Z"
/>
<path fill="#e0e0e0" d="
  M 122.46 3.41
  Q 122.69 3.74 122.67 4.38
  Q 122.63 5.34 122.58 4.38
  Q 122.57 3.99 122.34 3.65
  Q 121.94 3.08 121.90 3.77
  Q 121.80 5.44 119.73 7.42
  Q 118.51 8.59 117.18 9.03
  Q 115.81 9.49 115.00 10.54
  Q 113.58 12.39 112.02 14.27
  Q 110.22 16.43 107.74 16.37
  Q 98.44 16.13 89.45 16.38
  C 81.42 16.60 73.23 16.07 65.29 16.17
  Q 41.81 16.45 18.93 16.12
  A 1.84 1.83 -84.7 0 0 17.09 17.66
  C 16.62 20.57 16.91 23.52 16.91 26.47
  Q 16.92 68.07 17.18 106.36
  Q 17.20 107.94 16.71 108.98
  Q 15.89 110.71 14.02 111.46
  C 11.90 112.30 10.56 115.19 9.79 117.24
  C 8.92 119.56 6.69 120.64 4.40 121.26
  Q 2.35 118.30 2.29 116.25
  Q 2.07 109.48 2.27 92.01
  C 2.54 68.51 2.26 45.00 2.39 21.52
  C 2.42 14.85 2.04 9.66 0.99 3.49
  Q 0.62 1.28 2.71 0.97
  C 6.85 0.36 10.65 1.59 14.76 1.54
  C 40.09 1.23 65.42 1.41 90.75 1.28
  Q 107.43 1.20 116.75 1.53
  Q 119.16 1.62 122.46 3.41
  Z"
/>
<path fill="#ababab" d="
  M 113.92 66.56
  Q 113.90 78.60 114.16 82.00
  Q 114.59 87.81 114.26 93.60
  Q 113.81 101.48 113.79 101.93
  Q 113.67 106.09 113.57 110.25
  Q 113.56 110.71 113.24 110.75
  Q 111.30 112.34 110.25 112.25
  Q 106.78 111.97 103.02 112.29
  Q 95.15 112.95 86.07 112.75
  Q 82.07 112.66 77.85 111.97
  Q 75.09 111.52 72.16 111.62
  C 69.59 111.71 67.15 111.31 64.60 111.35
  Q 46.06 111.66 27.52 111.42
  Q 27.40 111.42 24.01 111.08
  Q 21.49 110.83 19.51 111.92
  Q 17.06 113.26 14.51 116.66
  A 0.55 0.52 16.4 0 1 14.10 116.87
  L 13.49 116.89
  Q 13.40 116.90 13.34 116.98
  Q 11.29 120.15 8.35 122.83
  Q 7.95 123.18 7.88 123.71
  Q 7.77 124.55 8.01 125.37
  Q 8.16 125.87 7.89 126.31
  Q 6.68 128.27 4.30 127.26
  Q 3.66 126.99 3.83 126.32
  Q 4.35 124.25 4.16 122.17
  Q 4.10 121.57 4.68 121.73
  Q 6.03 122.11 7.19 121.26
  Q 9.76 119.36 11.31 117.03
  Q 11.38 116.93 11.38 116.81
  Q 11.39 116.76 11.39 116.70
  Q 11.39 116.55 11.31 116.68
  Q 10.62 117.85 8.07 120.14
  Q 6.02 121.99 4.40 121.26
  C 6.69 120.64 8.92 119.56 9.79 117.24
  C 10.56 115.19 11.90 112.30 14.02 111.46
  Q 15.89 110.71 16.71 108.98
  Q 17.20 107.94 17.18 106.36
  Q 16.92 68.07 16.91 26.47
  C 16.91 23.52 16.62 20.57 17.09 17.66
  A 1.84 1.83 -84.7 0 1 18.93 16.12
  Q 41.81 16.45 65.29 16.17
  C 73.23 16.07 81.42 16.60 89.45 16.38
  Q 98.44 16.13 107.74 16.37
  Q 110.22 16.43 112.02 14.27
  Q 113.58 12.39 115.00 10.54
  Q 115.81 9.49 117.18 9.03
  Q 118.51 8.59 119.73 7.42
  Q 121.80 5.44 121.90 3.77
  Q 121.94 3.08 122.34 3.65
  Q 122.57 3.99 122.58 4.38
  Q 122.63 5.34 122.67 4.38
  Q 122.69 3.74 122.46 3.41
  L 125.44 3.21
  A 1.61 1.56 -33.4 0 1 126.18 3.35
  Q 127.35 3.92 127.18 4.90
  Q 126.99 5.98 125.90 6.14
  Q 123.93 6.41 122.05 7.61
  A 1.88 1.84 87.8 0 0 121.40 8.33
  Q 120.71 9.71 119.78 10.98
  Q 119.29 11.65 118.52 11.83
  Q 118.11 11.92 117.91 12.29
  C 117.35 13.35 116.55 14.23 115.50 14.84
  Q 113.70 15.87 113.55 17.95
  A 2.61 2.61 0.0 0 1 113.15 19.15
  Q 111.67 21.47 112.22 24.11
  Q 113.11 28.32 112.27 32.13
  Q 111.58 35.27 112.47 47.14
  C 112.56 48.26 113.32 49.26 113.41 50.37
  Q 113.96 56.88 113.92 66.56
  Z
  M 40.61 72.92
  Q 41.14 80.70 45.07 86.68
  C 52.22 97.57 68.72 98.89 78.39 90.53
  C 89.83 80.64 88.79 58.60 72.22 54.02
  C 65.68 52.22 58.72 52.89 52.48 55.96
  Q 50.92 56.73 49.07 57.31
  Q 49.52 52.11 51.95 47.50
  C 57.33 37.29 69.15 34.76 79.39 38.67
  Q 80.00 38.91 80.00 38.26
  L 80.01 30.74
  Q 80.01 30.04 79.32 29.90
  C 62.67 26.71 46.94 33.73 42.16 50.72
  Q 39.07 61.71 40.61 72.92
  Z"
/>
<path fill="#6a6a6a" d="
  M 113.24 110.75
  Q 113.56 110.71 113.57 110.25
  Q 113.67 106.09 113.79 101.93
  Q 113.81 101.48 114.26 93.60
  Q 114.59 87.81 114.16 82.00
  Q 113.90 78.60 113.92 66.56
  L 114.29 43.32
  Q 114.30 42.82 114.07 42.38
  Q 113.52 41.29 114.06 40.17
  Q 114.29 39.69 114.31 39.16
  Q 114.64 30.15 113.90 21.49
  C 113.81 20.38 114.76 19.12 115.65 18.49
  Q 118.78 16.29 119.77 14.32
  Q 120.80 12.25 122.04 10.02
  Q 122.70 8.83 123.95 8.84
  Q 124.87 8.86 124.00 9.16
  Q 122.89 9.54 122.23 10.62
  Q 122.13 10.77 122.29 10.86
  L 122.30 10.86
  Q 122.30 10.87 122.31 10.87
  Q 122.51 10.95 122.60 10.75
  A 1.91 1.78 -67.7 0 1 124.87 9.70
  Q 126.70 10.34 126.55 12.75
  Q 126.06 20.67 126.09 30.19
  Q 126.24 73.80 126.65 119.29
  Q 126.68 122.34 126.90 125.70
  A 0.60 0.60 0.0 0 1 126.27 126.34
  C 92.57 124.96 57.50 125.36 24.73 125.75
  C 21.39 125.79 18.08 126.13 14.75 126.32
  Q 12.70 126.43 10.84 125.54
  A 1.51 1.49 -0.4 0 1 10.15 124.87
  Q 9.29 123.16 11.12 121.91
  Q 11.56 121.60 11.74 121.10
  Q 12.25 119.73 13.72 119.38
  Q 14.18 119.27 14.52 118.94
  L 20.22 113.29
  Q 20.56 112.95 21.04 112.88
  Q 24.16 112.43 27.22 112.67
  C 31.07 112.96 34.78 112.72 38.51 112.94
  Q 41.55 113.12 44.12 113.08
  Q 60.03 112.90 75.82 112.81
  Q 76.07 112.81 76.26 112.97
  Q 76.60 113.23 77.02 113.26
  Q 94.34 114.38 111.93 112.25
  A 1.32 1.29 15.6 0 0 112.75 111.80
  Q 113.19 111.26 113.24 110.75
  Z"
/>
<path fill="#ffee3f" d="
  M 49.07 57.31
  L 49.16 63.55
  Q 48.58 70.33 49.50 76.00
  Q 50.29 80.79 53.85 85.24
  C 51.61 84.33 43.41 80.01 42.49 77.27
  Q 41.76 75.10 40.61 72.92
  Q 39.07 61.71 42.16 50.72
  C 46.94 33.73 62.67 26.71 79.32 29.90
  Q 80.01 30.04 80.01 30.74
  L 80.00 38.26
  Q 80.00 38.91 79.39 38.67
  C 69.15 34.76 57.33 37.29 51.95 47.50
  Q 49.52 52.11 49.07 57.31
  Z"
/>
<path fill="#2a2a2a" d="
  M 40.61 72.92
  Q 41.76 75.10 42.49 77.27
  C 43.41 80.01 51.61 84.33 53.85 85.24
  Q 58.46 89.31 64.41 89.03
  C 74.64 88.55 78.04 79.71 76.87 70.82
  C 75.06 56.98 58.22 58.40 49.16 63.55
  L 49.07 57.31
  Q 50.92 56.73 52.48 55.96
  C 58.72 52.89 65.68 52.22 72.22 54.02
  C 88.79 58.60 89.83 80.64 78.39 90.53
  C 68.72 98.89 52.22 97.57 45.07 86.68
  Q 41.14 80.70 40.61 72.92
  Z"
/>
<path fill="#ababab" d="
  M 53.85 85.24
  Q 50.29 80.79 49.50 76.00
  Q 48.58 70.33 49.16 63.55
  C 58.22 58.40 75.06 56.98 76.87 70.82
  C 78.04 79.71 74.64 88.55 64.41 89.03
  Q 58.46 89.31 53.85 85.24
  Z"
/>
</svg>
