<?xml version="1.0" encoding="UTF-8" standalone="no"?>
<!DOCTYPE svg PUBLIC "-//W3C//DTD SVG 1.1//EN" "http://www.w3.org/Graphics/SVG/1.1/DTD/svg11.dtd">
<svg xmlns="http://www.w3.org/2000/svg" version="1.1" viewBox="0.00 0.00 128.00 128.00">
<g stroke-width="2.00" fill="none" stroke-linecap="butt">
<path stroke="#bfbfbf" vector-effect="non-scaling-stroke" d="
  M 34.48 1.12
  Q 24.80 1.50 15.00 1.54
  C 10.80 1.56 7.01 0.42 2.83 0.95
  Q 0.57 1.23 0.99 3.52
  Q 2.24 10.29 2.25 17.25
  Q 2.28 61.44 2.26 116.00
  Q 2.26 117.70 4.07 120.92"
/>
<path stroke="#a5a5a5" vector-effect="non-scaling-stroke" d="
  M 4.07 120.92
  Q 3.97 121.28 4.63 121.53
  Q 5.04 121.69 5.46 121.56
  C 6.48 121.27 7.38 121.17 8.16 120.36
  Q 9.34 119.14 10.68 118.05
  Q 10.84 117.92 10.97 118.08
  L 10.98 118.08
  Q 11.01 118.13 10.98 118.17
  Q 9.14 120.33 6.89 121.96
  A 1.28 1.27 71.8 0 0 6.38 122.98
  L 6.38 126.26
  Q 6.38 126.55 6.67 126.56
  L 6.98 126.56
  A 0.09 0.09 0.0 0 0 7.08 126.47
  L 7.14 123.82
  A 1.10 1.09 65.9 0 1 7.39 123.15
  L 9.12 120.97
  Q 9.37 120.65 9.72 120.42
  Q 11.32 119.38 12.95 117.06
  Q 13.95 115.64 17.55 112.75
  Q 19.64 111.06 22.04 110.97
  C 24.80 110.87 27.30 111.60 30.00 111.61
  Q 36.61 111.65 43.30 112.08
  Q 44.47 112.15 45.64 112.45
  Q 47.42 112.90 48.00 112.89
  Q 55.68 112.63 63.33 113.19"
/>
<path stroke="#848584" vector-effect="non-scaling-stroke" d="
  M 63.33 113.19
  Q 51.80 113.70 40.37 113.64
  Q 40.37 113.66 40.37 113.64
  Q 40.37 113.62 40.38 113.62
  Q 64.25 113.82 89.18 113.62
  C 94.01 113.58 99.57 113.21 104.83 113.59
  A 0.01 0.01 0.0 0 1 104.83 113.61
  C 98.58 113.70 92.14 114.22 86.06 114.10
  Q 68.56 113.74 49.40 114.05
  C 40.22 114.19 31.04 112.89 21.87 113.33
  Q 21.37 113.36 20.94 113.63
  Q 19.40 114.62 18.35 116.11
  Q 16.18 119.19 11.53 121.92
  C 9.64 123.03 9.72 125.53 12.05 126.03
  Q 13.51 126.34 14.90 126.26
  C 27.23 125.51 40.91 125.25 53.66 125.39
  Q 80.85 125.69 108.68 125.71
  Q 116.77 125.71 125.99 126.40
  A 0.83 0.83 0.0 0 0 126.88 125.49
  Q 126.58 122.43 126.56 119.49
  Q 126.32 75.50 126.17 26.47
  C 126.15 21.77 126.52 17.16 126.52 12.49
  Q 126.53 10.45 125.15 9.67
  A 1.57 1.56 -54.7 0 0 123.20 10.01
  Q 121.77 11.68 120.89 13.43
  C 119.92 15.37 117.34 17.68 115.48 18.77
  Q 114.30 19.47 114.15 20.87
  Q 113.87 23.41 114.12 26.27
  C 114.57 31.57 114.38 36.86 114.35 42.21
  Q 114.35 42.44 114.11 42.44
  L 114.10 42.44
  Q 113.87 42.43 113.88 42.20
  Q 114.20 34.42 113.46 26.67"
/>
<path stroke="#a5a5a5" vector-effect="non-scaling-stroke" d="
  M 113.46 26.67
  Q 111.95 22.41 114.08 18.10
  Q 114.60 17.04 115.39 16.32
  Q 116.26 15.53 117.10 14.70
  Q 118.25 13.56 119.17 12.06
  Q 120.66 9.62 122.33 7.38
  Q 122.61 7.01 123.05 6.87
  L 126.38 5.86
  A 1.27 1.26 52.5 0 0 126.68 3.58
  Q 125.65 2.93 124.44 3.29
  Q 123.89 3.46 123.32 3.31
  L 120.49 2.53"
/>
<path stroke="#bfbfbf" vector-effect="non-scaling-stroke" d="
  M 120.49 2.53
  Q 118.45 1.56 116.50 1.54
  Q 105.97 1.41 95.58 1.17
  Q 94.35 1.14 92.42 1.29
  Q 90.83 1.41 89.25 1.39
  Q 74.52 1.19 59.79 1.19"
/>
<path stroke="#a5a5a5" vector-effect="non-scaling-stroke" d="
  M 59.79 1.19
  Q 47.10 0.35 34.48 1.12"
/>
<path stroke="#c6c6c6" vector-effect="non-scaling-stroke" d="
  M 59.79 1.19
  L 34.48 1.12"
/>
<path stroke="#c6c6c6" vector-effect="non-scaling-stroke" d="
  M 120.49 2.53
  Q 121.66 3.16 121.87 4.15
  Q 121.98 4.66 121.58 5.00
  Q 119.26 6.99 116.82 9.01
  C 115.68 9.95 114.79 10.18 113.96 11.51
  C 112.50 13.88 110.38 16.33 107.31 16.21
  Q 96.45 15.77 86.75 16.55
  C 81.17 17.00 75.85 16.64 70.39 16.83
  Q 63.86 17.06 58.09 16.96
  Q 38.75 16.62 19.44 16.11
  Q 16.94 16.05 16.93 18.55
  Q 16.83 59.45 17.01 94.50
  Q 17.04 101.30 17.24 108.56
  A 0.25 0.25 0.0 0 1 17.11 108.78
  Q 16.76 108.94 16.74 108.80
  Q 16.68 108.44 16.53 108.77
  Q 15.71 110.58 13.54 111.34
  A 1.52 1.52 0.0 0 0 12.72 112.03
  Q 10.19 116.55 7.01 119.84
  Q 6.91 119.94 7.05 119.96
  Q 7.14 119.97 7.21 119.91
  Q 7.85 119.31 8.49 118.61
  Q 9.11 117.93 8.78 118.79
  Q 8.52 119.46 7.91 119.83
  Q 5.80 121.13 4.07 120.92"
/>
<path stroke="#8b8b8b" vector-effect="non-scaling-stroke" d="
  M 113.46 26.67
  Q 113.31 27.56 113.46 28.58
  Q 113.60 29.55 113.59 30.46
  Q 113.50 39.11 113.94 47.34
  Q 114.36 55.12 113.94 61.58
  C 113.78 64.04 114.65 65.86 114.08 68.45
  C 113.53 70.90 114.52 72.87 114.24 75.27
  Q 113.85 78.66 113.88 82.50
  Q 113.88 82.78 114.02 83.02
  Q 114.25 83.45 114.24 83.93
  L 113.76 110.93
  A 2.06 2.06 0.0 0 1 111.71 112.95
  L 63.33 113.19"
/>
<path stroke="#6b6b6b" vector-effect="non-scaling-stroke" d="
  M 78.79 38.12
  L 47.25 94.77
  A 0.14 0.13 15.0 0 0 47.37 94.97
  L 55.72 95.01
  A 0.53 0.52 14.5 0 0 56.18 94.74
  Q 70.97 67.39 85.07 41.54
  C 86.69 38.58 85.97 33.94 86.01 30.57
  Q 86.02 30.11 85.56 30.12
  L 85.18 30.12"
/>
<path stroke="#d5cd75" vector-effect="non-scaling-stroke" d="
  M 85.18 30.12
  Q 84.57 29.73 84.25 29.99
  Q 62.88 30.00 42.01 29.99
  A 1.02 1.01 -0.0 0 0 40.99 31.00
  L 40.93 36.99
  Q 40.92 38.03 41.96 38.03
  L 78.79 38.12"
/>
<path stroke="#958c35" vector-effect="non-scaling-stroke" d="
  M 85.18 30.12
  L 78.79 38.12"
/>
</g>
<path fill="#9e9e9e" d="
  M 0.00 0.00
  L 128.00 0.00
  L 128.00 128.00
  L 0.00 128.00
  L 0.00 0.00
  Z
  M 34.48 1.12
  Q 24.80 1.50 15.00 1.54
  C 10.80 1.56 7.01 0.42 2.83 0.95
  Q 0.57 1.23 0.99 3.52
  Q 2.24 10.29 2.25 17.25
  Q 2.28 61.44 2.26 116.00
  Q 2.26 117.70 4.07 120.92
  Q 3.97 121.28 4.63 121.53
  Q 5.04 121.69 5.46 121.56
  C 6.48 121.27 7.38 121.17 8.16 120.36
  Q 9.34 119.14 10.68 118.05
  Q 10.84 117.92 10.97 118.08
  L 10.98 118.08
  Q 11.01 118.13 10.98 118.17
  Q 9.14 120.33 6.89 121.96
  A 1.28 1.27 71.8 0 0 6.38 122.98
  L 6.38 126.26
  Q 6.38 126.55 6.67 126.56
  L 6.98 126.56
  A 0.09 0.09 0.0 0 0 7.08 126.47
  L 7.14 123.82
  A 1.10 1.09 65.9 0 1 7.39 123.15
  L 9.12 120.97
  Q 9.37 120.65 9.72 120.42
  Q 11.32 119.38 12.95 117.06
  Q 13.95 115.64 17.55 112.75
  Q 19.64 111.06 22.04 110.97
  C 24.80 110.87 27.30 111.60 30.00 111.61
  Q 36.61 111.65 43.30 112.08
  Q 44.47 112.15 45.64 112.45
  Q 47.42 112.90 48.00 112.89
  Q 55.68 112.63 63.33 113.19
  Q 51.80 113.70 40.37 113.64
  Q 40.37 113.66 40.37 113.64
  Q 40.37 113.62 40.38 113.62
  Q 64.25 113.82 89.18 113.62
  C 94.01 113.58 99.57 113.21 104.83 113.59
  A 0.01 0.01 0.0 0 1 104.83 113.61
  C 98.58 113.70 92.14 114.22 86.06 114.10
  Q 68.56 113.74 49.40 114.05
  C 40.22 114.19 31.04 112.89 21.87 113.33
  Q 21.37 113.36 20.94 113.63
  Q 19.40 114.62 18.35 116.11
  Q 16.18 119.19 11.53 121.92
  C 9.64 123.03 9.72 125.53 12.05 126.03
  Q 13.51 126.34 14.90 126.26
  C 27.23 125.51 40.91 125.25 53.66 125.39
  Q 80.85 125.69 108.68 125.71
  Q 116.77 125.71 125.99 126.40
  A 0.83 0.83 0.0 0 0 126.88 125.49
  Q 126.58 122.43 126.56 119.49
  Q 126.32 75.50 126.17 26.47
  C 126.15 21.77 126.52 17.16 126.52 12.49
  Q 126.53 10.45 125.15 9.67
  A 1.57 1.56 -54.7 0 0 123.20 10.01
  Q 121.77 11.68 120.89 13.43
  C 119.92 15.37 117.34 17.68 115.48 18.77
  Q 114.30 19.47 114.15 20.87
  Q 113.87 23.41 114.12 26.27
  C 114.57 31.57 114.38 36.86 114.35 42.21
  Q 114.35 42.44 114.11 42.44
  L 114.10 42.44
  Q 113.87 42.43 113.88 42.20
  Q 114.20 34.42 113.46 26.67
  Q 111.95 22.41 114.08 18.10
  Q 114.60 17.04 115.39 16.32
  Q 116.26 15.53 117.10 14.70
  Q 118.25 13.56 119.17 12.06
  Q 120.66 9.62 122.33 7.38
  Q 122.61 7.01 123.05 6.87
  L 126.38 5.86
  A 1.27 1.26 52.5 0 0 126.68 3.58
  Q 125.65 2.93 124.44 3.29
  Q 123.89 3.46 123.32 3.31
  L 120.49 2.53
  Q 118.45 1.56 116.50 1.54
  Q 105.97 1.41 95.58 1.17
  Q 94.35 1.14 92.42 1.29
  Q 90.83 1.41 89.25 1.39
  Q 74.52 1.19 59.79 1.19
  Q 47.10 0.35 34.48 1.12
  Z"
/>
<path fill="#ababab" d="
  M 59.79 1.19
  L 34.48 1.12
  Q 47.10 0.35 59.79 1.19
  Z"
/>
<path fill="#e0e0e0" d="
  M 34.48 1.12
  L 59.79 1.19
  Q 74.52 1.19 89.25 1.39
  Q 90.83 1.41 92.42 1.29
  Q 94.35 1.14 95.58 1.17
  Q 105.97 1.41 116.50 1.54
  Q 118.45 1.56 120.49 2.53
  Q 121.66 3.16 121.87 4.15
  Q 121.98 4.66 121.58 5.00
  Q 119.26 6.99 116.82 9.01
  C 115.68 9.95 114.79 10.18 113.96 11.51
  C 112.50 13.88 110.38 16.33 107.31 16.21
  Q 96.45 15.77 86.75 16.55
  C 81.17 17.00 75.85 16.64 70.39 16.83
  Q 63.86 17.06 58.09 16.96
  Q 38.75 16.62 19.44 16.11
  Q 16.94 16.05 16.93 18.55
  Q 16.83 59.45 17.01 94.50
  Q 17.04 101.30 17.24 108.56
  A 0.25 0.25 0.0 0 1 17.11 108.78
  Q 16.76 108.94 16.74 108.80
  Q 16.68 108.44 16.53 108.77
  Q 15.71 110.58 13.54 111.34
  A 1.52 1.52 0.0 0 0 12.72 112.03
  Q 10.19 116.55 7.01 119.84
  Q 6.91 119.94 7.05 119.96
  Q 7.14 119.97 7.21 119.91
  Q 7.85 119.31 8.49 118.61
  Q 9.11 117.93 8.78 118.79
  Q 8.52 119.46 7.91 119.83
  Q 5.80 121.13 4.07 120.92
  Q 2.26 117.70 2.26 116.00
  Q 2.28 61.44 2.25 17.25
  Q 2.24 10.29 0.99 3.52
  Q 0.57 1.23 2.83 0.95
  C 7.01 0.42 10.80 1.56 15.00 1.54
  Q 24.80 1.50 34.48 1.12
  Z"
/>
<path fill="#ababab" d="
  M 120.49 2.53
  L 123.32 3.31
  Q 123.89 3.46 124.44 3.29
  Q 125.65 2.93 126.68 3.58
  A 1.27 1.26 52.5 0 1 126.38 5.86
  L 123.05 6.87
  Q 122.61 7.01 122.33 7.38
  Q 120.66 9.62 119.17 12.06
  Q 118.25 13.56 117.10 14.70
  Q 116.26 15.53 115.39 16.32
  Q 114.60 17.04 114.08 18.10
  Q 111.95 22.41 113.46 26.67
  Q 113.31 27.56 113.46 28.58
  Q 113.60 29.55 113.59 30.46
  Q 113.50 39.11 113.94 47.34
  Q 114.36 55.12 113.94 61.58
  C 113.78 64.04 114.65 65.86 114.08 68.45
  C 113.53 70.90 114.52 72.87 114.24 75.27
  Q 113.85 78.66 113.88 82.50
  Q 113.88 82.78 114.02 83.02
  Q 114.25 83.45 114.24 83.93
  L 113.76 110.93
  A 2.06 2.06 0.0 0 1 111.71 112.95
  L 63.33 113.19
  Q 55.68 112.63 48.00 112.89
  Q 47.42 112.90 45.64 112.45
  Q 44.47 112.15 43.30 112.08
  Q 36.61 111.65 30.00 111.61
  C 27.30 111.60 24.80 110.87 22.04 110.97
  Q 19.64 111.06 17.55 112.75
  Q 13.95 115.64 12.95 117.06
  Q 11.32 119.38 9.72 120.42
  Q 9.37 120.65 9.12 120.97
  L 7.39 123.15
  A 1.10 1.09 65.9 0 0 7.14 123.82
  L 7.08 126.47
  A 0.09 0.09 0.0 0 1 6.98 126.56
  L 6.67 126.56
  Q 6.38 126.55 6.38 126.26
  L 6.38 122.98
  A 1.28 1.27 71.8 0 1 6.89 121.96
  Q 9.14 120.33 10.98 118.17
  Q 11.01 118.13 10.98 118.08
  L 10.97 118.08
  Q 10.84 117.92 10.68 118.05
  Q 9.34 119.14 8.16 120.36
  C 7.38 121.17 6.48 121.27 5.46 121.56
  Q 5.04 121.69 4.63 121.53
  Q 3.97 121.28 4.07 120.92
  Q 5.80 121.13 7.91 119.83
  Q 8.52 119.46 8.78 118.79
  Q 9.11 117.93 8.49 118.61
  Q 7.85 119.31 7.21 119.91
  Q 7.14 119.97 7.05 119.96
  Q 6.91 119.94 7.01 119.84
  Q 10.19 116.55 12.72 112.03
  A 1.52 1.52 0.0 0 1 13.54 111.34
  Q 15.71 110.58 16.53 108.77
  Q 16.68 108.44 16.74 108.80
  Q 16.76 108.94 17.11 108.78
  A 0.25 0.25 0.0 0 0 17.24 108.56
  Q 17.04 101.30 17.01 94.50
  Q 16.83 59.45 16.93 18.55
  Q 16.94 16.05 19.44 16.11
  Q 38.75 16.62 58.09 16.96
  Q 63.86 17.06 70.39 16.83
  C 75.85 16.64 81.17 17.00 86.75 16.55
  Q 96.45 15.77 107.31 16.21
  C 110.38 16.33 112.50 13.88 113.96 11.51
  C 114.79 10.18 115.68 9.95 116.82 9.01
  Q 119.26 6.99 121.58 5.00
  Q 121.98 4.66 121.87 4.15
  Q 121.66 3.16 120.49 2.53
  Z
  M 78.79 38.12
  L 47.25 94.77
  A 0.14 0.13 15.0 0 0 47.37 94.97
  L 55.72 95.01
  A 0.53 0.52 14.5 0 0 56.18 94.74
  Q 70.97 67.39 85.07 41.54
  C 86.69 38.58 85.97 33.94 86.01 30.57
  Q 86.02 30.11 85.56 30.12
  L 85.18 30.12
  Q 84.57 29.73 84.25 29.99
  Q 62.88 30.00 42.01 29.99
  A 1.02 1.01 -0.0 0 0 40.99 31.00
  L 40.93 36.99
  Q 40.92 38.03 41.96 38.03
  L 78.79 38.12
  Z"
/>
<path fill="#6a6b6a" d="
  M 63.33 113.19
  L 111.71 112.95
  A 2.06 2.06 0.0 0 0 113.76 110.93
  L 114.24 83.93
  Q 114.25 83.45 114.02 83.02
  Q 113.88 82.78 113.88 82.50
  Q 113.85 78.66 114.24 75.27
  C 114.52 72.87 113.53 70.90 114.08 68.45
  C 114.65 65.86 113.78 64.04 113.94 61.58
  Q 114.36 55.12 113.94 47.34
  Q 113.50 39.11 113.59 30.46
  Q 113.60 29.55 113.46 28.58
  Q 113.31 27.56 113.46 26.67
  Q 114.20 34.42 113.88 42.20
  Q 113.87 42.43 114.10 42.44
  L 114.11 42.44
  Q 114.35 42.44 114.35 42.21
  C 114.38 36.86 114.57 31.57 114.12 26.27
  Q 113.87 23.41 114.15 20.87
  Q 114.30 19.47 115.48 18.77
  C 117.34 17.68 119.92 15.37 120.89 13.43
  Q 121.77 11.68 123.20 10.01
  A 1.57 1.56 -54.7 0 1 125.15 9.67
  Q 126.53 10.45 126.52 12.49
  C 126.52 17.16 126.15 21.77 126.17 26.47
  Q 126.32 75.50 126.56 119.49
  Q 126.58 122.43 126.88 125.49
  A 0.83 0.83 0.0 0 1 125.99 126.40
  Q 116.77 125.71 108.68 125.71
  Q 80.85 125.69 53.66 125.39
  C 40.91 125.25 27.23 125.51 14.90 126.26
  Q 13.51 126.34 12.05 126.03
  C 9.72 125.53 9.64 123.03 11.53 121.92
  Q 16.18 119.19 18.35 116.11
  Q 19.40 114.62 20.94 113.63
  Q 21.37 113.36 21.87 113.33
  C 31.04 112.89 40.22 114.19 49.40 114.05
  Q 68.56 113.74 86.06 114.10
  C 92.14 114.22 98.58 113.70 104.83 113.61
  A 0.01 0.01 0.0 0 0 104.83 113.59
  C 99.57 113.21 94.01 113.58 89.18 113.62
  Q 64.25 113.82 40.38 113.62
  Q 40.37 113.62 40.37 113.64
  Q 40.37 113.66 40.37 113.64
  Q 51.80 113.70 63.33 113.19
  Z"
/>
<path fill="#ffee3f" d="
  M 85.18 30.12
  L 78.79 38.12
  L 41.96 38.03
  Q 40.92 38.03 40.93 36.99
  L 40.99 31.00
  A 1.02 1.01 0.0 0 1 42.01 29.99
  Q 62.88 30.00 84.25 29.99
  Q 84.57 29.73 85.18 30.12
  Z"
/>
<path fill="#2a2a2a" d="
  M 78.79 38.12
  L 85.18 30.12
  L 85.56 30.12
  Q 86.02 30.11 86.01 30.57
  C 85.97 33.94 86.69 38.58 85.07 41.54
  Q 70.97 67.39 56.18 94.74
  A 0.53 0.52 14.5 0 1 55.72 95.01
  L 47.37 94.97
  A 0.14 0.13 15.0 0 1 47.25 94.77
  L 78.79 38.12
  Z"
/>
</svg>
