<?xml version="1.0" encoding="UTF-8" standalone="no"?>
<!DOCTYPE svg PUBLIC "-//W3C//DTD SVG 1.1//EN" "http://www.w3.org/Graphics/SVG/1.1/DTD/svg11.dtd">
<svg xmlns="http://www.w3.org/2000/svg" version="1.1" viewBox="0.00 0.00 128.00 128.00">
<g stroke-width="2.00" fill="none" stroke-linecap="butt">
<path stroke="#a5a5a5" vector-effect="non-scaling-stroke" d="
  M 3.89 120.85
  Q 4.79 122.61 3.95 126.09
  Q 3.56 127.72 5.23 127.52
  L 6.33 127.39
  Q 8.16 127.17 7.90 125.35
  Q 7.54 122.93 8.98 121.64
  Q 12.05 118.92 14.65 116.16
  Q 16.54 114.16 18.97 112.27
  Q 20.65 110.96 22.81 111.06
  Q 25.11 111.17 27.24 111.45
  Q 27.82 111.53 27.29 111.77
  Q 26.89 111.96 26.41 111.90
  Q 26.35 111.89 26.36 111.83
  Q 26.38 111.77 26.37 111.88
  Q 26.37 111.94 26.44 111.94
  Q 31.56 111.77 37.50 112.03
  Q 44.11 112.32 51.48 111.88
  Q 61.06 111.30 70.36 111.87
  Q 70.76 111.90 71.14 111.83
  Q 71.54 111.76 71.81 112.03
  Q 72.16 112.37 72.65 112.37
  Q 79.50 112.48 85.26 113.11
  Q 87.67 113.38 89.87 113.05
  Q 92.34 112.68 94.66 112.70
  Q 97.23 112.72 99.86 112.68
  Q 102.14 112.65 105.08 112.33
  Q 108.22 111.99 111.26 112.26
  Q 112.21 112.34 113.47 110.92"
/>
<path stroke="#848484" vector-effect="non-scaling-stroke" d="
  M 113.47 110.92
  Q 113.42 111.47 113.06 112.00
  Q 112.78 112.42 112.27 112.46
  Q 105.20 113.02 98.12 113.06
  Q 95.38 113.08 89.90 113.48
  Q 86.28 113.75 81.66 113.52
  Q 81.62 113.51 81.58 113.54
  Q 81.53 113.58 81.60 113.60
  Q 81.62 113.60 81.66 113.60
  Q 86.21 113.86 90.74 114.02
  Q 90.82 114.28 90.49 114.30
  Q 85.27 114.53 80.46 114.11
  Q 73.80 113.52 70.50 113.56
  Q 46.03 113.82 24.50 113.20
  C 22.37 113.14 19.78 113.55 18.57 115.61
  Q 17.07 118.15 14.50 119.98
  Q 14.25 120.16 13.95 120.11
  Q 13.34 120.01 12.96 120.49
  Q 12.35 121.26 11.53 121.77
  Q 10.33 122.51 10.16 123.91
  C 9.91 125.94 12.96 126.41 14.27 126.32
  Q 28.41 125.33 39.78 125.74
  Q 42.96 125.85 45.07 125.69
  Q 46.70 125.56 48.32 125.55
  Q 78.90 125.32 109.27 125.74
  Q 117.48 125.86 126.08 126.41
  A 0.77 0.77 0.0 0 0 126.89 125.60
  Q 126.67 122.18 126.64 119.17
  Q 126.22 74.25 126.14 24.90
  C 126.13 20.80 126.43 16.82 126.54 12.64
  Q 126.56 11.47 126.06 10.54
  Q 125.30 9.14 124.15 9.28
  A 2.19 2.18 -81.1 0 0 122.44 10.53
  Q 120.76 14.11 118.15 16.90
  Q 117.98 17.08 117.80 16.91
  L 117.80 16.90
  Q 117.62 16.73 117.79 16.56
  Q 118.92 15.40 119.87 14.33
  Q 119.90 14.29 119.89 14.25
  Q 119.88 14.20 119.90 14.16
  Q 120.05 13.84 119.81 14.10
  Q 117.12 16.99 114.28 19.71"
/>
<path stroke="#a5a5a5" vector-effect="non-scaling-stroke" d="
  M 114.28 19.71
  Q 114.21 19.54 114.17 19.46
  A 0.09 0.08 51.7 0 0 114.03 19.44
  L 113.04 20.51
  Q 112.77 20.80 112.70 20.41
  Q 112.67 20.19 112.81 20.02
  Q 113.00 19.79 113.13 19.53
  Q 114.72 16.41 117.21 14.44
  Q 117.61 14.11 117.83 13.64
  Q 118.28 12.63 119.04 11.86
  C 120.50 10.36 121.43 6.85 123.92 6.91
  A 4.41 3.59 -59.1 0 0 126.48 5.98
  Q 127.01 5.55 127.13 4.90
  Q 127.35 3.59 125.95 3.25
  Q 125.14 3.05 124.37 3.44
  Q 123.85 3.71 123.30 3.52
  L 120.70 2.58"
/>
<path stroke="#bfbfbf" vector-effect="non-scaling-stroke" d="
  M 120.70 2.58
  Q 118.23 1.58 117.38 1.57
  C 82.94 1.06 48.55 1.12 14.44 1.53
  C 10.41 1.58 6.61 0.30 2.54 1.02
  Q 0.67 1.34 0.99 3.32
  C 1.86 8.69 2.36 13.64 2.37 19.35
  Q 2.44 67.34 2.22 116.00
  Q 2.21 117.15 3.89 120.85"
/>
<path stroke="#c6c6c6" vector-effect="non-scaling-stroke" d="
  M 120.70 2.58
  Q 123.98 4.78 119.78 8.88
  Q 119.41 9.25 119.68 8.80
  Q 119.75 8.69 119.87 8.64
  Q 120.25 8.47 120.26 8.06
  Q 120.28 7.45 119.86 7.90
  Q 118.84 8.98 117.80 9.96
  Q 115.63 12.02 112.96 13.20
  Q 112.50 13.40 112.22 13.83
  C 110.10 17.12 107.22 15.89 104.07 15.87
  C 97.51 15.82 90.44 15.44 83.98 16.20
  Q 82.10 16.43 80.00 16.42
  C 59.82 16.34 40.54 16.50 19.02 16.08
  A 1.99 1.98 -83.6 0 0 17.03 17.68
  C 16.44 20.68 16.99 23.81 16.98 26.87
  Q 16.94 65.62 17.11 106.46
  C 17.12 108.76 15.73 110.84 13.75 111.99
  A 0.07 0.06 -35.9 0 0 13.73 112.08
  L 13.88 112.29
  Q 13.99 112.44 14.13 112.32
  Q 15.21 111.51 16.03 110.39
  Q 16.53 109.71 16.27 110.51
  Q 16.01 111.36 15.26 111.80
  Q 12.26 113.58 10.50 116.47
  Q 7.79 120.92 3.89 120.85"
/>
<path stroke="#8b8b8b" vector-effect="non-scaling-stroke" d="
  M 114.28 19.71
  Q 113.96 19.85 114.00 20.44"
/>
<path stroke="#a5a5a5" vector-effect="non-scaling-stroke" d="
  M 114.00 20.44
  Q 113.14 21.18 113.48 22.47
  Q 113.89 24.02 114.18 25.74"
/>
<path stroke="#8b8b8b" vector-effect="non-scaling-stroke" d="
  M 114.18 25.74
  Q 114.19 34.54 114.28 43.39
  C 114.32 47.54 113.85 51.71 113.93 55.82
  Q 113.97 57.98 113.76 60.14
  Q 113.57 62.15 113.63 64.42
  Q 113.72 67.69 113.63 71.02
  C 113.59 72.51 114.31 73.53 114.28 75.04
  Q 114.22 78.51 114.07 81.88
  Q 114.04 82.56 114.39 83.15
  Q 114.69 83.67 114.66 84.30
  C 114.48 87.87 114.56 91.31 114.19 94.89
  Q 113.41 102.42 113.85 110.01
  Q 113.87 110.34 113.47 110.92"
/>
<path stroke="#848484" vector-effect="non-scaling-stroke" d="
  M 90.74 114.02
  Q 99.63 113.67 108.50 113.43
  Q 110.40 113.37 111.43 112.99
  Q 112.20 112.70 111.38 112.72
  C 108.95 112.77 106.34 113.17 103.95 113.16
  Q 96.91 113.13 92.00 113.50
  Q 91.17 113.56 90.74 114.02"
/>
<path stroke="#848484" vector-effect="non-scaling-stroke" d="
  M 114.18 25.74
  L 114.00 20.44"
/>
<path stroke="#6b6b6b" vector-effect="non-scaling-stroke" d="
  M 52.29 60.37
  Q 44.26 62.77 40.93 69.50
  C 36.89 77.66 39.93 87.58 47.61 92.16
  Q 55.16 96.65 64.84 95.84"
/>
<path stroke="#d5cd75" vector-effect="non-scaling-stroke" d="
  M 64.84 95.84
  Q 73.86 95.24 79.87 89.87
  C 89.47 81.30 87.43 67.07 75.47 61.91"
/>
<path stroke="#8b8b8b" vector-effect="non-scaling-stroke" d="
  M 75.47 61.91
  Q 74.85 61.00 73.51 60.99"
/>
<path stroke="#6b6b6b" vector-effect="non-scaling-stroke" d="
  M 73.51 60.99
  Q 72.93 60.43 73.61 60.10
  C 81.86 56.12 87.00 46.52 82.01 38.21
  C 77.68 31.01 69.38 28.94 61.36 29.04"
/>
<path stroke="#d5cd75" vector-effect="non-scaling-stroke" d="
  M 61.36 29.04
  Q 57.56 29.42 53.78 30.54
  C 46.62 32.66 41.23 38.22 41.12 46.02
  Q 41.03 53.38 48.33 57.91
  Q 50.46 59.24 52.29 60.37"
/>
<path stroke="#958c35" vector-effect="non-scaling-stroke" d="
  M 61.36 29.04
  Q 60.49 31.71 61.88 35.02"
/>
<path stroke="#d5cd75" vector-effect="non-scaling-stroke" d="
  M 61.88 35.02
  Q 55.26 34.95 51.79 39.06
  C 49.20 42.13 49.30 47.82 52.30 50.88
  Q 54.66 53.29 57.30 54.46
  Q 62.62 56.83 67.87 58.59"
/>
<path stroke="#958c35" vector-effect="non-scaling-stroke" d="
  M 67.87 58.59
  Q 70.35 60.53 73.04 61.33"
/>
<path stroke="#b5ac55" vector-effect="non-scaling-stroke" d="
  M 73.04 61.33
  Q 74.20 61.88 75.47 61.91"
/>
<path stroke="#958c35" vector-effect="non-scaling-stroke" d="
  M 64.84 95.84
  Q 65.31 92.33 63.82 89.09"
/>
<path stroke="#d5cd75" vector-effect="non-scaling-stroke" d="
  M 63.82 89.09
  Q 76.06 88.21 76.97 78.18
  C 77.46 72.71 75.10 69.38 70.27 67.18
  Q 62.28 63.55 55.78 62.14"
/>
<path stroke="#958c35" vector-effect="non-scaling-stroke" d="
  M 55.78 62.14
  L 52.29 60.37"
/>
<path stroke="#6b6b6b" vector-effect="non-scaling-stroke" d="
  M 55.78 62.14
  Q 56.06 62.76 55.86 62.88
  C 44.99 69.12 44.85 84.34 57.79 88.39
  Q 59.14 88.81 60.78 88.91
  Q 62.37 89.00 63.82 89.09"
/>
<path stroke="#4a4a4a" vector-effect="non-scaling-stroke" d="
  M 73.51 60.99
  Q 73.31 61.20 73.04 61.33"
/>
<path stroke="#6b6b6b" vector-effect="non-scaling-stroke" d="
  M 67.87 58.59
  Q 69.43 57.35 71.02 55.99
  Q 76.31 51.49 76.06 45.14
  C 75.75 37.32 68.53 34.72 61.88 35.02"
/>
<path stroke="#c6c6c6" vector-effect="non-scaling-stroke" d="
  M 17.33 102.01
  Q 17.34 104.67 17.63 107.71
  Q 17.66 108.00 17.40 108.11
  Q 17.25 108.18 17.29 108.33
  Q 17.47 108.98 17.51 108.31
  Q 17.70 105.20 17.29 101.91
  Q 17.27 101.75 17.32 101.90
  Q 17.33 101.95 17.33 102.01"
/>
</g>
<path fill="#9e9e9e" d="
  M 0.00 0.00
  L 128.00 0.00
  L 128.00 128.00
  L 0.00 128.00
  L 0.00 0.00
  Z
  M 3.89 120.85
  Q 4.79 122.61 3.95 126.09
  Q 3.56 127.72 5.23 127.52
  L 6.33 127.39
  Q 8.16 127.17 7.90 125.35
  Q 7.54 122.93 8.98 121.64
  Q 12.05 118.92 14.65 116.16
  Q 16.54 114.16 18.97 112.27
  Q 20.65 110.96 22.81 111.06
  Q 25.11 111.17 27.24 111.45
  Q 27.82 111.53 27.29 111.77
  Q 26.89 111.96 26.41 111.90
  Q 26.35 111.89 26.36 111.83
  Q 26.38 111.77 26.37 111.88
  Q 26.37 111.94 26.44 111.94
  Q 31.56 111.77 37.50 112.03
  Q 44.11 112.32 51.48 111.88
  Q 61.06 111.30 70.36 111.87
  Q 70.76 111.90 71.14 111.83
  Q 71.54 111.76 71.81 112.03
  Q 72.16 112.37 72.65 112.37
  Q 79.50 112.48 85.26 113.11
  Q 87.67 113.38 89.87 113.05
  Q 92.34 112.68 94.66 112.70
  Q 97.23 112.72 99.86 112.68
  Q 102.14 112.65 105.08 112.33
  Q 108.22 111.99 111.26 112.26
  Q 112.21 112.34 113.47 110.92
  Q 113.42 111.47 113.06 112.00
  Q 112.78 112.42 112.27 112.46
  Q 105.20 113.02 98.12 113.06
  Q 95.38 113.08 89.90 113.48
  Q 86.28 113.75 81.66 113.52
  Q 81.62 113.51 81.58 113.54
  Q 81.53 113.58 81.60 113.60
  Q 81.62 113.60 81.66 113.60
  Q 86.21 113.86 90.74 114.02
  Q 90.82 114.28 90.49 114.30
  Q 85.27 114.53 80.46 114.11
  Q 73.80 113.52 70.50 113.56
  Q 46.03 113.82 24.50 113.20
  C 22.37 113.14 19.78 113.55 18.57 115.61
  Q 17.07 118.15 14.50 119.98
  Q 14.25 120.16 13.95 120.11
  Q 13.34 120.01 12.96 120.49
  Q 12.35 121.26 11.53 121.77
  Q 10.33 122.51 10.16 123.91
  C 9.91 125.94 12.96 126.41 14.27 126.32
  Q 28.41 125.33 39.78 125.74
  Q 42.96 125.85 45.07 125.69
  Q 46.70 125.56 48.32 125.55
  Q 78.90 125.32 109.27 125.74
  Q 117.48 125.86 126.08 126.41
  A 0.77 0.77 0.0 0 0 126.89 125.60
  Q 126.67 122.18 126.64 119.17
  Q 126.22 74.25 126.14 24.90
  C 126.13 20.80 126.43 16.82 126.54 12.64
  Q 126.56 11.47 126.06 10.54
  Q 125.30 9.14 124.15 9.28
  A 2.19 2.18 -81.1 0 0 122.44 10.53
  Q 120.76 14.11 118.15 16.90
  Q 117.98 17.08 117.80 16.91
  L 117.80 16.90
  Q 117.62 16.73 117.79 16.56
  Q 118.92 15.40 119.87 14.33
  Q 119.90 14.29 119.89 14.25
  Q 119.88 14.20 119.90 14.16
  Q 120.05 13.84 119.81 14.10
  Q 117.12 16.99 114.28 19.71
  Q 114.21 19.54 114.17 19.46
  A 0.09 0.08 51.7 0 0 114.03 19.44
  L 113.04 20.51
  Q 112.77 20.80 112.70 20.41
  Q 112.67 20.19 112.81 20.02
  Q 113.00 19.79 113.13 19.53
  Q 114.72 16.41 117.21 14.44
  Q 117.61 14.11 117.83 13.64
  Q 118.28 12.63 119.04 11.86
  C 120.50 10.36 121.43 6.85 123.92 6.91
  A 4.41 3.59 -59.1 0 0 126.48 5.98
  Q 127.01 5.55 127.13 4.90
  Q 127.35 3.59 125.95 3.25
  Q 125.14 3.05 124.37 3.44
  Q 123.85 3.71 123.30 3.52
  L 120.70 2.58
  Q 118.23 1.58 117.38 1.57
  C 82.94 1.06 48.55 1.12 14.44 1.53
  C 10.41 1.58 6.61 0.30 2.54 1.02
  Q 0.67 1.34 0.99 3.32
  C 1.86 8.69 2.36 13.64 2.37 19.35
  Q 2.44 67.34 2.22 116.00
  Q 2.21 117.15 3.89 120.85
  Z"
/>
<path fill="#e0e0e0" d="
  M 120.70 2.58
  Q 123.98 4.78 119.78 8.88
  Q 119.41 9.25 119.68 8.80
  Q 119.75 8.69 119.87 8.64
  Q 120.25 8.47 120.26 8.06
  Q 120.28 7.45 119.86 7.90
  Q 118.84 8.98 117.80 9.96
  Q 115.63 12.02 112.96 13.20
  Q 112.50 13.40 112.22 13.83
  C 110.10 17.12 107.22 15.89 104.07 15.87
  C 97.51 15.82 90.44 15.44 83.98 16.20
  Q 82.10 16.43 80.00 16.42
  C 59.82 16.34 40.54 16.50 19.02 16.08
  A 1.99 1.98 -83.6 0 0 17.03 17.68
  C 16.44 20.68 16.99 23.81 16.98 26.87
  Q 16.94 65.62 17.11 106.46
  C 17.12 108.76 15.73 110.84 13.75 111.99
  A 0.07 0.06 -35.9 0 0 13.73 112.08
  L 13.88 112.29
  Q 13.99 112.44 14.13 112.32
  Q 15.21 111.51 16.03 110.39
  Q 16.53 109.71 16.27 110.51
  Q 16.01 111.36 15.26 111.80
  Q 12.26 113.58 10.50 116.47
  Q 7.79 120.92 3.89 120.85
  Q 2.21 117.15 2.22 116.00
  Q 2.44 67.34 2.37 19.35
  C 2.36 13.64 1.86 8.69 0.99 3.32
  Q 0.67 1.34 2.54 1.02
  C 6.61 0.30 10.41 1.58 14.44 1.53
  C 48.55 1.12 82.94 1.06 117.38 1.57
  Q 118.23 1.58 120.70 2.58
  Z"
/>
<path fill="#ababab" d="
  M 120.70 2.58
  L 123.30 3.52
  Q 123.85 3.71 124.37 3.44
  Q 125.14 3.05 125.95 3.25
  Q 127.35 3.59 127.13 4.90
  Q 127.01 5.55 126.48 5.98
  A 4.41 3.59 -59.1 0 1 123.92 6.91
  C 121.43 6.85 120.50 10.36 119.04 11.86
  Q 118.28 12.63 117.83 13.64
  Q 117.61 14.11 117.21 14.44
  Q 114.72 16.41 113.13 19.53
  Q 113.00 19.79 112.81 20.02
  Q 112.67 20.19 112.70 20.41
  Q 112.77 20.80 113.04 20.51
  L 114.03 19.44
  A 0.09 0.08 51.7 0 1 114.17 19.46
  Q 114.21 19.54 114.28 19.71
  Q 113.96 19.85 114.00 20.44
  Q 113.14 21.18 113.48 22.47
  Q 113.89 24.02 114.18 25.74
  Q 114.19 34.54 114.28 43.39
  C 114.32 47.54 113.85 51.71 113.93 55.82
  Q 113.97 57.98 113.76 60.14
  Q 113.57 62.15 113.63 64.42
  Q 113.72 67.69 113.63 71.02
  C 113.59 72.51 114.31 73.53 114.28 75.04
  Q 114.22 78.51 114.07 81.88
  Q 114.04 82.56 114.39 83.15
  Q 114.69 83.67 114.66 84.30
  C 114.48 87.87 114.56 91.31 114.19 94.89
  Q 113.41 102.42 113.85 110.01
  Q 113.87 110.34 113.47 110.92
  Q 112.21 112.34 111.26 112.26
  Q 108.22 111.99 105.08 112.33
  Q 102.14 112.65 99.86 112.68
  Q 97.23 112.72 94.66 112.70
  Q 92.34 112.68 89.87 113.05
  Q 87.67 113.38 85.26 113.11
  Q 79.50 112.48 72.65 112.37
  Q 72.16 112.37 71.81 112.03
  Q 71.54 111.76 71.14 111.83
  Q 70.76 111.90 70.36 111.87
  Q 61.06 111.30 51.48 111.88
  Q 44.11 112.32 37.50 112.03
  Q 31.56 111.77 26.44 111.94
  Q 26.37 111.94 26.37 111.88
  Q 26.38 111.77 26.36 111.83
  Q 26.35 111.89 26.41 111.90
  Q 26.89 111.96 27.29 111.77
  Q 27.82 111.53 27.24 111.45
  Q 25.11 111.17 22.81 111.06
  Q 20.65 110.96 18.97 112.27
  Q 16.54 114.16 14.65 116.16
  Q 12.05 118.92 8.98 121.64
  Q 7.54 122.93 7.90 125.35
  Q 8.16 127.17 6.33 127.39
  L 5.23 127.52
  Q 3.56 127.72 3.95 126.09
  Q 4.79 122.61 3.89 120.85
  Q 7.79 120.92 10.50 116.47
  Q 12.26 113.58 15.26 111.80
  Q 16.01 111.36 16.27 110.51
  Q 16.53 109.71 16.03 110.39
  Q 15.21 111.51 14.13 112.32
  Q 13.99 112.44 13.88 112.29
  L 13.73 112.08
  A 0.07 0.06 -35.9 0 1 13.75 111.99
  C 15.73 110.84 17.12 108.76 17.11 106.46
  Q 16.94 65.62 16.98 26.87
  C 16.99 23.81 16.44 20.68 17.03 17.68
  A 1.99 1.98 -83.6 0 1 19.02 16.08
  C 40.54 16.50 59.82 16.34 80.00 16.42
  Q 82.10 16.43 83.98 16.20
  C 90.44 15.44 97.51 15.82 104.07 15.87
  C 107.22 15.89 110.10 17.12 112.22 13.83
  Q 112.50 13.40 112.96 13.20
  Q 115.63 12.02 117.80 9.96
  Q 118.84 8.98 119.86 7.90
  Q 120.28 7.45 120.26 8.06
  Q 120.25 8.47 119.87 8.64
  Q 119.75 8.69 119.68 8.80
  Q 119.41 9.25 119.78 8.88
  Q 123.98 4.78 120.70 2.58
  Z
  M 52.29 60.37
  Q 44.26 62.77 40.93 69.50
  C 36.89 77.66 39.93 87.58 47.61 92.16
  Q 55.16 96.65 64.84 95.84
  Q 73.86 95.24 79.87 89.87
  C 89.47 81.30 87.43 67.07 75.47 61.91
  Q 74.85 61.00 73.51 60.99
  Q 72.93 60.43 73.61 60.10
  C 81.86 56.12 87.00 46.52 82.01 38.21
  C 77.68 31.01 69.38 28.94 61.36 29.04
  Q 57.56 29.42 53.78 30.54
  C 46.62 32.66 41.23 38.22 41.12 46.02
  Q 41.03 53.38 48.33 57.91
  Q 50.46 59.24 52.29 60.37
  Z
  M 17.33 102.01
  Q 17.34 104.67 17.63 107.71
  Q 17.66 108.00 17.40 108.11
  Q 17.25 108.18 17.29 108.33
  Q 17.47 108.98 17.51 108.31
  Q 17.70 105.20 17.29 101.91
  Q 17.27 101.75 17.32 101.90
  Q 17.33 101.95 17.33 102.01
  Z"
/>
<path fill="#6a6a6a" d="
  M 90.74 114.02
  Q 99.63 113.67 108.50 113.43
  Q 110.40 113.37 111.43 112.99
  Q 112.20 112.70 111.38 112.72
  C 108.95 112.77 106.34 113.17 103.95 113.16
  Q 96.91 113.13 92.00 113.50
  Q 91.17 113.56 90.74 114.02
  Q 86.21 113.86 81.66 113.60
  Q 81.62 113.60 81.60 113.60
  Q 81.53 113.58 81.58 113.54
  Q 81.62 113.51 81.66 113.52
  Q 86.28 113.75 89.90 113.48
  Q 95.38 113.08 98.12 113.06
  Q 105.20 113.02 112.27 112.46
  Q 112.78 112.42 113.06 112.00
  Q 113.42 111.47 113.47 110.92
  Q 113.87 110.34 113.85 110.01
  Q 113.41 102.42 114.19 94.89
  C 114.56 91.31 114.48 87.87 114.66 84.30
  Q 114.69 83.67 114.39 83.15
  Q 114.04 82.56 114.07 81.88
  Q 114.22 78.51 114.28 75.04
  C 114.31 73.53 113.59 72.51 113.63 71.02
  Q 113.72 67.69 113.63 64.42
  Q 113.57 62.15 113.76 60.14
  Q 113.97 57.98 113.93 55.82
  C 113.85 51.71 114.32 47.54 114.28 43.39
  Q 114.19 34.54 114.18 25.74
  L 114.00 20.44
  Q 113.96 19.85 114.28 19.71
  Q 117.12 16.99 119.81 14.10
  Q 120.05 13.84 119.90 14.16
  Q 119.88 14.20 119.89 14.25
  Q 119.90 14.29 119.87 14.33
  Q 118.92 15.40 117.79 16.56
  Q 117.62 16.73 117.80 16.90
  L 117.80 16.91
  Q 117.98 17.08 118.15 16.90
  Q 120.76 14.11 122.44 10.53
  A 2.19 2.18 -81.1 0 1 124.15 9.28
  Q 125.30 9.14 126.06 10.54
  Q 126.56 11.47 126.54 12.64
  C 126.43 16.82 126.13 20.80 126.14 24.90
  Q 126.22 74.25 126.64 119.17
  Q 126.67 122.18 126.89 125.60
  A 0.77 0.77 0.0 0 1 126.08 126.41
  Q 117.48 125.86 109.27 125.74
  Q 78.90 125.32 48.32 125.55
  Q 46.70 125.56 45.07 125.69
  Q 42.96 125.85 39.78 125.74
  Q 28.41 125.33 14.27 126.32
  C 12.96 126.41 9.91 125.94 10.16 123.91
  Q 10.33 122.51 11.53 121.77
  Q 12.35 121.26 12.96 120.49
  Q 13.34 120.01 13.95 120.11
  Q 14.25 120.16 14.50 119.98
  Q 17.07 118.15 18.57 115.61
  C 19.78 113.55 22.37 113.14 24.50 113.20
  Q 46.03 113.82 70.50 113.56
  Q 73.80 113.52 80.46 114.11
  Q 85.27 114.53 90.49 114.30
  Q 90.82 114.28 90.74 114.02
  Z"
/>
<path fill="#9e9e9e" d="
  M 114.00 20.44
  L 114.18 25.74
  Q 113.89 24.02 113.48 22.47
  Q 113.14 21.18 114.00 20.44
  Z"
/>
<path fill="#ffee3f" d="
  M 61.36 29.04
  Q 60.49 31.71 61.88 35.02
  Q 55.26 34.95 51.79 39.06
  C 49.20 42.13 49.30 47.82 52.30 50.88
  Q 54.66 53.29 57.30 54.46
  Q 62.62 56.83 67.87 58.59
  Q 70.35 60.53 73.04 61.33
  Q 74.20 61.88 75.47 61.91
  C 87.43 67.07 89.47 81.30 79.87 89.87
  Q 73.86 95.24 64.84 95.84
  Q 65.31 92.33 63.82 89.09
  Q 76.06 88.21 76.97 78.18
  C 77.46 72.71 75.10 69.38 70.27 67.18
  Q 62.28 63.55 55.78 62.14
  L 52.29 60.37
  Q 50.46 59.24 48.33 57.91
  Q 41.03 53.38 41.12 46.02
  C 41.23 38.22 46.62 32.66 53.78 30.54
  Q 57.56 29.42 61.36 29.04
  Z"
/>
<path fill="#2a2a2a" d="
  M 61.36 29.04
  C 69.38 28.94 77.68 31.01 82.01 38.21
  C 87.00 46.52 81.86 56.12 73.61 60.10
  Q 72.93 60.43 73.51 60.99
  Q 73.31 61.20 73.04 61.33
  Q 70.35 60.53 67.87 58.59
  Q 69.43 57.35 71.02 55.99
  Q 76.31 51.49 76.06 45.14
  C 75.75 37.32 68.53 34.72 61.88 35.02
  Q 60.49 31.71 61.36 29.04
  Z"
/>
<path fill="#ababab" d="
  M 61.88 35.02
  C 68.53 34.72 75.75 37.32 76.06 45.14
  Q 76.31 51.49 71.02 55.99
  Q 69.43 57.35 67.87 58.59
  Q 62.62 56.83 57.30 54.46
  Q 54.66 53.29 52.30 50.88
  C 49.30 47.82 49.20 42.13 51.79 39.06
  Q 55.26 34.95 61.88 35.02
  Z"
/>
<path fill="#2a2a2a" d="
  M 52.29 60.37
  L 55.78 62.14
  Q 56.06 62.76 55.86 62.88
  C 44.99 69.12 44.85 84.34 57.79 88.39
  Q 59.14 88.81 60.78 88.91
  Q 62.37 89.00 63.82 89.09
  Q 65.31 92.33 64.84 95.84
  Q 55.16 96.65 47.61 92.16
  C 39.93 87.58 36.89 77.66 40.93 69.50
  Q 44.26 62.77 52.29 60.37
  Z"
/>
<path fill="#6a6a6a" d="
  M 73.51 60.99
  Q 74.85 61.00 75.47 61.91
  Q 74.20 61.88 73.04 61.33
  Q 73.31 61.20 73.51 60.99
  Z"
/>
<path fill="#ababab" d="
  M 55.78 62.14
  Q 62.28 63.55 70.27 67.18
  C 75.10 69.38 77.46 72.71 76.97 78.18
  Q 76.06 88.21 63.82 89.09
  Q 62.37 89.00 60.78 88.91
  Q 59.14 88.81 57.79 88.39
  C 44.85 84.34 44.99 69.12 55.86 62.88
  Q 56.06 62.76 55.78 62.14
  Z"
/>
<path fill="#e0e0e0" d="
  M 17.33 102.01
  Q 17.33 101.95 17.32 101.90
  Q 17.27 101.75 17.29 101.91
  Q 17.70 105.20 17.51 108.31
  Q 17.47 108.98 17.29 108.33
  Q 17.25 108.18 17.40 108.11
  Q 17.66 108.00 17.63 107.71
  Q 17.34 104.67 17.33 102.01
  Z"
/>
<path fill="#9e9e9e" d="
  M 90.74 114.02
  Q 91.17 113.56 92.00 113.50
  Q 96.91 113.13 103.95 113.16
  C 106.34 113.17 108.95 112.77 111.38 112.72
  Q 112.20 112.70 111.43 112.99
  Q 110.40 113.37 108.50 113.43
  Q 99.63 113.67 90.74 114.02
  Z"
/>
</svg>
