<?xml version="1.0" encoding="UTF-8" standalone="no"?>
<!DOCTYPE svg PUBLIC "-//W3C//DTD SVG 1.1//EN" "http://www.w3.org/Graphics/SVG/1.1/DTD/svg11.dtd">
<svg xmlns="http://www.w3.org/2000/svg" version="1.1" viewBox="0.00 0.00 128.00 128.00">
<g stroke-width="2.00" fill="none" stroke-linecap="butt">
<path stroke="#505050" vector-effect="non-scaling-stroke" d="
  M 61.04 0.00
  L 59.30 1.23"
/>
<path stroke="#b4b4b4" vector-effect="non-scaling-stroke" d="
  M 59.30 1.23
  Q 58.16 0.35 56.69 0.62
  Q 54.42 1.03 54.22 1.04
  Q 44.49 1.30 34.75 1.30
  Q 33.63 1.30 32.72 1.80"
/>
<path stroke="#c0c0c0" vector-effect="non-scaling-stroke" d="
  M 32.72 1.80
  L 2.02 1.03
  A 0.95 0.94 1.2 0 0 1.05 1.95
  Q 0.91 7.23 2.42 12.68"
/>
<path stroke="#b4b4b4" vector-effect="non-scaling-stroke" d="
  M 2.42 12.68
  Q 2.16 25.88 1.42 38.75
  Q 1.03 45.47 1.61 58.63"
/>
<path stroke="#505050" vector-effect="non-scaling-stroke" d="
  M 1.61 58.63
  Q 1.29 59.77 0.00 61.23"
/>
<path stroke="#505050" vector-effect="non-scaling-stroke" d="
  M 67.45 0.00
  L 70.64 2.40"
/>
<path stroke="#717170" vector-effect="non-scaling-stroke" d="
  M 70.64 2.40
  Q 71.69 7.30 71.23 11.14
  Q 71.14 11.89 71.89 11.88
  L 72.71 11.87
  Q 73.26 11.86 73.43 12.38
  L 74.32 14.95"
/>
<path stroke="#656564" vector-effect="non-scaling-stroke" d="
  M 74.32 14.95
  Q 74.29 15.11 74.31 15.25
  Q 74.35 15.49 74.59 15.56
  L 83.44 18.36"
/>
<path stroke="#505050" vector-effect="non-scaling-stroke" d="
  M 83.44 18.36
  L 92.92 23.47
  Q 93.36 23.71 93.81 23.49
  L 95.98 22.43
  Q 96.50 22.17 96.88 22.61
  L 97.36 23.17
  Q 97.91 23.81 98.54 23.24
  Q 100.64 21.38 102.52 19.38
  C 103.49 18.36 104.68 18.02 105.98 17.62"
/>
<path stroke="#656564" vector-effect="non-scaling-stroke" d="
  M 105.98 17.62
  L 109.02 18.80"
/>
<path stroke="#505050" vector-effect="non-scaling-stroke" d="
  M 109.02 18.80
  Q 109.73 20.25 111.29 21.65"
/>
<path stroke="#3f3f3f" vector-effect="non-scaling-stroke" d="
  M 111.29 21.65
  Q 115.73 25.68 111.94 29.56"
/>
<path stroke="#505050" vector-effect="non-scaling-stroke" d="
  M 111.94 29.56
  L 107.79 33.62
  A 0.67 0.66 27.5 0 0 108.15 34.75
  Q 108.98 34.90 108.88 35.67
  C 108.80 36.26 107.94 37.16 107.72 37.86
  Q 107.56 38.36 107.81 38.82
  L 111.82 46.08"
/>
<path stroke="#3f3f3f" vector-effect="non-scaling-stroke" d="
  M 111.82 46.08
  Q 112.65 52.30 115.89 52.70"
/>
<path stroke="#363635" vector-effect="non-scaling-stroke" d="
  M 115.89 52.70
  Q 116.33 52.94 116.54 54.40
  Q 116.61 54.88 117.10 54.90
  L 125.36 55.30"
/>
<path stroke="#3f3f3f" vector-effect="non-scaling-stroke" d="
  M 125.36 55.30
  L 128.00 58.87"
/>
<path stroke="#505050" vector-effect="non-scaling-stroke" d="
  M 128.00 65.53
  Q 127.66 65.87 127.55 66.53"
/>
<path stroke="#3f3f3f" vector-effect="non-scaling-stroke" d="
  M 127.55 66.53
  L 125.44 68.70"
/>
<path stroke="#363635" vector-effect="non-scaling-stroke" d="
  M 125.44 68.70
  L 117.09 69.10
  Q 116.61 69.12 116.59 69.60
  Q 116.50 71.84 115.72 71.25"
/>
<path stroke="#3f3f3f" vector-effect="non-scaling-stroke" d="
  M 115.72 71.25
  Q 112.75 76.64 111.87 82.27"
/>
<path stroke="#505050" vector-effect="non-scaling-stroke" d="
  M 111.87 82.27
  L 108.13 88.89
  A 0.89 0.88 33.1 0 0 108.38 90.04
  Q 109.32 90.73 109.60 91.84
  A 0.70 0.68 -25.1 0 1 109.32 92.58
  Q 107.83 93.63 109.14 95.07
  Q 109.90 95.90 111.72 97.35"
/>
<path stroke="#3f3f3f" vector-effect="non-scaling-stroke" d="
  M 111.72 97.35
  Q 113.12 98.68 114.27 101.06
  A 1.53 1.48 38.7 0 1 114.39 102.01
  Q 113.95 104.14 112.39 105.62"
/>
<path stroke="#505050" vector-effect="non-scaling-stroke" d="
  M 112.39 105.62
  C 110.48 107.47 108.07 110.86 105.19 109.74
  C 102.81 108.82 100.93 106.11 99.03 104.41
  Q 98.49 103.92 97.91 104.39
  Q 96.31 105.70 95.00 104.38
  Q 94.50 103.87 93.91 104.28
  Q 88.06 108.20 80.67 111.13"
/>
<path stroke="#3f3f3f" vector-effect="non-scaling-stroke" d="
  M 80.67 111.13
  L 77.39 112.16
  Q 76.91 112.31 76.75 112.79
  L 75.92 115.31"
/>
<path stroke="#363635" vector-effect="non-scaling-stroke" d="
  M 75.92 115.31
  Q 72.79 116.25 73.54 124.80"
/>
<path stroke="#505050" vector-effect="non-scaling-stroke" d="
  M 73.54 124.80
  Q 71.86 126.89 69.88 128.00"
/>
<path stroke="#505050" vector-effect="non-scaling-stroke" d="
  M 63.39 128.00
  L 61.95 127.20"
/>
<path stroke="#3f3f3f" vector-effect="non-scaling-stroke" d="
  M 61.95 127.20
  Q 61.65 126.78 61.56 126.84"
/>
<path stroke="#363635" vector-effect="non-scaling-stroke" d="
  M 61.56 126.84
  C 60.54 125.90 59.67 125.02 59.66 123.56
  Q 59.62 120.48 59.53 117.61
  A 0.90 0.89 -77.4 0 0 59.05 116.85
  Q 56.87 115.69 56.87 113.77"
/>
<path stroke="#505050" vector-effect="non-scaling-stroke" d="
  M 56.87 113.77
  Q 55.12 112.89 51.00 112.05
  Q 46.42 111.11 36.43 105.60
  Q 35.95 105.34 35.46 105.60
  Q 34.74 105.98 34.18 106.53
  Q 33.19 107.50 32.27 106.46
  A 1.36 1.36 0.0 0 0 30.17 106.54
  Q 28.39 108.90 26.15 111.06
  C 22.70 114.42 19.89 110.60 17.09 107.72"
/>
<path stroke="#656564" vector-effect="non-scaling-stroke" d="
  M 17.09 107.72
  C 14.97 105.85 14.82 103.28 16.69 101.21
  Q 18.73 98.95 20.47 96.97
  Q 20.87 96.52 20.55 96.00
  L 19.86 94.88
  Q 19.55 94.38 19.83 93.85
  L 21.21 91.22
  Q 21.45 90.76 21.17 90.33
  Q 16.42 83.09 14.83 75.26
  Q 14.73 74.76 14.24 74.59
  Q 13.86 74.45 13.49 74.53"
/>
<path stroke="#717170" vector-effect="non-scaling-stroke" d="
  M 13.49 74.53
  Q 11.52 74.06 11.28 72.21
  Q 11.22 71.74 10.74 71.73
  L 3.85 71.56"
/>
<path stroke="#505050" vector-effect="non-scaling-stroke" d="
  M 3.85 71.56
  Q 1.36 70.62 0.00 67.58"
/>
<path stroke="#656564" vector-effect="non-scaling-stroke" d="
  M 1.61 58.63
  L 3.97 57.32"
/>
<path stroke="#717170" vector-effect="non-scaling-stroke" d="
  M 3.97 57.32
  L 10.89 57.22
  Q 11.39 57.21 11.38 56.72
  Q 11.36 54.48 13.97 54.45"
/>
<path stroke="#656564" vector-effect="non-scaling-stroke" d="
  M 13.97 54.45
  L 14.20 54.34
  Q 14.48 54.20 14.55 53.89
  Q 16.11 46.72 19.45 40.82
  Q 20.25 39.43 21.02 38.08
  Q 21.35 37.49 21.02 36.89
  L 19.89 34.87
  Q 19.62 34.39 20.04 34.04
  C 20.93 33.31 20.82 32.14 19.98 31.45
  Q 17.27 29.25 15.82 26.95
  Q 13.95 24.00 16.55 21.23
  C 18.70 18.94 21.89 14.42 25.54 17.56"
/>
<path stroke="#505050" vector-effect="non-scaling-stroke" d="
  M 25.54 17.56
  L 30.35 22.32
  Q 30.95 22.92 31.40 22.21
  Q 31.71 21.73 32.22 21.46
  Q 32.84 21.15 33.38 21.58
  L 35.63 23.38"
/>
<path stroke="#261e04" vector-effect="non-scaling-stroke" d="
  M 35.63 23.38
  Q 36.13 23.05 35.77 23.71"
/>
<path stroke="#483806" vector-effect="non-scaling-stroke" d="
  M 35.77 23.71
  Q 30.84 27.24 27.22 31.99"
/>
<path stroke="#3f3106" vector-effect="non-scaling-stroke" d="
  M 27.22 31.99
  Q 20.27 40.79 18.66 52.32"
/>
<path stroke="#382c05" vector-effect="non-scaling-stroke" d="
  M 18.66 52.32
  Q 17.45 61.99 20.83 71.25"
/>
<path stroke="#261e04" vector-effect="non-scaling-stroke" d="
  M 20.83 71.25
  Q 23.31 78.86 28.37 84.08"
/>
<path stroke="#151002" vector-effect="non-scaling-stroke" d="
  M 28.37 84.08
  Q 35.27 92.90 45.68 96.23
  C 46.86 96.60 47.91 96.62 49.03 97.07
  Q 50.23 97.55 51.50 97.64
  Q 56.08 97.98 60.23 97.86
  Q 61.77 97.81 63.26 97.13
  Q 64.44 96.59 65.68 96.38
  Q 68.44 95.92 71.20 94.37
  C 72.97 93.37 75.02 93.26 76.51 91.92
  Q 78.09 90.48 79.94 89.57
  Q 82.94 88.08 83.97 86.84
  Q 85.95 84.44 88.41 82.30
  Q 89.25 81.58 89.93 80.75
  C 91.14 79.30 92.22 78.23 93.01 76.40
  Q 94.23 73.53 95.84 71.16
  Q 96.12 70.75 96.15 70.26
  L 96.19 69.76
  Q 96.23 69.12 96.87 69.02
  Q 97.40 68.93 97.37 68.39
  Q 97.34 67.97 97.54 67.61
  Q 98.49 65.83 98.38 63.76
  Q 98.35 63.18 98.89 62.96
  Q 99.31 62.78 99.12 62.29
  A 0.81 0.80 -42.6 0 1 99.15 61.66
  L 99.80 60.29
  Q 99.99 59.87 100.05 59.42
  L 100.50 56.06
  Q 100.56 55.56 100.44 55.07
  L 100.37 54.77
  A 0.92 0.90 -30.0 0 1 100.61 53.90
  Q 100.97 53.54 100.93 53.00
  Q 100.90 52.51 100.65 52.10
  Q 99.99 51.00 100.66 49.89
  A 1.43 1.42 57.9 0 0 100.86 49.00
  Q 100.76 47.95 100.34 47.17
  Q 100.08 46.68 100.12 46.12
  Q 100.35 43.42 99.65 41.07
  Q 98.76 38.07 97.47 35.03
  Q 96.41 32.53 93.98 29.85
  Q 90.44 25.95 86.18 22.94"
/>
<path stroke="#261e04" vector-effect="non-scaling-stroke" d="
  M 86.18 22.94
  L 76.23 17.77"
/>
<path stroke="#382c05" vector-effect="non-scaling-stroke" d="
  M 76.23 17.77
  Q 66.30 14.45 55.00 15.64
  Q 54.40 15.71 54.42 15.06"
/>
<path stroke="#656564" vector-effect="non-scaling-stroke" d="
  M 54.42 15.06
  L 54.42 13.50"
/>
<path stroke="#717170" vector-effect="non-scaling-stroke" d="
  M 54.42 13.50
  Q 54.87 11.92 56.74 11.76
  Q 57.23 11.71 57.24 11.23
  L 57.41 3.16"
/>
<path stroke="#656564" vector-effect="non-scaling-stroke" d="
  M 57.41 3.16
  L 59.30 1.23"
/>
<path stroke="#656547" vector-effect="non-scaling-stroke" d="
  M 63.4347 12.9200
  A 4.21 2.66 89.8 0 0 66.0800 8.7007
  A 4.21 2.66 89.8 0 0 63.4053 4.5000
  A 4.21 2.66 89.8 0 0 60.7600 8.7193
  A 4.21 2.66 89.8 0 0 63.4347 12.9200"
/>
<path stroke="#353527" vector-effect="non-scaling-stroke" d="
  M 28.82 24.97
  A 2.43 2.43 0.0 0 0 26.39 22.54
  A 2.43 2.43 0.0 0 0 23.96 24.97
  A 2.43 2.43 0.0 0 0 26.39 27.40
  A 2.43 2.43 0.0 0 0 28.82 24.97"
/>
<path stroke="#353527" vector-effect="non-scaling-stroke" d="
  M 106.0144 23.9912
  A 2.32 2.15 -26.6 0 0 102.9773 23.1076
  A 2.32 2.15 -26.6 0 0 101.8656 26.0688
  A 2.32 2.15 -26.6 0 0 104.9027 26.9524
  A 2.32 2.15 -26.6 0 0 106.0144 23.9912"
/>
<path stroke="#656547" vector-effect="non-scaling-stroke" d="
  M 13.13 64.44
  L 13.19 60.48
  A 0.95 0.95 0.0 0 0 12.25 59.52
  L 10.74 59.50
  A 3.94 2.81 0.8 0 0 6.76 62.26
  L 6.76 62.50
  A 3.94 2.81 0.8 0 0 10.66 65.36
  L 12.17 65.38
  A 0.95 0.95 0.0 0 0 13.13 64.44"
/>
<path stroke="#151002" vector-effect="non-scaling-stroke" d="
  M 123.5097 62.0811
  A 4.00 2.62 -0.7 0 0 119.4780 59.5102
  A 4.00 2.62 -0.7 0 0 115.5103 62.1789
  A 4.00 2.62 -0.7 0 0 119.5420 64.7498
  A 4.00 2.62 -0.7 0 0 123.5097 62.0811"
/>
<path stroke="#151002" vector-effect="non-scaling-stroke" d="
  M 67.2877 123.3600
  A 4.39 2.14 89.9 0 0 69.4200 118.9663
  A 4.39 2.14 89.9 0 0 67.2723 114.5800
  A 4.39 2.14 89.9 0 0 65.1400 118.9737
  A 4.39 2.14 89.9 0 0 67.2877 123.3600"
/>
<path stroke="#8e8e8e" vector-effect="non-scaling-stroke" d="
  M 128.00 38.16
  L 126.67 16.52"
/>
<path stroke="#858584" vector-effect="non-scaling-stroke" d="
  M 126.67 16.52
  Q 127.21 13.11 126.00 9.11"
/>
<path stroke="#8e8e8e" vector-effect="non-scaling-stroke" d="
  M 126.00 9.11
  Q 122.62 7.58 120.24 11.35
  Q 118.84 13.58 117.63 14.69
  Q 114.17 17.88 111.29 21.65"
/>
<path stroke="#b4b4b4" vector-effect="non-scaling-stroke" d="
  M 109.02 18.80
  Q 112.46 16.15 115.29 12.89
  Q 116.55 11.44 117.95 10.41
  Q 119.51 9.28 120.75 7.80
  C 121.52 6.89 121.62 5.84 122.68 5.11
  A 0.86 0.85 65.4 0 0 123.02 4.18
  Q 122.69 2.95 120.46 2.68
  Q 119.90 2.61 120.15 3.12
  Q 120.24 3.31 121.19 3.39"
/>
<path stroke="#c0c0c0" vector-effect="non-scaling-stroke" d="
  M 121.19 3.39
  Q 120.18 3.48 119.55 2.84
  A 1.57 1.56 71.8 0 0 118.69 2.40
  Q 113.31 1.60 107.84 1.79
  Q 104.56 1.90 101.16 1.89
  Q 85.91 1.87 70.64 2.40"
/>
<path stroke="#d4d4d4" vector-effect="non-scaling-stroke" d="
  M 57.41 3.16
  Q 54.79 2.82 52.13 2.47
  Q 49.63 2.14 46.84 2.17
  Q 39.80 2.26 32.72 1.80"
/>
<path stroke="#d4d4d4" vector-effect="non-scaling-stroke" d="
  M 54.42 13.50
  C 53.99 13.82 53.64 14.12 53.08 14.16
  Q 39.27 15.00 24.46 14.50
  C 22.03 14.42 19.11 14.47 17.10 15.89
  Q 16.06 16.62 15.65 17.91
  Q 14.64 21.06 14.17 23.68
  Q 13.94 24.95 14.28 26.64
  C 15.06 30.53 14.60 35.19 14.62 39.18
  Q 14.63 42.31 14.31 46.82
  Q 14.04 50.60 13.97 54.45"
/>
<path stroke="#d4d4d4" vector-effect="non-scaling-stroke" d="
  M 3.97 57.32
  Q 4.47 44.43 3.20 31.74
  Q 2.69 26.65 2.65 22.22
  Q 2.60 17.50 2.42 12.68"
/>
<path stroke="#d4d4d4" vector-effect="non-scaling-stroke" d="
  M 121.19 3.39
  Q 120.12 8.50 115.94 9.61
  A 1.55 1.54 10.6 0 0 115.10 10.18
  Q 114.66 10.79 114.03 11.15
  Q 113.64 11.37 113.41 11.75
  Q 112.30 13.49 110.75 15.10
  Q 109.49 16.41 107.74 16.45
  Q 105.11 16.50 103.07 16.16
  Q 101.18 15.84 99.42 15.87
  Q 89.22 16.02 78.95 15.62
  Q 78.37 15.60 77.83 15.40
  Q 77.21 15.17 76.58 15.33
  Q 76.06 15.46 75.61 15.18
  Q 74.98 14.79 74.32 14.95"
/>
<path stroke="#d4d4d4" vector-effect="non-scaling-stroke" d="
  M 86.7600 2.8571
  A 0.24 0.24 0.0 0 0 86.5196 2.6175
  L 72.2196 2.6425
  A 0.24 0.24 0.0 0 0 71.9800 2.8829
  L 71.9800 2.8829
  A 0.24 0.24 0.0 0 0 72.2204 3.1225
  L 86.5204 3.0975
  A 0.24 0.24 0.0 0 0 86.7600 2.8571
  L 86.7600 2.8571"
/>
<path stroke="#d4d4d4" vector-effect="non-scaling-stroke" d="
  M 75.35 14.88
  Q 86.26 15.56 98.63 15.37
  Q 101.28 15.33 103.73 15.75
  Q 106.80 16.28 109.75 15.06
  Q 109.85 15.02 109.81 14.91
  L 109.73 14.65
  Q 109.63 14.33 109.32 14.46
  Q 106.78 15.57 103.87 15.01
  Q 101.76 14.60 99.64 14.62
  Q 86.98 14.74 75.52 14.38
  Q 75.32 14.37 75.31 14.57
  L 75.30 14.83
  Q 75.30 14.88 75.35 14.88"
/>
<path stroke="#b4b4b4" vector-effect="non-scaling-stroke" d="
  M 105.98 17.62
  Q 97.06 18.78 87.77 18.37
  C 86.75 18.33 85.76 17.95 84.74 17.85
  Q 84.51 17.82 84.70 17.96
  Q 84.75 18.00 84.75 18.06
  Q 84.76 18.26 84.54 18.30
  Q 84.05 18.40 83.44 18.36"
/>
<path stroke="#747473" vector-effect="non-scaling-stroke" d="
  M 126.00 9.11
  Q 122.87 10.28 121.84 12.66
  Q 120.52 15.68 120.50 15.70
  Q 119.15 17.62 117.21 18.98
  Q 115.00 20.54 115.45 23.23
  Q 115.87 25.73 115.94 28.25
  Q 116.29 40.56 115.89 52.70"
/>
<path stroke="#8e8e8e" vector-effect="non-scaling-stroke" d="
  M 111.82 46.08
  L 111.94 29.56"
/>
<path stroke="#747473" vector-effect="non-scaling-stroke" d="
  M 126.67 16.52
  Q 126.01 24.15 125.46 31.75
  Q 125.10 36.76 125.36 55.30"
/>
<path stroke="#9c8f69" vector-effect="non-scaling-stroke" d="
  M 54.42 15.06
  Q 53.99 15.54 52.93 15.77"
/>
<path stroke="#a2956a" vector-effect="non-scaling-stroke" d="
  M 52.93 15.77
  L 48.13 17.23"
/>
<path stroke="#b4b4b4" vector-effect="non-scaling-stroke" d="
  M 48.13 17.23
  Q 38.28 18.85 28.51 18.28
  Q 27.68 18.24 27.28 17.70
  Q 26.98 17.29 26.49 17.38
  L 25.54 17.56"
/>
<path stroke="#5d4808" vector-effect="non-scaling-stroke" d="
  M 76.23 17.77
  Q 76.08 19.46 77.75 19.42
  Q 78.24 19.41 78.60 19.74
  Q 82.69 23.47 84.74 26.84
  Q 85.56 28.19 86.46 29.53
  Q 87.36 30.87 88.07 32.32
  Q 89.23 34.71 90.14 37.15
  Q 90.52 38.18 90.71 39.43
  Q 90.86 40.41 91.13 41.42
  Q 91.86 44.21 92.22 51.22
  Q 92.24 51.71 92.51 52.12
  Q 92.94 52.80 92.44 53.45
  A 1.38 1.34 -25.7 0 0 92.16 54.21
  C 92.09 55.63 92.25 56.99 91.83 58.37
  Q 89.48 66.05 85.91 73.27
  Q 85.22 74.66 82.36 77.79"
/>
<path stroke="#382c05" vector-effect="non-scaling-stroke" d="
  M 82.36 77.79
  Q 84.68 71.71 81.22 67.02
  Q 80.10 65.51 78.90 63.99"
/>
<path stroke="#765c0a" vector-effect="non-scaling-stroke" d="
  M 78.90 63.99
  L 79.92 64.10
  A 0.91 0.87 32.5 0 0 80.44 64.00
  Q 81.15 63.60 80.78 62.92
  Q 80.55 62.50 80.96 62.24
  Q 81.24 62.06 81.13 61.74
  Q 80.94 61.18 81.36 60.76
  C 82.28 59.82 81.95 58.91 82.37 57.82
  Q 83.30 55.33 83.38 52.71
  Q 83.64 44.61 81.63 37.02
  Q 81.05 34.82 79.88 32.60
  A 1.36 1.33 1.3 0 0 79.37 32.08
  Q 78.96 31.86 78.75 31.51
  Q 76.65 27.83 73.83 24.70
  Q 73.50 24.34 73.04 24.16
  Q 71.90 23.72 71.24 22.65
  Q 70.99 22.24 70.54 22.08
  Q 68.84 21.45 67.24 20.38
  Q 65.92 19.50 63.98 18.94
  Q 61.41 18.20 58.96 17.06
  Q 58.51 16.85 58.01 16.89
  Q 55.38 17.12 52.93 15.77"
/>
<path stroke="#3f3106" vector-effect="non-scaling-stroke" d="
  M 78.90 63.99
  L 76.14 60.97"
/>
<path stroke="#85680c" vector-effect="non-scaling-stroke" d="
  M 76.14 60.97
  Q 77.41 59.51 77.61 57.13
  Q 77.65 56.64 77.91 56.21
  Q 78.59 55.08 78.35 53.82
  Q 78.27 53.42 78.59 53.17
  Q 78.78 53.01 78.92 52.80
  Q 79.09 52.53 79.10 52.21
  Q 79.25 48.64 79.06 45.16
  Q 78.87 41.72 76.48 36.05
  C 76.32 35.67 76.38 35.44 76.37 35.05
  Q 76.37 34.77 76.24 34.53
  Q 73.21 28.94 68.98 25.98
  Q 67.98 25.28 66.82 24.89
  Q 66.16 24.67 65.95 23.96
  Q 65.79 23.46 65.31 23.24
  Q 63.01 22.17 60.44 21.03
  C 59.40 20.57 58.55 20.79 57.57 20.34
  C 55.62 19.42 52.82 19.61 50.69 19.57
  Q 48.91 19.54 47.30 20.02
  Q 45.54 20.54 43.70 20.80
  Q 42.15 21.01 40.31 21.95
  Q 38.60 22.82 36.72 23.47"
/>
<path stroke="#644e09" vector-effect="non-scaling-stroke" d="
  M 36.72 23.47
  L 42.40 19.93"
/>
<path stroke="#8e8055" vector-effect="non-scaling-stroke" d="
  M 42.40 19.93
  L 48.13 17.23"
/>
<path stroke="#756d53" vector-effect="non-scaling-stroke" d="
  M 42.40 19.93
  L 35.63 23.38"
/>
<path stroke="#3a2c05" vector-effect="non-scaling-stroke" d="
  M 86.18 22.94
  Q 86.06 24.80 87.50 25.27
  Q 87.97 25.43 88.27 25.83
  Q 88.72 26.44 88.86 27.17
  Q 88.94 27.56 89.31 27.67
  Q 90.08 27.89 90.35 28.63
  Q 90.89 30.08 91.70 31.46
  Q 92.40 32.65 92.70 33.75
  Q 93.02 34.94 93.68 36.08
  Q 93.92 36.49 93.86 36.96
  Q 93.70 38.34 94.34 39.71
  Q 94.90 40.93 95.11 42.14
  Q 96.27 48.82 95.77 56.19
  Q 95.65 58.01 94.14 63.78
  Q 94.11 63.87 94.04 63.95
  Q 93.95 64.05 93.77 64.01
  Q 93.62 63.97 93.62 64.12
  Q 93.63 65.74 92.66 67.00
  Q 92.35 67.40 92.26 67.90
  Q 91.85 70.13 90.84 71.81
  Q 89.89 73.40 88.84 75.06
  Q 87.80 76.70 86.40 78.16
  Q 84.68 79.96 83.25 81.73
  Q 81.84 83.47 79.75 84.72
  Q 77.66 85.98 75.91 87.43
  C 75.12 88.08 74.32 88.23 73.50 88.78
  Q 72.67 89.33 71.72 89.64
  Q 67.44 91.04 63.36 92.30
  Q 60.87 93.07 57.98 93.28
  Q 41.69 94.43 28.37 84.08"
/>
<path stroke="#5d4808" vector-effect="non-scaling-stroke" d="
  M 20.83 71.25
  Q 21.98 71.09 21.82 72.55
  Q 21.76 73.10 22.24 73.36
  Q 23.20 73.88 23.79 74.92
  Q 24.52 76.20 25.72 77.41
  Q 27.15 78.85 28.70 80.34
  Q 30.14 81.73 32.37 82.83
  Q 34.95 84.10 37.77 85.75
  Q 39.15 86.56 40.82 86.95
  Q 42.39 87.31 43.91 87.85
  Q 48.40 89.44 56.52 89.43
  Q 57.61 89.42 58.52 89.00
  Q 59.82 88.39 61.16 88.66
  Q 61.52 88.74 61.73 88.42
  Q 62.25 87.60 63.21 87.66
  Q 64.81 87.77 66.28 87.15
  Q 67.25 86.73 68.30 86.41
  Q 72.98 84.96 76.25 81.49"
/>
<path stroke="#261e04" vector-effect="non-scaling-stroke" d="
  M 76.25 81.49
  L 82.36 77.79"
/>
<path stroke="#483806" vector-effect="non-scaling-stroke" d="
  M 76.14 60.97
  L 74.10 58.87"
/>
<path stroke="#98750d" vector-effect="non-scaling-stroke" d="
  M 74.10 58.87
  Q 75.75 54.98 75.98 53.74
  C 76.48 51.08 76.20 47.24 76.16 44.06
  Q 76.12 41.26 74.89 38.25
  Q 72.00 31.16 66.90 26.79
  A 0.91 0.89 -27.7 0 0 66.20 26.58
  Q 65.66 26.65 65.60 26.15
  Q 65.53 25.62 65.00 25.62
  L 64.50 25.62
  Q 63.96 25.62 63.83 25.09
  Q 63.71 24.59 63.18 24.63
  A 0.89 0.87 -25.3 0 1 62.48 24.39
  L 61.06 23.04
  A 0.64 0.61 -12.4 0 0 60.88 22.93
  Q 56.78 21.32 53.54 21.17
  Q 50.54 21.03 47.19 21.14
  Q 46.84 21.16 46.67 21.47
  Q 46.53 21.73 46.24 21.65
  Q 45.33 21.38 44.81 21.96
  A 1.23 1.20 -71.5 0 1 44.05 22.35
  C 43.22 22.43 42.51 22.23 41.70 22.58
  Q 39.24 23.61 36.83 24.81
  Q 36.74 24.85 36.67 24.93
  Q 36.59 25.03 36.53 25.14
  Q 36.41 25.37 36.17 25.48
  Q 33.68 26.57 32.04 28.77
  Q 30.85 30.37 29.50 31.90
  Q 28.28 33.28 27.56 35.16
  Q 26.97 36.71 26.27 38.13
  C 25.66 39.37 26.04 40.57 25.27 41.84
  Q 24.76 42.68 24.68 43.75
  Q 24.13 50.99 25.82 57.31
  Q 26.15 58.58 26.91 59.65
  Q 27.77 60.88 28.20 62.30
  Q 28.34 62.75 28.70 63.06
  Q 30.41 64.54 32.16 66.35
  Q 34.03 68.29 36.17 69.43
  Q 38.24 70.52 40.32 71.64
  Q 40.85 71.93 41.46 71.89
  Q 42.35 71.82 42.67 72.56
  Q 42.91 73.12 43.52 73.19
  Q 45.99 73.49 48.50 74.26
  C 49.29 74.50 49.79 74.31 50.51 74.02
  Q 50.98 73.83 51.48 73.86
  Q 55.59 74.16 59.85 72.84"
/>
<path stroke="#483806" vector-effect="non-scaling-stroke" d="
  M 59.85 72.84
  L 63.43 75.48"
/>
<path stroke="#85680c" vector-effect="non-scaling-stroke" d="
  M 63.43 75.48
  Q 61.38 75.47 60.74 75.99
  A 4.10 2.44 22.6 0 1 57.71 76.42
  Q 56.71 76.22 55.91 76.91
  A 0.98 0.95 -63.7 0 1 55.30 77.13
  L 46.08 77.22
  Q 45.51 77.22 45.12 76.81
  Q 44.56 76.22 43.75 76.36
  Q 43.17 76.45 42.99 75.89
  Q 42.82 75.30 42.24 75.20
  Q 41.74 75.12 41.31 74.91
  Q 39.23 73.90 37.26 73.19
  Q 35.73 72.64 34.58 71.58
  Q 33.31 70.40 31.85 69.44
  A 1.20 1.19 -82.5 0 1 31.37 68.81
  Q 31.22 68.31 30.71 68.10
  A 3.05 2.50 6.6 0 1 28.97 66.30
  Q 28.65 65.08 27.57 64.18
  A 2.13 2.10 9.1 0 1 26.96 63.35
  Q 25.68 60.22 24.36 57.20
  C 22.40 52.73 22.96 47.87 23.38 43.17
  Q 23.60 40.71 25.01 37.54
  Q 26.23 34.79 27.22 31.99"
/>
<path stroke="#6d540a" vector-effect="non-scaling-stroke" d="
  M 35.77 23.71
  L 36.72 23.47"
/>
<path stroke="#513f07" vector-effect="non-scaling-stroke" d="
  M 74.10 58.87
  L 67.49 52.22"
/>
<path stroke="#ac850f" vector-effect="non-scaling-stroke" d="
  M 67.49 52.22
  Q 68.57 46.52 67.47 41.02
  Q 67.38 40.57 67.09 40.22
  Q 65.36 38.18 64.62 35.47
  A 1.62 1.61 12.8 0 0 64.12 34.68
  Q 63.01 33.74 61.62 31.76
  Q 60.53 30.20 58.09 29.31
  Q 56.12 28.60 54.28 27.81
  Q 52.88 27.21 51.42 27.16
  Q 50.21 27.12 49.05 26.77
  C 47.51 26.30 45.49 26.94 43.85 27.06
  Q 42.47 27.16 41.31 27.85
  Q 39.66 28.83 37.64 29.79
  Q 36.53 30.32 35.69 31.26
  Q 34.80 32.26 33.87 33.11
  Q 32.60 34.26 31.68 36.23
  Q 30.33 39.08 29.58 41.54
  Q 27.78 47.36 30.36 54.72
  A 2.16 2.13 13.6 0 0 30.88 55.56
  Q 31.55 56.24 31.95 57.18
  Q 32.95 59.53 34.96 60.74
  Q 35.16 60.87 35.15 61.10
  Q 35.14 61.28 35.28 61.40
  Q 36.76 62.57 38.16 63.71
  Q 40.81 65.85 45.63 65.81
  Q 47.24 65.79 48.60 66.22
  Q 48.99 66.35 49.41 66.32
  L 52.65 66.13"
/>
<path stroke="#513f07" vector-effect="non-scaling-stroke" d="
  M 52.65 66.13
  Q 54.04 68.49 55.20 69.30
  Q 57.46 70.89 59.85 72.84"
/>
<path stroke="#5c4708" vector-effect="non-scaling-stroke" d="
  M 67.49 52.22
  Q 65.60 51.20 63.81 50.91"
/>
<path stroke="#be9410" vector-effect="non-scaling-stroke" d="
  M 63.81 50.91
  Q 65.14 47.07 64.47 43.10
  Q 64.38 42.57 64.05 42.15
  Q 63.43 41.35 63.65 40.28
  A 0.76 0.76 0.0 0 0 63.59 39.80
  L 61.29 35.00
  A 1.58 1.57 86.2 0 0 60.37 34.19
  Q 58.83 33.68 58.02 32.13
  Q 57.81 31.72 57.39 31.52
  Q 56.76 31.21 56.36 30.63
  Q 55.88 29.95 55.13 29.74
  Q 54.02 29.44 52.78 29.24
  Q 48.76 28.60 44.66 29.10
  Q 43.63 29.23 42.82 29.79
  Q 41.94 30.40 40.99 30.67
  Q 39.76 31.01 38.60 31.90
  Q 29.25 39.03 31.74 50.91
  Q 32.02 52.24 32.76 53.54
  Q 33.46 54.76 34.17 55.96
  Q 34.64 56.77 35.42 57.37
  Q 36.23 58.00 36.92 58.76
  Q 37.82 59.76 39.09 60.41
  Q 40.49 61.13 41.85 61.80
  Q 42.21 61.98 42.44 62.31
  Q 42.83 62.85 43.57 62.65
  A 1.19 1.17 -40.5 0 1 44.29 62.70
  Q 48.57 64.40 51.67 62.88"
/>
<path stroke="#5c4708" vector-effect="non-scaling-stroke" d="
  M 51.67 62.88
  Q 51.66 64.04 52.65 66.13"
/>
<path stroke="#644e09" vector-effect="non-scaling-stroke" d="
  M 63.81 50.91
  Q 60.71 50.43 57.26 51.78"
/>
<path stroke="#d1a212" vector-effect="non-scaling-stroke" d="
  M 57.26 51.78
  Q 58.47 50.21 58.15 48.22
  Q 58.07 47.69 58.37 47.24
  Q 58.89 46.47 58.48 45.62
  Q 58.30 45.25 58.65 45.04
  Q 58.77 44.96 58.82 44.83
  Q 59.03 44.28 58.64 43.84
  Q 57.83 42.91 58.16 41.61
  A 0.69 0.68 -59.5 0 0 58.00 40.98
  Q 57.20 40.11 56.98 38.92
  A 1.71 1.64 20.9 0 0 56.63 38.18
  Q 54.61 35.74 52.30 34.14
  Q 51.88 33.85 51.37 33.82
  Q 50.40 33.76 49.68 33.29
  C 48.53 32.52 46.28 32.66 44.98 32.72
  Q 44.44 32.75 44.03 33.10
  Q 43.18 33.83 41.90 33.77
  Q 41.36 33.74 40.90 34.03
  Q 35.06 37.70 34.41 45.24
  C 34.30 46.52 34.46 49.01 35.53 49.90
  C 36.16 50.43 36.13 51.43 36.65 52.14
  Q 42.36 59.92 52.87 56.11"
/>
<path stroke="#644e09" vector-effect="non-scaling-stroke" d="
  M 52.87 56.11
  Q 51.19 59.24 51.67 62.88"
/>
<path stroke="#3f3106" vector-effect="non-scaling-stroke" d="
  M 63.43 75.48
  L 70.35 79.54"
/>
<path stroke="#765c0a" vector-effect="non-scaling-stroke" d="
  M 70.35 79.54
  Q 68.66 80.37 67.10 81.22
  Q 65.47 82.10 63.86 82.38
  Q 61.75 82.76 59.69 83.49
  Q 59.24 83.65 58.77 83.59
  Q 57.08 83.36 55.68 84.10
  Q 55.23 84.33 54.72 84.31
  Q 51.25 84.15 47.73 83.96
  Q 46.39 83.89 45.21 83.46
  Q 44.04 83.03 42.86 83.12
  Q 42.26 83.16 41.75 82.84
  Q 40.66 82.16 39.36 82.13
  Q 38.85 82.12 38.40 81.86
  Q 35.28 80.01 32.52 77.72
  Q 32.14 77.69 32.13 77.32
  Q 32.11 76.91 31.76 76.69
  Q 27.95 74.33 25.57 70.41
  Q 25.35 70.05 25.36 69.64
  Q 25.36 69.15 24.90 69.03
  Q 24.43 68.90 24.21 68.47
  L 20.29 60.60
  Q 20.12 60.25 20.08 59.85
  Q 19.96 58.37 19.32 57.16
  Q 19.10 56.75 19.14 56.28
  Q 19.33 54.12 18.66 52.32"
/>
<path stroke="#6e5609" vector-effect="non-scaling-stroke" d="
  M 57.26 51.78
  Q 54.38 53.59 52.87 56.11"
/>
<path stroke="#e6b214" vector-effect="non-scaling-stroke" d="
  M 42.39 51.20
  Q 42.65 51.48 43.02 51.35
  A 0.60 0.59 63.4 0 1 43.72 51.59
  Q 44.41 52.64 45.26 52.01
  Q 45.60 51.77 45.98 51.95
  Q 46.71 52.29 47.17 51.59
  A 1.34 1.32 -75.1 0 1 48.17 51.00
  Q 50.18 50.84 51.03 48.97
  Q 51.65 47.60 52.37 46.18
  C 53.60 43.74 52.22 39.89 50.64 38.24
  Q 48.27 35.77 44.56 36.25
  Q 41.03 36.71 38.92 39.95
  Q 36.97 42.96 37.71 46.08
  Q 38.48 49.34 42.01 50.93
  Q 42.23 51.03 42.39 51.20"
/>
<path stroke="#382c05" vector-effect="non-scaling-stroke" d="
  M 76.25 81.49
  L 70.35 79.54"
/>
<path stroke="#353527" vector-effect="non-scaling-stroke" d="
  M 64.34 64.10
  A 4.79 4.65 74.2 0 0 65.52 58.36"
/>
<path stroke="#80805b" vector-effect="non-scaling-stroke" d="
  M 65.52 58.36
  A 4.79 4.64 72.9 0 0 57.19 58.17
  A 4.80 4.65 73.2 0 0 57.34 62.77
  A 4.78 4.64 74.5 0 0 64.34 64.10"
/>
<path stroke="#b4b481" vector-effect="non-scaling-stroke" d="
  M 65.52 58.36
  L 65.55 61.09
  A 1.36 1.33 63.4 0 1 65.28 61.93
  Q 64.49 63.01 64.34 64.10"
/>
<path stroke="#858584" vector-effect="non-scaling-stroke" d="
  M 73.54 124.80
  Q 73.69 125.45 74.86 125.43
  A 1.96 1.90 58.2 0 1 75.77 125.66
  Q 77.29 126.49 79.00 126.39
  Q 103.76 124.95 126.35 126.70
  A 0.77 0.76 1.7 0 0 127.18 125.92
  L 126.80 107.57"
/>
<path stroke="#8e8e8e" vector-effect="non-scaling-stroke" d="
  M 126.80 107.57
  L 127.55 66.53"
/>
<path stroke="#747473" vector-effect="non-scaling-stroke" d="
  M 126.80 107.57
  Q 126.72 105.75 126.47 104.02
  Q 126.18 102.01 126.16 100.12
  Q 125.98 87.44 126.31 73.77
  Q 126.32 72.99 126.04 72.26
  Q 125.72 71.41 125.64 70.49
  Q 125.62 70.28 125.51 70.46
  Q 125.46 70.54 125.50 70.62
  Q 125.55 70.74 125.57 70.86
  Q 126.40 75.10 126.10 79.79
  Q 125.90 83.03 125.89 86.23
  Q 125.88 94.30 125.77 102.45
  Q 125.77 102.57 125.65 102.57
  L 125.65 102.57
  Q 125.59 102.57 125.58 102.51
  Q 125.03 89.74 125.61 77.12
  Q 125.70 75.20 125.51 72.92
  Q 125.31 70.68 125.44 68.70"
/>
<path stroke="#c0c0c0" vector-effect="non-scaling-stroke" d="
  M 3.85 71.56
  L 2.06 116.32"
/>
<path stroke="#b4b4b4" vector-effect="non-scaling-stroke" d="
  M 2.06 116.32
  L 3.22 121.20
  Q 3.36 121.78 3.94 121.96
  Q 5.17 122.32 7.01 121.91
  Q 7.53 121.79 7.59 121.25
  Q 7.62 121.00 7.75 120.77
  C 8.30 119.73 9.85 118.84 10.59 117.80
  Q 11.39 116.68 12.32 115.75
  Q 16.07 112.02 17.41 110.27
  Q 17.99 109.51 17.09 107.72"
/>
<path stroke="#858584" vector-effect="non-scaling-stroke" d="
  M 56.87 113.77
  Q 53.52 115.11 48.75 114.91
  Q 39.40 114.52 30.34 114.63
  Q 28.26 114.65 26.16 114.18
  Q 22.89 113.46 20.18 114.71
  Q 19.76 114.90 19.50 115.29
  L 17.30 118.64
  Q 17.03 119.06 16.57 119.25
  Q 13.36 120.58 10.92 123.50"
/>
<path stroke="#8e8e8e" vector-effect="non-scaling-stroke" d="
  M 10.92 123.50
  Q 11.39 121.36 14.10 120.06
  Q 17.69 118.34 19.17 114.26
  Q 19.35 113.78 18.91 114.04
  Q 18.74 114.15 18.56 114.09
  A 0.46 0.45 23.6 0 0 18.04 114.29
  Q 16.01 117.79 12.15 119.64
  Q 10.93 120.22 10.32 121.45
  Q 10.11 121.88 9.78 122.24
  Q 8.72 123.40 8.83 124.94
  Q 8.87 125.51 9.43 125.57
  L 11.22 125.77"
/>
<path stroke="#858584" vector-effect="non-scaling-stroke" d="
  M 11.22 125.77
  Q 13.01 126.57 14.25 126.48
  C 27.31 125.46 40.32 125.94 53.40 125.99
  C 55.13 126.00 56.98 126.34 58.76 126.47"
/>
<path stroke="#8e8e8e" vector-effect="non-scaling-stroke" d="
  M 58.76 126.47
  Q 60.29 127.50 61.95 127.20"
/>
<path stroke="#747473" vector-effect="non-scaling-stroke" d="
  M 75.92 115.31
  Q 93.52 115.84 111.25 115.60
  Q 115.20 115.55 115.89 111.98
  Q 116.47 108.97 116.28 104.98
  Q 116.11 101.44 116.16 98.01
  Q 116.32 85.06 115.72 71.25"
/>
<path stroke="#d4d4d4" vector-effect="non-scaling-stroke" d="
  M 13.49 74.53
  Q 14.82 81.46 14.48 84.24
  Q 13.86 89.33 14.16 94.43
  C 14.40 98.54 14.10 102.68 14.77 106.63
  Q 14.85 107.14 14.67 107.62
  L 13.72 110.05
  A 1.52 1.49 87.6 0 1 12.99 110.86
  Q 12.20 111.26 12.04 112.17
  Q 11.94 112.71 11.61 113.16
  Q 10.19 115.08 8.87 117.27
  Q 7.87 118.92 5.15 120.04
  Q 4.63 120.25 4.33 119.79
  L 2.06 116.32"
/>
<path stroke="#8e8e8e" vector-effect="non-scaling-stroke" d="
  M 80.67 111.13
  Q 91.16 111.52 100.98 111.40
  Q 102.51 111.38 104.00 111.61
  Q 105.46 111.83 107.05 111.64
  Q 107.76 111.56 108.50 111.63
  Q 109.36 111.72 109.71 110.95
  A 0.94 0.93 11.2 0 1 110.53 110.41
  Q 111.19 110.40 111.10 109.76
  Q 111.01 109.18 111.50 108.84
  Q 113.57 107.40 112.39 105.62"
/>
<path stroke="#8e8e8e" vector-effect="non-scaling-stroke" d="
  M 111.72 97.35
  Q 112.65 89.73 111.87 82.27"
/>
<path stroke="#747473" vector-effect="non-scaling-stroke" d="
  M 61.56 126.84
  Q 59.87 126.21 58.76 126.47"
/>
<path stroke="#747473" vector-effect="non-scaling-stroke" d="
  M 11.22 125.77
  L 10.92 123.50"
/>
</g>
<path fill="#9f9f9f" d="
  M 0.00 0.00
  L 61.04 0.00
  L 59.30 1.23
  Q 58.16 0.35 56.69 0.62
  Q 54.42 1.03 54.22 1.04
  Q 44.49 1.30 34.75 1.30
  Q 33.63 1.30 32.72 1.80
  L 2.02 1.03
  A 0.95 0.94 1.2 0 0 1.05 1.95
  Q 0.91 7.23 2.42 12.68
  Q 2.16 25.88 1.42 38.75
  Q 1.03 45.47 1.61 58.63
  Q 1.29 59.77 0.00 61.23
  L 0.00 0.00
  Z"
/>
<path fill="#010100" d="
  M 61.04 0.00
  L 67.45 0.00
  L 70.64 2.40
  Q 71.69 7.30 71.23 11.14
  Q 71.14 11.89 71.89 11.88
  L 72.71 11.87
  Q 73.26 11.86 73.43 12.38
  L 74.32 14.95
  Q 74.29 15.11 74.31 15.25
  Q 74.35 15.49 74.59 15.56
  L 83.44 18.36
  L 92.92 23.47
  Q 93.36 23.71 93.81 23.49
  L 95.98 22.43
  Q 96.50 22.17 96.88 22.61
  L 97.36 23.17
  Q 97.91 23.81 98.54 23.24
  Q 100.64 21.38 102.52 19.38
  C 103.49 18.36 104.68 18.02 105.98 17.62
  L 109.02 18.80
  Q 109.73 20.25 111.29 21.65
  Q 115.73 25.68 111.94 29.56
  L 107.79 33.62
  A 0.67 0.66 27.5 0 0 108.15 34.75
  Q 108.98 34.90 108.88 35.67
  C 108.80 36.26 107.94 37.16 107.72 37.86
  Q 107.56 38.36 107.81 38.82
  L 111.82 46.08
  Q 112.65 52.30 115.89 52.70
  Q 116.33 52.94 116.54 54.40
  Q 116.61 54.88 117.10 54.90
  L 125.36 55.30
  L 128.00 58.87
  L 128.00 65.53
  Q 127.66 65.87 127.55 66.53
  L 125.44 68.70
  L 117.09 69.10
  Q 116.61 69.12 116.59 69.60
  Q 116.50 71.84 115.72 71.25
  Q 112.75 76.64 111.87 82.27
  L 108.13 88.89
  A 0.89 0.88 33.1 0 0 108.38 90.04
  Q 109.32 90.73 109.60 91.84
  A 0.70 0.68 -25.1 0 1 109.32 92.58
  Q 107.83 93.63 109.14 95.07
  Q 109.90 95.90 111.72 97.35
  Q 113.12 98.68 114.27 101.06
  A 1.53 1.48 38.7 0 1 114.39 102.01
  Q 113.95 104.14 112.39 105.62
  C 110.48 107.47 108.07 110.86 105.19 109.74
  C 102.81 108.82 100.93 106.11 99.03 104.41
  Q 98.49 103.92 97.91 104.39
  Q 96.31 105.70 95.00 104.38
  Q 94.50 103.87 93.91 104.28
  Q 88.06 108.20 80.67 111.13
  L 77.39 112.16
  Q 76.91 112.31 76.75 112.79
  L 75.92 115.31
  Q 72.79 116.25 73.54 124.80
  Q 71.86 126.89 69.88 128.00
  L 63.39 128.00
  L 61.95 127.20
  Q 61.65 126.78 61.56 126.84
  C 60.54 125.90 59.67 125.02 59.66 123.56
  Q 59.62 120.48 59.53 117.61
  A 0.90 0.89 -77.4 0 0 59.05 116.85
  Q 56.87 115.69 56.87 113.77
  Q 55.12 112.89 51.00 112.05
  Q 46.42 111.11 36.43 105.60
  Q 35.95 105.34 35.46 105.60
  Q 34.74 105.98 34.18 106.53
  Q 33.19 107.50 32.27 106.46
  A 1.36 1.36 0.0 0 0 30.17 106.54
  Q 28.39 108.90 26.15 111.06
  C 22.70 114.42 19.89 110.60 17.09 107.72
  C 14.97 105.85 14.82 103.28 16.69 101.21
  Q 18.73 98.95 20.47 96.97
  Q 20.87 96.52 20.55 96.00
  L 19.86 94.88
  Q 19.55 94.38 19.83 93.85
  L 21.21 91.22
  Q 21.45 90.76 21.17 90.33
  Q 16.42 83.09 14.83 75.26
  Q 14.73 74.76 14.24 74.59
  Q 13.86 74.45 13.49 74.53
  Q 11.52 74.06 11.28 72.21
  Q 11.22 71.74 10.74 71.73
  L 3.85 71.56
  Q 1.36 70.62 0.00 67.58
  L 0.00 61.23
  Q 1.29 59.77 1.61 58.63
  L 3.97 57.32
  L 10.89 57.22
  Q 11.39 57.21 11.38 56.72
  Q 11.36 54.48 13.97 54.45
  L 14.20 54.34
  Q 14.48 54.20 14.55 53.89
  Q 16.11 46.72 19.45 40.82
  Q 20.25 39.43 21.02 38.08
  Q 21.35 37.49 21.02 36.89
  L 19.89 34.87
  Q 19.62 34.39 20.04 34.04
  C 20.93 33.31 20.82 32.14 19.98 31.45
  Q 17.27 29.25 15.82 26.95
  Q 13.95 24.00 16.55 21.23
  C 18.70 18.94 21.89 14.42 25.54 17.56
  L 30.35 22.32
  Q 30.95 22.92 31.40 22.21
  Q 31.71 21.73 32.22 21.46
  Q 32.84 21.15 33.38 21.58
  L 35.63 23.38
  Q 36.13 23.05 35.77 23.71
  Q 30.84 27.24 27.22 31.99
  Q 20.27 40.79 18.66 52.32
  Q 17.45 61.99 20.83 71.25
  Q 23.31 78.86 28.37 84.08
  Q 35.27 92.90 45.68 96.23
  C 46.86 96.60 47.91 96.62 49.03 97.07
  Q 50.23 97.55 51.50 97.64
  Q 56.08 97.98 60.23 97.86
  Q 61.77 97.81 63.26 97.13
  Q 64.44 96.59 65.68 96.38
  Q 68.44 95.92 71.20 94.37
  C 72.97 93.37 75.02 93.26 76.51 91.92
  Q 78.09 90.48 79.94 89.57
  Q 82.94 88.08 83.97 86.84
  Q 85.95 84.44 88.41 82.30
  Q 89.25 81.58 89.93 80.75
  C 91.14 79.30 92.22 78.23 93.01 76.40
  Q 94.23 73.53 95.84 71.16
  Q 96.12 70.75 96.15 70.26
  L 96.19 69.76
  Q 96.23 69.12 96.87 69.02
  Q 97.40 68.93 97.37 68.39
  Q 97.34 67.97 97.54 67.61
  Q 98.49 65.83 98.38 63.76
  Q 98.35 63.18 98.89 62.96
  Q 99.31 62.78 99.12 62.29
  A 0.81 0.80 -42.6 0 1 99.15 61.66
  L 99.80 60.29
  Q 99.99 59.87 100.05 59.42
  L 100.50 56.06
  Q 100.56 55.56 100.44 55.07
  L 100.37 54.77
  A 0.92 0.90 -30.0 0 1 100.61 53.90
  Q 100.97 53.54 100.93 53.00
  Q 100.90 52.51 100.65 52.10
  Q 99.99 51.00 100.66 49.89
  A 1.43 1.42 57.9 0 0 100.86 49.00
  Q 100.76 47.95 100.34 47.17
  Q 100.08 46.68 100.12 46.12
  Q 100.35 43.42 99.65 41.07
  Q 98.76 38.07 97.47 35.03
  Q 96.41 32.53 93.98 29.85
  Q 90.44 25.95 86.18 22.94
  L 76.23 17.77
  Q 66.30 14.45 55.00 15.64
  Q 54.40 15.71 54.42 15.06
  L 54.42 13.50
  Q 54.87 11.92 56.74 11.76
  Q 57.23 11.71 57.24 11.23
  L 57.41 3.16
  L 59.30 1.23
  L 61.04 0.00
  Z
  M 63.4347 12.9200
  A 4.21 2.66 89.8 0 0 66.0800 8.7007
  A 4.21 2.66 89.8 0 0 63.4053 4.5000
  A 4.21 2.66 89.8 0 0 60.7600 8.7193
  A 4.21 2.66 89.8 0 0 63.4347 12.9200
  Z
  M 28.82 24.97
  A 2.43 2.43 0.0 0 0 26.39 22.54
  A 2.43 2.43 0.0 0 0 23.96 24.97
  A 2.43 2.43 0.0 0 0 26.39 27.40
  A 2.43 2.43 0.0 0 0 28.82 24.97
  Z
  M 106.0144 23.9912
  A 2.32 2.15 -26.6 0 0 102.9773 23.1076
  A 2.32 2.15 -26.6 0 0 101.8656 26.0688
  A 2.32 2.15 -26.6 0 0 104.9027 26.9524
  A 2.32 2.15 -26.6 0 0 106.0144 23.9912
  Z
  M 13.13 64.44
  L 13.19 60.48
  A 0.95 0.95 0.0 0 0 12.25 59.52
  L 10.74 59.50
  A 3.94 2.81 0.8 0 0 6.76 62.26
  L 6.76 62.50
  A 3.94 2.81 0.8 0 0 10.66 65.36
  L 12.17 65.38
  A 0.95 0.95 0.0 0 0 13.13 64.44
  Z
  M 123.5097 62.0811
  A 4.00 2.62 -0.7 0 0 119.4780 59.5102
  A 4.00 2.62 -0.7 0 0 115.5103 62.1789
  A 4.00 2.62 -0.7 0 0 119.5420 64.7498
  A 4.00 2.62 -0.7 0 0 123.5097 62.0811
  Z
  M 67.2877 123.3600
  A 4.39 2.14 89.9 0 0 69.4200 118.9663
  A 4.39 2.14 89.9 0 0 67.2723 114.5800
  A 4.39 2.14 89.9 0 0 65.1400 118.9737
  A 4.39 2.14 89.9 0 0 67.2877 123.3600
  Z"
/>
<path fill="#9f9f9f" d="
  M 67.45 0.00
  L 128.00 0.00
  L 128.00 38.16
  L 126.67 16.52
  Q 127.21 13.11 126.00 9.11
  Q 122.62 7.58 120.24 11.35
  Q 118.84 13.58 117.63 14.69
  Q 114.17 17.88 111.29 21.65
  Q 109.73 20.25 109.02 18.80
  Q 112.46 16.15 115.29 12.89
  Q 116.55 11.44 117.95 10.41
  Q 119.51 9.28 120.75 7.80
  C 121.52 6.89 121.62 5.84 122.68 5.11
  A 0.86 0.85 65.4 0 0 123.02 4.18
  Q 122.69 2.95 120.46 2.68
  Q 119.90 2.61 120.15 3.12
  Q 120.24 3.31 121.19 3.39
  Q 120.18 3.48 119.55 2.84
  A 1.57 1.56 71.8 0 0 118.69 2.40
  Q 113.31 1.60 107.84 1.79
  Q 104.56 1.90 101.16 1.89
  Q 85.91 1.87 70.64 2.40
  L 67.45 0.00
  Z"
/>
<path fill="#c8c8c8" d="
  M 59.30 1.23
  L 57.41 3.16
  Q 54.79 2.82 52.13 2.47
  Q 49.63 2.14 46.84 2.17
  Q 39.80 2.26 32.72 1.80
  Q 33.63 1.30 34.75 1.30
  Q 44.49 1.30 54.22 1.04
  Q 54.42 1.03 56.69 0.62
  Q 58.16 0.35 59.30 1.23
  Z"
/>
<path fill="#e0e0e0" d="
  M 32.72 1.80
  Q 39.80 2.26 46.84 2.17
  Q 49.63 2.14 52.13 2.47
  Q 54.79 2.82 57.41 3.16
  L 57.24 11.23
  Q 57.23 11.71 56.74 11.76
  Q 54.87 11.92 54.42 13.50
  C 53.99 13.82 53.64 14.12 53.08 14.16
  Q 39.27 15.00 24.46 14.50
  C 22.03 14.42 19.11 14.47 17.10 15.89
  Q 16.06 16.62 15.65 17.91
  Q 14.64 21.06 14.17 23.68
  Q 13.94 24.95 14.28 26.64
  C 15.06 30.53 14.60 35.19 14.62 39.18
  Q 14.63 42.31 14.31 46.82
  Q 14.04 50.60 13.97 54.45
  Q 11.36 54.48 11.38 56.72
  Q 11.39 57.21 10.89 57.22
  L 3.97 57.32
  Q 4.47 44.43 3.20 31.74
  Q 2.69 26.65 2.65 22.22
  Q 2.60 17.50 2.42 12.68
  Q 0.91 7.23 1.05 1.95
  A 0.95 0.94 1.2 0 1 2.02 1.03
  L 32.72 1.80
  Z"
/>
<path fill="#e0e0e0" d="
  M 121.19 3.39
  Q 120.12 8.50 115.94 9.61
  A 1.55 1.54 10.6 0 0 115.10 10.18
  Q 114.66 10.79 114.03 11.15
  Q 113.64 11.37 113.41 11.75
  Q 112.30 13.49 110.75 15.10
  Q 109.49 16.41 107.74 16.45
  Q 105.11 16.50 103.07 16.16
  Q 101.18 15.84 99.42 15.87
  Q 89.22 16.02 78.95 15.62
  Q 78.37 15.60 77.83 15.40
  Q 77.21 15.17 76.58 15.33
  Q 76.06 15.46 75.61 15.18
  Q 74.98 14.79 74.32 14.95
  L 73.43 12.38
  Q 73.26 11.86 72.71 11.87
  L 71.89 11.88
  Q 71.14 11.89 71.23 11.14
  Q 71.69 7.30 70.64 2.40
  Q 85.91 1.87 101.16 1.89
  Q 104.56 1.90 107.84 1.79
  Q 113.31 1.60 118.69 2.40
  A 1.57 1.56 71.8 0 1 119.55 2.84
  Q 120.18 3.48 121.19 3.39
  Z
  M 86.7600 2.8571
  A 0.24 0.24 0.0 0 1 86.5204 3.0975
  L 72.2204 3.1225
  A 0.24 0.24 0.0 0 1 71.9800 2.8829
  L 71.9800 2.8829
  A 0.24 0.24 0.0 0 1 72.2196 2.6425
  L 86.5196 2.6175
  A 0.24 0.24 0.0 0 1 86.7600 2.8571
  L 86.7600 2.8571
  Z
  M 75.35 14.88
  Q 86.26 15.56 98.63 15.37
  Q 101.28 15.33 103.73 15.75
  Q 106.80 16.28 109.75 15.06
  Q 109.85 15.02 109.81 14.91
  L 109.73 14.65
  Q 109.63 14.33 109.32 14.46
  Q 106.78 15.57 103.87 15.01
  Q 101.76 14.60 99.64 14.62
  Q 86.98 14.74 75.52 14.38
  Q 75.32 14.37 75.31 14.57
  L 75.30 14.83
  Q 75.30 14.88 75.35 14.88
  Z"
/>
<rect fill="#c8c8c8" x="-7.39" y="-0.24" transform="translate(79.37,2.87) rotate(-0.1)" width="14.78" height="0.48" rx="0.24"/>
<path fill="#c8c8c8" d="
  M 109.02 18.80
  L 105.98 17.62
  Q 97.06 18.78 87.77 18.37
  C 86.75 18.33 85.76 17.95 84.74 17.85
  Q 84.51 17.82 84.70 17.96
  Q 84.75 18.00 84.75 18.06
  Q 84.76 18.26 84.54 18.30
  Q 84.05 18.40 83.44 18.36
  L 74.59 15.56
  Q 74.35 15.49 74.31 15.25
  Q 74.29 15.11 74.32 14.95
  Q 74.98 14.79 75.61 15.18
  Q 76.06 15.46 76.58 15.33
  Q 77.21 15.17 77.83 15.40
  Q 78.37 15.60 78.95 15.62
  Q 89.22 16.02 99.42 15.87
  Q 101.18 15.84 103.07 16.16
  Q 105.11 16.50 107.74 16.45
  Q 109.49 16.41 110.75 15.10
  Q 112.30 13.49 113.41 11.75
  Q 113.64 11.37 114.03 11.15
  Q 114.66 10.79 115.10 10.18
  A 1.55 1.54 10.6 0 1 115.94 9.61
  Q 120.12 8.50 121.19 3.39
  Q 120.24 3.31 120.15 3.12
  Q 119.90 2.61 120.46 2.68
  Q 122.69 2.95 123.02 4.18
  A 0.86 0.85 65.4 0 1 122.68 5.11
  C 121.62 5.84 121.52 6.89 120.75 7.80
  Q 119.51 9.28 117.95 10.41
  Q 116.55 11.44 115.29 12.89
  Q 112.46 16.15 109.02 18.80
  Z"
/>
<ellipse fill="#c8c88e" cx="0.00" cy="0.00" transform="translate(63.42,8.71) rotate(89.8)" rx="4.21" ry="2.66"/>
<path fill="#7d7d7d" d="
  M 126.00 9.11
  Q 122.87 10.28 121.84 12.66
  Q 120.52 15.68 120.50 15.70
  Q 119.15 17.62 117.21 18.98
  Q 115.00 20.54 115.45 23.23
  Q 115.87 25.73 115.94 28.25
  Q 116.29 40.56 115.89 52.70
  Q 112.65 52.30 111.82 46.08
  L 111.94 29.56
  Q 115.73 25.68 111.29 21.65
  Q 114.17 17.88 117.63 14.69
  Q 118.84 13.58 120.24 11.35
  Q 122.62 7.58 126.00 9.11
  Z"
/>
<path fill="#6a6a69" d="
  M 126.00 9.11
  Q 127.21 13.11 126.67 16.52
  Q 126.01 24.15 125.46 31.75
  Q 125.10 36.76 125.36 55.30
  L 117.10 54.90
  Q 116.61 54.88 116.54 54.40
  Q 116.33 52.94 115.89 52.70
  Q 116.29 40.56 115.94 28.25
  Q 115.87 25.73 115.45 23.23
  Q 115.00 20.54 117.21 18.98
  Q 119.15 17.62 120.50 15.70
  Q 120.52 15.68 121.84 12.66
  Q 122.87 10.28 126.00 9.11
  Z"
/>
<path fill="#c8c8c8" d="
  M 2.42 12.68
  Q 2.60 17.50 2.65 22.22
  Q 2.69 26.65 3.20 31.74
  Q 4.47 44.43 3.97 57.32
  L 1.61 58.63
  Q 1.03 45.47 1.42 38.75
  Q 2.16 25.88 2.42 12.68
  Z"
/>
<path fill="#c8c8c8" d="
  M 54.42 13.50
  L 54.42 15.06
  Q 53.99 15.54 52.93 15.77
  L 48.13 17.23
  Q 38.28 18.85 28.51 18.28
  Q 27.68 18.24 27.28 17.70
  Q 26.98 17.29 26.49 17.38
  L 25.54 17.56
  C 21.89 14.42 18.70 18.94 16.55 21.23
  Q 13.95 24.00 15.82 26.95
  Q 17.27 29.25 19.98 31.45
  C 20.82 32.14 20.93 33.31 20.04 34.04
  Q 19.62 34.39 19.89 34.87
  L 21.02 36.89
  Q 21.35 37.49 21.02 38.08
  Q 20.25 39.43 19.45 40.82
  Q 16.11 46.72 14.55 53.89
  Q 14.48 54.20 14.20 54.34
  L 13.97 54.45
  Q 14.04 50.60 14.31 46.82
  Q 14.63 42.31 14.62 39.18
  C 14.60 35.19 15.06 30.53 14.28 26.64
  Q 13.94 24.95 14.17 23.68
  Q 14.64 21.06 15.65 17.91
  Q 16.06 16.62 17.10 15.89
  C 19.11 14.47 22.03 14.42 24.46 14.50
  Q 39.27 15.00 53.08 14.16
  C 53.64 14.12 53.99 13.82 54.42 13.50
  Z"
/>
<path fill="#c8c8c8" d="
  M 75.35 14.88
  Q 75.30 14.88 75.30 14.83
  L 75.31 14.57
  Q 75.32 14.37 75.52 14.38
  Q 86.98 14.74 99.64 14.62
  Q 101.76 14.60 103.87 15.01
  Q 106.78 15.57 109.32 14.46
  Q 109.63 14.33 109.73 14.65
  L 109.81 14.91
  Q 109.85 15.02 109.75 15.06
  Q 106.80 16.28 103.73 15.75
  Q 101.28 15.33 98.63 15.37
  Q 86.26 15.56 75.35 14.88
  Z"
/>
<path fill="#6f5609" d="
  M 54.42 15.06
  Q 54.40 15.71 55.00 15.64
  Q 66.30 14.45 76.23 17.77
  Q 76.08 19.46 77.75 19.42
  Q 78.24 19.41 78.60 19.74
  Q 82.69 23.47 84.74 26.84
  Q 85.56 28.19 86.46 29.53
  Q 87.36 30.87 88.07 32.32
  Q 89.23 34.71 90.14 37.15
  Q 90.52 38.18 90.71 39.43
  Q 90.86 40.41 91.13 41.42
  Q 91.86 44.21 92.22 51.22
  Q 92.24 51.71 92.51 52.12
  Q 92.94 52.80 92.44 53.45
  A 1.38 1.34 -25.7 0 0 92.16 54.21
  C 92.09 55.63 92.25 56.99 91.83 58.37
  Q 89.48 66.05 85.91 73.27
  Q 85.22 74.66 82.36 77.79
  Q 84.68 71.71 81.22 67.02
  Q 80.10 65.51 78.90 63.99
  L 79.92 64.10
  A 0.91 0.87 32.5 0 0 80.44 64.00
  Q 81.15 63.60 80.78 62.92
  Q 80.55 62.50 80.96 62.24
  Q 81.24 62.06 81.13 61.74
  Q 80.94 61.18 81.36 60.76
  C 82.28 59.82 81.95 58.91 82.37 57.82
  Q 83.30 55.33 83.38 52.71
  Q 83.64 44.61 81.63 37.02
  Q 81.05 34.82 79.88 32.60
  A 1.36 1.33 1.3 0 0 79.37 32.08
  Q 78.96 31.86 78.75 31.51
  Q 76.65 27.83 73.83 24.70
  Q 73.50 24.34 73.04 24.16
  Q 71.90 23.72 71.24 22.65
  Q 70.99 22.24 70.54 22.08
  Q 68.84 21.45 67.24 20.38
  Q 65.92 19.50 63.98 18.94
  Q 61.41 18.20 58.96 17.06
  Q 58.51 16.85 58.01 16.89
  Q 55.38 17.12 52.93 15.77
  Q 53.99 15.54 54.42 15.06
  Z"
/>
<path fill="#7c610b" d="
  M 52.93 15.77
  Q 55.38 17.12 58.01 16.89
  Q 58.51 16.85 58.96 17.06
  Q 61.41 18.20 63.98 18.94
  Q 65.92 19.50 67.24 20.38
  Q 68.84 21.45 70.54 22.08
  Q 70.99 22.24 71.24 22.65
  Q 71.90 23.72 73.04 24.16
  Q 73.50 24.34 73.83 24.70
  Q 76.65 27.83 78.75 31.51
  Q 78.96 31.86 79.37 32.08
  A 1.36 1.33 1.3 0 1 79.88 32.60
  Q 81.05 34.82 81.63 37.02
  Q 83.64 44.61 83.38 52.71
  Q 83.30 55.33 82.37 57.82
  C 81.95 58.91 82.28 59.82 81.36 60.76
  Q 80.94 61.18 81.13 61.74
  Q 81.24 62.06 80.96 62.24
  Q 80.55 62.50 80.78 62.92
  Q 81.15 63.60 80.44 64.00
  A 0.91 0.87 32.5 0 1 79.92 64.10
  L 78.90 63.99
  L 76.14 60.97
  Q 77.41 59.51 77.61 57.13
  Q 77.65 56.64 77.91 56.21
  Q 78.59 55.08 78.35 53.82
  Q 78.27 53.42 78.59 53.17
  Q 78.78 53.01 78.92 52.80
  Q 79.09 52.53 79.10 52.21
  Q 79.25 48.64 79.06 45.16
  Q 78.87 41.72 76.48 36.05
  C 76.32 35.67 76.38 35.44 76.37 35.05
  Q 76.37 34.77 76.24 34.53
  Q 73.21 28.94 68.98 25.98
  Q 67.98 25.28 66.82 24.89
  Q 66.16 24.67 65.95 23.96
  Q 65.79 23.46 65.31 23.24
  Q 63.01 22.17 60.44 21.03
  C 59.40 20.57 58.55 20.79 57.57 20.34
  C 55.62 19.42 52.82 19.61 50.69 19.57
  Q 48.91 19.54 47.30 20.02
  Q 45.54 20.54 43.70 20.80
  Q 42.15 21.01 40.31 21.95
  Q 38.60 22.82 36.72 23.47
  L 42.40 19.93
  L 48.13 17.23
  L 52.93 15.77
  Z"
/>
<path fill="#7d7d7d" d="
  M 126.67 16.52
  L 128.00 38.16
  L 128.00 58.87
  L 125.36 55.30
  Q 125.10 36.76 125.46 31.75
  Q 126.01 24.15 126.67 16.52
  Z"
/>
<path fill="#9f9f9f" d="
  M 48.13 17.23
  L 42.40 19.93
  L 35.63 23.38
  L 33.38 21.58
  Q 32.84 21.15 32.22 21.46
  Q 31.71 21.73 31.40 22.21
  Q 30.95 22.92 30.35 22.32
  L 25.54 17.56
  L 26.49 17.38
  Q 26.98 17.29 27.28 17.70
  Q 27.68 18.24 28.51 18.28
  Q 38.28 18.85 48.13 17.23
  Z"
/>
<path fill="#9f9f9f" d="
  M 105.98 17.62
  C 104.68 18.02 103.49 18.36 102.52 19.38
  Q 100.64 21.38 98.54 23.24
  Q 97.91 23.81 97.36 23.17
  L 96.88 22.61
  Q 96.50 22.17 95.98 22.43
  L 93.81 23.49
  Q 93.36 23.71 92.92 23.47
  L 83.44 18.36
  Q 84.05 18.40 84.54 18.30
  Q 84.76 18.26 84.75 18.06
  Q 84.75 18.00 84.70 17.96
  Q 84.51 17.82 84.74 17.85
  C 85.76 17.95 86.75 18.33 87.77 18.37
  Q 97.06 18.78 105.98 17.62
  Z"
/>
<path fill="#4b3a07" d="
  M 76.23 17.77
  L 86.18 22.94
  Q 86.06 24.80 87.50 25.27
  Q 87.97 25.43 88.27 25.83
  Q 88.72 26.44 88.86 27.17
  Q 88.94 27.56 89.31 27.67
  Q 90.08 27.89 90.35 28.63
  Q 90.89 30.08 91.70 31.46
  Q 92.40 32.65 92.70 33.75
  Q 93.02 34.94 93.68 36.08
  Q 93.92 36.49 93.86 36.96
  Q 93.70 38.34 94.34 39.71
  Q 94.90 40.93 95.11 42.14
  Q 96.27 48.82 95.77 56.19
  Q 95.65 58.01 94.14 63.78
  Q 94.11 63.87 94.04 63.95
  Q 93.95 64.05 93.77 64.01
  Q 93.62 63.97 93.62 64.12
  Q 93.63 65.74 92.66 67.00
  Q 92.35 67.40 92.26 67.90
  Q 91.85 70.13 90.84 71.81
  Q 89.89 73.40 88.84 75.06
  Q 87.80 76.70 86.40 78.16
  Q 84.68 79.96 83.25 81.73
  Q 81.84 83.47 79.75 84.72
  Q 77.66 85.98 75.91 87.43
  C 75.12 88.08 74.32 88.23 73.50 88.78
  Q 72.67 89.33 71.72 89.64
  Q 67.44 91.04 63.36 92.30
  Q 60.87 93.07 57.98 93.28
  Q 41.69 94.43 28.37 84.08
  Q 23.31 78.86 20.83 71.25
  Q 21.98 71.09 21.82 72.55
  Q 21.76 73.10 22.24 73.36
  Q 23.20 73.88 23.79 74.92
  Q 24.52 76.20 25.72 77.41
  Q 27.15 78.85 28.70 80.34
  Q 30.14 81.73 32.37 82.83
  Q 34.95 84.10 37.77 85.75
  Q 39.15 86.56 40.82 86.95
  Q 42.39 87.31 43.91 87.85
  Q 48.40 89.44 56.52 89.43
  Q 57.61 89.42 58.52 89.00
  Q 59.82 88.39 61.16 88.66
  Q 61.52 88.74 61.73 88.42
  Q 62.25 87.60 63.21 87.66
  Q 64.81 87.77 66.28 87.15
  Q 67.25 86.73 68.30 86.41
  Q 72.98 84.96 76.25 81.49
  L 82.36 77.79
  Q 85.22 74.66 85.91 73.27
  Q 89.48 66.05 91.83 58.37
  C 92.25 56.99 92.09 55.63 92.16 54.21
  A 1.38 1.34 -25.7 0 1 92.44 53.45
  Q 92.94 52.80 92.51 52.12
  Q 92.24 51.71 92.22 51.22
  Q 91.86 44.21 91.13 41.42
  Q 90.86 40.41 90.71 39.43
  Q 90.52 38.18 90.14 37.15
  Q 89.23 34.71 88.07 32.32
  Q 87.36 30.87 86.46 29.53
  Q 85.56 28.19 84.74 26.84
  Q 82.69 23.47 78.60 19.74
  Q 78.24 19.41 77.75 19.42
  Q 76.08 19.46 76.23 17.77
  Z"
/>
<path fill="#8e6e0c" d="
  M 76.14 60.97
  L 74.10 58.87
  Q 75.75 54.98 75.98 53.74
  C 76.48 51.08 76.20 47.24 76.16 44.06
  Q 76.12 41.26 74.89 38.25
  Q 72.00 31.16 66.90 26.79
  A 0.91 0.89 -27.7 0 0 66.20 26.58
  Q 65.66 26.65 65.60 26.15
  Q 65.53 25.62 65.00 25.62
  L 64.50 25.62
  Q 63.96 25.62 63.83 25.09
  Q 63.71 24.59 63.18 24.63
  A 0.89 0.87 -25.3 0 1 62.48 24.39
  L 61.06 23.04
  A 0.64 0.61 -12.4 0 0 60.88 22.93
  Q 56.78 21.32 53.54 21.17
  Q 50.54 21.03 47.19 21.14
  Q 46.84 21.16 46.67 21.47
  Q 46.53 21.73 46.24 21.65
  Q 45.33 21.38 44.81 21.96
  A 1.23 1.20 -71.5 0 1 44.05 22.35
  C 43.22 22.43 42.51 22.23 41.70 22.58
  Q 39.24 23.61 36.83 24.81
  Q 36.74 24.85 36.67 24.93
  Q 36.59 25.03 36.53 25.14
  Q 36.41 25.37 36.17 25.48
  Q 33.68 26.57 32.04 28.77
  Q 30.85 30.37 29.50 31.90
  Q 28.28 33.28 27.56 35.16
  Q 26.97 36.71 26.27 38.13
  C 25.66 39.37 26.04 40.57 25.27 41.84
  Q 24.76 42.68 24.68 43.75
  Q 24.13 50.99 25.82 57.31
  Q 26.15 58.58 26.91 59.65
  Q 27.77 60.88 28.20 62.30
  Q 28.34 62.75 28.70 63.06
  Q 30.41 64.54 32.16 66.35
  Q 34.03 68.29 36.17 69.43
  Q 38.24 70.52 40.32 71.64
  Q 40.85 71.93 41.46 71.89
  Q 42.35 71.82 42.67 72.56
  Q 42.91 73.12 43.52 73.19
  Q 45.99 73.49 48.50 74.26
  C 49.29 74.50 49.79 74.31 50.51 74.02
  Q 50.98 73.83 51.48 73.86
  Q 55.59 74.16 59.85 72.84
  L 63.43 75.48
  Q 61.38 75.47 60.74 75.99
  A 4.10 2.44 22.6 0 1 57.71 76.42
  Q 56.71 76.22 55.91 76.91
  A 0.98 0.95 -63.7 0 1 55.30 77.13
  L 46.08 77.22
  Q 45.51 77.22 45.12 76.81
  Q 44.56 76.22 43.75 76.36
  Q 43.17 76.45 42.99 75.89
  Q 42.82 75.30 42.24 75.20
  Q 41.74 75.12 41.31 74.91
  Q 39.23 73.90 37.26 73.19
  Q 35.73 72.64 34.58 71.58
  Q 33.31 70.40 31.85 69.44
  A 1.20 1.19 -82.5 0 1 31.37 68.81
  Q 31.22 68.31 30.71 68.10
  A 3.05 2.50 6.6 0 1 28.97 66.30
  Q 28.65 65.08 27.57 64.18
  A 2.13 2.10 9.1 0 1 26.96 63.35
  Q 25.68 60.22 24.36 57.20
  C 22.40 52.73 22.96 47.87 23.38 43.17
  Q 23.60 40.71 25.01 37.54
  Q 26.23 34.79 27.22 31.99
  Q 30.84 27.24 35.77 23.71
  L 36.72 23.47
  Q 38.60 22.82 40.31 21.95
  Q 42.15 21.01 43.70 20.80
  Q 45.54 20.54 47.30 20.02
  Q 48.91 19.54 50.69 19.57
  C 52.82 19.61 55.62 19.42 57.57 20.34
  C 58.55 20.79 59.40 20.57 60.44 21.03
  Q 63.01 22.17 65.31 23.24
  Q 65.79 23.46 65.95 23.96
  Q 66.16 24.67 66.82 24.89
  Q 67.98 25.28 68.98 25.98
  Q 73.21 28.94 76.24 34.53
  Q 76.37 34.77 76.37 35.05
  C 76.38 35.44 76.32 35.67 76.48 36.05
  Q 78.87 41.72 79.06 45.16
  Q 79.25 48.64 79.10 52.21
  Q 79.09 52.53 78.92 52.80
  Q 78.78 53.01 78.59 53.17
  Q 78.27 53.42 78.35 53.82
  Q 78.59 55.08 77.91 56.21
  Q 77.65 56.64 77.61 57.13
  Q 77.41 59.51 76.14 60.97
  Z"
/>
<path fill="#4b3a07" d="
  M 42.40 19.93
  L 36.72 23.47
  L 35.77 23.71
  Q 36.13 23.05 35.63 23.38
  L 42.40 19.93
  Z"
/>
<path fill="#a17c0e" d="
  M 74.10 58.87
  L 67.49 52.22
  Q 68.57 46.52 67.47 41.02
  Q 67.38 40.57 67.09 40.22
  Q 65.36 38.18 64.62 35.47
  A 1.62 1.61 12.8 0 0 64.12 34.68
  Q 63.01 33.74 61.62 31.76
  Q 60.53 30.20 58.09 29.31
  Q 56.12 28.60 54.28 27.81
  Q 52.88 27.21 51.42 27.16
  Q 50.21 27.12 49.05 26.77
  C 47.51 26.30 45.49 26.94 43.85 27.06
  Q 42.47 27.16 41.31 27.85
  Q 39.66 28.83 37.64 29.79
  Q 36.53 30.32 35.69 31.26
  Q 34.80 32.26 33.87 33.11
  Q 32.60 34.26 31.68 36.23
  Q 30.33 39.08 29.58 41.54
  Q 27.78 47.36 30.36 54.72
  A 2.16 2.13 13.6 0 0 30.88 55.56
  Q 31.55 56.24 31.95 57.18
  Q 32.95 59.53 34.96 60.74
  Q 35.16 60.87 35.15 61.10
  Q 35.14 61.28 35.28 61.40
  Q 36.76 62.57 38.16 63.71
  Q 40.81 65.85 45.63 65.81
  Q 47.24 65.79 48.60 66.22
  Q 48.99 66.35 49.41 66.32
  L 52.65 66.13
  Q 54.04 68.49 55.20 69.30
  Q 57.46 70.89 59.85 72.84
  Q 55.59 74.16 51.48 73.86
  Q 50.98 73.83 50.51 74.02
  C 49.79 74.31 49.29 74.50 48.50 74.26
  Q 45.99 73.49 43.52 73.19
  Q 42.91 73.12 42.67 72.56
  Q 42.35 71.82 41.46 71.89
  Q 40.85 71.93 40.32 71.64
  Q 38.24 70.52 36.17 69.43
  Q 34.03 68.29 32.16 66.35
  Q 30.41 64.54 28.70 63.06
  Q 28.34 62.75 28.20 62.30
  Q 27.77 60.88 26.91 59.65
  Q 26.15 58.58 25.82 57.31
  Q 24.13 50.99 24.68 43.75
  Q 24.76 42.68 25.27 41.84
  C 26.04 40.57 25.66 39.37 26.27 38.13
  Q 26.97 36.71 27.56 35.16
  Q 28.28 33.28 29.50 31.90
  Q 30.85 30.37 32.04 28.77
  Q 33.68 26.57 36.17 25.48
  Q 36.41 25.37 36.53 25.14
  Q 36.59 25.03 36.67 24.93
  Q 36.74 24.85 36.83 24.81
  Q 39.24 23.61 41.70 22.58
  C 42.51 22.23 43.22 22.43 44.05 22.35
  A 1.23 1.20 -71.5 0 0 44.81 21.96
  Q 45.33 21.38 46.24 21.65
  Q 46.53 21.73 46.67 21.47
  Q 46.84 21.16 47.19 21.14
  Q 50.54 21.03 53.54 21.17
  Q 56.78 21.32 60.88 22.93
  A 0.64 0.61 -12.4 0 1 61.06 23.04
  L 62.48 24.39
  A 0.89 0.87 -25.3 0 0 63.18 24.63
  Q 63.71 24.59 63.83 25.09
  Q 63.96 25.62 64.50 25.62
  L 65.00 25.62
  Q 65.53 25.62 65.60 26.15
  Q 65.66 26.65 66.20 26.58
  A 0.91 0.89 -27.7 0 1 66.90 26.79
  Q 72.00 31.16 74.89 38.25
  Q 76.12 41.26 76.16 44.06
  C 76.20 47.24 76.48 51.08 75.98 53.74
  Q 75.75 54.98 74.10 58.87
  Z"
/>
<circle fill="#69694d" cx="26.39" cy="24.97" r="2.43"/>
<ellipse fill="#69694d" cx="0.00" cy="0.00" transform="translate(103.94,25.03) rotate(-26.6)" rx="2.32" ry="2.15"/>
<path fill="#281e03" d="
  M 86.18 22.94
  Q 90.44 25.95 93.98 29.85
  Q 96.41 32.53 97.47 35.03
  Q 98.76 38.07 99.65 41.07
  Q 100.35 43.42 100.12 46.12
  Q 100.08 46.68 100.34 47.17
  Q 100.76 47.95 100.86 49.00
  A 1.43 1.42 57.9 0 1 100.66 49.89
  Q 99.99 51.00 100.65 52.10
  Q 100.90 52.51 100.93 53.00
  Q 100.97 53.54 100.61 53.90
  A 0.92 0.90 -30.0 0 0 100.37 54.77
  L 100.44 55.07
  Q 100.56 55.56 100.50 56.06
  L 100.05 59.42
  Q 99.99 59.87 99.80 60.29
  L 99.15 61.66
  A 0.81 0.80 -42.6 0 0 99.12 62.29
  Q 99.31 62.78 98.89 62.96
  Q 98.35 63.18 98.38 63.76
  Q 98.49 65.83 97.54 67.61
  Q 97.34 67.97 97.37 68.39
  Q 97.40 68.93 96.87 69.02
  Q 96.23 69.12 96.19 69.76
  L 96.15 70.26
  Q 96.12 70.75 95.84 71.16
  Q 94.23 73.53 93.01 76.40
  C 92.22 78.23 91.14 79.30 89.93 80.75
  Q 89.25 81.58 88.41 82.30
  Q 85.95 84.44 83.97 86.84
  Q 82.94 88.08 79.94 89.57
  Q 78.09 90.48 76.51 91.92
  C 75.02 93.26 72.97 93.37 71.20 94.37
  Q 68.44 95.92 65.68 96.38
  Q 64.44 96.59 63.26 97.13
  Q 61.77 97.81 60.23 97.86
  Q 56.08 97.98 51.50 97.64
  Q 50.23 97.55 49.03 97.07
  C 47.91 96.62 46.86 96.60 45.68 96.23
  Q 35.27 92.90 28.37 84.08
  Q 41.69 94.43 57.98 93.28
  Q 60.87 93.07 63.36 92.30
  Q 67.44 91.04 71.72 89.64
  Q 72.67 89.33 73.50 88.78
  C 74.32 88.23 75.12 88.08 75.91 87.43
  Q 77.66 85.98 79.75 84.72
  Q 81.84 83.47 83.25 81.73
  Q 84.68 79.96 86.40 78.16
  Q 87.80 76.70 88.84 75.06
  Q 89.89 73.40 90.84 71.81
  Q 91.85 70.13 92.26 67.90
  Q 92.35 67.40 92.66 67.00
  Q 93.63 65.74 93.62 64.12
  Q 93.62 63.97 93.77 64.01
  Q 93.95 64.05 94.04 63.95
  Q 94.11 63.87 94.14 63.78
  Q 95.65 58.01 95.77 56.19
  Q 96.27 48.82 95.11 42.14
  Q 94.90 40.93 94.34 39.71
  Q 93.70 38.34 93.86 36.96
  Q 93.92 36.49 93.68 36.08
  Q 93.02 34.94 92.70 33.75
  Q 92.40 32.65 91.70 31.46
  Q 90.89 30.08 90.35 28.63
  Q 90.08 27.89 89.31 27.67
  Q 88.94 27.56 88.86 27.17
  Q 88.72 26.44 88.27 25.83
  Q 87.97 25.43 87.50 25.27
  Q 86.06 24.80 86.18 22.94
  Z"
/>
<path fill="#b68d0f" d="
  M 67.49 52.22
  Q 65.60 51.20 63.81 50.91
  Q 65.14 47.07 64.47 43.10
  Q 64.38 42.57 64.05 42.15
  Q 63.43 41.35 63.65 40.28
  A 0.76 0.76 0.0 0 0 63.59 39.80
  L 61.29 35.00
  A 1.58 1.57 86.2 0 0 60.37 34.19
  Q 58.83 33.68 58.02 32.13
  Q 57.81 31.72 57.39 31.52
  Q 56.76 31.21 56.36 30.63
  Q 55.88 29.95 55.13 29.74
  Q 54.02 29.44 52.78 29.24
  Q 48.76 28.60 44.66 29.10
  Q 43.63 29.23 42.82 29.79
  Q 41.94 30.40 40.99 30.67
  Q 39.76 31.01 38.60 31.90
  Q 29.25 39.03 31.74 50.91
  Q 32.02 52.24 32.76 53.54
  Q 33.46 54.76 34.17 55.96
  Q 34.64 56.77 35.42 57.37
  Q 36.23 58.00 36.92 58.76
  Q 37.82 59.76 39.09 60.41
  Q 40.49 61.13 41.85 61.80
  Q 42.21 61.98 42.44 62.31
  Q 42.83 62.85 43.57 62.65
  A 1.19 1.17 -40.5 0 1 44.29 62.70
  Q 48.57 64.40 51.67 62.88
  Q 51.66 64.04 52.65 66.13
  L 49.41 66.32
  Q 48.99 66.35 48.60 66.22
  Q 47.24 65.79 45.63 65.81
  Q 40.81 65.85 38.16 63.71
  Q 36.76 62.57 35.28 61.40
  Q 35.14 61.28 35.15 61.10
  Q 35.16 60.87 34.96 60.74
  Q 32.95 59.53 31.95 57.18
  Q 31.55 56.24 30.88 55.56
  A 2.16 2.13 13.6 0 1 30.36 54.72
  Q 27.78 47.36 29.58 41.54
  Q 30.33 39.08 31.68 36.23
  Q 32.60 34.26 33.87 33.11
  Q 34.80 32.26 35.69 31.26
  Q 36.53 30.32 37.64 29.79
  Q 39.66 28.83 41.31 27.85
  Q 42.47 27.16 43.85 27.06
  C 45.49 26.94 47.51 26.30 49.05 26.77
  Q 50.21 27.12 51.42 27.16
  Q 52.88 27.21 54.28 27.81
  Q 56.12 28.60 58.09 29.31
  Q 60.53 30.20 61.62 31.76
  Q 63.01 33.74 64.12 34.68
  A 1.62 1.61 12.8 0 1 64.62 35.47
  Q 65.36 38.18 67.09 40.22
  Q 67.38 40.57 67.47 41.02
  Q 68.57 46.52 67.49 52.22
  Z"
/>
<path fill="#c69a11" d="
  M 63.81 50.91
  Q 60.71 50.43 57.26 51.78
  Q 58.47 50.21 58.15 48.22
  Q 58.07 47.69 58.37 47.24
  Q 58.89 46.47 58.48 45.62
  Q 58.30 45.25 58.65 45.04
  Q 58.77 44.96 58.82 44.83
  Q 59.03 44.28 58.64 43.84
  Q 57.83 42.91 58.16 41.61
  A 0.69 0.68 -59.5 0 0 58.00 40.98
  Q 57.20 40.11 56.98 38.92
  A 1.71 1.64 20.9 0 0 56.63 38.18
  Q 54.61 35.74 52.30 34.14
  Q 51.88 33.85 51.37 33.82
  Q 50.40 33.76 49.68 33.29
  C 48.53 32.52 46.28 32.66 44.98 32.72
  Q 44.44 32.75 44.03 33.10
  Q 43.18 33.83 41.90 33.77
  Q 41.36 33.74 40.90 34.03
  Q 35.06 37.70 34.41 45.24
  C 34.30 46.52 34.46 49.01 35.53 49.90
  C 36.16 50.43 36.13 51.43 36.65 52.14
  Q 42.36 59.92 52.87 56.11
  Q 51.19 59.24 51.67 62.88
  Q 48.57 64.40 44.29 62.70
  A 1.19 1.17 -40.5 0 0 43.57 62.65
  Q 42.83 62.85 42.44 62.31
  Q 42.21 61.98 41.85 61.80
  Q 40.49 61.13 39.09 60.41
  Q 37.82 59.76 36.92 58.76
  Q 36.23 58.00 35.42 57.37
  Q 34.64 56.77 34.17 55.96
  Q 33.46 54.76 32.76 53.54
  Q 32.02 52.24 31.74 50.91
  Q 29.25 39.03 38.60 31.90
  Q 39.76 31.01 40.99 30.67
  Q 41.94 30.40 42.82 29.79
  Q 43.63 29.23 44.66 29.10
  Q 48.76 28.60 52.78 29.24
  Q 54.02 29.44 55.13 29.74
  Q 55.88 29.95 56.36 30.63
  Q 56.76 31.21 57.39 31.52
  Q 57.81 31.72 58.02 32.13
  Q 58.83 33.68 60.37 34.19
  A 1.58 1.57 86.2 0 1 61.29 35.00
  L 63.59 39.80
  A 0.76 0.76 0.0 0 1 63.65 40.28
  Q 63.43 41.35 64.05 42.15
  Q 64.38 42.57 64.47 43.10
  Q 65.14 47.07 63.81 50.91
  Z"
/>
<path fill="#9f9f9f" d="
  M 111.94 29.56
  L 111.82 46.08
  L 107.81 38.82
  Q 107.56 38.36 107.72 37.86
  C 107.94 37.16 108.80 36.26 108.88 35.67
  Q 108.98 34.90 108.15 34.75
  A 0.67 0.66 27.5 0 1 107.79 33.62
  L 111.94 29.56
  Z"
/>
<path fill="#7c610b" d="
  M 27.22 31.99
  Q 26.23 34.79 25.01 37.54
  Q 23.60 40.71 23.38 43.17
  C 22.96 47.87 22.40 52.73 24.36 57.20
  Q 25.68 60.22 26.96 63.35
  A 2.13 2.10 9.1 0 0 27.57 64.18
  Q 28.65 65.08 28.97 66.30
  A 3.05 2.50 6.6 0 0 30.71 68.10
  Q 31.22 68.31 31.37 68.81
  A 1.20 1.19 -82.5 0 0 31.85 69.44
  Q 33.31 70.40 34.58 71.58
  Q 35.73 72.64 37.26 73.19
  Q 39.23 73.90 41.31 74.91
  Q 41.74 75.12 42.24 75.20
  Q 42.82 75.30 42.99 75.89
  Q 43.17 76.45 43.75 76.36
  Q 44.56 76.22 45.12 76.81
  Q 45.51 77.22 46.08 77.22
  L 55.30 77.13
  A 0.98 0.95 -63.7 0 0 55.91 76.91
  Q 56.71 76.22 57.71 76.42
  A 4.10 2.44 22.6 0 0 60.74 75.99
  Q 61.38 75.47 63.43 75.48
  L 70.35 79.54
  Q 68.66 80.37 67.10 81.22
  Q 65.47 82.10 63.86 82.38
  Q 61.75 82.76 59.69 83.49
  Q 59.24 83.65 58.77 83.59
  Q 57.08 83.36 55.68 84.10
  Q 55.23 84.33 54.72 84.31
  Q 51.25 84.15 47.73 83.96
  Q 46.39 83.89 45.21 83.46
  Q 44.04 83.03 42.86 83.12
  Q 42.26 83.16 41.75 82.84
  Q 40.66 82.16 39.36 82.13
  Q 38.85 82.12 38.40 81.86
  Q 35.28 80.01 32.52 77.72
  Q 32.14 77.69 32.13 77.32
  Q 32.11 76.91 31.76 76.69
  Q 27.95 74.33 25.57 70.41
  Q 25.35 70.05 25.36 69.64
  Q 25.36 69.15 24.90 69.03
  Q 24.43 68.90 24.21 68.47
  L 20.29 60.60
  Q 20.12 60.25 20.08 59.85
  Q 19.96 58.37 19.32 57.16
  Q 19.10 56.75 19.14 56.28
  Q 19.33 54.12 18.66 52.32
  Q 20.27 40.79 27.22 31.99
  Z"
/>
<path fill="#dbaa12" d="
  M 57.26 51.78
  Q 54.38 53.59 52.87 56.11
  Q 42.36 59.92 36.65 52.14
  C 36.13 51.43 36.16 50.43 35.53 49.90
  C 34.46 49.01 34.30 46.52 34.41 45.24
  Q 35.06 37.70 40.90 34.03
  Q 41.36 33.74 41.90 33.77
  Q 43.18 33.83 44.03 33.10
  Q 44.44 32.75 44.98 32.72
  C 46.28 32.66 48.53 32.52 49.68 33.29
  Q 50.40 33.76 51.37 33.82
  Q 51.88 33.85 52.30 34.14
  Q 54.61 35.74 56.63 38.18
  A 1.71 1.64 20.9 0 1 56.98 38.92
  Q 57.20 40.11 58.00 40.98
  A 0.69 0.68 -59.5 0 1 58.16 41.61
  Q 57.83 42.91 58.64 43.84
  Q 59.03 44.28 58.82 44.83
  Q 58.77 44.96 58.65 45.04
  Q 58.30 45.25 58.48 45.62
  Q 58.89 46.47 58.37 47.24
  Q 58.07 47.69 58.15 48.22
  Q 58.47 50.21 57.26 51.78
  Z
  M 42.39 51.20
  Q 42.65 51.48 43.02 51.35
  A 0.60 0.59 63.4 0 1 43.72 51.59
  Q 44.41 52.64 45.26 52.01
  Q 45.60 51.77 45.98 51.95
  Q 46.71 52.29 47.17 51.59
  A 1.34 1.32 -75.1 0 1 48.17 51.00
  Q 50.18 50.84 51.03 48.97
  Q 51.65 47.60 52.37 46.18
  C 53.60 43.74 52.22 39.89 50.64 38.24
  Q 48.27 35.77 44.56 36.25
  Q 41.03 36.71 38.92 39.95
  Q 36.97 42.96 37.71 46.08
  Q 38.48 49.34 42.01 50.93
  Q 42.23 51.03 42.39 51.20
  Z"
/>
<path fill="#f1ba15" d="
  M 42.01 50.93
  Q 38.48 49.34 37.71 46.08
  Q 36.97 42.96 38.92 39.95
  Q 41.03 36.71 44.56 36.25
  Q 48.27 35.77 50.64 38.24
  C 52.22 39.89 53.60 43.74 52.37 46.18
  Q 51.65 47.60 51.03 48.97
  Q 50.18 50.84 48.17 51.00
  A 1.34 1.32 -75.1 0 0 47.17 51.59
  Q 46.71 52.29 45.98 51.95
  Q 45.60 51.77 45.26 52.01
  Q 44.41 52.64 43.72 51.59
  A 0.60 0.59 63.4 0 0 43.02 51.35
  Q 42.65 51.48 42.39 51.20
  Q 42.23 51.03 42.01 50.93
  Z"
/>
<path fill="#010100" d="
  M 63.81 50.91
  Q 65.60 51.20 67.49 52.22
  L 74.10 58.87
  L 76.14 60.97
  L 78.90 63.99
  Q 80.10 65.51 81.22 67.02
  Q 84.68 71.71 82.36 77.79
  L 76.25 81.49
  L 70.35 79.54
  L 63.43 75.48
  L 59.85 72.84
  Q 57.46 70.89 55.20 69.30
  Q 54.04 68.49 52.65 66.13
  Q 51.66 64.04 51.67 62.88
  Q 51.19 59.24 52.87 56.11
  Q 54.38 53.59 57.26 51.78
  Q 60.71 50.43 63.81 50.91
  Z
  M 64.34 64.10
  A 4.79 4.65 74.2 0 0 65.52 58.36
  A 4.79 4.64 72.9 0 0 57.19 58.17
  A 4.80 4.65 73.2 0 0 57.34 62.77
  A 4.78 4.64 74.5 0 0 64.34 64.10
  Z"
/>
<path fill="#6f5609" d="
  M 18.66 52.32
  Q 19.33 54.12 19.14 56.28
  Q 19.10 56.75 19.32 57.16
  Q 19.96 58.37 20.08 59.85
  Q 20.12 60.25 20.29 60.60
  L 24.21 68.47
  Q 24.43 68.90 24.90 69.03
  Q 25.36 69.15 25.36 69.64
  Q 25.35 70.05 25.57 70.41
  Q 27.95 74.33 31.76 76.69
  Q 32.11 76.91 32.13 77.32
  Q 32.14 77.69 32.52 77.72
  Q 35.28 80.01 38.40 81.86
  Q 38.85 82.12 39.36 82.13
  Q 40.66 82.16 41.75 82.84
  Q 42.26 83.16 42.86 83.12
  Q 44.04 83.03 45.21 83.46
  Q 46.39 83.89 47.73 83.96
  Q 51.25 84.15 54.72 84.31
  Q 55.23 84.33 55.68 84.10
  Q 57.08 83.36 58.77 83.59
  Q 59.24 83.65 59.69 83.49
  Q 61.75 82.76 63.86 82.38
  Q 65.47 82.10 67.10 81.22
  Q 68.66 80.37 70.35 79.54
  L 76.25 81.49
  Q 72.98 84.96 68.30 86.41
  Q 67.25 86.73 66.28 87.15
  Q 64.81 87.77 63.21 87.66
  Q 62.25 87.60 61.73 88.42
  Q 61.52 88.74 61.16 88.66
  Q 59.82 88.39 58.52 89.00
  Q 57.61 89.42 56.52 89.43
  Q 48.40 89.44 43.91 87.85
  Q 42.39 87.31 40.82 86.95
  Q 39.15 86.56 37.77 85.75
  Q 34.95 84.10 32.37 82.83
  Q 30.14 81.73 28.70 80.34
  Q 27.15 78.85 25.72 77.41
  Q 24.52 76.20 23.79 74.92
  Q 23.20 73.88 22.24 73.36
  Q 21.76 73.10 21.82 72.55
  Q 21.98 71.09 20.83 71.25
  Q 17.45 61.99 18.66 52.32
  Z"
/>
<path fill="#fffeb5" d="
  M 65.52 58.36
  L 65.55 61.09
  A 1.36 1.33 63.4 0 1 65.28 61.93
  Q 64.49 63.01 64.34 64.10
  A 4.78 4.64 74.5 0 1 57.34 62.77
  A 4.80 4.65 73.2 0 1 57.19 58.17
  A 4.79 4.64 72.9 0 1 65.52 58.36
  Z"
/>
<path fill="#69694d" d="
  M 65.52 58.36
  A 4.79 4.65 74.2 0 1 64.34 64.10
  Q 64.49 63.01 65.28 61.93
  A 1.36 1.33 63.4 0 0 65.55 61.09
  L 65.52 58.36
  Z"
/>
<path fill="#c8c88e" d="
  M 13.13 64.44
  A 0.95 0.95 0.0 0 1 12.17 65.38
  L 10.66 65.36
  A 3.94 2.81 0.8 0 1 6.76 62.50
  L 6.76 62.26
  A 3.94 2.81 0.8 0 1 10.74 59.50
  L 12.25 59.52
  A 0.95 0.95 0.0 0 1 13.19 60.48
  L 13.13 64.44
  Z"
/>
<ellipse fill="#281e03" cx="0.00" cy="0.00" transform="translate(119.51,62.13) rotate(-0.7)" rx="4.00" ry="2.62"/>
<path fill="#9f9f9f" d="
  M 128.00 65.53
  L 128.00 128.00
  L 69.88 128.00
  Q 71.86 126.89 73.54 124.80
  Q 73.69 125.45 74.86 125.43
  A 1.96 1.90 58.2 0 1 75.77 125.66
  Q 77.29 126.49 79.00 126.39
  Q 103.76 124.95 126.35 126.70
  A 0.77 0.76 1.7 0 0 127.18 125.92
  L 126.80 107.57
  L 127.55 66.53
  Q 127.66 65.87 128.00 65.53
  Z"
/>
<path fill="#7d7d7d" d="
  M 127.55 66.53
  L 126.80 107.57
  Q 126.72 105.75 126.47 104.02
  Q 126.18 102.01 126.16 100.12
  Q 125.98 87.44 126.31 73.77
  Q 126.32 72.99 126.04 72.26
  Q 125.72 71.41 125.64 70.49
  Q 125.62 70.28 125.51 70.46
  Q 125.46 70.54 125.50 70.62
  Q 125.55 70.74 125.57 70.86
  Q 126.40 75.10 126.10 79.79
  Q 125.90 83.03 125.89 86.23
  Q 125.88 94.30 125.77 102.45
  Q 125.77 102.57 125.65 102.57
  L 125.65 102.57
  Q 125.59 102.57 125.58 102.51
  Q 125.03 89.74 125.61 77.12
  Q 125.70 75.20 125.51 72.92
  Q 125.31 70.68 125.44 68.70
  L 127.55 66.53
  Z"
/>
<path fill="#9f9f9f" d="
  M 0.00 67.58
  Q 1.36 70.62 3.85 71.56
  L 2.06 116.32
  L 3.22 121.20
  Q 3.36 121.78 3.94 121.96
  Q 5.17 122.32 7.01 121.91
  Q 7.53 121.79 7.59 121.25
  Q 7.62 121.00 7.75 120.77
  C 8.30 119.73 9.85 118.84 10.59 117.80
  Q 11.39 116.68 12.32 115.75
  Q 16.07 112.02 17.41 110.27
  Q 17.99 109.51 17.09 107.72
  C 19.89 110.60 22.70 114.42 26.15 111.06
  Q 28.39 108.90 30.17 106.54
  A 1.36 1.36 0.0 0 1 32.27 106.46
  Q 33.19 107.50 34.18 106.53
  Q 34.74 105.98 35.46 105.60
  Q 35.95 105.34 36.43 105.60
  Q 46.42 111.11 51.00 112.05
  Q 55.12 112.89 56.87 113.77
  Q 53.52 115.11 48.75 114.91
  Q 39.40 114.52 30.34 114.63
  Q 28.26 114.65 26.16 114.18
  Q 22.89 113.46 20.18 114.71
  Q 19.76 114.90 19.50 115.29
  L 17.30 118.64
  Q 17.03 119.06 16.57 119.25
  Q 13.36 120.58 10.92 123.50
  Q 11.39 121.36 14.10 120.06
  Q 17.69 118.34 19.17 114.26
  Q 19.35 113.78 18.91 114.04
  Q 18.74 114.15 18.56 114.09
  A 0.46 0.45 23.6 0 0 18.04 114.29
  Q 16.01 117.79 12.15 119.64
  Q 10.93 120.22 10.32 121.45
  Q 10.11 121.88 9.78 122.24
  Q 8.72 123.40 8.83 124.94
  Q 8.87 125.51 9.43 125.57
  L 11.22 125.77
  Q 13.01 126.57 14.25 126.48
  C 27.31 125.46 40.32 125.94 53.40 125.99
  C 55.13 126.00 56.98 126.34 58.76 126.47
  Q 60.29 127.50 61.95 127.20
  L 63.39 128.00
  L 0.00 128.00
  L 0.00 67.58
  Z"
/>
<path fill="#6a6a69" d="
  M 125.44 68.70
  Q 125.31 70.68 125.51 72.92
  Q 125.70 75.20 125.61 77.12
  Q 125.03 89.74 125.58 102.51
  Q 125.59 102.57 125.65 102.57
  L 125.65 102.57
  Q 125.77 102.57 125.77 102.45
  Q 125.88 94.30 125.89 86.23
  Q 125.90 83.03 126.10 79.79
  Q 126.40 75.10 125.57 70.86
  Q 125.55 70.74 125.50 70.62
  Q 125.46 70.54 125.51 70.46
  Q 125.62 70.28 125.64 70.49
  Q 125.72 71.41 126.04 72.26
  Q 126.32 72.99 126.31 73.77
  Q 125.98 87.44 126.16 100.12
  Q 126.18 102.01 126.47 104.02
  Q 126.72 105.75 126.80 107.57
  L 127.18 125.92
  A 0.77 0.76 1.7 0 1 126.35 126.70
  Q 103.76 124.95 79.00 126.39
  Q 77.29 126.49 75.77 125.66
  A 1.96 1.90 58.2 0 0 74.86 125.43
  Q 73.69 125.45 73.54 124.80
  Q 72.79 116.25 75.92 115.31
  Q 93.52 115.84 111.25 115.60
  Q 115.20 115.55 115.89 111.98
  Q 116.47 108.97 116.28 104.98
  Q 116.11 101.44 116.16 98.01
  Q 116.32 85.06 115.72 71.25
  Q 116.50 71.84 116.59 69.60
  Q 116.61 69.12 117.09 69.10
  L 125.44 68.70
  Z"
/>
<path fill="#e0e0e0" d="
  M 3.85 71.56
  L 10.74 71.73
  Q 11.22 71.74 11.28 72.21
  Q 11.52 74.06 13.49 74.53
  Q 14.82 81.46 14.48 84.24
  Q 13.86 89.33 14.16 94.43
  C 14.40 98.54 14.10 102.68 14.77 106.63
  Q 14.85 107.14 14.67 107.62
  L 13.72 110.05
  A 1.52 1.49 87.6 0 1 12.99 110.86
  Q 12.20 111.26 12.04 112.17
  Q 11.94 112.71 11.61 113.16
  Q 10.19 115.08 8.87 117.27
  Q 7.87 118.92 5.15 120.04
  Q 4.63 120.25 4.33 119.79
  L 2.06 116.32
  L 3.85 71.56
  Z"
/>
<path fill="#7d7d7d" d="
  M 115.72 71.25
  Q 116.32 85.06 116.16 98.01
  Q 116.11 101.44 116.28 104.98
  Q 116.47 108.97 115.89 111.98
  Q 115.20 115.55 111.25 115.60
  Q 93.52 115.84 75.92 115.31
  L 76.75 112.79
  Q 76.91 112.31 77.39 112.16
  L 80.67 111.13
  Q 91.16 111.52 100.98 111.40
  Q 102.51 111.38 104.00 111.61
  Q 105.46 111.83 107.05 111.64
  Q 107.76 111.56 108.50 111.63
  Q 109.36 111.72 109.71 110.95
  A 0.94 0.93 11.2 0 1 110.53 110.41
  Q 111.19 110.40 111.10 109.76
  Q 111.01 109.18 111.50 108.84
  Q 113.57 107.40 112.39 105.62
  Q 113.95 104.14 114.39 102.01
  A 1.53 1.48 38.7 0 0 114.27 101.06
  Q 113.12 98.68 111.72 97.35
  Q 112.65 89.73 111.87 82.27
  Q 112.75 76.64 115.72 71.25
  Z"
/>
<path fill="#c8c8c8" d="
  M 13.49 74.53
  Q 13.86 74.45 14.24 74.59
  Q 14.73 74.76 14.83 75.26
  Q 16.42 83.09 21.17 90.33
  Q 21.45 90.76 21.21 91.22
  L 19.83 93.85
  Q 19.55 94.38 19.86 94.88
  L 20.55 96.00
  Q 20.87 96.52 20.47 96.97
  Q 18.73 98.95 16.69 101.21
  C 14.82 103.28 14.97 105.85 17.09 107.72
  Q 17.99 109.51 17.41 110.27
  Q 16.07 112.02 12.32 115.75
  Q 11.39 116.68 10.59 117.80
  C 9.85 118.84 8.30 119.73 7.75 120.77
  Q 7.62 121.00 7.59 121.25
  Q 7.53 121.79 7.01 121.91
  Q 5.17 122.32 3.94 121.96
  Q 3.36 121.78 3.22 121.20
  L 2.06 116.32
  L 4.33 119.79
  Q 4.63 120.25 5.15 120.04
  Q 7.87 118.92 8.87 117.27
  Q 10.19 115.08 11.61 113.16
  Q 11.94 112.71 12.04 112.17
  Q 12.20 111.26 12.99 110.86
  A 1.52 1.49 87.6 0 0 13.72 110.05
  L 14.67 107.62
  Q 14.85 107.14 14.77 106.63
  C 14.10 102.68 14.40 98.54 14.16 94.43
  Q 13.86 89.33 14.48 84.24
  Q 14.82 81.46 13.49 74.53
  Z"
/>
<path fill="#9f9f9f" d="
  M 111.87 82.27
  Q 112.65 89.73 111.72 97.35
  Q 109.90 95.90 109.14 95.07
  Q 107.83 93.63 109.32 92.58
  A 0.70 0.68 -25.1 0 0 109.60 91.84
  Q 109.32 90.73 108.38 90.04
  A 0.89 0.88 33.1 0 1 108.13 88.89
  L 111.87 82.27
  Z"
/>
<path fill="#9f9f9f" d="
  M 112.39 105.62
  Q 113.57 107.40 111.50 108.84
  Q 111.01 109.18 111.10 109.76
  Q 111.19 110.40 110.53 110.41
  A 0.94 0.93 11.2 0 0 109.71 110.95
  Q 109.36 111.72 108.50 111.63
  Q 107.76 111.56 107.05 111.64
  Q 105.46 111.83 104.00 111.61
  Q 102.51 111.38 100.98 111.40
  Q 91.16 111.52 80.67 111.13
  Q 88.06 108.20 93.91 104.28
  Q 94.50 103.87 95.00 104.38
  Q 96.31 105.70 97.91 104.39
  Q 98.49 103.92 99.03 104.41
  C 100.93 106.11 102.81 108.82 105.19 109.74
  C 108.07 110.86 110.48 107.47 112.39 105.62
  Z"
/>
<path fill="#6a6a69" d="
  M 56.87 113.77
  Q 56.87 115.69 59.05 116.85
  A 0.90 0.89 -77.4 0 1 59.53 117.61
  Q 59.62 120.48 59.66 123.56
  C 59.67 125.02 60.54 125.90 61.56 126.84
  Q 59.87 126.21 58.76 126.47
  C 56.98 126.34 55.13 126.00 53.40 125.99
  C 40.32 125.94 27.31 125.46 14.25 126.48
  Q 13.01 126.57 11.22 125.77
  L 10.92 123.50
  Q 13.36 120.58 16.57 119.25
  Q 17.03 119.06 17.30 118.64
  L 19.50 115.29
  Q 19.76 114.90 20.18 114.71
  Q 22.89 113.46 26.16 114.18
  Q 28.26 114.65 30.34 114.63
  Q 39.40 114.52 48.75 114.91
  Q 53.52 115.11 56.87 113.77
  Z"
/>
<path fill="#7d7d7d" d="
  M 10.92 123.50
  L 11.22 125.77
  L 9.43 125.57
  Q 8.87 125.51 8.83 124.94
  Q 8.72 123.40 9.78 122.24
  Q 10.11 121.88 10.32 121.45
  Q 10.93 120.22 12.15 119.64
  Q 16.01 117.79 18.04 114.29
  A 0.46 0.45 23.6 0 1 18.56 114.09
  Q 18.74 114.15 18.91 114.04
  Q 19.35 113.78 19.17 114.26
  Q 17.69 118.34 14.10 120.06
  Q 11.39 121.36 10.92 123.50
  Z"
/>
<ellipse fill="#281e03" cx="0.00" cy="0.00" transform="translate(67.28,118.97) rotate(89.9)" rx="4.39" ry="2.14"/>
<path fill="#7d7d7d" d="
  M 58.76 126.47
  Q 59.87 126.21 61.56 126.84
  Q 61.65 126.78 61.95 127.20
  Q 60.29 127.50 58.76 126.47
  Z"
/>
</svg>
