<?xml version="1.0" encoding="UTF-8" standalone="no"?>
<!DOCTYPE svg PUBLIC "-//W3C//DTD SVG 1.1//EN" "http://www.w3.org/Graphics/SVG/1.1/DTD/svg11.dtd">
<svg xmlns="http://www.w3.org/2000/svg" version="1.1" viewBox="0.00 0.00 128.00 128.00">
<g stroke-width="2.00" fill="none" stroke-linecap="butt">
<path stroke="#3d1c5f" vector-effect="non-scaling-stroke" d="
  M 1.45 0.00
  Q 0.40 1.22 0.46 2.76
  Q 1.10 19.71 0.74 36.70
  Q 0.73 37.24 1.24 37.38
  Q 1.80 37.54 2.52 36.78"
/>
<path stroke="#5a2888" vector-effect="non-scaling-stroke" d="
  M 2.52 36.78
  Q 2.75 37.04 2.44 37.31
  Q 2.25 37.47 2.08 37.63
  Q 1.63 38.05 1.06 37.77
  A 0.59 0.59 0.0 0 0 0.21 38.28
  Q -0.08 48.15 0.87 57.31
  A 0.08 0.08 0.0 0 0 0.99 57.38
  Q 4.73 55.48 6.81 53.59
  Q 6.85 53.55 6.85 53.50
  Q 7.09 49.05 7.36 45.44
  Q 7.63 41.78 7.31 38.06
  Q 6.58 29.73 6.91 20.96
  C 6.96 19.68 6.38 18.56 6.38 17.31
  Q 6.37 9.57 6.28 1.61
  Q 6.27 0.38 5.04 0.38
  L 4.01 0.38
  Q 2.81 0.38 2.92 1.57
  Q 4.51 17.93 3.25 33.55"
/>
<path stroke="#3d1c5f" vector-effect="non-scaling-stroke" d="
  M 3.25 33.55
  Q 3.84 21.87 2.68 10.37
  Q 2.41 7.61 2.38 5.60
  Q 2.35 3.21 2.37 0.82
  Q 2.37 0.52 2.16 0.31
  Q 1.95 0.10 2.00 0.00"
/>
<path stroke="#5c3bac" vector-effect="non-scaling-stroke" d="
  M 14.13 0.00
  Q 13.65 0.36 11.92 0.27
  A 0.97 0.97 0.0 0 0 10.89 1.23
  L 10.39 32.55"
/>
<path stroke="#772a94" vector-effect="non-scaling-stroke" d="
  M 10.39 32.55
  Q 10.43 33.86 9.94 38.00
  Q 8.64 49.09 10.27 61.81"
/>
<path stroke="#5a2888" vector-effect="non-scaling-stroke" d="
  M 10.27 61.81
  Q 10.84 64.97 12.70 71.25
  Q 13.29 73.27 14.15 74.43
  A 0.82 0.80 -52.3 0 1 14.24 75.21
  Q 14.07 75.64 13.57 75.71
  Q 13.01 75.79 13.50 76.06
  L 13.80 76.23"
/>
<path stroke="#a46ebc" vector-effect="non-scaling-stroke" d="
  M 13.80 76.23
  Q 12.83 76.08 11.75 76.60"
/>
<path stroke="#5a2888" vector-effect="non-scaling-stroke" d="
  M 11.75 76.60
  L 5.55 77.80
  Q 5.06 77.90 4.66 78.20
  Q 3.35 79.20 1.44 78.94"
/>
<path stroke="#3d1c5f" vector-effect="non-scaling-stroke" d="
  M 1.44 78.94
  Q 2.55 78.24 2.38 77.25
  Q 2.08 75.55 2.26 74.33
  Q 2.43 73.14 2.25 72.07
  C 1.73 68.95 2.20 65.30 1.95 62.07
  A 0.43 0.43 0.0 0 0 1.44 61.68
  L 1.18 61.73
  Q 0.58 61.84 0.53 62.46
  L 0.00 68.49"
/>
<path stroke="#48206a" vector-effect="non-scaling-stroke" d="
  M 3.25 33.55
  L 2.52 36.78"
/>
<path stroke="#b285eb" vector-effect="non-scaling-stroke" d="
  M 34.94 0.00
  Q 29.42 3.26 25.15 7.66"
/>
<path stroke="#b361e7" vector-effect="non-scaling-stroke" d="
  M 25.15 7.66
  L 19.29 14.83"
/>
<path stroke="#a351dc" vector-effect="non-scaling-stroke" d="
  M 19.29 14.83
  L 14.42 24.75"
/>
<path stroke="#8541c3" vector-effect="non-scaling-stroke" d="
  M 14.42 24.75
  L 11.57 29.97
  A 0.56 0.55 9.2 0 1 11.15 30.27
  Q 10.60 30.34 10.73 29.85
  A 0.06 0.06 0.0 0 0 10.63 29.80
  Q 10.47 30.00 10.49 30.25
  Q 10.56 31.42 10.39 32.55"
/>
<path stroke="#fa94f7" vector-effect="non-scaling-stroke" d="
  M 38.92 0.00
  L 26.28 8.77
  A 0.76 0.75 74.5 0 1 25.10 8.10
  Q 25.11 7.92 25.15 7.66"
/>
<path stroke="#a54ab8" vector-effect="non-scaling-stroke" d="
  M 55.82 0.00
  L 61.12 0.70"
/>
<path stroke="#cc4b8f" vector-effect="non-scaling-stroke" d="
  M 61.12 0.70
  Q 58.50 0.99 55.95 1.29
  Q 53.39 1.60 50.94 2.50
  Q 47.37 3.81 44.57 5.06
  Q 40.04 7.09 33.89 12.40
  Q 27.74 17.71 24.78 23.74"
/>
<path stroke="#be4ba0" vector-effect="non-scaling-stroke" d="
  M 24.78 23.74
  L 23.11 27.18"
/>
<path stroke="#ec60e9" vector-effect="non-scaling-stroke" d="
  M 23.11 27.18
  Q 21.61 24.56 23.48 21.86
  Q 23.99 21.13 23.94 19.78
  C 23.90 18.64 23.24 17.79 23.20 16.63
  Q 23.18 16.06 22.72 15.71
  Q 22.39 15.46 22.22 15.08
  Q 21.93 14.44 21.36 14.83
  Q 19.38 16.14 19.29 14.83"
/>
<path stroke="#a03eb5" vector-effect="non-scaling-stroke" d="
  M 75.51 0.00
  L 70.59 0.55"
/>
<path stroke="#752554" vector-effect="non-scaling-stroke" d="
  M 70.59 0.55
  L 61.12 0.70"
/>
<path stroke="#f764f0" vector-effect="non-scaling-stroke" d="
  M 92.45 0.00
  Q 94.72 2.27 97.35 4.01
  Q 98.63 4.86 100.58 6.62
  Q 102.32 8.20 104.25 8.79
  Q 106.29 9.41 106.09 7.75"
/>
<path stroke="#c450dd" vector-effect="non-scaling-stroke" d="
  M 106.09 7.75
  L 112.47 15.33"
/>
<path stroke="#db4bd8" vector-effect="non-scaling-stroke" d="
  M 112.47 15.33
  Q 112.10 19.21 108.74 21.23
  Q 107.33 22.07 105.43 21.06"
/>
<path stroke="#c73f8b" vector-effect="non-scaling-stroke" d="
  M 105.43 21.06
  L 103.28 17.92"
/>
<path stroke="#f764f0" vector-effect="non-scaling-stroke" d="
  M 103.28 17.92
  Q 104.62 17.94 103.69 15.85
  Q 103.35 15.10 102.62 14.22
  Q 100.72 11.95 99.00 9.73
  C 97.37 7.64 94.77 6.68 92.58 5.29
  A 1.73 1.61 29.8 0 0 90.18 5.85
  Q 90.18 5.85 90.43 6.70"
/>
<path stroke="#c73f8b" vector-effect="non-scaling-stroke" d="
  M 90.43 6.70
  Q 81.81 1.79 75.50 1.20
  Q 71.59 0.83 70.59 0.55"
/>
<path stroke="#c85ce1" vector-effect="non-scaling-stroke" d="
  M 97.11 0.00
  L 106.09 7.75"
/>
<path stroke="#7236a6" vector-effect="non-scaling-stroke" d="
  M 112.85 0.00
  Q 116.14 0.73 119.41 0.00"
/>
<path stroke="#7236a6" vector-effect="non-scaling-stroke" d="
  M 121.71 0.00
  L 128.00 0.63"
/>
<path stroke="#7d3ab1" vector-effect="non-scaling-stroke" d="
  M 128.00 5.25
  Q 126.74 5.18 125.11 5.74
  Q 123.83 6.18 121.77 5.61
  Q 121.57 5.56 121.70 5.40
  Q 121.95 5.08 121.15 5.27
  A 0.71 0.70 -88.6 0 0 120.61 5.79
  L 119.45 10.46
  A 1.46 1.45 -49.0 0 0 119.51 11.34
  Q 120.06 12.74 119.36 14.01
  Q 119.12 14.45 118.65 14.65
  Q 114.92 16.23 115.42 20.21"
/>
<path stroke="#ac43c9" vector-effect="non-scaling-stroke" d="
  M 115.42 20.21
  L 112.47 15.33"
/>
<path stroke="#cc4b8f" vector-effect="non-scaling-stroke" d="
  M 90.43 6.70
  Q 97.92 11.05 103.28 17.92"
/>
<path stroke="#b03277" vector-effect="non-scaling-stroke" d="
  M 105.43 21.06
  Q 111.56 30.63 113.00 41.54
  Q 113.79 47.52 112.40 53.97"
/>
<path stroke="#831d27" vector-effect="non-scaling-stroke" d="
  M 112.40 53.97
  Q 111.38 48.59 111.56 46.76
  Q 111.65 45.93 111.20 45.65
  Q 110.86 45.43 110.72 45.05
  L 109.38 41.50
  Q 108.95 40.34 109.18 41.55
  Q 109.31 42.21 109.33 42.82
  Q 109.35 43.70 108.97 42.90
  Q 108.35 41.61 108.04 40.46
  Q 108.02 40.41 108.04 40.37
  Q 108.06 40.30 108.11 40.34
  Q 108.15 40.37 108.15 40.42
  Q 108.19 43.17 107.70 46.39
  Q 107.67 46.54 107.61 46.41
  Q 107.19 45.55 107.16 44.69
  Q 107.16 44.50 107.03 44.64
  Q 106.98 44.70 106.97 44.79
  Q 106.97 45.52 106.89 44.79
  Q 106.79 43.87 106.74 43.80
  Q 105.72 42.22 105.33 44.06
  Q 104.44 48.21 103.38 52.55
  Q 102.17 57.51 100.46 60.69
  Q 96.71 67.64 91.05 72.54
  A 1.74 1.73 -69.9 0 1 90.20 72.94
  Q 89.58 73.04 89.12 73.54
  C 88.06 74.69 86.28 75.51 84.92 76.36
  C 84.29 76.76 83.50 76.75 83.02 77.16
  Q 82.48 77.60 81.86 77.90
  Q 79.88 78.84 77.98 79.65
  Q 76.33 80.36 74.47 80.51
  Q 72.43 80.67 70.74 81.63
  Q 70.23 81.92 69.64 81.89
  Q 67.43 81.79 65.84 83.24
  Q 63.62 85.26 63.35 82.28
  Q 63.28 81.45 63.10 80.56
  Q 62.99 80.02 62.59 80.41
  Q 61.72 81.25 60.47 80.98
  Q 56.23 80.06 51.48 78.66
  Q 46.98 77.34 43.56 75.02
  Q 32.16 67.27 27.25 54.22
  Q 25.79 50.34 25.81 46.35
  Q 25.83 41.26 25.56 36.61
  Q 25.54 36.15 25.10 35.99
  Q 24.34 35.72 23.75 35.02"
/>
<path stroke="#8f253b" vector-effect="non-scaling-stroke" d="
  M 23.75 35.02
  Q 23.36 31.80 24.21 28.58
  Q 24.29 28.27 24.48 28.01
  Q 24.72 27.68 24.49 27.32
  Q 24.19 26.85 24.38 26.33
  Q 24.86 25.03 24.78 23.74"
/>
<path stroke="#cb6224" vector-effect="non-scaling-stroke" d="
  M 37.48 14.06
  L 31.93 21.41"
/>
<path stroke="#c94720" vector-effect="non-scaling-stroke" d="
  M 31.93 21.41
  Q 30.44 23.13 29.84 24.84"
/>
<path stroke="#bb3727" vector-effect="non-scaling-stroke" d="
  M 29.84 24.84
  Q 27.07 30.23 26.62 33.76
  Q 25.80 40.30 28.69 48.19
  Q 32.75 59.29 44.72 58.71"
/>
<path stroke="#c94720" vector-effect="non-scaling-stroke" d="
  M 44.72 58.71
  L 63.28 58.82
  A 0.70 0.70 0.0 0 1 63.98 59.51
  L 64.08 65.98"
/>
<path stroke="#cc9158" vector-effect="non-scaling-stroke" d="
  M 64.08 65.98
  L 64.35 76.41"
/>
<path stroke="#ca5019" vector-effect="non-scaling-stroke" d="
  M 64.35 76.41
  L 64.23 82.86
  A 0.34 0.34 0.0 0 0 64.83 83.09
  Q 67.06 80.52 69.24 77.82
  Q 71.41 75.12 73.70 72.62
  Q 83.20 62.23 91.33 50.75"
/>
<path stroke="#bb3727" vector-effect="non-scaling-stroke" d="
  M 91.33 50.75
  Q 93.12 49.86 94.88 48.88
  Q 95.44 48.57 96.05 48.61
  Q 96.54 48.65 96.98 48.41
  Q 99.44 47.09 102.14 46.49
  Q 102.66 46.38 103.01 45.98
  Q 103.82 45.03 104.00 43.92
  Q 105.56 34.44 101.37 25.40
  Q 99.57 21.51 97.42 18.40"
/>
<path stroke="#cb6224" vector-effect="non-scaling-stroke" d="
  M 97.42 18.40
  Q 94.27 13.60 91.66 11.95"
/>
<path stroke="#cc8d62" vector-effect="non-scaling-stroke" d="
  M 91.66 11.95
  Q 85.95 5.93 78.22 3.63
  C 63.33 -0.80 47.74 2.16 37.48 14.06"
/>
<path stroke="#fbc95c" vector-effect="non-scaling-stroke" d="
  M 91.66 11.95
  Q 86.80 11.25 82.44 9.82
  Q 80.67 9.25 78.98 9.06
  C 75.97 8.73 73.12 8.09 70.07 8.11
  Q 62.21 8.17 55.26 9.81
  Q 50.24 11.00 45.07 13.65
  C 43.16 14.63 41.07 14.74 39.00 15.72
  A 0.95 0.95 0.0 0 1 37.65 14.80
  Q 37.65 14.73 37.48 14.06"
/>
<path stroke="#ea7420" vector-effect="non-scaling-stroke" d="
  M 97.42 18.40
  Q 95.67 20.83 95.53 23.51
  A 2.51 2.50 -0.7 0 1 93.22 25.87
  C 91.40 26.01 89.03 26.05 87.39 25.05
  Q 86.31 24.39 85.04 24.15
  Q 84.54 24.06 84.15 24.38
  L 82.75 25.52"
/>
<path stroke="#f9ac29" vector-effect="non-scaling-stroke" d="
  M 82.75 25.52
  L 86.43 20.08
  Q 86.72 19.66 86.57 19.17
  Q 86.21 17.99 84.20 17.56"
/>
<path stroke="#fbcd51" vector-effect="non-scaling-stroke" d="
  M 84.20 17.56
  Q 78.97 15.32 73.32 15.12"
/>
<path stroke="#f9ac29" vector-effect="non-scaling-stroke" d="
  M 73.32 15.12
  Q 65.36 13.79 60.24 14.21
  Q 58.24 14.37 56.32 16.86"
/>
<path stroke="#f88319" vector-effect="non-scaling-stroke" d="
  M 56.32 16.86
  L 56.80 15.45
  Q 56.94 15.05 57.29 14.82
  Q 57.47 14.71 57.55 14.54
  Q 57.86 13.94 57.24 13.69
  Q 53.97 12.36 50.88 13.01
  Q 49.39 13.33 47.78 13.96
  Q 46.18 14.58 44.87 15.55
  Q 39.82 19.27 34.86 23.51
  A 1.68 1.68 0.0 0 1 32.11 22.50
  L 31.93 21.41"
/>
<path stroke="#fadb5d" vector-effect="non-scaling-stroke" d="
  M 84.20 17.56
  Q 81.47 19.54 79.68 22.36"
/>
<path stroke="#fcfdad" vector-effect="non-scaling-stroke" d="
  M 79.68 22.36
  Q 80.96 19.34 78.77 18.86
  A 1.54 1.52 -53.4 0 0 77.67 19.03
  Q 75.82 20.08 74.81 21.65
  Q 74.00 22.91 73.05 24.01
  C 71.95 25.29 69.62 27.43 69.95 29.20
  Q 70.15 30.28 71.45 30.84
  Q 72.57 31.33 73.79 31.31"
/>
<path stroke="#fadb5d" vector-effect="non-scaling-stroke" d="
  M 73.79 31.31
  Q 69.24 38.50 65.95 46.99
  A 1.01 1.01 0.0 0 0 66.80 48.36
  L 81.03 49.59"
/>
<path stroke="#f9bc46" vector-effect="non-scaling-stroke" d="
  M 81.03 49.59
  L 65.18 77.43
  A 0.27 0.27 0.0 0 1 64.69 77.38
  L 64.35 76.41"
/>
<path stroke="#fadb5d" vector-effect="non-scaling-stroke" d="
  M 73.32 15.12
  L 62.67 15.21
  Q 62.21 15.21 61.90 15.57
  Q 61.73 15.77 61.71 16.06
  Q 61.68 16.50 61.42 16.85
  Q 55.73 24.67 52.53 30.75
  Q 48.96 37.53 46.73 41.08"
/>
<path stroke="#f79125" vector-effect="non-scaling-stroke" d="
  M 56.32 16.86
  Q 48.10 26.08 45.53 38.16
  Q 45.35 39.00 45.35 39.81
  Q 45.39 43.82 46.73 41.08"
/>
<path stroke="#f9b24d" vector-effect="non-scaling-stroke" d="
  M 46.73 41.08
  L 42.63 49.18
  A 0.44 0.44 0.0 0 0 43.02 49.81
  L 63.69 50.18
  A 0.47 0.46 -89.4 0 1 64.14 50.65
  L 64.08 65.98"
/>
<path stroke="#e8591c" vector-effect="non-scaling-stroke" d="
  M 44.72 58.71
  Q 42.34 56.21 41.26 51.70
  Q 41.10 51.06 41.21 50.29
  Q 41.31 49.52 41.40 48.84
  Q 41.46 48.35 40.96 48.39
  Q 40.40 48.43 40.38 47.78
  Q 40.25 43.80 39.41 40.31
  Q 38.86 37.99 38.24 35.46
  Q 37.68 33.17 36.41 31.56
  Q 34.32 28.91 32.03 26.60
  Q 31.61 26.17 31.29 26.68
  Q 31.22 26.79 31.09 26.84
  Q 30.47 27.06 30.12 26.59
  Q 29.73 26.04 29.84 24.84"
/>
<path stroke="#e96215" vector-effect="non-scaling-stroke" d="
  M 91.33 50.75
  L 93.38 46.87
  A 2.02 2.02 0.0 0 0 92.89 44.37
  C 88.78 40.96 82.24 39.03 77.07 37.85
  Q 76.57 37.73 76.35 37.27
  Q 76.05 36.65 75.99 35.90"
/>
<path stroke="#e9822c" vector-effect="non-scaling-stroke" d="
  M 82.75 25.52
  L 75.99 35.90"
/>
<path stroke="#f89b1e" vector-effect="non-scaling-stroke" d="
  M 75.99 35.90
  Q 73.55 37.86 73.35 40.18
  A 3.23 3.22 8.3 0 0 75.92 43.62
  L 82.79 45.02
  Q 83.95 45.26 83.29 46.24
  L 81.03 49.59"
/>
<path stroke="#fbdc85" vector-effect="non-scaling-stroke" d="
  M 73.79 31.31
  L 79.68 22.36"
/>
<path stroke="#48206a" vector-effect="non-scaling-stroke" d="
  M 128.00 64.26
  C 127.65 61.01 128.85 56.90 126.15 55.28
  Q 124.52 54.30 124.54 52.29
  Q 124.57 50.56 126.22 50.35
  Q 127.40 50.21 127.43 49.02
  C 127.57 42.42 128.08 35.61 127.60 28.92
  A 0.25 0.25 0.0 0 0 127.34 28.69
  L 127.08 28.70
  A 0.35 0.34 -89.0 0 0 126.75 29.03
  Q 126.40 35.02 125.86 40.90
  Q 125.83 41.31 125.56 41.64
  Q 125.16 42.14 124.66 42.55
  Q 124.29 42.86 124.06 42.43
  Q 123.57 41.50 123.52 40.46
  Q 123.50 39.95 122.99 39.94
  L 122.71 39.94
  Q 122.38 39.93 122.38 40.26
  L 122.37 48.82"
/>
<path stroke="#9435ab" vector-effect="non-scaling-stroke" d="
  M 122.37 48.82
  Q 122.20 33.51 115.42 20.21"
/>
<path stroke="#f79125" vector-effect="non-scaling-stroke" d="
  M 41.1423 33.6310
  A 2.04 1.09 74.0 0 0 41.6278 31.3696
  A 2.04 1.09 74.0 0 0 40.0177 29.7090
  A 2.04 1.09 74.0 0 0 39.5322 31.9704
  A 2.04 1.09 74.0 0 0 41.1423 33.6310"
/>
<path stroke="#af3a95" vector-effect="non-scaling-stroke" d="
  M 23.11 27.18
  Q 18.85 34.78 18.46 44.24"
/>
<path stroke="#be40c5" vector-effect="non-scaling-stroke" d="
  M 18.46 44.24
  Q 16.45 43.65 14.57 41.42
  Q 14.20 41.00 13.66 41.10
  Q 12.10 41.41 11.06 40.53
  A 0.04 0.04 0.0 0 0 11.00 40.57
  Q 11.08 40.78 10.89 40.90
  Q 10.51 41.14 10.46 40.69
  Q 10.06 37.59 10.69 35.26
  Q 11.44 32.47 14.42 24.75"
/>
<path stroke="#772982" vector-effect="non-scaling-stroke" d="
  M 122.37 48.82
  L 122.20 51.93"
/>
<path stroke="#a533b2" vector-effect="non-scaling-stroke" d="
  M 122.20 51.93
  L 121.48 53.51
  Q 121.21 54.09 120.58 54.10
  Q 119.41 54.11 119.01 53.09
  Q 118.77 52.48 118.28 52.07
  Q 117.71 51.59 117.18 51.12
  Q 116.69 50.69 116.48 51.30
  Q 115.11 55.26 113.92 59.17
  Q 113.49 60.56 112.85 61.76
  Q 112.18 63.00 111.53 64.25
  C 110.71 65.79 110.79 67.28 109.48 68.61
  Q 109.31 68.79 109.08 68.88
  Q 108.41 69.14 108.43 68.42
  L 108.46 67.50"
/>
<path stroke="#972a74" vector-effect="non-scaling-stroke" d="
  M 108.46 67.50
  Q 111.74 61.22 112.40 53.97"
/>
<path stroke="#761d38" vector-effect="non-scaling-stroke" d="
  M 23.75 35.02
  Q 22.33 40.16 22.00 45.41
  Q 21.71 49.89 22.68 53.84
  Q 23.76 58.20 25.15 62.42
  Q 25.86 64.59 27.08 66.47
  Q 27.91 67.76 28.35 69.20
  Q 28.81 70.72 29.24 72.19
  Q 29.36 72.62 29.18 73.04
  Q 28.14 75.44 30.39 76.53
  Q 31.13 76.90 31.75 77.51
  Q 32.63 78.38 33.72 78.90
  Q 33.89 78.97 33.93 79.16
  Q 33.99 79.50 34.30 79.67
  Q 36.66 80.98 37.85 83.74"
/>
<path stroke="#912b7c" vector-effect="non-scaling-stroke" d="
  M 37.85 83.74
  L 33.68 80.40
  Q 33.31 80.11 32.84 80.07
  Q 32.11 80.01 31.76 79.36
  Q 31.49 78.87 31.03 78.56
  Q 29.22 77.39 28.30 76.15
  Q 17.72 61.96 18.46 44.24"
/>
<path stroke="#852368" vector-effect="non-scaling-stroke" d="
  M 37.85 83.74
  L 47.31 90.03"
/>
<path stroke="#ce96ad" vector-effect="non-scaling-stroke" d="
  M 47.31 90.03
  Q 38.73 91.81 30.06 90.72"
/>
<path stroke="#832e9f" vector-effect="non-scaling-stroke" d="
  M 30.06 90.72
  L 33.73 90.82
  Q 34.65 90.84 33.95 90.24
  Q 33.41 89.78 32.70 89.62
  Q 32.12 89.49 31.66 89.11
  Q 30.53 88.15 29.60 86.96
  Q 28.62 85.69 27.34 84.89
  Q 24.72 83.28 22.52 81.17
  Q 22.01 80.67 21.32 80.47
  A 1.54 1.53 77.9 0 1 20.54 79.96
  L 18.24 77.15
  Q 17.92 76.75 17.43 76.64
  Q 16.47 76.42 16.30 75.47
  A 1.13 1.13 0.0 0 0 15.83 74.73
  Q 14.51 73.85 14.40 72.21
  A 1.32 1.31 20.2 0 0 13.99 71.33
  Q 13.64 71.00 13.64 70.55
  Q 13.63 69.99 13.46 69.48
  Q 12.16 65.64 10.27 61.81"
/>
<path stroke="#3d1c5f" vector-effect="non-scaling-stroke" d="
  M 128.00 70.75
  L 127.72 76.28
  A 0.27 0.27 0.0 0 1 127.35 76.51
  L 127.04 76.38
  A 0.87 0.86 -77.8 0 1 126.52 75.57
  Q 126.65 70.93 126.16 66.38
  C 125.84 63.45 126.07 60.74 126.16 57.89
  Q 126.18 57.12 125.42 57.12
  L 125.12 57.12
  A 0.49 0.48 -87.4 0 0 124.64 57.57
  Q 124.13 63.66 123.71 70.20
  Q 123.61 71.80 123.24 73.22
  Q 122.83 74.79 122.80 76.43
  A 1.37 1.35 86.0 0 1 121.66 77.76
  L 119.74 78.07
  Q 119.23 78.16 118.85 78.53
  Q 117.54 79.83 115.73 80.36
  Q 115.27 80.50 115.28 80.01
  L 115.34 77.70"
/>
<path stroke="#591e71" vector-effect="non-scaling-stroke" d="
  M 115.34 77.70
  Q 116.25 75.72 117.29 73.44
  C 117.78 72.36 117.73 70.86 118.09 70.00
  Q 121.69 61.36 122.20 51.93"
/>
<path stroke="#791f62" vector-effect="non-scaling-stroke" d="
  M 108.46 67.50
  Q 102.25 78.70 91.68 85.53
  Q 91.56 85.61 87.89 87.31
  Q 85.80 88.29 84.64 90.17"
/>
<path stroke="#b38869" vector-effect="non-scaling-stroke" d="
  M 84.64 90.17
  Q 82.67 89.93 80.03 89.55
  Q 73.72 88.64 67.47 87.39
  Q 64.45 86.78 63.25 87.15
  Q 54.75 89.76 47.31 90.03"
/>
<path stroke="#6b268f" vector-effect="non-scaling-stroke" d="
  M 115.34 77.70
  Q 110.25 86.68 102.41 92.79"
/>
<path stroke="#c192a7" vector-effect="non-scaling-stroke" d="
  M 102.41 92.79
  L 100.47 91.32
  Q 100.07 91.01 99.56 91.04
  Q 91.97 91.40 84.64 90.17"
/>
<path stroke="#87224f" vector-effect="non-scaling-stroke" d="
  M 108.87 128.00
  Q 109.47 127.58 110.37 127.59
  Q 110.83 127.59 110.83 127.13
  L 110.84 121.06"
/>
<path stroke="#943750" vector-effect="non-scaling-stroke" d="
  M 110.84 121.06
  C 110.93 118.12 111.77 115.52 111.43 112.64
  Q 110.87 107.74 110.70 102.63"
/>
<path stroke="#a59096" vector-effect="non-scaling-stroke" d="
  M 110.70 102.63
  Q 110.92 102.27 110.96 101.90
  Q 111.01 101.38 110.53 101.18
  Q 108.37 100.25 106.93 98.31
  Q 105.00 95.71 102.41 92.79"
/>
<path stroke="#48206a" vector-effect="non-scaling-stroke" d="
  M 1.44 78.94
  Q 0.51 79.41 0.00 78.24"
/>
<path stroke="#b094a1" vector-effect="non-scaling-stroke" d="
  M 30.06 90.72
  Q 25.22 92.93 24.25 94.24
  Q 20.93 98.71 16.16 101.45
  Q 15.88 101.60 16.00 101.90
  Q 16.05 102.03 16.24 102.08"
/>
<path stroke="#92265a" vector-effect="non-scaling-stroke" d="
  M 16.24 102.08
  L 16.38 120.53"
/>
<path stroke="#68215c" vector-effect="non-scaling-stroke" d="
  M 16.38 120.53
  L 16.08 128.00"
/>
<path stroke="#af72c7" vector-effect="non-scaling-stroke" d="
  M 11.75 76.60
  Q 8.91 78.03 10.40 80.48"
/>
<path stroke="#9435ab" vector-effect="non-scaling-stroke" d="
  M 10.40 80.48
  Q 12.38 82.71 15.29 81.46
  Q 15.76 81.25 15.83 80.75
  Q 16.17 78.60 15.25 77.10
  Q 14.75 76.28 13.80 76.23"
/>
<path stroke="#de7bdf" vector-effect="non-scaling-stroke" d="
  M 13.80 76.23
  Q 14.85 76.76 14.91 77.75
  Q 14.94 78.29 14.46 78.52
  L 10.40 80.48"
/>
<path stroke="#eba269" vector-effect="non-scaling-stroke" d="
  M 110.70 102.63
  L 107.74 104.45
  Q 107.30 104.73 107.26 105.25
  L 107.08 108.19"
/>
<path stroke="#fbcd66" vector-effect="non-scaling-stroke" d="
  M 107.08 108.19
  L 106.80 108.94
  Q 106.58 109.53 106.25 108.99
  L 105.79 108.24"
/>
<path stroke="#fadb72" vector-effect="non-scaling-stroke" d="
  M 105.79 108.24
  Q 105.98 102.15 101.68 97.87
  Q 99.73 95.93 96.91 95.75
  Q 88.00 95.18 80.35 94.64
  Q 75.65 94.31 68.52 92.22
  Q 66.47 91.62 61.54 92.53
  C 60.63 92.69 60.28 93.25 59.25 93.16
  Q 58.73 93.12 58.24 93.27
  Q 55.03 94.26 53.66 94.42
  Q 44.10 95.55 32.46 95.76
  C 28.39 95.83 26.76 98.40 24.49 101.22
  C 21.23 105.29 21.95 109.06 22.08 113.73"
/>
<path stroke="#f9ca6e" vector-effect="non-scaling-stroke" d="
  M 22.08 113.73
  L 21.93 118.36
  A 0.34 0.33 -78.6 0 1 21.48 118.66
  L 21.22 118.56
  Q 20.65 118.34 20.65 117.73
  Q 20.64 112.41 20.52 106.19
  C 20.49 104.22 19.16 102.71 17.26 102.27"
/>
<path stroke="#dd8d67" vector-effect="non-scaling-stroke" d="
  M 17.26 102.27
  L 16.24 102.08"
/>
<path stroke="#f9ac29" vector-effect="non-scaling-stroke" d="
  M 105.79 108.24
  L 106.08 110.59"
/>
<path stroke="#f8a931" vector-effect="non-scaling-stroke" d="
  M 106.08 110.59
  Q 105.34 109.38 105.64 107.76
  A 0.31 0.30 85.0 0 0 105.24 107.42
  L 104.44 107.71
  Q 104.13 107.83 104.12 108.17
  Q 104.03 111.07 101.46 111.56
  Q 101.04 111.64 100.63 111.55
  Q 100.12 111.45 99.70 111.81
  Q 99.38 112.09 98.98 111.98
  L 97.01 111.48
  Q 96.55 111.36 96.13 111.57
  Q 94.21 112.53 91.99 112.19"
/>
<path stroke="#fcdd9a" vector-effect="non-scaling-stroke" d="
  M 91.99 112.19
  C 94.65 109.87 94.96 104.96 90.78 104.28
  Q 87.66 103.77 83.73 104.05
  Q 83.14 104.10 83.12 104.69
  L 82.99 110.00"
/>
<path stroke="#f8a931" vector-effect="non-scaling-stroke" d="
  M 82.99 110.00
  Q 81.25 108.23 78.40 107.76"
/>
<path stroke="#fcdd9a" vector-effect="non-scaling-stroke" d="
  M 78.40 107.76
  L 80.53 104.68
  Q 81.00 104.00 80.18 104.00
  L 76.95 104.00
  A 1.93 1.93 0.0 0 0 75.33 104.88
  L 73.87 107.15
  A 0.48 0.47 45.4 0 1 73.07 107.14
  L 71.60 104.82
  Q 71.32 104.38 70.82 104.24
  Q 68.40 103.55 66.15 104.40"
/>
<path stroke="#f8a931" vector-effect="non-scaling-stroke" d="
  M 66.15 104.40
  Q 65.97 104.23 65.77 104.76
  Q 65.60 105.19 65.15 105.27
  L 54.05 107.31"
/>
<path stroke="#fcdd9a" vector-effect="non-scaling-stroke" d="
  M 54.05 107.31
  L 54.07 106.01
  A 1.99 1.98 -18.6 0 0 50.86 104.42
  Q 49.42 105.54 47.68 106.08
  Q 47.15 106.24 47.02 106.78
  Q 46.84 107.53 46.98 108.37
  Q 47.05 108.84 47.53 108.88
  L 49.29 109.05
  Q 49.96 109.12 49.97 109.79
  L 50.00 114.09
  A 0.89 0.89 0.0 0 1 49.15 114.99
  L 47.37 115.05"
/>
<path stroke="#f8a931" vector-effect="non-scaling-stroke" d="
  M 47.37 115.05
  L 41.58 110.63"
/>
<path stroke="#fcdd9a" vector-effect="non-scaling-stroke" d="
  M 41.58 110.63
  L 43.56 107.70
  A 0.53 0.53 0.0 0 0 43.12 106.87
  L 42.44 106.87
  A 1.44 1.44 0.0 0 0 41.12 107.73
  L 40.13 110.03
  Q 39.60 111.24 39.00 110.06
  L 37.88 107.82
  Q 37.41 106.90 36.38 106.89
  L 35.78 106.89
  Q 34.91 106.88 35.39 107.61
  L 37.39 110.58"
/>
<path stroke="#f8a931" vector-effect="non-scaling-stroke" d="
  M 37.39 110.58
  Q 34.92 110.12 34.00 110.67
  Q 33.58 110.92 33.10 110.89
  Q 32.15 110.85 31.25 110.42
  Q 31.05 110.32 30.97 110.53
  Q 30.95 110.58 31.00 110.62
  Q 31.32 110.93 30.88 110.91
  Q 30.26 110.89 29.65 110.88
  Q 29.04 110.87 28.54 110.58
  Q 27.57 110.04 26.50 110.24
  Q 26.17 110.30 25.89 110.14
  Q 24.21 109.13 22.57 110.32
  Q 22.13 110.63 22.12 111.18
  L 22.08 113.73"
/>
<path stroke="#db5c27" vector-effect="non-scaling-stroke" d="
  M 17.26 102.27
  Q 16.90 103.19 17.21 103.59
  Q 17.65 104.16 16.97 104.21
  Q 16.76 104.23 16.86 104.42
  Q 17.14 104.96 17.16 105.52
  Q 17.36 110.22 17.03 115.01
  Q 16.90 116.93 18.15 118.35
  Q 20.80 121.33 23.11 124.19
  A 3.62 3.61 73.0 0 0 25.58 125.51
  C 28.12 125.75 30.62 126.17 33.17 126.20
  Q 41.84 126.30 50.50 126.39
  Q 52.99 126.42 54.74 127.66"
/>
<path stroke="#87224f" vector-effect="non-scaling-stroke" d="
  M 54.74 127.66
  L 51.37 128.00"
/>
<path stroke="#951a22" vector-effect="non-scaling-stroke" d="
  M 20.74 128.00
  Q 17.58 125.34 16.38 120.53"
/>
<path stroke="#fbcc96" vector-effect="non-scaling-stroke" d="
  M 37.39 110.58
  Q 39.13 112.96 35.57 117.35
  Q 35.02 118.03 35.89 118.01
  C 38.28 117.95 38.20 116.24 39.09 114.48
  A 0.38 0.37 44.8 0 1 39.76 114.48
  L 41.29 117.44
  A 1.03 1.02 -13.9 0 0 42.22 117.99
  L 43.19 117.98
  Q 43.97 117.97 43.55 117.31
  L 40.74 112.94
  A 0.87 0.87 0.0 0 1 40.73 112.01
  L 41.58 110.63"
/>
<path stroke="#fbcc96" vector-effect="non-scaling-stroke" d="
  M 47.37 115.05
  Q 46.66 116.26 47.06 117.44
  Q 47.24 117.99 47.81 117.99
  L 56.19 118.02
  Q 57.15 118.02 57.08 117.06
  L 56.99 115.96
  Q 56.94 115.24 56.23 115.13
  L 54.89 114.91
  Q 54.09 114.78 54.09 113.96
  L 54.05 107.31"
/>
<path stroke="#fbcc96" vector-effect="non-scaling-stroke" d="
  M 66.15 104.40
  L 70.57 110.53
  Q 70.88 110.96 70.58 111.39
  L 66.42 117.38
  Q 65.98 118.01 66.74 118.01
  L 70.04 118.00
  Q 71.10 118.00 71.65 117.10
  L 73.07 114.81
  A 0.50 0.50 0.0 0 1 73.92 114.81
  L 75.47 117.28
  Q 75.92 118.00 76.78 118.00
  L 80.17 118.00
  Q 81.00 118.00 80.53 117.32
  L 76.44 111.49
  Q 76.13 111.04 76.44 110.58
  L 78.40 107.76"
/>
<path stroke="#fbcc96" vector-effect="non-scaling-stroke" d="
  M 82.99 110.00
  L 83.00 117.29
  Q 83.00 118.00 83.71 118.00
  L 86.25 118.00
  Q 87.00 118.00 87.00 117.25
  L 87.01 113.71
  Q 87.01 113.08 87.64 113.09
  Q 90.11 113.11 91.99 112.19"
/>
<path stroke="#f99b25" vector-effect="non-scaling-stroke" d="
  M 106.08 110.59
  Q 106.49 113.52 106.27 119.25
  Q 106.22 120.51 105.51 120.89
  A 0.80 0.76 88.5 0 0 105.15 121.29
  Q 104.11 123.77 101.58 124.13
  Q 92.06 125.49 80.75 125.07
  Q 77.55 124.95 72.64 128.00"
/>
<path stroke="#a35e55" vector-effect="non-scaling-stroke" d="
  M 55.90 128.00
  Q 55.53 127.73 54.74 127.66"
/>
<path stroke="#cd3422" vector-effect="non-scaling-stroke" d="
  M 110.84 121.06
  Q 111.05 119.99 110.70 119.49
  Q 110.39 119.04 109.97 119.39
  Q 109.02 120.18 107.98 120.30"
/>
<path stroke="#ea7420" vector-effect="non-scaling-stroke" d="
  M 107.98 120.30
  L 107.08 108.19"
/>
<path stroke="#fdcf8e" vector-effect="non-scaling-stroke" d="
  M 89.82 108.95
  Q 90.39 107.23 88.18 106.97
  Q 87.04 106.84 87.03 107.99
  L 87.02 109.29
  Q 87.01 109.91 87.62 109.99
  Q 89.40 110.21 89.82 108.95"
/>
<path stroke="#dd5f1f" vector-effect="non-scaling-stroke" d="
  M 107.98 120.30
  Q 106.15 122.63 104.27 124.29
  C 102.69 125.69 101.01 125.97 99.01 126.00
  Q 89.72 126.12 81.75 126.61
  Q 79.52 126.75 77.54 127.66"
/>
<path stroke="#a4614d" vector-effect="non-scaling-stroke" d="
  M 77.54 127.66
  Q 76.63 127.69 76.12 128.00"
/>
<path stroke="#87224f" vector-effect="non-scaling-stroke" d="
  M 82.26 128.00
  L 77.54 127.66"
/>
</g>
<path fill="#4e247d" d="
  M 0.00 0.00
  L 1.45 0.00
  Q 0.40 1.22 0.46 2.76
  Q 1.10 19.71 0.74 36.70
  Q 0.73 37.24 1.24 37.38
  Q 1.80 37.54 2.52 36.78
  Q 2.75 37.04 2.44 37.31
  Q 2.25 37.47 2.08 37.63
  Q 1.63 38.05 1.06 37.77
  A 0.59 0.59 0.0 0 0 0.21 38.28
  Q -0.08 48.15 0.87 57.31
  A 0.08 0.08 0.0 0 0 0.99 57.38
  Q 4.73 55.48 6.81 53.59
  Q 6.85 53.55 6.85 53.50
  Q 7.09 49.05 7.36 45.44
  Q 7.63 41.78 7.31 38.06
  Q 6.58 29.73 6.91 20.96
  C 6.96 19.68 6.38 18.56 6.38 17.31
  Q 6.37 9.57 6.28 1.61
  Q 6.27 0.38 5.04 0.38
  L 4.01 0.38
  Q 2.81 0.38 2.92 1.57
  Q 4.51 17.93 3.25 33.55
  Q 3.84 21.87 2.68 10.37
  Q 2.41 7.61 2.38 5.60
  Q 2.35 3.21 2.37 0.82
  Q 2.37 0.52 2.16 0.31
  Q 1.95 0.10 2.00 0.00
  L 14.13 0.00
  Q 13.65 0.36 11.92 0.27
  A 0.97 0.97 0.0 0 0 10.89 1.23
  L 10.39 32.55
  Q 10.43 33.86 9.94 38.00
  Q 8.64 49.09 10.27 61.81
  Q 10.84 64.97 12.70 71.25
  Q 13.29 73.27 14.15 74.43
  A 0.82 0.80 -52.3 0 1 14.24 75.21
  Q 14.07 75.64 13.57 75.71
  Q 13.01 75.79 13.50 76.06
  L 13.80 76.23
  Q 12.83 76.08 11.75 76.60
  L 5.55 77.80
  Q 5.06 77.90 4.66 78.20
  Q 3.35 79.20 1.44 78.94
  Q 2.55 78.24 2.38 77.25
  Q 2.08 75.55 2.26 74.33
  Q 2.43 73.14 2.25 72.07
  C 1.73 68.95 2.20 65.30 1.95 62.07
  A 0.43 0.43 0.0 0 0 1.44 61.68
  L 1.18 61.73
  Q 0.58 61.84 0.53 62.46
  L 0.00 68.49
  L 0.00 0.00
  Z"
/>
<path fill="#2b1441" d="
  M 1.45 0.00
  L 2.00 0.00
  Q 1.95 0.10 2.16 0.31
  Q 2.37 0.52 2.37 0.82
  Q 2.35 3.21 2.38 5.60
  Q 2.41 7.61 2.68 10.37
  Q 3.84 21.87 3.25 33.55
  L 2.52 36.78
  Q 1.80 37.54 1.24 37.38
  Q 0.73 37.24 0.74 36.70
  Q 1.10 19.71 0.46 2.76
  Q 0.40 1.22 1.45 0.00
  Z"
/>
<path fill="#6a52da" d="
  M 14.13 0.00
  L 34.94 0.00
  Q 29.42 3.26 25.15 7.66
  L 19.29 14.83
  L 14.42 24.75
  L 11.57 29.97
  A 0.56 0.55 9.2 0 1 11.15 30.27
  Q 10.60 30.34 10.73 29.85
  A 0.06 0.06 0.0 0 0 10.63 29.80
  Q 10.47 30.00 10.49 30.25
  Q 10.56 31.42 10.39 32.55
  L 10.89 1.23
  A 0.97 0.97 0.0 0 1 11.92 0.27
  Q 13.65 0.36 14.13 0.00
  Z"
/>
<path fill="#f9b8fb" d="
  M 34.94 0.00
  L 38.92 0.00
  L 26.28 8.77
  A 0.76 0.75 74.5 0 1 25.10 8.10
  Q 25.11 7.92 25.15 7.66
  Q 29.42 3.26 34.94 0.00
  Z"
/>
<path fill="#fb70f3" d="
  M 38.92 0.00
  L 55.82 0.00
  L 61.12 0.70
  Q 58.50 0.99 55.95 1.29
  Q 53.39 1.60 50.94 2.50
  Q 47.37 3.81 44.57 5.06
  Q 40.04 7.09 33.89 12.40
  Q 27.74 17.71 24.78 23.74
  L 23.11 27.18
  Q 21.61 24.56 23.48 21.86
  Q 23.99 21.13 23.94 19.78
  C 23.90 18.64 23.24 17.79 23.20 16.63
  Q 23.18 16.06 22.72 15.71
  Q 22.39 15.46 22.22 15.08
  Q 21.93 14.44 21.36 14.83
  Q 19.38 16.14 19.29 14.83
  L 25.15 7.66
  Q 25.11 7.92 25.10 8.10
  A 0.76 0.75 74.5 0 0 26.28 8.77
  L 38.92 0.00
  Z"
/>
<path fill="#4e247d" d="
  M 55.82 0.00
  L 75.51 0.00
  L 70.59 0.55
  L 61.12 0.70
  L 55.82 0.00
  Z"
/>
<path fill="#f258ec" d="
  M 75.51 0.00
  L 92.45 0.00
  Q 94.72 2.27 97.35 4.01
  Q 98.63 4.86 100.58 6.62
  Q 102.32 8.20 104.25 8.79
  Q 106.29 9.41 106.09 7.75
  L 112.47 15.33
  Q 112.10 19.21 108.74 21.23
  Q 107.33 22.07 105.43 21.06
  L 103.28 17.92
  Q 104.62 17.94 103.69 15.85
  Q 103.35 15.10 102.62 14.22
  Q 100.72 11.95 99.00 9.73
  C 97.37 7.64 94.77 6.68 92.58 5.29
  A 1.73 1.61 29.8 0 0 90.18 5.85
  Q 90.18 5.85 90.43 6.70
  Q 81.81 1.79 75.50 1.20
  Q 71.59 0.83 70.59 0.55
  L 75.51 0.00
  Z"
/>
<path fill="#fb70f3" d="
  M 92.45 0.00
  L 97.11 0.00
  L 106.09 7.75
  Q 106.29 9.41 104.25 8.79
  Q 102.32 8.20 100.58 6.62
  Q 98.63 4.86 97.35 4.01
  Q 94.72 2.27 92.45 0.00
  Z"
/>
<path fill="#9548ce" d="
  M 97.11 0.00
  L 112.85 0.00
  Q 116.14 0.73 119.41 0.00
  L 121.71 0.00
  L 128.00 0.63
  L 128.00 5.25
  Q 126.74 5.18 125.11 5.74
  Q 123.83 6.18 121.77 5.61
  Q 121.57 5.56 121.70 5.40
  Q 121.95 5.08 121.15 5.27
  A 0.71 0.70 -88.6 0 0 120.61 5.79
  L 119.45 10.46
  A 1.46 1.45 -49.0 0 0 119.51 11.34
  Q 120.06 12.74 119.36 14.01
  Q 119.12 14.45 118.65 14.65
  Q 114.92 16.23 115.42 20.21
  L 112.47 15.33
  L 106.09 7.75
  L 97.11 0.00
  Z"
/>
<path fill="#4e247d" d="
  M 112.85 0.00
  L 119.41 0.00
  Q 116.14 0.73 112.85 0.00
  Z"
/>
<path fill="#4e247d" d="
  M 121.71 0.00
  L 128.00 0.00
  L 128.00 0.63
  L 121.71 0.00
  Z"
/>
<path fill="#9c252a" d="
  M 70.59 0.55
  Q 71.59 0.83 75.50 1.20
  Q 81.81 1.79 90.43 6.70
  Q 97.92 11.05 103.28 17.92
  L 105.43 21.06
  Q 111.56 30.63 113.00 41.54
  Q 113.79 47.52 112.40 53.97
  Q 111.38 48.59 111.56 46.76
  Q 111.65 45.93 111.20 45.65
  Q 110.86 45.43 110.72 45.05
  L 109.38 41.50
  Q 108.95 40.34 109.18 41.55
  Q 109.31 42.21 109.33 42.82
  Q 109.35 43.70 108.97 42.90
  Q 108.35 41.61 108.04 40.46
  Q 108.02 40.41 108.04 40.37
  Q 108.06 40.30 108.11 40.34
  Q 108.15 40.37 108.15 40.42
  Q 108.19 43.17 107.70 46.39
  Q 107.67 46.54 107.61 46.41
  Q 107.19 45.55 107.16 44.69
  Q 107.16 44.50 107.03 44.64
  Q 106.98 44.70 106.97 44.79
  Q 106.97 45.52 106.89 44.79
  Q 106.79 43.87 106.74 43.80
  Q 105.72 42.22 105.33 44.06
  Q 104.44 48.21 103.38 52.55
  Q 102.17 57.51 100.46 60.69
  Q 96.71 67.64 91.05 72.54
  A 1.74 1.73 -69.9 0 1 90.20 72.94
  Q 89.58 73.04 89.12 73.54
  C 88.06 74.69 86.28 75.51 84.92 76.36
  C 84.29 76.76 83.50 76.75 83.02 77.16
  Q 82.48 77.60 81.86 77.90
  Q 79.88 78.84 77.98 79.65
  Q 76.33 80.36 74.47 80.51
  Q 72.43 80.67 70.74 81.63
  Q 70.23 81.92 69.64 81.89
  Q 67.43 81.79 65.84 83.24
  Q 63.62 85.26 63.35 82.28
  Q 63.28 81.45 63.10 80.56
  Q 62.99 80.02 62.59 80.41
  Q 61.72 81.25 60.47 80.98
  Q 56.23 80.06 51.48 78.66
  Q 46.98 77.34 43.56 75.02
  Q 32.16 67.27 27.25 54.22
  Q 25.79 50.34 25.81 46.35
  Q 25.83 41.26 25.56 36.61
  Q 25.54 36.15 25.10 35.99
  Q 24.34 35.72 23.75 35.02
  Q 23.36 31.80 24.21 28.58
  Q 24.29 28.27 24.48 28.01
  Q 24.72 27.68 24.49 27.32
  Q 24.19 26.85 24.38 26.33
  Q 24.86 25.03 24.78 23.74
  Q 27.74 17.71 33.89 12.40
  Q 40.04 7.09 44.57 5.06
  Q 47.37 3.81 50.94 2.50
  Q 53.39 1.60 55.95 1.29
  Q 58.50 0.99 61.12 0.70
  L 70.59 0.55
  Z
  M 37.48 14.06
  L 31.93 21.41
  Q 30.44 23.13 29.84 24.84
  Q 27.07 30.23 26.62 33.76
  Q 25.80 40.30 28.69 48.19
  Q 32.75 59.29 44.72 58.71
  L 63.28 58.82
  A 0.70 0.70 0.0 0 1 63.98 59.51
  L 64.08 65.98
  L 64.35 76.41
  L 64.23 82.86
  A 0.34 0.34 0.0 0 0 64.83 83.09
  Q 67.06 80.52 69.24 77.82
  Q 71.41 75.12 73.70 72.62
  Q 83.20 62.23 91.33 50.75
  Q 93.12 49.86 94.88 48.88
  Q 95.44 48.57 96.05 48.61
  Q 96.54 48.65 96.98 48.41
  Q 99.44 47.09 102.14 46.49
  Q 102.66 46.38 103.01 45.98
  Q 103.82 45.03 104.00 43.92
  Q 105.56 34.44 101.37 25.40
  Q 99.57 21.51 97.42 18.40
  Q 94.27 13.60 91.66 11.95
  Q 85.95 5.93 78.22 3.63
  C 63.33 -0.80 47.74 2.16 37.48 14.06
  Z"
/>
<path fill="#652c93" d="
  M 2.52 36.78
  L 3.25 33.55
  Q 4.51 17.93 2.92 1.57
  Q 2.81 0.38 4.01 0.38
  L 5.04 0.38
  Q 6.27 0.38 6.28 1.61
  Q 6.37 9.57 6.38 17.31
  C 6.38 18.56 6.96 19.68 6.91 20.96
  Q 6.58 29.73 7.31 38.06
  Q 7.63 41.78 7.36 45.44
  Q 7.09 49.05 6.85 53.50
  Q 6.85 53.55 6.81 53.59
  Q 4.73 55.48 0.99 57.38
  A 0.08 0.08 0.0 0 1 0.87 57.31
  Q -0.08 48.15 0.21 38.28
  A 0.59 0.59 0.0 0 1 1.06 37.77
  Q 1.63 38.05 2.08 37.63
  Q 2.25 37.47 2.44 37.31
  Q 2.75 37.04 2.52 36.78
  Z"
/>
<path fill="#fbf49a" d="
  M 91.66 11.95
  Q 86.80 11.25 82.44 9.82
  Q 80.67 9.25 78.98 9.06
  C 75.97 8.73 73.12 8.09 70.07 8.11
  Q 62.21 8.17 55.26 9.81
  Q 50.24 11.00 45.07 13.65
  C 43.16 14.63 41.07 14.74 39.00 15.72
  A 0.95 0.95 0.0 0 1 37.65 14.80
  Q 37.65 14.73 37.48 14.06
  C 47.74 2.16 63.33 -0.80 78.22 3.63
  Q 85.95 5.93 91.66 11.95
  Z"
/>
<path fill="#fb70f3" d="
  M 103.28 17.92
  Q 97.92 11.05 90.43 6.70
  Q 90.18 5.85 90.18 5.85
  A 1.73 1.61 29.8 0 1 92.58 5.29
  C 94.77 6.68 97.37 7.64 99.00 9.73
  Q 100.72 11.95 102.62 14.22
  Q 103.35 15.10 103.69 15.85
  Q 104.62 17.94 103.28 17.92
  Z"
/>
<path fill="#652c93" d="
  M 128.00 5.25
  L 128.00 64.26
  C 127.65 61.01 128.85 56.90 126.15 55.28
  Q 124.52 54.30 124.54 52.29
  Q 124.57 50.56 126.22 50.35
  Q 127.40 50.21 127.43 49.02
  C 127.57 42.42 128.08 35.61 127.60 28.92
  A 0.25 0.25 0.0 0 0 127.34 28.69
  L 127.08 28.70
  A 0.35 0.34 -89.0 0 0 126.75 29.03
  Q 126.40 35.02 125.86 40.90
  Q 125.83 41.31 125.56 41.64
  Q 125.16 42.14 124.66 42.55
  Q 124.29 42.86 124.06 42.43
  Q 123.57 41.50 123.52 40.46
  Q 123.50 39.95 122.99 39.94
  L 122.71 39.94
  Q 122.38 39.93 122.38 40.26
  L 122.37 48.82
  Q 122.20 33.51 115.42 20.21
  Q 114.92 16.23 118.65 14.65
  Q 119.12 14.45 119.36 14.01
  Q 120.06 12.74 119.51 11.34
  A 1.46 1.45 -49.0 0 1 119.45 10.46
  L 120.61 5.79
  A 0.71 0.70 -88.6 0 1 121.15 5.27
  Q 121.95 5.08 121.70 5.40
  Q 121.57 5.56 121.77 5.61
  Q 123.83 6.18 125.11 5.74
  Q 126.74 5.18 128.00 5.25
  Z"
/>
<path fill="#fa9e1d" d="
  M 91.66 11.95
  Q 94.27 13.60 97.42 18.40
  Q 95.67 20.83 95.53 23.51
  A 2.51 2.50 -0.7 0 1 93.22 25.87
  C 91.40 26.01 89.03 26.05 87.39 25.05
  Q 86.31 24.39 85.04 24.15
  Q 84.54 24.06 84.15 24.38
  L 82.75 25.52
  L 86.43 20.08
  Q 86.72 19.66 86.57 19.17
  Q 86.21 17.99 84.20 17.56
  Q 78.97 15.32 73.32 15.12
  Q 65.36 13.79 60.24 14.21
  Q 58.24 14.37 56.32 16.86
  L 56.80 15.45
  Q 56.94 15.05 57.29 14.82
  Q 57.47 14.71 57.55 14.54
  Q 57.86 13.94 57.24 13.69
  Q 53.97 12.36 50.88 13.01
  Q 49.39 13.33 47.78 13.96
  Q 46.18 14.58 44.87 15.55
  Q 39.82 19.27 34.86 23.51
  A 1.68 1.68 0.0 0 1 32.11 22.50
  L 31.93 21.41
  L 37.48 14.06
  Q 37.65 14.73 37.65 14.80
  A 0.95 0.95 0.0 0 0 39.00 15.72
  C 41.07 14.74 43.16 14.63 45.07 13.65
  Q 50.24 11.00 55.26 9.81
  Q 62.21 8.17 70.07 8.11
  C 73.12 8.09 75.97 8.73 78.98 9.06
  Q 80.67 9.25 82.44 9.82
  Q 86.80 11.25 91.66 11.95
  Z"
/>
<path fill="#f66815" d="
  M 56.32 16.86
  Q 48.10 26.08 45.53 38.16
  Q 45.35 39.00 45.35 39.81
  Q 45.39 43.82 46.73 41.08
  L 42.63 49.18
  A 0.44 0.44 0.0 0 0 43.02 49.81
  L 63.69 50.18
  A 0.47 0.46 -89.4 0 1 64.14 50.65
  L 64.08 65.98
  L 63.98 59.51
  A 0.70 0.70 0.0 0 0 63.28 58.82
  L 44.72 58.71
  Q 42.34 56.21 41.26 51.70
  Q 41.10 51.06 41.21 50.29
  Q 41.31 49.52 41.40 48.84
  Q 41.46 48.35 40.96 48.39
  Q 40.40 48.43 40.38 47.78
  Q 40.25 43.80 39.41 40.31
  Q 38.86 37.99 38.24 35.46
  Q 37.68 33.17 36.41 31.56
  Q 34.32 28.91 32.03 26.60
  Q 31.61 26.17 31.29 26.68
  Q 31.22 26.79 31.09 26.84
  Q 30.47 27.06 30.12 26.59
  Q 29.73 26.04 29.84 24.84
  Q 30.44 23.13 31.93 21.41
  L 32.11 22.50
  A 1.68 1.68 0.0 0 0 34.86 23.51
  Q 39.82 19.27 44.87 15.55
  Q 46.18 14.58 47.78 13.96
  Q 49.39 13.33 50.88 13.01
  Q 53.97 12.36 57.24 13.69
  Q 57.86 13.94 57.55 14.54
  Q 57.47 14.71 57.29 14.82
  Q 56.94 15.05 56.80 15.45
  L 56.32 16.86
  Z
  M 41.1423 33.6310
  A 2.04 1.09 74.0 0 0 41.6278 31.3696
  A 2.04 1.09 74.0 0 0 40.0177 29.7090
  A 2.04 1.09 74.0 0 0 39.5322 31.9704
  A 2.04 1.09 74.0 0 0 41.1423 33.6310
  Z"
/>
<path fill="#f8ba35" d="
  M 73.32 15.12
  L 62.67 15.21
  Q 62.21 15.21 61.90 15.57
  Q 61.73 15.77 61.71 16.06
  Q 61.68 16.50 61.42 16.85
  Q 55.73 24.67 52.53 30.75
  Q 48.96 37.53 46.73 41.08
  Q 45.39 43.82 45.35 39.81
  Q 45.35 39.00 45.53 38.16
  Q 48.10 26.08 56.32 16.86
  Q 58.24 14.37 60.24 14.21
  Q 65.36 13.79 73.32 15.12
  Z"
/>
<path fill="#dc4fde" d="
  M 23.11 27.18
  Q 18.85 34.78 18.46 44.24
  Q 16.45 43.65 14.57 41.42
  Q 14.20 41.00 13.66 41.10
  Q 12.10 41.41 11.06 40.53
  A 0.04 0.04 0.0 0 0 11.00 40.57
  Q 11.08 40.78 10.89 40.90
  Q 10.51 41.14 10.46 40.69
  Q 10.06 37.59 10.69 35.26
  Q 11.44 32.47 14.42 24.75
  L 19.29 14.83
  Q 19.38 16.14 21.36 14.83
  Q 21.93 14.44 22.22 15.08
  Q 22.39 15.46 22.72 15.71
  Q 23.18 16.06 23.20 16.63
  C 23.24 17.79 23.90 18.64 23.94 19.78
  Q 23.99 21.13 23.48 21.86
  Q 21.61 24.56 23.11 27.18
  Z"
/>
<path fill="#fbfc85" d="
  M 73.32 15.12
  Q 78.97 15.32 84.20 17.56
  Q 81.47 19.54 79.68 22.36
  Q 80.96 19.34 78.77 18.86
  A 1.54 1.52 -53.4 0 0 77.67 19.03
  Q 75.82 20.08 74.81 21.65
  Q 74.00 22.91 73.05 24.01
  C 71.95 25.29 69.62 27.43 69.95 29.20
  Q 70.15 30.28 71.45 30.84
  Q 72.57 31.33 73.79 31.31
  Q 69.24 38.50 65.95 46.99
  A 1.01 1.01 0.0 0 0 66.80 48.36
  L 81.03 49.59
  L 65.18 77.43
  A 0.27 0.27 0.0 0 1 64.69 77.38
  L 64.35 76.41
  L 64.08 65.98
  L 64.14 50.65
  A 0.47 0.46 -89.4 0 0 63.69 50.18
  L 43.02 49.81
  A 0.44 0.44 0.0 0 1 42.63 49.18
  L 46.73 41.08
  Q 48.96 37.53 52.53 30.75
  Q 55.73 24.67 61.42 16.85
  Q 61.68 16.50 61.71 16.06
  Q 61.73 15.77 61.90 15.57
  Q 62.21 15.21 62.67 15.21
  L 73.32 15.12
  Z"
/>
<path fill="#c33ec3" d="
  M 112.47 15.33
  L 115.42 20.21
  Q 122.20 33.51 122.37 48.82
  L 122.20 51.93
  L 121.48 53.51
  Q 121.21 54.09 120.58 54.10
  Q 119.41 54.11 119.01 53.09
  Q 118.77 52.48 118.28 52.07
  Q 117.71 51.59 117.18 51.12
  Q 116.69 50.69 116.48 51.30
  Q 115.11 55.26 113.92 59.17
  Q 113.49 60.56 112.85 61.76
  Q 112.18 63.00 111.53 64.25
  C 110.71 65.79 110.79 67.28 109.48 68.61
  Q 109.31 68.79 109.08 68.88
  Q 108.41 69.14 108.43 68.42
  L 108.46 67.50
  Q 111.74 61.22 112.40 53.97
  Q 113.79 47.52 113.00 41.54
  Q 111.56 30.63 105.43 21.06
  Q 107.33 22.07 108.74 21.23
  Q 112.10 19.21 112.47 15.33
  Z"
/>
<path fill="#f8ba35" d="
  M 84.20 17.56
  Q 86.21 17.99 86.57 19.17
  Q 86.72 19.66 86.43 20.08
  L 82.75 25.52
  L 75.99 35.90
  Q 73.55 37.86 73.35 40.18
  A 3.23 3.22 8.3 0 0 75.92 43.62
  L 82.79 45.02
  Q 83.95 45.26 83.29 46.24
  L 81.03 49.59
  L 66.80 48.36
  A 1.01 1.01 0.0 0 1 65.95 46.99
  Q 69.24 38.50 73.79 31.31
  L 79.68 22.36
  Q 81.47 19.54 84.20 17.56
  Z"
/>
<path fill="#da4923" d="
  M 97.42 18.40
  Q 99.57 21.51 101.37 25.40
  Q 105.56 34.44 104.00 43.92
  Q 103.82 45.03 103.01 45.98
  Q 102.66 46.38 102.14 46.49
  Q 99.44 47.09 96.98 48.41
  Q 96.54 48.65 96.05 48.61
  Q 95.44 48.57 94.88 48.88
  Q 93.12 49.86 91.33 50.75
  L 93.38 46.87
  A 2.02 2.02 0.0 0 0 92.89 44.37
  C 88.78 40.96 82.24 39.03 77.07 37.85
  Q 76.57 37.73 76.35 37.27
  Q 76.05 36.65 75.99 35.90
  L 82.75 25.52
  L 84.15 24.38
  Q 84.54 24.06 85.04 24.15
  Q 86.31 24.39 87.39 25.05
  C 89.03 26.05 91.40 26.01 93.22 25.87
  A 2.51 2.50 -0.7 0 0 95.53 23.51
  Q 95.67 20.83 97.42 18.40
  Z"
/>
<path fill="#fdfed4" d="
  M 79.68 22.36
  L 73.79 31.31
  Q 72.57 31.33 71.45 30.84
  Q 70.15 30.28 69.95 29.20
  C 69.62 27.43 71.95 25.29 73.05 24.01
  Q 74.00 22.91 74.81 21.65
  Q 75.82 20.08 77.67 19.03
  A 1.54 1.52 -53.4 0 1 78.77 18.86
  Q 80.96 19.34 79.68 22.36
  Z"
/>
<path fill="#81254c" d="
  M 24.78 23.74
  Q 24.86 25.03 24.38 26.33
  Q 24.19 26.85 24.49 27.32
  Q 24.72 27.68 24.48 28.01
  Q 24.29 28.27 24.21 28.58
  Q 23.36 31.80 23.75 35.02
  Q 22.33 40.16 22.00 45.41
  Q 21.71 49.89 22.68 53.84
  Q 23.76 58.20 25.15 62.42
  Q 25.86 64.59 27.08 66.47
  Q 27.91 67.76 28.35 69.20
  Q 28.81 70.72 29.24 72.19
  Q 29.36 72.62 29.18 73.04
  Q 28.14 75.44 30.39 76.53
  Q 31.13 76.90 31.75 77.51
  Q 32.63 78.38 33.72 78.90
  Q 33.89 78.97 33.93 79.16
  Q 33.99 79.50 34.30 79.67
  Q 36.66 80.98 37.85 83.74
  L 33.68 80.40
  Q 33.31 80.11 32.84 80.07
  Q 32.11 80.01 31.76 79.36
  Q 31.49 78.87 31.03 78.56
  Q 29.22 77.39 28.30 76.15
  Q 17.72 61.96 18.46 44.24
  Q 18.85 34.78 23.11 27.18
  L 24.78 23.74
  Z"
/>
<path fill="#a030ab" d="
  M 14.42 24.75
  Q 11.44 32.47 10.69 35.26
  Q 10.06 37.59 10.46 40.69
  Q 10.51 41.14 10.89 40.90
  Q 11.08 40.78 11.00 40.57
  A 0.04 0.04 0.0 0 1 11.06 40.53
  Q 12.10 41.41 13.66 41.10
  Q 14.20 41.00 14.57 41.42
  Q 16.45 43.65 18.46 44.24
  Q 17.72 61.96 28.30 76.15
  Q 29.22 77.39 31.03 78.56
  Q 31.49 78.87 31.76 79.36
  Q 32.11 80.01 32.84 80.07
  Q 33.31 80.11 33.68 80.40
  L 37.85 83.74
  L 47.31 90.03
  Q 38.73 91.81 30.06 90.72
  L 33.73 90.82
  Q 34.65 90.84 33.95 90.24
  Q 33.41 89.78 32.70 89.62
  Q 32.12 89.49 31.66 89.11
  Q 30.53 88.15 29.60 86.96
  Q 28.62 85.69 27.34 84.89
  Q 24.72 83.28 22.52 81.17
  Q 22.01 80.67 21.32 80.47
  A 1.54 1.53 77.9 0 1 20.54 79.96
  L 18.24 77.15
  Q 17.92 76.75 17.43 76.64
  Q 16.47 76.42 16.30 75.47
  A 1.13 1.13 0.0 0 0 15.83 74.73
  Q 14.51 73.85 14.40 72.21
  A 1.32 1.31 20.2 0 0 13.99 71.33
  Q 13.64 71.00 13.64 70.55
  Q 13.63 69.99 13.46 69.48
  Q 12.16 65.64 10.27 61.81
  Q 8.64 49.09 9.94 38.00
  Q 10.43 33.86 10.39 32.55
  Q 10.56 31.42 10.49 30.25
  Q 10.47 30.00 10.63 29.80
  A 0.06 0.06 0.0 0 1 10.73 29.85
  Q 10.60 30.34 11.15 30.27
  A 0.56 0.55 9.2 0 0 11.57 29.97
  L 14.42 24.75
  Z"
/>
<path fill="#da4923" d="
  M 29.84 24.84
  Q 29.73 26.04 30.12 26.59
  Q 30.47 27.06 31.09 26.84
  Q 31.22 26.79 31.29 26.68
  Q 31.61 26.17 32.03 26.60
  Q 34.32 28.91 36.41 31.56
  Q 37.68 33.17 38.24 35.46
  Q 38.86 37.99 39.41 40.31
  Q 40.25 43.80 40.38 47.78
  Q 40.40 48.43 40.96 48.39
  Q 41.46 48.35 41.40 48.84
  Q 41.31 49.52 41.21 50.29
  Q 41.10 51.06 41.26 51.70
  Q 42.34 56.21 44.72 58.71
  Q 32.75 59.29 28.69 48.19
  Q 25.80 40.30 26.62 33.76
  Q 27.07 30.23 29.84 24.84
  Z"
/>
<path fill="#2b1441" d="
  M 128.00 64.26
  L 128.00 70.75
  L 127.72 76.28
  A 0.27 0.27 0.0 0 1 127.35 76.51
  L 127.04 76.38
  A 0.87 0.86 -77.8 0 1 126.52 75.57
  Q 126.65 70.93 126.16 66.38
  C 125.84 63.45 126.07 60.74 126.16 57.89
  Q 126.18 57.12 125.42 57.12
  L 125.12 57.12
  A 0.49 0.48 -87.4 0 0 124.64 57.57
  Q 124.13 63.66 123.71 70.20
  Q 123.61 71.80 123.24 73.22
  Q 122.83 74.79 122.80 76.43
  A 1.37 1.35 86.0 0 1 121.66 77.76
  L 119.74 78.07
  Q 119.23 78.16 118.85 78.53
  Q 117.54 79.83 115.73 80.36
  Q 115.27 80.50 115.28 80.01
  L 115.34 77.70
  Q 116.25 75.72 117.29 73.44
  C 117.78 72.36 117.73 70.86 118.09 70.00
  Q 121.69 61.36 122.20 51.93
  L 122.37 48.82
  L 122.38 40.26
  Q 122.38 39.93 122.71 39.94
  L 122.99 39.94
  Q 123.50 39.95 123.52 40.46
  Q 123.57 41.50 124.06 42.43
  Q 124.29 42.86 124.66 42.55
  Q 125.16 42.14 125.56 41.64
  Q 125.83 41.31 125.86 40.90
  Q 126.40 35.02 126.75 29.03
  A 0.35 0.34 -89.0 0 1 127.08 28.70
  L 127.34 28.69
  A 0.25 0.25 0.0 0 1 127.60 28.92
  C 128.08 35.61 127.57 42.42 127.43 49.02
  Q 127.40 50.21 126.22 50.35
  Q 124.57 50.56 124.54 52.29
  Q 124.52 54.30 126.15 55.28
  C 128.85 56.90 127.65 61.01 128.00 64.26
  Z"
/>
<ellipse fill="#f8ba35" cx="0.00" cy="0.00" transform="translate(40.58,31.67) rotate(74.0)" rx="2.04" ry="1.09"/>
<path fill="#6a1524" d="
  M 23.75 35.02
  Q 24.34 35.72 25.10 35.99
  Q 25.54 36.15 25.56 36.61
  Q 25.83 41.26 25.81 46.35
  Q 25.79 50.34 27.25 54.22
  Q 32.16 67.27 43.56 75.02
  Q 46.98 77.34 51.48 78.66
  Q 56.23 80.06 60.47 80.98
  Q 61.72 81.25 62.59 80.41
  Q 62.99 80.02 63.10 80.56
  Q 63.28 81.45 63.35 82.28
  Q 63.62 85.26 65.84 83.24
  Q 67.43 81.79 69.64 81.89
  Q 70.23 81.92 70.74 81.63
  Q 72.43 80.67 74.47 80.51
  Q 76.33 80.36 77.98 79.65
  Q 79.88 78.84 81.86 77.90
  Q 82.48 77.60 83.02 77.16
  C 83.50 76.75 84.29 76.76 84.92 76.36
  C 86.28 75.51 88.06 74.69 89.12 73.54
  Q 89.58 73.04 90.20 72.94
  A 1.74 1.73 -69.9 0 0 91.05 72.54
  Q 96.71 67.64 100.46 60.69
  Q 102.17 57.51 103.38 52.55
  Q 104.44 48.21 105.33 44.06
  Q 105.72 42.22 106.74 43.80
  Q 106.79 43.87 106.89 44.79
  Q 106.97 45.52 106.97 44.79
  Q 106.98 44.70 107.03 44.64
  Q 107.16 44.50 107.16 44.69
  Q 107.19 45.55 107.61 46.41
  Q 107.67 46.54 107.70 46.39
  Q 108.19 43.17 108.15 40.42
  Q 108.15 40.37 108.11 40.34
  Q 108.06 40.30 108.04 40.37
  Q 108.02 40.41 108.04 40.46
  Q 108.35 41.61 108.97 42.90
  Q 109.35 43.70 109.33 42.82
  Q 109.31 42.21 109.18 41.55
  Q 108.95 40.34 109.38 41.50
  L 110.72 45.05
  Q 110.86 45.43 111.20 45.65
  Q 111.65 45.93 111.56 46.76
  Q 111.38 48.59 112.40 53.97
  Q 111.74 61.22 108.46 67.50
  Q 102.25 78.70 91.68 85.53
  Q 91.56 85.61 87.89 87.31
  Q 85.80 88.29 84.64 90.17
  Q 82.67 89.93 80.03 89.55
  Q 73.72 88.64 67.47 87.39
  Q 64.45 86.78 63.25 87.15
  Q 54.75 89.76 47.31 90.03
  L 37.85 83.74
  Q 36.66 80.98 34.30 79.67
  Q 33.99 79.50 33.93 79.16
  Q 33.89 78.97 33.72 78.90
  Q 32.63 78.38 31.75 77.51
  Q 31.13 76.90 30.39 76.53
  Q 28.14 75.44 29.18 73.04
  Q 29.36 72.62 29.24 72.19
  Q 28.81 70.72 28.35 69.20
  Q 27.91 67.76 27.08 66.47
  Q 25.86 64.59 25.15 62.42
  Q 23.76 58.20 22.68 53.84
  Q 21.71 49.89 22.00 45.41
  Q 22.33 40.16 23.75 35.02
  Z"
/>
<path fill="#f77b07" d="
  M 75.99 35.90
  Q 76.05 36.65 76.35 37.27
  Q 76.57 37.73 77.07 37.85
  C 82.24 39.03 88.78 40.96 92.89 44.37
  A 2.02 2.02 0.0 0 1 93.38 46.87
  L 91.33 50.75
  Q 83.20 62.23 73.70 72.62
  Q 71.41 75.12 69.24 77.82
  Q 67.06 80.52 64.83 83.09
  A 0.34 0.34 0.0 0 1 64.23 82.86
  L 64.35 76.41
  L 64.69 77.38
  A 0.27 0.27 0.0 0 0 65.18 77.43
  L 81.03 49.59
  L 83.29 46.24
  Q 83.95 45.26 82.79 45.02
  L 75.92 43.62
  A 3.23 3.22 8.3 0 1 73.35 40.18
  Q 73.55 37.86 75.99 35.90
  Z"
/>
<path fill="#8728a0" d="
  M 122.20 51.93
  Q 121.69 61.36 118.09 70.00
  C 117.73 70.86 117.78 72.36 117.29 73.44
  Q 116.25 75.72 115.34 77.70
  Q 110.25 86.68 102.41 92.79
  L 100.47 91.32
  Q 100.07 91.01 99.56 91.04
  Q 91.97 91.40 84.64 90.17
  Q 85.80 88.29 87.89 87.31
  Q 91.56 85.61 91.68 85.53
  Q 102.25 78.70 108.46 67.50
  L 108.43 68.42
  Q 108.41 69.14 109.08 68.88
  Q 109.31 68.79 109.48 68.61
  C 110.79 67.28 110.71 65.79 111.53 64.25
  Q 112.18 63.00 112.85 61.76
  Q 113.49 60.56 113.92 59.17
  Q 115.11 55.26 116.48 51.30
  Q 116.69 50.69 117.18 51.12
  Q 117.71 51.59 118.28 52.07
  Q 118.77 52.48 119.01 53.09
  Q 119.41 54.11 120.58 54.10
  Q 121.21 54.09 121.48 53.51
  L 122.20 51.93
  Z"
/>
<path fill="#4e247d" d="
  M 128.00 70.75
  L 128.00 128.00
  L 108.87 128.00
  Q 109.47 127.58 110.37 127.59
  Q 110.83 127.59 110.83 127.13
  L 110.84 121.06
  C 110.93 118.12 111.77 115.52 111.43 112.64
  Q 110.87 107.74 110.70 102.63
  Q 110.92 102.27 110.96 101.90
  Q 111.01 101.38 110.53 101.18
  Q 108.37 100.25 106.93 98.31
  Q 105.00 95.71 102.41 92.79
  Q 110.25 86.68 115.34 77.70
  L 115.28 80.01
  Q 115.27 80.50 115.73 80.36
  Q 117.54 79.83 118.85 78.53
  Q 119.23 78.16 119.74 78.07
  L 121.66 77.76
  A 1.37 1.35 86.0 0 0 122.80 76.43
  Q 122.83 74.79 123.24 73.22
  Q 123.61 71.80 123.71 70.20
  Q 124.13 63.66 124.64 57.57
  A 0.49 0.48 -87.4 0 1 125.12 57.12
  L 125.42 57.12
  Q 126.18 57.12 126.16 57.89
  C 126.07 60.74 125.84 63.45 126.16 66.38
  Q 126.65 70.93 126.52 75.57
  A 0.87 0.86 -77.8 0 0 127.04 76.38
  L 127.35 76.51
  A 0.27 0.27 0.0 0 0 127.72 76.28
  L 128.00 70.75
  Z"
/>
<path fill="#2b1441" d="
  M 1.44 78.94
  Q 0.51 79.41 0.00 78.24
  L 0.00 68.49
  L 0.53 62.46
  Q 0.58 61.84 1.18 61.73
  L 1.44 61.68
  A 0.43 0.43 0.0 0 1 1.95 62.07
  C 2.20 65.30 1.73 68.95 2.25 72.07
  Q 2.43 73.14 2.26 74.33
  Q 2.08 75.55 2.38 77.25
  Q 2.55 78.24 1.44 78.94
  Z"
/>
<path fill="#652c93" d="
  M 10.27 61.81
  Q 12.16 65.64 13.46 69.48
  Q 13.63 69.99 13.64 70.55
  Q 13.64 71.00 13.99 71.33
  A 1.32 1.31 20.2 0 1 14.40 72.21
  Q 14.51 73.85 15.83 74.73
  A 1.13 1.13 0.0 0 1 16.30 75.47
  Q 16.47 76.42 17.43 76.64
  Q 17.92 76.75 18.24 77.15
  L 20.54 79.96
  A 1.54 1.53 77.9 0 0 21.32 80.47
  Q 22.01 80.67 22.52 81.17
  Q 24.72 83.28 27.34 84.89
  Q 28.62 85.69 29.60 86.96
  Q 30.53 88.15 31.66 89.11
  Q 32.12 89.49 32.70 89.62
  Q 33.41 89.78 33.95 90.24
  Q 34.65 90.84 33.73 90.82
  L 30.06 90.72
  Q 25.22 92.93 24.25 94.24
  Q 20.93 98.71 16.16 101.45
  Q 15.88 101.60 16.00 101.90
  Q 16.05 102.03 16.24 102.08
  L 16.38 120.53
  L 16.08 128.00
  L 0.00 128.00
  L 0.00 78.24
  Q 0.51 79.41 1.44 78.94
  Q 3.35 79.20 4.66 78.20
  Q 5.06 77.90 5.55 77.80
  L 11.75 76.60
  Q 8.91 78.03 10.40 80.48
  Q 12.38 82.71 15.29 81.46
  Q 15.76 81.25 15.83 80.75
  Q 16.17 78.60 15.25 77.10
  Q 14.75 76.28 13.80 76.23
  L 13.50 76.06
  Q 13.01 75.79 13.57 75.71
  Q 14.07 75.64 14.24 75.21
  A 0.82 0.80 -52.3 0 0 14.15 74.43
  Q 13.29 73.27 12.70 71.25
  Q 10.84 64.97 10.27 61.81
  Z"
/>
<path fill="#f9b8fb" d="
  M 13.80 76.23
  Q 14.85 76.76 14.91 77.75
  Q 14.94 78.29 14.46 78.52
  L 10.40 80.48
  Q 8.91 78.03 11.75 76.60
  Q 12.83 76.08 13.80 76.23
  Z"
/>
<path fill="#c33ec3" d="
  M 13.80 76.23
  Q 14.75 76.28 15.25 77.10
  Q 16.17 78.60 15.83 80.75
  Q 15.76 81.25 15.29 81.46
  Q 12.38 82.71 10.40 80.48
  L 14.46 78.52
  Q 14.94 78.29 14.91 77.75
  Q 14.85 76.76 13.80 76.23
  Z"
/>
<path fill="#fbfbae" d="
  M 84.64 90.17
  Q 91.97 91.40 99.56 91.04
  Q 100.07 91.01 100.47 91.32
  L 102.41 92.79
  Q 105.00 95.71 106.93 98.31
  Q 108.37 100.25 110.53 101.18
  Q 111.01 101.38 110.96 101.90
  Q 110.92 102.27 110.70 102.63
  L 107.74 104.45
  Q 107.30 104.73 107.26 105.25
  L 107.08 108.19
  L 106.80 108.94
  Q 106.58 109.53 106.25 108.99
  L 105.79 108.24
  Q 105.98 102.15 101.68 97.87
  Q 99.73 95.93 96.91 95.75
  Q 88.00 95.18 80.35 94.64
  Q 75.65 94.31 68.52 92.22
  Q 66.47 91.62 61.54 92.53
  C 60.63 92.69 60.28 93.25 59.25 93.16
  Q 58.73 93.12 58.24 93.27
  Q 55.03 94.26 53.66 94.42
  Q 44.10 95.55 32.46 95.76
  C 28.39 95.83 26.76 98.40 24.49 101.22
  C 21.23 105.29 21.95 109.06 22.08 113.73
  L 21.93 118.36
  A 0.34 0.33 -78.6 0 1 21.48 118.66
  L 21.22 118.56
  Q 20.65 118.34 20.65 117.73
  Q 20.64 112.41 20.52 106.19
  C 20.49 104.22 19.16 102.71 17.26 102.27
  L 16.24 102.08
  Q 16.05 102.03 16.00 101.90
  Q 15.88 101.60 16.16 101.45
  Q 20.93 98.71 24.25 94.24
  Q 25.22 92.93 30.06 90.72
  Q 38.73 91.81 47.31 90.03
  Q 54.75 89.76 63.25 87.15
  Q 64.45 86.78 67.47 87.39
  Q 73.72 88.64 80.03 89.55
  Q 82.67 89.93 84.64 90.17
  Z"
/>
<path fill="#f8ba35" d="
  M 105.79 108.24
  L 106.08 110.59
  Q 105.34 109.38 105.64 107.76
  A 0.31 0.30 85.0 0 0 105.24 107.42
  L 104.44 107.71
  Q 104.13 107.83 104.12 108.17
  Q 104.03 111.07 101.46 111.56
  Q 101.04 111.64 100.63 111.55
  Q 100.12 111.45 99.70 111.81
  Q 99.38 112.09 98.98 111.98
  L 97.01 111.48
  Q 96.55 111.36 96.13 111.57
  Q 94.21 112.53 91.99 112.19
  C 94.65 109.87 94.96 104.96 90.78 104.28
  Q 87.66 103.77 83.73 104.05
  Q 83.14 104.10 83.12 104.69
  L 82.99 110.00
  Q 81.25 108.23 78.40 107.76
  L 80.53 104.68
  Q 81.00 104.00 80.18 104.00
  L 76.95 104.00
  A 1.93 1.93 0.0 0 0 75.33 104.88
  L 73.87 107.15
  A 0.48 0.47 45.4 0 1 73.07 107.14
  L 71.60 104.82
  Q 71.32 104.38 70.82 104.24
  Q 68.40 103.55 66.15 104.40
  Q 65.97 104.23 65.77 104.76
  Q 65.60 105.19 65.15 105.27
  L 54.05 107.31
  L 54.07 106.01
  A 1.99 1.98 -18.6 0 0 50.86 104.42
  Q 49.42 105.54 47.68 106.08
  Q 47.15 106.24 47.02 106.78
  Q 46.84 107.53 46.98 108.37
  Q 47.05 108.84 47.53 108.88
  L 49.29 109.05
  Q 49.96 109.12 49.97 109.79
  L 50.00 114.09
  A 0.89 0.89 0.0 0 1 49.15 114.99
  L 47.37 115.05
  L 41.58 110.63
  L 43.56 107.70
  A 0.53 0.53 0.0 0 0 43.12 106.87
  L 42.44 106.87
  A 1.44 1.44 0.0 0 0 41.12 107.73
  L 40.13 110.03
  Q 39.60 111.24 39.00 110.06
  L 37.88 107.82
  Q 37.41 106.90 36.38 106.89
  L 35.78 106.89
  Q 34.91 106.88 35.39 107.61
  L 37.39 110.58
  Q 34.92 110.12 34.00 110.67
  Q 33.58 110.92 33.10 110.89
  Q 32.15 110.85 31.25 110.42
  Q 31.05 110.32 30.97 110.53
  Q 30.95 110.58 31.00 110.62
  Q 31.32 110.93 30.88 110.91
  Q 30.26 110.89 29.65 110.88
  Q 29.04 110.87 28.54 110.58
  Q 27.57 110.04 26.50 110.24
  Q 26.17 110.30 25.89 110.14
  Q 24.21 109.13 22.57 110.32
  Q 22.13 110.63 22.12 111.18
  L 22.08 113.73
  C 21.95 109.06 21.23 105.29 24.49 101.22
  C 26.76 98.40 28.39 95.83 32.46 95.76
  Q 44.10 95.55 53.66 94.42
  Q 55.03 94.26 58.24 93.27
  Q 58.73 93.12 59.25 93.16
  C 60.28 93.25 60.63 92.69 61.54 92.53
  Q 66.47 91.62 68.52 92.22
  Q 75.65 94.31 80.35 94.64
  Q 88.00 95.18 96.91 95.75
  Q 99.73 95.93 101.68 97.87
  Q 105.98 102.15 105.79 108.24
  Z"
/>
<path fill="#bf1f20" d="
  M 16.24 102.08
  L 17.26 102.27
  Q 16.90 103.19 17.21 103.59
  Q 17.65 104.16 16.97 104.21
  Q 16.76 104.23 16.86 104.42
  Q 17.14 104.96 17.16 105.52
  Q 17.36 110.22 17.03 115.01
  Q 16.90 116.93 18.15 118.35
  Q 20.80 121.33 23.11 124.19
  A 3.62 3.61 73.0 0 0 25.58 125.51
  C 28.12 125.75 30.62 126.17 33.17 126.20
  Q 41.84 126.30 50.50 126.39
  Q 52.99 126.42 54.74 127.66
  L 51.37 128.00
  L 20.74 128.00
  Q 17.58 125.34 16.38 120.53
  L 16.24 102.08
  Z"
/>
<path fill="#f7982d" d="
  M 17.26 102.27
  C 19.16 102.71 20.49 104.22 20.52 106.19
  Q 20.64 112.41 20.65 117.73
  Q 20.65 118.34 21.22 118.56
  L 21.48 118.66
  A 0.34 0.33 -78.6 0 0 21.93 118.36
  L 22.08 113.73
  L 22.12 111.18
  Q 22.13 110.63 22.57 110.32
  Q 24.21 109.13 25.89 110.14
  Q 26.17 110.30 26.50 110.24
  Q 27.57 110.04 28.54 110.58
  Q 29.04 110.87 29.65 110.88
  Q 30.26 110.89 30.88 110.91
  Q 31.32 110.93 31.00 110.62
  Q 30.95 110.58 30.97 110.53
  Q 31.05 110.32 31.25 110.42
  Q 32.15 110.85 33.10 110.89
  Q 33.58 110.92 34.00 110.67
  Q 34.92 110.12 37.39 110.58
  Q 39.13 112.96 35.57 117.35
  Q 35.02 118.03 35.89 118.01
  C 38.28 117.95 38.20 116.24 39.09 114.48
  A 0.38 0.37 44.8 0 1 39.76 114.48
  L 41.29 117.44
  A 1.03 1.02 -13.9 0 0 42.22 117.99
  L 43.19 117.98
  Q 43.97 117.97 43.55 117.31
  L 40.74 112.94
  A 0.87 0.87 0.0 0 1 40.73 112.01
  L 41.58 110.63
  L 47.37 115.05
  Q 46.66 116.26 47.06 117.44
  Q 47.24 117.99 47.81 117.99
  L 56.19 118.02
  Q 57.15 118.02 57.08 117.06
  L 56.99 115.96
  Q 56.94 115.24 56.23 115.13
  L 54.89 114.91
  Q 54.09 114.78 54.09 113.96
  L 54.05 107.31
  L 65.15 105.27
  Q 65.60 105.19 65.77 104.76
  Q 65.97 104.23 66.15 104.40
  L 70.57 110.53
  Q 70.88 110.96 70.58 111.39
  L 66.42 117.38
  Q 65.98 118.01 66.74 118.01
  L 70.04 118.00
  Q 71.10 118.00 71.65 117.10
  L 73.07 114.81
  A 0.50 0.50 0.0 0 1 73.92 114.81
  L 75.47 117.28
  Q 75.92 118.00 76.78 118.00
  L 80.17 118.00
  Q 81.00 118.00 80.53 117.32
  L 76.44 111.49
  Q 76.13 111.04 76.44 110.58
  L 78.40 107.76
  Q 81.25 108.23 82.99 110.00
  L 83.00 117.29
  Q 83.00 118.00 83.71 118.00
  L 86.25 118.00
  Q 87.00 118.00 87.00 117.25
  L 87.01 113.71
  Q 87.01 113.08 87.64 113.09
  Q 90.11 113.11 91.99 112.19
  Q 94.21 112.53 96.13 111.57
  Q 96.55 111.36 97.01 111.48
  L 98.98 111.98
  Q 99.38 112.09 99.70 111.81
  Q 100.12 111.45 100.63 111.55
  Q 101.04 111.64 101.46 111.56
  Q 104.03 111.07 104.12 108.17
  Q 104.13 107.83 104.44 107.71
  L 105.24 107.42
  A 0.31 0.30 85.0 0 1 105.64 107.76
  Q 105.34 109.38 106.08 110.59
  Q 106.49 113.52 106.27 119.25
  Q 106.22 120.51 105.51 120.89
  A 0.80 0.76 88.5 0 0 105.15 121.29
  Q 104.11 123.77 101.58 124.13
  Q 92.06 125.49 80.75 125.07
  Q 77.55 124.95 72.64 128.00
  L 55.90 128.00
  Q 55.53 127.73 54.74 127.66
  Q 52.99 126.42 50.50 126.39
  Q 41.84 126.30 33.17 126.20
  C 30.62 126.17 28.12 125.75 25.58 125.51
  A 3.62 3.61 73.0 0 1 23.11 124.19
  Q 20.80 121.33 18.15 118.35
  Q 16.90 116.93 17.03 115.01
  Q 17.36 110.22 17.16 105.52
  Q 17.14 104.96 16.86 104.42
  Q 16.76 104.23 16.97 104.21
  Q 17.65 104.16 17.21 103.59
  Q 16.90 103.19 17.26 102.27
  Z"
/>
<path fill="#da4923" d="
  M 110.70 102.63
  Q 110.87 107.74 111.43 112.64
  C 111.77 115.52 110.93 118.12 110.84 121.06
  Q 111.05 119.99 110.70 119.49
  Q 110.39 119.04 109.97 119.39
  Q 109.02 120.18 107.98 120.30
  L 107.08 108.19
  L 107.26 105.25
  Q 107.30 104.73 107.74 104.45
  L 110.70 102.63
  Z"
/>
<path fill="#ffffff" d="
  M 54.05 107.31
  L 54.09 113.96
  Q 54.09 114.78 54.89 114.91
  L 56.23 115.13
  Q 56.94 115.24 56.99 115.96
  L 57.08 117.06
  Q 57.15 118.02 56.19 118.02
  L 47.81 117.99
  Q 47.24 117.99 47.06 117.44
  Q 46.66 116.26 47.37 115.05
  L 49.15 114.99
  A 0.89 0.89 0.0 0 0 50.00 114.09
  L 49.97 109.79
  Q 49.96 109.12 49.29 109.05
  L 47.53 108.88
  Q 47.05 108.84 46.98 108.37
  Q 46.84 107.53 47.02 106.78
  Q 47.15 106.24 47.68 106.08
  Q 49.42 105.54 50.86 104.42
  A 1.99 1.98 -18.6 0 1 54.07 106.01
  L 54.05 107.31
  Z"
/>
<path fill="#ffffff" d="
  M 78.40 107.76
  L 76.44 110.58
  Q 76.13 111.04 76.44 111.49
  L 80.53 117.32
  Q 81.00 118.00 80.17 118.00
  L 76.78 118.00
  Q 75.92 118.00 75.47 117.28
  L 73.92 114.81
  A 0.50 0.50 0.0 0 0 73.07 114.81
  L 71.65 117.10
  Q 71.10 118.00 70.04 118.00
  L 66.74 118.01
  Q 65.98 118.01 66.42 117.38
  L 70.58 111.39
  Q 70.88 110.96 70.57 110.53
  L 66.15 104.40
  Q 68.40 103.55 70.82 104.24
  Q 71.32 104.38 71.60 104.82
  L 73.07 107.14
  A 0.48 0.47 45.4 0 0 73.87 107.15
  L 75.33 104.88
  A 1.93 1.93 0.0 0 1 76.95 104.00
  L 80.18 104.00
  Q 81.00 104.00 80.53 104.68
  L 78.40 107.76
  Z"
/>
<path fill="#ffffff" d="
  M 91.99 112.19
  Q 90.11 113.11 87.64 113.09
  Q 87.01 113.08 87.01 113.71
  L 87.00 117.25
  Q 87.00 118.00 86.25 118.00
  L 83.71 118.00
  Q 83.00 118.00 83.00 117.29
  L 82.99 110.00
  L 83.12 104.69
  Q 83.14 104.10 83.73 104.05
  Q 87.66 103.77 90.78 104.28
  C 94.96 104.96 94.65 109.87 91.99 112.19
  Z
  M 89.82 108.95
  Q 90.39 107.23 88.18 106.97
  Q 87.04 106.84 87.03 107.99
  L 87.02 109.29
  Q 87.01 109.91 87.62 109.99
  Q 89.40 110.21 89.82 108.95
  Z"
/>
<path fill="#ffffff" d="
  M 41.58 110.63
  L 40.73 112.01
  A 0.87 0.87 0.0 0 0 40.74 112.94
  L 43.55 117.31
  Q 43.97 117.97 43.19 117.98
  L 42.22 117.99
  A 1.03 1.02 -13.9 0 1 41.29 117.44
  L 39.76 114.48
  A 0.38 0.37 44.8 0 0 39.09 114.48
  C 38.20 116.24 38.28 117.95 35.89 118.01
  Q 35.02 118.03 35.57 117.35
  Q 39.13 112.96 37.39 110.58
  L 35.39 107.61
  Q 34.91 106.88 35.78 106.89
  L 36.38 106.89
  Q 37.41 106.90 37.88 107.82
  L 39.00 110.06
  Q 39.60 111.24 40.13 110.03
  L 41.12 107.73
  A 1.44 1.44 0.0 0 1 42.44 106.87
  L 43.12 106.87
  A 0.53 0.53 0.0 0 1 43.56 107.70
  L 41.58 110.63
  Z"
/>
<path fill="#fa9e1d" d="
  M 89.82 108.95
  Q 89.40 110.21 87.62 109.99
  Q 87.01 109.91 87.02 109.29
  L 87.03 107.99
  Q 87.04 106.84 88.18 106.97
  Q 90.39 107.23 89.82 108.95
  Z"
/>
<path fill="#fa9e1d" d="
  M 105.79 108.24
  L 106.25 108.99
  Q 106.58 109.53 106.80 108.94
  L 107.08 108.19
  L 107.98 120.30
  Q 106.15 122.63 104.27 124.29
  C 102.69 125.69 101.01 125.97 99.01 126.00
  Q 89.72 126.12 81.75 126.61
  Q 79.52 126.75 77.54 127.66
  Q 76.63 127.69 76.12 128.00
  L 72.64 128.00
  Q 77.55 124.95 80.75 125.07
  Q 92.06 125.49 101.58 124.13
  Q 104.11 123.77 105.15 121.29
  A 0.80 0.76 88.5 0 1 105.51 120.89
  Q 106.22 120.51 106.27 119.25
  Q 106.49 113.52 106.08 110.59
  L 105.79 108.24
  Z"
/>
<path fill="#bf1f20" d="
  M 110.84 121.06
  L 110.83 127.13
  Q 110.83 127.59 110.37 127.59
  Q 109.47 127.58 108.87 128.00
  L 82.26 128.00
  L 77.54 127.66
  Q 79.52 126.75 81.75 126.61
  Q 89.72 126.12 99.01 126.00
  C 101.01 125.97 102.69 125.69 104.27 124.29
  Q 106.15 122.63 107.98 120.30
  Q 109.02 120.18 109.97 119.39
  Q 110.39 119.04 110.70 119.49
  Q 111.05 119.99 110.84 121.06
  Z"
/>
<path fill="#6a1524" d="
  M 16.38 120.53
  Q 17.58 125.34 20.74 128.00
  L 16.08 128.00
  L 16.38 120.53
  Z"
/>
<path fill="#4e247d" d="
  M 82.26 128.00
  L 76.12 128.00
  Q 76.63 127.69 77.54 127.66
  L 82.26 128.00
  Z"
/>
<path fill="#4e247d" d="
  M 54.74 127.66
  Q 55.53 127.73 55.90 128.00
  L 51.37 128.00
  L 54.74 127.66
  Z"
/>
</svg>
