<?xml version="1.0" encoding="UTF-8" standalone="no"?>
<!DOCTYPE svg PUBLIC "-//W3C//DTD SVG 1.1//EN" "http://www.w3.org/Graphics/SVG/1.1/DTD/svg11.dtd">
<svg xmlns="http://www.w3.org/2000/svg" version="1.1" viewBox="0.00 0.00 128.00 128.00">
<g stroke-width="2.00" fill="none" stroke-linecap="butt">
<path stroke="#3c1c5e" vector-effect="non-scaling-stroke" d="
  M 1.46 0.00
  Q 0.41 1.19 0.47 2.76
  Q 1.11 19.74 0.74 36.76
  Q 0.73 37.30 1.26 37.39
  Q 1.80 37.48 2.66 36.73"
/>
<path stroke="#5d288a" vector-effect="non-scaling-stroke" d="
  M 2.66 36.73
  Q 2.25 38.18 1.02 37.75
  A 0.59 0.58 9.9 0 0 0.25 38.29
  Q -0.07 47.54 0.89 56.83
  Q 0.98 57.68 1.63 57.11
  L 2.88 56.01
  A 1.45 1.40 -71.2 0 1 3.52 55.68
  Q 7.10 54.88 7.09 50.93
  Q 7.08 47.74 7.29 44.55
  Q 7.49 41.61 7.26 38.36
  Q 6.60 29.07 6.71 19.68
  C 6.71 19.04 6.41 18.61 6.40 18.00
  Q 6.24 9.38 6.18 1.38
  Q 6.17 0.44 5.24 0.41
  L 3.78 0.37
  A 0.83 0.82 90.0 0 0 2.93 1.23
  L 3.39 13.07"
/>
<path stroke="#3c1c5e" vector-effect="non-scaling-stroke" d="
  M 3.39 13.07
  Q 2.63 7.03 2.56 1.00
  Q 2.55 0.62 1.97 0.00"
/>
<path stroke="#5c3bac" vector-effect="non-scaling-stroke" d="
  M 14.13 0.00
  Q 13.64 0.36 11.92 0.26
  A 0.90 0.90 0.0 0 0 10.98 1.06
  Q 10.20 8.22 10.93 15.89
  Q 11.31 19.86 10.96 24.19
  Q 10.55 29.24 10.41 34.28"
/>
<path stroke="#7d2d97" vector-effect="non-scaling-stroke" d="
  M 10.41 34.28
  Q 8.72 46.96 9.99 59.54"
/>
<path stroke="#5d288a" vector-effect="non-scaling-stroke" d="
  M 9.99 59.54
  Q 10.83 66.52 13.36 73.09
  C 13.58 73.67 13.91 74.03 14.24 74.53
  Q 14.61 75.08 14.02 75.40
  L 12.00 76.47
  L 1.40 79.06"
/>
<path stroke="#3c1c5e" vector-effect="non-scaling-stroke" d="
  M 1.40 79.06
  C 3.06 77.42 1.92 76.55 2.14 74.70
  Q 2.28 73.49 2.25 72.25
  Q 2.13 67.23 1.98 62.45
  A 0.66 0.65 87.1 0 0 1.28 61.81
  Q 0.48 61.87 0.43 63.01
  Q 0.31 65.76 0.00 68.50"
/>
<path stroke="#4b206b" vector-effect="non-scaling-stroke" d="
  M 3.39 13.07
  Q 4.12 25.05 2.66 36.73"
/>
<path stroke="#b285eb" vector-effect="non-scaling-stroke" d="
  M 34.94 0.00
  Q 29.42 3.26 25.15 7.66"
/>
<path stroke="#b361e7" vector-effect="non-scaling-stroke" d="
  M 25.15 7.66
  L 19.30 14.82"
/>
<path stroke="#a44fd9" vector-effect="non-scaling-stroke" d="
  M 19.30 14.82
  Q 14.92 22.97 11.71 31.94"
/>
<path stroke="#8b44c6" vector-effect="non-scaling-stroke" d="
  M 11.71 31.94
  L 10.41 34.28"
/>
<path stroke="#fa94f7" vector-effect="non-scaling-stroke" d="
  M 38.92 0.00
  Q 38.44 0.88 37.10 1.49
  Q 35.64 2.14 35.06 2.54
  Q 30.61 5.61 26.24 8.79
  A 0.75 0.74 -31.2 0 1 25.13 8.52
  Q 25.05 8.36 25.15 7.66"
/>
<path stroke="#a54ab8" vector-effect="non-scaling-stroke" d="
  M 55.82 0.00
  L 61.12 0.71"
/>
<path stroke="#cb4b8f" vector-effect="non-scaling-stroke" d="
  M 61.12 0.71
  Q 58.49 0.98 55.95 1.29
  Q 53.50 1.59 51.04 2.46
  Q 47.08 3.87 44.07 5.31
  Q 39.48 7.51 32.65 13.40
  Q 26.61 18.61 23.20 27.06"
/>
<path stroke="#ec5ee5" vector-effect="non-scaling-stroke" d="
  M 23.20 27.06
  Q 22.60 27.22 22.49 25.73
  C 22.39 24.24 22.64 23.37 23.46 21.92
  C 24.49 20.09 23.49 18.40 23.18 16.57
  Q 23.09 16.06 22.71 15.71
  Q 22.39 15.42 22.21 15.06
  Q 21.92 14.45 21.35 14.83
  Q 19.34 16.16 19.30 14.82"
/>
<path stroke="#9638aa" vector-effect="non-scaling-stroke" d="
  M 75.51 0.00
  L 70.55 0.59"
/>
<path stroke="#742554" vector-effect="non-scaling-stroke" d="
  M 70.55 0.59
  L 61.12 0.71"
/>
<path stroke="#ec5ee5" vector-effect="non-scaling-stroke" d="
  M 92.45 0.00
  Q 94.83 2.34 97.55 4.15
  Q 99.30 5.32 100.69 6.63
  Q 102.25 8.11 104.27 8.82
  A 1.84 1.77 32.2 0 0 106.10 8.44
  Q 106.26 8.28 106.06 7.75"
/>
<path stroke="#b94ad3" vector-effect="non-scaling-stroke" d="
  M 106.06 7.75
  Q 111.59 13.34 115.42 20.25"
/>
<path stroke="#9638aa" vector-effect="non-scaling-stroke" d="
  M 115.42 20.25
  Q 122.21 33.47 122.34 48.84"
/>
<path stroke="#83308b" vector-effect="non-scaling-stroke" d="
  M 122.34 48.84
  L 122.20 51.91"
/>
<path stroke="#b33abc" vector-effect="non-scaling-stroke" d="
  M 122.20 51.91
  Q 121.18 52.44 120.84 51.67
  Q 120.75 51.48 120.57 51.54
  Q 120.51 51.57 120.47 51.62
  Q 120.11 52.24 120.12 51.53
  Q 120.13 50.26 120.11 48.90
  Q 120.10 48.29 119.65 47.88
  L 118.16 46.53
  A 1.34 1.33 -67.1 0 0 115.93 47.44
  Q 115.60 52.41 114.11 56.55
  Q 112.87 59.98 111.78 63.43
  Q 111.72 63.60 111.59 63.74
  Q 111.39 63.94 111.13 63.95
  Q 110.44 63.99 110.84 63.42
  Q 111.31 62.77 110.90 61.77"
/>
<path stroke="#a4307e" vector-effect="non-scaling-stroke" d="
  M 110.90 61.77
  L 112.36 55.15"
/>
<path stroke="#bc3881" vector-effect="non-scaling-stroke" d="
  M 112.36 55.15
  Q 115.37 39.53 107.85 25.15
  Q 106.58 22.73 103.24 17.93"
/>
<path stroke="#ec5ee5" vector-effect="non-scaling-stroke" d="
  M 103.24 17.93
  Q 104.84 18.12 103.81 15.85
  Q 103.40 14.95 102.74 14.21
  Q 100.80 12.01 99.10 9.75
  Q 97.97 8.27 96.25 7.40
  Q 94.26 6.40 92.59 5.27
  A 1.69 1.64 30.6 0 0 90.18 5.85
  Q 90.17 5.87 90.42 6.72"
/>
<path stroke="#bc3881" vector-effect="non-scaling-stroke" d="
  M 90.42 6.72
  Q 82.36 2.12 76.99 1.53
  Q 73.86 1.19 70.55 0.59"
/>
<path stroke="#c85ce1" vector-effect="non-scaling-stroke" d="
  M 97.10 0.00
  L 106.06 7.75"
/>
<path stroke="#7236a6" vector-effect="non-scaling-stroke" d="
  M 112.85 0.00
  Q 116.14 0.73 119.41 0.00"
/>
<path stroke="#7236a6" vector-effect="non-scaling-stroke" d="
  M 121.71 0.00
  L 128.00 0.63"
/>
<path stroke="#7236a6" vector-effect="non-scaling-stroke" d="
  M 128.00 5.25
  Q 126.76 5.21 124.75 5.86
  Q 123.28 6.33 121.60 5.41
  Q 121.08 5.13 120.84 5.66
  Q 119.38 8.80 119.82 11.94
  Q 119.97 13.04 119.38 14.01
  Q 119.01 14.63 118.25 14.99
  A 5.11 3.31 -15.5 0 0 115.38 18.22
  Q 115.31 18.84 115.42 20.25"
/>
<path stroke="#cb4b8f" vector-effect="non-scaling-stroke" d="
  M 90.42 6.72
  Q 97.97 11.04 103.24 17.93"
/>
<path stroke="#821d27" vector-effect="non-scaling-stroke" d="
  M 112.36 55.15
  L 111.97 50.56
  Q 111.91 49.90 111.26 50.00
  Q 110.87 50.06 110.67 49.80
  Q 110.49 49.55 110.34 49.82
  Q 110.22 50.03 109.94 50.07
  Q 109.39 50.14 109.39 49.59
  Q 109.39 47.10 109.06 44.45
  Q 108.87 42.91 108.38 41.44
  Q 107.84 39.78 107.65 38.19
  Q 107.64 38.10 107.57 38.04
  Q 107.53 38.00 107.49 37.97
  Q 107.16 37.77 107.30 38.13
  Q 107.72 39.23 107.85 40.30
  Q 107.94 41.07 107.43 40.48
  L 106.88 39.85
  A 0.82 0.82 0.0 0 0 105.45 40.30
  Q 104.85 45.64 103.65 51.46
  Q 102.40 57.48 99.61 62.20
  C 97.82 65.22 93.23 71.93 89.98 73.07
  Q 89.09 73.38 88.48 74.13
  Q 87.65 75.17 86.52 75.83
  Q 77.90 80.86 68.01 82.12
  Q 66.62 82.29 65.04 83.83
  Q 64.64 84.22 64.19 83.89
  Q 63.13 83.12 63.24 81.61
  A 0.73 0.72 5.4 0 0 62.60 80.84
  Q 62.24 80.80 61.89 80.95
  Q 61.29 81.22 60.65 81.07
  Q 57.02 80.25 53.22 79.44
  Q 52.06 79.19 51.01 78.62
  Q 50.06 78.11 49.03 77.83
  Q 47.48 77.40 46.05 76.57
  Q 31.79 68.28 26.65 52.31
  Q 25.87 49.90 24.96 47.51
  A 1.53 1.52 -7.9 0 0 23.66 46.53
  Q 22.11 46.41 22.03 47.48"
/>
<path stroke="#8d253b" vector-effect="non-scaling-stroke" d="
  M 22.03 47.48
  Q 21.81 40.14 23.55 32.39
  A 0.97 0.96 -74.8 0 0 22.91 31.26
  Q 21.84 30.90 22.44 29.19
  Q 23.01 28.96 22.65 28.04"
/>
<path stroke="#bc3881" vector-effect="non-scaling-stroke" d="
  M 22.65 28.04
  Q 23.06 27.61 23.20 27.06"
/>
<path stroke="#c94820" vector-effect="non-scaling-stroke" d="
  M 33.34 19.52
  Q 30.94 22.11 29.54 25.39"
/>
<path stroke="#bb3826" vector-effect="non-scaling-stroke" d="
  M 29.54 25.39
  Q 27.01 31.08 26.63 33.01
  Q 26.06 35.95 26.45 41.33
  Q 26.71 44.93 28.21 47.89
  Q 30.06 51.55 31.91 53.95
  Q 34.02 56.69 37.50 57.73
  Q 41.81 59.02 46.51 58.80"
/>
<path stroke="#c94820" vector-effect="non-scaling-stroke" d="
  M 46.51 58.80
  L 63.98 58.91"
/>
<path stroke="#c95019" vector-effect="non-scaling-stroke" d="
  M 63.98 58.91
  L 64.06 82.67
  Q 64.07 84.10 64.98 83.00
  Q 71.02 75.73 76.32 69.59
  Q 80.92 64.27 85.94 58.19
  Q 89.84 53.47 93.13 47.39"
/>
<path stroke="#bb3826" vector-effect="non-scaling-stroke" d="
  M 93.13 47.39
  Q 100.55 45.68 104.19 39.93
  Q 104.46 39.51 104.44 39.01
  Q 104.14 28.24 97.77 19.08"
/>
<path stroke="#ca6123" vector-effect="non-scaling-stroke" d="
  M 97.77 19.08
  Q 95.22 14.83 91.53 11.45"
/>
<path stroke="#cb8b5d" vector-effect="non-scaling-stroke" d="
  M 91.53 11.45
  Q 76.97 -1.39 57.72 2.31
  Q 42.26 5.28 33.34 19.52"
/>
<path stroke="#fbc756" vector-effect="non-scaling-stroke" d="
  M 91.53 11.45
  Q 89.70 12.50 86.79 11.27
  Q 83.60 9.93 82.52 9.69
  Q 73.58 7.74 65.92 8.82
  Q 63.49 9.16 61.18 9.09
  Q 58.86 9.01 56.66 9.69
  Q 53.80 10.58 51.02 12.01"
/>
<path stroke="#f9ad53" vector-effect="non-scaling-stroke" d="
  M 51.02 12.01
  Q 49.90 12.10 48.62 12.59
  Q 48.17 12.76 47.39 13.45
  Q 46.75 14.01 45.94 14.16
  Q 45.64 14.22 45.67 14.53
  Q 45.71 14.98 45.32 15.21
  Q 42.82 16.72 40.70 18.63
  Q 39.54 19.68 38.02 20.65
  Q 36.68 21.51 35.56 22.64
  A 1.22 1.22 0.0 0 1 33.60 22.33
  Q 33.13 21.38 33.34 19.52"
/>
<path stroke="#eb741f" vector-effect="non-scaling-stroke" d="
  M 97.77 19.08
  Q 97.85 21.11 97.11 21.86
  Q 96.83 22.14 96.69 22.50
  Q 95.98 24.31 94.76 25.77
  Q 94.51 26.07 94.13 26.11
  Q 90.74 26.48 87.41 26.11
  Q 86.11 25.97 85.14 25.16
  Q 84.75 24.83 84.27 24.99
  L 82.76 25.49"
/>
<path stroke="#faae16" vector-effect="non-scaling-stroke" d="
  M 82.76 25.49
  L 86.55 20.00
  A 1.03 1.03 0.0 0 0 86.16 18.49
  L 84.26 17.57"
/>
<path stroke="#fbcd50" vector-effect="non-scaling-stroke" d="
  M 84.26 17.57
  Q 78.95 15.32 73.32 15.12"
/>
<path stroke="#f9ab28" vector-effect="non-scaling-stroke" d="
  M 73.32 15.12
  L 59.39 14.20"
/>
<path stroke="#f98418" vector-effect="non-scaling-stroke" d="
  M 59.39 14.20
  Q 61.27 12.74 58.99 11.62
  Q 58.10 11.18 56.88 11.25
  Q 54.12 11.40 51.02 12.01"
/>
<path stroke="#f89125" vector-effect="non-scaling-stroke" d="
  M 59.39 14.20
  Q 52.74 19.50 49.60 26.33
  Q 46.35 33.39 45.38 38.75
  Q 45.11 40.24 45.87 43.05"
/>
<path stroke="#f9b34d" vector-effect="non-scaling-stroke" d="
  M 45.87 43.05
  L 42.70 49.22
  Q 42.33 49.93 43.14 49.92
  Q 53.11 49.76 63.62 50.29
  A 0.66 0.65 1.8 0 1 64.25 50.95
  L 64.16 57.19"
/>
<path stroke="#f7730e" vector-effect="non-scaling-stroke" d="
  M 64.16 57.19
  Q 63.77 57.55 63.98 58.91"
/>
<path stroke="#ea5a1c" vector-effect="non-scaling-stroke" d="
  M 46.51 58.80
  Q 43.52 56.84 42.10 52.14
  Q 41.48 50.07 41.80 48.43
  Q 41.90 47.90 41.63 47.44
  Q 40.84 46.11 41.07 44.55
  Q 41.32 42.93 41.01 41.45
  Q 40.61 39.46 40.41 37.43
  Q 40.31 36.46 39.85 35.61
  Q 39.23 34.49 39.28 33.28
  Q 39.31 32.47 38.50 32.40
  Q 38.24 32.38 38.13 32.14
  Q 37.37 30.46 35.44 29.40
  Q 33.74 28.48 33.07 26.75
  Q 32.85 26.17 32.29 26.43
  L 31.04 27.02
  Q 30.55 27.25 30.13 26.90
  Q 29.63 26.49 29.54 25.39"
/>
<path stroke="#fade4b" vector-effect="non-scaling-stroke" d="
  M 84.26 17.57
  Q 81.40 19.62 79.74 22.37"
/>
<path stroke="#fcfdac" vector-effect="non-scaling-stroke" d="
  M 79.74 22.37
  Q 79.50 21.18 79.56 20.70
  A 1.62 1.55 -12.5 0 0 77.13 19.23
  Q 74.78 20.61 73.54 22.68
  C 72.82 23.89 71.42 24.65 70.13 25.01
  A 1.52 1.51 72.0 0 0 69.12 27.00
  L 70.19 29.84
  A 1.37 1.34 4.0 0 0 70.82 30.55
  Q 72.25 31.30 73.80 31.34"
/>
<path stroke="#fade4b" vector-effect="non-scaling-stroke" d="
  M 73.80 31.34
  Q 69.34 38.42 65.98 46.92
  A 0.98 0.98 0.0 0 0 66.80 48.26
  L 81.06 49.56"
/>
<path stroke="#f9bc46" vector-effect="non-scaling-stroke" d="
  M 81.06 49.56
  L 71.89 66.33
  Q 71.83 66.43 71.71 66.45
  Q 71.57 66.46 71.46 66.53
  Q 71.37 66.59 71.32 66.67
  Q 68.48 71.94 65.29 77.20
  Q 64.77 78.07 64.74 77.06
  L 64.16 57.19"
/>
<path stroke="#fada5d" vector-effect="non-scaling-stroke" d="
  M 73.32 15.12
  L 62.52 15.22
  Q 61.97 15.23 61.85 15.77
  Q 61.71 16.39 61.35 16.89
  C 55.28 25.29 50.72 34.12 45.87 43.05"
/>
<path stroke="#ea6315" vector-effect="non-scaling-stroke" d="
  M 93.13 47.39
  Q 94.59 44.93 91.47 43.30
  Q 84.45 39.63 75.30 36.94"
/>
<path stroke="#eb851a" vector-effect="non-scaling-stroke" d="
  M 82.76 25.49
  L 75.30 36.94"
/>
<path stroke="#f89d0c" vector-effect="non-scaling-stroke" d="
  M 75.30 36.94
  Q 73.04 38.23 73.13 40.82
  A 2.80 2.80 0.0 0 0 75.36 43.47
  L 82.82 45.00
  Q 84.04 45.25 83.33 46.28
  L 81.06 49.56"
/>
<path stroke="#fbdf72" vector-effect="non-scaling-stroke" d="
  M 73.80 31.34
  L 79.74 22.37"
/>
<path stroke="#882451" vector-effect="non-scaling-stroke" d="
  M 108.86 128.00
  Q 109.43 127.54 110.41 127.58
  Q 110.99 127.61 110.94 127.03
  Q 110.50 122.31 111.31 117.34
  Q 111.69 114.98 111.32 111.68
  Q 110.81 107.18 111.01 102.05"
/>
<path stroke="#a59095" vector-effect="non-scaling-stroke" d="
  M 111.01 102.05
  L 102.20 92.18"
/>
<path stroke="#6c268f" vector-effect="non-scaling-stroke" d="
  M 102.20 92.18
  Q 107.84 89.66 110.74 84.47
  Q 112.40 81.49 113.63 79.56
  Q 115.63 76.45 116.37 74.63
  Q 117.68 71.42 118.83 67.93"
/>
<path stroke="#3c1c5e" vector-effect="non-scaling-stroke" d="
  M 118.83 67.93
  Q 118.24 72.48 115.84 78.24
  Q 115.51 79.03 116.28 79.48
  A 0.93 0.91 -49.3 0 0 117.35 79.39
  Q 119.28 77.74 121.60 77.78
  A 1.02 1.01 4.9 0 0 122.62 76.93
  Q 123.98 68.83 124.41 59.17
  Q 124.45 58.43 124.94 57.89
  Q 125.91 56.81 125.97 58.26
  L 126.63 75.91
  A 0.55 0.55 0.0 0 0 127.11 76.44
  L 127.46 76.48
  A 0.23 0.23 0.0 0 0 127.72 76.26
  Q 127.96 67.39 127.74 57.90
  C 127.71 56.66 127.01 55.70 125.89 55.23
  A 2.39 2.39 0.0 0 1 124.46 52.57
  L 125.66 46.28
  Q 125.76 45.74 126.24 46.02
  Q 126.55 46.20 126.70 46.54
  Q 126.75 46.66 126.84 46.76
  Q 126.98 46.92 127.11 46.85
  Q 127.39 46.70 127.41 46.38
  Q 127.80 37.87 127.61 29.56
  Q 127.57 28.07 126.83 29.37
  Q 126.76 29.49 126.77 30.50
  Q 126.79 33.97 126.23 37.44
  C 125.95 39.17 126.14 40.98 126.35 42.71
  Q 126.45 43.54 125.90 44.17
  Q 125.19 45.00 124.61 44.84
  Q 124.01 44.68 123.93 43.99
  Q 123.85 43.22 123.51 42.53
  Q 123.43 42.36 123.25 42.30
  Q 122.80 42.14 122.77 42.62
  L 122.34 48.84"
/>
<path stroke="#f89125" vector-effect="non-scaling-stroke" d="
  M 41.1389 33.6320
  A 2.04 1.10 74.1 0 0 41.6379 31.3686
  A 2.04 1.10 74.1 0 0 40.0211 29.7080
  A 2.04 1.10 74.1 0 0 39.5221 31.9714
  A 2.04 1.10 74.1 0 0 41.1389 33.6320"
/>
<path stroke="#af3892" vector-effect="non-scaling-stroke" d="
  M 22.65 28.04
  Q 19.60 34.08 18.59 41.19"
/>
<path stroke="#c440c4" vector-effect="non-scaling-stroke" d="
  M 18.59 41.19
  Q 18.10 42.85 16.45 40.88
  Q 16.14 40.51 16.08 40.04
  Q 16.01 39.57 15.60 39.32
  Q 15.24 39.11 14.83 39.11
  Q 13.51 39.11 12.21 39.15
  A 0.97 0.96 70.1 0 1 11.43 38.78
  Q 10.11 37.10 10.65 35.74
  Q 11.37 33.89 11.71 31.94"
/>
<path stroke="#751d38" vector-effect="non-scaling-stroke" d="
  M 22.03 47.48
  Q 22.05 51.99 24.39 59.63
  Q 25.97 64.81 27.37 67.00
  Q 28.31 68.49 28.70 69.75
  Q 29.18 71.28 29.73 72.65
  Q 29.96 73.23 29.74 73.82
  Q 29.50 74.51 29.72 75.22
  Q 30.01 76.19 30.88 76.88
  Q 32.10 77.87 33.17 78.86
  Q 34.20 79.81 35.44 80.55
  Q 36.62 81.25 37.58 82.41
  Q 38.33 83.32 39.46 84.00
  Q 41.00 84.94 42.26 85.94
  Q 42.68 86.27 43.21 86.34
  Q 44.75 86.52 44.77 88.02"
/>
<path stroke="#762871" vector-effect="non-scaling-stroke" d="
  M 44.77 88.02
  Q 43.53 87.22 42.09 86.96
  Q 41.61 86.88 41.29 86.51
  Q 39.86 84.84 37.89 83.70
  Q 36.82 83.08 35.81 82.37
  Q 34.83 81.67 33.77 80.99
  Q 30.54 78.94 27.49 75.02"
/>
<path stroke="#962d7e" vector-effect="non-scaling-stroke" d="
  M 27.49 75.02
  C 20.17 64.95 17.81 53.59 18.59 41.19"
/>
<path stroke="#591e70" vector-effect="non-scaling-stroke" d="
  M 118.83 67.93
  Q 121.84 60.37 122.20 51.91"
/>
<path stroke="#8c31a3" vector-effect="non-scaling-stroke" d="
  M 27.49 75.02
  L 28.69 79.55
  Q 28.86 80.22 28.19 80.09
  Q 27.08 79.90 26.38 78.95
  Q 25.86 78.25 25.24 77.66
  Q 23.48 76.00 21.65 74.42
  Q 20.36 73.31 19.58 71.90
  C 18.94 70.75 17.90 70.13 17.45 68.89
  Q 16.99 67.64 16.10 66.66
  Q 14.60 65.01 12.64 63.92
  A 1.61 1.61 0.0 0 1 11.98 63.26
  L 9.99 59.54"
/>
<path stroke="#7a1f63" vector-effect="non-scaling-stroke" d="
  M 110.90 61.77
  Q 107.23 72.01 99.28 79.54
  Q 98.08 80.68 97.18 81.99
  Q 96.66 82.76 95.71 82.86
  A 1.76 1.71 21.2 0 0 94.81 83.24
  Q 90.85 86.53 85.83 88.38
  A 0.75 0.74 -5.5 0 0 85.35 88.96
  Q 85.30 89.25 85.11 89.46
  Q 84.78 89.80 84.31 89.82
  L 81.52 89.94"
/>
<path stroke="#b38868" vector-effect="non-scaling-stroke" d="
  M 81.52 89.94
  Q 74.84 89.00 68.22 87.42
  Q 64.66 86.57 60.09 88.11
  Q 55.82 89.55 47.70 90.03"
/>
<path stroke="#6b215d" vector-effect="non-scaling-stroke" d="
  M 47.70 90.03
  Q 47.45 88.33 44.77 88.02"
/>
<path stroke="#c292a7" vector-effect="non-scaling-stroke" d="
  M 102.20 92.18
  Q 96.62 90.46 90.00 90.79
  Q 88.24 90.87 85.82 90.30
  Q 83.71 89.80 81.52 89.94"
/>
<path stroke="#b494a1" vector-effect="non-scaling-stroke" d="
  M 47.70 90.03
  C 45.60 90.25 43.83 91.01 41.73 91.00
  Q 35.48 90.96 29.27 91.03
  Q 28.76 91.03 28.38 91.37
  C 26.67 92.90 24.75 93.57 23.24 95.47
  Q 20.24 99.23 16.25 101.34
  Q 15.99 101.48 15.98 101.77
  Q 15.98 102.00 16.21 102.07"
/>
<path stroke="#97285d" vector-effect="non-scaling-stroke" d="
  M 16.21 102.07
  L 16.35 120.70"
/>
<path stroke="#6b215d" vector-effect="non-scaling-stroke" d="
  M 16.35 120.70
  L 16.07 128.00"
/>
<path stroke="#4b206b" vector-effect="non-scaling-stroke" d="
  M 0.00 78.24
  Q 0.41 79.29 1.40 79.06"
/>
<path stroke="#b372c9" vector-effect="non-scaling-stroke" d="
  M 12.00 76.47
  Q 10.14 77.29 9.91 78.24
  Q 9.52 79.90 10.68 80.29
  Q 11.15 80.45 11.56 80.15
  Q 12.99 79.11 14.59 78.69
  A 0.79 0.78 -21.2 0 0 15.09 77.57
  Q 14.01 75.54 12.00 76.47"
/>
<path stroke="#df9068" vector-effect="non-scaling-stroke" d="
  M 111.01 102.05
  L 107.75 104.56
  Q 107.36 104.86 107.33 105.35
  L 107.18 107.95"
/>
<path stroke="#fbcc64" vector-effect="non-scaling-stroke" d="
  M 107.18 107.95
  L 106.76 108.51
  Q 106.49 108.87 106.19 108.54
  L 105.88 108.21"
/>
<path stroke="#faca6c" vector-effect="non-scaling-stroke" d="
  M 105.88 108.21
  L 105.21 103.29"
/>
<path stroke="#fada70" vector-effect="non-scaling-stroke" d="
  M 105.21 103.29
  Q 103.89 100.34 101.70 98.03
  Q 99.74 95.96 96.83 95.74
  Q 88.65 95.13 79.91 94.56
  Q 74.77 94.22 69.23 92.28
  Q 65.61 91.01 61.21 92.94
  Q 60.81 93.11 60.38 93.12
  Q 58.43 93.17 56.60 93.80
  Q 53.95 94.73 50.54 94.78
  Q 47.85 94.82 44.91 95.29
  Q 38.81 96.27 31.83 95.81
  C 30.89 95.74 29.23 96.22 28.49 96.87
  C 25.42 99.61 21.72 103.93 21.88 108.05
  Q 22.08 113.05 22.11 117.60
  A 0.96 0.95 -7.5 0 1 21.40 118.52
  L 21.12 118.59
  Q 20.67 118.71 20.66 118.24
  Q 20.64 111.61 20.51 105.51
  Q 20.46 103.12 17.63 102.41"
/>
<path stroke="#df9068" vector-effect="non-scaling-stroke" d="
  M 17.63 102.41
  Q 16.94 102.11 16.21 102.07"
/>
<path stroke="#f8a830" vector-effect="non-scaling-stroke" d="
  M 105.21 103.29
  Q 103.61 103.18 103.31 103.95
  Q 103.14 104.36 102.77 104.58
  L 100.25 106.10
  A 0.03 0.03 0.0 0 0 100.27 106.16
  Q 100.48 106.11 100.49 106.37
  A 0.29 0.29 0.0 0 1 100.22 106.68
  L 96.63 106.93
  Q 96.32 106.95 96.11 106.73
  Q 95.39 106.01 94.50 106.53
  Q 94.05 106.80 93.54 106.70
  Q 92.80 106.55 91.97 107.21"
/>
<path stroke="#fcdc9a" vector-effect="non-scaling-stroke" d="
  M 91.97 107.21
  C 90.69 103.11 84.87 103.88 81.57 103.99
  A 0.53 0.53 0.0 0 0 81.06 104.52
  L 80.97 112.26"
/>
<path stroke="#f8a830" vector-effect="non-scaling-stroke" d="
  M 80.97 112.26
  Q 80.33 111.31 79.52 111.12
  Q 79.16 111.03 78.89 110.78
  Q 78.37 110.27 77.65 110.34
  Q 77.16 110.39 76.85 110.00
  Q 76.28 109.27 75.56 108.87"
/>
<path stroke="#fcdc9a" vector-effect="non-scaling-stroke" d="
  M 75.56 108.87
  L 78.48 104.70
  Q 78.81 104.23 78.25 104.09
  Q 73.42 102.96 72.12 106.90
  A 0.61 0.61 0.0 0 1 71.03 107.04
  L 69.56 104.73
  Q 69.27 104.27 68.72 104.18
  Q 62.72 103.24 65.01 105.52"
/>
<path stroke="#f8a830" vector-effect="non-scaling-stroke" d="
  M 65.01 105.52
  Q 62.20 107.24 61.01 107.39
  Q 58.55 107.69 56.01 108.02"
/>
<path stroke="#fcdc9a" vector-effect="non-scaling-stroke" d="
  M 56.01 108.02
  C 56.14 103.40 50.67 103.57 47.58 104.71
  Q 47.00 104.93 46.93 105.55
  Q 46.87 106.01 46.99 106.46
  Q 47.12 107.00 47.63 106.78
  Q 50.61 105.48 53.22 106.50
  Q 53.75 106.70 53.88 107.25
  C 54.35 109.29 52.31 110.03 50.70 110.05
  Q 49.98 110.06 49.97 110.78
  L 49.97 111.14
  Q 49.95 111.84 50.65 111.93
  L 52.62 112.20
  A 1.62 1.61 15.6 0 1 53.89 114.45
  C 52.88 116.75 49.32 116.08 47.61 115.22
  Q 47.11 114.97 46.94 115.50
  Q 46.74 116.07 47.19 116.82"
/>
<path stroke="#f8a830" vector-effect="non-scaling-stroke" d="
  M 47.19 116.82
  Q 44.33 112.97 42.11 114.95"
/>
<path stroke="#fcdc9a" vector-effect="non-scaling-stroke" d="
  M 42.11 114.95
  Q 41.36 114.28 40.67 112.74
  Q 40.45 112.25 40.75 111.80
  L 43.59 107.62
  Q 44.01 107.00 43.26 106.98
  L 42.18 106.97
  Q 41.52 106.96 41.25 107.55
  L 39.94 110.42
  A 0.45 0.45 0.0 0 1 39.13 110.43
  L 37.88 107.82
  Q 37.50 107.03 36.62 106.95
  L 35.80 106.87
  Q 34.85 106.78 35.37 107.57
  L 38.20 111.89
  Q 38.48 112.32 38.27 112.78
  Q 37.56 114.40 36.68 115.25"
/>
<path stroke="#f8a830" vector-effect="non-scaling-stroke" d="
  M 36.68 115.25
  Q 32.60 114.67 28.66 114.44
  Q 27.43 114.37 26.42 113.96
  Q 25.33 113.52 24.15 113.43
  A 1.34 1.33 3.8 0 0 22.71 114.69
  L 22.40 120.54
  A 2.61 2.61 0.0 0 0 23.86 123.02
  Q 25.53 123.84 27.58 124.18
  Q 35.36 125.48 43.54 125.11
  Q 44.54 125.07 45.50 124.89
  Q 46.52 124.71 47.43 124.78
  C 49.09 124.91 50.49 124.70 52.12 124.64
  Q 53.10 124.61 54.05 124.98
  Q 57.63 126.38 61.46 128.00"
/>
<path stroke="#a36e59" vector-effect="non-scaling-stroke" d="
  M 55.46 128.00
  Q 55.53 127.73 54.75 127.71"
/>
<path stroke="#dd6e2c" vector-effect="non-scaling-stroke" d="
  M 54.75 127.71
  Q 52.47 126.20 50.25 126.21
  C 42.26 126.25 33.40 126.81 25.44 125.43
  A 3.97 3.95 -15.6 0 1 23.14 124.14
  Q 20.69 121.33 18.34 118.50
  C 17.22 117.14 16.90 115.99 17.06 114.26
  Q 17.53 109.19 17.07 104.07
  Q 17.05 103.77 17.34 103.79
  Q 17.52 103.79 17.62 103.66
  Q 17.88 103.29 17.75 102.82
  Q 17.69 102.64 17.63 102.41"
/>
<path stroke="#882451" vector-effect="non-scaling-stroke" d="
  M 54.75 127.71
  L 49.97 128.00"
/>
<path stroke="#882451" vector-effect="non-scaling-stroke" d="
  M 49.77 128.00
  Q 47.51 127.54 45.36 128.00"
/>
<path stroke="#961d24" vector-effect="non-scaling-stroke" d="
  M 20.75 128.00
  Q 17.69 125.37 16.35 120.70"
/>
<path stroke="#882451" vector-effect="non-scaling-stroke" d="
  M 82.27 128.00
  L 77.52 127.70"
/>
<path stroke="#de6120" vector-effect="non-scaling-stroke" d="
  M 77.52 127.70
  Q 79.40 126.70 81.50 126.59
  Q 90.38 126.13 99.75 125.96
  C 103.73 125.89 106.63 122.38 108.46 119.21
  Q 108.74 118.72 108.42 118.25
  C 108.07 117.73 107.88 117.15 107.84 116.53
  Q 107.53 112.31 107.18 107.95"
/>
<path stroke="#f99b24" vector-effect="non-scaling-stroke" d="
  M 105.88 108.21
  Q 106.85 115.24 106.87 117.26
  Q 106.90 120.97 103.33 123.46
  Q 102.36 124.13 101.17 124.15
  Q 100.00 124.16 98.79 124.48
  Q 97.05 124.95 95.26 124.89
  C 92.16 124.80 89.27 125.14 85.92 125.03
  Q 78.69 124.79 72.08 128.00"
/>
<path stroke="#fccc96" vector-effect="non-scaling-stroke" d="
  M 36.68 115.25
  L 35.39 117.41
  Q 35.02 118.03 35.74 118.00
  L 36.86 117.96
  Q 37.48 117.94 37.73 117.38
  L 39.14 114.34
  A 0.33 0.33 0.0 0 1 39.74 114.33
  L 41.30 117.44
  Q 41.58 118.00 42.20 117.99
  L 43.23 117.98
  Q 43.98 117.97 43.59 117.33
  L 42.11 114.95"
/>
<path stroke="#fccc96" vector-effect="non-scaling-stroke" d="
  M 47.19 116.82
  Q 48.37 118.05 51.50 117.91
  Q 55.55 117.74 55.99 114.26
  C 56.17 112.86 55.15 111.51 53.82 111.18
  Q 53.05 110.98 53.73 110.57
  Q 55.54 109.46 56.01 108.02"
/>
<path stroke="#fccc96" vector-effect="non-scaling-stroke" d="
  M 65.01 105.52
  L 68.51 110.55
  Q 68.83 111.01 68.51 111.47
  L 64.30 117.55
  A 0.29 0.28 -72.5 0 0 64.53 118.00
  L 68.46 118.00
  A 1.10 1.09 15.8 0 0 69.39 117.49
  L 71.16 114.68
  A 0.40 0.39 -44.7 0 1 71.83 114.68
  L 73.54 117.38
  A 1.34 1.32 -15.9 0 0 74.67 118.00
  L 78.19 118.00
  Q 79.01 118.00 78.53 117.32
  L 74.51 111.57
  Q 74.26 111.21 74.38 110.80
  Q 74.66 109.80 75.56 108.87"
/>
<path stroke="#fccc96" vector-effect="non-scaling-stroke" d="
  M 80.97 112.26
  L 81.00 117.29
  Q 81.00 118.00 81.71 118.00
  L 84.25 118.00
  A 0.75 0.75 0.0 0 0 85.00 117.25
  L 85.01 113.70
  Q 85.02 113.15 85.56 113.05
  C 86.35 112.91 87.18 113.07 87.99 112.90
  Q 92.28 111.97 91.97 107.21"
/>
<path stroke="#fcdc9a" vector-effect="non-scaling-stroke" d="
  M 85.03 107.57
  L 85.01 109.43
  A 0.54 0.54 0.0 0 0 85.54 109.98
  L 86.09 109.99
  A 1.87 1.27 0.6 0 0 87.98 108.74
  L 87.98 108.34
  A 1.87 1.27 0.6 0 0 86.13 107.05
  L 85.58 107.04
  A 0.54 0.54 0.0 0 0 85.03 107.57"
/>
<path stroke="#a4614c" vector-effect="non-scaling-stroke" d="
  M 77.52 127.70
  Q 76.65 127.66 76.13 128.00"
/>
</g>
<path fill="#4e247d" d="
  M 0.00 0.00
  L 1.46 0.00
  Q 0.41 1.19 0.47 2.76
  Q 1.11 19.74 0.74 36.76
  Q 0.73 37.30 1.26 37.39
  Q 1.80 37.48 2.66 36.73
  Q 2.25 38.18 1.02 37.75
  A 0.59 0.58 9.9 0 0 0.25 38.29
  Q -0.07 47.54 0.89 56.83
  Q 0.98 57.68 1.63 57.11
  L 2.88 56.01
  A 1.45 1.40 -71.2 0 1 3.52 55.68
  Q 7.10 54.88 7.09 50.93
  Q 7.08 47.74 7.29 44.55
  Q 7.49 41.61 7.26 38.36
  Q 6.60 29.07 6.71 19.68
  C 6.71 19.04 6.41 18.61 6.40 18.00
  Q 6.24 9.38 6.18 1.38
  Q 6.17 0.44 5.24 0.41
  L 3.78 0.37
  A 0.83 0.82 90.0 0 0 2.93 1.23
  L 3.39 13.07
  Q 2.63 7.03 2.56 1.00
  Q 2.55 0.62 1.97 0.00
  L 14.13 0.00
  Q 13.64 0.36 11.92 0.26
  A 0.90 0.90 0.0 0 0 10.98 1.06
  Q 10.20 8.22 10.93 15.89
  Q 11.31 19.86 10.96 24.19
  Q 10.55 29.24 10.41 34.28
  Q 8.72 46.96 9.99 59.54
  Q 10.83 66.52 13.36 73.09
  C 13.58 73.67 13.91 74.03 14.24 74.53
  Q 14.61 75.08 14.02 75.40
  L 12.00 76.47
  L 1.40 79.06
  C 3.06 77.42 1.92 76.55 2.14 74.70
  Q 2.28 73.49 2.25 72.25
  Q 2.13 67.23 1.98 62.45
  A 0.66 0.65 87.1 0 0 1.28 61.81
  Q 0.48 61.87 0.43 63.01
  Q 0.31 65.76 0.00 68.50
  L 0.00 0.00
  Z"
/>
<path fill="#29143f" d="
  M 1.46 0.00
  L 1.97 0.00
  Q 2.55 0.62 2.56 1.00
  Q 2.63 7.03 3.39 13.07
  Q 4.12 25.05 2.66 36.73
  Q 1.80 37.48 1.26 37.39
  Q 0.73 37.30 0.74 36.76
  Q 1.11 19.74 0.47 2.76
  Q 0.41 1.19 1.46 0.00
  Z"
/>
<path fill="#6a52db" d="
  M 14.13 0.00
  L 34.94 0.00
  Q 29.42 3.26 25.15 7.66
  L 19.30 14.82
  Q 14.92 22.97 11.71 31.94
  L 10.41 34.28
  Q 10.55 29.24 10.96 24.19
  Q 11.31 19.86 10.93 15.89
  Q 10.20 8.22 10.98 1.06
  A 0.90 0.90 0.0 0 1 11.92 0.26
  Q 13.64 0.36 14.13 0.00
  Z"
/>
<path fill="#f9b8fb" d="
  M 34.94 0.00
  L 38.92 0.00
  Q 38.44 0.88 37.10 1.49
  Q 35.64 2.14 35.06 2.54
  Q 30.61 5.61 26.24 8.79
  A 0.75 0.74 -31.2 0 1 25.13 8.52
  Q 25.05 8.36 25.15 7.66
  Q 29.42 3.26 34.94 0.00
  Z"
/>
<path fill="#fb70f3" d="
  M 38.92 0.00
  L 55.82 0.00
  L 61.12 0.71
  Q 58.49 0.98 55.95 1.29
  Q 53.50 1.59 51.04 2.46
  Q 47.08 3.87 44.07 5.31
  Q 39.48 7.51 32.65 13.40
  Q 26.61 18.61 23.20 27.06
  Q 22.60 27.22 22.49 25.73
  C 22.39 24.24 22.64 23.37 23.46 21.92
  C 24.49 20.09 23.49 18.40 23.18 16.57
  Q 23.09 16.06 22.71 15.71
  Q 22.39 15.42 22.21 15.06
  Q 21.92 14.45 21.35 14.83
  Q 19.34 16.16 19.30 14.82
  L 25.15 7.66
  Q 25.05 8.36 25.13 8.52
  A 0.75 0.74 -31.2 0 0 26.24 8.79
  Q 30.61 5.61 35.06 2.54
  Q 35.64 2.14 37.10 1.49
  Q 38.44 0.88 38.92 0.00
  Z"
/>
<path fill="#4e247d" d="
  M 55.82 0.00
  L 75.51 0.00
  L 70.55 0.59
  L 61.12 0.71
  L 55.82 0.00
  Z"
/>
<path fill="#dd4bd7" d="
  M 75.51 0.00
  L 92.45 0.00
  Q 94.83 2.34 97.55 4.15
  Q 99.30 5.32 100.69 6.63
  Q 102.25 8.11 104.27 8.82
  A 1.84 1.77 32.2 0 0 106.10 8.44
  Q 106.26 8.28 106.06 7.75
  Q 111.59 13.34 115.42 20.25
  Q 122.21 33.47 122.34 48.84
  L 122.20 51.91
  Q 121.18 52.44 120.84 51.67
  Q 120.75 51.48 120.57 51.54
  Q 120.51 51.57 120.47 51.62
  Q 120.11 52.24 120.12 51.53
  Q 120.13 50.26 120.11 48.90
  Q 120.10 48.29 119.65 47.88
  L 118.16 46.53
  A 1.34 1.33 -67.1 0 0 115.93 47.44
  Q 115.60 52.41 114.11 56.55
  Q 112.87 59.98 111.78 63.43
  Q 111.72 63.60 111.59 63.74
  Q 111.39 63.94 111.13 63.95
  Q 110.44 63.99 110.84 63.42
  Q 111.31 62.77 110.90 61.77
  L 112.36 55.15
  Q 115.37 39.53 107.85 25.15
  Q 106.58 22.73 103.24 17.93
  Q 104.84 18.12 103.81 15.85
  Q 103.40 14.95 102.74 14.21
  Q 100.80 12.01 99.10 9.75
  Q 97.97 8.27 96.25 7.40
  Q 94.26 6.40 92.59 5.27
  A 1.69 1.64 30.6 0 0 90.18 5.85
  Q 90.17 5.87 90.42 6.72
  Q 82.36 2.12 76.99 1.53
  Q 73.86 1.19 70.55 0.59
  L 75.51 0.00
  Z"
/>
<path fill="#fb70f3" d="
  M 92.45 0.00
  L 97.10 0.00
  L 106.06 7.75
  Q 106.26 8.28 106.10 8.44
  A 1.84 1.77 32.2 0 1 104.27 8.82
  Q 102.25 8.11 100.69 6.63
  Q 99.30 5.32 97.55 4.15
  Q 94.83 2.34 92.45 0.00
  Z"
/>
<path fill="#9548ce" d="
  M 97.10 0.00
  L 112.85 0.00
  Q 116.14 0.73 119.41 0.00
  L 121.71 0.00
  L 128.00 0.63
  L 128.00 5.25
  Q 126.76 5.21 124.75 5.86
  Q 123.28 6.33 121.60 5.41
  Q 121.08 5.13 120.84 5.66
  Q 119.38 8.80 119.82 11.94
  Q 119.97 13.04 119.38 14.01
  Q 119.01 14.63 118.25 14.99
  A 5.11 3.31 -15.5 0 0 115.38 18.22
  Q 115.31 18.84 115.42 20.25
  Q 111.59 13.34 106.06 7.75
  L 97.10 0.00
  Z"
/>
<path fill="#4e247d" d="
  M 112.85 0.00
  L 119.41 0.00
  Q 116.14 0.73 112.85 0.00
  Z"
/>
<path fill="#4e247d" d="
  M 121.71 0.00
  L 128.00 0.00
  L 128.00 0.63
  L 121.71 0.00
  Z"
/>
<path fill="#9a252a" d="
  M 70.55 0.59
  Q 73.86 1.19 76.99 1.53
  Q 82.36 2.12 90.42 6.72
  Q 97.97 11.04 103.24 17.93
  Q 106.58 22.73 107.85 25.15
  Q 115.37 39.53 112.36 55.15
  L 111.97 50.56
  Q 111.91 49.90 111.26 50.00
  Q 110.87 50.06 110.67 49.80
  Q 110.49 49.55 110.34 49.82
  Q 110.22 50.03 109.94 50.07
  Q 109.39 50.14 109.39 49.59
  Q 109.39 47.10 109.06 44.45
  Q 108.87 42.91 108.38 41.44
  Q 107.84 39.78 107.65 38.19
  Q 107.64 38.10 107.57 38.04
  Q 107.53 38.00 107.49 37.97
  Q 107.16 37.77 107.30 38.13
  Q 107.72 39.23 107.85 40.30
  Q 107.94 41.07 107.43 40.48
  L 106.88 39.85
  A 0.82 0.82 0.0 0 0 105.45 40.30
  Q 104.85 45.64 103.65 51.46
  Q 102.40 57.48 99.61 62.20
  C 97.82 65.22 93.23 71.93 89.98 73.07
  Q 89.09 73.38 88.48 74.13
  Q 87.65 75.17 86.52 75.83
  Q 77.90 80.86 68.01 82.12
  Q 66.62 82.29 65.04 83.83
  Q 64.64 84.22 64.19 83.89
  Q 63.13 83.12 63.24 81.61
  A 0.73 0.72 5.4 0 0 62.60 80.84
  Q 62.24 80.80 61.89 80.95
  Q 61.29 81.22 60.65 81.07
  Q 57.02 80.25 53.22 79.44
  Q 52.06 79.19 51.01 78.62
  Q 50.06 78.11 49.03 77.83
  Q 47.48 77.40 46.05 76.57
  Q 31.79 68.28 26.65 52.31
  Q 25.87 49.90 24.96 47.51
  A 1.53 1.52 -7.9 0 0 23.66 46.53
  Q 22.11 46.41 22.03 47.48
  Q 21.81 40.14 23.55 32.39
  A 0.97 0.96 -74.8 0 0 22.91 31.26
  Q 21.84 30.90 22.44 29.19
  Q 23.01 28.96 22.65 28.04
  Q 23.06 27.61 23.20 27.06
  Q 26.61 18.61 32.65 13.40
  Q 39.48 7.51 44.07 5.31
  Q 47.08 3.87 51.04 2.46
  Q 53.50 1.59 55.95 1.29
  Q 58.49 0.98 61.12 0.71
  L 70.55 0.59
  Z
  M 33.34 19.52
  Q 30.94 22.11 29.54 25.39
  Q 27.01 31.08 26.63 33.01
  Q 26.06 35.95 26.45 41.33
  Q 26.71 44.93 28.21 47.89
  Q 30.06 51.55 31.91 53.95
  Q 34.02 56.69 37.50 57.73
  Q 41.81 59.02 46.51 58.80
  L 63.98 58.91
  L 64.06 82.67
  Q 64.07 84.10 64.98 83.00
  Q 71.02 75.73 76.32 69.59
  Q 80.92 64.27 85.94 58.19
  Q 89.84 53.47 93.13 47.39
  Q 100.55 45.68 104.19 39.93
  Q 104.46 39.51 104.44 39.01
  Q 104.14 28.24 97.77 19.08
  Q 95.22 14.83 91.53 11.45
  Q 76.97 -1.39 57.72 2.31
  Q 42.26 5.28 33.34 19.52
  Z"
/>
<path fill="#6c2c96" d="
  M 2.66 36.73
  Q 4.12 25.05 3.39 13.07
  L 2.93 1.23
  A 0.83 0.82 90.0 0 1 3.78 0.37
  L 5.24 0.41
  Q 6.17 0.44 6.18 1.38
  Q 6.24 9.38 6.40 18.00
  C 6.41 18.61 6.71 19.04 6.71 19.68
  Q 6.60 29.07 7.26 38.36
  Q 7.49 41.61 7.29 44.55
  Q 7.08 47.74 7.09 50.93
  Q 7.10 54.88 3.52 55.68
  A 1.45 1.40 -71.2 0 0 2.88 56.01
  L 1.63 57.11
  Q 0.98 57.68 0.89 56.83
  Q -0.07 47.54 0.25 38.29
  A 0.59 0.58 9.9 0 1 1.02 37.75
  Q 2.25 38.18 2.66 36.73
  Z"
/>
<path fill="#fbf090" d="
  M 91.53 11.45
  Q 89.70 12.50 86.79 11.27
  Q 83.60 9.93 82.52 9.69
  Q 73.58 7.74 65.92 8.82
  Q 63.49 9.16 61.18 9.09
  Q 58.86 9.01 56.66 9.69
  Q 53.80 10.58 51.02 12.01
  Q 49.90 12.10 48.62 12.59
  Q 48.17 12.76 47.39 13.45
  Q 46.75 14.01 45.94 14.16
  Q 45.64 14.22 45.67 14.53
  Q 45.71 14.98 45.32 15.21
  Q 42.82 16.72 40.70 18.63
  Q 39.54 19.68 38.02 20.65
  Q 36.68 21.51 35.56 22.64
  A 1.22 1.22 0.0 0 1 33.60 22.33
  Q 33.13 21.38 33.34 19.52
  Q 42.26 5.28 57.72 2.31
  Q 76.97 -1.39 91.53 11.45
  Z"
/>
<path fill="#fb70f3" d="
  M 103.24 17.93
  Q 97.97 11.04 90.42 6.72
  Q 90.17 5.87 90.18 5.85
  A 1.69 1.64 30.6 0 1 92.59 5.27
  Q 94.26 6.40 96.25 7.40
  Q 97.97 8.27 99.10 9.75
  Q 100.80 12.01 102.74 14.21
  Q 103.40 14.95 103.81 15.85
  Q 104.84 18.12 103.24 17.93
  Z"
/>
<path fill="#4e247d" d="
  M 128.00 5.25
  L 128.00 128.00
  L 108.86 128.00
  Q 109.43 127.54 110.41 127.58
  Q 110.99 127.61 110.94 127.03
  Q 110.50 122.31 111.31 117.34
  Q 111.69 114.98 111.32 111.68
  Q 110.81 107.18 111.01 102.05
  L 102.20 92.18
  Q 107.84 89.66 110.74 84.47
  Q 112.40 81.49 113.63 79.56
  Q 115.63 76.45 116.37 74.63
  Q 117.68 71.42 118.83 67.93
  Q 118.24 72.48 115.84 78.24
  Q 115.51 79.03 116.28 79.48
  A 0.93 0.91 -49.3 0 0 117.35 79.39
  Q 119.28 77.74 121.60 77.78
  A 1.02 1.01 4.9 0 0 122.62 76.93
  Q 123.98 68.83 124.41 59.17
  Q 124.45 58.43 124.94 57.89
  Q 125.91 56.81 125.97 58.26
  L 126.63 75.91
  A 0.55 0.55 0.0 0 0 127.11 76.44
  L 127.46 76.48
  A 0.23 0.23 0.0 0 0 127.72 76.26
  Q 127.96 67.39 127.74 57.90
  C 127.71 56.66 127.01 55.70 125.89 55.23
  A 2.39 2.39 0.0 0 1 124.46 52.57
  L 125.66 46.28
  Q 125.76 45.74 126.24 46.02
  Q 126.55 46.20 126.70 46.54
  Q 126.75 46.66 126.84 46.76
  Q 126.98 46.92 127.11 46.85
  Q 127.39 46.70 127.41 46.38
  Q 127.80 37.87 127.61 29.56
  Q 127.57 28.07 126.83 29.37
  Q 126.76 29.49 126.77 30.50
  Q 126.79 33.97 126.23 37.44
  C 125.95 39.17 126.14 40.98 126.35 42.71
  Q 126.45 43.54 125.90 44.17
  Q 125.19 45.00 124.61 44.84
  Q 124.01 44.68 123.93 43.99
  Q 123.85 43.22 123.51 42.53
  Q 123.43 42.36 123.25 42.30
  Q 122.80 42.14 122.77 42.62
  L 122.34 48.84
  Q 122.21 33.47 115.42 20.25
  Q 115.31 18.84 115.38 18.22
  A 5.11 3.31 -15.5 0 1 118.25 14.99
  Q 119.01 14.63 119.38 14.01
  Q 119.97 13.04 119.82 11.94
  Q 119.38 8.80 120.84 5.66
  Q 121.08 5.13 121.60 5.41
  Q 123.28 6.33 124.75 5.86
  Q 126.76 5.21 128.00 5.25
  Z"
/>
<path fill="#fa9d1b" d="
  M 91.53 11.45
  Q 95.22 14.83 97.77 19.08
  Q 97.85 21.11 97.11 21.86
  Q 96.83 22.14 96.69 22.50
  Q 95.98 24.31 94.76 25.77
  Q 94.51 26.07 94.13 26.11
  Q 90.74 26.48 87.41 26.11
  Q 86.11 25.97 85.14 25.16
  Q 84.75 24.83 84.27 24.99
  L 82.76 25.49
  L 86.55 20.00
  A 1.03 1.03 0.0 0 0 86.16 18.49
  L 84.26 17.57
  Q 78.95 15.32 73.32 15.12
  L 59.39 14.20
  Q 61.27 12.74 58.99 11.62
  Q 58.10 11.18 56.88 11.25
  Q 54.12 11.40 51.02 12.01
  Q 53.80 10.58 56.66 9.69
  Q 58.86 9.01 61.18 9.09
  Q 63.49 9.16 65.92 8.82
  Q 73.58 7.74 82.52 9.69
  Q 83.60 9.93 86.79 11.27
  Q 89.70 12.50 91.53 11.45
  Z"
/>
<path fill="#f76a15" d="
  M 59.39 14.20
  Q 52.74 19.50 49.60 26.33
  Q 46.35 33.39 45.38 38.75
  Q 45.11 40.24 45.87 43.05
  L 42.70 49.22
  Q 42.33 49.93 43.14 49.92
  Q 53.11 49.76 63.62 50.29
  A 0.66 0.65 1.8 0 1 64.25 50.95
  L 64.16 57.19
  Q 63.77 57.55 63.98 58.91
  L 46.51 58.80
  Q 43.52 56.84 42.10 52.14
  Q 41.48 50.07 41.80 48.43
  Q 41.90 47.90 41.63 47.44
  Q 40.84 46.11 41.07 44.55
  Q 41.32 42.93 41.01 41.45
  Q 40.61 39.46 40.41 37.43
  Q 40.31 36.46 39.85 35.61
  Q 39.23 34.49 39.28 33.28
  Q 39.31 32.47 38.50 32.40
  Q 38.24 32.38 38.13 32.14
  Q 37.37 30.46 35.44 29.40
  Q 33.74 28.48 33.07 26.75
  Q 32.85 26.17 32.29 26.43
  L 31.04 27.02
  Q 30.55 27.25 30.13 26.90
  Q 29.63 26.49 29.54 25.39
  Q 30.94 22.11 33.34 19.52
  Q 33.13 21.38 33.60 22.33
  A 1.22 1.22 0.0 0 0 35.56 22.64
  Q 36.68 21.51 38.02 20.65
  Q 39.54 19.68 40.70 18.63
  Q 42.82 16.72 45.32 15.21
  Q 45.71 14.98 45.67 14.53
  Q 45.64 14.22 45.94 14.16
  Q 46.75 14.01 47.39 13.45
  Q 48.17 12.76 48.62 12.59
  Q 49.90 12.10 51.02 12.01
  Q 54.12 11.40 56.88 11.25
  Q 58.10 11.18 58.99 11.62
  Q 61.27 12.74 59.39 14.20
  Z
  M 41.1389 33.6320
  A 2.04 1.10 74.1 0 0 41.6379 31.3686
  A 2.04 1.10 74.1 0 0 40.0211 29.7080
  A 2.04 1.10 74.1 0 0 39.5221 31.9714
  A 2.04 1.10 74.1 0 0 41.1389 33.6320
  Z"
/>
<path fill="#f8b834" d="
  M 59.39 14.20
  L 73.32 15.12
  L 62.52 15.22
  Q 61.97 15.23 61.85 15.77
  Q 61.71 16.39 61.35 16.89
  C 55.28 25.29 50.72 34.12 45.87 43.05
  Q 45.11 40.24 45.38 38.75
  Q 46.35 33.39 49.60 26.33
  Q 52.74 19.50 59.39 14.20
  Z"
/>
<path fill="#dd4bd7" d="
  M 23.20 27.06
  Q 23.06 27.61 22.65 28.04
  Q 19.60 34.08 18.59 41.19
  Q 18.10 42.85 16.45 40.88
  Q 16.14 40.51 16.08 40.04
  Q 16.01 39.57 15.60 39.32
  Q 15.24 39.11 14.83 39.11
  Q 13.51 39.11 12.21 39.15
  A 0.97 0.96 70.1 0 1 11.43 38.78
  Q 10.11 37.10 10.65 35.74
  Q 11.37 33.89 11.71 31.94
  Q 14.92 22.97 19.30 14.82
  Q 19.34 16.16 21.35 14.83
  Q 21.92 14.45 22.21 15.06
  Q 22.39 15.42 22.71 15.71
  Q 23.09 16.06 23.18 16.57
  C 23.49 18.40 24.49 20.09 23.46 21.92
  C 22.64 23.37 22.39 24.24 22.49 25.73
  Q 22.60 27.22 23.20 27.06
  Z"
/>
<path fill="#fbfc85" d="
  M 73.32 15.12
  Q 78.95 15.32 84.26 17.57
  Q 81.40 19.62 79.74 22.37
  Q 79.50 21.18 79.56 20.70
  A 1.62 1.55 -12.5 0 0 77.13 19.23
  Q 74.78 20.61 73.54 22.68
  C 72.82 23.89 71.42 24.65 70.13 25.01
  A 1.52 1.51 72.0 0 0 69.12 27.00
  L 70.19 29.84
  A 1.37 1.34 4.0 0 0 70.82 30.55
  Q 72.25 31.30 73.80 31.34
  Q 69.34 38.42 65.98 46.92
  A 0.98 0.98 0.0 0 0 66.80 48.26
  L 81.06 49.56
  L 71.89 66.33
  Q 71.83 66.43 71.71 66.45
  Q 71.57 66.46 71.46 66.53
  Q 71.37 66.59 71.32 66.67
  Q 68.48 71.94 65.29 77.20
  Q 64.77 78.07 64.74 77.06
  L 64.16 57.19
  L 64.25 50.95
  A 0.66 0.65 1.8 0 0 63.62 50.29
  Q 53.11 49.76 43.14 49.92
  Q 42.33 49.93 42.70 49.22
  L 45.87 43.05
  C 50.72 34.12 55.28 25.29 61.35 16.89
  Q 61.71 16.39 61.85 15.77
  Q 61.97 15.23 62.52 15.22
  L 73.32 15.12
  Z"
/>
<path fill="#f9bf11" d="
  M 84.26 17.57
  L 86.16 18.49
  A 1.03 1.03 0.0 0 1 86.55 20.00
  L 82.76 25.49
  L 75.30 36.94
  Q 73.04 38.23 73.13 40.82
  A 2.80 2.80 0.0 0 0 75.36 43.47
  L 82.82 45.00
  Q 84.04 45.25 83.33 46.28
  L 81.06 49.56
  L 66.80 48.26
  A 0.98 0.98 0.0 0 1 65.98 46.92
  Q 69.34 38.42 73.80 31.34
  L 79.74 22.37
  Q 81.40 19.62 84.26 17.57
  Z"
/>
<path fill="#fdfed3" d="
  M 79.74 22.37
  L 73.80 31.34
  Q 72.25 31.30 70.82 30.55
  A 1.37 1.34 4.0 0 1 70.19 29.84
  L 69.12 27.00
  A 1.52 1.51 72.0 0 1 70.13 25.01
  C 71.42 24.65 72.82 23.89 73.54 22.68
  Q 74.78 20.61 77.13 19.23
  A 1.62 1.55 -12.5 0 1 79.56 20.70
  Q 79.50 21.18 79.74 22.37
  Z"
/>
<path fill="#dc4a22" d="
  M 97.77 19.08
  Q 104.14 28.24 104.44 39.01
  Q 104.46 39.51 104.19 39.93
  Q 100.55 45.68 93.13 47.39
  Q 94.59 44.93 91.47 43.30
  Q 84.45 39.63 75.30 36.94
  L 82.76 25.49
  L 84.27 24.99
  Q 84.75 24.83 85.14 25.16
  Q 86.11 25.97 87.41 26.11
  Q 90.74 26.48 94.13 26.11
  Q 94.51 26.07 94.76 25.77
  Q 95.98 24.31 96.69 22.50
  Q 96.83 22.14 97.11 21.86
  Q 97.85 21.11 97.77 19.08
  Z"
/>
<path fill="#dc4a22" d="
  M 29.54 25.39
  Q 29.63 26.49 30.13 26.90
  Q 30.55 27.25 31.04 27.02
  L 32.29 26.43
  Q 32.85 26.17 33.07 26.75
  Q 33.74 28.48 35.44 29.40
  Q 37.37 30.46 38.13 32.14
  Q 38.24 32.38 38.50 32.40
  Q 39.31 32.47 39.28 33.28
  Q 39.23 34.49 39.85 35.61
  Q 40.31 36.46 40.41 37.43
  Q 40.61 39.46 41.01 41.45
  Q 41.32 42.93 41.07 44.55
  Q 40.84 46.11 41.63 47.44
  Q 41.90 47.90 41.80 48.43
  Q 41.48 50.07 42.10 52.14
  Q 43.52 56.84 46.51 58.80
  Q 41.81 59.02 37.50 57.73
  Q 34.02 56.69 31.91 53.95
  Q 30.06 51.55 28.21 47.89
  Q 26.71 44.93 26.45 41.33
  Q 26.06 35.95 26.63 33.01
  Q 27.01 31.08 29.54 25.39
  Z"
/>
<path fill="#80244c" d="
  M 22.65 28.04
  Q 23.01 28.96 22.44 29.19
  Q 21.84 30.90 22.91 31.26
  A 0.97 0.96 -74.8 0 1 23.55 32.39
  Q 21.81 40.14 22.03 47.48
  Q 22.05 51.99 24.39 59.63
  Q 25.97 64.81 27.37 67.00
  Q 28.31 68.49 28.70 69.75
  Q 29.18 71.28 29.73 72.65
  Q 29.96 73.23 29.74 73.82
  Q 29.50 74.51 29.72 75.22
  Q 30.01 76.19 30.88 76.88
  Q 32.10 77.87 33.17 78.86
  Q 34.20 79.81 35.44 80.55
  Q 36.62 81.25 37.58 82.41
  Q 38.33 83.32 39.46 84.00
  Q 41.00 84.94 42.26 85.94
  Q 42.68 86.27 43.21 86.34
  Q 44.75 86.52 44.77 88.02
  Q 43.53 87.22 42.09 86.96
  Q 41.61 86.88 41.29 86.51
  Q 39.86 84.84 37.89 83.70
  Q 36.82 83.08 35.81 82.37
  Q 34.83 81.67 33.77 80.99
  Q 30.54 78.94 27.49 75.02
  C 20.17 64.95 17.81 53.59 18.59 41.19
  Q 19.60 34.08 22.65 28.04
  Z"
/>
<path fill="#29143f" d="
  M 118.83 67.93
  Q 121.84 60.37 122.20 51.91
  L 122.34 48.84
  L 122.77 42.62
  Q 122.80 42.14 123.25 42.30
  Q 123.43 42.36 123.51 42.53
  Q 123.85 43.22 123.93 43.99
  Q 124.01 44.68 124.61 44.84
  Q 125.19 45.00 125.90 44.17
  Q 126.45 43.54 126.35 42.71
  C 126.14 40.98 125.95 39.17 126.23 37.44
  Q 126.79 33.97 126.77 30.50
  Q 126.76 29.49 126.83 29.37
  Q 127.57 28.07 127.61 29.56
  Q 127.80 37.87 127.41 46.38
  Q 127.39 46.70 127.11 46.85
  Q 126.98 46.92 126.84 46.76
  Q 126.75 46.66 126.70 46.54
  Q 126.55 46.20 126.24 46.02
  Q 125.76 45.74 125.66 46.28
  L 124.46 52.57
  A 2.39 2.39 0.0 0 0 125.89 55.23
  C 127.01 55.70 127.71 56.66 127.74 57.90
  Q 127.96 67.39 127.72 76.26
  A 0.23 0.23 0.0 0 1 127.46 76.48
  L 127.11 76.44
  A 0.55 0.55 0.0 0 1 126.63 75.91
  L 125.97 58.26
  Q 125.91 56.81 124.94 57.89
  Q 124.45 58.43 124.41 59.17
  Q 123.98 68.83 122.62 76.93
  A 1.02 1.01 4.9 0 1 121.60 77.78
  Q 119.28 77.74 117.35 79.39
  A 0.93 0.91 -49.3 0 1 116.28 79.48
  Q 115.51 79.03 115.84 78.24
  Q 118.24 72.48 118.83 67.93
  Z"
/>
<ellipse fill="#f8b834" cx="0.00" cy="0.00" transform="translate(40.58,31.67) rotate(74.1)" rx="2.04" ry="1.10"/>
<path fill="#ab35b0" d="
  M 11.71 31.94
  Q 11.37 33.89 10.65 35.74
  Q 10.11 37.10 11.43 38.78
  A 0.97 0.96 70.1 0 0 12.21 39.15
  Q 13.51 39.11 14.83 39.11
  Q 15.24 39.11 15.60 39.32
  Q 16.01 39.57 16.08 40.04
  Q 16.14 40.51 16.45 40.88
  Q 18.10 42.85 18.59 41.19
  C 17.81 53.59 20.17 64.95 27.49 75.02
  L 28.69 79.55
  Q 28.86 80.22 28.19 80.09
  Q 27.08 79.90 26.38 78.95
  Q 25.86 78.25 25.24 77.66
  Q 23.48 76.00 21.65 74.42
  Q 20.36 73.31 19.58 71.90
  C 18.94 70.75 17.90 70.13 17.45 68.89
  Q 16.99 67.64 16.10 66.66
  Q 14.60 65.01 12.64 63.92
  A 1.61 1.61 0.0 0 1 11.98 63.26
  L 9.99 59.54
  Q 8.72 46.96 10.41 34.28
  L 11.71 31.94
  Z"
/>
<path fill="#f77b07" d="
  M 75.30 36.94
  Q 84.45 39.63 91.47 43.30
  Q 94.59 44.93 93.13 47.39
  Q 89.84 53.47 85.94 58.19
  Q 80.92 64.27 76.32 69.59
  Q 71.02 75.73 64.98 83.00
  Q 64.07 84.10 64.06 82.67
  L 63.98 58.91
  Q 63.77 57.55 64.16 57.19
  L 64.74 77.06
  Q 64.77 78.07 65.29 77.20
  Q 68.48 71.94 71.32 66.67
  Q 71.37 66.59 71.46 66.53
  Q 71.57 66.46 71.71 66.45
  Q 71.83 66.43 71.89 66.33
  L 81.06 49.56
  L 83.33 46.28
  Q 84.04 45.25 82.82 45.00
  L 75.36 43.47
  A 2.80 2.80 0.0 0 1 73.13 40.82
  Q 73.04 38.23 75.30 36.94
  Z"
/>
<path fill="#6a1524" d="
  M 112.36 55.15
  L 110.90 61.77
  Q 107.23 72.01 99.28 79.54
  Q 98.08 80.68 97.18 81.99
  Q 96.66 82.76 95.71 82.86
  A 1.76 1.71 21.2 0 0 94.81 83.24
  Q 90.85 86.53 85.83 88.38
  A 0.75 0.74 -5.5 0 0 85.35 88.96
  Q 85.30 89.25 85.11 89.46
  Q 84.78 89.80 84.31 89.82
  L 81.52 89.94
  Q 74.84 89.00 68.22 87.42
  Q 64.66 86.57 60.09 88.11
  Q 55.82 89.55 47.70 90.03
  Q 47.45 88.33 44.77 88.02
  Q 44.75 86.52 43.21 86.34
  Q 42.68 86.27 42.26 85.94
  Q 41.00 84.94 39.46 84.00
  Q 38.33 83.32 37.58 82.41
  Q 36.62 81.25 35.44 80.55
  Q 34.20 79.81 33.17 78.86
  Q 32.10 77.87 30.88 76.88
  Q 30.01 76.19 29.72 75.22
  Q 29.50 74.51 29.74 73.82
  Q 29.96 73.23 29.73 72.65
  Q 29.18 71.28 28.70 69.75
  Q 28.31 68.49 27.37 67.00
  Q 25.97 64.81 24.39 59.63
  Q 22.05 51.99 22.03 47.48
  Q 22.11 46.41 23.66 46.53
  A 1.53 1.52 -7.9 0 1 24.96 47.51
  Q 25.87 49.90 26.65 52.31
  Q 31.79 68.28 46.05 76.57
  Q 47.48 77.40 49.03 77.83
  Q 50.06 78.11 51.01 78.62
  Q 52.06 79.19 53.22 79.44
  Q 57.02 80.25 60.65 81.07
  Q 61.29 81.22 61.89 80.95
  Q 62.24 80.80 62.60 80.84
  A 0.73 0.72 5.4 0 1 63.24 81.61
  Q 63.13 83.12 64.19 83.89
  Q 64.64 84.22 65.04 83.83
  Q 66.62 82.29 68.01 82.12
  Q 77.90 80.86 86.52 75.83
  Q 87.65 75.17 88.48 74.13
  Q 89.09 73.38 89.98 73.07
  C 93.23 71.93 97.82 65.22 99.61 62.20
  Q 102.40 57.48 103.65 51.46
  Q 104.85 45.64 105.45 40.30
  A 0.82 0.82 0.0 0 1 106.88 39.85
  L 107.43 40.48
  Q 107.94 41.07 107.85 40.30
  Q 107.72 39.23 107.30 38.13
  Q 107.16 37.77 107.49 37.97
  Q 107.53 38.00 107.57 38.04
  Q 107.64 38.10 107.65 38.19
  Q 107.84 39.78 108.38 41.44
  Q 108.87 42.91 109.06 44.45
  Q 109.39 47.10 109.39 49.59
  Q 109.39 50.14 109.94 50.07
  Q 110.22 50.03 110.34 49.82
  Q 110.49 49.55 110.67 49.80
  Q 110.87 50.06 111.26 50.00
  Q 111.91 49.90 111.97 50.56
  L 112.36 55.15
  Z"
/>
<path fill="#8928a1" d="
  M 122.20 51.91
  Q 121.84 60.37 118.83 67.93
  Q 117.68 71.42 116.37 74.63
  Q 115.63 76.45 113.63 79.56
  Q 112.40 81.49 110.74 84.47
  Q 107.84 89.66 102.20 92.18
  Q 96.62 90.46 90.00 90.79
  Q 88.24 90.87 85.82 90.30
  Q 83.71 89.80 81.52 89.94
  L 84.31 89.82
  Q 84.78 89.80 85.11 89.46
  Q 85.30 89.25 85.35 88.96
  A 0.75 0.74 -5.5 0 1 85.83 88.38
  Q 90.85 86.53 94.81 83.24
  A 1.76 1.71 21.2 0 1 95.71 82.86
  Q 96.66 82.76 97.18 81.99
  Q 98.08 80.68 99.28 79.54
  Q 107.23 72.01 110.90 61.77
  Q 111.31 62.77 110.84 63.42
  Q 110.44 63.99 111.13 63.95
  Q 111.39 63.94 111.59 63.74
  Q 111.72 63.60 111.78 63.43
  Q 112.87 59.98 114.11 56.55
  Q 115.60 52.41 115.93 47.44
  A 1.34 1.33 -67.1 0 1 118.16 46.53
  L 119.65 47.88
  Q 120.10 48.29 120.11 48.90
  Q 120.13 50.26 120.12 51.53
  Q 120.11 52.24 120.47 51.62
  Q 120.51 51.57 120.57 51.54
  Q 120.75 51.48 120.84 51.67
  Q 121.18 52.44 122.20 51.91
  Z"
/>
<path fill="#6c2c96" d="
  M 9.99 59.54
  L 11.98 63.26
  A 1.61 1.61 0.0 0 0 12.64 63.92
  Q 14.60 65.01 16.10 66.66
  Q 16.99 67.64 17.45 68.89
  C 17.90 70.13 18.94 70.75 19.58 71.90
  Q 20.36 73.31 21.65 74.42
  Q 23.48 76.00 25.24 77.66
  Q 25.86 78.25 26.38 78.95
  Q 27.08 79.90 28.19 80.09
  Q 28.86 80.22 28.69 79.55
  L 27.49 75.02
  Q 30.54 78.94 33.77 80.99
  Q 34.83 81.67 35.81 82.37
  Q 36.82 83.08 37.89 83.70
  Q 39.86 84.84 41.29 86.51
  Q 41.61 86.88 42.09 86.96
  Q 43.53 87.22 44.77 88.02
  Q 47.45 88.33 47.70 90.03
  C 45.60 90.25 43.83 91.01 41.73 91.00
  Q 35.48 90.96 29.27 91.03
  Q 28.76 91.03 28.38 91.37
  C 26.67 92.90 24.75 93.57 23.24 95.47
  Q 20.24 99.23 16.25 101.34
  Q 15.99 101.48 15.98 101.77
  Q 15.98 102.00 16.21 102.07
  L 16.35 120.70
  L 16.07 128.00
  L 0.00 128.00
  L 0.00 78.24
  Q 0.41 79.29 1.40 79.06
  L 12.00 76.47
  Q 10.14 77.29 9.91 78.24
  Q 9.52 79.90 10.68 80.29
  Q 11.15 80.45 11.56 80.15
  Q 12.99 79.11 14.59 78.69
  A 0.79 0.78 -21.2 0 0 15.09 77.57
  Q 14.01 75.54 12.00 76.47
  L 14.02 75.40
  Q 14.61 75.08 14.24 74.53
  C 13.91 74.03 13.58 73.67 13.36 73.09
  Q 10.83 66.52 9.99 59.54
  Z"
/>
<path fill="#29143f" d="
  M 1.40 79.06
  Q 0.41 79.29 0.00 78.24
  L 0.00 68.50
  Q 0.31 65.76 0.43 63.01
  Q 0.48 61.87 1.28 61.81
  A 0.66 0.65 87.1 0 1 1.98 62.45
  Q 2.13 67.23 2.25 72.25
  Q 2.28 73.49 2.14 74.70
  C 1.92 76.55 3.06 77.42 1.40 79.06
  Z"
/>
<path fill="#f9b8fb" d="
  M 12.00 76.47
  Q 14.01 75.54 15.09 77.57
  A 0.79 0.78 -21.2 0 1 14.59 78.69
  Q 12.99 79.11 11.56 80.15
  Q 11.15 80.45 10.68 80.29
  Q 9.52 79.90 9.91 78.24
  Q 10.14 77.29 12.00 76.47
  Z"
/>
<path fill="#fbfbac" d="
  M 81.52 89.94
  Q 83.71 89.80 85.82 90.30
  Q 88.24 90.87 90.00 90.79
  Q 96.62 90.46 102.20 92.18
  L 111.01 102.05
  L 107.75 104.56
  Q 107.36 104.86 107.33 105.35
  L 107.18 107.95
  L 106.76 108.51
  Q 106.49 108.87 106.19 108.54
  L 105.88 108.21
  L 105.21 103.29
  Q 103.89 100.34 101.70 98.03
  Q 99.74 95.96 96.83 95.74
  Q 88.65 95.13 79.91 94.56
  Q 74.77 94.22 69.23 92.28
  Q 65.61 91.01 61.21 92.94
  Q 60.81 93.11 60.38 93.12
  Q 58.43 93.17 56.60 93.80
  Q 53.95 94.73 50.54 94.78
  Q 47.85 94.82 44.91 95.29
  Q 38.81 96.27 31.83 95.81
  C 30.89 95.74 29.23 96.22 28.49 96.87
  C 25.42 99.61 21.72 103.93 21.88 108.05
  Q 22.08 113.05 22.11 117.60
  A 0.96 0.95 -7.5 0 1 21.40 118.52
  L 21.12 118.59
  Q 20.67 118.71 20.66 118.24
  Q 20.64 111.61 20.51 105.51
  Q 20.46 103.12 17.63 102.41
  Q 16.94 102.11 16.21 102.07
  Q 15.98 102.00 15.98 101.77
  Q 15.99 101.48 16.25 101.34
  Q 20.24 99.23 23.24 95.47
  C 24.75 93.57 26.67 92.90 28.38 91.37
  Q 28.76 91.03 29.27 91.03
  Q 35.48 90.96 41.73 91.00
  C 43.83 91.01 45.60 90.25 47.70 90.03
  Q 55.82 89.55 60.09 88.11
  Q 64.66 86.57 68.22 87.42
  Q 74.84 89.00 81.52 89.94
  Z"
/>
<path fill="#f8b834" d="
  M 105.21 103.29
  Q 103.61 103.18 103.31 103.95
  Q 103.14 104.36 102.77 104.58
  L 100.25 106.10
  A 0.03 0.03 0.0 0 0 100.27 106.16
  Q 100.48 106.11 100.49 106.37
  A 0.29 0.29 0.0 0 1 100.22 106.68
  L 96.63 106.93
  Q 96.32 106.95 96.11 106.73
  Q 95.39 106.01 94.50 106.53
  Q 94.05 106.80 93.54 106.70
  Q 92.80 106.55 91.97 107.21
  C 90.69 103.11 84.87 103.88 81.57 103.99
  A 0.53 0.53 0.0 0 0 81.06 104.52
  L 80.97 112.26
  Q 80.33 111.31 79.52 111.12
  Q 79.16 111.03 78.89 110.78
  Q 78.37 110.27 77.65 110.34
  Q 77.16 110.39 76.85 110.00
  Q 76.28 109.27 75.56 108.87
  L 78.48 104.70
  Q 78.81 104.23 78.25 104.09
  Q 73.42 102.96 72.12 106.90
  A 0.61 0.61 0.0 0 1 71.03 107.04
  L 69.56 104.73
  Q 69.27 104.27 68.72 104.18
  Q 62.72 103.24 65.01 105.52
  Q 62.20 107.24 61.01 107.39
  Q 58.55 107.69 56.01 108.02
  C 56.14 103.40 50.67 103.57 47.58 104.71
  Q 47.00 104.93 46.93 105.55
  Q 46.87 106.01 46.99 106.46
  Q 47.12 107.00 47.63 106.78
  Q 50.61 105.48 53.22 106.50
  Q 53.75 106.70 53.88 107.25
  C 54.35 109.29 52.31 110.03 50.70 110.05
  Q 49.98 110.06 49.97 110.78
  L 49.97 111.14
  Q 49.95 111.84 50.65 111.93
  L 52.62 112.20
  A 1.62 1.61 15.6 0 1 53.89 114.45
  C 52.88 116.75 49.32 116.08 47.61 115.22
  Q 47.11 114.97 46.94 115.50
  Q 46.74 116.07 47.19 116.82
  Q 44.33 112.97 42.11 114.95
  Q 41.36 114.28 40.67 112.74
  Q 40.45 112.25 40.75 111.80
  L 43.59 107.62
  Q 44.01 107.00 43.26 106.98
  L 42.18 106.97
  Q 41.52 106.96 41.25 107.55
  L 39.94 110.42
  A 0.45 0.45 0.0 0 1 39.13 110.43
  L 37.88 107.82
  Q 37.50 107.03 36.62 106.95
  L 35.80 106.87
  Q 34.85 106.78 35.37 107.57
  L 38.20 111.89
  Q 38.48 112.32 38.27 112.78
  Q 37.56 114.40 36.68 115.25
  Q 32.60 114.67 28.66 114.44
  Q 27.43 114.37 26.42 113.96
  Q 25.33 113.52 24.15 113.43
  A 1.34 1.33 3.8 0 0 22.71 114.69
  L 22.40 120.54
  A 2.61 2.61 0.0 0 0 23.86 123.02
  Q 25.53 123.84 27.58 124.18
  Q 35.36 125.48 43.54 125.11
  Q 44.54 125.07 45.50 124.89
  Q 46.52 124.71 47.43 124.78
  C 49.09 124.91 50.49 124.70 52.12 124.64
  Q 53.10 124.61 54.05 124.98
  Q 57.63 126.38 61.46 128.00
  L 55.46 128.00
  Q 55.53 127.73 54.75 127.71
  Q 52.47 126.20 50.25 126.21
  C 42.26 126.25 33.40 126.81 25.44 125.43
  A 3.97 3.95 -15.6 0 1 23.14 124.14
  Q 20.69 121.33 18.34 118.50
  C 17.22 117.14 16.90 115.99 17.06 114.26
  Q 17.53 109.19 17.07 104.07
  Q 17.05 103.77 17.34 103.79
  Q 17.52 103.79 17.62 103.66
  Q 17.88 103.29 17.75 102.82
  Q 17.69 102.64 17.63 102.41
  Q 20.46 103.12 20.51 105.51
  Q 20.64 111.61 20.66 118.24
  Q 20.67 118.71 21.12 118.59
  L 21.40 118.52
  A 0.96 0.95 -7.5 0 0 22.11 117.60
  Q 22.08 113.05 21.88 108.05
  C 21.72 103.93 25.42 99.61 28.49 96.87
  C 29.23 96.22 30.89 95.74 31.83 95.81
  Q 38.81 96.27 44.91 95.29
  Q 47.85 94.82 50.54 94.78
  Q 53.95 94.73 56.60 93.80
  Q 58.43 93.17 60.38 93.12
  Q 60.81 93.11 61.21 92.94
  Q 65.61 91.01 69.23 92.28
  Q 74.77 94.22 79.91 94.56
  Q 88.65 95.13 96.83 95.74
  Q 99.74 95.96 101.70 98.03
  Q 103.89 100.34 105.21 103.29
  Z"
/>
<path fill="#c22424" d="
  M 16.21 102.07
  Q 16.94 102.11 17.63 102.41
  Q 17.69 102.64 17.75 102.82
  Q 17.88 103.29 17.62 103.66
  Q 17.52 103.79 17.34 103.79
  Q 17.05 103.77 17.07 104.07
  Q 17.53 109.19 17.06 114.26
  C 16.90 115.99 17.22 117.14 18.34 118.50
  Q 20.69 121.33 23.14 124.14
  A 3.97 3.95 -15.6 0 0 25.44 125.43
  C 33.40 126.81 42.26 126.25 50.25 126.21
  Q 52.47 126.20 54.75 127.71
  L 49.97 128.00
  Q 49.87 127.98 49.77 128.00
  Q 47.51 127.54 45.36 128.00
  L 20.75 128.00
  Q 17.69 125.37 16.35 120.70
  L 16.21 102.07
  Z"
/>
<path fill="#c22424" d="
  M 111.01 102.05
  Q 110.81 107.18 111.32 111.68
  Q 111.69 114.98 111.31 117.34
  Q 110.50 122.31 110.94 127.03
  Q 110.99 127.61 110.41 127.58
  Q 109.43 127.54 108.86 128.00
  L 82.27 128.00
  L 77.52 127.70
  Q 79.40 126.70 81.50 126.59
  Q 90.38 126.13 99.75 125.96
  C 103.73 125.89 106.63 122.38 108.46 119.21
  Q 108.74 118.72 108.42 118.25
  C 108.07 117.73 107.88 117.15 107.84 116.53
  Q 107.53 112.31 107.18 107.95
  L 107.33 105.35
  Q 107.36 104.86 107.75 104.56
  L 111.01 102.05
  Z"
/>
<path fill="#f8982c" d="
  M 105.21 103.29
  L 105.88 108.21
  Q 106.85 115.24 106.87 117.26
  Q 106.90 120.97 103.33 123.46
  Q 102.36 124.13 101.17 124.15
  Q 100.00 124.16 98.79 124.48
  Q 97.05 124.95 95.26 124.89
  C 92.16 124.80 89.27 125.14 85.92 125.03
  Q 78.69 124.79 72.08 128.00
  L 61.46 128.00
  Q 57.63 126.38 54.05 124.98
  Q 53.10 124.61 52.12 124.64
  C 50.49 124.70 49.09 124.91 47.43 124.78
  Q 46.52 124.71 45.50 124.89
  Q 44.54 125.07 43.54 125.11
  Q 35.36 125.48 27.58 124.18
  Q 25.53 123.84 23.86 123.02
  A 2.61 2.61 0.0 0 1 22.40 120.54
  L 22.71 114.69
  A 1.34 1.33 3.8 0 1 24.15 113.43
  Q 25.33 113.52 26.42 113.96
  Q 27.43 114.37 28.66 114.44
  Q 32.60 114.67 36.68 115.25
  L 35.39 117.41
  Q 35.02 118.03 35.74 118.00
  L 36.86 117.96
  Q 37.48 117.94 37.73 117.38
  L 39.14 114.34
  A 0.33 0.33 0.0 0 1 39.74 114.33
  L 41.30 117.44
  Q 41.58 118.00 42.20 117.99
  L 43.23 117.98
  Q 43.98 117.97 43.59 117.33
  L 42.11 114.95
  Q 44.33 112.97 47.19 116.82
  Q 48.37 118.05 51.50 117.91
  Q 55.55 117.74 55.99 114.26
  C 56.17 112.86 55.15 111.51 53.82 111.18
  Q 53.05 110.98 53.73 110.57
  Q 55.54 109.46 56.01 108.02
  Q 58.55 107.69 61.01 107.39
  Q 62.20 107.24 65.01 105.52
  L 68.51 110.55
  Q 68.83 111.01 68.51 111.47
  L 64.30 117.55
  A 0.29 0.28 -72.5 0 0 64.53 118.00
  L 68.46 118.00
  A 1.10 1.09 15.8 0 0 69.39 117.49
  L 71.16 114.68
  A 0.40 0.39 -44.7 0 1 71.83 114.68
  L 73.54 117.38
  A 1.34 1.32 -15.9 0 0 74.67 118.00
  L 78.19 118.00
  Q 79.01 118.00 78.53 117.32
  L 74.51 111.57
  Q 74.26 111.21 74.38 110.80
  Q 74.66 109.80 75.56 108.87
  Q 76.28 109.27 76.85 110.00
  Q 77.16 110.39 77.65 110.34
  Q 78.37 110.27 78.89 110.78
  Q 79.16 111.03 79.52 111.12
  Q 80.33 111.31 80.97 112.26
  L 81.00 117.29
  Q 81.00 118.00 81.71 118.00
  L 84.25 118.00
  A 0.75 0.75 0.0 0 0 85.00 117.25
  L 85.01 113.70
  Q 85.02 113.15 85.56 113.05
  C 86.35 112.91 87.18 113.07 87.99 112.90
  Q 92.28 111.97 91.97 107.21
  Q 92.80 106.55 93.54 106.70
  Q 94.05 106.80 94.50 106.53
  Q 95.39 106.01 96.11 106.73
  Q 96.32 106.95 96.63 106.93
  L 100.22 106.68
  A 0.29 0.29 0.0 0 0 100.49 106.37
  Q 100.48 106.11 100.27 106.16
  A 0.03 0.03 0.0 0 1 100.25 106.10
  L 102.77 104.58
  Q 103.14 104.36 103.31 103.95
  Q 103.61 103.18 105.21 103.29
  Z"
/>
<path fill="#ffffff" d="
  M 56.01 108.02
  Q 55.54 109.46 53.73 110.57
  Q 53.05 110.98 53.82 111.18
  C 55.15 111.51 56.17 112.86 55.99 114.26
  Q 55.55 117.74 51.50 117.91
  Q 48.37 118.05 47.19 116.82
  Q 46.74 116.07 46.94 115.50
  Q 47.11 114.97 47.61 115.22
  C 49.32 116.08 52.88 116.75 53.89 114.45
  A 1.62 1.61 15.6 0 0 52.62 112.20
  L 50.65 111.93
  Q 49.95 111.84 49.97 111.14
  L 49.97 110.78
  Q 49.98 110.06 50.70 110.05
  C 52.31 110.03 54.35 109.29 53.88 107.25
  Q 53.75 106.70 53.22 106.50
  Q 50.61 105.48 47.63 106.78
  Q 47.12 107.00 46.99 106.46
  Q 46.87 106.01 46.93 105.55
  Q 47.00 104.93 47.58 104.71
  C 50.67 103.57 56.14 103.40 56.01 108.02
  Z"
/>
<path fill="#ffffff" d="
  M 75.56 108.87
  Q 74.66 109.80 74.38 110.80
  Q 74.26 111.21 74.51 111.57
  L 78.53 117.32
  Q 79.01 118.00 78.19 118.00
  L 74.67 118.00
  A 1.34 1.32 -15.9 0 1 73.54 117.38
  L 71.83 114.68
  A 0.40 0.39 -44.7 0 0 71.16 114.68
  L 69.39 117.49
  A 1.10 1.09 15.8 0 1 68.46 118.00
  L 64.53 118.00
  A 0.29 0.28 -72.5 0 1 64.30 117.55
  L 68.51 111.47
  Q 68.83 111.01 68.51 110.55
  L 65.01 105.52
  Q 62.72 103.24 68.72 104.18
  Q 69.27 104.27 69.56 104.73
  L 71.03 107.04
  A 0.61 0.61 0.0 0 0 72.12 106.90
  Q 73.42 102.96 78.25 104.09
  Q 78.81 104.23 78.48 104.70
  L 75.56 108.87
  Z"
/>
<path fill="#ffffff" d="
  M 91.97 107.21
  Q 92.28 111.97 87.99 112.90
  C 87.18 113.07 86.35 112.91 85.56 113.05
  Q 85.02 113.15 85.01 113.70
  L 85.00 117.25
  A 0.75 0.75 0.0 0 1 84.25 118.00
  L 81.71 118.00
  Q 81.00 118.00 81.00 117.29
  L 80.97 112.26
  L 81.06 104.52
  A 0.53 0.53 0.0 0 1 81.57 103.99
  C 84.87 103.88 90.69 103.11 91.97 107.21
  Z
  M 85.03 107.57
  L 85.01 109.43
  A 0.54 0.54 0.0 0 0 85.54 109.98
  L 86.09 109.99
  A 1.87 1.27 0.6 0 0 87.98 108.74
  L 87.98 108.34
  A 1.87 1.27 0.6 0 0 86.13 107.05
  L 85.58 107.04
  A 0.54 0.54 0.0 0 0 85.03 107.57
  Z"
/>
<path fill="#ffffff" d="
  M 42.11 114.95
  L 43.59 117.33
  Q 43.98 117.97 43.23 117.98
  L 42.20 117.99
  Q 41.58 118.00 41.30 117.44
  L 39.74 114.33
  A 0.33 0.33 0.0 0 0 39.14 114.34
  L 37.73 117.38
  Q 37.48 117.94 36.86 117.96
  L 35.74 118.00
  Q 35.02 118.03 35.39 117.41
  L 36.68 115.25
  Q 37.56 114.40 38.27 112.78
  Q 38.48 112.32 38.20 111.89
  L 35.37 107.57
  Q 34.85 106.78 35.80 106.87
  L 36.62 106.95
  Q 37.50 107.03 37.88 107.82
  L 39.13 110.43
  A 0.45 0.45 0.0 0 0 39.94 110.42
  L 41.25 107.55
  Q 41.52 106.96 42.18 106.97
  L 43.26 106.98
  Q 44.01 107.00 43.59 107.62
  L 40.75 111.80
  Q 40.45 112.25 40.67 112.74
  Q 41.36 114.28 42.11 114.95
  Z"
/>
<path fill="#f8b834" d="
  M 85.03 107.57
  A 0.54 0.54 0.0 0 1 85.58 107.04
  L 86.13 107.05
  A 1.87 1.27 0.6 0 1 87.98 108.34
  L 87.98 108.74
  A 1.87 1.27 0.6 0 1 86.09 109.99
  L 85.54 109.98
  A 0.54 0.54 0.0 0 1 85.01 109.43
  L 85.03 107.57
  Z"
/>
<path fill="#fa9d1b" d="
  M 107.18 107.95
  Q 107.53 112.31 107.84 116.53
  C 107.88 117.15 108.07 117.73 108.42 118.25
  Q 108.74 118.72 108.46 119.21
  C 106.63 122.38 103.73 125.89 99.75 125.96
  Q 90.38 126.13 81.50 126.59
  Q 79.40 126.70 77.52 127.70
  Q 76.65 127.66 76.13 128.00
  L 72.08 128.00
  Q 78.69 124.79 85.92 125.03
  C 89.27 125.14 92.16 124.80 95.26 124.89
  Q 97.05 124.95 98.79 124.48
  Q 100.00 124.16 101.17 124.15
  Q 102.36 124.13 103.33 123.46
  Q 106.90 120.97 106.87 117.26
  Q 106.85 115.24 105.88 108.21
  L 106.19 108.54
  Q 106.49 108.87 106.76 108.51
  L 107.18 107.95
  Z"
/>
<path fill="#6a1524" d="
  M 16.35 120.70
  Q 17.69 125.37 20.75 128.00
  L 16.07 128.00
  L 16.35 120.70
  Z"
/>
<path fill="#4e247d" d="
  M 49.77 128.00
  L 45.36 128.00
  Q 47.51 127.54 49.77 128.00
  Z"
/>
<path fill="#4e247d" d="
  M 54.75 127.71
  Q 55.53 127.73 55.46 128.00
  L 49.97 128.00
  L 54.75 127.71
  Z"
/>
<path fill="#4e247d" d="
  M 77.52 127.70
  L 82.27 128.00
  L 76.13 128.00
  Q 76.65 127.66 77.52 127.70
  Z"
/>
</svg>
