<?xml version="1.0" encoding="UTF-8" standalone="no"?>
<!DOCTYPE svg PUBLIC "-//W3C//DTD SVG 1.1//EN" "http://www.w3.org/Graphics/SVG/1.1/DTD/svg11.dtd">
<svg xmlns="http://www.w3.org/2000/svg" version="1.1" viewBox="0.00 0.00 128.00 128.00">
<g stroke-width="2.00" fill="none" stroke-linecap="butt">
<path stroke="#3c1c5e" vector-effect="non-scaling-stroke" d="
  M 1.46 0.00
  Q 0.41 1.20 0.47 2.76
  Q 1.10 19.70 0.75 36.68
  Q 0.73 37.21 1.24 37.37
  Q 1.81 37.56 2.49 36.78"
/>
<path stroke="#5a2888" vector-effect="non-scaling-stroke" d="
  M 2.49 36.78
  Q 2.76 37.03 2.43 37.31
  Q 2.25 37.47 2.08 37.63
  Q 1.66 38.01 1.06 37.74
  A 0.62 0.61 -77.2 0 0 0.20 38.29
  Q -0.04 47.55 0.75 56.56
  Q 0.86 57.75 1.80 57.02
  Q 3.32 55.83 5.03 55.03
  A 3.42 3.42 0.0 0 0 7.01 51.96
  Q 7.05 47.83 7.50 43.40
  C 7.82 40.28 6.96 37.44 7.10 34.30
  Q 7.13 33.79 6.74 34.13
  Q 6.40 34.44 6.59 34.88
  A 0.04 0.04 0.0 0 0 6.66 34.87
  Q 7.09 27.65 6.79 19.75
  Q 6.77 19.13 6.58 18.68
  Q 6.40 18.24 6.40 17.78
  L 6.29 1.47
  Q 6.28 0.40 5.22 0.39
  L 3.88 0.37
  Q 2.94 0.36 2.97 1.31
  L 3.40 13.07"
/>
<path stroke="#3c1c5e" vector-effect="non-scaling-stroke" d="
  M 3.40 13.07
  Q 2.50 6.83 2.60 2.25
  Q 2.64 0.72 1.99 0.00"
/>
<path stroke="#5c3bac" vector-effect="non-scaling-stroke" d="
  M 14.13 0.00
  Q 13.64 0.36 11.97 0.27
  A 0.96 0.96 0.0 0 0 10.95 1.14
  Q 10.17 9.29 11.04 17.31
  C 11.49 21.45 10.73 25.54 10.62 29.79"
/>
<path stroke="#772a94" vector-effect="non-scaling-stroke" d="
  M 10.62 29.79
  Q 10.46 32.58 9.71 41.00
  Q 8.67 52.59 10.78 64.48"
/>
<path stroke="#5a2888" vector-effect="non-scaling-stroke" d="
  M 10.78 64.48
  L 13.20 72.87
  Q 13.34 73.37 13.69 73.76
  Q 14.07 74.18 14.25 74.68
  Q 14.49 75.31 13.89 75.61
  Q 12.58 76.27 10.98 76.35
  Q 10.86 76.35 10.87 76.47
  Q 10.87 76.52 10.85 76.57
  Q 10.77 76.78 10.53 76.82
  Q 5.91 77.56 2.10 78.86"
/>
<path stroke="#3c1c5e" vector-effect="non-scaling-stroke" d="
  M 2.10 78.86
  L 1.98 62.14
  Q 1.98 61.70 1.53 61.72
  L 1.26 61.73
  A 0.77 0.76 0.8 0 0 0.53 62.43
  L 0.00 68.50"
/>
<path stroke="#472069" vector-effect="non-scaling-stroke" d="
  M 3.40 13.07
  Q 3.99 24.03 2.86 34.99
  Q 2.77 35.92 2.49 36.78"
/>
<path stroke="#b285eb" vector-effect="non-scaling-stroke" d="
  M 34.94 0.00
  Q 29.41 3.26 25.15 7.66"
/>
<path stroke="#b361e7" vector-effect="non-scaling-stroke" d="
  M 25.15 7.66
  L 19.90 13.98"
/>
<path stroke="#a951de" vector-effect="non-scaling-stroke" d="
  M 19.90 13.98
  L 14.63 24.63"
/>
<path stroke="#8541c3" vector-effect="non-scaling-stroke" d="
  M 14.63 24.63
  Q 13.44 25.20 13.37 26.55
  A 1.29 1.20 65.4 0 1 13.16 27.18
  L 11.96 28.97
  Q 11.79 29.22 11.86 29.53
  Q 11.94 29.84 11.64 30.03
  Q 11.15 30.36 11.20 29.77
  Q 11.28 29.01 11.40 28.20
  Q 11.41 28.11 11.32 28.10
  Q 11.27 28.09 11.22 28.11
  Q 11.10 28.14 11.12 28.28
  Q 11.30 29.35 10.62 29.79"
/>
<path stroke="#fa94f7" vector-effect="non-scaling-stroke" d="
  M 38.92 0.00
  L 26.29 8.76
  A 0.76 0.76 0.0 0 1 25.10 8.08
  Q 25.12 7.90 25.15 7.66"
/>
<path stroke="#a54ab8" vector-effect="non-scaling-stroke" d="
  M 55.82 0.00
  L 61.12 0.71"
/>
<path stroke="#cb4b8f" vector-effect="non-scaling-stroke" d="
  M 61.12 0.71
  Q 58.50 0.99 55.95 1.29
  Q 53.39 1.60 50.93 2.49
  Q 47.42 3.77 44.49 5.11
  Q 40.15 7.08 33.71 12.45
  Q 27.00 18.05 23.19 26.96"
/>
<path stroke="#f160ea" vector-effect="non-scaling-stroke" d="
  M 23.19 26.96
  Q 21.44 25.04 23.47 21.90
  C 24.66 20.07 23.33 18.26 23.08 16.44
  A 1.90 1.68 78.3 0 0 20.91 14.82
  Q 20.48 14.94 19.90 13.98"
/>
<path stroke="#9b3aaf" vector-effect="non-scaling-stroke" d="
  M 75.51 0.00
  L 70.57 0.55"
/>
<path stroke="#752554" vector-effect="non-scaling-stroke" d="
  M 70.57 0.55
  L 61.12 0.71"
/>
<path stroke="#f160ea" vector-effect="non-scaling-stroke" d="
  M 92.45 0.00
  Q 94.83 2.34 97.55 4.15
  Q 99.28 5.30 100.66 6.61
  Q 102.25 8.11 104.27 8.82
  A 1.79 1.75 32.6 0 0 106.09 8.44
  Q 106.28 8.27 106.04 7.75"
/>
<path stroke="#be4cd7" vector-effect="non-scaling-stroke" d="
  M 106.04 7.75
  Q 111.64 13.38 115.33 20.24"
/>
<path stroke="#a63eba" vector-effect="non-scaling-stroke" d="
  M 115.33 20.24
  L 117.48 24.24"
/>
<path stroke="#bb3dc2" vector-effect="non-scaling-stroke" d="
  M 117.48 24.24
  L 118.23 28.58
  Q 118.29 28.95 118.19 29.31
  Q 117.74 30.85 117.54 32.48
  Q 117.08 36.18 115.57 41.20
  C 114.95 43.24 115.88 45.87 114.56 47.79
  Q 114.25 48.24 113.89 47.82
  Q 113.46 47.31 113.64 46.50
  Q 113.89 45.43 113.30 44.51"
/>
<path stroke="#c13b85" vector-effect="non-scaling-stroke" d="
  M 113.30 44.51
  Q 112.17 29.32 102.70 17.30"
/>
<path stroke="#f160ea" vector-effect="non-scaling-stroke" d="
  M 102.70 17.30
  Q 103.67 17.58 103.77 17.33
  A 2.46 2.21 36.9 0 0 103.31 15.01
  Q 101.09 12.37 98.98 9.63
  Q 98.02 8.38 96.59 7.60
  Q 94.34 6.39 92.54 5.27
  A 1.70 1.60 29.5 0 0 90.18 5.85
  Q 90.17 5.87 90.42 6.71"
/>
<path stroke="#c13b85" vector-effect="non-scaling-stroke" d="
  M 90.42 6.71
  Q 84.36 3.26 77.46 1.63
  Q 76.46 1.39 74.01 1.18
  Q 72.23 1.03 70.57 0.55"
/>
<path stroke="#c85ce1" vector-effect="non-scaling-stroke" d="
  M 97.09 0.00
  L 106.04 7.75"
/>
<path stroke="#7236a6" vector-effect="non-scaling-stroke" d="
  M 112.85 0.00
  Q 116.14 0.73 119.41 0.00"
/>
<path stroke="#7236a6" vector-effect="non-scaling-stroke" d="
  M 121.71 0.00
  L 128.00 0.63"
/>
<path stroke="#7d3ab1" vector-effect="non-scaling-stroke" d="
  M 128.00 5.25
  Q 126.74 5.18 125.11 5.74
  Q 123.78 6.19 121.59 5.57
  Q 121.43 5.53 121.57 5.44
  Q 122.08 5.12 121.19 5.24
  A 0.61 0.61 0.0 0 0 120.67 5.70
  L 119.42 10.50
  A 1.19 1.17 -49.5 0 0 119.47 11.22
  Q 120.09 12.69 119.36 14.01
  Q 119.12 14.45 118.65 14.65
  Q 115.02 16.17 115.33 20.24"
/>
<path stroke="#cb4b8f" vector-effect="non-scaling-stroke" d="
  M 90.42 6.71
  Q 97.73 10.91 102.70 17.30"
/>
<path stroke="#952867" vector-effect="non-scaling-stroke" d="
  M 113.30 44.51
  L 111.83 57.25"
/>
<path stroke="#831e28" vector-effect="non-scaling-stroke" d="
  M 111.83 57.25
  Q 111.48 55.52 112.14 53.85
  Q 112.18 53.76 112.13 53.66
  Q 112.03 53.47 111.87 53.34
  A 0.05 0.05 0.0 0 0 111.79 53.40
  Q 111.92 53.66 111.81 53.91
  A 0.19 0.18 41.1 0 1 111.48 53.93
  Q 111.18 53.42 110.68 53.72
  A 0.64 0.63 61.1 0 1 109.77 53.45
  Q 107.38 48.39 108.22 44.29
  Q 108.62 42.34 108.15 40.28
  Q 107.21 36.09 105.90 32.86
  Q 105.66 32.28 105.22 32.14
  Q 104.71 31.98 104.61 32.50
  L 104.18 34.78"
/>
<path stroke="#bc3826" vector-effect="non-scaling-stroke" d="
  M 104.18 34.78
  Q 102.89 27.14 98.82 20.89"
/>
<path stroke="#cb6123" vector-effect="non-scaling-stroke" d="
  M 98.82 20.89
  Q 95.83 15.21 91.51 11.61"
/>
<path stroke="#cb906c" vector-effect="non-scaling-stroke" d="
  M 91.51 11.61
  Q 85.82 5.97 78.21 3.63
  C 65.76 -0.20 52.66 1.39 42.23 9.41"
/>
<path stroke="#ca7c3d" vector-effect="non-scaling-stroke" d="
  M 42.23 9.41
  Q 36.87 13.78 32.80 20.17"
/>
<path stroke="#bc3826" vector-effect="non-scaling-stroke" d="
  M 32.80 20.17
  Q 31.15 22.02 30.27 23.77
  Q 28.83 26.64 27.62 30.02
  Q 26.43 33.37 26.53 36.64
  Q 26.75 43.75 28.75 48.79
  Q 33.19 59.96 46.46 58.72"
/>
<path stroke="#c9481f" vector-effect="non-scaling-stroke" d="
  M 46.46 58.72
  L 63.30 58.83
  A 0.68 0.68 0.0 0 1 63.98 59.50
  L 64.08 65.98"
/>
<path stroke="#cb9158" vector-effect="non-scaling-stroke" d="
  M 64.08 65.98
  L 64.35 76.41"
/>
<path stroke="#c95019" vector-effect="non-scaling-stroke" d="
  M 64.35 76.41
  L 64.21 82.59
  Q 64.19 83.49 64.95 83.02
  Q 65.27 82.81 65.32 82.44
  Q 65.38 82.01 65.69 81.73
  C 68.53 79.17 70.65 75.91 73.28 73.06
  Q 80.71 64.99 88.15 55.18
  Q 90.89 51.58 93.48 47.07"
/>
<path stroke="#bc3826" vector-effect="non-scaling-stroke" d="
  M 93.48 47.07
  Q 99.19 43.68 102.51 41.33
  Q 104.82 39.71 104.48 35.38"
/>
<path stroke="#831e28" vector-effect="non-scaling-stroke" d="
  M 104.48 35.38
  Q 105.32 40.97 104.38 47.49
  Q 101.45 67.63 84.31 77.11
  Q 83.85 77.37 83.32 77.36
  Q 82.50 77.35 81.86 77.85
  Q 81.22 78.36 80.46 78.69
  Q 74.52 81.29 68.48 82.05
  C 67.42 82.19 66.61 82.63 65.84 83.32
  Q 63.49 85.46 63.32 82.24
  Q 63.29 81.67 62.97 81.21
  Q 62.62 80.71 62.05 80.93
  C 61.42 81.18 60.66 81.14 60.01 80.96
  Q 57.50 80.25 55.03 79.89
  Q 54.48 79.81 54.12 79.38
  Q 53.81 79.01 53.31 79.09
  Q 52.76 79.18 52.24 78.95
  C 50.18 78.04 48.01 77.73 46.04 76.57
  Q 32.61 68.72 27.25 54.06
  A 0.68 0.65 -77.6 0 0 27.09 53.80
  L 24.78 51.43
  A 0.54 0.54 0.0 0 0 24.19 51.29
  L 23.06 51.71
  Q 22.68 51.85 22.63 52.25
  Q 22.60 52.47 22.60 52.69
  Q 22.60 53.61 22.44 52.70
  C 22.20 51.26 21.62 49.92 21.72 48.40
  Q 21.91 45.51 22.03 42.62
  Q 22.08 41.53 22.86 36.95
  Q 23.55 32.91 21.99 29.43"
/>
<path stroke="#c13b85" vector-effect="non-scaling-stroke" d="
  M 21.99 29.43
  L 23.19 26.96"
/>
<path stroke="#fbcc65" vector-effect="non-scaling-stroke" d="
  M 91.51 11.61
  Q 89.20 12.71 85.62 10.50"
/>
<path stroke="#fae77f" vector-effect="non-scaling-stroke" d="
  M 85.62 10.50
  Q 82.23 8.23 78.24 7.85
  Q 72.49 7.30 66.75 6.57
  Q 64.57 6.29 57.36 7.25
  Q 55.57 7.48 53.77 8.14
  Q 51.98 8.80 50.24 9.41
  Q 48.58 9.98 46.49 10.87
  Q 43.46 12.15 42.23 9.41"
/>
<path stroke="#472069" vector-effect="non-scaling-stroke" d="
  M 128.00 64.26
  C 127.68 61.44 128.73 56.90 126.39 55.47
  Q 123.69 53.82 124.95 50.28
  Q 125.62 48.40 125.62 46.45
  Q 125.61 45.63 126.26 46.14
  Q 126.51 46.34 126.66 46.60
  Q 126.77 46.81 127.00 46.83
  Q 127.26 46.86 127.36 46.64
  Q 127.44 46.47 127.46 46.27
  Q 128.07 35.47 127.41 24.80
  Q 127.40 24.67 127.27 24.67
  L 127.27 24.67
  Q 127.15 24.67 127.14 24.79
  Q 126.50 32.60 125.99 39.80
  Q 125.88 41.25 126.26 42.91
  Q 126.38 43.43 126.07 43.86
  Q 125.64 44.46 124.92 44.68
  A 0.56 0.55 74.7 0 1 124.22 44.28
  L 123.84 42.76
  A 0.73 0.73 0.0 0 0 123.16 42.20
  L 122.91 42.19
  Q 122.54 42.18 122.60 42.54
  Q 122.81 43.76 122.42 45.02"
/>
<path stroke="#7a2b9b" vector-effect="non-scaling-stroke" d="
  M 122.42 45.02
  Q 121.39 34.07 117.48 24.24"
/>
<path stroke="#fab835" vector-effect="non-scaling-stroke" d="
  M 85.62 10.50
  Q 82.53 10.40 76.00 9.00
  Q 72.79 8.31 68.58 8.68
  Q 68.37 8.70 61.64 9.15
  Q 56.26 9.51 51.23 11.99"
/>
<path stroke="#f89e32" vector-effect="non-scaling-stroke" d="
  M 51.23 11.99
  L 49.08 13.52
  Q 48.69 13.80 48.20 13.85
  Q 47.16 13.96 46.49 14.36
  Q 41.72 17.23 37.57 21.72"
/>
<path stroke="#eb8e39" vector-effect="non-scaling-stroke" d="
  M 37.57 21.72
  L 34.59 23.41
  A 1.31 1.31 0.0 0 1 32.64 22.17
  L 32.80 20.17"
/>
<path stroke="#eb741f" vector-effect="non-scaling-stroke" d="
  M 98.82 20.89
  Q 99.18 23.19 97.70 23.47
  Q 97.14 23.57 96.72 23.95
  L 94.72 25.76
  Q 94.44 26.01 94.07 26.06
  Q 91.33 26.44 88.18 26.21
  Q 86.34 26.08 85.10 25.15
  A 1.00 0.97 53.6 0 0 84.22 25.00
  L 82.77 25.49"
/>
<path stroke="#faae16" vector-effect="non-scaling-stroke" d="
  M 82.77 25.49
  L 86.55 20.00
  A 1.03 1.03 0.0 0 0 86.15 18.49
  L 84.26 17.57"
/>
<path stroke="#fbcd50" vector-effect="non-scaling-stroke" d="
  M 84.26 17.57
  Q 78.95 15.31 73.32 15.12"
/>
<path stroke="#f9aa28" vector-effect="non-scaling-stroke" d="
  M 73.32 15.12
  Q 67.00 13.97 59.08 14.29"
/>
<path stroke="#f98418" vector-effect="non-scaling-stroke" d="
  M 59.08 14.29
  Q 60.22 13.73 58.88 11.85
  Q 58.58 11.43 58.08 11.32
  Q 55.91 10.85 53.98 11.49
  Q 52.25 12.06 51.23 11.99"
/>
<path stroke="#f79125" vector-effect="non-scaling-stroke" d="
  M 59.08 14.29
  Q 53.66 19.06 49.77 26.42
  Q 47.91 29.93 45.63 37.87
  Q 45.14 39.59 45.77 40.62
  Q 46.01 41.01 45.83 41.44
  Q 45.53 42.14 45.91 43.08"
/>
<path stroke="#f9b34d" vector-effect="non-scaling-stroke" d="
  M 45.91 43.08
  L 42.70 49.21
  Q 42.32 49.94 43.13 49.92
  Q 53.06 49.76 63.70 50.30
  A 0.46 0.46 0.0 0 1 64.14 50.76
  L 64.08 65.98"
/>
<path stroke="#ea5a1b" vector-effect="non-scaling-stroke" d="
  M 46.46 58.72
  Q 42.84 56.16 41.73 50.48
  Q 41.52 49.44 41.81 48.47
  Q 41.95 47.96 41.67 47.50
  Q 40.81 46.12 41.08 44.31
  Q 41.32 42.71 40.99 41.25
  Q 40.58 39.46 40.43 37.58
  Q 40.34 36.45 39.81 35.51
  Q 39.23 34.48 39.29 33.33
  Q 39.33 32.47 38.47 32.38
  Q 38.23 32.35 38.12 32.13
  Q 37.40 30.54 35.82 29.67
  Q 33.80 28.56 32.70 26.26
  Q 32.49 25.82 32.87 25.52
  L 37.57 21.72"
/>
<path stroke="#f89e32" vector-effect="non-scaling-stroke" d="
  M 41.1423 33.5755
  A 1.98 1.03 73.2 0 0 41.5560 31.3823
  A 1.98 1.03 73.2 0 0 39.9977 29.7845
  A 1.98 1.03 73.2 0 0 39.5840 31.9777
  A 1.98 1.03 73.2 0 0 41.1423 33.5755"
/>
<path stroke="#a93383" vector-effect="non-scaling-stroke" d="
  M 21.99 29.43
  Q 19.51 34.97 18.62 41.17"
/>
<path stroke="#c440c6" vector-effect="non-scaling-stroke" d="
  M 18.62 41.17
  Q 18.07 42.80 16.51 40.96
  Q 16.20 40.59 16.11 40.10
  Q 15.94 39.06 14.77 39.11
  Q 13.28 39.17 11.99 39.09
  Q 11.51 39.06 11.26 38.64
  C 10.04 36.57 10.90 35.20 11.46 33.18
  Q 12.66 28.82 14.63 24.63"
/>
<path stroke="#f9da5d" vector-effect="non-scaling-stroke" d="
  M 73.32 15.12
  L 62.53 15.23
  Q 61.93 15.23 61.79 15.81
  C 61.30 17.75 59.52 19.20 58.50 20.84
  Q 51.75 31.70 45.91 43.08"
/>
<path stroke="#fbdd4b" vector-effect="non-scaling-stroke" d="
  M 84.26 17.57
  Q 81.41 19.61 79.74 22.37"
/>
<path stroke="#fcfdad" vector-effect="non-scaling-stroke" d="
  M 79.74 22.37
  L 79.57 20.41
  A 1.46 1.46 0.0 0 0 77.46 19.24
  Q 75.77 20.09 74.86 21.59
  Q 74.04 22.96 72.92 24.00
  Q 71.41 25.40 69.92 26.72
  Q 69.54 27.05 69.56 27.55
  Q 69.71 31.33 73.81 31.32"
/>
<path stroke="#fbdd4b" vector-effect="non-scaling-stroke" d="
  M 73.81 31.32
  Q 69.34 38.42 65.97 46.94
  A 0.99 0.98 -76.6 0 0 66.79 48.29
  L 81.14 49.60"
/>
<path stroke="#f9bc46" vector-effect="non-scaling-stroke" d="
  M 81.14 49.60
  L 65.23 77.37
  A 0.31 0.31 0.0 0 1 64.66 77.32
  L 64.35 76.41"
/>
<path stroke="#eb8419" vector-effect="non-scaling-stroke" d="
  M 82.77 25.49
  L 76.00 35.92"
/>
<path stroke="#f99d0c" vector-effect="non-scaling-stroke" d="
  M 76.00 35.92
  Q 73.42 38.03 73.31 40.44
  A 3.01 2.99 7.3 0 0 75.69 43.50
  L 82.98 45.06
  A 0.71 0.71 0.0 0 1 83.42 46.15
  L 81.14 49.60"
/>
<path stroke="#fcde72" vector-effect="non-scaling-stroke" d="
  M 73.81 31.32
  L 79.74 22.37"
/>
<path stroke="#a33024" vector-effect="non-scaling-stroke" d="
  M 104.18 34.78
  Q 104.39 35.70 104.48 35.38"
/>
<path stroke="#ea6315" vector-effect="non-scaling-stroke" d="
  M 93.48 47.07
  Q 93.86 43.86 88.40 41.62
  Q 81.80 38.92 77.12 37.88
  Q 76.03 37.64 76.00 35.92"
/>
<path stroke="#5c1f71" vector-effect="non-scaling-stroke" d="
  M 122.42 45.02
  Q 122.72 56.75 118.98 68.01"
/>
<path stroke="#6e2790" vector-effect="non-scaling-stroke" d="
  M 118.98 68.01
  Q 118.08 69.29 117.86 70.74
  Q 117.41 73.71 116.10 75.76
  Q 114.93 77.59 113.83 79.68
  Q 113.40 80.48 112.76 81.06
  Q 112.10 81.66 111.84 82.49
  Q 111.51 83.53 110.86 84.49
  Q 107.29 89.73 101.89 92.24"
/>
<path stroke="#c593a9" vector-effect="non-scaling-stroke" d="
  M 101.89 92.24
  C 101.02 91.61 100.40 91.05 99.25 91.03
  Q 94.12 90.92 89.00 90.98
  Q 87.82 91.00 84.19 89.89"
/>
<path stroke="#7c2064" vector-effect="non-scaling-stroke" d="
  M 84.19 89.89
  Q 96.36 83.81 104.06 74.04
  Q 110.31 66.12 111.83 57.25"
/>
<path stroke="#852368" vector-effect="non-scaling-stroke" d="
  M 18.62 41.17
  Q 18.34 45.56 18.61 50.00
  Q 19.50 64.69 28.46 76.07
  C 29.90 77.89 31.90 79.06 33.66 80.52
  Q 35.58 82.11 37.75 83.57
  Q 42.28 86.62 47.48 89.96"
/>
<path stroke="#ce96ad" vector-effect="non-scaling-stroke" d="
  M 47.48 89.96
  Q 38.70 91.88 30.04 90.70"
/>
<path stroke="#832e9f" vector-effect="non-scaling-stroke" d="
  M 30.04 90.70
  L 33.73 90.83
  Q 34.68 90.86 33.95 90.25
  Q 33.38 89.78 32.68 89.68
  A 1.78 1.72 -15.6 0 1 31.65 89.12
  Q 30.47 87.78 29.32 86.55
  Q 27.58 84.69 25.08 83.61
  Q 24.63 83.41 24.33 83.01
  Q 23.23 81.55 21.40 80.82
  Q 19.71 80.15 18.86 78.48
  Q 18.74 78.24 18.47 78.18
  Q 17.96 78.07 17.75 77.59
  Q 16.79 75.49 14.98 74.17
  Q 14.56 73.87 14.61 73.35
  Q 14.72 72.10 13.87 71.17
  Q 13.51 70.78 13.58 70.25
  Q 13.67 69.52 13.08 68.98
  Q 12.61 68.54 12.61 67.90
  Q 12.60 65.74 10.78 64.48"
/>
<path stroke="#3c1c5e" vector-effect="non-scaling-stroke" d="
  M 128.00 69.82
  L 127.76 76.23
  A 0.25 0.24 -85.7 0 1 127.49 76.47
  L 127.21 76.44
  Q 126.75 76.40 126.72 75.93
  Q 126.14 67.06 126.08 57.94
  Q 126.07 56.84 125.09 56.67
  Q 124.57 56.58 124.52 57.10
  Q 123.54 66.25 122.69 75.45
  Q 122.55 76.98 121.87 77.47
  Q 121.06 78.06 119.97 77.85
  A 1.26 1.25 24.7 0 0 118.72 78.31
  Q 118.03 79.18 117.16 79.09
  Q 115.67 78.94 116.11 77.51
  L 118.98 68.01"
/>
<path stroke="#b3896a" vector-effect="non-scaling-stroke" d="
  M 84.19 89.89
  Q 76.92 89.65 68.79 87.55
  C 67.24 87.14 64.65 86.72 63.50 87.04
  Q 53.04 89.90 47.48 89.96"
/>
<path stroke="#882451" vector-effect="non-scaling-stroke" d="
  M 108.86 128.00
  Q 109.43 127.54 110.41 127.58
  Q 110.98 127.61 110.93 127.05
  Q 110.51 122.27 111.31 117.33
  Q 111.69 114.99 111.31 111.70
  Q 110.80 107.20 111.03 101.93"
/>
<path stroke="#a59096" vector-effect="non-scaling-stroke" d="
  M 111.03 101.93
  Q 107.91 99.83 105.77 96.81
  C 104.52 95.07 103.19 93.79 101.89 92.24"
/>
<path stroke="#472069" vector-effect="non-scaling-stroke" d="
  M 2.10 78.86
  Q 0.27 79.35 0.00 78.24"
/>
<path stroke="#b094a1" vector-effect="non-scaling-stroke" d="
  M 30.04 90.70
  Q 28.14 91.61 26.19 92.87
  Q 24.36 94.05 22.99 95.75
  Q 20.11 99.31 16.26 101.32
  Q 15.97 101.47 15.98 101.79
  Q 15.99 102.00 16.21 102.07"
/>
<path stroke="#94285c" vector-effect="non-scaling-stroke" d="
  M 16.21 102.07
  L 16.56 120.65"
/>
<path stroke="#68215c" vector-effect="non-scaling-stroke" d="
  M 16.56 120.65
  Q 15.71 124.13 16.12 128.00"
/>
<path stroke="#7d3ab1" vector-effect="non-scaling-stroke" d="
  M 10.18 80.21
  Q 10.91 82.86 13.74 82.29
  Q 15.50 81.94 15.81 80.63
  Q 16.12 79.35 15.28 77.54"
/>
<path stroke="#af72c7" vector-effect="non-scaling-stroke" d="
  M 15.28 77.54
  Q 14.59 76.68 13.87 76.34
  C 12.80 75.84 11.89 76.67 10.94 77.10
  C 9.77 77.62 9.71 79.14 10.18 80.21"
/>
<path stroke="#c780e5" vector-effect="non-scaling-stroke" d="
  M 15.28 77.54
  Q 13.25 80.14 10.18 80.21"
/>
<path stroke="#df9069" vector-effect="non-scaling-stroke" d="
  M 111.03 101.93
  Q 108.91 104.12 107.24 104.68"
/>
<path stroke="#fbcc65" vector-effect="non-scaling-stroke" d="
  M 107.24 104.68
  Q 106.78 105.19 106.81 105.98
  Q 106.82 106.28 106.52 106.31
  L 106.22 106.33
  Q 105.94 106.36 105.88 106.08
  L 105.41 103.50"
/>
<path stroke="#f9d972" vector-effect="non-scaling-stroke" d="
  M 105.41 103.50
  C 103.47 99.46 101.15 96.15 96.58 95.72
  Q 85.53 94.67 78.89 94.60
  A 1.64 1.52 57.9 0 1 78.11 94.39
  C 77.25 93.90 76.20 94.19 75.19 93.93
  Q 72.20 93.16 69.49 92.37
  Q 69.21 92.29 69.10 92.02
  Q 68.93 91.66 68.53 91.63
  Q 65.33 91.40 62.73 92.26
  Q 60.03 93.15 57.37 93.59
  Q 52.99 94.30 48.45 94.91
  C 43.36 95.59 38.09 95.27 32.81 95.57
  C 28.84 95.80 27.02 97.98 24.74 100.87
  C 23.04 103.01 21.85 105.57 21.91 108.28
  Q 22.00 112.74 22.12 117.38
  A 1.40 1.29 82.1 0 1 21.17 118.75
  Q 21.05 118.78 20.59 118.02"
/>
<path stroke="#f9b361" vector-effect="non-scaling-stroke" d="
  M 20.59 118.02
  Q 20.72 112.13 20.38 106.22
  Q 20.30 104.75 19.70 103.94
  Q 18.89 102.84 17.62 102.46"
/>
<path stroke="#df9069" vector-effect="non-scaling-stroke" d="
  M 17.62 102.46
  Q 16.92 102.07 16.21 102.07"
/>
<path stroke="#f9aa28" vector-effect="non-scaling-stroke" d="
  M 105.41 103.50
  Q 105.43 104.17 105.19 104.61"
/>
<path stroke="#f8a730" vector-effect="non-scaling-stroke" d="
  M 105.19 104.61
  Q 104.81 103.72 104.44 103.44
  A 0.36 0.35 18.6 0 0 103.87 103.72
  L 103.87 105.60
  Q 103.87 106.09 103.40 106.26
  L 98.27 108.10
  Q 97.79 108.27 97.30 108.11
  Q 95.37 107.47 93.48 107.83
  Q 93.27 107.87 93.46 107.96
  Q 93.51 107.99 93.52 108.04
  Q 93.52 108.26 93.30 108.32
  Q 92.69 108.48 92.04 108.28"
/>
<path stroke="#fbdb9a" vector-effect="non-scaling-stroke" d="
  M 92.04 108.28
  C 91.74 103.02 85.38 103.85 81.70 104.01
  Q 81.18 104.04 81.16 104.56
  L 80.99 110.09"
/>
<path stroke="#f8a730" vector-effect="non-scaling-stroke" d="
  M 80.99 110.09
  Q 77.66 110.15 75.99 108.27"
/>
<path stroke="#fbdb9a" vector-effect="non-scaling-stroke" d="
  M 75.99 108.27
  L 78.57 104.68
  Q 79.05 104.01 78.22 104.01
  L 74.60 104.00
  Q 73.87 104.00 73.48 104.61
  L 71.88 107.14
  A 0.46 0.46 0.0 0 1 71.10 107.14
  L 69.62 104.82
  Q 69.10 103.99 68.11 103.99
  L 64.93 104.00
  Q 63.96 104.00 64.52 104.80
  L 68.55 110.44
  Q 68.88 110.90 68.55 111.37
  L 64.09 117.79"
/>
<path stroke="#f8a730" vector-effect="non-scaling-stroke" d="
  M 64.09 117.79
  Q 62.38 116.97 60.90 118.10
  Q 60.47 118.43 59.92 118.37
  C 59.09 118.27 58.69 118.69 57.83 118.57
  Q 56.78 118.41 56.11 117.80"
/>
<path stroke="#fbdb9a" vector-effect="non-scaling-stroke" d="
  M 56.11 117.80
  Q 56.19 116.98 56.00 116.49
  Q 55.82 116.01 55.30 116.01
  L 50.00 115.98
  Q 48.44 115.98 49.68 115.04
  C 52.34 113.02 56.99 108.64 54.05 105.27
  C 52.64 103.65 49.52 103.92 47.65 104.64
  Q 46.87 104.94 46.91 105.77
  L 46.93 106.24
  Q 46.96 106.93 47.60 106.68
  Q 49.07 106.11 50.77 106.02
  A 2.08 2.08 0.0 0 1 52.93 108.42
  C 52.55 110.91 49.72 113.39 47.77 114.80"
/>
<path stroke="#f8a730" vector-effect="non-scaling-stroke" d="
  M 47.77 114.80
  Q 47.73 114.51 47.68 114.28
  Q 47.65 114.15 47.52 114.11
  Q 47.39 114.08 47.26 114.16
  Q 47.09 114.25 46.95 114.11
  L 42.37 109.54"
/>
<path stroke="#fbdb9a" vector-effect="non-scaling-stroke" d="
  M 42.37 109.54
  L 43.57 107.70
  Q 44.03 107.00 43.19 106.98
  L 42.30 106.96
  A 1.21 1.21 0.0 0 0 41.19 107.66
  L 39.88 110.55
  A 0.38 0.38 0.0 0 1 39.20 110.56
  L 37.88 107.84
  A 1.65 1.65 0.0 0 0 36.46 106.91
  L 35.78 106.87
  Q 34.88 106.83 35.38 107.59
  L 38.28 112.01
  Q 38.57 112.45 38.28 112.89
  L 35.97 116.47"
/>
<path stroke="#f8a730" vector-effect="non-scaling-stroke" d="
  M 35.97 116.47
  Q 31.99 115.04 27.87 115.20
  Q 27.42 115.22 27.01 115.05
  Q 26.00 114.62 24.93 115.02
  Q 24.33 115.24 23.92 114.75
  Q 23.46 114.22 22.94 114.63
  Q 22.56 114.93 22.59 115.42
  Q 22.73 117.47 22.44 119.47
  C 21.90 123.39 25.24 123.70 28.00 124.19
  Q 37.12 125.81 46.33 124.84
  Q 47.47 124.72 48.60 124.79
  C 50.74 124.92 52.15 124.30 54.42 125.11
  Q 57.53 126.23 60.25 128.00"
/>
<path stroke="#a36e59" vector-effect="non-scaling-stroke" d="
  M 55.65 128.00
  Q 55.51 127.71 54.75 127.71"
/>
<path stroke="#dd6e2d" vector-effect="non-scaling-stroke" d="
  M 54.75 127.71
  Q 52.60 126.23 50.50 126.23
  C 41.95 126.21 33.68 126.65 24.90 125.33
  Q 24.39 125.25 24.04 124.87
  L 18.47 118.67"
/>
<path stroke="#f79125" vector-effect="non-scaling-stroke" d="
  M 18.47 118.67
  L 19.15 118.21
  Q 19.53 117.95 19.92 118.18
  Q 20.49 118.50 20.59 118.02"
/>
<path stroke="#dd471c" vector-effect="non-scaling-stroke" d="
  M 17.62 102.46
  Q 17.59 103.03 17.76 103.52
  Q 17.95 104.12 17.36 103.87
  Q 17.20 103.80 17.11 103.96
  Q 16.93 104.25 16.95 104.59
  Q 17.34 109.15 16.96 113.99
  Q 16.71 117.31 18.47 118.67"
/>
<path stroke="#882451" vector-effect="non-scaling-stroke" d="
  M 54.75 127.71
  L 49.96 128.00"
/>
<path stroke="#882451" vector-effect="non-scaling-stroke" d="
  M 49.78 128.00
  Q 47.26 127.52 44.86 128.00"
/>
<path stroke="#961d25" vector-effect="non-scaling-stroke" d="
  M 20.78 128.00
  Q 17.35 125.14 16.56 120.65"
/>
<path stroke="#882451" vector-effect="non-scaling-stroke" d="
  M 82.27 128.00
  L 77.52 127.70"
/>
<path stroke="#de6120" vector-effect="non-scaling-stroke" d="
  M 77.52 127.70
  Q 79.40 126.70 81.50 126.59
  Q 90.90 126.10 99.49 126.01
  Q 102.35 125.98 104.88 123.79
  Q 108.96 120.24 108.02 116.44
  Q 107.63 114.83 107.54 113.13
  Q 107.34 109.06 107.24 104.68"
/>
<path stroke="#f99a23" vector-effect="non-scaling-stroke" d="
  M 105.19 104.61
  Q 105.87 106.36 106.06 108.50
  Q 106.40 112.51 106.76 116.46
  Q 106.91 118.09 106.51 119.45
  Q 106.08 120.88 104.91 122.18
  Q 103.67 123.56 101.09 124.12
  Q 97.95 124.79 96.75 124.82
  Q 88.92 125.07 81.50 125.29
  Q 76.39 125.44 72.17 128.00"
/>
<path stroke="#fccb95" vector-effect="non-scaling-stroke" d="
  M 35.97 116.47
  L 35.41 117.38
  Q 35.03 118.02 35.77 118.05
  C 38.29 118.14 38.19 115.97 39.21 114.32
  A 0.31 0.30 -42.4 0 1 39.74 114.34
  L 41.22 117.32
  Q 41.56 117.99 42.32 117.99
  L 43.27 117.98
  Q 44.00 117.98 43.60 117.36
  L 40.71 112.95
  Q 40.40 112.47 40.72 111.99
  L 42.37 109.54"
/>
<path stroke="#fccb95" vector-effect="non-scaling-stroke" d="
  M 47.77 114.80
  Q 46.75 115.88 47.00 117.41
  Q 47.09 117.93 47.62 117.92
  L 56.11 117.80"
/>
<path stroke="#fccb95" vector-effect="non-scaling-stroke" d="
  M 64.09 117.79
  L 68.58 117.93
  Q 69.12 117.95 69.41 117.49
  L 71.07 114.82
  Q 71.48 114.15 71.90 114.81
  L 73.57 117.40
  Q 73.96 118.00 74.67 118.00
  L 78.39 117.99
  Q 79.01 117.99 78.66 117.49
  L 74.46 111.49
  Q 74.13 111.03 74.45 110.56
  L 75.99 108.27"
/>
<path stroke="#fccb95" vector-effect="non-scaling-stroke" d="
  M 80.99 110.09
  L 81.01 117.47
  A 0.52 0.52 0.0 0 0 81.53 117.99
  L 84.25 118.00
  A 0.75 0.75 0.0 0 0 85.00 117.25
  L 85.01 113.94
  Q 85.02 113.15 85.81 113.10
  Q 91.54 112.73 92.04 108.28"
/>
<path stroke="#a4614c" vector-effect="non-scaling-stroke" d="
  M 77.52 127.70
  Q 76.64 127.66 76.12 128.00"
/>
<path stroke="#fbdb9a" vector-effect="non-scaling-stroke" d="
  M 85.03 107.57
  L 85.01 109.43
  A 0.54 0.54 0.0 0 0 85.54 109.98
  L 86.09 109.99
  A 1.87 1.26 0.7 0 0 87.98 108.75
  L 87.98 108.33
  A 1.87 1.26 0.7 0 0 86.13 107.05
  L 85.58 107.04
  A 0.54 0.54 0.0 0 0 85.03 107.57"
/>
</g>
<path fill="#4e247d" d="
  M 0.00 0.00
  L 1.46 0.00
  Q 0.41 1.20 0.47 2.76
  Q 1.10 19.70 0.75 36.68
  Q 0.73 37.21 1.24 37.37
  Q 1.81 37.56 2.49 36.78
  Q 2.76 37.03 2.43 37.31
  Q 2.25 37.47 2.08 37.63
  Q 1.66 38.01 1.06 37.74
  A 0.62 0.61 -77.2 0 0 0.20 38.29
  Q -0.04 47.55 0.75 56.56
  Q 0.86 57.75 1.80 57.02
  Q 3.32 55.83 5.03 55.03
  A 3.42 3.42 0.0 0 0 7.01 51.96
  Q 7.05 47.83 7.50 43.40
  C 7.82 40.28 6.96 37.44 7.10 34.30
  Q 7.13 33.79 6.74 34.13
  Q 6.40 34.44 6.59 34.88
  A 0.04 0.04 0.0 0 0 6.66 34.87
  Q 7.09 27.65 6.79 19.75
  Q 6.77 19.13 6.58 18.68
  Q 6.40 18.24 6.40 17.78
  L 6.29 1.47
  Q 6.28 0.40 5.22 0.39
  L 3.88 0.37
  Q 2.94 0.36 2.97 1.31
  L 3.40 13.07
  Q 2.50 6.83 2.60 2.25
  Q 2.64 0.72 1.99 0.00
  L 14.13 0.00
  Q 13.64 0.36 11.97 0.27
  A 0.96 0.96 0.0 0 0 10.95 1.14
  Q 10.17 9.29 11.04 17.31
  C 11.49 21.45 10.73 25.54 10.62 29.79
  Q 10.46 32.58 9.71 41.00
  Q 8.67 52.59 10.78 64.48
  L 13.20 72.87
  Q 13.34 73.37 13.69 73.76
  Q 14.07 74.18 14.25 74.68
  Q 14.49 75.31 13.89 75.61
  Q 12.58 76.27 10.98 76.35
  Q 10.86 76.35 10.87 76.47
  Q 10.87 76.52 10.85 76.57
  Q 10.77 76.78 10.53 76.82
  Q 5.91 77.56 2.10 78.86
  L 1.98 62.14
  Q 1.98 61.70 1.53 61.72
  L 1.26 61.73
  A 0.77 0.76 0.8 0 0 0.53 62.43
  L 0.00 68.50
  L 0.00 0.00
  Z"
/>
<path fill="#29143f" d="
  M 1.46 0.00
  L 1.99 0.00
  Q 2.64 0.72 2.60 2.25
  Q 2.50 6.83 3.40 13.07
  Q 3.99 24.03 2.86 34.99
  Q 2.77 35.92 2.49 36.78
  Q 1.81 37.56 1.24 37.37
  Q 0.73 37.21 0.75 36.68
  Q 1.10 19.70 0.47 2.76
  Q 0.41 1.20 1.46 0.00
  Z"
/>
<path fill="#6a52db" d="
  M 14.13 0.00
  L 34.94 0.00
  Q 29.41 3.26 25.15 7.66
  L 19.90 13.98
  L 14.63 24.63
  Q 13.44 25.20 13.37 26.55
  A 1.29 1.20 65.4 0 1 13.16 27.18
  L 11.96 28.97
  Q 11.79 29.22 11.86 29.53
  Q 11.94 29.84 11.64 30.03
  Q 11.15 30.36 11.20 29.77
  Q 11.28 29.01 11.40 28.20
  Q 11.41 28.11 11.32 28.10
  Q 11.27 28.09 11.22 28.11
  Q 11.10 28.14 11.12 28.28
  Q 11.30 29.35 10.62 29.79
  C 10.73 25.54 11.49 21.45 11.04 17.31
  Q 10.17 9.29 10.95 1.14
  A 0.96 0.96 0.0 0 1 11.97 0.27
  Q 13.64 0.36 14.13 0.00
  Z"
/>
<path fill="#f9b8fb" d="
  M 34.94 0.00
  L 38.92 0.00
  L 26.29 8.76
  A 0.76 0.76 0.0 0 1 25.10 8.08
  Q 25.12 7.90 25.15 7.66
  Q 29.41 3.26 34.94 0.00
  Z"
/>
<path fill="#fb70f3" d="
  M 38.92 0.00
  L 55.82 0.00
  L 61.12 0.71
  Q 58.50 0.99 55.95 1.29
  Q 53.39 1.60 50.93 2.49
  Q 47.42 3.77 44.49 5.11
  Q 40.15 7.08 33.71 12.45
  Q 27.00 18.05 23.19 26.96
  Q 21.44 25.04 23.47 21.90
  C 24.66 20.07 23.33 18.26 23.08 16.44
  A 1.90 1.68 78.3 0 0 20.91 14.82
  Q 20.48 14.94 19.90 13.98
  L 25.15 7.66
  Q 25.12 7.90 25.10 8.08
  A 0.76 0.76 0.0 0 0 26.29 8.76
  L 38.92 0.00
  Z"
/>
<path fill="#4e247d" d="
  M 55.82 0.00
  L 75.51 0.00
  L 70.57 0.55
  L 61.12 0.71
  L 55.82 0.00
  Z"
/>
<path fill="#e750e0" d="
  M 75.51 0.00
  L 92.45 0.00
  Q 94.83 2.34 97.55 4.15
  Q 99.28 5.30 100.66 6.61
  Q 102.25 8.11 104.27 8.82
  A 1.79 1.75 32.6 0 0 106.09 8.44
  Q 106.28 8.27 106.04 7.75
  Q 111.64 13.38 115.33 20.24
  L 117.48 24.24
  L 118.23 28.58
  Q 118.29 28.95 118.19 29.31
  Q 117.74 30.85 117.54 32.48
  Q 117.08 36.18 115.57 41.20
  C 114.95 43.24 115.88 45.87 114.56 47.79
  Q 114.25 48.24 113.89 47.82
  Q 113.46 47.31 113.64 46.50
  Q 113.89 45.43 113.30 44.51
  Q 112.17 29.32 102.70 17.30
  Q 103.67 17.58 103.77 17.33
  A 2.46 2.21 36.9 0 0 103.31 15.01
  Q 101.09 12.37 98.98 9.63
  Q 98.02 8.38 96.59 7.60
  Q 94.34 6.39 92.54 5.27
  A 1.70 1.60 29.5 0 0 90.18 5.85
  Q 90.17 5.87 90.42 6.71
  Q 84.36 3.26 77.46 1.63
  Q 76.46 1.39 74.01 1.18
  Q 72.23 1.03 70.57 0.55
  L 75.51 0.00
  Z"
/>
<path fill="#fb70f3" d="
  M 92.45 0.00
  L 97.09 0.00
  L 106.04 7.75
  Q 106.28 8.27 106.09 8.44
  A 1.79 1.75 32.6 0 1 104.27 8.82
  Q 102.25 8.11 100.66 6.61
  Q 99.28 5.30 97.55 4.15
  Q 94.83 2.34 92.45 0.00
  Z"
/>
<path fill="#9548ce" d="
  M 97.09 0.00
  L 112.85 0.00
  Q 116.14 0.73 119.41 0.00
  L 121.71 0.00
  L 128.00 0.63
  L 128.00 5.25
  Q 126.74 5.18 125.11 5.74
  Q 123.78 6.19 121.59 5.57
  Q 121.43 5.53 121.57 5.44
  Q 122.08 5.12 121.19 5.24
  A 0.61 0.61 0.0 0 0 120.67 5.70
  L 119.42 10.50
  A 1.19 1.17 -49.5 0 0 119.47 11.22
  Q 120.09 12.69 119.36 14.01
  Q 119.12 14.45 118.65 14.65
  Q 115.02 16.17 115.33 20.24
  Q 111.64 13.38 106.04 7.75
  L 97.09 0.00
  Z"
/>
<path fill="#4e247d" d="
  M 112.85 0.00
  L 119.41 0.00
  Q 116.14 0.73 112.85 0.00
  Z"
/>
<path fill="#4e247d" d="
  M 121.71 0.00
  L 128.00 0.00
  L 128.00 0.63
  L 121.71 0.00
  Z"
/>
<path fill="#9b252a" d="
  M 70.57 0.55
  Q 72.23 1.03 74.01 1.18
  Q 76.46 1.39 77.46 1.63
  Q 84.36 3.26 90.42 6.71
  Q 97.73 10.91 102.70 17.30
  Q 112.17 29.32 113.30 44.51
  L 111.83 57.25
  Q 111.48 55.52 112.14 53.85
  Q 112.18 53.76 112.13 53.66
  Q 112.03 53.47 111.87 53.34
  A 0.05 0.05 0.0 0 0 111.79 53.40
  Q 111.92 53.66 111.81 53.91
  A 0.19 0.18 41.1 0 1 111.48 53.93
  Q 111.18 53.42 110.68 53.72
  A 0.64 0.63 61.1 0 1 109.77 53.45
  Q 107.38 48.39 108.22 44.29
  Q 108.62 42.34 108.15 40.28
  Q 107.21 36.09 105.90 32.86
  Q 105.66 32.28 105.22 32.14
  Q 104.71 31.98 104.61 32.50
  L 104.18 34.78
  Q 102.89 27.14 98.82 20.89
  Q 95.83 15.21 91.51 11.61
  Q 85.82 5.97 78.21 3.63
  C 65.76 -0.20 52.66 1.39 42.23 9.41
  Q 36.87 13.78 32.80 20.17
  Q 31.15 22.02 30.27 23.77
  Q 28.83 26.64 27.62 30.02
  Q 26.43 33.37 26.53 36.64
  Q 26.75 43.75 28.75 48.79
  Q 33.19 59.96 46.46 58.72
  L 63.30 58.83
  A 0.68 0.68 0.0 0 1 63.98 59.50
  L 64.08 65.98
  L 64.35 76.41
  L 64.21 82.59
  Q 64.19 83.49 64.95 83.02
  Q 65.27 82.81 65.32 82.44
  Q 65.38 82.01 65.69 81.73
  C 68.53 79.17 70.65 75.91 73.28 73.06
  Q 80.71 64.99 88.15 55.18
  Q 90.89 51.58 93.48 47.07
  Q 99.19 43.68 102.51 41.33
  Q 104.82 39.71 104.48 35.38
  Q 105.32 40.97 104.38 47.49
  Q 101.45 67.63 84.31 77.11
  Q 83.85 77.37 83.32 77.36
  Q 82.50 77.35 81.86 77.85
  Q 81.22 78.36 80.46 78.69
  Q 74.52 81.29 68.48 82.05
  C 67.42 82.19 66.61 82.63 65.84 83.32
  Q 63.49 85.46 63.32 82.24
  Q 63.29 81.67 62.97 81.21
  Q 62.62 80.71 62.05 80.93
  C 61.42 81.18 60.66 81.14 60.01 80.96
  Q 57.50 80.25 55.03 79.89
  Q 54.48 79.81 54.12 79.38
  Q 53.81 79.01 53.31 79.09
  Q 52.76 79.18 52.24 78.95
  C 50.18 78.04 48.01 77.73 46.04 76.57
  Q 32.61 68.72 27.25 54.06
  A 0.68 0.65 -77.6 0 0 27.09 53.80
  L 24.78 51.43
  A 0.54 0.54 0.0 0 0 24.19 51.29
  L 23.06 51.71
  Q 22.68 51.85 22.63 52.25
  Q 22.60 52.47 22.60 52.69
  Q 22.60 53.61 22.44 52.70
  C 22.20 51.26 21.62 49.92 21.72 48.40
  Q 21.91 45.51 22.03 42.62
  Q 22.08 41.53 22.86 36.95
  Q 23.55 32.91 21.99 29.43
  L 23.19 26.96
  Q 27.00 18.05 33.71 12.45
  Q 40.15 7.08 44.49 5.11
  Q 47.42 3.77 50.93 2.49
  Q 53.39 1.60 55.95 1.29
  Q 58.50 0.99 61.12 0.71
  L 70.57 0.55
  Z"
/>
<path fill="#652c93" d="
  M 2.49 36.78
  Q 2.77 35.92 2.86 34.99
  Q 3.99 24.03 3.40 13.07
  L 2.97 1.31
  Q 2.94 0.36 3.88 0.37
  L 5.22 0.39
  Q 6.28 0.40 6.29 1.47
  L 6.40 17.78
  Q 6.40 18.24 6.58 18.68
  Q 6.77 19.13 6.79 19.75
  Q 7.09 27.65 6.66 34.87
  A 0.04 0.04 0.0 0 1 6.59 34.88
  Q 6.40 34.44 6.74 34.13
  Q 7.13 33.79 7.10 34.30
  C 6.96 37.44 7.82 40.28 7.50 43.40
  Q 7.05 47.83 7.01 51.96
  A 3.42 3.42 0.0 0 1 5.03 55.03
  Q 3.32 55.83 1.80 57.02
  Q 0.86 57.75 0.75 56.56
  Q -0.04 47.55 0.20 38.29
  A 0.62 0.61 -77.2 0 1 1.06 37.74
  Q 1.66 38.01 2.08 37.63
  Q 2.25 37.47 2.43 37.31
  Q 2.76 37.03 2.49 36.78
  Z"
/>
<path fill="#fbfbae" d="
  M 91.51 11.61
  Q 89.20 12.71 85.62 10.50
  Q 82.23 8.23 78.24 7.85
  Q 72.49 7.30 66.75 6.57
  Q 64.57 6.29 57.36 7.25
  Q 55.57 7.48 53.77 8.14
  Q 51.98 8.80 50.24 9.41
  Q 48.58 9.98 46.49 10.87
  Q 43.46 12.15 42.23 9.41
  C 52.66 1.39 65.76 -0.20 78.21 3.63
  Q 85.82 5.97 91.51 11.61
  Z"
/>
<path fill="#fb70f3" d="
  M 102.70 17.30
  Q 97.73 10.91 90.42 6.71
  Q 90.17 5.87 90.18 5.85
  A 1.70 1.60 29.5 0 1 92.54 5.27
  Q 94.34 6.39 96.59 7.60
  Q 98.02 8.38 98.98 9.63
  Q 101.09 12.37 103.31 15.01
  A 2.46 2.21 36.9 0 1 103.77 17.33
  Q 103.67 17.58 102.70 17.30
  Z"
/>
<path fill="#652c93" d="
  M 128.00 5.25
  L 128.00 64.26
  C 127.68 61.44 128.73 56.90 126.39 55.47
  Q 123.69 53.82 124.95 50.28
  Q 125.62 48.40 125.62 46.45
  Q 125.61 45.63 126.26 46.14
  Q 126.51 46.34 126.66 46.60
  Q 126.77 46.81 127.00 46.83
  Q 127.26 46.86 127.36 46.64
  Q 127.44 46.47 127.46 46.27
  Q 128.07 35.47 127.41 24.80
  Q 127.40 24.67 127.27 24.67
  L 127.27 24.67
  Q 127.15 24.67 127.14 24.79
  Q 126.50 32.60 125.99 39.80
  Q 125.88 41.25 126.26 42.91
  Q 126.38 43.43 126.07 43.86
  Q 125.64 44.46 124.92 44.68
  A 0.56 0.55 74.7 0 1 124.22 44.28
  L 123.84 42.76
  A 0.73 0.73 0.0 0 0 123.16 42.20
  L 122.91 42.19
  Q 122.54 42.18 122.60 42.54
  Q 122.81 43.76 122.42 45.02
  Q 121.39 34.07 117.48 24.24
  L 115.33 20.24
  Q 115.02 16.17 118.65 14.65
  Q 119.12 14.45 119.36 14.01
  Q 120.09 12.69 119.47 11.22
  A 1.19 1.17 -49.5 0 1 119.42 10.50
  L 120.67 5.70
  A 0.61 0.61 0.0 0 1 121.19 5.24
  Q 122.08 5.12 121.57 5.44
  Q 121.43 5.53 121.59 5.57
  Q 123.78 6.19 125.11 5.74
  Q 126.74 5.18 128.00 5.25
  Z"
/>
<path fill="#f9d24f" d="
  M 85.62 10.50
  Q 82.53 10.40 76.00 9.00
  Q 72.79 8.31 68.58 8.68
  Q 68.37 8.70 61.64 9.15
  Q 56.26 9.51 51.23 11.99
  L 49.08 13.52
  Q 48.69 13.80 48.20 13.85
  Q 47.16 13.96 46.49 14.36
  Q 41.72 17.23 37.57 21.72
  L 34.59 23.41
  A 1.31 1.31 0.0 0 1 32.64 22.17
  L 32.80 20.17
  Q 36.87 13.78 42.23 9.41
  Q 43.46 12.15 46.49 10.87
  Q 48.58 9.98 50.24 9.41
  Q 51.98 8.80 53.77 8.14
  Q 55.57 7.48 57.36 7.25
  Q 64.57 6.29 66.75 6.57
  Q 72.49 7.30 78.24 7.85
  Q 82.23 8.23 85.62 10.50
  Z"
/>
<path fill="#fa9d1b" d="
  M 85.62 10.50
  Q 89.20 12.71 91.51 11.61
  Q 95.83 15.21 98.82 20.89
  Q 99.18 23.19 97.70 23.47
  Q 97.14 23.57 96.72 23.95
  L 94.72 25.76
  Q 94.44 26.01 94.07 26.06
  Q 91.33 26.44 88.18 26.21
  Q 86.34 26.08 85.10 25.15
  A 1.00 0.97 53.6 0 0 84.22 25.00
  L 82.77 25.49
  L 86.55 20.00
  A 1.03 1.03 0.0 0 0 86.15 18.49
  L 84.26 17.57
  Q 78.95 15.31 73.32 15.12
  Q 67.00 13.97 59.08 14.29
  Q 60.22 13.73 58.88 11.85
  Q 58.58 11.43 58.08 11.32
  Q 55.91 10.85 53.98 11.49
  Q 52.25 12.06 51.23 11.99
  Q 56.26 9.51 61.64 9.15
  Q 68.37 8.70 68.58 8.68
  Q 72.79 8.31 76.00 9.00
  Q 82.53 10.40 85.62 10.50
  Z"
/>
<path fill="#f76a14" d="
  M 59.08 14.29
  Q 53.66 19.06 49.77 26.42
  Q 47.91 29.93 45.63 37.87
  Q 45.14 39.59 45.77 40.62
  Q 46.01 41.01 45.83 41.44
  Q 45.53 42.14 45.91 43.08
  L 42.70 49.21
  Q 42.32 49.94 43.13 49.92
  Q 53.06 49.76 63.70 50.30
  A 0.46 0.46 0.0 0 1 64.14 50.76
  L 64.08 65.98
  L 63.98 59.50
  A 0.68 0.68 0.0 0 0 63.30 58.83
  L 46.46 58.72
  Q 42.84 56.16 41.73 50.48
  Q 41.52 49.44 41.81 48.47
  Q 41.95 47.96 41.67 47.50
  Q 40.81 46.12 41.08 44.31
  Q 41.32 42.71 40.99 41.25
  Q 40.58 39.46 40.43 37.58
  Q 40.34 36.45 39.81 35.51
  Q 39.23 34.48 39.29 33.33
  Q 39.33 32.47 38.47 32.38
  Q 38.23 32.35 38.12 32.13
  Q 37.40 30.54 35.82 29.67
  Q 33.80 28.56 32.70 26.26
  Q 32.49 25.82 32.87 25.52
  L 37.57 21.72
  Q 41.72 17.23 46.49 14.36
  Q 47.16 13.96 48.20 13.85
  Q 48.69 13.80 49.08 13.52
  L 51.23 11.99
  Q 52.25 12.06 53.98 11.49
  Q 55.91 10.85 58.08 11.32
  Q 58.58 11.43 58.88 11.85
  Q 60.22 13.73 59.08 14.29
  Z
  M 41.1423 33.5755
  A 1.98 1.03 73.2 0 0 41.5560 31.3823
  A 1.98 1.03 73.2 0 0 39.9977 29.7845
  A 1.98 1.03 73.2 0 0 39.5840 31.9777
  A 1.98 1.03 73.2 0 0 41.1423 33.5755
  Z"
/>
<path fill="#e750e0" d="
  M 19.90 13.98
  Q 20.48 14.94 20.91 14.82
  A 1.90 1.68 78.3 0 1 23.08 16.44
  C 23.33 18.26 24.66 20.07 23.47 21.90
  Q 21.44 25.04 23.19 26.96
  L 21.99 29.43
  Q 19.51 34.97 18.62 41.17
  Q 18.07 42.80 16.51 40.96
  Q 16.20 40.59 16.11 40.10
  Q 15.94 39.06 14.77 39.11
  Q 13.28 39.17 11.99 39.09
  Q 11.51 39.06 11.26 38.64
  C 10.04 36.57 10.90 35.20 11.46 33.18
  Q 12.66 28.82 14.63 24.63
  L 19.90 13.98
  Z"
/>
<path fill="#f7b735" d="
  M 59.08 14.29
  Q 67.00 13.97 73.32 15.12
  L 62.53 15.23
  Q 61.93 15.23 61.79 15.81
  C 61.30 17.75 59.52 19.20 58.50 20.84
  Q 51.75 31.70 45.91 43.08
  Q 45.53 42.14 45.83 41.44
  Q 46.01 41.01 45.77 40.62
  Q 45.14 39.59 45.63 37.87
  Q 47.91 29.93 49.77 26.42
  Q 53.66 19.06 59.08 14.29
  Z"
/>
<path fill="#fbfc85" d="
  M 73.32 15.12
  Q 78.95 15.31 84.26 17.57
  Q 81.41 19.61 79.74 22.37
  L 79.57 20.41
  A 1.46 1.46 0.0 0 0 77.46 19.24
  Q 75.77 20.09 74.86 21.59
  Q 74.04 22.96 72.92 24.00
  Q 71.41 25.40 69.92 26.72
  Q 69.54 27.05 69.56 27.55
  Q 69.71 31.33 73.81 31.32
  Q 69.34 38.42 65.97 46.94
  A 0.99 0.98 -76.6 0 0 66.79 48.29
  L 81.14 49.60
  L 65.23 77.37
  A 0.31 0.31 0.0 0 1 64.66 77.32
  L 64.35 76.41
  L 64.08 65.98
  L 64.14 50.76
  A 0.46 0.46 0.0 0 0 63.70 50.30
  Q 53.06 49.76 43.13 49.92
  Q 42.32 49.94 42.70 49.21
  L 45.91 43.08
  Q 51.75 31.70 58.50 20.84
  C 59.52 19.20 61.30 17.75 61.79 15.81
  Q 61.93 15.23 62.53 15.23
  L 73.32 15.12
  Z"
/>
<path fill="#fabe10" d="
  M 84.26 17.57
  L 86.15 18.49
  A 1.03 1.03 0.0 0 1 86.55 20.00
  L 82.77 25.49
  L 76.00 35.92
  Q 73.42 38.03 73.31 40.44
  A 3.01 2.99 7.3 0 0 75.69 43.50
  L 82.98 45.06
  A 0.71 0.71 0.0 0 1 83.42 46.15
  L 81.14 49.60
  L 66.79 48.29
  A 0.99 0.98 -76.6 0 1 65.97 46.94
  Q 69.34 38.42 73.81 31.32
  L 79.74 22.37
  Q 81.41 19.61 84.26 17.57
  Z"
/>
<path fill="#fdfed4" d="
  M 79.74 22.37
  L 73.81 31.32
  Q 69.71 31.33 69.56 27.55
  Q 69.54 27.05 69.92 26.72
  Q 71.41 25.40 72.92 24.00
  Q 74.04 22.96 74.86 21.59
  Q 75.77 20.09 77.46 19.24
  A 1.46 1.46 0.0 0 1 79.57 20.41
  L 79.74 22.37
  Z"
/>
<path fill="#dc4a22" d="
  M 32.80 20.17
  L 32.64 22.17
  A 1.31 1.31 0.0 0 0 34.59 23.41
  L 37.57 21.72
  L 32.87 25.52
  Q 32.49 25.82 32.70 26.26
  Q 33.80 28.56 35.82 29.67
  Q 37.40 30.54 38.12 32.13
  Q 38.23 32.35 38.47 32.38
  Q 39.33 32.47 39.29 33.33
  Q 39.23 34.48 39.81 35.51
  Q 40.34 36.45 40.43 37.58
  Q 40.58 39.46 40.99 41.25
  Q 41.32 42.71 41.08 44.31
  Q 40.81 46.12 41.67 47.50
  Q 41.95 47.96 41.81 48.47
  Q 41.52 49.44 41.73 50.48
  Q 42.84 56.16 46.46 58.72
  Q 33.19 59.96 28.75 48.79
  Q 26.75 43.75 26.53 36.64
  Q 26.43 33.37 27.62 30.02
  Q 28.83 26.64 30.27 23.77
  Q 31.15 22.02 32.80 20.17
  Z"
/>
<path fill="#dc4a22" d="
  M 98.82 20.89
  Q 102.89 27.14 104.18 34.78
  Q 104.39 35.70 104.48 35.38
  Q 104.82 39.71 102.51 41.33
  Q 99.19 43.68 93.48 47.07
  Q 93.86 43.86 88.40 41.62
  Q 81.80 38.92 77.12 37.88
  Q 76.03 37.64 76.00 35.92
  L 82.77 25.49
  L 84.22 25.00
  A 1.00 0.97 53.6 0 1 85.10 25.15
  Q 86.34 26.08 88.18 26.21
  Q 91.33 26.44 94.07 26.06
  Q 94.44 26.01 94.72 25.76
  L 96.72 23.95
  Q 97.14 23.57 97.70 23.47
  Q 99.18 23.19 98.82 20.89
  Z"
/>
<path fill="#8e2aa3" d="
  M 117.48 24.24
  Q 121.39 34.07 122.42 45.02
  Q 122.72 56.75 118.98 68.01
  Q 118.08 69.29 117.86 70.74
  Q 117.41 73.71 116.10 75.76
  Q 114.93 77.59 113.83 79.68
  Q 113.40 80.48 112.76 81.06
  Q 112.10 81.66 111.84 82.49
  Q 111.51 83.53 110.86 84.49
  Q 107.29 89.73 101.89 92.24
  C 101.02 91.61 100.40 91.05 99.25 91.03
  Q 94.12 90.92 89.00 90.98
  Q 87.82 91.00 84.19 89.89
  Q 96.36 83.81 104.06 74.04
  Q 110.31 66.12 111.83 57.25
  L 113.30 44.51
  Q 113.89 45.43 113.64 46.50
  Q 113.46 47.31 113.89 47.82
  Q 114.25 48.24 114.56 47.79
  C 115.88 45.87 114.95 43.24 115.57 41.20
  Q 117.08 36.18 117.54 32.48
  Q 117.74 30.85 118.19 29.31
  Q 118.29 28.95 118.23 28.58
  L 117.48 24.24
  Z"
/>
<path fill="#a030ab" d="
  M 14.63 24.63
  Q 12.66 28.82 11.46 33.18
  C 10.90 35.20 10.04 36.57 11.26 38.64
  Q 11.51 39.06 11.99 39.09
  Q 13.28 39.17 14.77 39.11
  Q 15.94 39.06 16.11 40.10
  Q 16.20 40.59 16.51 40.96
  Q 18.07 42.80 18.62 41.17
  Q 18.34 45.56 18.61 50.00
  Q 19.50 64.69 28.46 76.07
  C 29.90 77.89 31.90 79.06 33.66 80.52
  Q 35.58 82.11 37.75 83.57
  Q 42.28 86.62 47.48 89.96
  Q 38.70 91.88 30.04 90.70
  L 33.73 90.83
  Q 34.68 90.86 33.95 90.25
  Q 33.38 89.78 32.68 89.68
  A 1.78 1.72 -15.6 0 1 31.65 89.12
  Q 30.47 87.78 29.32 86.55
  Q 27.58 84.69 25.08 83.61
  Q 24.63 83.41 24.33 83.01
  Q 23.23 81.55 21.40 80.82
  Q 19.71 80.15 18.86 78.48
  Q 18.74 78.24 18.47 78.18
  Q 17.96 78.07 17.75 77.59
  Q 16.79 75.49 14.98 74.17
  Q 14.56 73.87 14.61 73.35
  Q 14.72 72.10 13.87 71.17
  Q 13.51 70.78 13.58 70.25
  Q 13.67 69.52 13.08 68.98
  Q 12.61 68.54 12.61 67.90
  Q 12.60 65.74 10.78 64.48
  Q 8.67 52.59 9.71 41.00
  Q 10.46 32.58 10.62 29.79
  Q 11.30 29.35 11.12 28.28
  Q 11.10 28.14 11.22 28.11
  Q 11.27 28.09 11.32 28.10
  Q 11.41 28.11 11.40 28.20
  Q 11.28 29.01 11.20 29.77
  Q 11.15 30.36 11.64 30.03
  Q 11.94 29.84 11.86 29.53
  Q 11.79 29.22 11.96 28.97
  L 13.16 27.18
  A 1.29 1.20 65.4 0 0 13.37 26.55
  Q 13.44 25.20 14.63 24.63
  Z"
/>
<path fill="#29143f" d="
  M 128.00 64.26
  L 128.00 69.82
  L 127.76 76.23
  A 0.25 0.24 -85.7 0 1 127.49 76.47
  L 127.21 76.44
  Q 126.75 76.40 126.72 75.93
  Q 126.14 67.06 126.08 57.94
  Q 126.07 56.84 125.09 56.67
  Q 124.57 56.58 124.52 57.10
  Q 123.54 66.25 122.69 75.45
  Q 122.55 76.98 121.87 77.47
  Q 121.06 78.06 119.97 77.85
  A 1.26 1.25 24.7 0 0 118.72 78.31
  Q 118.03 79.18 117.16 79.09
  Q 115.67 78.94 116.11 77.51
  L 118.98 68.01
  Q 122.72 56.75 122.42 45.02
  Q 122.81 43.76 122.60 42.54
  Q 122.54 42.18 122.91 42.19
  L 123.16 42.20
  A 0.73 0.73 0.0 0 1 123.84 42.76
  L 124.22 44.28
  A 0.56 0.55 74.7 0 0 124.92 44.68
  Q 125.64 44.46 126.07 43.86
  Q 126.38 43.43 126.26 42.91
  Q 125.88 41.25 125.99 39.80
  Q 126.50 32.60 127.14 24.79
  Q 127.15 24.67 127.27 24.67
  L 127.27 24.67
  Q 127.40 24.67 127.41 24.80
  Q 128.07 35.47 127.46 46.27
  Q 127.44 46.47 127.36 46.64
  Q 127.26 46.86 127.00 46.83
  Q 126.77 46.81 126.66 46.60
  Q 126.51 46.34 126.26 46.14
  Q 125.61 45.63 125.62 46.45
  Q 125.62 48.40 124.95 50.28
  Q 123.69 53.82 126.39 55.47
  C 128.73 56.90 127.68 61.44 128.00 64.26
  Z"
/>
<path fill="#6a1625" d="
  M 21.99 29.43
  Q 23.55 32.91 22.86 36.95
  Q 22.08 41.53 22.03 42.62
  Q 21.91 45.51 21.72 48.40
  C 21.62 49.92 22.20 51.26 22.44 52.70
  Q 22.60 53.61 22.60 52.69
  Q 22.60 52.47 22.63 52.25
  Q 22.68 51.85 23.06 51.71
  L 24.19 51.29
  A 0.54 0.54 0.0 0 1 24.78 51.43
  L 27.09 53.80
  A 0.68 0.65 -77.6 0 1 27.25 54.06
  Q 32.61 68.72 46.04 76.57
  C 48.01 77.73 50.18 78.04 52.24 78.95
  Q 52.76 79.18 53.31 79.09
  Q 53.81 79.01 54.12 79.38
  Q 54.48 79.81 55.03 79.89
  Q 57.50 80.25 60.01 80.96
  C 60.66 81.14 61.42 81.18 62.05 80.93
  Q 62.62 80.71 62.97 81.21
  Q 63.29 81.67 63.32 82.24
  Q 63.49 85.46 65.84 83.32
  C 66.61 82.63 67.42 82.19 68.48 82.05
  Q 74.52 81.29 80.46 78.69
  Q 81.22 78.36 81.86 77.85
  Q 82.50 77.35 83.32 77.36
  Q 83.85 77.37 84.31 77.11
  Q 101.45 67.63 104.38 47.49
  Q 105.32 40.97 104.48 35.38
  Q 104.39 35.70 104.18 34.78
  L 104.61 32.50
  Q 104.71 31.98 105.22 32.14
  Q 105.66 32.28 105.90 32.86
  Q 107.21 36.09 108.15 40.28
  Q 108.62 42.34 108.22 44.29
  Q 107.38 48.39 109.77 53.45
  A 0.64 0.63 61.1 0 0 110.68 53.72
  Q 111.18 53.42 111.48 53.93
  A 0.19 0.18 41.1 0 0 111.81 53.91
  Q 111.92 53.66 111.79 53.40
  A 0.05 0.05 0.0 0 1 111.87 53.34
  Q 112.03 53.47 112.13 53.66
  Q 112.18 53.76 112.14 53.85
  Q 111.48 55.52 111.83 57.25
  Q 110.31 66.12 104.06 74.04
  Q 96.36 83.81 84.19 89.89
  Q 76.92 89.65 68.79 87.55
  C 67.24 87.14 64.65 86.72 63.50 87.04
  Q 53.04 89.90 47.48 89.96
  Q 42.28 86.62 37.75 83.57
  Q 35.58 82.11 33.66 80.52
  C 31.90 79.06 29.90 77.89 28.46 76.07
  Q 19.50 64.69 18.61 50.00
  Q 18.34 45.56 18.62 41.17
  Q 19.51 34.97 21.99 29.43
  Z"
/>
<ellipse fill="#f9d24f" cx="0.00" cy="0.00" transform="translate(40.57,31.68) rotate(73.2)" rx="1.98" ry="1.03"/>
<path fill="#f77b07" d="
  M 76.00 35.92
  Q 76.03 37.64 77.12 37.88
  Q 81.80 38.92 88.40 41.62
  Q 93.86 43.86 93.48 47.07
  Q 90.89 51.58 88.15 55.18
  Q 80.71 64.99 73.28 73.06
  C 70.65 75.91 68.53 79.17 65.69 81.73
  Q 65.38 82.01 65.32 82.44
  Q 65.27 82.81 64.95 83.02
  Q 64.19 83.49 64.21 82.59
  L 64.35 76.41
  L 64.66 77.32
  A 0.31 0.31 0.0 0 0 65.23 77.37
  L 81.14 49.60
  L 83.42 46.15
  A 0.71 0.71 0.0 0 0 82.98 45.06
  L 75.69 43.50
  A 3.01 2.99 7.3 0 1 73.31 40.44
  Q 73.42 38.03 76.00 35.92
  Z"
/>
<path fill="#4e247d" d="
  M 128.00 69.82
  L 128.00 128.00
  L 108.86 128.00
  Q 109.43 127.54 110.41 127.58
  Q 110.98 127.61 110.93 127.05
  Q 110.51 122.27 111.31 117.33
  Q 111.69 114.99 111.31 111.70
  Q 110.80 107.20 111.03 101.93
  Q 107.91 99.83 105.77 96.81
  C 104.52 95.07 103.19 93.79 101.89 92.24
  Q 107.29 89.73 110.86 84.49
  Q 111.51 83.53 111.84 82.49
  Q 112.10 81.66 112.76 81.06
  Q 113.40 80.48 113.83 79.68
  Q 114.93 77.59 116.10 75.76
  Q 117.41 73.71 117.86 70.74
  Q 118.08 69.29 118.98 68.01
  L 116.11 77.51
  Q 115.67 78.94 117.16 79.09
  Q 118.03 79.18 118.72 78.31
  A 1.26 1.25 24.7 0 1 119.97 77.85
  Q 121.06 78.06 121.87 77.47
  Q 122.55 76.98 122.69 75.45
  Q 123.54 66.25 124.52 57.10
  Q 124.57 56.58 125.09 56.67
  Q 126.07 56.84 126.08 57.94
  Q 126.14 67.06 126.72 75.93
  Q 126.75 76.40 127.21 76.44
  L 127.49 76.47
  A 0.25 0.24 -85.7 0 0 127.76 76.23
  L 128.00 69.82
  Z"
/>
<path fill="#29143f" d="
  M 2.10 78.86
  Q 0.27 79.35 0.00 78.24
  L 0.00 68.50
  L 0.53 62.43
  A 0.77 0.76 0.8 0 1 1.26 61.73
  L 1.53 61.72
  Q 1.98 61.70 1.98 62.14
  L 2.10 78.86
  Z"
/>
<path fill="#652c93" d="
  M 10.78 64.48
  Q 12.60 65.74 12.61 67.90
  Q 12.61 68.54 13.08 68.98
  Q 13.67 69.52 13.58 70.25
  Q 13.51 70.78 13.87 71.17
  Q 14.72 72.10 14.61 73.35
  Q 14.56 73.87 14.98 74.17
  Q 16.79 75.49 17.75 77.59
  Q 17.96 78.07 18.47 78.18
  Q 18.74 78.24 18.86 78.48
  Q 19.71 80.15 21.40 80.82
  Q 23.23 81.55 24.33 83.01
  Q 24.63 83.41 25.08 83.61
  Q 27.58 84.69 29.32 86.55
  Q 30.47 87.78 31.65 89.12
  A 1.78 1.72 -15.6 0 0 32.68 89.68
  Q 33.38 89.78 33.95 90.25
  Q 34.68 90.86 33.73 90.83
  L 30.04 90.70
  Q 28.14 91.61 26.19 92.87
  Q 24.36 94.05 22.99 95.75
  Q 20.11 99.31 16.26 101.32
  Q 15.97 101.47 15.98 101.79
  Q 15.99 102.00 16.21 102.07
  L 16.56 120.65
  Q 15.71 124.13 16.12 128.00
  L 0.00 128.00
  L 0.00 78.24
  Q 0.27 79.35 2.10 78.86
  Q 5.91 77.56 10.53 76.82
  Q 10.77 76.78 10.85 76.57
  Q 10.87 76.52 10.87 76.47
  Q 10.86 76.35 10.98 76.35
  Q 12.58 76.27 13.89 75.61
  Q 14.49 75.31 14.25 74.68
  Q 14.07 74.18 13.69 73.76
  Q 13.34 73.37 13.20 72.87
  L 10.78 64.48
  Z
  M 10.18 80.21
  Q 10.91 82.86 13.74 82.29
  Q 15.50 81.94 15.81 80.63
  Q 16.12 79.35 15.28 77.54
  Q 14.59 76.68 13.87 76.34
  C 12.80 75.84 11.89 76.67 10.94 77.10
  C 9.77 77.62 9.71 79.14 10.18 80.21
  Z"
/>
<path fill="#f9b8fb" d="
  M 15.28 77.54
  Q 13.25 80.14 10.18 80.21
  C 9.71 79.14 9.77 77.62 10.94 77.10
  C 11.89 76.67 12.80 75.84 13.87 76.34
  Q 14.59 76.68 15.28 77.54
  Z"
/>
<path fill="#9548ce" d="
  M 15.28 77.54
  Q 16.12 79.35 15.81 80.63
  Q 15.50 81.94 13.74 82.29
  Q 10.91 82.86 10.18 80.21
  Q 13.25 80.14 15.28 77.54
  Z"
/>
<path fill="#fbfbae" d="
  M 84.19 89.89
  Q 87.82 91.00 89.00 90.98
  Q 94.12 90.92 99.25 91.03
  C 100.40 91.05 101.02 91.61 101.89 92.24
  C 103.19 93.79 104.52 95.07 105.77 96.81
  Q 107.91 99.83 111.03 101.93
  Q 108.91 104.12 107.24 104.68
  Q 106.78 105.19 106.81 105.98
  Q 106.82 106.28 106.52 106.31
  L 106.22 106.33
  Q 105.94 106.36 105.88 106.08
  L 105.41 103.50
  C 103.47 99.46 101.15 96.15 96.58 95.72
  Q 85.53 94.67 78.89 94.60
  A 1.64 1.52 57.9 0 1 78.11 94.39
  C 77.25 93.90 76.20 94.19 75.19 93.93
  Q 72.20 93.16 69.49 92.37
  Q 69.21 92.29 69.10 92.02
  Q 68.93 91.66 68.53 91.63
  Q 65.33 91.40 62.73 92.26
  Q 60.03 93.15 57.37 93.59
  Q 52.99 94.30 48.45 94.91
  C 43.36 95.59 38.09 95.27 32.81 95.57
  C 28.84 95.80 27.02 97.98 24.74 100.87
  C 23.04 103.01 21.85 105.57 21.91 108.28
  Q 22.00 112.74 22.12 117.38
  A 1.40 1.29 82.1 0 1 21.17 118.75
  Q 21.05 118.78 20.59 118.02
  Q 20.72 112.13 20.38 106.22
  Q 20.30 104.75 19.70 103.94
  Q 18.89 102.84 17.62 102.46
  Q 16.92 102.07 16.21 102.07
  Q 15.99 102.00 15.98 101.79
  Q 15.97 101.47 16.26 101.32
  Q 20.11 99.31 22.99 95.75
  Q 24.36 94.05 26.19 92.87
  Q 28.14 91.61 30.04 90.70
  Q 38.70 91.88 47.48 89.96
  Q 53.04 89.90 63.50 87.04
  C 64.65 86.72 67.24 87.14 68.79 87.55
  Q 76.92 89.65 84.19 89.89
  Z"
/>
<path fill="#f7b735" d="
  M 105.41 103.50
  Q 105.43 104.17 105.19 104.61
  Q 104.81 103.72 104.44 103.44
  A 0.36 0.35 18.6 0 0 103.87 103.72
  L 103.87 105.60
  Q 103.87 106.09 103.40 106.26
  L 98.27 108.10
  Q 97.79 108.27 97.30 108.11
  Q 95.37 107.47 93.48 107.83
  Q 93.27 107.87 93.46 107.96
  Q 93.51 107.99 93.52 108.04
  Q 93.52 108.26 93.30 108.32
  Q 92.69 108.48 92.04 108.28
  C 91.74 103.02 85.38 103.85 81.70 104.01
  Q 81.18 104.04 81.16 104.56
  L 80.99 110.09
  Q 77.66 110.15 75.99 108.27
  L 78.57 104.68
  Q 79.05 104.01 78.22 104.01
  L 74.60 104.00
  Q 73.87 104.00 73.48 104.61
  L 71.88 107.14
  A 0.46 0.46 0.0 0 1 71.10 107.14
  L 69.62 104.82
  Q 69.10 103.99 68.11 103.99
  L 64.93 104.00
  Q 63.96 104.00 64.52 104.80
  L 68.55 110.44
  Q 68.88 110.90 68.55 111.37
  L 64.09 117.79
  Q 62.38 116.97 60.90 118.10
  Q 60.47 118.43 59.92 118.37
  C 59.09 118.27 58.69 118.69 57.83 118.57
  Q 56.78 118.41 56.11 117.80
  Q 56.19 116.98 56.00 116.49
  Q 55.82 116.01 55.30 116.01
  L 50.00 115.98
  Q 48.44 115.98 49.68 115.04
  C 52.34 113.02 56.99 108.64 54.05 105.27
  C 52.64 103.65 49.52 103.92 47.65 104.64
  Q 46.87 104.94 46.91 105.77
  L 46.93 106.24
  Q 46.96 106.93 47.60 106.68
  Q 49.07 106.11 50.77 106.02
  A 2.08 2.08 0.0 0 1 52.93 108.42
  C 52.55 110.91 49.72 113.39 47.77 114.80
  Q 47.73 114.51 47.68 114.28
  Q 47.65 114.15 47.52 114.11
  Q 47.39 114.08 47.26 114.16
  Q 47.09 114.25 46.95 114.11
  L 42.37 109.54
  L 43.57 107.70
  Q 44.03 107.00 43.19 106.98
  L 42.30 106.96
  A 1.21 1.21 0.0 0 0 41.19 107.66
  L 39.88 110.55
  A 0.38 0.38 0.0 0 1 39.20 110.56
  L 37.88 107.84
  A 1.65 1.65 0.0 0 0 36.46 106.91
  L 35.78 106.87
  Q 34.88 106.83 35.38 107.59
  L 38.28 112.01
  Q 38.57 112.45 38.28 112.89
  L 35.97 116.47
  Q 31.99 115.04 27.87 115.20
  Q 27.42 115.22 27.01 115.05
  Q 26.00 114.62 24.93 115.02
  Q 24.33 115.24 23.92 114.75
  Q 23.46 114.22 22.94 114.63
  Q 22.56 114.93 22.59 115.42
  Q 22.73 117.47 22.44 119.47
  C 21.90 123.39 25.24 123.70 28.00 124.19
  Q 37.12 125.81 46.33 124.84
  Q 47.47 124.72 48.60 124.79
  C 50.74 124.92 52.15 124.30 54.42 125.11
  Q 57.53 126.23 60.25 128.00
  L 55.65 128.00
  Q 55.51 127.71 54.75 127.71
  Q 52.60 126.23 50.50 126.23
  C 41.95 126.21 33.68 126.65 24.90 125.33
  Q 24.39 125.25 24.04 124.87
  L 18.47 118.67
  L 19.15 118.21
  Q 19.53 117.95 19.92 118.18
  Q 20.49 118.50 20.59 118.02
  Q 21.05 118.78 21.17 118.75
  A 1.40 1.29 82.1 0 0 22.12 117.38
  Q 22.00 112.74 21.91 108.28
  C 21.85 105.57 23.04 103.01 24.74 100.87
  C 27.02 97.98 28.84 95.80 32.81 95.57
  C 38.09 95.27 43.36 95.59 48.45 94.91
  Q 52.99 94.30 57.37 93.59
  Q 60.03 93.15 62.73 92.26
  Q 65.33 91.40 68.53 91.63
  Q 68.93 91.66 69.10 92.02
  Q 69.21 92.29 69.49 92.37
  Q 72.20 93.16 75.19 93.93
  C 76.20 94.19 77.25 93.90 78.11 94.39
  A 1.64 1.52 57.9 0 0 78.89 94.60
  Q 85.53 94.67 96.58 95.72
  C 101.15 96.15 103.47 99.46 105.41 103.50
  Z"
/>
<path fill="#c22424" d="
  M 16.21 102.07
  Q 16.92 102.07 17.62 102.46
  Q 17.59 103.03 17.76 103.52
  Q 17.95 104.12 17.36 103.87
  Q 17.20 103.80 17.11 103.96
  Q 16.93 104.25 16.95 104.59
  Q 17.34 109.15 16.96 113.99
  Q 16.71 117.31 18.47 118.67
  L 24.04 124.87
  Q 24.39 125.25 24.90 125.33
  C 33.68 126.65 41.95 126.21 50.50 126.23
  Q 52.60 126.23 54.75 127.71
  L 49.96 128.00
  Q 49.87 127.98 49.78 128.00
  Q 47.26 127.52 44.86 128.00
  L 20.78 128.00
  Q 17.35 125.14 16.56 120.65
  L 16.21 102.07
  Z"
/>
<path fill="#f76a14" d="
  M 17.62 102.46
  Q 18.89 102.84 19.70 103.94
  Q 20.30 104.75 20.38 106.22
  Q 20.72 112.13 20.59 118.02
  Q 20.49 118.50 19.92 118.18
  Q 19.53 117.95 19.15 118.21
  L 18.47 118.67
  Q 16.71 117.31 16.96 113.99
  Q 17.34 109.15 16.95 104.59
  Q 16.93 104.25 17.11 103.96
  Q 17.20 103.80 17.36 103.87
  Q 17.95 104.12 17.76 103.52
  Q 17.59 103.03 17.62 102.46
  Z"
/>
<path fill="#c22424" d="
  M 111.03 101.93
  Q 110.80 107.20 111.31 111.70
  Q 111.69 114.99 111.31 117.33
  Q 110.51 122.27 110.93 127.05
  Q 110.98 127.61 110.41 127.58
  Q 109.43 127.54 108.86 128.00
  L 82.27 128.00
  L 77.52 127.70
  Q 79.40 126.70 81.50 126.59
  Q 90.90 126.10 99.49 126.01
  Q 102.35 125.98 104.88 123.79
  Q 108.96 120.24 108.02 116.44
  Q 107.63 114.83 107.54 113.13
  Q 107.34 109.06 107.24 104.68
  Q 108.91 104.12 111.03 101.93
  Z"
/>
<path fill="#f8962b" d="
  M 105.19 104.61
  Q 105.87 106.36 106.06 108.50
  Q 106.40 112.51 106.76 116.46
  Q 106.91 118.09 106.51 119.45
  Q 106.08 120.88 104.91 122.18
  Q 103.67 123.56 101.09 124.12
  Q 97.95 124.79 96.75 124.82
  Q 88.92 125.07 81.50 125.29
  Q 76.39 125.44 72.17 128.00
  L 60.25 128.00
  Q 57.53 126.23 54.42 125.11
  C 52.15 124.30 50.74 124.92 48.60 124.79
  Q 47.47 124.72 46.33 124.84
  Q 37.12 125.81 28.00 124.19
  C 25.24 123.70 21.90 123.39 22.44 119.47
  Q 22.73 117.47 22.59 115.42
  Q 22.56 114.93 22.94 114.63
  Q 23.46 114.22 23.92 114.75
  Q 24.33 115.24 24.93 115.02
  Q 26.00 114.62 27.01 115.05
  Q 27.42 115.22 27.87 115.20
  Q 31.99 115.04 35.97 116.47
  L 35.41 117.38
  Q 35.03 118.02 35.77 118.05
  C 38.29 118.14 38.19 115.97 39.21 114.32
  A 0.31 0.30 -42.4 0 1 39.74 114.34
  L 41.22 117.32
  Q 41.56 117.99 42.32 117.99
  L 43.27 117.98
  Q 44.00 117.98 43.60 117.36
  L 40.71 112.95
  Q 40.40 112.47 40.72 111.99
  L 42.37 109.54
  L 46.95 114.11
  Q 47.09 114.25 47.26 114.16
  Q 47.39 114.08 47.52 114.11
  Q 47.65 114.15 47.68 114.28
  Q 47.73 114.51 47.77 114.80
  Q 46.75 115.88 47.00 117.41
  Q 47.09 117.93 47.62 117.92
  L 56.11 117.80
  Q 56.78 118.41 57.83 118.57
  C 58.69 118.69 59.09 118.27 59.92 118.37
  Q 60.47 118.43 60.90 118.10
  Q 62.38 116.97 64.09 117.79
  L 68.58 117.93
  Q 69.12 117.95 69.41 117.49
  L 71.07 114.82
  Q 71.48 114.15 71.90 114.81
  L 73.57 117.40
  Q 73.96 118.00 74.67 118.00
  L 78.39 117.99
  Q 79.01 117.99 78.66 117.49
  L 74.46 111.49
  Q 74.13 111.03 74.45 110.56
  L 75.99 108.27
  Q 77.66 110.15 80.99 110.09
  L 81.01 117.47
  A 0.52 0.52 0.0 0 0 81.53 117.99
  L 84.25 118.00
  A 0.75 0.75 0.0 0 0 85.00 117.25
  L 85.01 113.94
  Q 85.02 113.15 85.81 113.10
  Q 91.54 112.73 92.04 108.28
  Q 92.69 108.48 93.30 108.32
  Q 93.52 108.26 93.52 108.04
  Q 93.51 107.99 93.46 107.96
  Q 93.27 107.87 93.48 107.83
  Q 95.37 107.47 97.30 108.11
  Q 97.79 108.27 98.27 108.10
  L 103.40 106.26
  Q 103.87 106.09 103.87 105.60
  L 103.87 103.72
  A 0.36 0.35 18.6 0 1 104.44 103.44
  Q 104.81 103.72 105.19 104.61
  Z"
/>
<path fill="#fa9d1b" d="
  M 105.41 103.50
  L 105.88 106.08
  Q 105.94 106.36 106.22 106.33
  L 106.52 106.31
  Q 106.82 106.28 106.81 105.98
  Q 106.78 105.19 107.24 104.68
  Q 107.34 109.06 107.54 113.13
  Q 107.63 114.83 108.02 116.44
  Q 108.96 120.24 104.88 123.79
  Q 102.35 125.98 99.49 126.01
  Q 90.90 126.10 81.50 126.59
  Q 79.40 126.70 77.52 127.70
  Q 76.64 127.66 76.12 128.00
  L 72.17 128.00
  Q 76.39 125.44 81.50 125.29
  Q 88.92 125.07 96.75 124.82
  Q 97.95 124.79 101.09 124.12
  Q 103.67 123.56 104.91 122.18
  Q 106.08 120.88 106.51 119.45
  Q 106.91 118.09 106.76 116.46
  Q 106.40 112.51 106.06 108.50
  Q 105.87 106.36 105.19 104.61
  Q 105.43 104.17 105.41 103.50
  Z"
/>
<path fill="#ffffff" d="
  M 56.11 117.80
  L 47.62 117.92
  Q 47.09 117.93 47.00 117.41
  Q 46.75 115.88 47.77 114.80
  C 49.72 113.39 52.55 110.91 52.93 108.42
  A 2.08 2.08 0.0 0 0 50.77 106.02
  Q 49.07 106.11 47.60 106.68
  Q 46.96 106.93 46.93 106.24
  L 46.91 105.77
  Q 46.87 104.94 47.65 104.64
  C 49.52 103.92 52.64 103.65 54.05 105.27
  C 56.99 108.64 52.34 113.02 49.68 115.04
  Q 48.44 115.98 50.00 115.98
  L 55.30 116.01
  Q 55.82 116.01 56.00 116.49
  Q 56.19 116.98 56.11 117.80
  Z"
/>
<path fill="#ffffff" d="
  M 75.99 108.27
  L 74.45 110.56
  Q 74.13 111.03 74.46 111.49
  L 78.66 117.49
  Q 79.01 117.99 78.39 117.99
  L 74.67 118.00
  Q 73.96 118.00 73.57 117.40
  L 71.90 114.81
  Q 71.48 114.15 71.07 114.82
  L 69.41 117.49
  Q 69.12 117.95 68.58 117.93
  L 64.09 117.79
  L 68.55 111.37
  Q 68.88 110.90 68.55 110.44
  L 64.52 104.80
  Q 63.96 104.00 64.93 104.00
  L 68.11 103.99
  Q 69.10 103.99 69.62 104.82
  L 71.10 107.14
  A 0.46 0.46 0.0 0 0 71.88 107.14
  L 73.48 104.61
  Q 73.87 104.00 74.60 104.00
  L 78.22 104.01
  Q 79.05 104.01 78.57 104.68
  L 75.99 108.27
  Z"
/>
<path fill="#ffffff" d="
  M 92.04 108.28
  Q 91.54 112.73 85.81 113.10
  Q 85.02 113.15 85.01 113.94
  L 85.00 117.25
  A 0.75 0.75 0.0 0 1 84.25 118.00
  L 81.53 117.99
  A 0.52 0.52 0.0 0 1 81.01 117.47
  L 80.99 110.09
  L 81.16 104.56
  Q 81.18 104.04 81.70 104.01
  C 85.38 103.85 91.74 103.02 92.04 108.28
  Z
  M 85.03 107.57
  L 85.01 109.43
  A 0.54 0.54 0.0 0 0 85.54 109.98
  L 86.09 109.99
  A 1.87 1.26 0.7 0 0 87.98 108.75
  L 87.98 108.33
  A 1.87 1.26 0.7 0 0 86.13 107.05
  L 85.58 107.04
  A 0.54 0.54 0.0 0 0 85.03 107.57
  Z"
/>
<path fill="#ffffff" d="
  M 42.37 109.54
  L 40.72 111.99
  Q 40.40 112.47 40.71 112.95
  L 43.60 117.36
  Q 44.00 117.98 43.27 117.98
  L 42.32 117.99
  Q 41.56 117.99 41.22 117.32
  L 39.74 114.34
  A 0.31 0.30 -42.4 0 0 39.21 114.32
  C 38.19 115.97 38.29 118.14 35.77 118.05
  Q 35.03 118.02 35.41 117.38
  L 35.97 116.47
  L 38.28 112.89
  Q 38.57 112.45 38.28 112.01
  L 35.38 107.59
  Q 34.88 106.83 35.78 106.87
  L 36.46 106.91
  A 1.65 1.65 0.0 0 1 37.88 107.84
  L 39.20 110.56
  A 0.38 0.38 0.0 0 0 39.88 110.55
  L 41.19 107.66
  A 1.21 1.21 0.0 0 1 42.30 106.96
  L 43.19 106.98
  Q 44.03 107.00 43.57 107.70
  L 42.37 109.54
  Z"
/>
<path fill="#f7b735" d="
  M 85.03 107.57
  A 0.54 0.54 0.0 0 1 85.58 107.04
  L 86.13 107.05
  A 1.87 1.26 0.7 0 1 87.98 108.33
  L 87.98 108.75
  A 1.87 1.26 0.7 0 1 86.09 109.99
  L 85.54 109.98
  A 0.54 0.54 0.0 0 1 85.01 109.43
  L 85.03 107.57
  Z"
/>
<path fill="#6a1625" d="
  M 16.56 120.65
  Q 17.35 125.14 20.78 128.00
  L 16.12 128.00
  Q 15.71 124.13 16.56 120.65
  Z"
/>
<path fill="#4e247d" d="
  M 49.78 128.00
  L 44.86 128.00
  Q 47.26 127.52 49.78 128.00
  Z"
/>
<path fill="#4e247d" d="
  M 54.75 127.71
  Q 55.51 127.71 55.65 128.00
  L 49.96 128.00
  L 54.75 127.71
  Z"
/>
<path fill="#4e247d" d="
  M 77.52 127.70
  L 82.27 128.00
  L 76.12 128.00
  Q 76.64 127.66 77.52 127.70
  Z"
/>
</svg>
