<?xml version="1.0" encoding="UTF-8" standalone="no"?>
<!DOCTYPE svg PUBLIC "-//W3C//DTD SVG 1.1//EN" "http://www.w3.org/Graphics/SVG/1.1/DTD/svg11.dtd">
<svg xmlns="http://www.w3.org/2000/svg" version="1.1" viewBox="0.00 0.00 128.00 128.00">
<g stroke-width="2.00" fill="none" stroke-linecap="butt">
<path stroke="#3c1c5f" vector-effect="non-scaling-stroke" d="
  M 1.45 0.00
  Q 0.40 1.21 0.46 2.76
  Q 1.10 19.72 0.74 36.71
  A 0.68 0.68 0.0 0 0 1.24 37.38
  Q 1.80 37.53 2.54 36.77"
/>
<path stroke="#5a2989" vector-effect="non-scaling-stroke" d="
  M 2.54 36.77
  Q 2.73 37.04 2.44 37.30
  Q 2.26 37.47 2.08 37.63
  Q 1.67 38.02 1.07 37.75
  A 0.61 0.61 0.0 0 0 0.21 38.29
  Q -0.03 47.65 0.75 56.32
  Q 0.90 58.00 2.10 56.82
  Q 3.10 55.83 4.52 55.29
  Q 6.91 54.38 6.99 51.82
  Q 7.09 48.55 7.36 44.89
  Q 7.61 41.54 7.30 38.04
  Q 6.57 29.60 6.91 20.36
  C 6.94 19.41 6.37 18.55 6.37 17.60
  Q 6.39 9.52 6.26 1.42
  Q 6.25 0.96 5.85 0.71
  Q 4.20 -0.28 2.59 1.01"
/>
<path stroke="#3c1c5f" vector-effect="non-scaling-stroke" d="
  M 2.59 1.01
  Q 2.49 0.58 1.97 0.00"
/>
<path stroke="#5c3bac" vector-effect="non-scaling-stroke" d="
  M 14.14 0.00
  L 11.61 0.43
  Q 11.14 0.50 11.08 0.98
  Q 10.12 8.42 10.85 14.37
  Q 11.71 21.36 10.62 27.76
  Q 10.37 29.20 11.32 31.22"
/>
<path stroke="#772a94" vector-effect="non-scaling-stroke" d="
  M 11.32 31.22
  Q 10.96 32.77 10.71 34.28
  Q 8.43 48.05 10.30 61.77"
/>
<path stroke="#5a2989" vector-effect="non-scaling-stroke" d="
  M 10.30 61.77
  Q 11.25 67.27 13.09 72.51
  Q 13.49 73.66 14.43 74.83
  Q 14.80 75.28 14.28 75.56
  Q 13.29 76.09 12.13 76.13
  Q 12.12 76.13 12.12 76.12
  Q 12.12 76.12 12.12 76.13
  Q 12.31 76.16 12.47 76.26"
/>
<path stroke="#a46ebc" vector-effect="non-scaling-stroke" d="
  M 12.47 76.26
  Q 12.21 76.51 11.75 76.64"
/>
<path stroke="#5a2989" vector-effect="non-scaling-stroke" d="
  M 11.75 76.64
  L 2.05 79.06"
/>
<path stroke="#3c1c5f" vector-effect="non-scaling-stroke" d="
  M 2.05 79.06
  Q 2.54 70.67 2.01 63.19
  Q 1.76 59.67 0.33 62.90
  Q 0.16 63.29 0.25 65.25
  Q 0.32 66.92 0.00 68.50"
/>
<path stroke="#48216a" vector-effect="non-scaling-stroke" d="
  M 2.59 1.01
  Q 3.89 15.15 3.63 29.25
  Q 3.58 31.82 2.54 36.77"
/>
<path stroke="#b285eb" vector-effect="non-scaling-stroke" d="
  M 34.94 0.00
  Q 28.48 3.80 23.70 9.23"
/>
<path stroke="#b361e7" vector-effect="non-scaling-stroke" d="
  M 23.70 9.23
  L 19.84 13.98"
/>
<path stroke="#ac53e1" vector-effect="non-scaling-stroke" d="
  M 19.84 13.98
  Q 15.07 22.64 13.87 26.11
  Q 12.65 29.62 12.03 30.72"
/>
<path stroke="#8541c3" vector-effect="non-scaling-stroke" d="
  M 12.03 30.72
  Q 11.40 30.60 11.32 31.22"
/>
<path stroke="#fa94f7" vector-effect="non-scaling-stroke" d="
  M 38.92 0.00
  Q 38.45 0.89 37.10 1.49
  Q 35.65 2.14 35.06 2.54
  Q 31.55 4.97 27.83 7.58
  Q 26.11 8.77 24.63 10.65
  Q 24.57 10.73 24.48 10.68
  Q 24.34 10.61 24.22 10.65
  Q 23.59 10.86 23.68 10.15
  Q 23.74 9.68 23.70 9.23"
/>
<path stroke="#a54ab8" vector-effect="non-scaling-stroke" d="
  M 55.82 0.00
  L 61.12 0.71"
/>
<path stroke="#cb4b8f" vector-effect="non-scaling-stroke" d="
  M 61.12 0.71
  Q 58.49 0.99 55.95 1.29
  Q 53.47 1.59 50.97 2.48
  Q 47.10 3.85 44.02 5.32
  Q 39.55 7.45 32.65 13.40
  Q 26.62 18.60 23.16 27.13"
/>
<path stroke="#f462ed" vector-effect="non-scaling-stroke" d="
  M 23.16 27.13
  Q 21.83 25.40 22.88 23.36
  Q 23.88 21.42 24.15 19.80
  A 1.78 1.75 38.4 0 0 24.03 18.83
  Q 23.47 17.57 23.18 16.18
  A 1.75 1.60 76.1 0 0 21.13 14.81
  Q 20.63 14.96 19.84 13.98"
/>
<path stroke="#9e3cb2" vector-effect="non-scaling-stroke" d="
  M 75.51 0.00
  L 70.58 0.55"
/>
<path stroke="#742554" vector-effect="non-scaling-stroke" d="
  M 70.58 0.55
  L 61.12 0.71"
/>
<path stroke="#f462ed" vector-effect="non-scaling-stroke" d="
  M 92.45 0.00
  Q 94.82 2.33 97.52 4.13
  Q 98.82 5.00 100.67 6.72
  Q 102.44 8.36 104.26 8.84
  Q 106.44 9.43 106.04 7.77"
/>
<path stroke="#c34fdd" vector-effect="non-scaling-stroke" d="
  M 106.04 7.77
  Q 111.41 13.19 115.05 19.74"
/>
<path stroke="#d347d1" vector-effect="non-scaling-stroke" d="
  M 115.05 19.74
  L 115.03 20.35
  Q 115.02 20.81 114.68 21.12
  Q 113.99 21.77 113.52 22.71
  Q 113.27 23.22 113.43 23.76
  Q 114.20 26.35 113.69 28.97
  Q 113.28 31.02 113.51 32.94
  Q 113.87 36.02 114.35 39.08
  Q 114.41 39.48 114.16 39.81
  Q 113.76 40.35 112.77 40.13"
/>
<path stroke="#ac3586" vector-effect="non-scaling-stroke" d="
  M 112.77 40.13
  Q 111.05 28.51 103.95 19.31"
/>
<path stroke="#c43d88" vector-effect="non-scaling-stroke" d="
  M 103.95 19.31
  Q 104.03 19.03 103.27 17.92"
/>
<path stroke="#f462ed" vector-effect="non-scaling-stroke" d="
  M 103.27 17.92
  Q 104.64 17.96 103.71 15.85
  C 102.80 13.76 100.44 11.67 99.07 9.79
  Q 97.99 8.31 96.07 7.29
  Q 94.24 6.32 92.57 5.29
  A 1.73 1.61 29.8 0 0 90.18 5.85
  Q 90.17 5.87 90.43 6.71"
/>
<path stroke="#c43d88" vector-effect="non-scaling-stroke" d="
  M 90.43 6.71
  Q 81.73 1.75 75.50 1.21
  Q 71.61 0.86 70.58 0.55"
/>
<path stroke="#ca5de4" vector-effect="non-scaling-stroke" d="
  M 97.09 0.00
  L 106.04 7.77"
/>
<path stroke="#7437a9" vector-effect="non-scaling-stroke" d="
  M 112.84 0.00
  Q 116.14 0.74 119.42 0.00"
/>
<path stroke="#803cb4" vector-effect="non-scaling-stroke" d="
  M 121.24 0.00
  L 121.15 0.51
  Q 121.06 0.95 120.68 1.21
  Q 119.52 2.00 119.48 3.33
  Q 119.42 5.79 118.69 8.57
  Q 118.42 9.58 119.20 10.17
  Q 119.49 10.39 119.53 10.75
  Q 119.75 12.53 119.42 13.87
  Q 119.29 14.40 118.79 14.62
  Q 117.63 15.16 116.39 15.62
  Q 114.80 16.20 114.55 17.05
  Q 114.23 18.16 115.05 19.74"
/>
<path stroke="#5a2989" vector-effect="non-scaling-stroke" d="
  M 121.86 0.00
  L 128.00 0.31"
/>
<path stroke="#48216a" vector-effect="non-scaling-stroke" d="
  M 128.00 64.26
  C 127.67 61.03 128.80 56.99 126.27 55.38
  Q 123.76 53.78 124.92 50.42
  Q 125.61 48.40 125.64 46.33
  Q 125.65 45.66 126.15 46.10
  Q 126.30 46.23 126.33 46.41
  A 0.54 0.54 0.0 0 0 126.96 46.86
  Q 127.48 46.76 127.51 46.25
  Q 127.87 37.75 127.69 29.17
  Q 127.69 28.99 127.59 28.85
  Q 127.50 28.72 127.36 28.68
  A 0.43 0.43 0.0 0 0 126.81 29.04
  Q 126.01 35.67 126.32 42.80
  Q 126.37 44.00 125.33 44.52
  Q 124.21 45.08 124.13 43.83
  Q 124.07 42.90 123.42 42.34
  Q 122.70 41.73 122.66 42.67
  L 122.40 48.77"
/>
<path stroke="#8f33a8" vector-effect="non-scaling-stroke" d="
  M 122.40 48.77
  C 122.23 39.17 120.04 28.17 115.05 19.74"
/>
<path stroke="#cb4b8f" vector-effect="non-scaling-stroke" d="
  M 90.43 6.71
  Q 97.93 11.05 103.27 17.92"
/>
<path stroke="#831e28" vector-effect="non-scaling-stroke" d="
  M 103.95 19.31
  Q 104.23 23.06 106.31 26.73
  Q 107.23 28.36 107.17 29.70
  C 107.09 31.62 106.48 33.32 107.40 35.17
  A 2.30 2.30 0.0 0 1 107.64 36.42
  C 107.49 37.96 108.46 39.24 108.08 40.64
  Q 107.86 41.41 107.50 40.69
  Q 107.26 40.21 106.86 39.82
  A 0.87 0.87 0.0 0 0 105.39 40.35
  Q 104.86 45.69 103.60 51.65
  Q 102.38 57.46 99.40 62.59
  Q 93.13 73.40 79.79 79.45
  Q 77.18 80.64 75.26 80.85
  Q 74.46 80.93 73.70 81.11
  Q 71.73 81.58 69.72 81.82
  Q 66.86 82.17 65.36 83.65
  A 1.12 1.11 -75.5 0 1 64.89 83.93
  Q 64.12 84.16 63.66 83.69
  Q 63.28 83.31 63.34 82.78
  Q 63.46 81.65 62.62 80.90
  Q 62.53 80.82 62.42 80.82
  Q 62.24 80.82 62.08 80.92
  Q 61.86 81.07 61.58 81.05
  Q 56.52 80.71 51.91 79.38
  C 50.68 79.02 50.09 78.15 48.89 77.83
  Q 47.78 77.53 46.78 76.97
  Q 33.83 69.73 28.14 56.32
  Q 26.54 52.57 25.49 48.57
  Q 25.28 47.79 24.58 47.27
  Q 23.94 46.81 23.29 46.57
  A 0.87 0.87 0.0 0 0 22.14 47.19
  Q 21.82 48.57 21.95 49.95"
/>
<path stroke="#8d253b" vector-effect="non-scaling-stroke" d="
  M 21.95 49.95
  Q 21.73 41.28 23.45 32.76
  Q 23.69 31.58 22.96 31.22
  Q 22.53 31.00 22.45 30.54
  Q 22.27 29.48 22.73 28.01"
/>
<path stroke="#c43d88" vector-effect="non-scaling-stroke" d="
  M 22.73 28.01
  L 23.16 27.13"
/>
<path stroke="#ca6224" vector-effect="non-scaling-stroke" d="
  M 37.49 14.07
  L 32.70 20.17"
/>
<path stroke="#c54222" vector-effect="non-scaling-stroke" d="
  M 32.70 20.17
  Q 30.71 22.78 30.27 23.76
  Q 28.74 27.13 27.41 30.96
  Q 26.48 33.63 26.64 35.91
  Q 26.81 38.51 26.96 41.15
  Q 27.33 47.67 31.44 53.28
  Q 35.25 58.47 43.30 58.68
  Q 53.63 58.95 63.14 58.83
  A 0.86 0.86 0.0 0 1 64.01 59.68
  L 64.14 71.00"
/>
<path stroke="#c95019" vector-effect="non-scaling-stroke" d="
  M 64.14 71.00
  L 63.95 82.36
  Q 63.91 84.44 65.20 82.81
  Q 70.70 75.80 77.43 68.46
  Q 83.27 62.11 91.32 50.78"
/>
<path stroke="#bb3726" vector-effect="non-scaling-stroke" d="
  M 91.32 50.78
  Q 92.64 50.22 93.19 49.06
  Q 93.42 48.57 93.92 48.37
  Q 94.72 48.05 95.54 48.12
  Q 96.01 48.17 96.44 47.95
  Q 99.01 46.60 102.04 46.05
  A 1.29 1.29 0.0 0 0 103.06 45.13
  Q 103.26 44.45 103.84 44.20
  A 0.70 0.70 0.0 0 0 104.27 43.62
  Q 105.52 29.70 97.24 18.24"
/>
<path stroke="#ca6224" vector-effect="non-scaling-stroke" d="
  M 97.24 18.24
  Q 94.47 13.79 91.64 11.92"
/>
<path stroke="#cb906c" vector-effect="non-scaling-stroke" d="
  M 91.64 11.92
  Q 85.91 5.93 78.21 3.63
  C 63.34 -0.81 47.76 2.18 37.49 14.07"
/>
<path stroke="#fbcd65" vector-effect="non-scaling-stroke" d="
  M 91.64 11.92
  Q 87.03 11.35 82.84 9.86
  Q 80.93 9.18 79.18 9.06
  Q 77.12 8.92 75.08 8.42
  Q 71.37 7.50 67.17 7.56
  Q 64.68 7.59 62.38 8.08
  Q 59.99 8.60 57.66 9.16
  Q 55.78 9.62 54.29 10.24
  Q 52.75 10.89 51.15 11.18
  C 48.95 11.58 46.88 12.61 44.95 13.68
  Q 43.77 14.33 42.02 14.61
  Q 40.51 14.85 38.98 15.69
  A 0.88 0.87 79.0 0 1 37.69 14.82
  Q 37.71 14.68 37.49 14.07"
/>
<path stroke="#eb7420" vector-effect="non-scaling-stroke" d="
  M 97.24 18.24
  Q 97.01 19.72 95.89 21.06
  Q 95.57 21.46 95.61 21.97
  Q 95.72 23.56 95.04 24.78
  C 94.14 26.39 90.95 25.97 89.27 25.72
  Q 88.53 25.61 86.68 24.60
  Q 84.55 23.43 82.79 25.50"
/>
<path stroke="#faaf17" vector-effect="non-scaling-stroke" d="
  M 82.79 25.50
  L 86.45 19.91
  Q 86.74 19.47 86.49 19.01
  Q 85.91 17.91 84.23 17.59"
/>
<path stroke="#fbce51" vector-effect="non-scaling-stroke" d="
  M 84.23 17.59
  Q 78.94 15.27 73.37 15.18"
/>
<path stroke="#f9aa28" vector-effect="non-scaling-stroke" d="
  M 73.37 15.18
  Q 65.05 13.33 57.90 15.02"
/>
<path stroke="#f57f1c" vector-effect="non-scaling-stroke" d="
  M 57.90 15.02
  L 58.26 13.59
  Q 58.39 13.09 57.94 12.85
  Q 57.30 12.52 56.92 11.94
  Q 56.59 11.43 55.99 11.56
  L 52.74 12.32
  A 0.65 0.50 34.3 0 1 52.55 12.33
  Q 50.84 12.15 49.59 13.28
  Q 49.23 13.61 48.75 13.74
  Q 46.90 14.26 46.27 14.65
  Q 42.16 17.23 38.67 20.58
  Q 37.19 22.01 34.97 23.56
  A 1.55 1.55 0.0 0 1 32.54 22.17
  L 32.70 20.17"
/>
<path stroke="#ea841a" vector-effect="non-scaling-stroke" d="
  M 82.79 25.50
  L 76.03 35.90"
/>
<path stroke="#f89d0c" vector-effect="non-scaling-stroke" d="
  M 76.03 35.90
  Q 72.98 38.43 73.07 40.90
  A 2.70 2.69 4.6 0 0 75.23 43.44
  L 82.82 45.00
  Q 84.04 45.25 83.33 46.28
  L 81.07 49.56"
/>
<path stroke="#fbdf72" vector-effect="non-scaling-stroke" d="
  M 73.42 31.94
  L 79.74 22.37"
/>
<path stroke="#fade4b" vector-effect="non-scaling-stroke" d="
  M 84.23 17.59
  Q 81.43 19.59 79.74 22.37"
/>
<path stroke="#fcfdac" vector-effect="non-scaling-stroke" d="
  M 79.74 22.37
  L 79.56 20.48
  A 1.63 1.63 0.0 0 0 77.11 19.24
  Q 75.23 20.36 74.05 21.93
  Q 72.83 23.57 72.44 23.88
  Q 71.35 24.74 70.10 25.02
  A 1.30 1.29 -11.2 0 0 69.10 26.50
  Q 69.98 31.73 73.42 31.94"
/>
<path stroke="#fade4b" vector-effect="non-scaling-stroke" d="
  M 73.42 31.94
  Q 69.09 38.87 65.94 47.13
  A 0.81 0.80 -76.7 0 0 66.61 48.22
  L 81.07 49.56"
/>
<path stroke="#f9bc46" vector-effect="non-scaling-stroke" d="
  M 81.07 49.56
  L 65.12 77.16
  Q 64.81 77.69 64.78 77.08
  L 64.28 68.53"
/>
<path stroke="#fad95c" vector-effect="non-scaling-stroke" d="
  M 73.37 15.18
  L 62.52 15.23
  Q 61.92 15.24 61.78 15.82
  C 61.33 17.74 59.49 19.21 58.49 20.84
  Q 51.77 31.69 45.87 43.13"
/>
<path stroke="#e96215" vector-effect="non-scaling-stroke" d="
  M 91.32 50.78
  L 93.37 46.88
  A 2.04 2.04 0.0 0 0 92.87 44.36
  C 88.80 40.98 82.26 39.04 77.11 37.91
  Q 76.01 37.67 76.03 35.90"
/>
<path stroke="#f48a27" vector-effect="non-scaling-stroke" d="
  M 57.90 15.02
  Q 48.33 25.04 45.64 37.64
  Q 45.34 39.04 45.47 40.38
  Q 45.61 41.71 45.87 43.13"
/>
<path stroke="#f5ad50" vector-effect="non-scaling-stroke" d="
  M 45.87 43.13
  L 42.64 49.27
  A 0.38 0.38 0.0 0 0 42.97 49.82
  L 63.67 50.19
  A 0.50 0.50 0.0 0 1 64.16 50.69
  L 64.28 68.53"
/>
<path stroke="#f36d11" vector-effect="non-scaling-stroke" d="
  M 64.28 68.53
  L 64.14 71.00"
/>
<path stroke="#f48a27" vector-effect="non-scaling-stroke" d="
  M 41.1444 33.6612
  A 2.06 1.11 74.1 0 0 41.6475 31.3759
  A 2.06 1.11 74.1 0 0 40.0156 29.6988
  A 2.06 1.11 74.1 0 0 39.5125 31.9841
  A 2.06 1.11 74.1 0 0 41.1444 33.6612"
/>
<path stroke="#b73d99" vector-effect="non-scaling-stroke" d="
  M 22.73 28.01
  Q 18.78 35.26 18.41 44.24"
/>
<path stroke="#c642c9" vector-effect="non-scaling-stroke" d="
  M 18.41 44.24
  Q 16.48 43.55 14.78 41.59
  Q 14.51 41.29 14.12 41.22
  L 10.89 40.71
  Q 10.48 40.65 10.45 40.22
  Q 10.20 35.35 10.83 34.25
  Q 11.80 32.59 12.03 30.72"
/>
<path stroke="#922871" vector-effect="non-scaling-stroke" d="
  M 112.77 40.13
  Q 113.92 50.12 111.32 60.27
  Q 110.48 63.54 108.93 66.54"
/>
<path stroke="#791f63" vector-effect="non-scaling-stroke" d="
  M 108.93 66.54
  Q 105.58 72.87 103.12 75.50
  Q 97.84 81.16 96.14 82.51
  Q 91.33 86.34 86.13 88.15
  Q 85.38 88.41 85.13 90.32"
/>
<path stroke="#b48969" vector-effect="non-scaling-stroke" d="
  M 85.13 90.32
  Q 83.18 90.01 81.38 89.85
  Q 79.46 89.69 77.67 89.35
  Q 72.51 88.36 67.30 87.20
  Q 64.73 86.63 63.00 87.19
  Q 55.34 89.70 48.37 89.88"
/>
<path stroke="#852368" vector-effect="non-scaling-stroke" d="
  M 48.37 89.88
  L 38.23 83.89"
/>
<path stroke="#761e39" vector-effect="non-scaling-stroke" d="
  M 38.23 83.89
  Q 35.78 81.06 29.50 76.12
  Q 28.22 75.11 29.16 73.40
  Q 29.44 72.89 29.28 72.33
  Q 28.89 70.97 28.57 69.58
  Q 28.28 68.34 27.43 67.05
  Q 25.80 64.60 24.90 61.85
  Q 23.00 56.03 21.95 49.95"
/>
<path stroke="#71277e" vector-effect="non-scaling-stroke" d="
  M 122.40 48.77
  L 122.22 51.94"
/>
<path stroke="#a030ae" vector-effect="non-scaling-stroke" d="
  M 122.22 51.94
  L 121.43 53.63
  Q 121.22 54.07 120.73 54.16
  Q 120.35 54.23 119.97 54.04
  Q 119.78 53.94 119.82 53.74
  Q 119.90 53.42 119.65 53.17
  Q 119.50 53.02 119.56 53.22
  Q 119.61 53.38 119.53 53.50
  Q 119.31 53.84 119.16 53.46
  Q 118.64 52.14 117.40 51.40
  A 0.72 0.71 -67.4 0 0 116.34 51.84
  Q 114.85 57.76 112.20 63.72
  Q 112.10 63.95 111.83 63.98
  A 0.42 0.42 0.0 0 0 111.47 64.33
  Q 111.03 66.82 109.42 68.89
  A 0.53 0.52 26.0 0 1 108.87 69.07
  L 108.48 68.95
  Q 108.09 68.84 108.29 68.50
  Q 108.85 67.50 108.93 66.54"
/>
<path stroke="#902a7c" vector-effect="non-scaling-stroke" d="
  M 38.23 83.89
  Q 30.51 78.63 28.97 76.78
  Q 21.39 67.68 19.34 56.00
  Q 18.26 49.85 18.41 44.24"
/>
<path stroke="#3c1c5f" vector-effect="non-scaling-stroke" d="
  M 128.00 70.75
  L 127.70 76.21
  Q 127.68 76.56 127.34 76.48
  L 127.07 76.41
  Q 126.57 76.29 126.57 75.77
  Q 126.64 70.29 126.09 65.65
  C 125.77 63.01 126.21 60.46 126.11 57.85
  Q 126.08 57.22 125.46 57.13
  Q 124.83 57.04 124.83 57.68
  C 124.83 58.88 124.14 59.61 124.08 60.77
  Q 123.87 64.49 123.72 68.25
  Q 123.63 70.29 123.17 72.27
  Q 122.73 74.18 122.82 76.13
  A 1.29 1.26 67.6 0 1 122.42 77.13
  Q 121.33 78.14 119.80 77.85
  Q 119.22 77.73 118.80 78.15
  Q 118.42 78.53 117.95 78.72
  Q 115.47 79.73 116.41 77.19
  Q 116.72 76.35 116.90 74.40"
/>
<path stroke="#591e70" vector-effect="non-scaling-stroke" d="
  M 116.90 74.40
  C 117.62 72.60 117.92 70.65 118.57 68.93
  Q 121.68 60.74 122.22 51.94"
/>
<path stroke="#ce95ac" vector-effect="non-scaling-stroke" d="
  M 48.37 89.88
  C 45.85 90.37 43.63 90.96 41.18 91.01
  Q 35.88 91.10 29.91 90.81"
/>
<path stroke="#832ea0" vector-effect="non-scaling-stroke" d="
  M 29.91 90.81
  L 33.75 90.77
  Q 34.64 90.77 33.93 90.23
  C 32.46 89.12 30.89 88.59 29.50 87.36
  Q 27.74 85.80 25.87 84.35
  Q 25.26 83.88 24.53 83.58
  Q 23.70 83.22 23.23 82.46
  Q 22.97 82.02 22.52 81.78
  Q 20.17 80.53 18.69 78.32
  Q 18.53 78.07 18.24 78.14
  Q 18.05 78.18 17.98 78.01
  Q 17.11 75.74 14.96 73.96
  Q 14.56 73.63 14.56 73.11
  Q 14.56 71.90 13.83 71.10
  A 0.95 0.95 0.0 0 1 13.61 70.22
  Q 13.83 69.41 13.23 68.98
  Q 12.90 68.74 12.75 68.36
  L 10.30 61.77"
/>
<path stroke="#6b268f" vector-effect="non-scaling-stroke" d="
  M 116.90 74.40
  Q 114.43 79.53 109.86 85.86
  Q 106.22 90.88 101.52 91.84"
/>
<path stroke="#c291a7" vector-effect="non-scaling-stroke" d="
  M 101.52 91.84
  L 100.50 91.32
  Q 100.07 91.09 99.59 91.07
  L 85.13 90.32"
/>
<path stroke="#892451" vector-effect="non-scaling-stroke" d="
  M 108.67 128.00
  Q 111.07 128.54 110.96 123.47
  Q 110.92 121.33 111.06 119.40
  C 111.23 116.98 111.91 114.97 111.56 112.42
  Q 111.34 110.82 111.19 109.24
  Q 110.88 106.22 111.07 101.98"
/>
<path stroke="#a59095" vector-effect="non-scaling-stroke" d="
  M 111.07 101.98
  Q 107.90 99.80 105.74 96.79
  C 104.39 94.88 102.90 93.51 101.52 91.84"
/>
<path stroke="#48216a" vector-effect="non-scaling-stroke" d="
  M 2.05 79.06
  Q 0.19 79.24 0.00 78.24"
/>
<path stroke="#b194a1" vector-effect="non-scaling-stroke" d="
  M 29.91 90.81
  Q 25.07 93.04 21.06 97.67
  C 19.71 99.22 18.05 100.39 16.27 101.39
  Q 15.49 101.83 16.35 102.08
  Q 16.39 102.09 16.73 102.14"
/>
<path stroke="#95285c" vector-effect="non-scaling-stroke" d="
  M 16.73 102.14
  Q 16.60 102.14 16.47 102.14
  Q 16.43 102.14 16.43 102.18
  L 16.51 120.84"
/>
<path stroke="#69225d" vector-effect="non-scaling-stroke" d="
  M 16.51 120.84
  L 16.12 128.00"
/>
<path stroke="#b072c8" vector-effect="non-scaling-stroke" d="
  M 11.75 76.64
  Q 10.01 77.27 9.85 78.73
  Q 9.76 79.59 10.39 80.08
  Q 11.05 80.60 11.97 80.38
  Q 12.45 80.26 12.70 79.83
  Q 13.31 78.76 14.35 78.78
  A 0.86 0.86 0.0 0 0 15.02 77.37
  Q 13.73 75.85 12.47 76.26"
/>
<path stroke="#e08f69" vector-effect="non-scaling-stroke" d="
  M 111.07 101.98
  L 107.20 105.05"
/>
<path stroke="#fbcd65" vector-effect="non-scaling-stroke" d="
  M 107.20 105.05
  L 106.77 109.37
  Q 106.73 109.80 106.37 109.57
  Q 106.11 109.41 106.03 108.52"
/>
<path stroke="#fac86c" vector-effect="non-scaling-stroke" d="
  M 106.03 108.52
  L 105.47 105.84"
/>
<path stroke="#fad870" vector-effect="non-scaling-stroke" d="
  M 105.47 105.84
  Q 105.78 103.83 104.59 101.93
  C 102.19 98.12 100.56 95.99 95.75 95.64
  Q 87.92 95.08 80.53 94.80
  Q 77.57 94.69 74.93 94.04
  Q 72.26 93.38 69.49 92.67
  Q 67.93 92.27 66.42 92.15
  C 63.90 91.97 61.58 93.05 59.19 93.43
  Q 57.90 93.63 55.65 94.26
  Q 53.88 94.75 52.03 94.88
  Q 42.32 95.53 31.98 95.89
  C 27.59 96.05 23.53 101.70 22.47 105.01
  C 21.36 108.49 22.00 113.33 22.17 117.23
  Q 22.26 119.15 20.71 118.53"
/>
<path stroke="#fac86c" vector-effect="non-scaling-stroke" d="
  M 20.71 118.53
  Q 20.64 112.40 20.47 106.25
  Q 20.39 103.45 17.56 102.41"
/>
<path stroke="#e08f69" vector-effect="non-scaling-stroke" d="
  M 17.56 102.41
  L 16.73 102.14"
/>
<path stroke="#f8a52f" vector-effect="non-scaling-stroke" d="
  M 105.47 105.84
  L 104.73 103.92
  A 0.08 0.08 0.0 0 0 104.58 103.92
  Q 104.20 105.01 104.42 106.32
  Q 104.51 106.89 103.98 107.11
  Q 101.64 108.08 99.25 108.36
  Q 98.84 108.41 98.51 108.66
  Q 97.31 109.59 95.98 108.85
  Q 95.52 108.60 95.00 108.59
  Q 90.47 108.49 86.00 109.07
  Q 83.31 109.42 78.07 107.94"
/>
<path stroke="#fcda99" vector-effect="non-scaling-stroke" d="
  M 78.07 107.94
  C 77.38 103.02 70.99 103.82 67.52 104.05
  A 0.58 0.57 88.4 0 0 66.99 104.62
  L 66.95 117.31"
/>
<path stroke="#f8a52f" vector-effect="non-scaling-stroke" d="
  M 66.95 117.31
  Q 66.83 116.11 66.09 116.11
  Q 65.63 116.11 65.42 116.52
  Q 65.19 116.97 64.37 116.99"
/>
<path stroke="#fcda99" vector-effect="non-scaling-stroke" d="
  M 64.37 116.99
  L 60.43 111.33
  Q 60.10 110.87 60.43 110.41
  L 64.54 104.69
  Q 65.03 104.00 64.18 104.00
  L 60.71 104.00
  Q 59.90 104.00 59.47 104.67
  L 57.91 107.07
  Q 57.44 107.79 57.00 107.06
  L 55.72 104.91
  Q 55.17 103.99 54.10 103.99
  L 50.97 104.00
  Q 50.00 104.00 50.56 104.79
  L 54.54 110.41
  A 0.90 0.90 0.0 0 1 54.54 111.45
  L 50.42 117.39
  Q 50.00 118.00 50.73 118.00
  L 54.69 117.99
  A 0.69 0.68 15.9 0 0 55.27 117.67
  L 57.08 114.83
  Q 57.43 114.28 57.81 114.81
  L 60.13 118.06"
/>
<path stroke="#f8a52f" vector-effect="non-scaling-stroke" d="
  M 60.13 118.06
  Q 58.99 118.85 57.73 119.63
  Q 56.46 120.41 55.10 120.63
  Q 53.74 120.85 52.57 121.47
  Q 52.07 121.74 51.62 121.38
  Q 50.68 120.64 49.54 120.39
  Q 48.63 120.19 47.76 119.80
  Q 46.83 119.38 45.86 119.39
  A 2.26 2.23 -32.1 0 1 44.91 119.18
  Q 39.60 116.72 33.75 116.07
  Q 29.97 115.65 26.52 115.15
  Q 26.02 115.08 25.57 115.30
  Q 24.56 115.78 23.83 115.36
  A 0.94 0.94 0.0 0 0 22.41 116.10
  L 22.08 120.28
  Q 22.04 120.74 21.68 120.46
  Q 20.57 119.60 20.71 118.53"
/>
<path stroke="#de5c28" vector-effect="non-scaling-stroke" d="
  M 17.56 102.41
  Q 17.87 103.52 17.49 103.85
  Q 17.22 104.10 17.21 104.47
  L 17.13 116.42
  Q 17.13 116.89 17.37 117.29
  Q 18.27 118.83 19.40 119.97
  Q 21.42 122.00 23.12 124.21
  Q 24.03 125.38 25.55 125.54
  Q 36.67 126.69 49.01 126.19
  Q 52.59 126.04 55.63 128.00"
/>
<path stroke="#892451" vector-effect="non-scaling-stroke" d="
  M 52.26 128.00
  L 43.86 128.00"
/>
<path stroke="#971d25" vector-effect="non-scaling-stroke" d="
  M 20.79 128.00
  Q 17.48 125.13 16.51 120.84"
/>
<path stroke="#fcca95" vector-effect="non-scaling-stroke" d="
  M 60.13 118.06
  L 64.32 117.94
  Q 64.92 117.92 64.66 117.39
  Q 64.57 117.19 64.37 116.99"
/>
<path stroke="#fcca95" vector-effect="non-scaling-stroke" d="
  M 66.95 117.31
  Q 67.39 118.40 70.41 117.99
  Q 71.00 117.91 71.00 117.31
  L 71.01 113.54
  Q 71.01 112.95 71.60 113.00
  Q 77.55 113.47 78.07 107.94"
/>
<path stroke="#f99a24" vector-effect="non-scaling-stroke" d="
  M 106.03 108.52
  Q 106.35 112.29 106.80 116.02
  C 107.26 119.87 105.33 123.13 101.66 124.10
  Q 99.22 124.75 97.25 124.82
  Q 93.64 124.97 79.88 125.16
  Q 76.75 125.21 72.13 128.00"
/>
<path stroke="#892451" vector-effect="non-scaling-stroke" d="
  M 81.27 128.00
  Q 79.47 127.51 77.53 127.66"
/>
<path stroke="#df6121" vector-effect="non-scaling-stroke" d="
  M 77.53 127.66
  Q 80.16 126.62 84.00 126.44
  Q 92.03 126.08 99.75 125.93
  C 103.39 125.86 105.05 123.58 107.21 121.03
  Q 108.25 119.81 107.97 117.36
  Q 107.33 111.61 107.20 105.05"
/>
<path stroke="#fdcf8e" vector-effect="non-scaling-stroke" d="
  M 71.03 107.56
  L 71.01 109.44
  A 0.54 0.54 0.0 0 0 71.55 109.98
  L 72.24 109.99
  A 1.69 1.32 0.4 0 0 73.94 108.68
  L 73.94 108.36
  A 1.69 1.32 0.4 0 0 72.26 107.03
  L 71.57 107.02
  A 0.54 0.54 0.0 0 0 71.03 107.56"
/>
<path stroke="#a4624d" vector-effect="non-scaling-stroke" d="
  M 77.53 127.66
  Q 76.69 127.71 76.37 128.00"
/>
</g>
<path fill="#4e247d" d="
  M 0.00 0.00
  L 1.45 0.00
  Q 0.40 1.21 0.46 2.76
  Q 1.10 19.72 0.74 36.71
  A 0.68 0.68 0.0 0 0 1.24 37.38
  Q 1.80 37.53 2.54 36.77
  Q 2.73 37.04 2.44 37.30
  Q 2.26 37.47 2.08 37.63
  Q 1.67 38.02 1.07 37.75
  A 0.61 0.61 0.0 0 0 0.21 38.29
  Q -0.03 47.65 0.75 56.32
  Q 0.90 58.00 2.10 56.82
  Q 3.10 55.83 4.52 55.29
  Q 6.91 54.38 6.99 51.82
  Q 7.09 48.55 7.36 44.89
  Q 7.61 41.54 7.30 38.04
  Q 6.57 29.60 6.91 20.36
  C 6.94 19.41 6.37 18.55 6.37 17.60
  Q 6.39 9.52 6.26 1.42
  Q 6.25 0.96 5.85 0.71
  Q 4.20 -0.28 2.59 1.01
  Q 2.49 0.58 1.97 0.00
  L 14.14 0.00
  L 11.61 0.43
  Q 11.14 0.50 11.08 0.98
  Q 10.12 8.42 10.85 14.37
  Q 11.71 21.36 10.62 27.76
  Q 10.37 29.20 11.32 31.22
  Q 10.96 32.77 10.71 34.28
  Q 8.43 48.05 10.30 61.77
  Q 11.25 67.27 13.09 72.51
  Q 13.49 73.66 14.43 74.83
  Q 14.80 75.28 14.28 75.56
  Q 13.29 76.09 12.13 76.13
  Q 12.12 76.13 12.12 76.12
  Q 12.12 76.12 12.12 76.13
  Q 12.31 76.16 12.47 76.26
  Q 12.21 76.51 11.75 76.64
  L 2.05 79.06
  Q 2.54 70.67 2.01 63.19
  Q 1.76 59.67 0.33 62.90
  Q 0.16 63.29 0.25 65.25
  Q 0.32 66.92 0.00 68.50
  L 0.00 0.00
  Z"
/>
<path fill="#2a1440" d="
  M 1.45 0.00
  L 1.97 0.00
  Q 2.49 0.58 2.59 1.01
  Q 3.89 15.15 3.63 29.25
  Q 3.58 31.82 2.54 36.77
  Q 1.80 37.53 1.24 37.38
  A 0.68 0.68 0.0 0 1 0.74 36.71
  Q 1.10 19.72 0.46 2.76
  Q 0.40 1.21 1.45 0.00
  Z"
/>
<path fill="#6a52db" d="
  M 14.14 0.00
  L 34.94 0.00
  Q 28.48 3.80 23.70 9.23
  L 19.84 13.98
  Q 15.07 22.64 13.87 26.11
  Q 12.65 29.62 12.03 30.72
  Q 11.40 30.60 11.32 31.22
  Q 10.37 29.20 10.62 27.76
  Q 11.71 21.36 10.85 14.37
  Q 10.12 8.42 11.08 0.98
  Q 11.14 0.50 11.61 0.43
  L 14.14 0.00
  Z"
/>
<path fill="#f9b7fb" d="
  M 34.94 0.00
  L 38.92 0.00
  Q 38.45 0.89 37.10 1.49
  Q 35.65 2.14 35.06 2.54
  Q 31.55 4.97 27.83 7.58
  Q 26.11 8.77 24.63 10.65
  Q 24.57 10.73 24.48 10.68
  Q 24.34 10.61 24.22 10.65
  Q 23.59 10.86 23.68 10.15
  Q 23.74 9.68 23.70 9.23
  Q 28.48 3.80 34.94 0.00
  Z"
/>
<path fill="#fb70f3" d="
  M 38.92 0.00
  L 55.82 0.00
  L 61.12 0.71
  Q 58.49 0.99 55.95 1.29
  Q 53.47 1.59 50.97 2.48
  Q 47.10 3.85 44.02 5.32
  Q 39.55 7.45 32.65 13.40
  Q 26.62 18.60 23.16 27.13
  Q 21.83 25.40 22.88 23.36
  Q 23.88 21.42 24.15 19.80
  A 1.78 1.75 38.4 0 0 24.03 18.83
  Q 23.47 17.57 23.18 16.18
  A 1.75 1.60 76.1 0 0 21.13 14.81
  Q 20.63 14.96 19.84 13.98
  L 23.70 9.23
  Q 23.74 9.68 23.68 10.15
  Q 23.59 10.86 24.22 10.65
  Q 24.34 10.61 24.48 10.68
  Q 24.57 10.73 24.63 10.65
  Q 26.11 8.77 27.83 7.58
  Q 31.55 4.97 35.06 2.54
  Q 35.65 2.14 37.10 1.49
  Q 38.45 0.89 38.92 0.00
  Z"
/>
<path fill="#4e247d" d="
  M 55.82 0.00
  L 75.51 0.00
  L 70.58 0.55
  L 61.12 0.71
  L 55.82 0.00
  Z"
/>
<path fill="#ed54e6" d="
  M 75.51 0.00
  L 92.45 0.00
  Q 94.82 2.33 97.52 4.13
  Q 98.82 5.00 100.67 6.72
  Q 102.44 8.36 104.26 8.84
  Q 106.44 9.43 106.04 7.77
  Q 111.41 13.19 115.05 19.74
  L 115.03 20.35
  Q 115.02 20.81 114.68 21.12
  Q 113.99 21.77 113.52 22.71
  Q 113.27 23.22 113.43 23.76
  Q 114.20 26.35 113.69 28.97
  Q 113.28 31.02 113.51 32.94
  Q 113.87 36.02 114.35 39.08
  Q 114.41 39.48 114.16 39.81
  Q 113.76 40.35 112.77 40.13
  Q 111.05 28.51 103.95 19.31
  Q 104.03 19.03 103.27 17.92
  Q 104.64 17.96 103.71 15.85
  C 102.80 13.76 100.44 11.67 99.07 9.79
  Q 97.99 8.31 96.07 7.29
  Q 94.24 6.32 92.57 5.29
  A 1.73 1.61 29.8 0 0 90.18 5.85
  Q 90.17 5.87 90.43 6.71
  Q 81.73 1.75 75.50 1.21
  Q 71.61 0.86 70.58 0.55
  L 75.51 0.00
  Z"
/>
<path fill="#fb70f3" d="
  M 92.45 0.00
  L 97.09 0.00
  L 106.04 7.77
  Q 106.44 9.43 104.26 8.84
  Q 102.44 8.36 100.67 6.72
  Q 98.82 5.00 97.52 4.13
  Q 94.82 2.33 92.45 0.00
  Z"
/>
<path fill="#994ad4" d="
  M 97.09 0.00
  L 112.84 0.00
  Q 116.14 0.74 119.42 0.00
  L 121.24 0.00
  L 121.15 0.51
  Q 121.06 0.95 120.68 1.21
  Q 119.52 2.00 119.48 3.33
  Q 119.42 5.79 118.69 8.57
  Q 118.42 9.58 119.20 10.17
  Q 119.49 10.39 119.53 10.75
  Q 119.75 12.53 119.42 13.87
  Q 119.29 14.40 118.79 14.62
  Q 117.63 15.16 116.39 15.62
  Q 114.80 16.20 114.55 17.05
  Q 114.23 18.16 115.05 19.74
  Q 111.41 13.19 106.04 7.77
  L 97.09 0.00
  Z"
/>
<path fill="#4e247d" d="
  M 112.84 0.00
  L 119.42 0.00
  Q 116.14 0.74 112.84 0.00
  Z"
/>
<path fill="#662d94" d="
  M 121.24 0.00
  L 121.86 0.00
  L 128.00 0.31
  L 128.00 64.26
  C 127.67 61.03 128.80 56.99 126.27 55.38
  Q 123.76 53.78 124.92 50.42
  Q 125.61 48.40 125.64 46.33
  Q 125.65 45.66 126.15 46.10
  Q 126.30 46.23 126.33 46.41
  A 0.54 0.54 0.0 0 0 126.96 46.86
  Q 127.48 46.76 127.51 46.25
  Q 127.87 37.75 127.69 29.17
  Q 127.69 28.99 127.59 28.85
  Q 127.50 28.72 127.36 28.68
  A 0.43 0.43 0.0 0 0 126.81 29.04
  Q 126.01 35.67 126.32 42.80
  Q 126.37 44.00 125.33 44.52
  Q 124.21 45.08 124.13 43.83
  Q 124.07 42.90 123.42 42.34
  Q 122.70 41.73 122.66 42.67
  L 122.40 48.77
  C 122.23 39.17 120.04 28.17 115.05 19.74
  Q 114.23 18.16 114.55 17.05
  Q 114.80 16.20 116.39 15.62
  Q 117.63 15.16 118.79 14.62
  Q 119.29 14.40 119.42 13.87
  Q 119.75 12.53 119.53 10.75
  Q 119.49 10.39 119.20 10.17
  Q 118.42 9.58 118.69 8.57
  Q 119.42 5.79 119.48 3.33
  Q 119.52 2.00 120.68 1.21
  Q 121.06 0.95 121.15 0.51
  L 121.24 0.00
  Z"
/>
<path fill="#4e247d" d="
  M 121.86 0.00
  L 128.00 0.00
  L 128.00 0.31
  L 121.86 0.00
  Z"
/>
<path fill="#9a252a" d="
  M 70.58 0.55
  Q 71.61 0.86 75.50 1.21
  Q 81.73 1.75 90.43 6.71
  Q 97.93 11.05 103.27 17.92
  Q 104.03 19.03 103.95 19.31
  Q 104.23 23.06 106.31 26.73
  Q 107.23 28.36 107.17 29.70
  C 107.09 31.62 106.48 33.32 107.40 35.17
  A 2.30 2.30 0.0 0 1 107.64 36.42
  C 107.49 37.96 108.46 39.24 108.08 40.64
  Q 107.86 41.41 107.50 40.69
  Q 107.26 40.21 106.86 39.82
  A 0.87 0.87 0.0 0 0 105.39 40.35
  Q 104.86 45.69 103.60 51.65
  Q 102.38 57.46 99.40 62.59
  Q 93.13 73.40 79.79 79.45
  Q 77.18 80.64 75.26 80.85
  Q 74.46 80.93 73.70 81.11
  Q 71.73 81.58 69.72 81.82
  Q 66.86 82.17 65.36 83.65
  A 1.12 1.11 -75.5 0 1 64.89 83.93
  Q 64.12 84.16 63.66 83.69
  Q 63.28 83.31 63.34 82.78
  Q 63.46 81.65 62.62 80.90
  Q 62.53 80.82 62.42 80.82
  Q 62.24 80.82 62.08 80.92
  Q 61.86 81.07 61.58 81.05
  Q 56.52 80.71 51.91 79.38
  C 50.68 79.02 50.09 78.15 48.89 77.83
  Q 47.78 77.53 46.78 76.97
  Q 33.83 69.73 28.14 56.32
  Q 26.54 52.57 25.49 48.57
  Q 25.28 47.79 24.58 47.27
  Q 23.94 46.81 23.29 46.57
  A 0.87 0.87 0.0 0 0 22.14 47.19
  Q 21.82 48.57 21.95 49.95
  Q 21.73 41.28 23.45 32.76
  Q 23.69 31.58 22.96 31.22
  Q 22.53 31.00 22.45 30.54
  Q 22.27 29.48 22.73 28.01
  L 23.16 27.13
  Q 26.62 18.60 32.65 13.40
  Q 39.55 7.45 44.02 5.32
  Q 47.10 3.85 50.97 2.48
  Q 53.47 1.59 55.95 1.29
  Q 58.49 0.99 61.12 0.71
  L 70.58 0.55
  Z
  M 37.49 14.07
  L 32.70 20.17
  Q 30.71 22.78 30.27 23.76
  Q 28.74 27.13 27.41 30.96
  Q 26.48 33.63 26.64 35.91
  Q 26.81 38.51 26.96 41.15
  Q 27.33 47.67 31.44 53.28
  Q 35.25 58.47 43.30 58.68
  Q 53.63 58.95 63.14 58.83
  A 0.86 0.86 0.0 0 1 64.01 59.68
  L 64.14 71.00
  L 63.95 82.36
  Q 63.91 84.44 65.20 82.81
  Q 70.70 75.80 77.43 68.46
  Q 83.27 62.11 91.32 50.78
  Q 92.64 50.22 93.19 49.06
  Q 93.42 48.57 93.92 48.37
  Q 94.72 48.05 95.54 48.12
  Q 96.01 48.17 96.44 47.95
  Q 99.01 46.60 102.04 46.05
  A 1.29 1.29 0.0 0 0 103.06 45.13
  Q 103.26 44.45 103.84 44.20
  A 0.70 0.70 0.0 0 0 104.27 43.62
  Q 105.52 29.70 97.24 18.24
  Q 94.47 13.79 91.64 11.92
  Q 85.91 5.93 78.21 3.63
  C 63.34 -0.81 47.76 2.18 37.49 14.07
  Z"
/>
<path fill="#662d94" d="
  M 2.54 36.77
  Q 3.58 31.82 3.63 29.25
  Q 3.89 15.15 2.59 1.01
  Q 4.20 -0.28 5.85 0.71
  Q 6.25 0.96 6.26 1.42
  Q 6.39 9.52 6.37 17.60
  C 6.37 18.55 6.94 19.41 6.91 20.36
  Q 6.57 29.60 7.30 38.04
  Q 7.61 41.54 7.36 44.89
  Q 7.09 48.55 6.99 51.82
  Q 6.91 54.38 4.52 55.29
  Q 3.10 55.83 2.10 56.82
  Q 0.90 58.00 0.75 56.32
  Q -0.03 47.65 0.21 38.29
  A 0.61 0.61 0.0 0 1 1.07 37.75
  Q 1.67 38.02 2.08 37.63
  Q 2.26 37.47 2.44 37.30
  Q 2.73 37.04 2.54 36.77
  Z"
/>
<path fill="#fcfbad" d="
  M 91.64 11.92
  Q 87.03 11.35 82.84 9.86
  Q 80.93 9.18 79.18 9.06
  Q 77.12 8.92 75.08 8.42
  Q 71.37 7.50 67.17 7.56
  Q 64.68 7.59 62.38 8.08
  Q 59.99 8.60 57.66 9.16
  Q 55.78 9.62 54.29 10.24
  Q 52.75 10.89 51.15 11.18
  C 48.95 11.58 46.88 12.61 44.95 13.68
  Q 43.77 14.33 42.02 14.61
  Q 40.51 14.85 38.98 15.69
  A 0.88 0.87 79.0 0 1 37.69 14.82
  Q 37.71 14.68 37.49 14.07
  C 47.76 2.18 63.34 -0.81 78.21 3.63
  Q 85.91 5.93 91.64 11.92
  Z"
/>
<path fill="#fb70f3" d="
  M 103.27 17.92
  Q 97.93 11.05 90.43 6.71
  Q 90.17 5.87 90.18 5.85
  A 1.73 1.61 29.8 0 1 92.57 5.29
  Q 94.24 6.32 96.07 7.29
  Q 97.99 8.31 99.07 9.79
  C 100.44 11.67 102.80 13.76 103.71 15.85
  Q 104.64 17.96 103.27 17.92
  Z"
/>
<path fill="#fa9f1d" d="
  M 91.64 11.92
  Q 94.47 13.79 97.24 18.24
  Q 97.01 19.72 95.89 21.06
  Q 95.57 21.46 95.61 21.97
  Q 95.72 23.56 95.04 24.78
  C 94.14 26.39 90.95 25.97 89.27 25.72
  Q 88.53 25.61 86.68 24.60
  Q 84.55 23.43 82.79 25.50
  L 86.45 19.91
  Q 86.74 19.47 86.49 19.01
  Q 85.91 17.91 84.23 17.59
  Q 78.94 15.27 73.37 15.18
  Q 65.05 13.33 57.90 15.02
  L 58.26 13.59
  Q 58.39 13.09 57.94 12.85
  Q 57.30 12.52 56.92 11.94
  Q 56.59 11.43 55.99 11.56
  L 52.74 12.32
  A 0.65 0.50 34.3 0 1 52.55 12.33
  Q 50.84 12.15 49.59 13.28
  Q 49.23 13.61 48.75 13.74
  Q 46.90 14.26 46.27 14.65
  Q 42.16 17.23 38.67 20.58
  Q 37.19 22.01 34.97 23.56
  A 1.55 1.55 0.0 0 1 32.54 22.17
  L 32.70 20.17
  L 37.49 14.07
  Q 37.71 14.68 37.69 14.82
  A 0.88 0.87 79.0 0 0 38.98 15.69
  Q 40.51 14.85 42.02 14.61
  Q 43.77 14.33 44.95 13.68
  C 46.88 12.61 48.95 11.58 51.15 11.18
  Q 52.75 10.89 54.29 10.24
  Q 55.78 9.62 57.66 9.16
  Q 59.99 8.60 62.38 8.08
  Q 64.68 7.59 67.17 7.56
  Q 71.37 7.50 75.08 8.42
  Q 77.12 8.92 79.18 9.06
  Q 80.93 9.18 82.84 9.86
  Q 87.03 11.35 91.64 11.92
  Z"
/>
<path fill="#ef5e1a" d="
  M 57.90 15.02
  Q 48.33 25.04 45.64 37.64
  Q 45.34 39.04 45.47 40.38
  Q 45.61 41.71 45.87 43.13
  L 42.64 49.27
  A 0.38 0.38 0.0 0 0 42.97 49.82
  L 63.67 50.19
  A 0.50 0.50 0.0 0 1 64.16 50.69
  L 64.28 68.53
  L 64.14 71.00
  L 64.01 59.68
  A 0.86 0.86 0.0 0 0 63.14 58.83
  Q 53.63 58.95 43.30 58.68
  Q 35.25 58.47 31.44 53.28
  Q 27.33 47.67 26.96 41.15
  Q 26.81 38.51 26.64 35.91
  Q 26.48 33.63 27.41 30.96
  Q 28.74 27.13 30.27 23.76
  Q 30.71 22.78 32.70 20.17
  L 32.54 22.17
  A 1.55 1.55 0.0 0 0 34.97 23.56
  Q 37.19 22.01 38.67 20.58
  Q 42.16 17.23 46.27 14.65
  Q 46.90 14.26 48.75 13.74
  Q 49.23 13.61 49.59 13.28
  Q 50.84 12.15 52.55 12.33
  A 0.65 0.50 34.3 0 0 52.74 12.32
  L 55.99 11.56
  Q 56.59 11.43 56.92 11.94
  Q 57.30 12.52 57.94 12.85
  Q 58.39 13.09 58.26 13.59
  L 57.90 15.02
  Z
  M 41.1444 33.6612
  A 2.06 1.11 74.1 0 0 41.6475 31.3759
  A 2.06 1.11 74.1 0 0 40.0156 29.6988
  A 2.06 1.11 74.1 0 0 39.5125 31.9841
  A 2.06 1.11 74.1 0 0 41.1444 33.6612
  Z"
/>
<path fill="#ed54e6" d="
  M 19.84 13.98
  Q 20.63 14.96 21.13 14.81
  A 1.75 1.60 76.1 0 1 23.18 16.18
  Q 23.47 17.57 24.03 18.83
  A 1.78 1.75 38.4 0 1 24.15 19.80
  Q 23.88 21.42 22.88 23.36
  Q 21.83 25.40 23.16 27.13
  L 22.73 28.01
  Q 18.78 35.26 18.41 44.24
  Q 16.48 43.55 14.78 41.59
  Q 14.51 41.29 14.12 41.22
  L 10.89 40.71
  Q 10.48 40.65 10.45 40.22
  Q 10.20 35.35 10.83 34.25
  Q 11.80 32.59 12.03 30.72
  Q 12.65 29.62 13.87 26.11
  Q 15.07 22.64 19.84 13.98
  Z"
/>
<path fill="#f8b533" d="
  M 73.37 15.18
  L 62.52 15.23
  Q 61.92 15.24 61.78 15.82
  C 61.33 17.74 59.49 19.21 58.49 20.84
  Q 51.77 31.69 45.87 43.13
  Q 45.61 41.71 45.47 40.38
  Q 45.34 39.04 45.64 37.64
  Q 48.33 25.04 57.90 15.02
  Q 65.05 13.33 73.37 15.18
  Z"
/>
<path fill="#fbfc85" d="
  M 73.37 15.18
  Q 78.94 15.27 84.23 17.59
  Q 81.43 19.59 79.74 22.37
  L 79.56 20.48
  A 1.63 1.63 0.0 0 0 77.11 19.24
  Q 75.23 20.36 74.05 21.93
  Q 72.83 23.57 72.44 23.88
  Q 71.35 24.74 70.10 25.02
  A 1.30 1.29 -11.2 0 0 69.10 26.50
  Q 69.98 31.73 73.42 31.94
  Q 69.09 38.87 65.94 47.13
  A 0.81 0.80 -76.7 0 0 66.61 48.22
  L 81.07 49.56
  L 65.12 77.16
  Q 64.81 77.69 64.78 77.08
  L 64.28 68.53
  L 64.16 50.69
  A 0.50 0.50 0.0 0 0 63.67 50.19
  L 42.97 49.82
  A 0.38 0.38 0.0 0 1 42.64 49.27
  L 45.87 43.13
  Q 51.77 31.69 58.49 20.84
  C 59.49 19.21 61.33 17.74 61.78 15.82
  Q 61.92 15.24 62.52 15.23
  L 73.37 15.18
  Z"
/>
<path fill="#f9bf11" d="
  M 84.23 17.59
  Q 85.91 17.91 86.49 19.01
  Q 86.74 19.47 86.45 19.91
  L 82.79 25.50
  L 76.03 35.90
  Q 72.98 38.43 73.07 40.90
  A 2.70 2.69 4.6 0 0 75.23 43.44
  L 82.82 45.00
  Q 84.04 45.25 83.33 46.28
  L 81.07 49.56
  L 66.61 48.22
  A 0.81 0.80 -76.7 0 1 65.94 47.13
  Q 69.09 38.87 73.42 31.94
  L 79.74 22.37
  Q 81.43 19.59 84.23 17.59
  Z"
/>
<path fill="#db4922" d="
  M 97.24 18.24
  Q 105.52 29.70 104.27 43.62
  A 0.70 0.70 0.0 0 1 103.84 44.20
  Q 103.26 44.45 103.06 45.13
  A 1.29 1.29 0.0 0 1 102.04 46.05
  Q 99.01 46.60 96.44 47.95
  Q 96.01 48.17 95.54 48.12
  Q 94.72 48.05 93.92 48.37
  Q 93.42 48.57 93.19 49.06
  Q 92.64 50.22 91.32 50.78
  L 93.37 46.88
  A 2.04 2.04 0.0 0 0 92.87 44.36
  C 88.80 40.98 82.26 39.04 77.11 37.91
  Q 76.01 37.67 76.03 35.90
  L 82.79 25.50
  Q 84.55 23.43 86.68 24.60
  Q 88.53 25.61 89.27 25.72
  C 90.95 25.97 94.14 26.39 95.04 24.78
  Q 95.72 23.56 95.61 21.97
  Q 95.57 21.46 95.89 21.06
  Q 97.01 19.72 97.24 18.24
  Z"
/>
<path fill="#fdfed2" d="
  M 79.74 22.37
  L 73.42 31.94
  Q 69.98 31.73 69.10 26.50
  A 1.30 1.29 -11.2 0 1 70.10 25.02
  Q 71.35 24.74 72.44 23.88
  Q 72.83 23.57 74.05 21.93
  Q 75.23 20.36 77.11 19.24
  A 1.63 1.63 0.0 0 1 79.56 20.48
  L 79.74 22.37
  Z"
/>
<path fill="#6b1625" d="
  M 103.95 19.31
  Q 111.05 28.51 112.77 40.13
  Q 113.92 50.12 111.32 60.27
  Q 110.48 63.54 108.93 66.54
  Q 105.58 72.87 103.12 75.50
  Q 97.84 81.16 96.14 82.51
  Q 91.33 86.34 86.13 88.15
  Q 85.38 88.41 85.13 90.32
  Q 83.18 90.01 81.38 89.85
  Q 79.46 89.69 77.67 89.35
  Q 72.51 88.36 67.30 87.20
  Q 64.73 86.63 63.00 87.19
  Q 55.34 89.70 48.37 89.88
  L 38.23 83.89
  Q 35.78 81.06 29.50 76.12
  Q 28.22 75.11 29.16 73.40
  Q 29.44 72.89 29.28 72.33
  Q 28.89 70.97 28.57 69.58
  Q 28.28 68.34 27.43 67.05
  Q 25.80 64.60 24.90 61.85
  Q 23.00 56.03 21.95 49.95
  Q 21.82 48.57 22.14 47.19
  A 0.87 0.87 0.0 0 1 23.29 46.57
  Q 23.94 46.81 24.58 47.27
  Q 25.28 47.79 25.49 48.57
  Q 26.54 52.57 28.14 56.32
  Q 33.83 69.73 46.78 76.97
  Q 47.78 77.53 48.89 77.83
  C 50.09 78.15 50.68 79.02 51.91 79.38
  Q 56.52 80.71 61.58 81.05
  Q 61.86 81.07 62.08 80.92
  Q 62.24 80.82 62.42 80.82
  Q 62.53 80.82 62.62 80.90
  Q 63.46 81.65 63.34 82.78
  Q 63.28 83.31 63.66 83.69
  Q 64.12 84.16 64.89 83.93
  A 1.12 1.11 -75.5 0 0 65.36 83.65
  Q 66.86 82.17 69.72 81.82
  Q 71.73 81.58 73.70 81.11
  Q 74.46 80.93 75.26 80.85
  Q 77.18 80.64 79.79 79.45
  Q 93.13 73.40 99.40 62.59
  Q 102.38 57.46 103.60 51.65
  Q 104.86 45.69 105.39 40.35
  A 0.87 0.87 0.0 0 1 106.86 39.82
  Q 107.26 40.21 107.50 40.69
  Q 107.86 41.41 108.08 40.64
  C 108.46 39.24 107.49 37.96 107.64 36.42
  A 2.30 2.30 0.0 0 0 107.40 35.17
  C 106.48 33.32 107.09 31.62 107.17 29.70
  Q 107.23 28.36 106.31 26.73
  Q 104.23 23.06 103.95 19.31
  Z"
/>
<path fill="#b839bc" d="
  M 115.05 19.74
  C 120.04 28.17 122.23 39.17 122.40 48.77
  L 122.22 51.94
  L 121.43 53.63
  Q 121.22 54.07 120.73 54.16
  Q 120.35 54.23 119.97 54.04
  Q 119.78 53.94 119.82 53.74
  Q 119.90 53.42 119.65 53.17
  Q 119.50 53.02 119.56 53.22
  Q 119.61 53.38 119.53 53.50
  Q 119.31 53.84 119.16 53.46
  Q 118.64 52.14 117.40 51.40
  A 0.72 0.71 -67.4 0 0 116.34 51.84
  Q 114.85 57.76 112.20 63.72
  Q 112.10 63.95 111.83 63.98
  A 0.42 0.42 0.0 0 0 111.47 64.33
  Q 111.03 66.82 109.42 68.89
  A 0.53 0.52 26.0 0 1 108.87 69.07
  L 108.48 68.95
  Q 108.09 68.84 108.29 68.50
  Q 108.85 67.50 108.93 66.54
  Q 110.48 63.54 111.32 60.27
  Q 113.92 50.12 112.77 40.13
  Q 113.76 40.35 114.16 39.81
  Q 114.41 39.48 114.35 39.08
  Q 113.87 36.02 113.51 32.94
  Q 113.28 31.02 113.69 28.97
  Q 114.20 26.35 113.43 23.76
  Q 113.27 23.22 113.52 22.71
  Q 113.99 21.77 114.68 21.12
  Q 115.02 20.81 115.03 20.35
  L 115.05 19.74
  Z"
/>
<path fill="#80254c" d="
  M 22.73 28.01
  Q 22.27 29.48 22.45 30.54
  Q 22.53 31.00 22.96 31.22
  Q 23.69 31.58 23.45 32.76
  Q 21.73 41.28 21.95 49.95
  Q 23.00 56.03 24.90 61.85
  Q 25.80 64.60 27.43 67.05
  Q 28.28 68.34 28.57 69.58
  Q 28.89 70.97 29.28 72.33
  Q 29.44 72.89 29.16 73.40
  Q 28.22 75.11 29.50 76.12
  Q 35.78 81.06 38.23 83.89
  Q 30.51 78.63 28.97 76.78
  Q 21.39 67.68 19.34 56.00
  Q 18.26 49.85 18.41 44.24
  Q 18.78 35.26 22.73 28.01
  Z"
/>
<path fill="#2a1440" d="
  M 128.00 64.26
  L 128.00 70.75
  L 127.70 76.21
  Q 127.68 76.56 127.34 76.48
  L 127.07 76.41
  Q 126.57 76.29 126.57 75.77
  Q 126.64 70.29 126.09 65.65
  C 125.77 63.01 126.21 60.46 126.11 57.85
  Q 126.08 57.22 125.46 57.13
  Q 124.83 57.04 124.83 57.68
  C 124.83 58.88 124.14 59.61 124.08 60.77
  Q 123.87 64.49 123.72 68.25
  Q 123.63 70.29 123.17 72.27
  Q 122.73 74.18 122.82 76.13
  A 1.29 1.26 67.6 0 1 122.42 77.13
  Q 121.33 78.14 119.80 77.85
  Q 119.22 77.73 118.80 78.15
  Q 118.42 78.53 117.95 78.72
  Q 115.47 79.73 116.41 77.19
  Q 116.72 76.35 116.90 74.40
  C 117.62 72.60 117.92 70.65 118.57 68.93
  Q 121.68 60.74 122.22 51.94
  L 122.40 48.77
  L 122.66 42.67
  Q 122.70 41.73 123.42 42.34
  Q 124.07 42.90 124.13 43.83
  Q 124.21 45.08 125.33 44.52
  Q 126.37 44.00 126.32 42.80
  Q 126.01 35.67 126.81 29.04
  A 0.43 0.43 0.0 0 1 127.36 28.68
  Q 127.50 28.72 127.59 28.85
  Q 127.69 28.99 127.69 29.17
  Q 127.87 37.75 127.51 46.25
  Q 127.48 46.76 126.96 46.86
  A 0.54 0.54 0.0 0 1 126.33 46.41
  Q 126.30 46.23 126.15 46.10
  Q 125.65 45.66 125.64 46.33
  Q 125.61 48.40 124.92 50.42
  Q 123.76 53.78 126.27 55.38
  C 128.80 56.99 127.67 61.03 128.00 64.26
  Z"
/>
<ellipse fill="#f8b533" cx="0.00" cy="0.00" transform="translate(40.58,31.68) rotate(74.1)" rx="2.06" ry="1.11"/>
<path fill="#9f2fab" d="
  M 12.03 30.72
  Q 11.80 32.59 10.83 34.25
  Q 10.20 35.35 10.45 40.22
  Q 10.48 40.65 10.89 40.71
  L 14.12 41.22
  Q 14.51 41.29 14.78 41.59
  Q 16.48 43.55 18.41 44.24
  Q 18.26 49.85 19.34 56.00
  Q 21.39 67.68 28.97 76.78
  Q 30.51 78.63 38.23 83.89
  L 48.37 89.88
  C 45.85 90.37 43.63 90.96 41.18 91.01
  Q 35.88 91.10 29.91 90.81
  L 33.75 90.77
  Q 34.64 90.77 33.93 90.23
  C 32.46 89.12 30.89 88.59 29.50 87.36
  Q 27.74 85.80 25.87 84.35
  Q 25.26 83.88 24.53 83.58
  Q 23.70 83.22 23.23 82.46
  Q 22.97 82.02 22.52 81.78
  Q 20.17 80.53 18.69 78.32
  Q 18.53 78.07 18.24 78.14
  Q 18.05 78.18 17.98 78.01
  Q 17.11 75.74 14.96 73.96
  Q 14.56 73.63 14.56 73.11
  Q 14.56 71.90 13.83 71.10
  A 0.95 0.95 0.0 0 1 13.61 70.22
  Q 13.83 69.41 13.23 68.98
  Q 12.90 68.74 12.75 68.36
  L 10.30 61.77
  Q 8.43 48.05 10.71 34.28
  Q 10.96 32.77 11.32 31.22
  Q 11.40 30.60 12.03 30.72
  Z"
/>
<path fill="#f77b07" d="
  M 76.03 35.90
  Q 76.01 37.67 77.11 37.91
  C 82.26 39.04 88.80 40.98 92.87 44.36
  A 2.04 2.04 0.0 0 1 93.37 46.88
  L 91.32 50.78
  Q 83.27 62.11 77.43 68.46
  Q 70.70 75.80 65.20 82.81
  Q 63.91 84.44 63.95 82.36
  L 64.14 71.00
  L 64.28 68.53
  L 64.78 77.08
  Q 64.81 77.69 65.12 77.16
  L 81.07 49.56
  L 83.33 46.28
  Q 84.04 45.25 82.82 45.00
  L 75.23 43.44
  A 2.70 2.69 4.6 0 1 73.07 40.90
  Q 72.98 38.43 76.03 35.90
  Z"
/>
<path fill="#8727a0" d="
  M 122.22 51.94
  Q 121.68 60.74 118.57 68.93
  C 117.92 70.65 117.62 72.60 116.90 74.40
  Q 114.43 79.53 109.86 85.86
  Q 106.22 90.88 101.52 91.84
  L 100.50 91.32
  Q 100.07 91.09 99.59 91.07
  L 85.13 90.32
  Q 85.38 88.41 86.13 88.15
  Q 91.33 86.34 96.14 82.51
  Q 97.84 81.16 103.12 75.50
  Q 105.58 72.87 108.93 66.54
  Q 108.85 67.50 108.29 68.50
  Q 108.09 68.84 108.48 68.95
  L 108.87 69.07
  A 0.53 0.52 26.0 0 0 109.42 68.89
  Q 111.03 66.82 111.47 64.33
  A 0.42 0.42 0.0 0 1 111.83 63.98
  Q 112.10 63.95 112.20 63.72
  Q 114.85 57.76 116.34 51.84
  A 0.72 0.71 -67.4 0 1 117.40 51.40
  Q 118.64 52.14 119.16 53.46
  Q 119.31 53.84 119.53 53.50
  Q 119.61 53.38 119.56 53.22
  Q 119.50 53.02 119.65 53.17
  Q 119.90 53.42 119.82 53.74
  Q 119.78 53.94 119.97 54.04
  Q 120.35 54.23 120.73 54.16
  Q 121.22 54.07 121.43 53.63
  L 122.22 51.94
  Z"
/>
<path fill="#4e247d" d="
  M 128.00 70.75
  L 128.00 128.00
  L 108.67 128.00
  Q 111.07 128.54 110.96 123.47
  Q 110.92 121.33 111.06 119.40
  C 111.23 116.98 111.91 114.97 111.56 112.42
  Q 111.34 110.82 111.19 109.24
  Q 110.88 106.22 111.07 101.98
  Q 107.90 99.80 105.74 96.79
  C 104.39 94.88 102.90 93.51 101.52 91.84
  Q 106.22 90.88 109.86 85.86
  Q 114.43 79.53 116.90 74.40
  Q 116.72 76.35 116.41 77.19
  Q 115.47 79.73 117.95 78.72
  Q 118.42 78.53 118.80 78.15
  Q 119.22 77.73 119.80 77.85
  Q 121.33 78.14 122.42 77.13
  A 1.29 1.26 67.6 0 0 122.82 76.13
  Q 122.73 74.18 123.17 72.27
  Q 123.63 70.29 123.72 68.25
  Q 123.87 64.49 124.08 60.77
  C 124.14 59.61 124.83 58.88 124.83 57.68
  Q 124.83 57.04 125.46 57.13
  Q 126.08 57.22 126.11 57.85
  C 126.21 60.46 125.77 63.01 126.09 65.65
  Q 126.64 70.29 126.57 75.77
  Q 126.57 76.29 127.07 76.41
  L 127.34 76.48
  Q 127.68 76.56 127.70 76.21
  L 128.00 70.75
  Z"
/>
<path fill="#2a1440" d="
  M 2.05 79.06
  Q 0.19 79.24 0.00 78.24
  L 0.00 68.50
  Q 0.32 66.92 0.25 65.25
  Q 0.16 63.29 0.33 62.90
  Q 1.76 59.67 2.01 63.19
  Q 2.54 70.67 2.05 79.06
  Z"
/>
<path fill="#662d94" d="
  M 10.30 61.77
  L 12.75 68.36
  Q 12.90 68.74 13.23 68.98
  Q 13.83 69.41 13.61 70.22
  A 0.95 0.95 0.0 0 0 13.83 71.10
  Q 14.56 71.90 14.56 73.11
  Q 14.56 73.63 14.96 73.96
  Q 17.11 75.74 17.98 78.01
  Q 18.05 78.18 18.24 78.14
  Q 18.53 78.07 18.69 78.32
  Q 20.17 80.53 22.52 81.78
  Q 22.97 82.02 23.23 82.46
  Q 23.70 83.22 24.53 83.58
  Q 25.26 83.88 25.87 84.35
  Q 27.74 85.80 29.50 87.36
  C 30.89 88.59 32.46 89.12 33.93 90.23
  Q 34.64 90.77 33.75 90.77
  L 29.91 90.81
  Q 25.07 93.04 21.06 97.67
  C 19.71 99.22 18.05 100.39 16.27 101.39
  Q 15.49 101.83 16.35 102.08
  Q 16.39 102.09 16.73 102.14
  Q 16.60 102.14 16.47 102.14
  Q 16.43 102.14 16.43 102.18
  L 16.51 120.84
  L 16.12 128.00
  L 0.00 128.00
  L 0.00 78.24
  Q 0.19 79.24 2.05 79.06
  L 11.75 76.64
  Q 10.01 77.27 9.85 78.73
  Q 9.76 79.59 10.39 80.08
  Q 11.05 80.60 11.97 80.38
  Q 12.45 80.26 12.70 79.83
  Q 13.31 78.76 14.35 78.78
  A 0.86 0.86 0.0 0 0 15.02 77.37
  Q 13.73 75.85 12.47 76.26
  Q 12.31 76.16 12.12 76.13
  Q 12.12 76.12 12.12 76.12
  Q 12.12 76.13 12.13 76.13
  Q 13.29 76.09 14.28 75.56
  Q 14.80 75.28 14.43 74.83
  Q 13.49 73.66 13.09 72.51
  Q 11.25 67.27 10.30 61.77
  Z"
/>
<path fill="#f9b7fb" d="
  M 12.47 76.26
  Q 13.73 75.85 15.02 77.37
  A 0.86 0.86 0.0 0 1 14.35 78.78
  Q 13.31 78.76 12.70 79.83
  Q 12.45 80.26 11.97 80.38
  Q 11.05 80.60 10.39 80.08
  Q 9.76 79.59 9.85 78.73
  Q 10.01 77.27 11.75 76.64
  Q 12.21 76.51 12.47 76.26
  Z"
/>
<path fill="#fcfbad" d="
  M 85.13 90.32
  L 99.59 91.07
  Q 100.07 91.09 100.50 91.32
  L 101.52 91.84
  C 102.90 93.51 104.39 94.88 105.74 96.79
  Q 107.90 99.80 111.07 101.98
  L 107.20 105.05
  L 106.77 109.37
  Q 106.73 109.80 106.37 109.57
  Q 106.11 109.41 106.03 108.52
  L 105.47 105.84
  Q 105.78 103.83 104.59 101.93
  C 102.19 98.12 100.56 95.99 95.75 95.64
  Q 87.92 95.08 80.53 94.80
  Q 77.57 94.69 74.93 94.04
  Q 72.26 93.38 69.49 92.67
  Q 67.93 92.27 66.42 92.15
  C 63.90 91.97 61.58 93.05 59.19 93.43
  Q 57.90 93.63 55.65 94.26
  Q 53.88 94.75 52.03 94.88
  Q 42.32 95.53 31.98 95.89
  C 27.59 96.05 23.53 101.70 22.47 105.01
  C 21.36 108.49 22.00 113.33 22.17 117.23
  Q 22.26 119.15 20.71 118.53
  Q 20.64 112.40 20.47 106.25
  Q 20.39 103.45 17.56 102.41
  L 16.73 102.14
  Q 16.39 102.09 16.35 102.08
  Q 15.49 101.83 16.27 101.39
  C 18.05 100.39 19.71 99.22 21.06 97.67
  Q 25.07 93.04 29.91 90.81
  Q 35.88 91.10 41.18 91.01
  C 43.63 90.96 45.85 90.37 48.37 89.88
  Q 55.34 89.70 63.00 87.19
  Q 64.73 86.63 67.30 87.20
  Q 72.51 88.36 77.67 89.35
  Q 79.46 89.69 81.38 89.85
  Q 83.18 90.01 85.13 90.32
  Z"
/>
<path fill="#f8b533" d="
  M 105.47 105.84
  L 104.73 103.92
  A 0.08 0.08 0.0 0 0 104.58 103.92
  Q 104.20 105.01 104.42 106.32
  Q 104.51 106.89 103.98 107.11
  Q 101.64 108.08 99.25 108.36
  Q 98.84 108.41 98.51 108.66
  Q 97.31 109.59 95.98 108.85
  Q 95.52 108.60 95.00 108.59
  Q 90.47 108.49 86.00 109.07
  Q 83.31 109.42 78.07 107.94
  C 77.38 103.02 70.99 103.82 67.52 104.05
  A 0.58 0.57 88.4 0 0 66.99 104.62
  L 66.95 117.31
  Q 66.83 116.11 66.09 116.11
  Q 65.63 116.11 65.42 116.52
  Q 65.19 116.97 64.37 116.99
  L 60.43 111.33
  Q 60.10 110.87 60.43 110.41
  L 64.54 104.69
  Q 65.03 104.00 64.18 104.00
  L 60.71 104.00
  Q 59.90 104.00 59.47 104.67
  L 57.91 107.07
  Q 57.44 107.79 57.00 107.06
  L 55.72 104.91
  Q 55.17 103.99 54.10 103.99
  L 50.97 104.00
  Q 50.00 104.00 50.56 104.79
  L 54.54 110.41
  A 0.90 0.90 0.0 0 1 54.54 111.45
  L 50.42 117.39
  Q 50.00 118.00 50.73 118.00
  L 54.69 117.99
  A 0.69 0.68 15.9 0 0 55.27 117.67
  L 57.08 114.83
  Q 57.43 114.28 57.81 114.81
  L 60.13 118.06
  Q 58.99 118.85 57.73 119.63
  Q 56.46 120.41 55.10 120.63
  Q 53.74 120.85 52.57 121.47
  Q 52.07 121.74 51.62 121.38
  Q 50.68 120.64 49.54 120.39
  Q 48.63 120.19 47.76 119.80
  Q 46.83 119.38 45.86 119.39
  A 2.26 2.23 -32.1 0 1 44.91 119.18
  Q 39.60 116.72 33.75 116.07
  Q 29.97 115.65 26.52 115.15
  Q 26.02 115.08 25.57 115.30
  Q 24.56 115.78 23.83 115.36
  A 0.94 0.94 0.0 0 0 22.41 116.10
  L 22.08 120.28
  Q 22.04 120.74 21.68 120.46
  Q 20.57 119.60 20.71 118.53
  Q 22.26 119.15 22.17 117.23
  C 22.00 113.33 21.36 108.49 22.47 105.01
  C 23.53 101.70 27.59 96.05 31.98 95.89
  Q 42.32 95.53 52.03 94.88
  Q 53.88 94.75 55.65 94.26
  Q 57.90 93.63 59.19 93.43
  C 61.58 93.05 63.90 91.97 66.42 92.15
  Q 67.93 92.27 69.49 92.67
  Q 72.26 93.38 74.93 94.04
  Q 77.57 94.69 80.53 94.80
  Q 87.92 95.08 95.75 95.64
  C 100.56 95.99 102.19 98.12 104.59 101.93
  Q 105.78 103.83 105.47 105.84
  Z"
/>
<path fill="#c32324" d="
  M 16.73 102.14
  L 17.56 102.41
  Q 17.87 103.52 17.49 103.85
  Q 17.22 104.10 17.21 104.47
  L 17.13 116.42
  Q 17.13 116.89 17.37 117.29
  Q 18.27 118.83 19.40 119.97
  Q 21.42 122.00 23.12 124.21
  Q 24.03 125.38 25.55 125.54
  Q 36.67 126.69 49.01 126.19
  Q 52.59 126.04 55.63 128.00
  L 52.26 128.00
  L 43.86 128.00
  L 20.79 128.00
  Q 17.48 125.13 16.51 120.84
  L 16.43 102.18
  Q 16.43 102.14 16.47 102.14
  Q 16.60 102.14 16.73 102.14
  Z"
/>
<path fill="#f8952b" d="
  M 17.56 102.41
  Q 20.39 103.45 20.47 106.25
  Q 20.64 112.40 20.71 118.53
  Q 20.57 119.60 21.68 120.46
  Q 22.04 120.74 22.08 120.28
  L 22.41 116.10
  A 0.94 0.94 0.0 0 1 23.83 115.36
  Q 24.56 115.78 25.57 115.30
  Q 26.02 115.08 26.52 115.15
  Q 29.97 115.65 33.75 116.07
  Q 39.60 116.72 44.91 119.18
  A 2.26 2.23 -32.1 0 0 45.86 119.39
  Q 46.83 119.38 47.76 119.80
  Q 48.63 120.19 49.54 120.39
  Q 50.68 120.64 51.62 121.38
  Q 52.07 121.74 52.57 121.47
  Q 53.74 120.85 55.10 120.63
  Q 56.46 120.41 57.73 119.63
  Q 58.99 118.85 60.13 118.06
  L 64.32 117.94
  Q 64.92 117.92 64.66 117.39
  Q 64.57 117.19 64.37 116.99
  Q 65.19 116.97 65.42 116.52
  Q 65.63 116.11 66.09 116.11
  Q 66.83 116.11 66.95 117.31
  Q 67.39 118.40 70.41 117.99
  Q 71.00 117.91 71.00 117.31
  L 71.01 113.54
  Q 71.01 112.95 71.60 113.00
  Q 77.55 113.47 78.07 107.94
  Q 83.31 109.42 86.00 109.07
  Q 90.47 108.49 95.00 108.59
  Q 95.52 108.60 95.98 108.85
  Q 97.31 109.59 98.51 108.66
  Q 98.84 108.41 99.25 108.36
  Q 101.64 108.08 103.98 107.11
  Q 104.51 106.89 104.42 106.32
  Q 104.20 105.01 104.58 103.92
  A 0.08 0.08 0.0 0 1 104.73 103.92
  L 105.47 105.84
  L 106.03 108.52
  Q 106.35 112.29 106.80 116.02
  C 107.26 119.87 105.33 123.13 101.66 124.10
  Q 99.22 124.75 97.25 124.82
  Q 93.64 124.97 79.88 125.16
  Q 76.75 125.21 72.13 128.00
  L 55.63 128.00
  Q 52.59 126.04 49.01 126.19
  Q 36.67 126.69 25.55 125.54
  Q 24.03 125.38 23.12 124.21
  Q 21.42 122.00 19.40 119.97
  Q 18.27 118.83 17.37 117.29
  Q 17.13 116.89 17.13 116.42
  L 17.21 104.47
  Q 17.22 104.10 17.49 103.85
  Q 17.87 103.52 17.56 102.41
  Z"
/>
<path fill="#c32324" d="
  M 111.07 101.98
  Q 110.88 106.22 111.19 109.24
  Q 111.34 110.82 111.56 112.42
  C 111.91 114.97 111.23 116.98 111.06 119.40
  Q 110.92 121.33 110.96 123.47
  Q 111.07 128.54 108.67 128.00
  L 81.27 128.00
  Q 79.47 127.51 77.53 127.66
  Q 80.16 126.62 84.00 126.44
  Q 92.03 126.08 99.75 125.93
  C 103.39 125.86 105.05 123.58 107.21 121.03
  Q 108.25 119.81 107.97 117.36
  Q 107.33 111.61 107.20 105.05
  L 111.07 101.98
  Z"
/>
<path fill="#ffffff" d="
  M 64.37 116.99
  Q 64.57 117.19 64.66 117.39
  Q 64.92 117.92 64.32 117.94
  L 60.13 118.06
  L 57.81 114.81
  Q 57.43 114.28 57.08 114.83
  L 55.27 117.67
  A 0.69 0.68 15.9 0 1 54.69 117.99
  L 50.73 118.00
  Q 50.00 118.00 50.42 117.39
  L 54.54 111.45
  A 0.90 0.90 0.0 0 0 54.54 110.41
  L 50.56 104.79
  Q 50.00 104.00 50.97 104.00
  L 54.10 103.99
  Q 55.17 103.99 55.72 104.91
  L 57.00 107.06
  Q 57.44 107.79 57.91 107.07
  L 59.47 104.67
  Q 59.90 104.00 60.71 104.00
  L 64.18 104.00
  Q 65.03 104.00 64.54 104.69
  L 60.43 110.41
  Q 60.10 110.87 60.43 111.33
  L 64.37 116.99
  Z"
/>
<path fill="#ffffff" d="
  M 78.07 107.94
  Q 77.55 113.47 71.60 113.00
  Q 71.01 112.95 71.01 113.54
  L 71.00 117.31
  Q 71.00 117.91 70.41 117.99
  Q 67.39 118.40 66.95 117.31
  L 66.99 104.62
  A 0.58 0.57 88.4 0 1 67.52 104.05
  C 70.99 103.82 77.38 103.02 78.07 107.94
  Z
  M 71.03 107.56
  L 71.01 109.44
  A 0.54 0.54 0.0 0 0 71.55 109.98
  L 72.24 109.99
  A 1.69 1.32 0.4 0 0 73.94 108.68
  L 73.94 108.36
  A 1.69 1.32 0.4 0 0 72.26 107.03
  L 71.57 107.02
  A 0.54 0.54 0.0 0 0 71.03 107.56
  Z"
/>
<path fill="#fa9f1d" d="
  M 107.20 105.05
  Q 107.33 111.61 107.97 117.36
  Q 108.25 119.81 107.21 121.03
  C 105.05 123.58 103.39 125.86 99.75 125.93
  Q 92.03 126.08 84.00 126.44
  Q 80.16 126.62 77.53 127.66
  Q 76.69 127.71 76.37 128.00
  L 72.13 128.00
  Q 76.75 125.21 79.88 125.16
  Q 93.64 124.97 97.25 124.82
  Q 99.22 124.75 101.66 124.10
  C 105.33 123.13 107.26 119.87 106.80 116.02
  Q 106.35 112.29 106.03 108.52
  Q 106.11 109.41 106.37 109.57
  Q 106.73 109.80 106.77 109.37
  L 107.20 105.05
  Z"
/>
<path fill="#fa9f1d" d="
  M 71.03 107.56
  A 0.54 0.54 0.0 0 1 71.57 107.02
  L 72.26 107.03
  A 1.69 1.32 0.4 0 1 73.94 108.36
  L 73.94 108.68
  A 1.69 1.32 0.4 0 1 72.24 109.99
  L 71.55 109.98
  A 0.54 0.54 0.0 0 1 71.01 109.44
  L 71.03 107.56
  Z"
/>
<path fill="#6b1625" d="
  M 16.51 120.84
  Q 17.48 125.13 20.79 128.00
  L 16.12 128.00
  L 16.51 120.84
  Z"
/>
<path fill="#4e247d" d="
  M 81.27 128.00
  L 76.37 128.00
  Q 76.69 127.71 77.53 127.66
  Q 79.47 127.51 81.27 128.00
  Z"
/>
<path fill="#4e247d" d="
  M 52.26 128.00
  L 43.86 128.00
  L 52.26 128.00
  Z"
/>
</svg>
