<?xml version="1.0" encoding="UTF-8" standalone="no"?>
<!DOCTYPE svg PUBLIC "-//W3C//DTD SVG 1.1//EN" "http://www.w3.org/Graphics/SVG/1.1/DTD/svg11.dtd">
<svg xmlns="http://www.w3.org/2000/svg" version="1.1" viewBox="0.00 0.00 128.00 128.00">
<g stroke-width="2.00" fill="none" stroke-linecap="butt">
<path stroke="#257c34" vector-effect="non-scaling-stroke" d="
  M 106.92 128.00
  Q 113.00 121.73 110.78 110.49
  Q 110.44 108.79 110.87 102.16"
/>
<path stroke="#649c6e" vector-effect="non-scaling-stroke" d="
  M 110.87 102.16
  Q 109.48 100.85 107.79 99.23
  Q 106.54 98.01 105.27 96.23
  Q 104.06 94.51 102.86 93.13"
/>
<path stroke="#257c34" vector-effect="non-scaling-stroke" d="
  M 102.86 93.13
  Q 108.12 88.26 102.23 85.25
  C 100.13 84.18 99.45 83.59 97.38 84.88
  Q 93.68 87.18 94.27 90.88"
/>
<path stroke="#649c6e" vector-effect="non-scaling-stroke" d="
  M 94.27 90.88
  Q 90.64 91.19 87.51 90.98
  C 86.40 90.91 85.90 89.93 84.57 89.94
  Q 82.09 89.95 79.80 89.76"
/>
<path stroke="#288c38" vector-effect="non-scaling-stroke" d="
  M 79.80 89.76
  Q 81.14 90.16 81.95 89.65
  Q 82.36 89.39 82.85 89.30
  Q 84.15 89.06 85.44 88.75
  Q 86.36 88.52 87.93 87.66
  Q 89.31 86.91 90.67 86.29
  Q 95.70 84.02 98.34 78.55
  Q 104.43 65.93 108.77 54.20
  Q 109.15 53.17 109.63 52.22
  Q 110.18 51.12 109.74 49.98
  Q 108.72 47.37 107.54 44.67
  Q 107.13 43.74 106.53 42.94
  C 105.46 41.50 105.16 39.63 104.33 38.06
  Q 100.10 30.01 96.75 21.80
  A 3.20 3.19 -86.5 0 0 95.38 20.25
  Q 80.72 11.99 65.00 5.22
  Q 64.24 4.89 63.08 5.18"
/>
<path stroke="#3ea54e" vector-effect="non-scaling-stroke" d="
  M 63.08 5.18
  Q 49.41 10.66 36.31 19.31"
/>
<path stroke="#257c34" vector-effect="non-scaling-stroke" d="
  M 36.31 19.31
  Q 36.46 15.05 33.67 12.32
  Q 29.85 8.58 26.41 10.90
  Q 25.43 11.56 24.39 12.17
  C 22.55 13.24 20.14 15.85 21.72 18.09
  Q 23.70 20.89 26.58 23.52
  A 1.41 1.40 50.7 0 0 28.24 23.69
  L 31.11 21.97
  Q 31.61 21.67 31.84 22.20
  Q 31.95 22.44 31.86 22.75"
/>
<path stroke="#3ea54e" vector-effect="non-scaling-stroke" d="
  M 31.86 22.75
  L 25.90 34.21"
/>
<path stroke="#258435" vector-effect="non-scaling-stroke" d="
  M 25.90 34.21
  Q 22.64 41.38 19.67 48.55
  C 18.85 50.52 18.61 52.28 19.31 54.21
  C 20.91 58.60 22.54 63.21 24.63 67.32
  Q 28.13 74.20 31.88 81.02
  A 0.75 0.75 0.0 0 1 31.07 82.11
  Q 29.12 81.69 27.83 82.77"
/>
<path stroke="#649c6e" vector-effect="non-scaling-stroke" d="
  M 27.83 82.77
  L 23.75 86.01"
/>
<path stroke="#258435" vector-effect="non-scaling-stroke" d="
  M 23.75 86.01
  C 21.18 87.52 22.59 90.65 23.55 92.59
  A 0.93 0.92 -9.3 0 0 24.28 93.11
  Q 24.98 93.19 25.72 93.02"
/>
<path stroke="#649c6e" vector-effect="non-scaling-stroke" d="
  M 25.72 93.02
  L 17.61 100.75
  Q 17.39 100.97 17.08 101.02
  L 16.51 101.11
  Q 15.81 101.23 16.16 101.84
  Q 16.29 102.08 16.61 102.21"
/>
<path stroke="#388f48" vector-effect="non-scaling-stroke" d="
  M 16.61 102.21
  Q 15.97 110.08 16.90 117.18"
/>
<path stroke="#257c34" vector-effect="non-scaling-stroke" d="
  M 16.90 117.18
  Q 15.45 123.38 21.20 128.00"
/>
<path stroke="#388f48" vector-effect="non-scaling-stroke" d="
  M 36.57 4.10
  A 1.51 1.51 0.0 0 0 35.21 3.67
  L 33.85 3.92
  A 1.51 1.51 0.0 0 0 32.80 6.12
  L 33.95 8.26
  A 1.51 1.51 0.0 0 0 36.41 8.54
  L 37.61 7.19
  A 1.51 1.51 0.0 0 0 37.57 5.14
  L 36.57 4.10"
/>
<path stroke="#388f48" vector-effect="non-scaling-stroke" d="
  M 93.9545 6.6677
  A 2.35 2.35 0.0 0 0 91.1300 4.9164
  L 89.9227 5.1995
  A 2.35 2.35 0.0 0 0 88.1715 8.0241
  L 88.4455 9.1923
  A 2.35 2.35 0.0 0 0 91.2700 10.9436
  L 92.4773 10.6605
  A 2.35 2.35 0.0 0 0 94.2285 7.8359
  L 93.9545 6.6677"
/>
<path stroke="#288c38" vector-effect="non-scaling-stroke" d="
  M 94.24 14.83
  Q 93.90 15.02 93.86 15.71
  Q 93.83 16.22 94.13 16.62
  Q 96.18 19.44 99.06 21.73
  A 2.18 2.17 41.0 0 0 101.99 21.53
  L 105.54 17.80
  Q 106.26 17.05 105.82 16.10
  Q 104.86 14.00 103.20 13.00
  Q 102.79 12.75 102.56 12.32
  Q 101.79 10.85 100.35 10.72"
/>
<path stroke="#649c6e" vector-effect="non-scaling-stroke" d="
  M 100.35 10.72
  Q 99.11 10.11 97.88 11.13
  Q 95.36 13.19 94.24 14.83"
/>
<path stroke="#68d57a" vector-effect="non-scaling-stroke" d="
  M 100.35 10.72
  C 102.60 13.11 101.72 16.03 98.58 16.55
  Q 96.06 16.96 94.24 14.83"
/>
<path stroke="#388f48" vector-effect="non-scaling-stroke" d="
  M 23.4785 74.2577
  A 3.06 2.95 -6.8 0 0 20.0907 71.6908
  A 3.06 2.95 -6.8 0 0 17.4015 74.9823
  A 3.06 2.95 -6.8 0 0 20.7893 77.5492
  A 3.06 2.95 -6.8 0 0 23.4785 74.2577"
/>
<path stroke="#68d57a" vector-effect="non-scaling-stroke" d="
  M 79.80 89.76
  Q 76.44 89.18 73.45 88.26
  C 72.04 87.83 70.62 88.31 69.40 87.66
  C 67.74 86.78 65.81 86.97 64.01 86.96
  Q 62.85 86.96 61.51 87.51
  Q 58.71 88.66 56.19 88.91
  Q 54.51 89.07 51.92 89.73
  Q 49.54 90.35 47.45 89.68"
/>
<path stroke="#2abc41" vector-effect="non-scaling-stroke" d="
  M 47.45 89.68
  Q 44.50 87.66 41.56 86.24
  Q 38.98 84.99 38.02 83.95
  Q 36.49 82.27 35.83 80.29
  A 1.45 1.45 0.0 0 1 37.63 78.45
  Q 39.80 79.11 42.01 78.46
  Q 42.51 78.31 42.84 77.91
  L 49.49 70.01
  Q 49.84 69.60 49.84 69.06
  L 49.85 68.41"
/>
<path stroke="#2cd446" vector-effect="non-scaling-stroke" d="
  M 49.85 68.41
  C 50.72 69.40 51.27 69.82 52.70 69.83
  Q 54.04 69.84 55.32 70.36"
/>
<path stroke="#29b540" vector-effect="non-scaling-stroke" d="
  M 55.32 70.36
  Q 54.74 70.62 52.74 70.56
  Q 51.62 70.52 51.36 71.71
  Q 51.18 72.56 52.04 72.46
  Q 52.56 72.40 52.95 72.08
  Q 53.22 71.84 53.58 71.84
  Q 53.81 71.84 53.96 72.01
  Q 54.33 72.45 54.89 72.36
  Q 57.64 71.95 59.80 72.73
  Q 62.17 73.58 63.44 75.60
  Q 64.16 76.76 65.16 77.78
  Q 66.13 78.78 66.71 80.14
  Q 66.92 80.62 67.41 80.79
  Q 70.77 81.93 74.13 80.18
  Q 74.53 79.97 74.99 79.96
  C 76.39 79.92 77.43 79.36 78.85 79.37
  Q 84.99 79.43 91.18 78.95
  Q 91.73 78.91 91.89 78.38
  Q 92.11 77.66 92.51 76.97
  Q 93.02 76.11 93.10 74.92
  Q 93.42 69.89 94.77 65.56
  A 1.32 1.31 89.3 0 0 93.10 63.92
  L 88.71 65.40
  Q 88.29 65.54 88.13 65.96
  Q 87.43 67.78 86.03 69.41
  C 84.85 70.80 84.91 72.39 85.59 73.98
  A 0.67 0.67 0.0 0 1 85.29 74.83
  L 85.02 74.97
  A 1.10 1.09 -30.2 0 1 83.58 74.60
  Q 82.85 73.45 81.45 72.72
  Q 80.80 72.38 81.54 72.38
  L 82.02 72.38
  Q 82.49 72.38 82.57 71.92
  Q 82.91 69.98 84.49 68.25"
/>
<path stroke="#2cd446" vector-effect="non-scaling-stroke" d="
  M 84.49 68.25
  Q 85.95 67.27 87.16 65.96
  Q 87.81 65.26 88.60 64.90
  C 90.05 64.26 91.18 63.63 92.83 63.51
  Q 94.31 63.41 95.47 62.35
  A 1.26 1.26 0.0 0 0 95.26 60.34
  Q 94.17 59.69 93.27 60.54
  A 1.33 1.29 -71.3 0 1 92.59 60.89
  Q 89.43 61.48 88.04 58.43
  Q 88.00 58.35 87.95 58.28
  Q 87.82 58.11 87.66 58.13
  Q 87.27 58.16 87.00 57.87
  Q 85.27 55.98 85.62 53.24
  C 85.98 50.30 86.23 47.11 85.13 44.28
  C 84.32 42.20 84.07 40.37 82.85 38.39
  Q 80.78 34.99 78.91 31.48
  Q 77.63 29.08 73.87 28.33"
/>
<path stroke="#43de5a" vector-effect="non-scaling-stroke" d="
  M 73.87 28.33
  L 69.72 27.92
  Q 69.21 27.87 69.06 28.36
  Q 69.01 28.53 69.09 28.72
  Q 69.34 29.30 68.73 29.12
  Q 68.48 29.04 68.31 29.24
  Q 68.09 29.49 68.01 29.81
  Q 67.94 30.05 67.75 30.20
  Q 67.10 30.72 67.52 30.00
  Q 67.65 29.78 67.63 29.54
  Q 67.59 29.07 67.17 28.85
  Q 65.97 28.21 64.76 28.50"
/>
<path stroke="#68d57a" vector-effect="non-scaling-stroke" d="
  M 64.76 28.50
  Q 64.24 28.06 62.75 28.14
  Q 62.35 28.16 61.96 27.86
  Q 61.57 27.55 62.02 27.34
  Q 62.34 27.19 62.59 26.93"
/>
<path stroke="#8fe09b" vector-effect="non-scaling-stroke" d="
  M 62.59 26.93
  Q 64.61 26.86 66.70 26.87
  Q 68.37 26.89 70.76 26.46
  C 74.17 25.86 75.80 26.40 78.66 28.74"
/>
<path stroke="#43de5a" vector-effect="non-scaling-stroke" d="
  M 78.66 28.74
  Q 81.45 32.51 83.93 36.60
  Q 85.05 38.44 85.44 36.33
  Q 85.46 36.23 85.39 35.51
  Q 85.35 35.11 85.49 34.73
  Q 86.60 31.82 87.79 28.93
  Q 87.99 28.45 88.41 28.16
  Q 89.05 27.72 89.51 27.07
  A 0.70 0.70 0.0 0 0 89.10 25.99
  L 78.81 23.48"
/>
<path stroke="#8fe09b" vector-effect="non-scaling-stroke" d="
  M 78.81 23.48
  Q 78.13 23.25 77.73 22.74"
/>
<path stroke="#43de5a" vector-effect="non-scaling-stroke" d="
  M 77.73 22.74
  Q 72.26 16.90 66.60 11.35
  C 65.62 10.40 64.92 9.11 64.27 7.92
  Q 64.10 7.59 64.08 7.21
  Q 64.06 6.78 64.26 6.41
  A 0.92 0.91 47.5 0 0 64.29 5.61
  Q 63.99 4.93 63.08 5.18"
/>
<path stroke="#27a83d" vector-effect="non-scaling-stroke" d="
  M 95.30 40.54
  Q 94.71 39.35 93.37 39.15
  A 1.05 1.04 21.5 0 0 92.35 39.59
  Q 91.72 40.52 90.76 41.04
  Q 89.97 41.47 89.48 42.25
  Q 86.44 47.13 87.21 53.46
  A 0.53 0.52 -29.2 0 0 88.14 53.72
  Q 90.43 50.81 93.72 49.71
  Q 96.93 48.63 100.53 48.02
  A 0.95 0.95 0.0 0 0 101.32 46.97
  Q 101.08 44.98 99.41 43.97
  A 1.45 1.37 2.6 0 1 98.90 43.44
  Q 97.84 41.50 95.65 40.84
  Q 95.41 40.77 95.30 40.54"
/>
<path stroke="#a6fab1" vector-effect="non-scaling-stroke" d="
  M 77.73 22.74
  Q 76.91 22.19 76.21 22.07
  Q 75.73 22.00 75.42 22.37
  Q 72.92 25.45 67.77 25.62
  Q 62.40 25.79 58.65 25.05
  Q 57.19 24.76 55.78 24.55
  C 53.71 24.24 52.14 23.28 50.45 22.16
  A 0.91 0.89 -41.4 0 0 49.53 22.11
  Q 43.64 25.11 37.36 24.97
  A 0.87 0.86 6.5 0 0 36.50 25.65
  C 35.63 29.76 34.39 34.22 32.18 37.77
  Q 31.46 38.91 32.44 39.42"
/>
<path stroke="#40d657" vector-effect="non-scaling-stroke" d="
  M 32.44 39.42
  L 22.62 46.69
  Q 22.24 46.96 22.32 46.50
  Q 22.67 44.47 23.34 42.66
  Q 23.41 42.47 23.61 42.42
  Q 23.96 42.34 24.04 41.99
  L 25.90 34.21"
/>
<path stroke="#40ce56" vector-effect="non-scaling-stroke" d="
  M 31.86 22.75
  L 36.31 19.31"
/>
<path stroke="#65c576" vector-effect="non-scaling-stroke" d="
  M 24.06 13.33
  Q 22.87 14.01 22.57 14.99
  A 1.52 1.51 -73.4 0 0 23.59 16.88
  L 28.87 18.44
  A 1.37 1.37 0.0 0 0 30.60 16.86
  L 29.66 12.19
  A 1.58 1.57 65.3 0 0 27.15 11.25
  Q 25.62 12.45 24.06 13.33"
/>
<path stroke="#a6fab1" vector-effect="non-scaling-stroke" d="
  M 78.81 23.48
  Q 82.32 25.81 78.66 28.74"
/>
<path stroke="#cbf1d1" vector-effect="non-scaling-stroke" d="
  M 62.59 26.93
  Q 61.54 26.38 60.13 26.67
  Q 59.55 26.79 59.69 27.37
  Q 59.78 27.74 60.18 27.79
  Q 60.28 27.81 60.21 27.87
  L 59.91 28.18
  Q 59.57 28.51 59.13 28.34
  Q 56.95 27.50 54.23 27.50
  Q 53.37 27.50 54.13 27.90
  L 55.97 28.85
  Q 56.55 29.15 56.46 29.80
  Q 55.68 35.90 49.93 38.68
  Q 47.29 39.96 44.52 38.91
  Q 43.99 38.71 43.51 38.99
  Q 41.52 40.14 41.24 41.76
  Q 40.52 45.94 39.90 47.22"
/>
<path stroke="#8dd898" vector-effect="non-scaling-stroke" d="
  M 39.90 47.22
  Q 37.07 42.68 32.44 39.42"
/>
<path stroke="#7fee90" vector-effect="non-scaling-stroke" d="
  M 64.76 28.50
  Q 65.39 29.00 65.56 29.49
  Q 65.68 29.84 65.42 30.11
  Q 60.87 34.96 55.58 39.16
  Q 54.03 40.40 52.18 41.41
  Q 50.40 42.38 48.57 42.96
  Q 46.86 43.49 45.22 44.34
  A 2.58 2.57 35.1 0 1 43.65 44.61
  Q 43.02 44.53 42.46 44.68
  Q 41.83 44.86 41.86 45.51
  L 42.10 49.73"
/>
<path stroke="#68e57c" vector-effect="non-scaling-stroke" d="
  M 42.10 49.73
  Q 42.06 52.87 41.37 51.84"
/>
<path stroke="#66cd77" vector-effect="non-scaling-stroke" d="
  M 41.37 51.84
  L 39.90 47.22"
/>
<path stroke="#42ee5c" vector-effect="non-scaling-stroke" d="
  M 73.87 28.33
  Q 71.59 27.60 72.08 32.35
  A 1.11 1.11 0.0 0 1 71.75 33.25
  Q 69.85 35.14 69.25 37.23
  Q 68.77 38.93 67.56 40.40
  Q 66.08 42.21 64.67 43.91
  Q 64.33 44.31 63.80 44.32
  Q 63.18 44.32 62.75 44.77
  Q 62.17 45.36 61.42 45.73
  Q 59.82 46.51 58.25 47.24
  C 56.07 48.25 52.87 47.94 50.56 47.82
  Q 48.62 47.71 46.46 46.75
  A 1.88 1.87 -51.5 0 0 44.58 46.97
  Q 43.11 48.07 42.10 49.73"
/>
<path stroke="#42ee5c" vector-effect="non-scaling-stroke" d="
  M 84.49 68.25
  L 87.75 63.96
  Q 88.16 63.42 87.55 63.13
  Q 85.40 62.09 83.21 62.07
  Q 82.69 62.07 82.31 62.41
  Q 78.97 65.39 75.04 68.31
  Q 73.42 69.51 72.00 69.32
  Q 67.08 68.65 65.40 70.86"
/>
<path stroke="#29c541" vector-effect="non-scaling-stroke" d="
  M 65.40 70.86
  L 55.32 70.36"
/>
<path stroke="#29cc43" vector-effect="non-scaling-stroke" d="
  M 49.85 68.41
  L 44.13 62.83
  Q 43.73 62.44 43.18 62.43
  Q 42.13 62.40 41.38 63.33
  Q 40.94 63.88 40.26 64.07
  Q 38.78 64.49 37.32 64.77
  Q 36.53 64.93 36.22 65.69
  A 0.90 0.89 32.9 0 1 34.78 65.99
  L 24.74 56.49
  A 1.33 1.33 0.0 0 1 25.19 54.28
  Q 26.81 53.68 28.64 54.53
  Q 32.79 56.47 37.08 57.36
  Q 37.56 57.47 37.76 57.92
  Q 38.44 59.49 37.81 61.40
  A 0.94 0.94 0.0 0 0 39.14 62.52
  Q 42.45 60.74 42.11 56.75
  Q 41.89 54.23 41.37 51.84"
/>
<path stroke="#66cd77" vector-effect="non-scaling-stroke" d="
  M 47.45 89.68
  L 45.16 90.17"
/>
<path stroke="#258435" vector-effect="non-scaling-stroke" d="
  M 45.16 90.17
  Q 44.02 89.14 42.36 88.74
  Q 41.87 88.63 41.48 88.30
  Q 40.45 87.44 39.16 87.26
  A 1.55 1.53 74.8 0 1 38.18 86.69
  Q 37.61 85.98 36.72 86.11
  Q 36.22 86.18 36.20 86.68
  L 36.08 90.91"
/>
<path stroke="#66cd77" vector-effect="non-scaling-stroke" d="
  M 36.08 90.91
  L 29.06 90.70
  A 1.22 1.21 6.4 0 0 27.83 91.67
  Q 27.58 92.86 25.72 93.02"
/>
<path stroke="#66cd77" vector-effect="non-scaling-stroke" d="
  M 23.75 86.01
  Q 23.76 86.96 23.22 88.36
  A 1.36 1.36 0.0 0 0 24.57 90.21
  L 30.64 89.85
  Q 31.08 89.83 31.20 89.40
  Q 32.07 86.24 29.90 84.02
  Q 29.69 83.80 29.80 83.51
  Q 29.96 83.06 29.48 82.99
  L 27.83 82.77"
/>
<path stroke="#27ad3d" vector-effect="non-scaling-stroke" d="
  M 45.57 65.50
  Q 45.33 65.14 44.94 65.07
  Q 41.79 64.45 38.42 65.07
  A 2.45 2.43 0.7 0 0 36.48 66.95
  Q 35.79 70.11 37.04 73.55
  Q 37.21 73.99 37.63 74.21
  Q 41.40 76.18 45.36 73.73
  Q 45.78 73.47 45.97 73.01
  Q 46.25 72.32 46.92 72.02
  A 3.11 2.54 -22.5 0 0 48.72 68.68
  Q 48.08 66.77 46.10 65.93
  Q 45.78 65.79 45.57 65.50"
/>
<path stroke="#40ce56" vector-effect="non-scaling-stroke" d="
  M 84.49 68.25
  Q 82.58 69.25 81.72 71.18
  Q 81.47 71.75 80.92 71.48
  Q 79.98 71.02 79.42 70.30
  Q 79.08 69.87 78.54 69.87
  L 75.74 69.87
  Q 75.26 69.87 74.94 70.23
  Q 74.67 70.53 74.12 70.61
  Q 69.43 71.34 65.40 70.86"
/>
<path stroke="#65c576" vector-effect="non-scaling-stroke" d="
  M 102.86 93.13
  Q 100.77 91.67 101.01 89.82
  Q 101.13 88.92 101.12 88.21
  Q 101.08 86.29 98.93 86.55
  Q 96.07 86.89 96.20 90.03
  Q 96.22 90.57 95.68 90.66
  L 94.27 90.88"
/>
<path stroke="#649c6e" vector-effect="non-scaling-stroke" d="
  M 45.16 90.17
  Q 44.89 90.90 44.50 90.94
  Q 41.19 91.20 36.08 90.91"
/>
<path stroke="#65c576" vector-effect="non-scaling-stroke" d="
  M 110.87 102.16
  L 107.38 104.59
  Q 106.95 104.88 106.99 105.40
  Q 107.32 110.64 107.45 115.28
  Q 107.49 116.72 108.15 118.08
  Q 108.38 118.54 108.18 119.01
  Q 106.65 122.65 103.43 124.80
  C 101.93 125.81 100.03 125.85 98.25 125.88
  Q 90.37 126.02 83.00 126.36
  Q 81.94 126.41 81.14 127.36"
/>
<path stroke="#649c6e" vector-effect="non-scaling-stroke" d="
  M 81.14 127.36
  Q 79.01 126.99 76.35 128.00"
/>
<path stroke="#79d88a" vector-effect="non-scaling-stroke" d="
  M 72.20 128.00
  Q 74.70 127.01 76.96 126.20
  Q 79.31 125.36 81.92 125.28
  Q 89.42 125.05 97.25 125.11
  Q 102.65 125.14 105.94 120.92
  Q 107.05 119.50 106.96 117.85
  Q 106.65 112.29 105.88 105.17
  Q 105.63 102.91 104.37 101.22
  C 102.78 99.08 101.02 95.78 98.05 95.62
  Q 92.35 95.30 85.08 95.38
  C 81.23 95.43 77.60 94.71 73.82 94.17
  Q 71.45 93.82 69.56 92.94
  Q 67.69 92.07 65.12 92.09
  Q 63.47 92.10 62.10 92.86
  Q 59.74 94.16 56.75 94.39
  Q 52.49 94.71 47.98 95.51
  Q 43.98 96.22 40.05 96.16
  Q 35.68 96.10 31.65 96.16
  Q 31.60 96.16 31.58 96.11
  Q 31.56 96.06 31.60 96.02
  Q 31.63 95.98 31.68 95.99
  Q 38.52 96.16 45.29 95.72
  Q 45.35 95.71 45.35 95.65
  L 45.34 95.65
  Q 45.33 95.42 45.10 95.44
  Q 39.48 96.10 33.01 95.85
  Q 31.58 95.80 30.12 96.18
  Q 28.86 96.50 28.06 97.34
  Q 25.79 99.73 23.62 102.55
  Q 22.16 104.46 22.09 106.66
  Q 21.90 112.17 21.96 118.12
  Q 21.96 118.43 21.66 118.40
  L 21.39 118.38
  A 0.61 0.61 0.0 0 1 20.83 117.76
  Q 20.95 109.01 19.88 104.51
  Q 19.37 102.41 16.61 102.21"
/>
<path stroke="#388f48" vector-effect="non-scaling-stroke" d="
  M 55.15 128.00
  Q 54.78 127.59 53.95 127.81"
/>
<path stroke="#3ab850" vector-effect="non-scaling-stroke" d="
  M 53.95 127.81
  L 53.87 127.25
  Q 53.79 126.64 53.17 126.58
  Q 45.14 125.85 37.08 126.18
  Q 32.06 126.38 24.99 125.49
  Q 24.49 125.43 24.15 125.06
  L 16.90 117.18"
/>
<path stroke="#a5e5b2" vector-effect="non-scaling-stroke" d="
  M 40.54 107.07
  L 44.74 106.99
  Q 44.95 106.98 44.95 106.77
  L 44.95 106.35
  Q 44.95 106.00 44.60 106.00
  L 38.75 105.98
  Q 37.99 105.98 37.99 106.75
  L 38.00 109.30
  A 0.79 0.79 0.0 0 0 38.93 110.07
  C 44.66 109.00 43.96 116.15 39.51 114.81
  A 1.08 1.07 84.6 0 1 38.86 114.27
  Q 38.73 114.02 38.73 113.74
  Q 38.74 113.07 38.08 112.95
  Q 37.20 112.79 36.94 113.85
  A 1.53 1.52 14.8 0 0 38.02 115.69
  C 46.05 117.91 47.22 108.64 40.84 108.95
  Q 40.00 108.99 39.96 108.14
  L 39.95 107.71
  A 0.61 0.61 0.0 0 1 40.54 107.07"
/>
<path stroke="#a5e5b2" vector-effect="non-scaling-stroke" d="
  M 54.9610 109.6822
  A 3.62 3.62 0.0 0 0 51.3983 106.0058
  L 50.7384 105.9954
  A 3.62 3.62 0.0 0 0 47.0620 109.5581
  L 47.0190 112.2978
  A 3.62 3.62 0.0 0 0 50.5817 115.9742
  L 51.2416 115.9846
  A 3.62 3.62 0.0 0 0 54.9180 112.4219
  L 54.9610 109.6822"
/>
<path stroke="#a5e5b2" vector-effect="non-scaling-stroke" d="
  M 31.87 110.19
  A 0.62 0.62 0.0 0 1 31.11 110.19
  L 28.56 108.22
  A 0.62 0.62 0.0 0 0 27.69 109.10
  L 29.67 111.63
  A 0.62 0.62 0.0 0 1 29.67 112.39
  L 27.70 114.94
  A 0.62 0.62 0.0 0 0 28.58 115.81
  L 31.11 113.83
  A 0.62 0.62 0.0 0 1 31.87 113.83
  L 34.42 115.80
  A 0.62 0.62 0.0 0 0 35.29 114.92
  L 33.31 112.39
  A 0.62 0.62 0.0 0 1 33.31 111.63
  L 35.28 109.08
  A 0.62 0.62 0.0 0 0 34.40 108.21
  L 31.87 110.19"
/>
<path stroke="#a5e5b2" vector-effect="non-scaling-stroke" d="
  M 67.71 116.85
  A 1.49 1.48 6.1 0 1 66.34 117.95
  L 63.30 118.09
  A 0.24 0.24 0.0 0 0 63.07 118.31
  L 63.04 118.61
  Q 63.01 118.91 63.30 118.95
  C 66.31 119.39 69.95 119.05 69.98 115.25
  Q 70.01 111.68 69.99 108.64
  Q 69.98 107.77 69.13 107.97
  Q 67.85 108.27 66.61 108.06
  C 63.94 107.59 61.74 109.70 62.03 112.35
  Q 62.56 117.24 67.21 115.36
  Q 68.22 114.96 67.93 116.01
  L 67.71 116.85"
/>
<path stroke="#a5e5b2" vector-effect="non-scaling-stroke" d="
  M 74.87 112.14
  L 77.76 112.07
  Q 79.28 112.03 78.89 110.56
  L 78.71 109.90
  Q 78.28 108.28 76.61 108.09
  Q 72.51 107.61 72.11 111.57
  C 71.70 115.61 75.56 117.04 78.74 115.26
  Q 79.00 115.12 79.00 114.82
  L 78.99 114.27
  Q 78.99 113.46 78.35 113.95
  Q 77.28 114.78 76.03 114.87
  Q 74.85 114.97 74.44 113.85
  L 74.18 113.14
  Q 73.83 112.17 74.87 112.14"
/>
<path stroke="#a5e5b2" vector-effect="non-scaling-stroke" d="
  M 83.1837 108.6209
  A 0.60 0.60 0.0 0 0 82.6007 108.0044
  L 81.6810 107.9787
  A 0.60 0.60 0.0 0 0 81.0645 108.5617
  L 80.8763 115.2991
  A 0.60 0.60 0.0 0 0 81.4593 115.9156
  L 82.3790 115.9413
  A 0.60 0.60 0.0 0 0 82.9955 115.3583
  L 83.1837 108.6209"
/>
<path stroke="#a5e5b2" vector-effect="non-scaling-stroke" d="
  M 85.95 110.21
  L 86.15 115.57
  A 0.50 0.49 5.2 0 0 86.55 116.04
  L 86.89 116.11
  A 0.80 0.80 0.0 0 0 87.85 115.35
  L 88.05 109.44
  A 0.87 0.85 14.5 0 0 87.57 108.64
  Q 86.28 108.00 84.86 108.06
  Q 83.16 108.13 84.66 108.95
  Q 84.96 109.11 85.28 109.24
  Q 85.93 109.51 85.95 110.21"
/>
<path stroke="#a5e5b2" vector-effect="non-scaling-stroke" d="
  M 90.87 110.05
  L 91.05 115.18
  Q 91.07 115.78 91.67 115.88
  L 92.06 115.94
  A 0.72 0.72 0.0 0 0 92.89 115.32
  Q 93.29 112.24 92.60 109.21
  Q 92.45 108.58 91.85 108.33
  Q 90.14 107.64 88.85 108.49
  Q 88.19 108.93 88.98 108.91
  Q 89.84 108.89 90.46 109.31
  A 0.96 0.95 16.3 0 1 90.87 110.05"
/>
<path stroke="#a5e5b2" vector-effect="non-scaling-stroke" d="
  M 97.32 110.57
  A 0.66 0.66 0.0 0 1 97.36 109.41
  Q 98.84 108.68 100.32 109.75
  A 0.32 0.32 0.0 0 0 100.82 109.57
  L 100.90 109.19
  A 0.52 0.52 0.0 0 0 100.63 108.60
  C 98.32 107.41 93.53 108.15 95.55 111.94
  Q 95.83 112.47 96.41 112.62
  L 98.42 113.16
  A 0.88 0.88 0.0 0 1 98.47 114.85
  Q 97.26 115.26 95.87 114.41
  Q 94.88 113.80 95.18 114.93
  Q 95.36 115.62 96.15 115.83
  C 98.14 116.36 100.82 115.97 100.90 113.45
  C 100.97 111.00 98.74 111.42 97.32 110.57"
/>
<path stroke="#257c34" vector-effect="non-scaling-stroke" d="
  M 98.76 128.00
  L 81.14 127.36"
/>
<path stroke="#a5e5b2" vector-effect="non-scaling-stroke" d="
  M 50.9929 115.0800
  A 4.09 2.08 90.1 0 0 53.0800 110.9936
  A 4.09 2.08 90.1 0 0 51.0071 106.9000
  A 4.09 2.08 90.1 0 0 48.9200 110.9864
  A 4.09 2.08 90.1 0 0 50.9929 115.0800"
/>
<path stroke="#a5e5b2" vector-effect="non-scaling-stroke" d="
  M 68.08 110.41
  A 1.35 1.35 0.0 0 0 66.21 109.07
  L 65.02 109.57
  A 1.35 1.35 0.0 0 0 64.20 110.78
  L 64.15 113.44
  A 1.35 1.35 0.0 0 0 65.42 114.82
  L 66.42 114.87
  A 1.35 1.35 0.0 0 0 67.84 113.63
  L 68.08 110.41"
/>
<path stroke="#a5e5b2" vector-effect="non-scaling-stroke" d="
  M 76.86 109.90
  C 76.22 108.50 74.26 109.05 74.15 110.38
  Q 74.10 111.01 74.73 111.01
  L 76.14 111.01
  Q 77.36 111.02 76.86 109.90"
/>
<path stroke="#257c34" vector-effect="non-scaling-stroke" d="
  M 53.95 127.81
  L 29.88 128.00"
/>
</g>
<path fill="#23532c" d="
  M 0.00 0.00
  L 128.00 0.00
  L 128.00 128.00
  L 106.92 128.00
  Q 113.00 121.73 110.78 110.49
  Q 110.44 108.79 110.87 102.16
  Q 109.48 100.85 107.79 99.23
  Q 106.54 98.01 105.27 96.23
  Q 104.06 94.51 102.86 93.13
  Q 108.12 88.26 102.23 85.25
  C 100.13 84.18 99.45 83.59 97.38 84.88
  Q 93.68 87.18 94.27 90.88
  Q 90.64 91.19 87.51 90.98
  C 86.40 90.91 85.90 89.93 84.57 89.94
  Q 82.09 89.95 79.80 89.76
  Q 81.14 90.16 81.95 89.65
  Q 82.36 89.39 82.85 89.30
  Q 84.15 89.06 85.44 88.75
  Q 86.36 88.52 87.93 87.66
  Q 89.31 86.91 90.67 86.29
  Q 95.70 84.02 98.34 78.55
  Q 104.43 65.93 108.77 54.20
  Q 109.15 53.17 109.63 52.22
  Q 110.18 51.12 109.74 49.98
  Q 108.72 47.37 107.54 44.67
  Q 107.13 43.74 106.53 42.94
  C 105.46 41.50 105.16 39.63 104.33 38.06
  Q 100.10 30.01 96.75 21.80
  A 3.20 3.19 -86.5 0 0 95.38 20.25
  Q 80.72 11.99 65.00 5.22
  Q 64.24 4.89 63.08 5.18
  Q 49.41 10.66 36.31 19.31
  Q 36.46 15.05 33.67 12.32
  Q 29.85 8.58 26.41 10.90
  Q 25.43 11.56 24.39 12.17
  C 22.55 13.24 20.14 15.85 21.72 18.09
  Q 23.70 20.89 26.58 23.52
  A 1.41 1.40 50.7 0 0 28.24 23.69
  L 31.11 21.97
  Q 31.61 21.67 31.84 22.20
  Q 31.95 22.44 31.86 22.75
  L 25.90 34.21
  Q 22.64 41.38 19.67 48.55
  C 18.85 50.52 18.61 52.28 19.31 54.21
  C 20.91 58.60 22.54 63.21 24.63 67.32
  Q 28.13 74.20 31.88 81.02
  A 0.75 0.75 0.0 0 1 31.07 82.11
  Q 29.12 81.69 27.83 82.77
  L 23.75 86.01
  C 21.18 87.52 22.59 90.65 23.55 92.59
  A 0.93 0.92 -9.3 0 0 24.28 93.11
  Q 24.98 93.19 25.72 93.02
  L 17.61 100.75
  Q 17.39 100.97 17.08 101.02
  L 16.51 101.11
  Q 15.81 101.23 16.16 101.84
  Q 16.29 102.08 16.61 102.21
  Q 15.97 110.08 16.90 117.18
  Q 15.45 123.38 21.20 128.00
  L 0.00 128.00
  L 0.00 0.00
  Z
  M 36.57 4.10
  A 1.51 1.51 0.0 0 0 35.21 3.67
  L 33.85 3.92
  A 1.51 1.51 0.0 0 0 32.80 6.12
  L 33.95 8.26
  A 1.51 1.51 0.0 0 0 36.41 8.54
  L 37.61 7.19
  A 1.51 1.51 0.0 0 0 37.57 5.14
  L 36.57 4.10
  Z
  M 93.9545 6.6677
  A 2.35 2.35 0.0 0 0 91.1300 4.9164
  L 89.9227 5.1995
  A 2.35 2.35 0.0 0 0 88.1715 8.0241
  L 88.4455 9.1923
  A 2.35 2.35 0.0 0 0 91.2700 10.9436
  L 92.4773 10.6605
  A 2.35 2.35 0.0 0 0 94.2285 7.8359
  L 93.9545 6.6677
  Z
  M 94.24 14.83
  Q 93.90 15.02 93.86 15.71
  Q 93.83 16.22 94.13 16.62
  Q 96.18 19.44 99.06 21.73
  A 2.18 2.17 41.0 0 0 101.99 21.53
  L 105.54 17.80
  Q 106.26 17.05 105.82 16.10
  Q 104.86 14.00 103.20 13.00
  Q 102.79 12.75 102.56 12.32
  Q 101.79 10.85 100.35 10.72
  Q 99.11 10.11 97.88 11.13
  Q 95.36 13.19 94.24 14.83
  Z
  M 23.4785 74.2577
  A 3.06 2.95 -6.8 0 0 20.0907 71.6908
  A 3.06 2.95 -6.8 0 0 17.4015 74.9823
  A 3.06 2.95 -6.8 0 0 20.7893 77.5492
  A 3.06 2.95 -6.8 0 0 23.4785 74.2577
  Z"
/>
<path fill="#4dcb64" d="
  M 36.57 4.10
  L 37.57 5.14
  A 1.51 1.51 0.0 0 1 37.61 7.19
  L 36.41 8.54
  A 1.51 1.51 0.0 0 1 33.95 8.26
  L 32.80 6.12
  A 1.51 1.51 0.0 0 1 33.85 3.92
  L 35.21 3.67
  A 1.51 1.51 0.0 0 1 36.57 4.10
  Z"
/>
<path fill="#2cc444" d="
  M 79.80 89.76
  Q 76.44 89.18 73.45 88.26
  C 72.04 87.83 70.62 88.31 69.40 87.66
  C 67.74 86.78 65.81 86.97 64.01 86.96
  Q 62.85 86.96 61.51 87.51
  Q 58.71 88.66 56.19 88.91
  Q 54.51 89.07 51.92 89.73
  Q 49.54 90.35 47.45 89.68
  Q 44.50 87.66 41.56 86.24
  Q 38.98 84.99 38.02 83.95
  Q 36.49 82.27 35.83 80.29
  A 1.45 1.45 0.0 0 1 37.63 78.45
  Q 39.80 79.11 42.01 78.46
  Q 42.51 78.31 42.84 77.91
  L 49.49 70.01
  Q 49.84 69.60 49.84 69.06
  L 49.85 68.41
  C 50.72 69.40 51.27 69.82 52.70 69.83
  Q 54.04 69.84 55.32 70.36
  Q 54.74 70.62 52.74 70.56
  Q 51.62 70.52 51.36 71.71
  Q 51.18 72.56 52.04 72.46
  Q 52.56 72.40 52.95 72.08
  Q 53.22 71.84 53.58 71.84
  Q 53.81 71.84 53.96 72.01
  Q 54.33 72.45 54.89 72.36
  Q 57.64 71.95 59.80 72.73
  Q 62.17 73.58 63.44 75.60
  Q 64.16 76.76 65.16 77.78
  Q 66.13 78.78 66.71 80.14
  Q 66.92 80.62 67.41 80.79
  Q 70.77 81.93 74.13 80.18
  Q 74.53 79.97 74.99 79.96
  C 76.39 79.92 77.43 79.36 78.85 79.37
  Q 84.99 79.43 91.18 78.95
  Q 91.73 78.91 91.89 78.38
  Q 92.11 77.66 92.51 76.97
  Q 93.02 76.11 93.10 74.92
  Q 93.42 69.89 94.77 65.56
  A 1.32 1.31 89.3 0 0 93.10 63.92
  L 88.71 65.40
  Q 88.29 65.54 88.13 65.96
  Q 87.43 67.78 86.03 69.41
  C 84.85 70.80 84.91 72.39 85.59 73.98
  A 0.67 0.67 0.0 0 1 85.29 74.83
  L 85.02 74.97
  A 1.10 1.09 -30.2 0 1 83.58 74.60
  Q 82.85 73.45 81.45 72.72
  Q 80.80 72.38 81.54 72.38
  L 82.02 72.38
  Q 82.49 72.38 82.57 71.92
  Q 82.91 69.98 84.49 68.25
  Q 85.95 67.27 87.16 65.96
  Q 87.81 65.26 88.60 64.90
  C 90.05 64.26 91.18 63.63 92.83 63.51
  Q 94.31 63.41 95.47 62.35
  A 1.26 1.26 0.0 0 0 95.26 60.34
  Q 94.17 59.69 93.27 60.54
  A 1.33 1.29 -71.3 0 1 92.59 60.89
  Q 89.43 61.48 88.04 58.43
  Q 88.00 58.35 87.95 58.28
  Q 87.82 58.11 87.66 58.13
  Q 87.27 58.16 87.00 57.87
  Q 85.27 55.98 85.62 53.24
  C 85.98 50.30 86.23 47.11 85.13 44.28
  C 84.32 42.20 84.07 40.37 82.85 38.39
  Q 80.78 34.99 78.91 31.48
  Q 77.63 29.08 73.87 28.33
  L 69.72 27.92
  Q 69.21 27.87 69.06 28.36
  Q 69.01 28.53 69.09 28.72
  Q 69.34 29.30 68.73 29.12
  Q 68.48 29.04 68.31 29.24
  Q 68.09 29.49 68.01 29.81
  Q 67.94 30.05 67.75 30.20
  Q 67.10 30.72 67.52 30.00
  Q 67.65 29.78 67.63 29.54
  Q 67.59 29.07 67.17 28.85
  Q 65.97 28.21 64.76 28.50
  Q 64.24 28.06 62.75 28.14
  Q 62.35 28.16 61.96 27.86
  Q 61.57 27.55 62.02 27.34
  Q 62.34 27.19 62.59 26.93
  Q 64.61 26.86 66.70 26.87
  Q 68.37 26.89 70.76 26.46
  C 74.17 25.86 75.80 26.40 78.66 28.74
  Q 81.45 32.51 83.93 36.60
  Q 85.05 38.44 85.44 36.33
  Q 85.46 36.23 85.39 35.51
  Q 85.35 35.11 85.49 34.73
  Q 86.60 31.82 87.79 28.93
  Q 87.99 28.45 88.41 28.16
  Q 89.05 27.72 89.51 27.07
  A 0.70 0.70 0.0 0 0 89.10 25.99
  L 78.81 23.48
  Q 78.13 23.25 77.73 22.74
  Q 72.26 16.90 66.60 11.35
  C 65.62 10.40 64.92 9.11 64.27 7.92
  Q 64.10 7.59 64.08 7.21
  Q 64.06 6.78 64.26 6.41
  A 0.92 0.91 47.5 0 0 64.29 5.61
  Q 63.99 4.93 63.08 5.18
  Q 64.24 4.89 65.00 5.22
  Q 80.72 11.99 95.38 20.25
  A 3.20 3.19 -86.5 0 1 96.75 21.80
  Q 100.10 30.01 104.33 38.06
  C 105.16 39.63 105.46 41.50 106.53 42.94
  Q 107.13 43.74 107.54 44.67
  Q 108.72 47.37 109.74 49.98
  Q 110.18 51.12 109.63 52.22
  Q 109.15 53.17 108.77 54.20
  Q 104.43 65.93 98.34 78.55
  Q 95.70 84.02 90.67 86.29
  Q 89.31 86.91 87.93 87.66
  Q 86.36 88.52 85.44 88.75
  Q 84.15 89.06 82.85 89.30
  Q 82.36 89.39 81.95 89.65
  Q 81.14 90.16 79.80 89.76
  Z
  M 95.30 40.54
  Q 94.71 39.35 93.37 39.15
  A 1.05 1.04 21.5 0 0 92.35 39.59
  Q 91.72 40.52 90.76 41.04
  Q 89.97 41.47 89.48 42.25
  Q 86.44 47.13 87.21 53.46
  A 0.53 0.52 -29.2 0 0 88.14 53.72
  Q 90.43 50.81 93.72 49.71
  Q 96.93 48.63 100.53 48.02
  A 0.95 0.95 0.0 0 0 101.32 46.97
  Q 101.08 44.98 99.41 43.97
  A 1.45 1.37 2.6 0 1 98.90 43.44
  Q 97.84 41.50 95.65 40.84
  Q 95.41 40.77 95.30 40.54
  Z"
/>
<rect fill="#4dcb64" x="-2.97" y="-2.95" transform="translate(91.20,7.93) rotate(-13.2)" width="5.94" height="5.90" rx="2.35"/>
<path fill="#59f770" d="
  M 63.08 5.18
  Q 63.99 4.93 64.29 5.61
  A 0.92 0.91 47.5 0 1 64.26 6.41
  Q 64.06 6.78 64.08 7.21
  Q 64.10 7.59 64.27 7.92
  C 64.92 9.11 65.62 10.40 66.60 11.35
  Q 72.26 16.90 77.73 22.74
  Q 76.91 22.19 76.21 22.07
  Q 75.73 22.00 75.42 22.37
  Q 72.92 25.45 67.77 25.62
  Q 62.40 25.79 58.65 25.05
  Q 57.19 24.76 55.78 24.55
  C 53.71 24.24 52.14 23.28 50.45 22.16
  A 0.91 0.89 -41.4 0 0 49.53 22.11
  Q 43.64 25.11 37.36 24.97
  A 0.87 0.86 6.5 0 0 36.50 25.65
  C 35.63 29.76 34.39 34.22 32.18 37.77
  Q 31.46 38.91 32.44 39.42
  L 22.62 46.69
  Q 22.24 46.96 22.32 46.50
  Q 22.67 44.47 23.34 42.66
  Q 23.41 42.47 23.61 42.42
  Q 23.96 42.34 24.04 41.99
  L 25.90 34.21
  L 31.86 22.75
  L 36.31 19.31
  Q 49.41 10.66 63.08 5.18
  Z"
/>
<path fill="#26a53b" d="
  M 36.31 19.31
  L 31.86 22.75
  Q 31.95 22.44 31.84 22.20
  Q 31.61 21.67 31.11 21.97
  L 28.24 23.69
  A 1.41 1.40 50.7 0 1 26.58 23.52
  Q 23.70 20.89 21.72 18.09
  C 20.14 15.85 22.55 13.24 24.39 12.17
  Q 25.43 11.56 26.41 10.90
  Q 29.85 8.58 33.67 12.32
  Q 36.46 15.05 36.31 19.31
  Z
  M 24.06 13.33
  Q 22.87 14.01 22.57 14.99
  A 1.52 1.51 -73.4 0 0 23.59 16.88
  L 28.87 18.44
  A 1.37 1.37 0.0 0 0 30.60 16.86
  L 29.66 12.19
  A 1.58 1.57 65.3 0 0 27.15 11.25
  Q 25.62 12.45 24.06 13.33
  Z"
/>
<path fill="#a4e5b0" d="
  M 100.35 10.72
  C 102.60 13.11 101.72 16.03 98.58 16.55
  Q 96.06 16.96 94.24 14.83
  Q 95.36 13.19 97.88 11.13
  Q 99.11 10.11 100.35 10.72
  Z"
/>
<path fill="#2cc444" d="
  M 100.35 10.72
  Q 101.79 10.85 102.56 12.32
  Q 102.79 12.75 103.20 13.00
  Q 104.86 14.00 105.82 16.10
  Q 106.26 17.05 105.54 17.80
  L 101.99 21.53
  A 2.18 2.17 41.0 0 1 99.06 21.73
  Q 96.18 19.44 94.13 16.62
  Q 93.83 16.22 93.86 15.71
  Q 93.90 15.02 94.24 14.83
  Q 96.06 16.96 98.58 16.55
  C 101.72 16.03 102.60 13.11 100.35 10.72
  Z"
/>
<path fill="#a4e5b0" d="
  M 24.06 13.33
  Q 25.62 12.45 27.15 11.25
  A 1.58 1.57 65.3 0 1 29.66 12.19
  L 30.60 16.86
  A 1.37 1.37 0.0 0 1 28.87 18.44
  L 23.59 16.88
  A 1.52 1.51 -73.4 0 1 22.57 14.99
  Q 22.87 14.01 24.06 13.33
  Z"
/>
<path fill="#f2fcf1" d="
  M 77.73 22.74
  Q 78.13 23.25 78.81 23.48
  Q 82.32 25.81 78.66 28.74
  C 75.80 26.40 74.17 25.86 70.76 26.46
  Q 68.37 26.89 66.70 26.87
  Q 64.61 26.86 62.59 26.93
  Q 61.54 26.38 60.13 26.67
  Q 59.55 26.79 59.69 27.37
  Q 59.78 27.74 60.18 27.79
  Q 60.28 27.81 60.21 27.87
  L 59.91 28.18
  Q 59.57 28.51 59.13 28.34
  Q 56.95 27.50 54.23 27.50
  Q 53.37 27.50 54.13 27.90
  L 55.97 28.85
  Q 56.55 29.15 56.46 29.80
  Q 55.68 35.90 49.93 38.68
  Q 47.29 39.96 44.52 38.91
  Q 43.99 38.71 43.51 38.99
  Q 41.52 40.14 41.24 41.76
  Q 40.52 45.94 39.90 47.22
  Q 37.07 42.68 32.44 39.42
  Q 31.46 38.91 32.18 37.77
  C 34.39 34.22 35.63 29.76 36.50 25.65
  A 0.87 0.86 6.5 0 1 37.36 24.97
  Q 43.64 25.11 49.53 22.11
  A 0.91 0.89 -41.4 0 1 50.45 22.16
  C 52.14 23.28 53.71 24.24 55.78 24.55
  Q 57.19 24.76 58.65 25.05
  Q 62.40 25.79 67.77 25.62
  Q 72.92 25.45 75.42 22.37
  Q 75.73 22.00 76.21 22.07
  Q 76.91 22.19 77.73 22.74
  Z"
/>
<path fill="#59f770" d="
  M 78.81 23.48
  L 89.10 25.99
  A 0.70 0.70 0.0 0 1 89.51 27.07
  Q 89.05 27.72 88.41 28.16
  Q 87.99 28.45 87.79 28.93
  Q 86.60 31.82 85.49 34.73
  Q 85.35 35.11 85.39 35.51
  Q 85.46 36.23 85.44 36.33
  Q 85.05 38.44 83.93 36.60
  Q 81.45 32.51 78.66 28.74
  Q 82.32 25.81 78.81 23.48
  Z"
/>
<path fill="#a4e5b0" d="
  M 62.59 26.93
  Q 62.34 27.19 62.02 27.34
  Q 61.57 27.55 61.96 27.86
  Q 62.35 28.16 62.75 28.14
  Q 64.24 28.06 64.76 28.50
  Q 65.39 29.00 65.56 29.49
  Q 65.68 29.84 65.42 30.11
  Q 60.87 34.96 55.58 39.16
  Q 54.03 40.40 52.18 41.41
  Q 50.40 42.38 48.57 42.96
  Q 46.86 43.49 45.22 44.34
  A 2.58 2.57 35.1 0 1 43.65 44.61
  Q 43.02 44.53 42.46 44.68
  Q 41.83 44.86 41.86 45.51
  L 42.10 49.73
  Q 42.06 52.87 41.37 51.84
  L 39.90 47.22
  Q 40.52 45.94 41.24 41.76
  Q 41.52 40.14 43.51 38.99
  Q 43.99 38.71 44.52 38.91
  Q 47.29 39.96 49.93 38.68
  Q 55.68 35.90 56.46 29.80
  Q 56.55 29.15 55.97 28.85
  L 54.13 27.90
  Q 53.37 27.50 54.23 27.50
  Q 56.95 27.50 59.13 28.34
  Q 59.57 28.51 59.91 28.18
  L 60.21 27.87
  Q 60.28 27.81 60.18 27.79
  Q 59.78 27.74 59.69 27.37
  Q 59.55 26.79 60.13 26.67
  Q 61.54 26.38 62.59 26.93
  Z"
/>
<path fill="#59f770" d="
  M 73.87 28.33
  Q 71.59 27.60 72.08 32.35
  A 1.11 1.11 0.0 0 1 71.75 33.25
  Q 69.85 35.14 69.25 37.23
  Q 68.77 38.93 67.56 40.40
  Q 66.08 42.21 64.67 43.91
  Q 64.33 44.31 63.80 44.32
  Q 63.18 44.32 62.75 44.77
  Q 62.17 45.36 61.42 45.73
  Q 59.82 46.51 58.25 47.24
  C 56.07 48.25 52.87 47.94 50.56 47.82
  Q 48.62 47.71 46.46 46.75
  A 1.88 1.87 -51.5 0 0 44.58 46.97
  Q 43.11 48.07 42.10 49.73
  L 41.86 45.51
  Q 41.83 44.86 42.46 44.68
  Q 43.02 44.53 43.65 44.61
  A 2.58 2.57 35.1 0 0 45.22 44.34
  Q 46.86 43.49 48.57 42.96
  Q 50.40 42.38 52.18 41.41
  Q 54.03 40.40 55.58 39.16
  Q 60.87 34.96 65.42 30.11
  Q 65.68 29.84 65.56 29.49
  Q 65.39 29.00 64.76 28.50
  Q 65.97 28.21 67.17 28.85
  Q 67.59 29.07 67.63 29.54
  Q 67.65 29.78 67.52 30.00
  Q 67.10 30.72 67.75 30.20
  Q 67.94 30.05 68.01 29.81
  Q 68.09 29.49 68.31 29.24
  Q 68.48 29.04 68.73 29.12
  Q 69.34 29.30 69.09 28.72
  Q 69.01 28.53 69.06 28.36
  Q 69.21 27.87 69.72 27.92
  L 73.87 28.33
  Z"
/>
<path fill="#2be447" d="
  M 73.87 28.33
  Q 77.63 29.08 78.91 31.48
  Q 80.78 34.99 82.85 38.39
  C 84.07 40.37 84.32 42.20 85.13 44.28
  C 86.23 47.11 85.98 50.30 85.62 53.24
  Q 85.27 55.98 87.00 57.87
  Q 87.27 58.16 87.66 58.13
  Q 87.82 58.11 87.95 58.28
  Q 88.00 58.35 88.04 58.43
  Q 89.43 61.48 92.59 60.89
  A 1.33 1.29 -71.3 0 0 93.27 60.54
  Q 94.17 59.69 95.26 60.34
  A 1.26 1.26 0.0 0 1 95.47 62.35
  Q 94.31 63.41 92.83 63.51
  C 91.18 63.63 90.05 64.26 88.60 64.90
  Q 87.81 65.26 87.16 65.96
  Q 85.95 67.27 84.49 68.25
  L 87.75 63.96
  Q 88.16 63.42 87.55 63.13
  Q 85.40 62.09 83.21 62.07
  Q 82.69 62.07 82.31 62.41
  Q 78.97 65.39 75.04 68.31
  Q 73.42 69.51 72.00 69.32
  Q 67.08 68.65 65.40 70.86
  L 55.32 70.36
  Q 54.04 69.84 52.70 69.83
  C 51.27 69.82 50.72 69.40 49.85 68.41
  L 44.13 62.83
  Q 43.73 62.44 43.18 62.43
  Q 42.13 62.40 41.38 63.33
  Q 40.94 63.88 40.26 64.07
  Q 38.78 64.49 37.32 64.77
  Q 36.53 64.93 36.22 65.69
  A 0.90 0.89 32.9 0 1 34.78 65.99
  L 24.74 56.49
  A 1.33 1.33 0.0 0 1 25.19 54.28
  Q 26.81 53.68 28.64 54.53
  Q 32.79 56.47 37.08 57.36
  Q 37.56 57.47 37.76 57.92
  Q 38.44 59.49 37.81 61.40
  A 0.94 0.94 0.0 0 0 39.14 62.52
  Q 42.45 60.74 42.11 56.75
  Q 41.89 54.23 41.37 51.84
  Q 42.06 52.87 42.10 49.73
  Q 43.11 48.07 44.58 46.97
  A 1.88 1.87 -51.5 0 1 46.46 46.75
  Q 48.62 47.71 50.56 47.82
  C 52.87 47.94 56.07 48.25 58.25 47.24
  Q 59.82 46.51 61.42 45.73
  Q 62.17 45.36 62.75 44.77
  Q 63.18 44.32 63.80 44.32
  Q 64.33 44.31 64.67 43.91
  Q 66.08 42.21 67.56 40.40
  Q 68.77 38.93 69.25 37.23
  Q 69.85 35.14 71.75 33.25
  A 1.11 1.11 0.0 0 0 72.08 32.35
  Q 71.59 27.60 73.87 28.33
  Z"
/>
<path fill="#27b43e" d="
  M 25.90 34.21
  L 24.04 41.99
  Q 23.96 42.34 23.61 42.42
  Q 23.41 42.47 23.34 42.66
  Q 22.67 44.47 22.32 46.50
  Q 22.24 46.96 22.62 46.69
  L 32.44 39.42
  Q 37.07 42.68 39.90 47.22
  L 41.37 51.84
  Q 41.89 54.23 42.11 56.75
  Q 42.45 60.74 39.14 62.52
  A 0.94 0.94 0.0 0 1 37.81 61.40
  Q 38.44 59.49 37.76 57.92
  Q 37.56 57.47 37.08 57.36
  Q 32.79 56.47 28.64 54.53
  Q 26.81 53.68 25.19 54.28
  A 1.33 1.33 0.0 0 0 24.74 56.49
  L 34.78 65.99
  A 0.90 0.89 32.9 0 0 36.22 65.69
  Q 36.53 64.93 37.32 64.77
  Q 38.78 64.49 40.26 64.07
  Q 40.94 63.88 41.38 63.33
  Q 42.13 62.40 43.18 62.43
  Q 43.73 62.44 44.13 62.83
  L 49.85 68.41
  L 49.84 69.06
  Q 49.84 69.60 49.49 70.01
  L 42.84 77.91
  Q 42.51 78.31 42.01 78.46
  Q 39.80 79.11 37.63 78.45
  A 1.45 1.45 0.0 0 0 35.83 80.29
  Q 36.49 82.27 38.02 83.95
  Q 38.98 84.99 41.56 86.24
  Q 44.50 87.66 47.45 89.68
  L 45.16 90.17
  Q 44.02 89.14 42.36 88.74
  Q 41.87 88.63 41.48 88.30
  Q 40.45 87.44 39.16 87.26
  A 1.55 1.53 74.8 0 1 38.18 86.69
  Q 37.61 85.98 36.72 86.11
  Q 36.22 86.18 36.20 86.68
  L 36.08 90.91
  L 29.06 90.70
  A 1.22 1.21 6.4 0 0 27.83 91.67
  Q 27.58 92.86 25.72 93.02
  Q 24.98 93.19 24.28 93.11
  A 0.93 0.92 -9.3 0 1 23.55 92.59
  C 22.59 90.65 21.18 87.52 23.75 86.01
  Q 23.76 86.96 23.22 88.36
  A 1.36 1.36 0.0 0 0 24.57 90.21
  L 30.64 89.85
  Q 31.08 89.83 31.20 89.40
  Q 32.07 86.24 29.90 84.02
  Q 29.69 83.80 29.80 83.51
  Q 29.96 83.06 29.48 82.99
  L 27.83 82.77
  Q 29.12 81.69 31.07 82.11
  A 0.75 0.75 0.0 0 0 31.88 81.02
  Q 28.13 74.20 24.63 67.32
  C 22.54 63.21 20.91 58.60 19.31 54.21
  C 18.61 52.28 18.85 50.52 19.67 48.55
  Q 22.64 41.38 25.90 34.21
  Z
  M 45.57 65.50
  Q 45.33 65.14 44.94 65.07
  Q 41.79 64.45 38.42 65.07
  A 2.45 2.43 0.7 0 0 36.48 66.95
  Q 35.79 70.11 37.04 73.55
  Q 37.21 73.99 37.63 74.21
  Q 41.40 76.18 45.36 73.73
  Q 45.78 73.47 45.97 73.01
  Q 46.25 72.32 46.92 72.02
  A 3.11 2.54 -22.5 0 0 48.72 68.68
  Q 48.08 66.77 46.10 65.93
  Q 45.78 65.79 45.57 65.50
  Z"
/>
<path fill="#228b35" d="
  M 95.65 40.84
  Q 97.84 41.50 98.90 43.44
  A 1.45 1.37 2.6 0 0 99.41 43.97
  Q 101.08 44.98 101.32 46.97
  A 0.95 0.95 0.0 0 1 100.53 48.02
  Q 96.93 48.63 93.72 49.71
  Q 90.43 50.81 88.14 53.72
  A 0.53 0.52 -29.2 0 1 87.21 53.46
  Q 86.44 47.13 89.48 42.25
  Q 89.97 41.47 90.76 41.04
  Q 91.72 40.52 92.35 39.59
  A 1.05 1.04 21.5 0 1 93.37 39.15
  Q 94.71 39.35 95.30 40.54
  Q 95.41 40.77 95.65 40.84
  Z"
/>
<path fill="#59f770" d="
  M 84.49 68.25
  Q 82.58 69.25 81.72 71.18
  Q 81.47 71.75 80.92 71.48
  Q 79.98 71.02 79.42 70.30
  Q 79.08 69.87 78.54 69.87
  L 75.74 69.87
  Q 75.26 69.87 74.94 70.23
  Q 74.67 70.53 74.12 70.61
  Q 69.43 71.34 65.40 70.86
  Q 67.08 68.65 72.00 69.32
  Q 73.42 69.51 75.04 68.31
  Q 78.97 65.39 82.31 62.41
  Q 82.69 62.07 83.21 62.07
  Q 85.40 62.09 87.55 63.13
  Q 88.16 63.42 87.75 63.96
  L 84.49 68.25
  Z"
/>
<path fill="#26a53b" d="
  M 55.32 70.36
  L 65.40 70.86
  Q 69.43 71.34 74.12 70.61
  Q 74.67 70.53 74.94 70.23
  Q 75.26 69.87 75.74 69.87
  L 78.54 69.87
  Q 79.08 69.87 79.42 70.30
  Q 79.98 71.02 80.92 71.48
  Q 81.47 71.75 81.72 71.18
  Q 82.58 69.25 84.49 68.25
  Q 82.91 69.98 82.57 71.92
  Q 82.49 72.38 82.02 72.38
  L 81.54 72.38
  Q 80.80 72.38 81.45 72.72
  Q 82.85 73.45 83.58 74.60
  A 1.10 1.09 -30.2 0 0 85.02 74.97
  L 85.29 74.83
  A 0.67 0.67 0.0 0 0 85.59 73.98
  C 84.91 72.39 84.85 70.80 86.03 69.41
  Q 87.43 67.78 88.13 65.96
  Q 88.29 65.54 88.71 65.40
  L 93.10 63.92
  A 1.32 1.31 89.3 0 1 94.77 65.56
  Q 93.42 69.89 93.10 74.92
  Q 93.02 76.11 92.51 76.97
  Q 92.11 77.66 91.89 78.38
  Q 91.73 78.91 91.18 78.95
  Q 84.99 79.43 78.85 79.37
  C 77.43 79.36 76.39 79.92 74.99 79.96
  Q 74.53 79.97 74.13 80.18
  Q 70.77 81.93 67.41 80.79
  Q 66.92 80.62 66.71 80.14
  Q 66.13 78.78 65.16 77.78
  Q 64.16 76.76 63.44 75.60
  Q 62.17 73.58 59.80 72.73
  Q 57.64 71.95 54.89 72.36
  Q 54.33 72.45 53.96 72.01
  Q 53.81 71.84 53.58 71.84
  Q 53.22 71.84 52.95 72.08
  Q 52.56 72.40 52.04 72.46
  Q 51.18 72.56 51.36 71.71
  Q 51.62 70.52 52.74 70.56
  Q 54.74 70.62 55.32 70.36
  Z"
/>
<path fill="#26a53b" d="
  M 46.10 65.93
  Q 48.08 66.77 48.72 68.68
  A 3.11 2.54 -22.5 0 1 46.92 72.02
  Q 46.25 72.32 45.97 73.01
  Q 45.78 73.47 45.36 73.73
  Q 41.40 76.18 37.63 74.21
  Q 37.21 73.99 37.04 73.55
  Q 35.79 70.11 36.48 66.95
  A 2.45 2.43 0.7 0 1 38.42 65.07
  Q 41.79 64.45 44.94 65.07
  Q 45.33 65.14 45.57 65.50
  Q 45.78 65.79 46.10 65.93
  Z"
/>
<ellipse fill="#4dcb64" cx="0.00" cy="0.00" transform="translate(20.44,74.62) rotate(-6.8)" rx="3.06" ry="2.95"/>
<path fill="#a4e5b0" d="
  M 27.83 82.77
  L 29.48 82.99
  Q 29.96 83.06 29.80 83.51
  Q 29.69 83.80 29.90 84.02
  Q 32.07 86.24 31.20 89.40
  Q 31.08 89.83 30.64 89.85
  L 24.57 90.21
  A 1.36 1.36 0.0 0 1 23.22 88.36
  Q 23.76 86.96 23.75 86.01
  L 27.83 82.77
  Z"
/>
<path fill="#26a53b" d="
  M 102.86 93.13
  Q 100.77 91.67 101.01 89.82
  Q 101.13 88.92 101.12 88.21
  Q 101.08 86.29 98.93 86.55
  Q 96.07 86.89 96.20 90.03
  Q 96.22 90.57 95.68 90.66
  L 94.27 90.88
  Q 93.68 87.18 97.38 84.88
  C 99.45 83.59 100.13 84.18 102.23 85.25
  Q 108.12 88.26 102.86 93.13
  Z"
/>
<path fill="#23532c" d="
  M 45.16 90.17
  Q 44.89 90.90 44.50 90.94
  Q 41.19 91.20 36.08 90.91
  L 36.20 86.68
  Q 36.22 86.18 36.72 86.11
  Q 37.61 85.98 38.18 86.69
  A 1.55 1.53 74.8 0 0 39.16 87.26
  Q 40.45 87.44 41.48 88.30
  Q 41.87 88.63 42.36 88.74
  Q 44.02 89.14 45.16 90.17
  Z"
/>
<path fill="#a4e5b0" d="
  M 102.86 93.13
  Q 104.06 94.51 105.27 96.23
  Q 106.54 98.01 107.79 99.23
  Q 109.48 100.85 110.87 102.16
  L 107.38 104.59
  Q 106.95 104.88 106.99 105.40
  Q 107.32 110.64 107.45 115.28
  Q 107.49 116.72 108.15 118.08
  Q 108.38 118.54 108.18 119.01
  Q 106.65 122.65 103.43 124.80
  C 101.93 125.81 100.03 125.85 98.25 125.88
  Q 90.37 126.02 83.00 126.36
  Q 81.94 126.41 81.14 127.36
  Q 79.01 126.99 76.35 128.00
  L 72.20 128.00
  Q 74.70 127.01 76.96 126.20
  Q 79.31 125.36 81.92 125.28
  Q 89.42 125.05 97.25 125.11
  Q 102.65 125.14 105.94 120.92
  Q 107.05 119.50 106.96 117.85
  Q 106.65 112.29 105.88 105.17
  Q 105.63 102.91 104.37 101.22
  C 102.78 99.08 101.02 95.78 98.05 95.62
  Q 92.35 95.30 85.08 95.38
  C 81.23 95.43 77.60 94.71 73.82 94.17
  Q 71.45 93.82 69.56 92.94
  Q 67.69 92.07 65.12 92.09
  Q 63.47 92.10 62.10 92.86
  Q 59.74 94.16 56.75 94.39
  Q 52.49 94.71 47.98 95.51
  Q 43.98 96.22 40.05 96.16
  Q 35.68 96.10 31.65 96.16
  Q 31.60 96.16 31.58 96.11
  Q 31.56 96.06 31.60 96.02
  Q 31.63 95.98 31.68 95.99
  Q 38.52 96.16 45.29 95.72
  Q 45.35 95.71 45.35 95.65
  L 45.34 95.65
  Q 45.33 95.42 45.10 95.44
  Q 39.48 96.10 33.01 95.85
  Q 31.58 95.80 30.12 96.18
  Q 28.86 96.50 28.06 97.34
  Q 25.79 99.73 23.62 102.55
  Q 22.16 104.46 22.09 106.66
  Q 21.90 112.17 21.96 118.12
  Q 21.96 118.43 21.66 118.40
  L 21.39 118.38
  A 0.61 0.61 0.0 0 1 20.83 117.76
  Q 20.95 109.01 19.88 104.51
  Q 19.37 102.41 16.61 102.21
  Q 16.29 102.08 16.16 101.84
  Q 15.81 101.23 16.51 101.11
  L 17.08 101.02
  Q 17.39 100.97 17.61 100.75
  L 25.72 93.02
  Q 27.58 92.86 27.83 91.67
  A 1.22 1.21 6.4 0 1 29.06 90.70
  L 36.08 90.91
  Q 41.19 91.20 44.50 90.94
  Q 44.89 90.90 45.16 90.17
  L 47.45 89.68
  Q 49.54 90.35 51.92 89.73
  Q 54.51 89.07 56.19 88.91
  Q 58.71 88.66 61.51 87.51
  Q 62.85 86.96 64.01 86.96
  C 65.81 86.97 67.74 86.78 69.40 87.66
  C 70.62 88.31 72.04 87.83 73.45 88.26
  Q 76.44 89.18 79.80 89.76
  Q 82.09 89.95 84.57 89.94
  C 85.90 89.93 86.40 90.91 87.51 90.98
  Q 90.64 91.19 94.27 90.88
  L 95.68 90.66
  Q 96.22 90.57 96.20 90.03
  Q 96.07 86.89 98.93 86.55
  Q 101.08 86.29 101.12 88.21
  Q 101.13 88.92 101.01 89.82
  Q 100.77 91.67 102.86 93.13
  Z"
/>
<path fill="#4dcb64" d="
  M 72.20 128.00
  L 55.15 128.00
  Q 54.78 127.59 53.95 127.81
  L 53.87 127.25
  Q 53.79 126.64 53.17 126.58
  Q 45.14 125.85 37.08 126.18
  Q 32.06 126.38 24.99 125.49
  Q 24.49 125.43 24.15 125.06
  L 16.90 117.18
  Q 15.97 110.08 16.61 102.21
  Q 19.37 102.41 19.88 104.51
  Q 20.95 109.01 20.83 117.76
  A 0.61 0.61 0.0 0 0 21.39 118.38
  L 21.66 118.40
  Q 21.96 118.43 21.96 118.12
  Q 21.90 112.17 22.09 106.66
  Q 22.16 104.46 23.62 102.55
  Q 25.79 99.73 28.06 97.34
  Q 28.86 96.50 30.12 96.18
  Q 31.58 95.80 33.01 95.85
  Q 39.48 96.10 45.10 95.44
  Q 45.33 95.42 45.34 95.65
  L 45.35 95.65
  Q 45.35 95.71 45.29 95.72
  Q 38.52 96.16 31.68 95.99
  Q 31.63 95.98 31.60 96.02
  Q 31.56 96.06 31.58 96.11
  Q 31.60 96.16 31.65 96.16
  Q 35.68 96.10 40.05 96.16
  Q 43.98 96.22 47.98 95.51
  Q 52.49 94.71 56.75 94.39
  Q 59.74 94.16 62.10 92.86
  Q 63.47 92.10 65.12 92.09
  Q 67.69 92.07 69.56 92.94
  Q 71.45 93.82 73.82 94.17
  C 77.60 94.71 81.23 95.43 85.08 95.38
  Q 92.35 95.30 98.05 95.62
  C 101.02 95.78 102.78 99.08 104.37 101.22
  Q 105.63 102.91 105.88 105.17
  Q 106.65 112.29 106.96 117.85
  Q 107.05 119.50 105.94 120.92
  Q 102.65 125.14 97.25 125.11
  Q 89.42 125.05 81.92 125.28
  Q 79.31 125.36 76.96 126.20
  Q 74.70 127.01 72.20 128.00
  Z
  M 40.54 107.07
  L 44.74 106.99
  Q 44.95 106.98 44.95 106.77
  L 44.95 106.35
  Q 44.95 106.00 44.60 106.00
  L 38.75 105.98
  Q 37.99 105.98 37.99 106.75
  L 38.00 109.30
  A 0.79 0.79 0.0 0 0 38.93 110.07
  C 44.66 109.00 43.96 116.15 39.51 114.81
  A 1.08 1.07 84.6 0 1 38.86 114.27
  Q 38.73 114.02 38.73 113.74
  Q 38.74 113.07 38.08 112.95
  Q 37.20 112.79 36.94 113.85
  A 1.53 1.52 14.8 0 0 38.02 115.69
  C 46.05 117.91 47.22 108.64 40.84 108.95
  Q 40.00 108.99 39.96 108.14
  L 39.95 107.71
  A 0.61 0.61 0.0 0 1 40.54 107.07
  Z
  M 54.9610 109.6822
  A 3.62 3.62 0.0 0 0 51.3983 106.0058
  L 50.7384 105.9954
  A 3.62 3.62 0.0 0 0 47.0620 109.5581
  L 47.0190 112.2978
  A 3.62 3.62 0.0 0 0 50.5817 115.9742
  L 51.2416 115.9846
  A 3.62 3.62 0.0 0 0 54.9180 112.4219
  L 54.9610 109.6822
  Z
  M 31.87 110.19
  A 0.62 0.62 0.0 0 1 31.11 110.19
  L 28.56 108.22
  A 0.62 0.62 0.0 0 0 27.69 109.10
  L 29.67 111.63
  A 0.62 0.62 0.0 0 1 29.67 112.39
  L 27.70 114.94
  A 0.62 0.62 0.0 0 0 28.58 115.81
  L 31.11 113.83
  A 0.62 0.62 0.0 0 1 31.87 113.83
  L 34.42 115.80
  A 0.62 0.62 0.0 0 0 35.29 114.92
  L 33.31 112.39
  A 0.62 0.62 0.0 0 1 33.31 111.63
  L 35.28 109.08
  A 0.62 0.62 0.0 0 0 34.40 108.21
  L 31.87 110.19
  Z
  M 67.71 116.85
  A 1.49 1.48 6.1 0 1 66.34 117.95
  L 63.30 118.09
  A 0.24 0.24 0.0 0 0 63.07 118.31
  L 63.04 118.61
  Q 63.01 118.91 63.30 118.95
  C 66.31 119.39 69.95 119.05 69.98 115.25
  Q 70.01 111.68 69.99 108.64
  Q 69.98 107.77 69.13 107.97
  Q 67.85 108.27 66.61 108.06
  C 63.94 107.59 61.74 109.70 62.03 112.35
  Q 62.56 117.24 67.21 115.36
  Q 68.22 114.96 67.93 116.01
  L 67.71 116.85
  Z
  M 74.87 112.14
  L 77.76 112.07
  Q 79.28 112.03 78.89 110.56
  L 78.71 109.90
  Q 78.28 108.28 76.61 108.09
  Q 72.51 107.61 72.11 111.57
  C 71.70 115.61 75.56 117.04 78.74 115.26
  Q 79.00 115.12 79.00 114.82
  L 78.99 114.27
  Q 78.99 113.46 78.35 113.95
  Q 77.28 114.78 76.03 114.87
  Q 74.85 114.97 74.44 113.85
  L 74.18 113.14
  Q 73.83 112.17 74.87 112.14
  Z
  M 83.1837 108.6209
  A 0.60 0.60 0.0 0 0 82.6007 108.0044
  L 81.6810 107.9787
  A 0.60 0.60 0.0 0 0 81.0645 108.5617
  L 80.8763 115.2991
  A 0.60 0.60 0.0 0 0 81.4593 115.9156
  L 82.3790 115.9413
  A 0.60 0.60 0.0 0 0 82.9955 115.3583
  L 83.1837 108.6209
  Z
  M 85.95 110.21
  L 86.15 115.57
  A 0.50 0.49 5.2 0 0 86.55 116.04
  L 86.89 116.11
  A 0.80 0.80 0.0 0 0 87.85 115.35
  L 88.05 109.44
  A 0.87 0.85 14.5 0 0 87.57 108.64
  Q 86.28 108.00 84.86 108.06
  Q 83.16 108.13 84.66 108.95
  Q 84.96 109.11 85.28 109.24
  Q 85.93 109.51 85.95 110.21
  Z
  M 90.87 110.05
  L 91.05 115.18
  Q 91.07 115.78 91.67 115.88
  L 92.06 115.94
  A 0.72 0.72 0.0 0 0 92.89 115.32
  Q 93.29 112.24 92.60 109.21
  Q 92.45 108.58 91.85 108.33
  Q 90.14 107.64 88.85 108.49
  Q 88.19 108.93 88.98 108.91
  Q 89.84 108.89 90.46 109.31
  A 0.96 0.95 16.3 0 1 90.87 110.05
  Z
  M 97.32 110.57
  A 0.66 0.66 0.0 0 1 97.36 109.41
  Q 98.84 108.68 100.32 109.75
  A 0.32 0.32 0.0 0 0 100.82 109.57
  L 100.90 109.19
  A 0.52 0.52 0.0 0 0 100.63 108.60
  C 98.32 107.41 93.53 108.15 95.55 111.94
  Q 95.83 112.47 96.41 112.62
  L 98.42 113.16
  A 0.88 0.88 0.0 0 1 98.47 114.85
  Q 97.26 115.26 95.87 114.41
  Q 94.88 113.80 95.18 114.93
  Q 95.36 115.62 96.15 115.83
  C 98.14 116.36 100.82 115.97 100.90 113.45
  C 100.97 111.00 98.74 111.42 97.32 110.57
  Z"
/>
<path fill="#26a53b" d="
  M 110.87 102.16
  Q 110.44 108.79 110.78 110.49
  Q 113.00 121.73 106.92 128.00
  L 98.76 128.00
  L 81.14 127.36
  Q 81.94 126.41 83.00 126.36
  Q 90.37 126.02 98.25 125.88
  C 100.03 125.85 101.93 125.81 103.43 124.80
  Q 106.65 122.65 108.18 119.01
  Q 108.38 118.54 108.15 118.08
  Q 107.49 116.72 107.45 115.28
  Q 107.32 110.64 106.99 105.40
  Q 106.95 104.88 107.38 104.59
  L 110.87 102.16
  Z"
/>
<path fill="#fdffff" d="
  M 40.54 107.07
  A 0.61 0.61 0.0 0 0 39.95 107.71
  L 39.96 108.14
  Q 40.00 108.99 40.84 108.95
  C 47.22 108.64 46.05 117.91 38.02 115.69
  A 1.53 1.52 14.8 0 1 36.94 113.85
  Q 37.20 112.79 38.08 112.95
  Q 38.74 113.07 38.73 113.74
  Q 38.73 114.02 38.86 114.27
  A 1.08 1.07 84.6 0 0 39.51 114.81
  C 43.96 116.15 44.66 109.00 38.93 110.07
  A 0.79 0.79 0.0 0 1 38.00 109.30
  L 37.99 106.75
  Q 37.99 105.98 38.75 105.98
  L 44.60 106.00
  Q 44.95 106.00 44.95 106.35
  L 44.95 106.77
  Q 44.95 106.98 44.74 106.99
  L 40.54 107.07
  Z"
/>
<path fill="#fdffff" d="
  M 54.9180 112.4219
  A 3.62 3.62 0.0 0 1 51.2416 115.9846
  L 50.5817 115.9742
  A 3.62 3.62 0.0 0 1 47.0190 112.2978
  L 47.0620 109.5581
  A 3.62 3.62 0.0 0 1 50.7384 105.9954
  L 51.3983 106.0058
  A 3.62 3.62 0.0 0 1 54.9610 109.6822
  L 54.9180 112.4219
  Z
  M 50.9929 115.0800
  A 4.09 2.08 90.1 0 0 53.0800 110.9936
  A 4.09 2.08 90.1 0 0 51.0071 106.9000
  A 4.09 2.08 90.1 0 0 48.9200 110.9864
  A 4.09 2.08 90.1 0 0 50.9929 115.0800
  Z"
/>
<ellipse fill="#4dcb64" cx="0.00" cy="0.00" transform="translate(51.00,110.99) rotate(90.1)" rx="4.09" ry="2.08"/>
<path fill="#fdffff" d="
  M 31.87 110.19
  L 34.40 108.21
  A 0.62 0.62 0.0 0 1 35.28 109.08
  L 33.31 111.63
  A 0.62 0.62 0.0 0 0 33.31 112.39
  L 35.29 114.92
  A 0.62 0.62 0.0 0 1 34.42 115.80
  L 31.87 113.83
  A 0.62 0.62 0.0 0 0 31.11 113.83
  L 28.58 115.81
  A 0.62 0.62 0.0 0 1 27.70 114.94
  L 29.67 112.39
  A 0.62 0.62 0.0 0 0 29.67 111.63
  L 27.69 109.10
  A 0.62 0.62 0.0 0 1 28.56 108.22
  L 31.11 110.19
  A 0.62 0.62 0.0 0 0 31.87 110.19
  Z"
/>
<path fill="#fdffff" d="
  M 67.71 116.85
  L 67.93 116.01
  Q 68.22 114.96 67.21 115.36
  Q 62.56 117.24 62.03 112.35
  C 61.74 109.70 63.94 107.59 66.61 108.06
  Q 67.85 108.27 69.13 107.97
  Q 69.98 107.77 69.99 108.64
  Q 70.01 111.68 69.98 115.25
  C 69.95 119.05 66.31 119.39 63.30 118.95
  Q 63.01 118.91 63.04 118.61
  L 63.07 118.31
  A 0.24 0.24 0.0 0 1 63.30 118.09
  L 66.34 117.95
  A 1.49 1.48 6.1 0 0 67.71 116.85
  Z
  M 68.08 110.41
  A 1.35 1.35 0.0 0 0 66.21 109.07
  L 65.02 109.57
  A 1.35 1.35 0.0 0 0 64.20 110.78
  L 64.15 113.44
  A 1.35 1.35 0.0 0 0 65.42 114.82
  L 66.42 114.87
  A 1.35 1.35 0.0 0 0 67.84 113.63
  L 68.08 110.41
  Z"
/>
<path fill="#fdffff" d="
  M 74.87 112.14
  Q 73.83 112.17 74.18 113.14
  L 74.44 113.85
  Q 74.85 114.97 76.03 114.87
  Q 77.28 114.78 78.35 113.95
  Q 78.99 113.46 78.99 114.27
  L 79.00 114.82
  Q 79.00 115.12 78.74 115.26
  C 75.56 117.04 71.70 115.61 72.11 111.57
  Q 72.51 107.61 76.61 108.09
  Q 78.28 108.28 78.71 109.90
  L 78.89 110.56
  Q 79.28 112.03 77.76 112.07
  L 74.87 112.14
  Z
  M 76.86 109.90
  C 76.22 108.50 74.26 109.05 74.15 110.38
  Q 74.10 111.01 74.73 111.01
  L 76.14 111.01
  Q 77.36 111.02 76.86 109.90
  Z"
/>
<rect fill="#fdffff" x="-1.06" y="-3.97" transform="translate(82.03,111.96) rotate(1.6)" width="2.12" height="7.94" rx="0.60"/>
<path fill="#fdffff" d="
  M 85.28 109.24
  Q 84.96 109.11 84.66 108.95
  Q 83.16 108.13 84.86 108.06
  Q 86.28 108.00 87.57 108.64
  A 0.87 0.85 14.5 0 1 88.05 109.44
  L 87.85 115.35
  A 0.80 0.80 0.0 0 1 86.89 116.11
  L 86.55 116.04
  A 0.50 0.49 5.2 0 1 86.15 115.57
  L 85.95 110.21
  Q 85.93 109.51 85.28 109.24
  Z"
/>
<path fill="#fdffff" d="
  M 90.46 109.31
  Q 89.84 108.89 88.98 108.91
  Q 88.19 108.93 88.85 108.49
  Q 90.14 107.64 91.85 108.33
  Q 92.45 108.58 92.60 109.21
  Q 93.29 112.24 92.89 115.32
  A 0.72 0.72 0.0 0 1 92.06 115.94
  L 91.67 115.88
  Q 91.07 115.78 91.05 115.18
  L 90.87 110.05
  A 0.96 0.95 16.3 0 0 90.46 109.31
  Z"
/>
<path fill="#fdffff" d="
  M 97.32 110.57
  C 98.74 111.42 100.97 111.00 100.90 113.45
  C 100.82 115.97 98.14 116.36 96.15 115.83
  Q 95.36 115.62 95.18 114.93
  Q 94.88 113.80 95.87 114.41
  Q 97.26 115.26 98.47 114.85
  A 0.88 0.88 0.0 0 0 98.42 113.16
  L 96.41 112.62
  Q 95.83 112.47 95.55 111.94
  C 93.53 108.15 98.32 107.41 100.63 108.60
  A 0.52 0.52 0.0 0 1 100.90 109.19
  L 100.82 109.57
  A 0.32 0.32 0.0 0 1 100.32 109.75
  Q 98.84 108.68 97.36 109.41
  A 0.66 0.66 0.0 0 0 97.32 110.57
  Z"
/>
<path fill="#4dcb64" d="
  M 68.08 110.41
  L 67.84 113.63
  A 1.35 1.35 0.0 0 1 66.42 114.87
  L 65.42 114.82
  A 1.35 1.35 0.0 0 1 64.15 113.44
  L 64.20 110.78
  A 1.35 1.35 0.0 0 1 65.02 109.57
  L 66.21 109.07
  A 1.35 1.35 0.0 0 1 68.08 110.41
  Z"
/>
<path fill="#4dcb64" d="
  M 74.15 110.38
  C 74.26 109.05 76.22 108.50 76.86 109.90
  Q 77.36 111.02 76.14 111.01
  L 74.73 111.01
  Q 74.10 111.01 74.15 110.38
  Z"
/>
<path fill="#26a53b" d="
  M 16.90 117.18
  L 24.15 125.06
  Q 24.49 125.43 24.99 125.49
  Q 32.06 126.38 37.08 126.18
  Q 45.14 125.85 53.17 126.58
  Q 53.79 126.64 53.87 127.25
  L 53.95 127.81
  L 29.88 128.00
  L 21.20 128.00
  Q 15.45 123.38 16.90 117.18
  Z"
/>
<path fill="#23532c" d="
  M 81.14 127.36
  L 98.76 128.00
  L 76.35 128.00
  Q 79.01 126.99 81.14 127.36
  Z"
/>
<path fill="#23532c" d="
  M 53.95 127.81
  Q 54.78 127.59 55.15 128.00
  L 29.88 128.00
  L 53.95 127.81
  Z"
/>
</svg>
