<?xml version="1.0" encoding="UTF-8" standalone="no"?>
<!DOCTYPE svg PUBLIC "-//W3C//DTD SVG 1.1//EN" "http://www.w3.org/Graphics/SVG/1.1/DTD/svg11.dtd">
<svg xmlns="http://www.w3.org/2000/svg" version="1.1" viewBox="0.00 0.00 128.00 128.00">
<g stroke-width="2.00" fill="none" stroke-linecap="butt">
<path stroke="#297737" vector-effect="non-scaling-stroke" d="
  M 106.71 128.00
  Q 111.82 124.32 111.32 113.81"
/>
<path stroke="#388f48" vector-effect="non-scaling-stroke" d="
  M 111.32 113.81
  L 110.78 102.19"
/>
<path stroke="#659c6f" vector-effect="non-scaling-stroke" d="
  M 110.78 102.19
  L 102.81 93.10"
/>
<path stroke="#388f48" vector-effect="non-scaling-stroke" d="
  M 102.81 93.10
  Q 106.43 90.75 105.20 88.05
  Q 104.37 86.23 101.79 85.06
  Q 95.31 82.12 94.08 90.78"
/>
<path stroke="#659c6f" vector-effect="non-scaling-stroke" d="
  M 94.08 90.78
  Q 88.86 91.91 84.59 89.84"
/>
<path stroke="#278237" vector-effect="non-scaling-stroke" d="
  M 84.59 89.84
  L 84.22 89.64
  Q 83.75 89.39 84.26 89.21
  Q 88.30 87.82 92.03 85.65
  Q 96.31 83.17 98.42 78.65
  Q 104.74 65.07 109.49 52.58
  Q 109.94 51.40 109.89 50.36
  Q 109.82 49.16 109.21 48.15
  Q 108.00 46.12 107.65 44.46
  C 107.42 43.36 106.95 42.75 106.29 41.89
  Q 105.62 41.03 105.20 39.99
  Q 103.93 36.89 102.28 33.89
  C 100.00 29.74 98.26 25.28 96.38 20.90
  A 0.40 0.40 0.0 0 0 96.03 20.66
  Q 95.87 20.66 95.74 20.77"
/>
<path stroke="#388f48" vector-effect="non-scaling-stroke" d="
  M 95.74 20.77
  Q 95.65 20.52 95.41 20.38
  Q 80.52 11.88 64.77 5.13
  Q 63.73 4.69 62.98 5.23"
/>
<path stroke="#3fa54e" vector-effect="non-scaling-stroke" d="
  M 62.98 5.23
  Q 49.16 10.78 36.58 19.17"
/>
<path stroke="#297737" vector-effect="non-scaling-stroke" d="
  M 36.58 19.17
  Q 35.69 19.21 36.15 15.75"
/>
<path stroke="#278237" vector-effect="non-scaling-stroke" d="
  M 36.15 15.75
  Q 35.54 14.24 33.41 12.08
  C 31.07 9.71 28.93 9.41 26.04 11.13
  Q 24.60 11.99 23.26 12.99
  Q 21.63 14.21 21.36 15.95
  Q 21.14 17.36 22.29 19.01
  Q 25.17 23.13 28.42 23.72"
/>
<path stroke="#297737" vector-effect="non-scaling-stroke" d="
  M 28.42 23.72
  Q 31.84 20.98 31.95 22.63"
/>
<path stroke="#3fa54e" vector-effect="non-scaling-stroke" d="
  M 31.95 22.63
  L 25.93 34.21"
/>
<path stroke="#258736" vector-effect="non-scaling-stroke" d="
  M 25.93 34.21
  Q 22.45 41.88 19.49 49.59
  Q 18.60 51.90 19.21 53.77
  C 20.90 58.97 23.11 64.48 25.74 69.47
  Q 28.80 75.27 32.03 81.15
  A 0.84 0.84 0.0 0 1 31.26 82.39
  C 29.98 82.34 28.69 82.07 27.56 82.87
  Q 24.81 84.81 22.68 87.13
  Q 22.34 87.50 22.35 88.01
  Q 22.41 91.33 24.67 93.73"
/>
<path stroke="#75a67f" vector-effect="non-scaling-stroke" d="
  M 24.67 93.73
  Q 21.69 97.91 17.47 100.89
  Q 17.28 101.03 17.04 101.07
  Q 16.78 101.12 16.51 101.17
  Q 15.84 101.28 16.21 101.85
  Q 16.36 102.10 16.74 102.26"
/>
<path stroke="#278237" vector-effect="non-scaling-stroke" d="
  M 16.74 102.26
  Q 15.92 103.42 16.50 104.69"
/>
<path stroke="#388f48" vector-effect="non-scaling-stroke" d="
  M 16.50 104.69
  L 16.89 117.69"
/>
<path stroke="#297737" vector-effect="non-scaling-stroke" d="
  M 16.89 117.69
  Q 15.76 123.95 21.37 128.00"
/>
<path stroke="#388f48" vector-effect="non-scaling-stroke" d="
  M 36.57 4.10
  A 1.51 1.51 0.0 0 0 35.21 3.67
  L 33.85 3.92
  A 1.51 1.51 0.0 0 0 32.80 6.12
  L 33.95 8.26
  A 1.51 1.51 0.0 0 0 36.41 8.54
  L 37.61 7.19
  A 1.51 1.51 0.0 0 0 37.57 5.14
  L 36.57 4.10"
/>
<path stroke="#388f48" vector-effect="non-scaling-stroke" d="
  M 93.9545 6.6677
  A 2.35 2.35 0.0 0 0 91.1300 4.9164
  L 89.9227 5.1995
  A 2.35 2.35 0.0 0 0 88.1715 8.0241
  L 88.4455 9.1923
  A 2.35 2.35 0.0 0 0 91.2700 10.9436
  L 92.4773 10.6605
  A 2.35 2.35 0.0 0 0 94.2285 7.8359
  L 93.9545 6.6677"
/>
<path stroke="#388f48" vector-effect="non-scaling-stroke" d="
  M 94.00 15.03
  Q 94.75 18.70 99.33 21.89
  A 1.99 1.99 0.0 0 0 101.91 21.63
  L 105.68 17.65
  A 1.26 1.25 54.2 0 0 105.90 16.25
  Q 104.91 14.18 103.23 13.04
  Q 102.82 12.76 102.58 12.32
  Q 101.91 11.07 100.08 10.45"
/>
<path stroke="#75a67f" vector-effect="non-scaling-stroke" d="
  M 100.08 10.45
  Q 96.91 10.93 94.00 15.03"
/>
<path stroke="#8ae29b" vector-effect="non-scaling-stroke" d="
  M 100.08 10.45
  Q 103.65 15.25 98.27 16.46
  Q 96.91 16.77 94.00 15.03"
/>
<path stroke="#388f48" vector-effect="non-scaling-stroke" d="
  M 23.44 74.58
  A 2.98 2.98 0.0 0 0 20.46 71.60
  A 2.98 2.98 0.0 0 0 17.48 74.58
  A 2.98 2.98 0.0 0 0 20.46 77.56
  A 2.98 2.98 0.0 0 0 23.44 74.58"
/>
<path stroke="#3cbe53" vector-effect="non-scaling-stroke" d="
  M 95.74 20.77
  Q 95.83 22.45 94.00 22.40
  Q 90.59 22.30 87.47 23.98
  A 0.51 0.50 35.1 0 0 87.64 24.92
  L 89.62 25.23
  A 1.11 1.10 -82.2 0 1 90.55 26.46
  Q 90.42 27.51 89.63 27.77
  Q 89.21 27.91 88.95 28.28
  Q 85.76 32.72 86.11 37.77
  Q 86.34 41.06 89.55 39.27
  Q 91.26 38.32 90.19 39.96
  Q 87.44 44.15 86.80 49.97"
/>
<path stroke="#3dd856" vector-effect="non-scaling-stroke" d="
  M 86.80 49.97
  L 86.84 47.45
  Q 86.85 46.95 86.55 46.55
  Q 85.65 45.33 85.37 43.79
  Q 85.28 43.25 84.93 42.84
  Q 84.14 41.88 84.11 40.49
  Q 84.10 40.00 83.79 39.61
  Q 81.79 37.09 80.65 34.22
  Q 79.20 30.58 75.32 28.13
  Q 74.68 27.73 75.43 27.64
  Q 76.12 27.56 76.47 27.29"
/>
<path stroke="#a0e4ab" vector-effect="non-scaling-stroke" d="
  M 76.47 27.29
  Q 77.50 27.57 78.69 28.74"
/>
<path stroke="#54e16a" vector-effect="non-scaling-stroke" d="
  M 78.69 28.74
  L 83.95 36.50
  Q 84.95 37.98 85.22 36.21
  C 85.30 35.68 85.17 35.04 85.43 34.48
  Q 86.68 31.76 87.74 28.79
  Q 87.93 28.24 88.44 27.98
  Q 89.13 27.62 89.34 26.86
  A 0.73 0.73 0.0 0 0 88.81 25.96
  L 78.82 23.53"
/>
<path stroke="#a0e4ab" vector-effect="non-scaling-stroke" d="
  M 78.82 23.53
  Q 78.11 23.25 77.71 22.72"
/>
<path stroke="#54e16a" vector-effect="non-scaling-stroke" d="
  M 77.71 22.72
  Q 76.57 21.83 75.70 20.78
  C 71.96 16.24 67.03 12.92 64.00 7.74
  Q 63.66 7.15 63.99 6.55
  L 64.13 6.28
  Q 64.53 5.57 63.73 5.40
  L 62.98 5.23"
/>
<path stroke="#a6fab1" vector-effect="non-scaling-stroke" d="
  M 77.71 22.72
  Q 76.91 22.20 76.23 22.08
  Q 75.70 21.98 75.36 22.40
  C 72.08 26.51 65.53 25.81 60.65 25.29
  Q 59.26 25.14 58.14 24.54
  Q 57.72 24.32 57.25 24.37
  C 54.29 24.75 52.86 23.61 50.57 22.23
  Q 49.99 21.88 49.38 22.18
  Q 43.52 25.13 37.24 24.98
  A 0.66 0.66 0.0 0 0 36.60 25.44
  L 32.04 39.34"
/>
<path stroke="#41d958" vector-effect="non-scaling-stroke" d="
  M 32.04 39.34
  L 23.61 45.43
  Q 21.61 46.87 22.61 44.62
  Q 24.96 39.29 25.93 34.21"
/>
<path stroke="#45c959" vector-effect="non-scaling-stroke" d="
  M 31.95 22.63
  L 36.58 19.17"
/>
<path stroke="#2da542" vector-effect="non-scaling-stroke" d="
  M 36.15 15.75
  Q 35.85 18.56 34.00 19.75
  Q 29.86 22.42 28.42 23.72"
/>
<path stroke="#79d589" vector-effect="non-scaling-stroke" d="
  M 27.87 18.11
  Q 28.65 18.56 29.51 18.36
  A 1.35 1.35 0.0 0 0 30.52 16.77
  L 29.53 12.11
  A 1.40 1.40 0.0 0 0 27.39 11.23
  L 23.13 14.04
  A 1.36 1.36 0.0 0 0 22.93 16.15
  Q 24.28 17.46 26.75 17.74
  Q 27.35 17.81 27.87 18.11"
/>
<path stroke="#68ca79" vector-effect="non-scaling-stroke" d="
  M 84.59 89.84
  L 79.78 89.94"
/>
<path stroke="#2bcb45" vector-effect="non-scaling-stroke" d="
  M 79.78 89.94
  Q 81.09 88.55 82.41 88.74
  Q 82.92 88.82 83.39 88.60
  Q 87.02 86.96 89.97 84.53
  A 1.98 1.95 -67.9 0 1 90.97 84.10
  C 92.19 83.93 92.34 83.01 93.33 82.78
  A 1.28 1.25 11.9 0 0 94.07 82.31
  Q 96.11 79.68 96.14 76.68
  Q 96.15 75.56 95.41 74.71
  Q 95.30 74.59 95.20 74.45
  Q 94.39 73.31 94.01 74.66
  Q 93.30 77.21 92.57 79.89
  Q 92.41 80.49 92.26 79.88
  Q 92.19 79.61 91.94 79.60
  A 0.11 0.11 0.0 0 0 91.82 79.71
  Q 91.83 79.96 91.65 80.12
  Q 91.45 80.30 91.15 80.30
  Q 86.49 80.45 81.93 80.60
  Q 79.52 80.68 77.17 81.49
  Q 72.72 83.03 67.77 82.53
  A 0.88 0.85 76.5 0 1 67.11 82.11
  L 63.74 76.48"
/>
<path stroke="#29b640" vector-effect="non-scaling-stroke" d="
  M 63.74 76.48
  Q 63.67 75.07 62.29 74.05"
/>
<path stroke="#2da542" vector-effect="non-scaling-stroke" d="
  M 62.29 74.05
  Q 66.25 77.12 67.99 77.62
  C 70.38 78.30 72.83 77.39 75.09 76.52
  Q 76.74 75.88 78.42 75.73
  Q 80.08 75.58 81.62 74.80
  Q 82.05 74.59 81.93 74.13
  L 81.52 72.59"
/>
<path stroke="#3cbe53" vector-effect="non-scaling-stroke" d="
  M 81.52 72.59
  L 83.34 73.59
  Q 84.02 73.96 83.92 73.19
  Q 83.85 72.60 83.52 72.02
  Q 83.22 71.47 83.60 70.98
  L 87.22 66.15"
/>
<path stroke="#2bcb45" vector-effect="non-scaling-stroke" d="
  M 87.22 66.15
  Q 90.51 63.13 94.55 63.76
  Q 95.05 63.84 95.45 63.52
  Q 97.00 62.28 97.49 59.73
  Q 97.76 58.31 96.34 58.08
  Q 93.21 57.56 89.90 57.91
  C 87.18 58.20 85.65 56.11 85.97 53.50
  Q 86.08 52.58 86.80 49.97"
/>
<path stroke="#a6fab1" vector-effect="non-scaling-stroke" d="
  M 78.82 23.53
  Q 82.31 25.69 78.69 28.74"
/>
<path stroke="#8ff19d" vector-effect="non-scaling-stroke" d="
  M 76.47 27.29
  Q 75.09 26.05 72.94 26.25"
/>
<path stroke="#c4fbcb" vector-effect="non-scaling-stroke" d="
  M 72.94 26.25
  Q 66.50 27.30 60.19 26.60
  A 0.53 0.53 0.0 0 0 59.61 27.23
  Q 59.67 27.56 59.98 27.62
  Q 60.58 27.74 60.12 28.14
  Q 59.86 28.36 59.56 28.38
  Q 59.13 28.41 58.81 28.10
  Q 58.10 27.42 57.55 27.76"
/>
<path stroke="#ddfbe1" vector-effect="non-scaling-stroke" d="
  M 57.55 27.76
  Q 56.38 27.48 55.19 27.68
  Q 54.24 27.84 55.17 28.10
  C 55.85 28.29 56.28 28.62 56.55 29.30"
/>
<path stroke="#c4fbcb" vector-effect="non-scaling-stroke" d="
  M 56.55 29.30
  Q 56.63 32.65 53.94 35.71
  C 51.85 38.10 48.96 39.99 45.85 39.30
  Q 41.65 38.36 41.15 42.59
  Q 40.76 45.88 39.86 47.28"
/>
<path stroke="#8ddc98" vector-effect="non-scaling-stroke" d="
  M 39.86 47.28
  Q 37.36 42.68 32.04 39.34"
/>
<path stroke="#61ef76" vector-effect="non-scaling-stroke" d="
  M 72.94 26.25
  Q 70.74 26.75 68.15 27.81
  Q 66.85 28.34 68.21 28.67
  Q 68.32 28.70 69.21 28.61"
/>
<path stroke="#78f88a" vector-effect="non-scaling-stroke" d="
  M 69.21 28.61
  Q 69.27 29.55 68.71 30.15
  Q 68.15 30.74 68.49 30.00
  Q 68.52 29.93 68.53 29.84
  Q 68.61 28.60 68.06 29.72
  Q 67.90 30.06 67.62 30.29
  Q 67.24 30.60 67.41 30.13
  Q 67.48 29.94 67.56 29.73
  Q 67.78 29.19 67.27 28.91
  Q 66.52 28.50 65.63 28.52
  Q 65.04 28.53 65.62 28.64
  Q 66.03 28.72 66.27 29.05
  A 0.74 0.74 0.0 0 1 66.21 30.02
  Q 63.14 33.14 60.57 36.83
  Q 59.61 38.21 58.04 39.36
  Q 56.56 40.45 55.03 41.49
  C 53.92 42.24 52.75 42.16 51.52 42.62
  Q 50.27 43.09 49.00 43.26
  C 47.75 43.44 45.74 44.26 44.99 45.43
  Q 44.59 46.06 43.87 45.87
  A 0.99 0.97 -60.4 0 0 42.89 46.15
  Q 42.02 47.07 42.32 49.15"
/>
<path stroke="#61ef76" vector-effect="non-scaling-stroke" d="
  M 42.32 49.15
  Q 42.11 51.86 41.45 51.97"
/>
<path stroke="#5eda72" vector-effect="non-scaling-stroke" d="
  M 41.45 51.97
  L 39.86 47.28"
/>
<path stroke="#aef9bb" vector-effect="non-scaling-stroke" d="
  M 56.55 29.30
  L 57.44 29.38
  A 0.05 0.04 -61.2 0 1 57.46 29.46
  Q 57.23 29.66 57.44 29.87
  Q 57.71 30.13 57.78 29.76
  Q 57.83 29.54 57.98 29.41
  Q 58.38 29.06 58.10 28.62
  L 57.55 27.76"
/>
<path stroke="#3dd856" vector-effect="non-scaling-stroke" d="
  M 87.22 66.15
  Q 85.82 66.99 84.49 68.56"
/>
<path stroke="#2ec045" vector-effect="non-scaling-stroke" d="
  M 84.49 68.56
  Q 82.61 69.20 81.90 71.06
  Q 81.72 71.53 81.22 71.43
  Q 79.73 71.13 79.07 69.62"
/>
<path stroke="#43ee5c" vector-effect="non-scaling-stroke" d="
  M 79.07 69.62
  Q 80.29 69.82 81.45 68.54
  Q 81.79 68.17 82.25 67.99
  Q 83.66 67.43 85.27 66.21
  Q 85.77 65.83 85.17 65.65
  Q 84.72 65.51 84.37 65.85
  Q 84.29 65.93 84.20 65.86
  Q 84.16 65.82 84.11 65.86
  Q 85.12 65.26 85.90 64.61
  A 0.76 0.75 -55.6 0 0 85.66 63.31
  Q 83.73 62.68 81.96 63.09
  A 1.52 1.50 -74.1 0 0 81.25 63.49
  Q 78.88 65.99 75.98 67.96
  C 73.88 69.39 71.23 69.53 68.75 69.36
  Q 65.23 69.13 65.38 71.03"
/>
<path stroke="#2ec045" vector-effect="non-scaling-stroke" d="
  M 65.38 71.03
  L 57.92 70.56"
/>
<path stroke="#2ad044" vector-effect="non-scaling-stroke" d="
  M 57.92 70.56
  Q 52.14 70.43 49.33 68.14"
/>
<path stroke="#2ec045" vector-effect="non-scaling-stroke" d="
  M 49.33 68.14
  L 44.16 62.97
  A 1.51 1.51 0.0 0 0 42.07 62.92
  Q 40.19 64.63 37.23 64.98
  Q 36.38 65.08 36.10 66.76"
/>
<path stroke="#2ad044" vector-effect="non-scaling-stroke" d="
  M 36.10 66.76
  L 27.76 59.31
  A 1.12 1.10 -69.4 0 1 27.39 58.48
  L 27.39 58.02
  Q 27.39 56.81 28.32 57.58
  Q 30.94 59.73 34.21 59.71
  Q 34.26 59.71 34.27 59.76
  Q 34.29 59.91 34.35 60.04
  Q 34.46 60.27 34.72 60.26
  Q 36.72 60.18 37.23 62.28
  A 0.91 0.90 -19.5 0 0 38.50 62.88
  Q 42.60 60.95 42.02 56.51
  Q 41.69 54.00 41.45 51.97"
/>
<path stroke="#43ee5c" vector-effect="non-scaling-stroke" d="
  M 42.32 49.15
  C 43.75 47.68 44.91 45.91 47.28 46.34
  Q 53.93 47.56 59.63 44.84
  Q 66.13 41.73 68.17 34.64
  C 68.45 33.68 68.31 32.95 68.76 32.01
  Q 68.89 31.74 69.15 31.61
  Q 70.74 30.81 70.62 28.95
  Q 70.59 28.40 70.04 28.37
  Q 69.63 28.35 69.21 28.61"
/>
<path stroke="#2bab41" vector-effect="non-scaling-stroke" d="
  M 36.10 66.76
  Q 36.60 68.01 36.30 70.24
  Q 36.08 71.85 36.37 72.75
  Q 36.89 74.36 37.98 74.85
  Q 42.83 77.07 45.88 72.95
  Q 46.04 72.73 46.30 72.65
  Q 46.47 72.60 46.64 72.63
  Q 47.02 72.70 47.24 72.39
  C 47.93 71.43 48.97 70.94 49.23 69.74
  Q 49.42 68.88 49.33 68.14"
/>
<path stroke="#2bab41" vector-effect="non-scaling-stroke" d="
  M 57.92 70.56
  Q 57.34 70.84 56.91 70.86
  Q 56.63 70.87 56.88 71.01
  L 62.29 74.05"
/>
<path stroke="#2ad044" vector-effect="non-scaling-stroke" d="
  M 63.74 76.48
  Q 61.61 73.28 59.00 73.59
  Q 55.65 73.98 52.22 73.87
  Q 50.66 73.82 49.53 74.30
  Q 48.60 74.69 47.81 74.50
  A 1.52 1.49 -60.0 0 0 46.44 74.88
  Q 45.32 75.95 44.44 77.32
  Q 44.31 77.51 44.43 77.70
  Q 44.62 78.05 44.81 77.71
  Q 44.87 77.59 44.99 77.53
  A 0.22 0.21 76.5 0 1 45.31 77.73
  Q 45.29 78.51 44.58 78.79
  Q 42.36 79.68 40.59 81.90
  Q 40.20 82.38 40.72 82.73
  Q 42.14 83.68 42.99 85.12
  Q 43.90 86.67 45.47 87.59
  Q 47.14 88.57 49.05 88.74
  A 0.63 0.63 0.0 0 1 49.58 89.60
  Q 49.50 89.80 48.93 89.95"
/>
<path stroke="#67d078" vector-effect="non-scaling-stroke" d="
  M 48.93 89.95
  Q 45.57 89.33 45.04 90.67"
/>
<path stroke="#258736" vector-effect="non-scaling-stroke" d="
  M 45.04 90.67
  Q 44.19 89.09 43.12 89.08
  Q 42.63 89.08 42.21 88.83
  L 37.71 86.18"
/>
<path stroke="#2bab41" vector-effect="non-scaling-stroke" d="
  M 37.71 86.18
  Q 38.85 85.08 35.67 84.99
  Q 35.13 84.97 35.13 85.51
  L 35.13 90.37
  A 0.05 0.05 0.0 0 1 35.04 90.41
  Q 34.92 90.28 34.74 90.40
  Q 34.22 90.73 34.85 90.87
  Q 35.38 90.98 36.03 90.71"
/>
<path stroke="#258736" vector-effect="non-scaling-stroke" d="
  M 36.03 90.71
  Q 36.01 90.82 35.98 90.94"
/>
<path stroke="#67d078" vector-effect="non-scaling-stroke" d="
  M 35.98 90.94
  L 28.17 91.20"
/>
<path stroke="#77da88" vector-effect="non-scaling-stroke" d="
  M 28.17 91.20
  Q 27.61 92.68 24.67 93.73"
/>
<path stroke="#77da88" vector-effect="non-scaling-stroke" d="
  M 25.07 87.49
  L 24.38 87.81
  A 0.87 0.86 -16.4 0 0 23.89 88.70
  Q 24.02 89.84 25.34 89.85
  Q 27.84 89.85 29.82 89.28
  A 1.95 1.94 70.9 0 0 31.09 86.66
  Q 30.03 84.11 28.64 84.39
  Q 26.90 84.74 25.98 86.60
  Q 25.68 87.21 25.07 87.49"
/>
<path stroke="#45c959" vector-effect="non-scaling-stroke" d="
  M 79.07 69.62
  Q 72.23 71.19 65.38 71.03"
/>
<path stroke="#3eb353" vector-effect="non-scaling-stroke" d="
  M 81.52 72.59
  Q 81.69 72.34 82.18 72.48
  Q 82.96 72.70 82.58 71.98
  Q 82.45 71.72 82.40 71.42
  Q 82.32 70.87 82.70 70.47
  L 84.49 68.56"
/>
<path stroke="#69e57d" vector-effect="non-scaling-stroke" d="
  M 79.78 89.94
  Q 77.71 88.81 75.48 88.97
  Q 74.95 89.01 74.48 88.78
  Q 73.20 88.18 71.82 88.08
  Q 70.30 87.98 68.85 87.57
  Q 64.65 86.37 63.00 86.98
  Q 56.35 89.44 48.93 89.95"
/>
<path stroke="#7ad88b" vector-effect="non-scaling-stroke" d="
  M 102.81 93.10
  Q 99.87 91.47 100.76 88.82
  A 1.37 1.37 0.0 0 0 99.11 87.06
  Q 96.37 87.79 97.06 90.05
  Q 97.20 90.51 96.76 90.69
  Q 95.92 91.04 94.08 90.78"
/>
<path stroke="#297737" vector-effect="non-scaling-stroke" d="
  M 37.71 86.18
  Q 37.09 85.88 36.70 85.84
  Q 36.16 85.77 36.15 86.31
  L 36.03 90.71"
/>
<path stroke="#659c6f" vector-effect="non-scaling-stroke" d="
  M 45.04 90.67
  L 35.98 90.94"
/>
<path stroke="#7ad88b" vector-effect="non-scaling-stroke" d="
  M 110.78 102.19
  Q 108.98 103.80 107.49 104.35
  Q 106.90 104.57 106.89 105.20
  L 106.82 108.00
  Q 106.82 108.10 106.75 108.10
  L 106.49 108.12
  A 0.25 0.25 0.0 0 1 106.23 107.88
  Q 106.12 104.22 105.04 102.42
  Q 103.43 99.73 100.98 96.99
  Q 100.05 95.95 98.66 95.81
  Q 91.91 95.15 84.64 95.05
  Q 78.58 94.96 71.00 92.96
  C 69.86 92.66 69.67 92.09 68.30 92.07
  Q 64.82 92.01 62.39 92.35
  Q 62.10 92.39 61.84 92.57
  C 61.32 92.94 61.21 93.14 60.52 93.28
  Q 55.16 94.35 49.73 94.65"
/>
<path stroke="#b7efc1" vector-effect="non-scaling-stroke" d="
  M 49.73 94.65
  Q 48.00 94.81 46.62 94.45
  Q 45.32 94.10 46.67 94.09
  Q 48.74 94.07 50.66 93.95
  Q 52.74 93.83 54.61 93.37
  Q 57.00 92.79 59.64 92.65
  Q 60.31 92.61 60.90 92.31
  Q 61.11 92.20 60.88 92.23
  L 52.24 93.06
  Q 51.79 93.11 51.37 93.27
  Q 50.61 93.58 49.80 93.61
  Q 43.15 93.86 36.83 93.20
  Q 36.29 93.14 36.06 92.65
  Q 35.92 92.36 35.67 92.17
  Q 35.29 91.87 34.82 91.93
  Q 31.23 92.32 28.17 91.20"
/>
<path stroke="#8ae29b" vector-effect="non-scaling-stroke" d="
  M 49.73 94.65
  Q 41.55 95.56 33.33 95.74
  Q 31.41 95.78 29.79 96.34
  C 26.96 97.31 24.09 101.48 22.79 103.83
  Q 21.47 106.24 21.72 109.42
  Q 21.75 109.82 21.37 109.90
  Q 21.19 109.93 21.03 109.84
  Q 20.84 109.72 20.74 109.52
  L 20.50 109.02"
/>
<path stroke="#79d589" vector-effect="non-scaling-stroke" d="
  M 20.50 109.02
  Q 20.51 107.60 20.45 106.16
  Q 20.39 104.47 19.55 103.61
  Q 18.44 102.47 16.74 102.26"
/>
<path stroke="#3eb353" vector-effect="non-scaling-stroke" d="
  M 111.32 113.81
  L 109.98 118.92
  Q 109.83 119.50 109.24 119.37
  Q 108.79 119.28 108.36 119.59
  A 1.01 0.97 -4.2 0 0 108.10 119.88
  C 106.68 122.27 103.47 125.97 100.51 125.95
  Q 90.24 125.89 79.88 127.11"
/>
<path stroke="#388f48" vector-effect="non-scaling-stroke" d="
  M 79.88 127.11
  L 76.47 128.00"
/>
<path stroke="#388f48" vector-effect="non-scaling-stroke" d="
  M 72.91 128.00
  Q 70.49 127.52 68.11 128.00"
/>
<path stroke="#388f48" vector-effect="non-scaling-stroke" d="
  M 55.17 128.00
  Q 54.19 127.58 53.23 127.71"
/>
<path stroke="#3eb353" vector-effect="non-scaling-stroke" d="
  M 53.23 127.71
  Q 50.05 125.84 45.75 126.14
  Q 35.29 126.87 24.91 125.52
  Q 24.42 125.46 24.08 125.10
  L 16.89 117.69"
/>
<path stroke="#3cbe53" vector-effect="non-scaling-stroke" d="
  M 16.50 104.69
  Q 16.42 102.91 18.10 104.86
  A 1.53 1.53 0.0 0 1 18.46 105.76
  C 18.67 108.66 18.15 112.51 19.00 115.20
  Q 19.41 116.48 19.67 117.64
  Q 19.69 117.76 19.79 117.84
  Q 19.90 117.92 20.06 117.87
  Q 20.36 117.76 20.37 117.43
  L 20.50 109.02"
/>
<path stroke="#a5e5b1" vector-effect="non-scaling-stroke" d="
  M 34.11 115.02
  Q 33.57 114.98 33.18 115.33
  Q 32.54 115.93 33.42 115.97
  Q 36.00 116.07 38.58 115.97
  Q 38.75 115.97 38.88 115.86
  Q 39.04 115.72 38.88 115.47
  Q 38.73 115.21 38.43 115.14
  L 37.54 114.93
  A 0.67 0.66 -84.6 0 1 37.02 114.29
  L 37.00 106.51
  A 0.63 0.63 0.0 0 0 36.17 105.91
  Q 34.93 106.34 33.85 106.96
  Q 32.21 107.91 34.11 107.98
  Q 34.38 107.99 34.60 108.18
  Q 34.98 108.51 34.97 109.01
  L 34.96 114.23
  Q 34.95 115.08 34.11 115.02"
/>
<path stroke="#a5e5b1" vector-effect="non-scaling-stroke" d="
  M 49.9638 109.6690
  A 3.58 3.58 0.0 0 0 46.4469 106.0270
  L 45.7270 106.0145
  A 3.58 3.58 0.0 0 0 42.0850 109.5315
  L 42.0362 112.3310
  A 3.58 3.58 0.0 0 0 45.5531 115.9730
  L 46.2730 115.9855
  A 3.58 3.58 0.0 0 0 49.9150 112.4685
  L 49.9638 109.6690"
/>
<path stroke="#a5e5b1" vector-effect="non-scaling-stroke" d="
  M 59.9712 109.6922
  A 3.61 3.61 0.0 0 0 56.4183 106.0260
  L 55.7384 106.0153
  A 3.61 3.61 0.0 0 0 52.0722 109.5681
  L 52.0288 112.3278
  A 3.61 3.61 0.0 0 0 55.5817 115.9940
  L 56.2616 116.0047
  A 3.61 3.61 0.0 0 0 59.9278 112.4519
  L 59.9712 109.6922"
/>
<path stroke="#a5e5b1" vector-effect="non-scaling-stroke" d="
  M 26.89 110.16
  A 0.63 0.63 0.0 0 1 26.12 110.16
  L 23.59 108.22
  A 0.63 0.63 0.0 0 0 22.71 109.10
  L 24.66 111.63
  A 0.63 0.63 0.0 0 1 24.66 112.40
  L 22.72 114.93
  A 0.63 0.63 0.0 0 0 23.60 115.81
  L 26.13 113.86
  A 0.63 0.63 0.0 0 1 26.90 113.86
  L 29.43 115.80
  A 0.63 0.63 0.0 0 0 30.31 114.92
  L 28.36 112.39
  A 0.63 0.63 0.0 0 1 28.36 111.62
  L 30.30 109.09
  A 0.63 0.63 0.0 0 0 29.42 108.21
  L 26.89 110.16"
/>
<path stroke="#a5e5b1" vector-effect="non-scaling-stroke" d="
  M 73.00 116.02
  L 72.75 116.89
  Q 72.46 117.95 71.36 117.97
  L 68.45 118.04
  A 0.37 0.37 0.0 0 0 68.09 118.39
  L 68.08 118.65
  Q 68.07 118.81 68.23 118.84
  C 70.99 119.41 74.88 119.10 74.97 115.50
  Q 75.06 112.00 75.01 108.56
  A 0.66 0.66 0.0 0 0 74.19 107.93
  C 72.18 108.43 70.35 107.42 68.56 108.79
  Q 66.63 110.26 67.04 112.65
  Q 67.83 117.22 72.24 115.35
  Q 73.31 114.90 73.00 116.02"
/>
<path stroke="#a5e5b1" vector-effect="non-scaling-stroke" d="
  M 79.51 112.13
  L 83.25 112.08
  Q 84.19 112.07 84.02 111.15
  C 83.78 109.85 83.61 108.57 82.08 108.22
  Q 77.77 107.26 77.16 111.37
  C 76.53 115.57 80.51 117.09 83.68 115.33
  A 0.61 0.60 -15.8 0 0 83.99 114.79
  L 83.98 114.23
  Q 83.97 113.59 83.40 113.90
  C 82.78 114.26 82.16 114.80 81.42 114.84
  Q 79.19 114.94 79.11 112.54
  A 0.40 0.40 0.0 0 1 79.51 112.13"
/>
<path stroke="#a5e5b1" vector-effect="non-scaling-stroke" d="
  M 88.1573 108.7284
  A 0.70 0.70 0.0 0 0 87.4759 108.0103
  L 86.7961 107.9925
  A 0.70 0.70 0.0 0 0 86.0780 108.6739
  L 85.9027 115.3716
  A 0.70 0.70 0.0 0 0 86.5841 116.0897
  L 87.2639 116.1075
  A 0.70 0.70 0.0 0 0 87.9820 115.4261
  L 88.1573 108.7284"
/>
<path stroke="#a5e5b1" vector-effect="non-scaling-stroke" d="
  M 90.87 109.98
  L 91.02 115.12
  A 0.86 0.86 0.0 0 0 91.87 115.96
  L 92.23 115.96
  A 0.72 0.71 1.2 0 0 92.96 115.27
  L 93.11 109.66
  Q 93.13 109.07 92.64 108.74
  Q 91.17 107.72 89.61 108.15
  Q 88.10 108.56 89.61 108.99
  L 90.24 109.17
  Q 90.85 109.35 90.87 109.98"
/>
<path stroke="#a5e5b1" vector-effect="non-scaling-stroke" d="
  M 95.95 110.24
  L 96.06 115.19
  A 0.91 0.91 0.0 0 0 96.93 116.08
  L 97.21 116.09
  Q 97.87 116.13 97.92 115.47
  C 98.11 112.87 99.02 107.22 94.45 108.12
  Q 94.19 108.17 94.05 108.38
  Q 93.71 108.89 94.32 108.92
  Q 94.88 108.94 95.37 109.23
  A 1.22 1.20 15.6 0 1 95.95 110.24"
/>
<path stroke="#a5e5b1" vector-effect="non-scaling-stroke" d="
  M 103.28 114.84
  Q 101.95 115.06 100.65 114.37
  Q 100.28 114.17 100.11 114.56
  L 99.98 114.85
  A 0.34 0.34 0.0 0 0 100.13 115.28
  Q 103.81 117.32 105.94 114.12
  A 1.62 1.62 0.0 0 0 105.25 111.74
  Q 104.29 111.31 103.34 110.95
  Q 100.34 109.82 103.47 109.18
  Q 104.63 108.94 105.93 110.15
  Q 106.15 110.36 106.26 110.07
  L 106.51 109.40
  Q 106.58 109.21 106.42 109.09
  C 104.56 107.68 100.06 107.38 100.02 110.69
  A 2.00 1.99 9.6 0 0 101.39 112.61
  L 103.48 113.30
  A 0.76 0.75 -71.1 0 1 103.95 114.27
  Q 103.78 114.76 103.28 114.84"
/>
<path stroke="#a5e5b1" vector-effect="non-scaling-stroke" d="
  M 46.0000 115.0600
  A 4.07 2.10 90.0 0 0 48.1000 110.9900
  A 4.07 2.10 90.0 0 0 46.0000 106.9200
  A 4.07 2.10 90.0 0 0 43.9000 110.9900
  A 4.07 2.10 90.0 0 0 46.0000 115.0600"
/>
<path stroke="#a5e5b1" vector-effect="non-scaling-stroke" d="
  M 56.0000 115.0600
  A 4.04 2.09 90.0 0 0 58.0900 111.0200
  A 4.04 2.09 90.0 0 0 56.0000 106.9800
  A 4.04 2.09 90.0 0 0 53.9100 111.0200
  A 4.04 2.09 90.0 0 0 56.0000 115.0600"
/>
<path stroke="#a5e5b1" vector-effect="non-scaling-stroke" d="
  M 72.43 114.26
  Q 73.45 113.12 72.86 109.45
  Q 72.77 108.89 72.19 108.93
  C 71.04 109.01 69.71 109.29 69.31 110.54
  Q 68.56 112.85 69.61 114.17
  Q 70.97 115.90 72.43 114.26"
/>
<path stroke="#a5e5b1" vector-effect="non-scaling-stroke" d="
  M 79.46 110.94
  L 81.23 111.00
  Q 81.98 111.03 81.96 110.28
  Q 81.94 109.60 81.36 109.34
  Q 79.70 108.59 79.10 110.43
  Q 78.95 110.92 79.46 110.94"
/>
<path stroke="#297737" vector-effect="non-scaling-stroke" d="
  M 98.76 128.00
  L 79.88 127.11"
/>
<path stroke="#297737" vector-effect="non-scaling-stroke" d="
  M 53.23 127.71
  L 29.37 128.00"
/>
</g>
<path fill="#23532c" d="
  M 0.00 0.00
  L 128.00 0.00
  L 128.00 128.00
  L 106.71 128.00
  Q 111.82 124.32 111.32 113.81
  L 110.78 102.19
  L 102.81 93.10
  Q 106.43 90.75 105.20 88.05
  Q 104.37 86.23 101.79 85.06
  Q 95.31 82.12 94.08 90.78
  Q 88.86 91.91 84.59 89.84
  L 84.22 89.64
  Q 83.75 89.39 84.26 89.21
  Q 88.30 87.82 92.03 85.65
  Q 96.31 83.17 98.42 78.65
  Q 104.74 65.07 109.49 52.58
  Q 109.94 51.40 109.89 50.36
  Q 109.82 49.16 109.21 48.15
  Q 108.00 46.12 107.65 44.46
  C 107.42 43.36 106.95 42.75 106.29 41.89
  Q 105.62 41.03 105.20 39.99
  Q 103.93 36.89 102.28 33.89
  C 100.00 29.74 98.26 25.28 96.38 20.90
  A 0.40 0.40 0.0 0 0 96.03 20.66
  Q 95.87 20.66 95.74 20.77
  Q 95.65 20.52 95.41 20.38
  Q 80.52 11.88 64.77 5.13
  Q 63.73 4.69 62.98 5.23
  Q 49.16 10.78 36.58 19.17
  Q 35.69 19.21 36.15 15.75
  Q 35.54 14.24 33.41 12.08
  C 31.07 9.71 28.93 9.41 26.04 11.13
  Q 24.60 11.99 23.26 12.99
  Q 21.63 14.21 21.36 15.95
  Q 21.14 17.36 22.29 19.01
  Q 25.17 23.13 28.42 23.72
  Q 31.84 20.98 31.95 22.63
  L 25.93 34.21
  Q 22.45 41.88 19.49 49.59
  Q 18.60 51.90 19.21 53.77
  C 20.90 58.97 23.11 64.48 25.74 69.47
  Q 28.80 75.27 32.03 81.15
  A 0.84 0.84 0.0 0 1 31.26 82.39
  C 29.98 82.34 28.69 82.07 27.56 82.87
  Q 24.81 84.81 22.68 87.13
  Q 22.34 87.50 22.35 88.01
  Q 22.41 91.33 24.67 93.73
  Q 21.69 97.91 17.47 100.89
  Q 17.28 101.03 17.04 101.07
  Q 16.78 101.12 16.51 101.17
  Q 15.84 101.28 16.21 101.85
  Q 16.36 102.10 16.74 102.26
  Q 15.92 103.42 16.50 104.69
  L 16.89 117.69
  Q 15.76 123.95 21.37 128.00
  L 0.00 128.00
  L 0.00 0.00
  Z
  M 36.57 4.10
  A 1.51 1.51 0.0 0 0 35.21 3.67
  L 33.85 3.92
  A 1.51 1.51 0.0 0 0 32.80 6.12
  L 33.95 8.26
  A 1.51 1.51 0.0 0 0 36.41 8.54
  L 37.61 7.19
  A 1.51 1.51 0.0 0 0 37.57 5.14
  L 36.57 4.10
  Z
  M 93.9545 6.6677
  A 2.35 2.35 0.0 0 0 91.1300 4.9164
  L 89.9227 5.1995
  A 2.35 2.35 0.0 0 0 88.1715 8.0241
  L 88.4455 9.1923
  A 2.35 2.35 0.0 0 0 91.2700 10.9436
  L 92.4773 10.6605
  A 2.35 2.35 0.0 0 0 94.2285 7.8359
  L 93.9545 6.6677
  Z
  M 94.00 15.03
  Q 94.75 18.70 99.33 21.89
  A 1.99 1.99 0.0 0 0 101.91 21.63
  L 105.68 17.65
  A 1.26 1.25 54.2 0 0 105.90 16.25
  Q 104.91 14.18 103.23 13.04
  Q 102.82 12.76 102.58 12.32
  Q 101.91 11.07 100.08 10.45
  Q 96.91 10.93 94.00 15.03
  Z
  M 23.44 74.58
  A 2.98 2.98 0.0 0 0 20.46 71.60
  A 2.98 2.98 0.0 0 0 17.48 74.58
  A 2.98 2.98 0.0 0 0 20.46 77.56
  A 2.98 2.98 0.0 0 0 23.44 74.58
  Z"
/>
<path fill="#4dcb64" d="
  M 36.57 4.10
  L 37.57 5.14
  A 1.51 1.51 0.0 0 1 37.61 7.19
  L 36.41 8.54
  A 1.51 1.51 0.0 0 1 33.95 8.26
  L 32.80 6.12
  A 1.51 1.51 0.0 0 1 33.85 3.92
  L 35.21 3.67
  A 1.51 1.51 0.0 0 1 36.57 4.10
  Z"
/>
<path fill="#4dcb64" d="
  M 95.74 20.77
  Q 95.83 22.45 94.00 22.40
  Q 90.59 22.30 87.47 23.98
  A 0.51 0.50 35.1 0 0 87.64 24.92
  L 89.62 25.23
  A 1.11 1.10 -82.2 0 1 90.55 26.46
  Q 90.42 27.51 89.63 27.77
  Q 89.21 27.91 88.95 28.28
  Q 85.76 32.72 86.11 37.77
  Q 86.34 41.06 89.55 39.27
  Q 91.26 38.32 90.19 39.96
  Q 87.44 44.15 86.80 49.97
  L 86.84 47.45
  Q 86.85 46.95 86.55 46.55
  Q 85.65 45.33 85.37 43.79
  Q 85.28 43.25 84.93 42.84
  Q 84.14 41.88 84.11 40.49
  Q 84.10 40.00 83.79 39.61
  Q 81.79 37.09 80.65 34.22
  Q 79.20 30.58 75.32 28.13
  Q 74.68 27.73 75.43 27.64
  Q 76.12 27.56 76.47 27.29
  Q 77.50 27.57 78.69 28.74
  L 83.95 36.50
  Q 84.95 37.98 85.22 36.21
  C 85.30 35.68 85.17 35.04 85.43 34.48
  Q 86.68 31.76 87.74 28.79
  Q 87.93 28.24 88.44 27.98
  Q 89.13 27.62 89.34 26.86
  A 0.73 0.73 0.0 0 0 88.81 25.96
  L 78.82 23.53
  Q 78.11 23.25 77.71 22.72
  Q 76.57 21.83 75.70 20.78
  C 71.96 16.24 67.03 12.92 64.00 7.74
  Q 63.66 7.15 63.99 6.55
  L 64.13 6.28
  Q 64.53 5.57 63.73 5.40
  L 62.98 5.23
  Q 63.73 4.69 64.77 5.13
  Q 80.52 11.88 95.41 20.38
  Q 95.65 20.52 95.74 20.77
  Z"
/>
<rect fill="#4dcb64" x="-2.97" y="-2.95" transform="translate(91.20,7.93) rotate(-13.2)" width="5.94" height="5.90" rx="2.35"/>
<path fill="#5af770" d="
  M 62.98 5.23
  L 63.73 5.40
  Q 64.53 5.57 64.13 6.28
  L 63.99 6.55
  Q 63.66 7.15 64.00 7.74
  C 67.03 12.92 71.96 16.24 75.70 20.78
  Q 76.57 21.83 77.71 22.72
  Q 76.91 22.20 76.23 22.08
  Q 75.70 21.98 75.36 22.40
  C 72.08 26.51 65.53 25.81 60.65 25.29
  Q 59.26 25.14 58.14 24.54
  Q 57.72 24.32 57.25 24.37
  C 54.29 24.75 52.86 23.61 50.57 22.23
  Q 49.99 21.88 49.38 22.18
  Q 43.52 25.13 37.24 24.98
  A 0.66 0.66 0.0 0 0 36.60 25.44
  L 32.04 39.34
  L 23.61 45.43
  Q 21.61 46.87 22.61 44.62
  Q 24.96 39.29 25.93 34.21
  L 31.95 22.63
  L 36.58 19.17
  Q 49.16 10.78 62.98 5.23
  Z"
/>
<path fill="#2ab041" d="
  M 36.15 15.75
  Q 35.85 18.56 34.00 19.75
  Q 29.86 22.42 28.42 23.72
  Q 25.17 23.13 22.29 19.01
  Q 21.14 17.36 21.36 15.95
  Q 21.63 14.21 23.26 12.99
  Q 24.60 11.99 26.04 11.13
  C 28.93 9.41 31.07 9.71 33.41 12.08
  Q 35.54 14.24 36.15 15.75
  Z
  M 27.87 18.11
  Q 28.65 18.56 29.51 18.36
  A 1.35 1.35 0.0 0 0 30.52 16.77
  L 29.53 12.11
  A 1.40 1.40 0.0 0 0 27.39 11.23
  L 23.13 14.04
  A 1.36 1.36 0.0 0 0 22.93 16.15
  Q 24.28 17.46 26.75 17.74
  Q 27.35 17.81 27.87 18.11
  Z"
/>
<path fill="#c7f9d1" d="
  M 100.08 10.45
  Q 103.65 15.25 98.27 16.46
  Q 96.91 16.77 94.00 15.03
  Q 96.91 10.93 100.08 10.45
  Z"
/>
<path fill="#4dcb64" d="
  M 100.08 10.45
  Q 101.91 11.07 102.58 12.32
  Q 102.82 12.76 103.23 13.04
  Q 104.91 14.18 105.90 16.25
  A 1.26 1.25 54.2 0 1 105.68 17.65
  L 101.91 21.63
  A 1.99 1.99 0.0 0 1 99.33 21.89
  Q 94.75 18.70 94.00 15.03
  Q 96.91 16.77 98.27 16.46
  Q 103.65 15.25 100.08 10.45
  Z"
/>
<path fill="#c7f9d1" d="
  M 26.75 17.74
  Q 24.28 17.46 22.93 16.15
  A 1.36 1.36 0.0 0 1 23.13 14.04
  L 27.39 11.23
  A 1.40 1.40 0.0 0 1 29.53 12.11
  L 30.52 16.77
  A 1.35 1.35 0.0 0 1 29.51 18.36
  Q 28.65 18.56 27.87 18.11
  Q 27.35 17.81 26.75 17.74
  Z"
/>
<path fill="#2f9a42" d="
  M 36.15 15.75
  Q 35.69 19.21 36.58 19.17
  L 31.95 22.63
  Q 31.84 20.98 28.42 23.72
  Q 29.86 22.42 34.00 19.75
  Q 35.85 18.56 36.15 15.75
  Z"
/>
<path fill="#2ab041" d="
  M 95.74 20.77
  Q 95.87 20.66 96.03 20.66
  A 0.40 0.40 0.0 0 1 96.38 20.90
  C 98.26 25.28 100.00 29.74 102.28 33.89
  Q 103.93 36.89 105.20 39.99
  Q 105.62 41.03 106.29 41.89
  C 106.95 42.75 107.42 43.36 107.65 44.46
  Q 108.00 46.12 109.21 48.15
  Q 109.82 49.16 109.89 50.36
  Q 109.94 51.40 109.49 52.58
  Q 104.74 65.07 98.42 78.65
  Q 96.31 83.17 92.03 85.65
  Q 88.30 87.82 84.26 89.21
  Q 83.75 89.39 84.22 89.64
  L 84.59 89.84
  L 79.78 89.94
  Q 81.09 88.55 82.41 88.74
  Q 82.92 88.82 83.39 88.60
  Q 87.02 86.96 89.97 84.53
  A 1.98 1.95 -67.9 0 1 90.97 84.10
  C 92.19 83.93 92.34 83.01 93.33 82.78
  A 1.28 1.25 11.9 0 0 94.07 82.31
  Q 96.11 79.68 96.14 76.68
  Q 96.15 75.56 95.41 74.71
  Q 95.30 74.59 95.20 74.45
  Q 94.39 73.31 94.01 74.66
  Q 93.30 77.21 92.57 79.89
  Q 92.41 80.49 92.26 79.88
  Q 92.19 79.61 91.94 79.60
  A 0.11 0.11 0.0 0 0 91.82 79.71
  Q 91.83 79.96 91.65 80.12
  Q 91.45 80.30 91.15 80.30
  Q 86.49 80.45 81.93 80.60
  Q 79.52 80.68 77.17 81.49
  Q 72.72 83.03 67.77 82.53
  A 0.88 0.85 76.5 0 1 67.11 82.11
  L 63.74 76.48
  Q 63.67 75.07 62.29 74.05
  Q 66.25 77.12 67.99 77.62
  C 70.38 78.30 72.83 77.39 75.09 76.52
  Q 76.74 75.88 78.42 75.73
  Q 80.08 75.58 81.62 74.80
  Q 82.05 74.59 81.93 74.13
  L 81.52 72.59
  L 83.34 73.59
  Q 84.02 73.96 83.92 73.19
  Q 83.85 72.60 83.52 72.02
  Q 83.22 71.47 83.60 70.98
  L 87.22 66.15
  Q 90.51 63.13 94.55 63.76
  Q 95.05 63.84 95.45 63.52
  Q 97.00 62.28 97.49 59.73
  Q 97.76 58.31 96.34 58.08
  Q 93.21 57.56 89.90 57.91
  C 87.18 58.20 85.65 56.11 85.97 53.50
  Q 86.08 52.58 86.80 49.97
  Q 87.44 44.15 90.19 39.96
  Q 91.26 38.32 89.55 39.27
  Q 86.34 41.06 86.11 37.77
  Q 85.76 32.72 88.95 28.28
  Q 89.21 27.91 89.63 27.77
  Q 90.42 27.51 90.55 26.46
  A 1.11 1.10 -82.2 0 0 89.62 25.23
  L 87.64 24.92
  A 0.51 0.50 35.1 0 1 87.47 23.98
  Q 90.59 22.30 94.00 22.40
  Q 95.83 22.45 95.74 20.77
  Z"
/>
<path fill="#f2fcf1" d="
  M 77.71 22.72
  Q 78.11 23.25 78.82 23.53
  Q 82.31 25.69 78.69 28.74
  Q 77.50 27.57 76.47 27.29
  Q 75.09 26.05 72.94 26.25
  Q 66.50 27.30 60.19 26.60
  A 0.53 0.53 0.0 0 0 59.61 27.23
  Q 59.67 27.56 59.98 27.62
  Q 60.58 27.74 60.12 28.14
  Q 59.86 28.36 59.56 28.38
  Q 59.13 28.41 58.81 28.10
  Q 58.10 27.42 57.55 27.76
  Q 56.38 27.48 55.19 27.68
  Q 54.24 27.84 55.17 28.10
  C 55.85 28.29 56.28 28.62 56.55 29.30
  Q 56.63 32.65 53.94 35.71
  C 51.85 38.10 48.96 39.99 45.85 39.30
  Q 41.65 38.36 41.15 42.59
  Q 40.76 45.88 39.86 47.28
  Q 37.36 42.68 32.04 39.34
  L 36.60 25.44
  A 0.66 0.66 0.0 0 1 37.24 24.98
  Q 43.52 25.13 49.38 22.18
  Q 49.99 21.88 50.57 22.23
  C 52.86 23.61 54.29 24.75 57.25 24.37
  Q 57.72 24.32 58.14 24.54
  Q 59.26 25.14 60.65 25.29
  C 65.53 25.81 72.08 26.51 75.36 22.40
  Q 75.70 21.98 76.23 22.08
  Q 76.91 22.20 77.71 22.72
  Z"
/>
<path fill="#5af770" d="
  M 78.82 23.53
  L 88.81 25.96
  A 0.73 0.73 0.0 0 1 89.34 26.86
  Q 89.13 27.62 88.44 27.98
  Q 87.93 28.24 87.74 28.79
  Q 86.68 31.76 85.43 34.48
  C 85.17 35.04 85.30 35.68 85.22 36.21
  Q 84.95 37.98 83.95 36.50
  L 78.69 28.74
  Q 82.31 25.69 78.82 23.53
  Z"
/>
<path fill="#95f9a4" d="
  M 72.94 26.25
  Q 70.74 26.75 68.15 27.81
  Q 66.85 28.34 68.21 28.67
  Q 68.32 28.70 69.21 28.61
  Q 69.27 29.55 68.71 30.15
  Q 68.15 30.74 68.49 30.00
  Q 68.52 29.93 68.53 29.84
  Q 68.61 28.60 68.06 29.72
  Q 67.90 30.06 67.62 30.29
  Q 67.24 30.60 67.41 30.13
  Q 67.48 29.94 67.56 29.73
  Q 67.78 29.19 67.27 28.91
  Q 66.52 28.50 65.63 28.52
  Q 65.04 28.53 65.62 28.64
  Q 66.03 28.72 66.27 29.05
  A 0.74 0.74 0.0 0 1 66.21 30.02
  Q 63.14 33.14 60.57 36.83
  Q 59.61 38.21 58.04 39.36
  Q 56.56 40.45 55.03 41.49
  C 53.92 42.24 52.75 42.16 51.52 42.62
  Q 50.27 43.09 49.00 43.26
  C 47.75 43.44 45.74 44.26 44.99 45.43
  Q 44.59 46.06 43.87 45.87
  A 0.99 0.97 -60.4 0 0 42.89 46.15
  Q 42.02 47.07 42.32 49.15
  Q 42.11 51.86 41.45 51.97
  L 39.86 47.28
  Q 40.76 45.88 41.15 42.59
  Q 41.65 38.36 45.85 39.30
  C 48.96 39.99 51.85 38.10 53.94 35.71
  Q 56.63 32.65 56.55 29.30
  L 57.44 29.38
  A 0.05 0.04 -61.2 0 1 57.46 29.46
  Q 57.23 29.66 57.44 29.87
  Q 57.71 30.13 57.78 29.76
  Q 57.83 29.54 57.98 29.41
  Q 58.38 29.06 58.10 28.62
  L 57.55 27.76
  Q 58.10 27.42 58.81 28.10
  Q 59.13 28.41 59.56 28.38
  Q 59.86 28.36 60.12 28.14
  Q 60.58 27.74 59.98 27.62
  Q 59.67 27.56 59.61 27.23
  A 0.53 0.53 0.0 0 1 60.19 26.60
  Q 66.50 27.30 72.94 26.25
  Z"
/>
<path fill="#2ce548" d="
  M 72.94 26.25
  Q 75.09 26.05 76.47 27.29
  Q 76.12 27.56 75.43 27.64
  Q 74.68 27.73 75.32 28.13
  Q 79.20 30.58 80.65 34.22
  Q 81.79 37.09 83.79 39.61
  Q 84.10 40.00 84.11 40.49
  Q 84.14 41.88 84.93 42.84
  Q 85.28 43.25 85.37 43.79
  Q 85.65 45.33 86.55 46.55
  Q 86.85 46.95 86.84 47.45
  L 86.80 49.97
  Q 86.08 52.58 85.97 53.50
  C 85.65 56.11 87.18 58.20 89.90 57.91
  Q 93.21 57.56 96.34 58.08
  Q 97.76 58.31 97.49 59.73
  Q 97.00 62.28 95.45 63.52
  Q 95.05 63.84 94.55 63.76
  Q 90.51 63.13 87.22 66.15
  Q 85.82 66.99 84.49 68.56
  Q 82.61 69.20 81.90 71.06
  Q 81.72 71.53 81.22 71.43
  Q 79.73 71.13 79.07 69.62
  Q 80.29 69.82 81.45 68.54
  Q 81.79 68.17 82.25 67.99
  Q 83.66 67.43 85.27 66.21
  Q 85.77 65.83 85.17 65.65
  Q 84.72 65.51 84.37 65.85
  Q 84.29 65.93 84.20 65.86
  Q 84.16 65.82 84.11 65.86
  Q 85.12 65.26 85.90 64.61
  A 0.76 0.75 -55.6 0 0 85.66 63.31
  Q 83.73 62.68 81.96 63.09
  A 1.52 1.50 -74.1 0 0 81.25 63.49
  Q 78.88 65.99 75.98 67.96
  C 73.88 69.39 71.23 69.53 68.75 69.36
  Q 65.23 69.13 65.38 71.03
  L 57.92 70.56
  Q 52.14 70.43 49.33 68.14
  L 44.16 62.97
  A 1.51 1.51 0.0 0 0 42.07 62.92
  Q 40.19 64.63 37.23 64.98
  Q 36.38 65.08 36.10 66.76
  L 27.76 59.31
  A 1.12 1.10 -69.4 0 1 27.39 58.48
  L 27.39 58.02
  Q 27.39 56.81 28.32 57.58
  Q 30.94 59.73 34.21 59.71
  Q 34.26 59.71 34.27 59.76
  Q 34.29 59.91 34.35 60.04
  Q 34.46 60.27 34.72 60.26
  Q 36.72 60.18 37.23 62.28
  A 0.91 0.90 -19.5 0 0 38.50 62.88
  Q 42.60 60.95 42.02 56.51
  Q 41.69 54.00 41.45 51.97
  Q 42.11 51.86 42.32 49.15
  C 43.75 47.68 44.91 45.91 47.28 46.34
  Q 53.93 47.56 59.63 44.84
  Q 66.13 41.73 68.17 34.64
  C 68.45 33.68 68.31 32.95 68.76 32.01
  Q 68.89 31.74 69.15 31.61
  Q 70.74 30.81 70.62 28.95
  Q 70.59 28.40 70.04 28.37
  Q 69.63 28.35 69.21 28.61
  Q 68.32 28.70 68.21 28.67
  Q 66.85 28.34 68.15 27.81
  Q 70.74 26.75 72.94 26.25
  Z"
/>
<path fill="#c7f9d1" d="
  M 57.55 27.76
  L 58.10 28.62
  Q 58.38 29.06 57.98 29.41
  Q 57.83 29.54 57.78 29.76
  Q 57.71 30.13 57.44 29.87
  Q 57.23 29.66 57.46 29.46
  A 0.05 0.04 -61.2 0 0 57.44 29.38
  L 56.55 29.30
  C 56.28 28.62 55.85 28.29 55.17 28.10
  Q 54.24 27.84 55.19 27.68
  Q 56.38 27.48 57.55 27.76
  Z"
/>
<path fill="#5af770" d="
  M 69.21 28.61
  Q 69.63 28.35 70.04 28.37
  Q 70.59 28.40 70.62 28.95
  Q 70.74 30.81 69.15 31.61
  Q 68.89 31.74 68.76 32.01
  C 68.31 32.95 68.45 33.68 68.17 34.64
  Q 66.13 41.73 59.63 44.84
  Q 53.93 47.56 47.28 46.34
  C 44.91 45.91 43.75 47.68 42.32 49.15
  Q 42.02 47.07 42.89 46.15
  A 0.99 0.97 -60.4 0 1 43.87 45.87
  Q 44.59 46.06 44.99 45.43
  C 45.74 44.26 47.75 43.44 49.00 43.26
  Q 50.27 43.09 51.52 42.62
  C 52.75 42.16 53.92 42.24 55.03 41.49
  Q 56.56 40.45 58.04 39.36
  Q 59.61 38.21 60.57 36.83
  Q 63.14 33.14 66.21 30.02
  A 0.74 0.74 0.0 0 0 66.27 29.05
  Q 66.03 28.72 65.62 28.64
  Q 65.04 28.53 65.63 28.52
  Q 66.52 28.50 67.27 28.91
  Q 67.78 29.19 67.56 29.73
  Q 67.48 29.94 67.41 30.13
  Q 67.24 30.60 67.62 30.29
  Q 67.90 30.06 68.06 29.72
  Q 68.61 28.60 68.53 29.84
  Q 68.52 29.93 68.49 30.00
  Q 68.15 30.74 68.71 30.15
  Q 69.27 29.55 69.21 28.61
  Z"
/>
<path fill="#27bb3f" d="
  M 25.93 34.21
  Q 24.96 39.29 22.61 44.62
  Q 21.61 46.87 23.61 45.43
  L 32.04 39.34
  Q 37.36 42.68 39.86 47.28
  L 41.45 51.97
  Q 41.69 54.00 42.02 56.51
  Q 42.60 60.95 38.50 62.88
  A 0.91 0.90 -19.5 0 1 37.23 62.28
  Q 36.72 60.18 34.72 60.26
  Q 34.46 60.27 34.35 60.04
  Q 34.29 59.91 34.27 59.76
  Q 34.26 59.71 34.21 59.71
  Q 30.94 59.73 28.32 57.58
  Q 27.39 56.81 27.39 58.02
  L 27.39 58.48
  A 1.12 1.10 -69.4 0 0 27.76 59.31
  L 36.10 66.76
  Q 36.60 68.01 36.30 70.24
  Q 36.08 71.85 36.37 72.75
  Q 36.89 74.36 37.98 74.85
  Q 42.83 77.07 45.88 72.95
  Q 46.04 72.73 46.30 72.65
  Q 46.47 72.60 46.64 72.63
  Q 47.02 72.70 47.24 72.39
  C 47.93 71.43 48.97 70.94 49.23 69.74
  Q 49.42 68.88 49.33 68.14
  Q 52.14 70.43 57.92 70.56
  Q 57.34 70.84 56.91 70.86
  Q 56.63 70.87 56.88 71.01
  L 62.29 74.05
  Q 63.67 75.07 63.74 76.48
  Q 61.61 73.28 59.00 73.59
  Q 55.65 73.98 52.22 73.87
  Q 50.66 73.82 49.53 74.30
  Q 48.60 74.69 47.81 74.50
  A 1.52 1.49 -60.0 0 0 46.44 74.88
  Q 45.32 75.95 44.44 77.32
  Q 44.31 77.51 44.43 77.70
  Q 44.62 78.05 44.81 77.71
  Q 44.87 77.59 44.99 77.53
  A 0.22 0.21 76.5 0 1 45.31 77.73
  Q 45.29 78.51 44.58 78.79
  Q 42.36 79.68 40.59 81.90
  Q 40.20 82.38 40.72 82.73
  Q 42.14 83.68 42.99 85.12
  Q 43.90 86.67 45.47 87.59
  Q 47.14 88.57 49.05 88.74
  A 0.63 0.63 0.0 0 1 49.58 89.60
  Q 49.50 89.80 48.93 89.95
  Q 45.57 89.33 45.04 90.67
  Q 44.19 89.09 43.12 89.08
  Q 42.63 89.08 42.21 88.83
  L 37.71 86.18
  Q 38.85 85.08 35.67 84.99
  Q 35.13 84.97 35.13 85.51
  L 35.13 90.37
  A 0.05 0.05 0.0 0 1 35.04 90.41
  Q 34.92 90.28 34.74 90.40
  Q 34.22 90.73 34.85 90.87
  Q 35.38 90.98 36.03 90.71
  Q 36.01 90.82 35.98 90.94
  L 28.17 91.20
  Q 27.61 92.68 24.67 93.73
  Q 22.41 91.33 22.35 88.01
  Q 22.34 87.50 22.68 87.13
  Q 24.81 84.81 27.56 82.87
  C 28.69 82.07 29.98 82.34 31.26 82.39
  A 0.84 0.84 0.0 0 0 32.03 81.15
  Q 28.80 75.27 25.74 69.47
  C 23.11 64.48 20.90 58.97 19.21 53.77
  Q 18.60 51.90 19.49 49.59
  Q 22.45 41.88 25.93 34.21
  Z
  M 25.07 87.49
  L 24.38 87.81
  A 0.87 0.86 -16.4 0 0 23.89 88.70
  Q 24.02 89.84 25.34 89.85
  Q 27.84 89.85 29.82 89.28
  A 1.95 1.94 70.9 0 0 31.09 86.66
  Q 30.03 84.11 28.64 84.39
  Q 26.90 84.74 25.98 86.60
  Q 25.68 87.21 25.07 87.49
  Z"
/>
<path fill="#2f9a42" d="
  M 49.33 68.14
  Q 49.42 68.88 49.23 69.74
  C 48.97 70.94 47.93 71.43 47.24 72.39
  Q 47.02 72.70 46.64 72.63
  Q 46.47 72.60 46.30 72.65
  Q 46.04 72.73 45.88 72.95
  Q 42.83 77.07 37.98 74.85
  Q 36.89 74.36 36.37 72.75
  Q 36.08 71.85 36.30 70.24
  Q 36.60 68.01 36.10 66.76
  Q 36.38 65.08 37.23 64.98
  Q 40.19 64.63 42.07 62.92
  A 1.51 1.51 0.0 0 1 44.16 62.97
  L 49.33 68.14
  Z"
/>
<path fill="#5af770" d="
  M 79.07 69.62
  Q 72.23 71.19 65.38 71.03
  Q 65.23 69.13 68.75 69.36
  C 71.23 69.53 73.88 69.39 75.98 67.96
  Q 78.88 65.99 81.25 63.49
  A 1.52 1.50 -74.1 0 1 81.96 63.09
  Q 83.73 62.68 85.66 63.31
  A 0.76 0.75 -55.6 0 1 85.90 64.61
  Q 85.12 65.26 84.11 65.86
  Q 84.16 65.82 84.20 65.86
  Q 84.29 65.93 84.37 65.85
  Q 84.72 65.51 85.17 65.65
  Q 85.77 65.83 85.27 66.21
  Q 83.66 67.43 82.25 67.99
  Q 81.79 68.17 81.45 68.54
  Q 80.29 69.82 79.07 69.62
  Z"
/>
<path fill="#4dcb64" d="
  M 87.22 66.15
  L 83.60 70.98
  Q 83.22 71.47 83.52 72.02
  Q 83.85 72.60 83.92 73.19
  Q 84.02 73.96 83.34 73.59
  L 81.52 72.59
  Q 81.69 72.34 82.18 72.48
  Q 82.96 72.70 82.58 71.98
  Q 82.45 71.72 82.40 71.42
  Q 82.32 70.87 82.70 70.47
  L 84.49 68.56
  Q 85.82 66.99 87.22 66.15
  Z"
/>
<path fill="#2f9a42" d="
  M 84.49 68.56
  L 82.70 70.47
  Q 82.32 70.87 82.40 71.42
  Q 82.45 71.72 82.58 71.98
  Q 82.96 72.70 82.18 72.48
  Q 81.69 72.34 81.52 72.59
  L 81.93 74.13
  Q 82.05 74.59 81.62 74.80
  Q 80.08 75.58 78.42 75.73
  Q 76.74 75.88 75.09 76.52
  C 72.83 77.39 70.38 78.30 67.99 77.62
  Q 66.25 77.12 62.29 74.05
  L 56.88 71.01
  Q 56.63 70.87 56.91 70.86
  Q 57.34 70.84 57.92 70.56
  L 65.38 71.03
  Q 72.23 71.19 79.07 69.62
  Q 79.73 71.13 81.22 71.43
  Q 81.72 71.53 81.90 71.06
  Q 82.61 69.20 84.49 68.56
  Z"
/>
<circle fill="#4dcb64" cx="20.46" cy="74.58" r="2.98"/>
<path fill="#2ce548" d="
  M 63.74 76.48
  L 67.11 82.11
  A 0.88 0.85 76.5 0 0 67.77 82.53
  Q 72.72 83.03 77.17 81.49
  Q 79.52 80.68 81.93 80.60
  Q 86.49 80.45 91.15 80.30
  Q 91.45 80.30 91.65 80.12
  Q 91.83 79.96 91.82 79.71
  A 0.11 0.11 0.0 0 1 91.94 79.60
  Q 92.19 79.61 92.26 79.88
  Q 92.41 80.49 92.57 79.89
  Q 93.30 77.21 94.01 74.66
  Q 94.39 73.31 95.20 74.45
  Q 95.30 74.59 95.41 74.71
  Q 96.15 75.56 96.14 76.68
  Q 96.11 79.68 94.07 82.31
  A 1.28 1.25 11.9 0 1 93.33 82.78
  C 92.34 83.01 92.19 83.93 90.97 84.10
  A 1.98 1.95 -67.9 0 0 89.97 84.53
  Q 87.02 86.96 83.39 88.60
  Q 82.92 88.82 82.41 88.74
  Q 81.09 88.55 79.78 89.94
  Q 77.71 88.81 75.48 88.97
  Q 74.95 89.01 74.48 88.78
  Q 73.20 88.18 71.82 88.08
  Q 70.30 87.98 68.85 87.57
  Q 64.65 86.37 63.00 86.98
  Q 56.35 89.44 48.93 89.95
  Q 49.50 89.80 49.58 89.60
  A 0.63 0.63 0.0 0 0 49.05 88.74
  Q 47.14 88.57 45.47 87.59
  Q 43.90 86.67 42.99 85.12
  Q 42.14 83.68 40.72 82.73
  Q 40.20 82.38 40.59 81.90
  Q 42.36 79.68 44.58 78.79
  Q 45.29 78.51 45.31 77.73
  A 0.22 0.21 76.5 0 0 44.99 77.53
  Q 44.87 77.59 44.81 77.71
  Q 44.62 78.05 44.43 77.70
  Q 44.31 77.51 44.44 77.32
  Q 45.32 75.95 46.44 74.88
  A 1.52 1.49 -60.0 0 1 47.81 74.50
  Q 48.60 74.69 49.53 74.30
  Q 50.66 73.82 52.22 73.87
  Q 55.65 73.98 59.00 73.59
  Q 61.61 73.28 63.74 76.48
  Z"
/>
<path fill="#4dcb64" d="
  M 102.81 93.10
  Q 99.87 91.47 100.76 88.82
  A 1.37 1.37 0.0 0 0 99.11 87.06
  Q 96.37 87.79 97.06 90.05
  Q 97.20 90.51 96.76 90.69
  Q 95.92 91.04 94.08 90.78
  Q 95.31 82.12 101.79 85.06
  Q 104.37 86.23 105.20 88.05
  Q 106.43 90.75 102.81 93.10
  Z"
/>
<path fill="#c7f9d1" d="
  M 25.98 86.60
  Q 26.90 84.74 28.64 84.39
  Q 30.03 84.11 31.09 86.66
  A 1.95 1.94 70.9 0 1 29.82 89.28
  Q 27.84 89.85 25.34 89.85
  Q 24.02 89.84 23.89 88.70
  A 0.87 0.86 -16.4 0 1 24.38 87.81
  L 25.07 87.49
  Q 25.68 87.21 25.98 86.60
  Z"
/>
<path fill="#2f9a42" d="
  M 37.71 86.18
  Q 37.09 85.88 36.70 85.84
  Q 36.16 85.77 36.15 86.31
  L 36.03 90.71
  Q 35.38 90.98 34.85 90.87
  Q 34.22 90.73 34.74 90.40
  Q 34.92 90.28 35.04 90.41
  A 0.05 0.05 0.0 0 0 35.13 90.37
  L 35.13 85.51
  Q 35.13 84.97 35.67 84.99
  Q 38.85 85.08 37.71 86.18
  Z"
/>
<path fill="#23532c" d="
  M 37.71 86.18
  L 42.21 88.83
  Q 42.63 89.08 43.12 89.08
  Q 44.19 89.09 45.04 90.67
  L 35.98 90.94
  Q 36.01 90.82 36.03 90.71
  L 36.15 86.31
  Q 36.16 85.77 36.70 85.84
  Q 37.09 85.88 37.71 86.18
  Z"
/>
<path fill="#a6e4b1" d="
  M 79.78 89.94
  L 84.59 89.84
  Q 88.86 91.91 94.08 90.78
  Q 95.92 91.04 96.76 90.69
  Q 97.20 90.51 97.06 90.05
  Q 96.37 87.79 99.11 87.06
  A 1.37 1.37 0.0 0 1 100.76 88.82
  Q 99.87 91.47 102.81 93.10
  L 110.78 102.19
  Q 108.98 103.80 107.49 104.35
  Q 106.90 104.57 106.89 105.20
  L 106.82 108.00
  Q 106.82 108.10 106.75 108.10
  L 106.49 108.12
  A 0.25 0.25 0.0 0 1 106.23 107.88
  Q 106.12 104.22 105.04 102.42
  Q 103.43 99.73 100.98 96.99
  Q 100.05 95.95 98.66 95.81
  Q 91.91 95.15 84.64 95.05
  Q 78.58 94.96 71.00 92.96
  C 69.86 92.66 69.67 92.09 68.30 92.07
  Q 64.82 92.01 62.39 92.35
  Q 62.10 92.39 61.84 92.57
  C 61.32 92.94 61.21 93.14 60.52 93.28
  Q 55.16 94.35 49.73 94.65
  Q 48.00 94.81 46.62 94.45
  Q 45.32 94.10 46.67 94.09
  Q 48.74 94.07 50.66 93.95
  Q 52.74 93.83 54.61 93.37
  Q 57.00 92.79 59.64 92.65
  Q 60.31 92.61 60.90 92.31
  Q 61.11 92.20 60.88 92.23
  L 52.24 93.06
  Q 51.79 93.11 51.37 93.27
  Q 50.61 93.58 49.80 93.61
  Q 43.15 93.86 36.83 93.20
  Q 36.29 93.14 36.06 92.65
  Q 35.92 92.36 35.67 92.17
  Q 35.29 91.87 34.82 91.93
  Q 31.23 92.32 28.17 91.20
  L 35.98 90.94
  L 45.04 90.67
  Q 45.57 89.33 48.93 89.95
  Q 56.35 89.44 63.00 86.98
  Q 64.65 86.37 68.85 87.57
  Q 70.30 87.98 71.82 88.08
  Q 73.20 88.18 74.48 88.78
  Q 74.95 89.01 75.48 88.97
  Q 77.71 88.81 79.78 89.94
  Z"
/>
<path fill="#c7f9d1" d="
  M 28.17 91.20
  Q 31.23 92.32 34.82 91.93
  Q 35.29 91.87 35.67 92.17
  Q 35.92 92.36 36.06 92.65
  Q 36.29 93.14 36.83 93.20
  Q 43.15 93.86 49.80 93.61
  Q 50.61 93.58 51.37 93.27
  Q 51.79 93.11 52.24 93.06
  L 60.88 92.23
  Q 61.11 92.20 60.90 92.31
  Q 60.31 92.61 59.64 92.65
  Q 57.00 92.79 54.61 93.37
  Q 52.74 93.83 50.66 93.95
  Q 48.74 94.07 46.67 94.09
  Q 45.32 94.10 46.62 94.45
  Q 48.00 94.81 49.73 94.65
  Q 41.55 95.56 33.33 95.74
  Q 31.41 95.78 29.79 96.34
  C 26.96 97.31 24.09 101.48 22.79 103.83
  Q 21.47 106.24 21.72 109.42
  Q 21.75 109.82 21.37 109.90
  Q 21.19 109.93 21.03 109.84
  Q 20.84 109.72 20.74 109.52
  L 20.50 109.02
  Q 20.51 107.60 20.45 106.16
  Q 20.39 104.47 19.55 103.61
  Q 18.44 102.47 16.74 102.26
  Q 16.36 102.10 16.21 101.85
  Q 15.84 101.28 16.51 101.17
  Q 16.78 101.12 17.04 101.07
  Q 17.28 101.03 17.47 100.89
  Q 21.69 97.91 24.67 93.73
  Q 27.61 92.68 28.17 91.20
  Z"
/>
<path fill="#4dcb64" d="
  M 110.78 102.19
  L 111.32 113.81
  L 109.98 118.92
  Q 109.83 119.50 109.24 119.37
  Q 108.79 119.28 108.36 119.59
  A 1.01 0.97 -4.2 0 0 108.10 119.88
  C 106.68 122.27 103.47 125.97 100.51 125.95
  Q 90.24 125.89 79.88 127.11
  L 76.47 128.00
  L 72.91 128.00
  Q 70.49 127.52 68.11 128.00
  L 55.17 128.00
  Q 54.19 127.58 53.23 127.71
  Q 50.05 125.84 45.75 126.14
  Q 35.29 126.87 24.91 125.52
  Q 24.42 125.46 24.08 125.10
  L 16.89 117.69
  L 16.50 104.69
  Q 16.42 102.91 18.10 104.86
  A 1.53 1.53 0.0 0 1 18.46 105.76
  C 18.67 108.66 18.15 112.51 19.00 115.20
  Q 19.41 116.48 19.67 117.64
  Q 19.69 117.76 19.79 117.84
  Q 19.90 117.92 20.06 117.87
  Q 20.36 117.76 20.37 117.43
  L 20.50 109.02
  L 20.74 109.52
  Q 20.84 109.72 21.03 109.84
  Q 21.19 109.93 21.37 109.90
  Q 21.75 109.82 21.72 109.42
  Q 21.47 106.24 22.79 103.83
  C 24.09 101.48 26.96 97.31 29.79 96.34
  Q 31.41 95.78 33.33 95.74
  Q 41.55 95.56 49.73 94.65
  Q 55.16 94.35 60.52 93.28
  C 61.21 93.14 61.32 92.94 61.84 92.57
  Q 62.10 92.39 62.39 92.35
  Q 64.82 92.01 68.30 92.07
  C 69.67 92.09 69.86 92.66 71.00 92.96
  Q 78.58 94.96 84.64 95.05
  Q 91.91 95.15 98.66 95.81
  Q 100.05 95.95 100.98 96.99
  Q 103.43 99.73 105.04 102.42
  Q 106.12 104.22 106.23 107.88
  A 0.25 0.25 0.0 0 0 106.49 108.12
  L 106.75 108.10
  Q 106.82 108.10 106.82 108.00
  L 106.89 105.20
  Q 106.90 104.57 107.49 104.35
  Q 108.98 103.80 110.78 102.19
  Z
  M 34.11 115.02
  Q 33.57 114.98 33.18 115.33
  Q 32.54 115.93 33.42 115.97
  Q 36.00 116.07 38.58 115.97
  Q 38.75 115.97 38.88 115.86
  Q 39.04 115.72 38.88 115.47
  Q 38.73 115.21 38.43 115.14
  L 37.54 114.93
  A 0.67 0.66 -84.6 0 1 37.02 114.29
  L 37.00 106.51
  A 0.63 0.63 0.0 0 0 36.17 105.91
  Q 34.93 106.34 33.85 106.96
  Q 32.21 107.91 34.11 107.98
  Q 34.38 107.99 34.60 108.18
  Q 34.98 108.51 34.97 109.01
  L 34.96 114.23
  Q 34.95 115.08 34.11 115.02
  Z
  M 49.9638 109.6690
  A 3.58 3.58 0.0 0 0 46.4469 106.0270
  L 45.7270 106.0145
  A 3.58 3.58 0.0 0 0 42.0850 109.5315
  L 42.0362 112.3310
  A 3.58 3.58 0.0 0 0 45.5531 115.9730
  L 46.2730 115.9855
  A 3.58 3.58 0.0 0 0 49.9150 112.4685
  L 49.9638 109.6690
  Z
  M 59.9712 109.6922
  A 3.61 3.61 0.0 0 0 56.4183 106.0260
  L 55.7384 106.0153
  A 3.61 3.61 0.0 0 0 52.0722 109.5681
  L 52.0288 112.3278
  A 3.61 3.61 0.0 0 0 55.5817 115.9940
  L 56.2616 116.0047
  A 3.61 3.61 0.0 0 0 59.9278 112.4519
  L 59.9712 109.6922
  Z
  M 26.89 110.16
  A 0.63 0.63 0.0 0 1 26.12 110.16
  L 23.59 108.22
  A 0.63 0.63 0.0 0 0 22.71 109.10
  L 24.66 111.63
  A 0.63 0.63 0.0 0 1 24.66 112.40
  L 22.72 114.93
  A 0.63 0.63 0.0 0 0 23.60 115.81
  L 26.13 113.86
  A 0.63 0.63 0.0 0 1 26.90 113.86
  L 29.43 115.80
  A 0.63 0.63 0.0 0 0 30.31 114.92
  L 28.36 112.39
  A 0.63 0.63 0.0 0 1 28.36 111.62
  L 30.30 109.09
  A 0.63 0.63 0.0 0 0 29.42 108.21
  L 26.89 110.16
  Z
  M 73.00 116.02
  L 72.75 116.89
  Q 72.46 117.95 71.36 117.97
  L 68.45 118.04
  A 0.37 0.37 0.0 0 0 68.09 118.39
  L 68.08 118.65
  Q 68.07 118.81 68.23 118.84
  C 70.99 119.41 74.88 119.10 74.97 115.50
  Q 75.06 112.00 75.01 108.56
  A 0.66 0.66 0.0 0 0 74.19 107.93
  C 72.18 108.43 70.35 107.42 68.56 108.79
  Q 66.63 110.26 67.04 112.65
  Q 67.83 117.22 72.24 115.35
  Q 73.31 114.90 73.00 116.02
  Z
  M 79.51 112.13
  L 83.25 112.08
  Q 84.19 112.07 84.02 111.15
  C 83.78 109.85 83.61 108.57 82.08 108.22
  Q 77.77 107.26 77.16 111.37
  C 76.53 115.57 80.51 117.09 83.68 115.33
  A 0.61 0.60 -15.8 0 0 83.99 114.79
  L 83.98 114.23
  Q 83.97 113.59 83.40 113.90
  C 82.78 114.26 82.16 114.80 81.42 114.84
  Q 79.19 114.94 79.11 112.54
  A 0.40 0.40 0.0 0 1 79.51 112.13
  Z
  M 88.1573 108.7284
  A 0.70 0.70 0.0 0 0 87.4759 108.0103
  L 86.7961 107.9925
  A 0.70 0.70 0.0 0 0 86.0780 108.6739
  L 85.9027 115.3716
  A 0.70 0.70 0.0 0 0 86.5841 116.0897
  L 87.2639 116.1075
  A 0.70 0.70 0.0 0 0 87.9820 115.4261
  L 88.1573 108.7284
  Z
  M 90.87 109.98
  L 91.02 115.12
  A 0.86 0.86 0.0 0 0 91.87 115.96
  L 92.23 115.96
  A 0.72 0.71 1.2 0 0 92.96 115.27
  L 93.11 109.66
  Q 93.13 109.07 92.64 108.74
  Q 91.17 107.72 89.61 108.15
  Q 88.10 108.56 89.61 108.99
  L 90.24 109.17
  Q 90.85 109.35 90.87 109.98
  Z
  M 95.95 110.24
  L 96.06 115.19
  A 0.91 0.91 0.0 0 0 96.93 116.08
  L 97.21 116.09
  Q 97.87 116.13 97.92 115.47
  C 98.11 112.87 99.02 107.22 94.45 108.12
  Q 94.19 108.17 94.05 108.38
  Q 93.71 108.89 94.32 108.92
  Q 94.88 108.94 95.37 109.23
  A 1.22 1.20 15.6 0 1 95.95 110.24
  Z
  M 103.28 114.84
  Q 101.95 115.06 100.65 114.37
  Q 100.28 114.17 100.11 114.56
  L 99.98 114.85
  A 0.34 0.34 0.0 0 0 100.13 115.28
  Q 103.81 117.32 105.94 114.12
  A 1.62 1.62 0.0 0 0 105.25 111.74
  Q 104.29 111.31 103.34 110.95
  Q 100.34 109.82 103.47 109.18
  Q 104.63 108.94 105.93 110.15
  Q 106.15 110.36 106.26 110.07
  L 106.51 109.40
  Q 106.58 109.21 106.42 109.09
  C 104.56 107.68 100.06 107.38 100.02 110.69
  A 2.00 1.99 9.6 0 0 101.39 112.61
  L 103.48 113.30
  A 0.76 0.75 -71.1 0 1 103.95 114.27
  Q 103.78 114.76 103.28 114.84
  Z"
/>
<path fill="#2ab041" d="
  M 16.74 102.26
  Q 18.44 102.47 19.55 103.61
  Q 20.39 104.47 20.45 106.16
  Q 20.51 107.60 20.50 109.02
  L 20.37 117.43
  Q 20.36 117.76 20.06 117.87
  Q 19.90 117.92 19.79 117.84
  Q 19.69 117.76 19.67 117.64
  Q 19.41 116.48 19.00 115.20
  C 18.15 112.51 18.67 108.66 18.46 105.76
  A 1.53 1.53 0.0 0 0 18.10 104.86
  Q 16.42 102.91 16.50 104.69
  Q 15.92 103.42 16.74 102.26
  Z"
/>
<path fill="#fdfffe" d="
  M 34.96 114.23
  L 34.97 109.01
  Q 34.98 108.51 34.60 108.18
  Q 34.38 107.99 34.11 107.98
  Q 32.21 107.91 33.85 106.96
  Q 34.93 106.34 36.17 105.91
  A 0.63 0.63 0.0 0 1 37.00 106.51
  L 37.02 114.29
  A 0.67 0.66 -84.6 0 0 37.54 114.93
  L 38.43 115.14
  Q 38.73 115.21 38.88 115.47
  Q 39.04 115.72 38.88 115.86
  Q 38.75 115.97 38.58 115.97
  Q 36.00 116.07 33.42 115.97
  Q 32.54 115.93 33.18 115.33
  Q 33.57 114.98 34.11 115.02
  Q 34.95 115.08 34.96 114.23
  Z"
/>
<path fill="#fdfffe" d="
  M 49.9150 112.4685
  A 3.58 3.58 0.0 0 1 46.2730 115.9855
  L 45.5531 115.9730
  A 3.58 3.58 0.0 0 1 42.0362 112.3310
  L 42.0850 109.5315
  A 3.58 3.58 0.0 0 1 45.7270 106.0145
  L 46.4469 106.0270
  A 3.58 3.58 0.0 0 1 49.9638 109.6690
  L 49.9150 112.4685
  Z
  M 46.0000 115.0600
  A 4.07 2.10 90.0 0 0 48.1000 110.9900
  A 4.07 2.10 90.0 0 0 46.0000 106.9200
  A 4.07 2.10 90.0 0 0 43.9000 110.9900
  A 4.07 2.10 90.0 0 0 46.0000 115.0600
  Z"
/>
<path fill="#fdfffe" d="
  M 59.9278 112.4519
  A 3.61 3.61 0.0 0 1 56.2616 116.0047
  L 55.5817 115.9940
  A 3.61 3.61 0.0 0 1 52.0288 112.3278
  L 52.0722 109.5681
  A 3.61 3.61 0.0 0 1 55.7384 106.0153
  L 56.4183 106.0260
  A 3.61 3.61 0.0 0 1 59.9712 109.6922
  L 59.9278 112.4519
  Z
  M 56.0000 115.0600
  A 4.04 2.09 90.0 0 0 58.0900 111.0200
  A 4.04 2.09 90.0 0 0 56.0000 106.9800
  A 4.04 2.09 90.0 0 0 53.9100 111.0200
  A 4.04 2.09 90.0 0 0 56.0000 115.0600
  Z"
/>
<ellipse fill="#4dcb64" cx="0.00" cy="0.00" transform="translate(46.00,110.99) rotate(90.0)" rx="4.07" ry="2.10"/>
<ellipse fill="#4dcb64" cx="0.00" cy="0.00" transform="translate(56.00,111.02) rotate(90.0)" rx="4.04" ry="2.09"/>
<path fill="#fdfffe" d="
  M 26.89 110.16
  L 29.42 108.21
  A 0.63 0.63 0.0 0 1 30.30 109.09
  L 28.36 111.62
  A 0.63 0.63 0.0 0 0 28.36 112.39
  L 30.31 114.92
  A 0.63 0.63 0.0 0 1 29.43 115.80
  L 26.90 113.86
  A 0.63 0.63 0.0 0 0 26.13 113.86
  L 23.60 115.81
  A 0.63 0.63 0.0 0 1 22.72 114.93
  L 24.66 112.40
  A 0.63 0.63 0.0 0 0 24.66 111.63
  L 22.71 109.10
  A 0.63 0.63 0.0 0 1 23.59 108.22
  L 26.12 110.16
  A 0.63 0.63 0.0 0 0 26.89 110.16
  Z"
/>
<path fill="#fdfffe" d="
  M 73.00 116.02
  Q 73.31 114.90 72.24 115.35
  Q 67.83 117.22 67.04 112.65
  Q 66.63 110.26 68.56 108.79
  C 70.35 107.42 72.18 108.43 74.19 107.93
  A 0.66 0.66 0.0 0 1 75.01 108.56
  Q 75.06 112.00 74.97 115.50
  C 74.88 119.10 70.99 119.41 68.23 118.84
  Q 68.07 118.81 68.08 118.65
  L 68.09 118.39
  A 0.37 0.37 0.0 0 1 68.45 118.04
  L 71.36 117.97
  Q 72.46 117.95 72.75 116.89
  L 73.00 116.02
  Z
  M 72.43 114.26
  Q 73.45 113.12 72.86 109.45
  Q 72.77 108.89 72.19 108.93
  C 71.04 109.01 69.71 109.29 69.31 110.54
  Q 68.56 112.85 69.61 114.17
  Q 70.97 115.90 72.43 114.26
  Z"
/>
<path fill="#fdfffe" d="
  M 79.51 112.13
  A 0.40 0.40 0.0 0 0 79.11 112.54
  Q 79.19 114.94 81.42 114.84
  C 82.16 114.80 82.78 114.26 83.40 113.90
  Q 83.97 113.59 83.98 114.23
  L 83.99 114.79
  A 0.61 0.60 -15.8 0 1 83.68 115.33
  C 80.51 117.09 76.53 115.57 77.16 111.37
  Q 77.77 107.26 82.08 108.22
  C 83.61 108.57 83.78 109.85 84.02 111.15
  Q 84.19 112.07 83.25 112.08
  L 79.51 112.13
  Z
  M 79.46 110.94
  L 81.23 111.00
  Q 81.98 111.03 81.96 110.28
  Q 81.94 109.60 81.36 109.34
  Q 79.70 108.59 79.10 110.43
  Q 78.95 110.92 79.46 110.94
  Z"
/>
<rect fill="#fdfffe" x="-1.04" y="-4.05" transform="translate(87.03,112.05) rotate(1.5)" width="2.08" height="8.10" rx="0.70"/>
<path fill="#fdfffe" d="
  M 90.24 109.17
  L 89.61 108.99
  Q 88.10 108.56 89.61 108.15
  Q 91.17 107.72 92.64 108.74
  Q 93.13 109.07 93.11 109.66
  L 92.96 115.27
  A 0.72 0.71 1.2 0 1 92.23 115.96
  L 91.87 115.96
  A 0.86 0.86 0.0 0 1 91.02 115.12
  L 90.87 109.98
  Q 90.85 109.35 90.24 109.17
  Z"
/>
<path fill="#fdfffe" d="
  M 95.37 109.23
  Q 94.88 108.94 94.32 108.92
  Q 93.71 108.89 94.05 108.38
  Q 94.19 108.17 94.45 108.12
  C 99.02 107.22 98.11 112.87 97.92 115.47
  Q 97.87 116.13 97.21 116.09
  L 96.93 116.08
  A 0.91 0.91 0.0 0 1 96.06 115.19
  L 95.95 110.24
  A 1.22 1.20 15.6 0 0 95.37 109.23
  Z"
/>
<path fill="#fdfffe" d="
  M 103.28 114.84
  Q 103.78 114.76 103.95 114.27
  A 0.76 0.75 -71.1 0 0 103.48 113.30
  L 101.39 112.61
  A 2.00 1.99 9.6 0 1 100.02 110.69
  C 100.06 107.38 104.56 107.68 106.42 109.09
  Q 106.58 109.21 106.51 109.40
  L 106.26 110.07
  Q 106.15 110.36 105.93 110.15
  Q 104.63 108.94 103.47 109.18
  Q 100.34 109.82 103.34 110.95
  Q 104.29 111.31 105.25 111.74
  A 1.62 1.62 0.0 0 1 105.94 114.12
  Q 103.81 117.32 100.13 115.28
  A 0.34 0.34 0.0 0 1 99.98 114.85
  L 100.11 114.56
  Q 100.28 114.17 100.65 114.37
  Q 101.95 115.06 103.28 114.84
  Z"
/>
<path fill="#4dcb64" d="
  M 72.43 114.26
  Q 70.97 115.90 69.61 114.17
  Q 68.56 112.85 69.31 110.54
  C 69.71 109.29 71.04 109.01 72.19 108.93
  Q 72.77 108.89 72.86 109.45
  Q 73.45 113.12 72.43 114.26
  Z"
/>
<path fill="#4dcb64" d="
  M 79.46 110.94
  Q 78.95 110.92 79.10 110.43
  Q 79.70 108.59 81.36 109.34
  Q 81.94 109.60 81.96 110.28
  Q 81.98 111.03 81.23 111.00
  L 79.46 110.94
  Z"
/>
<path fill="#2f9a42" d="
  M 111.32 113.81
  Q 111.82 124.32 106.71 128.00
  L 98.76 128.00
  L 79.88 127.11
  Q 90.24 125.89 100.51 125.95
  C 103.47 125.97 106.68 122.27 108.10 119.88
  A 1.01 0.97 -4.2 0 1 108.36 119.59
  Q 108.79 119.28 109.24 119.37
  Q 109.83 119.50 109.98 118.92
  L 111.32 113.81
  Z"
/>
<path fill="#2f9a42" d="
  M 16.89 117.69
  L 24.08 125.10
  Q 24.42 125.46 24.91 125.52
  Q 35.29 126.87 45.75 126.14
  Q 50.05 125.84 53.23 127.71
  L 29.37 128.00
  L 21.37 128.00
  Q 15.76 123.95 16.89 117.69
  Z"
/>
<path fill="#23532c" d="
  M 79.88 127.11
  L 98.76 128.00
  L 76.47 128.00
  L 79.88 127.11
  Z"
/>
<path fill="#23532c" d="
  M 53.23 127.71
  Q 54.19 127.58 55.17 128.00
  L 29.37 128.00
  L 53.23 127.71
  Z"
/>
<path fill="#23532c" d="
  M 72.91 128.00
  L 68.11 128.00
  Q 70.49 127.52 72.91 128.00
  Z"
/>
</svg>
