<?xml version="1.0" encoding="UTF-8" standalone="no"?>
<!DOCTYPE svg PUBLIC "-//W3C//DTD SVG 1.1//EN" "http://www.w3.org/Graphics/SVG/1.1/DTD/svg11.dtd">
<svg xmlns="http://www.w3.org/2000/svg" version="1.1" viewBox="0.00 0.00 128.00 128.00">
<g stroke-width="2.00" fill="none" stroke-linecap="butt">
<path stroke="#bbbbbb" vector-effect="non-scaling-stroke" d="
  M 2.98 120.14
  Q 4.35 121.54 6.03 121.28
  Q 6.77 121.16 7.73 120.31
  Q 8.46 119.65 9.31 119.04
  Q 9.68 118.77 9.91 118.38
  Q 11.31 116.01 13.41 114.79
  Q 13.51 114.73 13.59 114.83
  Q 13.67 114.92 13.60 115.09
  Q 13.56 115.18 13.46 115.18
  Q 12.28 115.23 12.13 116.29
  Q 12.06 116.74 11.73 117.06
  L 7.91 120.73
  Q 7.74 120.90 7.91 121.06
  L 8.13 121.27
  A 0.03 0.02 -52.0 0 0 8.17 121.26
  Q 9.30 119.75 10.84 118.97
  Q 12.71 118.03 13.62 117.13
  Q 16.40 114.41 18.64 111.85
  Q 18.97 111.47 19.46 111.35
  Q 21.50 110.81 23.39 111.02
  Q 31.17 111.90 39.37 111.71
  A 0.06 0.06 0.0 0 1 39.43 111.77
  L 39.44 112.09
  Q 39.44 112.38 39.15 112.38
  Q 31.12 112.37 22.72 112.37
  C 21.87 112.37 20.94 112.84 20.25 113.30
  Q 19.48 113.83 18.82 114.73
  Q 16.82 117.50 13.59 119.78"
/>
<path stroke="#a3a4a5" vector-effect="non-scaling-stroke" d="
  M 13.59 119.78
  L 11.34 121.63
  Q 10.67 122.18 11.47 121.86
  L 13.99 120.83"
/>
<path stroke="#969696" vector-effect="non-scaling-stroke" d="
  M 13.99 120.83
  L 10.94 123.35
  A 1.35 1.35 0.0 0 0 11.12 125.56
  Q 12.43 126.32 13.99 126.23
  Q 37.78 124.78 64.69 125.25
  C 73.97 125.41 82.91 125.22 92.25 125.43
  Q 94.27 125.48 96.39 125.47
  Q 110.37 125.40 126.07 126.25
  A 0.64 0.64 0.0 0 0 126.74 125.57
  Q 126.35 119.33 126.38 112.82
  Q 126.54 79.15 126.11 45.68
  Q 125.92 30.42 126.57 12.51
  Q 126.65 10.23 124.80 9.89
  Q 124.30 9.80 123.93 10.15
  Q 121.89 12.08 120.47 14.50
  Q 120.40 14.61 120.29 14.54
  L 120.29 14.54
  Q 120.17 14.46 120.25 14.34
  Q 120.72 13.65 120.86 12.82
  Q 121.00 11.97 120.56 12.71
  C 120.14 13.40 120.00 14.44 119.51 14.97
  Q 117.45 17.21 115.00 19.13"
/>
<path stroke="#bbbbbb" vector-effect="non-scaling-stroke" d="
  M 115.00 19.13
  Q 115.01 17.68 116.26 16.69
  Q 116.59 16.42 116.64 16.01
  Q 116.76 15.02 117.59 14.33
  Q 118.24 13.79 118.74 13.04
  Q 119.90 11.29 120.40 9.44
  Q 120.92 7.52 122.75 6.12
  A 1.25 1.24 -63.0 0 1 123.54 5.86
  L 126.83 5.94
  Q 127.61 5.95 127.62 5.17
  L 127.62 3.86
  Q 127.63 2.97 126.74 3.01
  Q 123.33 3.18 120.08 1.74"
/>
<path stroke="#d9d9d9" vector-effect="non-scaling-stroke" d="
  M 120.08 1.74
  Q 100.13 0.86 79.76 1.06
  C 58.54 1.28 37.42 0.95 16.12 1.38
  C 11.41 1.47 6.56 0.24 1.93 0.98
  A 1.28 1.28 0.0 0 0 0.87 2.44
  C 2.80 14.53 1.82 26.01 1.90 37.75
  Q 2.14 70.83 1.85 94.19
  Q 1.67 108.92 2.98 120.14"
/>
<path stroke="#e1e1e1" vector-effect="non-scaling-stroke" d="
  M 120.08 1.74
  Q 122.13 3.75 121.53 4.76
  Q 120.39 6.71 118.88 8.16
  Q 115.40 11.50 110.46 15.79
  Q 109.37 16.74 108.25 16.71
  Q 86.02 16.09 73.52 16.36
  Q 70.27 16.43 58.76 17.31
  C 51.87 17.83 44.57 17.67 37.70 17.18
  Q 28.36 16.52 19.21 16.31
  A 2.23 2.23 0.0 0 0 16.93 18.53
  Q 16.87 60.90 16.84 101.56
  C 16.84 105.93 18.13 108.94 13.90 112.01
  Q 12.25 113.21 10.67 115.38
  Q 9.13 117.50 6.43 120.41
  Q 5.37 121.55 2.98 120.14"
/>
<path stroke="#9e9f9e" vector-effect="non-scaling-stroke" d="
  M 115.00 19.13
  Q 112.66 21.98 113.40 25.24
  Q 114.08 28.21 114.01 30.46
  Q 113.86 35.73 113.86 41.17
  Q 113.86 41.70 114.10 42.17
  Q 114.42 42.79 114.40 43.49
  Q 114.01 60.90 113.97 76.50
  C 113.96 84.34 114.32 92.49 113.91 100.52
  C 113.73 103.85 113.97 107.20 114.01 110.54
  A 2.56 2.56 0.0 0 1 111.48 113.12
  Q 104.60 113.20 96.86 113.00
  Q 91.05 112.85 85.19 113.24
  Q 80.07 113.58 72.05 112.89
  Q 70.97 112.79 70.04 113.19
  C 68.20 113.97 65.58 113.59 63.65 113.65
  Q 61.54 113.71 59.35 113.87
  C 56.93 114.05 54.65 113.59 52.28 113.63
  Q 48.57 113.68 44.50 113.44
  Q 41.29 113.24 38.26 113.76
  Q 35.98 114.15 33.57 113.75
  Q 31.21 113.36 28.87 113.37
  Q 25.99 113.38 23.25 113.39
  Q 21.48 113.41 20.21 114.46
  Q 18.52 115.87 17.09 117.43
  Q 16.53 118.04 15.75 118.60
  Q 14.93 119.18 14.31 120.07"
/>
<path stroke="#acadad" vector-effect="non-scaling-stroke" d="
  M 14.31 120.07
  Q 14.27 119.96 13.59 119.78"
/>
<path stroke="#878888" vector-effect="non-scaling-stroke" d="
  M 13.99 120.83
  L 14.31 120.07"
/>
<path stroke="#acadad" vector-effect="non-scaling-stroke" d="
  M 38.99 68.05
  L 39.47 105.12
  Q 39.50 107.04 41.41 107.14
  Q 42.51 107.21 43.58 107.14
  Q 45.75 107.00 45.91 104.83
  C 46.27 100.19 46.75 95.52 46.79 90.72
  Q 46.90 79.37 46.99 67.98"
/>
<path stroke="#cf7174" vector-effect="non-scaling-stroke" d="
  M 46.99 67.98
  L 54.26 67.97
  A 0.73 0.72 -0.4 0 0 54.98 67.25
  L 55.00 63.76
  Q 55.00 63.02 55.74 63.02
  L 61.96 62.95
  A 1.12 1.12 0.0 0 0 63.05 61.64
  Q 62.86 60.58 63.12 59.60
  A 0.66 0.65 5.9 0 1 63.73 59.11
  L 71.18 58.80
  A 0.79 0.79 0.0 0 0 71.93 58.08
  L 72.15 55.76
  Q 72.20 55.23 72.74 55.20
  L 80.00 54.77
  A 1.06 1.04 85.6 0 0 80.98 53.61
  Q 80.88 52.51 81.18 51.60
  Q 81.33 51.15 81.81 51.13
  L 88.08 50.89
  A 0.94 0.94 0.0 0 0 88.99 49.99
  L 89.09 47.77
  Q 89.12 47.16 89.73 47.14
  L 97.00 46.85
  A 1.06 1.06 0.0 0 0 98.02 45.75
  L 97.97 44.22
  A 1.22 1.21 89.3 0 0 96.77 43.04
  L 89.93 42.93
  A 0.83 0.82 87.7 0 1 89.12 42.18
  L 88.90 39.72
  Q 88.85 39.10 88.22 39.07
  L 81.76 38.79
  A 0.61 0.61 0.0 0 1 81.18 38.26
  L 80.88 35.74
  Q 80.81 35.18 80.24 35.15
  L 72.77 34.77
  Q 72.06 34.73 72.04 34.02
  L 71.93 30.94
  Q 71.91 30.21 71.19 30.17
  L 63.73 29.74
  Q 63.18 29.71 63.10 29.15
  L 62.75 26.77
  Q 62.67 26.22 62.13 26.18
  Q 59.24 25.96 56.50 25.79
  Q 54.76 25.69 54.87 23.66
  Q 54.94 22.35 53.63 22.30
  L 46.69 22.05"
/>
<path stroke="#c07078" vector-effect="non-scaling-stroke" d="
  M 46.69 22.05
  L 39.49 21.69
  A 0.52 0.51 -88.4 0 0 38.95 22.21
  L 38.99 68.05"
/>
<path stroke="#cc1e29" vector-effect="non-scaling-stroke" d="
  M 46.69 22.05
  L 46.99 67.98"
/>
<path stroke="#a95a62" vector-effect="non-scaling-stroke" d="
  M 46.99 67.98
  L 38.99 68.05"
/>
</g>
<path fill="#b2b2b2" d="
  M 0.00 0.00
  L 128.00 0.00
  L 128.00 128.00
  L 0.00 128.00
  L 0.00 0.00
  Z
  M 2.98 120.14
  Q 4.35 121.54 6.03 121.28
  Q 6.77 121.16 7.73 120.31
  Q 8.46 119.65 9.31 119.04
  Q 9.68 118.77 9.91 118.38
  Q 11.31 116.01 13.41 114.79
  Q 13.51 114.73 13.59 114.83
  Q 13.67 114.92 13.60 115.09
  Q 13.56 115.18 13.46 115.18
  Q 12.28 115.23 12.13 116.29
  Q 12.06 116.74 11.73 117.06
  L 7.91 120.73
  Q 7.74 120.90 7.91 121.06
  L 8.13 121.27
  A 0.03 0.02 -52.0 0 0 8.17 121.26
  Q 9.30 119.75 10.84 118.97
  Q 12.71 118.03 13.62 117.13
  Q 16.40 114.41 18.64 111.85
  Q 18.97 111.47 19.46 111.35
  Q 21.50 110.81 23.39 111.02
  Q 31.17 111.90 39.37 111.71
  A 0.06 0.06 0.0 0 1 39.43 111.77
  L 39.44 112.09
  Q 39.44 112.38 39.15 112.38
  Q 31.12 112.37 22.72 112.37
  C 21.87 112.37 20.94 112.84 20.25 113.30
  Q 19.48 113.83 18.82 114.73
  Q 16.82 117.50 13.59 119.78
  L 11.34 121.63
  Q 10.67 122.18 11.47 121.86
  L 13.99 120.83
  L 10.94 123.35
  A 1.35 1.35 0.0 0 0 11.12 125.56
  Q 12.43 126.32 13.99 126.23
  Q 37.78 124.78 64.69 125.25
  C 73.97 125.41 82.91 125.22 92.25 125.43
  Q 94.27 125.48 96.39 125.47
  Q 110.37 125.40 126.07 126.25
  A 0.64 0.64 0.0 0 0 126.74 125.57
  Q 126.35 119.33 126.38 112.82
  Q 126.54 79.15 126.11 45.68
  Q 125.92 30.42 126.57 12.51
  Q 126.65 10.23 124.80 9.89
  Q 124.30 9.80 123.93 10.15
  Q 121.89 12.08 120.47 14.50
  Q 120.40 14.61 120.29 14.54
  L 120.29 14.54
  Q 120.17 14.46 120.25 14.34
  Q 120.72 13.65 120.86 12.82
  Q 121.00 11.97 120.56 12.71
  C 120.14 13.40 120.00 14.44 119.51 14.97
  Q 117.45 17.21 115.00 19.13
  Q 115.01 17.68 116.26 16.69
  Q 116.59 16.42 116.64 16.01
  Q 116.76 15.02 117.59 14.33
  Q 118.24 13.79 118.74 13.04
  Q 119.90 11.29 120.40 9.44
  Q 120.92 7.52 122.75 6.12
  A 1.25 1.24 -63.0 0 1 123.54 5.86
  L 126.83 5.94
  Q 127.61 5.95 127.62 5.17
  L 127.62 3.86
  Q 127.63 2.97 126.74 3.01
  Q 123.33 3.18 120.08 1.74
  Q 100.13 0.86 79.76 1.06
  C 58.54 1.28 37.42 0.95 16.12 1.38
  C 11.41 1.47 6.56 0.24 1.93 0.98
  A 1.28 1.28 0.0 0 0 0.87 2.44
  C 2.80 14.53 1.82 26.01 1.90 37.75
  Q 2.14 70.83 1.85 94.19
  Q 1.67 108.92 2.98 120.14
  Z"
/>
<path fill="#ffffff" d="
  M 120.08 1.74
  Q 122.13 3.75 121.53 4.76
  Q 120.39 6.71 118.88 8.16
  Q 115.40 11.50 110.46 15.79
  Q 109.37 16.74 108.25 16.71
  Q 86.02 16.09 73.52 16.36
  Q 70.27 16.43 58.76 17.31
  C 51.87 17.83 44.57 17.67 37.70 17.18
  Q 28.36 16.52 19.21 16.31
  A 2.23 2.23 0.0 0 0 16.93 18.53
  Q 16.87 60.90 16.84 101.56
  C 16.84 105.93 18.13 108.94 13.90 112.01
  Q 12.25 113.21 10.67 115.38
  Q 9.13 117.50 6.43 120.41
  Q 5.37 121.55 2.98 120.14
  Q 1.67 108.92 1.85 94.19
  Q 2.14 70.83 1.90 37.75
  C 1.82 26.01 2.80 14.53 0.87 2.44
  A 1.28 1.28 0.0 0 1 1.93 0.98
  C 6.56 0.24 11.41 1.47 16.12 1.38
  C 37.42 0.95 58.54 1.28 79.76 1.06
  Q 100.13 0.86 120.08 1.74
  Z"
/>
<path fill="#c3c3c3" d="
  M 120.08 1.74
  Q 123.33 3.18 126.74 3.01
  Q 127.63 2.97 127.62 3.86
  L 127.62 5.17
  Q 127.61 5.95 126.83 5.94
  L 123.54 5.86
  A 1.25 1.24 -63.0 0 0 122.75 6.12
  Q 120.92 7.52 120.40 9.44
  Q 119.90 11.29 118.74 13.04
  Q 118.24 13.79 117.59 14.33
  Q 116.76 15.02 116.64 16.01
  Q 116.59 16.42 116.26 16.69
  Q 115.01 17.68 115.00 19.13
  Q 112.66 21.98 113.40 25.24
  Q 114.08 28.21 114.01 30.46
  Q 113.86 35.73 113.86 41.17
  Q 113.86 41.70 114.10 42.17
  Q 114.42 42.79 114.40 43.49
  Q 114.01 60.90 113.97 76.50
  C 113.96 84.34 114.32 92.49 113.91 100.52
  C 113.73 103.85 113.97 107.20 114.01 110.54
  A 2.56 2.56 0.0 0 1 111.48 113.12
  Q 104.60 113.20 96.86 113.00
  Q 91.05 112.85 85.19 113.24
  Q 80.07 113.58 72.05 112.89
  Q 70.97 112.79 70.04 113.19
  C 68.20 113.97 65.58 113.59 63.65 113.65
  Q 61.54 113.71 59.35 113.87
  C 56.93 114.05 54.65 113.59 52.28 113.63
  Q 48.57 113.68 44.50 113.44
  Q 41.29 113.24 38.26 113.76
  Q 35.98 114.15 33.57 113.75
  Q 31.21 113.36 28.87 113.37
  Q 25.99 113.38 23.25 113.39
  Q 21.48 113.41 20.21 114.46
  Q 18.52 115.87 17.09 117.43
  Q 16.53 118.04 15.75 118.60
  Q 14.93 119.18 14.31 120.07
  Q 14.27 119.96 13.59 119.78
  Q 16.82 117.50 18.82 114.73
  Q 19.48 113.83 20.25 113.30
  C 20.94 112.84 21.87 112.37 22.72 112.37
  Q 31.12 112.37 39.15 112.38
  Q 39.44 112.38 39.44 112.09
  L 39.43 111.77
  A 0.06 0.06 0.0 0 0 39.37 111.71
  Q 31.17 111.90 23.39 111.02
  Q 21.50 110.81 19.46 111.35
  Q 18.97 111.47 18.64 111.85
  Q 16.40 114.41 13.62 117.13
  Q 12.71 118.03 10.84 118.97
  Q 9.30 119.75 8.17 121.26
  A 0.03 0.02 -52.0 0 1 8.13 121.27
  L 7.91 121.06
  Q 7.74 120.90 7.91 120.73
  L 11.73 117.06
  Q 12.06 116.74 12.13 116.29
  Q 12.28 115.23 13.46 115.18
  Q 13.56 115.18 13.60 115.09
  Q 13.67 114.92 13.59 114.83
  Q 13.51 114.73 13.41 114.79
  Q 11.31 116.01 9.91 118.38
  Q 9.68 118.77 9.31 119.04
  Q 8.46 119.65 7.73 120.31
  Q 6.77 121.16 6.03 121.28
  Q 4.35 121.54 2.98 120.14
  Q 5.37 121.55 6.43 120.41
  Q 9.13 117.50 10.67 115.38
  Q 12.25 113.21 13.90 112.01
  C 18.13 108.94 16.84 105.93 16.84 101.56
  Q 16.87 60.90 16.93 18.53
  A 2.23 2.23 0.0 0 1 19.21 16.31
  Q 28.36 16.52 37.70 17.18
  C 44.57 17.67 51.87 17.83 58.76 17.31
  Q 70.27 16.43 73.52 16.36
  Q 86.02 16.09 108.25 16.71
  Q 109.37 16.74 110.46 15.79
  Q 115.40 11.50 118.88 8.16
  Q 120.39 6.71 121.53 4.76
  Q 122.13 3.75 120.08 1.74
  Z
  M 38.99 68.05
  L 39.47 105.12
  Q 39.50 107.04 41.41 107.14
  Q 42.51 107.21 43.58 107.14
  Q 45.75 107.00 45.91 104.83
  C 46.27 100.19 46.75 95.52 46.79 90.72
  Q 46.90 79.37 46.99 67.98
  L 54.26 67.97
  A 0.73 0.72 -0.4 0 0 54.98 67.25
  L 55.00 63.76
  Q 55.00 63.02 55.74 63.02
  L 61.96 62.95
  A 1.12 1.12 0.0 0 0 63.05 61.64
  Q 62.86 60.58 63.12 59.60
  A 0.66 0.65 5.9 0 1 63.73 59.11
  L 71.18 58.80
  A 0.79 0.79 0.0 0 0 71.93 58.08
  L 72.15 55.76
  Q 72.20 55.23 72.74 55.20
  L 80.00 54.77
  A 1.06 1.04 85.6 0 0 80.98 53.61
  Q 80.88 52.51 81.18 51.60
  Q 81.33 51.15 81.81 51.13
  L 88.08 50.89
  A 0.94 0.94 0.0 0 0 88.99 49.99
  L 89.09 47.77
  Q 89.12 47.16 89.73 47.14
  L 97.00 46.85
  A 1.06 1.06 0.0 0 0 98.02 45.75
  L 97.97 44.22
  A 1.22 1.21 89.3 0 0 96.77 43.04
  L 89.93 42.93
  A 0.83 0.82 87.7 0 1 89.12 42.18
  L 88.90 39.72
  Q 88.85 39.10 88.22 39.07
  L 81.76 38.79
  A 0.61 0.61 0.0 0 1 81.18 38.26
  L 80.88 35.74
  Q 80.81 35.18 80.24 35.15
  L 72.77 34.77
  Q 72.06 34.73 72.04 34.02
  L 71.93 30.94
  Q 71.91 30.21 71.19 30.17
  L 63.73 29.74
  Q 63.18 29.71 63.10 29.15
  L 62.75 26.77
  Q 62.67 26.22 62.13 26.18
  Q 59.24 25.96 56.50 25.79
  Q 54.76 25.69 54.87 23.66
  Q 54.94 22.35 53.63 22.30
  L 46.69 22.05
  L 39.49 21.69
  A 0.52 0.51 -88.4 0 0 38.95 22.21
  L 38.99 68.05
  Z"
/>
<path fill="#797a79" d="
  M 13.99 120.83
  L 14.31 120.07
  Q 14.93 119.18 15.75 118.60
  Q 16.53 118.04 17.09 117.43
  Q 18.52 115.87 20.21 114.46
  Q 21.48 113.41 23.25 113.39
  Q 25.99 113.38 28.87 113.37
  Q 31.21 113.36 33.57 113.75
  Q 35.98 114.15 38.26 113.76
  Q 41.29 113.24 44.50 113.44
  Q 48.57 113.68 52.28 113.63
  C 54.65 113.59 56.93 114.05 59.35 113.87
  Q 61.54 113.71 63.65 113.65
  C 65.58 113.59 68.20 113.97 70.04 113.19
  Q 70.97 112.79 72.05 112.89
  Q 80.07 113.58 85.19 113.24
  Q 91.05 112.85 96.86 113.00
  Q 104.60 113.20 111.48 113.12
  A 2.56 2.56 0.0 0 0 114.01 110.54
  C 113.97 107.20 113.73 103.85 113.91 100.52
  C 114.32 92.49 113.96 84.34 113.97 76.50
  Q 114.01 60.90 114.40 43.49
  Q 114.42 42.79 114.10 42.17
  Q 113.86 41.70 113.86 41.17
  Q 113.86 35.73 114.01 30.46
  Q 114.08 28.21 113.40 25.24
  Q 112.66 21.98 115.00 19.13
  Q 117.45 17.21 119.51 14.97
  C 120.00 14.44 120.14 13.40 120.56 12.71
  Q 121.00 11.97 120.86 12.82
  Q 120.72 13.65 120.25 14.34
  Q 120.17 14.46 120.29 14.54
  L 120.29 14.54
  Q 120.40 14.61 120.47 14.50
  Q 121.89 12.08 123.93 10.15
  Q 124.30 9.80 124.80 9.89
  Q 126.65 10.23 126.57 12.51
  Q 125.92 30.42 126.11 45.68
  Q 126.54 79.15 126.38 112.82
  Q 126.35 119.33 126.74 125.57
  A 0.64 0.64 0.0 0 1 126.07 126.25
  Q 110.37 125.40 96.39 125.47
  Q 94.27 125.48 92.25 125.43
  C 82.91 125.22 73.97 125.41 64.69 125.25
  Q 37.78 124.78 13.99 126.23
  Q 12.43 126.32 11.12 125.56
  A 1.35 1.35 0.0 0 1 10.94 123.35
  L 13.99 120.83
  Z"
/>
<path fill="#bd1d2c" d="
  M 46.69 22.05
  L 46.99 67.98
  L 38.99 68.05
  L 38.95 22.21
  A 0.52 0.51 -88.4 0 1 39.49 21.69
  L 46.69 22.05
  Z"
/>
<path fill="#da1e25" d="
  M 46.69 22.05
  L 53.63 22.30
  Q 54.94 22.35 54.87 23.66
  Q 54.76 25.69 56.50 25.79
  Q 59.24 25.96 62.13 26.18
  Q 62.67 26.22 62.75 26.77
  L 63.10 29.15
  Q 63.18 29.71 63.73 29.74
  L 71.19 30.17
  Q 71.91 30.21 71.93 30.94
  L 72.04 34.02
  Q 72.06 34.73 72.77 34.77
  L 80.24 35.15
  Q 80.81 35.18 80.88 35.74
  L 81.18 38.26
  A 0.61 0.61 0.0 0 0 81.76 38.79
  L 88.22 39.07
  Q 88.85 39.10 88.90 39.72
  L 89.12 42.18
  A 0.83 0.82 87.7 0 0 89.93 42.93
  L 96.77 43.04
  A 1.22 1.21 89.3 0 1 97.97 44.22
  L 98.02 45.75
  A 1.06 1.06 0.0 0 1 97.00 46.85
  L 89.73 47.14
  Q 89.12 47.16 89.09 47.77
  L 88.99 49.99
  A 0.94 0.94 0.0 0 1 88.08 50.89
  L 81.81 51.13
  Q 81.33 51.15 81.18 51.60
  Q 80.88 52.51 80.98 53.61
  A 1.06 1.04 85.6 0 1 80.00 54.77
  L 72.74 55.20
  Q 72.20 55.23 72.15 55.76
  L 71.93 58.08
  A 0.79 0.79 0.0 0 1 71.18 58.80
  L 63.73 59.11
  A 0.66 0.65 5.9 0 0 63.12 59.60
  Q 62.86 60.58 63.05 61.64
  A 1.12 1.12 0.0 0 1 61.96 62.95
  L 55.74 63.02
  Q 55.00 63.02 55.00 63.76
  L 54.98 67.25
  A 0.73 0.72 -0.4 0 1 54.26 67.97
  L 46.99 67.98
  L 46.69 22.05
  Z"
/>
<path fill="#949697" d="
  M 38.99 68.05
  L 46.99 67.98
  Q 46.90 79.37 46.79 90.72
  C 46.75 95.52 46.27 100.19 45.91 104.83
  Q 45.75 107.00 43.58 107.14
  Q 42.51 107.21 41.41 107.14
  Q 39.50 107.04 39.47 105.12
  L 38.99 68.05
  Z"
/>
<path fill="#949697" d="
  M 13.59 119.78
  Q 14.27 119.96 14.31 120.07
  L 13.99 120.83
  L 11.47 121.86
  Q 10.67 122.18 11.34 121.63
  L 13.59 119.78
  Z"
/>
</svg>
