<?xml version="1.0" encoding="UTF-8" standalone="no"?>
<!DOCTYPE svg PUBLIC "-//W3C//DTD SVG 1.1//EN" "http://www.w3.org/Graphics/SVG/1.1/DTD/svg11.dtd">
<svg xmlns="http://www.w3.org/2000/svg" version="1.1" viewBox="0.00 0.00 128.00 128.00">
<g stroke-width="2.00" fill="none" stroke-linecap="butt">
<path stroke="#bbbbbb" vector-effect="non-scaling-stroke" d="
  M 2.86 119.76
  Q 5.29 122.78 3.65 126.45
  A 0.71 0.71 0.0 0 0 4.31 127.45
  L 6.45 127.41
  A 1.47 1.47 0.0 0 0 7.82 125.50
  C 7.24 123.63 8.02 121.78 9.55 120.64
  Q 10.62 119.84 11.62 118.95
  Q 12.50 118.17 13.50 117.52
  Q 14.53 116.87 15.34 115.81
  A 1.69 1.67 5.9 0 1 16.00 115.28
  Q 17.66 114.48 18.52 112.98
  Q 18.74 112.60 19.13 112.39
  Q 20.74 111.55 22.48 111.70
  Q 32.26 112.55 43.04 112.51
  Q 44.81 112.50 46.56 113.01
  Q 48.78 113.66 49.75 113.56
  Q 59.70 112.58 69.62 113.33"
/>
<path stroke="#969696" vector-effect="non-scaling-stroke" d="
  M 69.62 113.33
  C 66.09 113.41 62.49 113.76 59.13 113.74
  Q 49.88 113.69 41.25 113.81
  Q 41.05 113.81 40.96 113.66
  Q 40.80 113.42 40.50 113.41
  L 22.19 112.99
  Q 21.75 112.98 21.38 113.22
  Q 19.71 114.28 18.55 115.89
  Q 15.77 119.79 10.94 122.01
  A 1.88 1.88 0.0 0 0 10.68 125.28
  Q 12.22 126.31 14.48 126.17
  Q 35.53 124.90 55.00 125.10
  Q 69.91 125.25 85.60 125.38
  C 88.17 125.41 90.49 125.74 93.12 125.51
  Q 95.91 125.27 98.98 125.32
  Q 113.79 125.57 126.08 126.26
  A 0.61 0.60 0.0 0 0 126.72 125.63
  Q 126.28 115.25 126.38 104.02
  Q 126.63 74.79 126.10 29.05
  C 126.03 23.30 126.61 17.69 126.47 11.99
  A 2.01 1.96 30.3 0 0 126.21 11.05
  L 125.16 9.21"
/>
<path stroke="#bbbbbb" vector-effect="non-scaling-stroke" d="
  M 125.16 9.21
  Q 124.92 7.67 122.87 7.84
  Q 122.13 7.90 121.71 8.51
  Q 120.78 9.86 120.41 11.34
  Q 119.89 13.37 118.23 15.13
  Q 117.26 16.16 117.85 14.87
  Q 119.05 12.24 119.96 9.87
  Q 120.32 8.93 121.21 8.04
  Q 121.95 7.30 122.52 6.38
  Q 122.80 5.91 123.35 5.89
  Q 125.26 5.84 127.16 5.93
  Q 127.34 5.94 127.33 5.75
  L 127.33 5.75
  Q 127.31 5.56 127.13 5.60
  Q 125.72 5.94 124.33 5.39
  Q 123.22 4.95 122.20 5.36
  Q 121.09 5.80 120.94 7.09
  Q 120.94 7.16 120.88 7.13
  Q 120.87 7.13 120.87 7.13
  Q 120.85 7.12 120.85 7.10
  Q 120.99 6.38 121.01 5.82"
/>
<path stroke="#d9d9d9" vector-effect="non-scaling-stroke" d="
  M 121.01 5.82
  Q 122.85 3.64 120.77 2.46
  Q 118.61 1.23 113.75 1.21
  Q 64.12 0.92 15.10 1.28
  C 10.85 1.31 6.79 0.58 2.58 0.84
  Q 0.63 0.97 0.92 2.90
  C 1.90 9.33 2.28 15.40 2.07 22.03
  Q 1.77 31.41 1.85 39.01
  Q 2.16 66.87 1.79 94.25
  Q 1.61 107.62 2.86 119.76"
/>
<path stroke="#e1e1e1" vector-effect="non-scaling-stroke" d="
  M 121.01 5.82
  Q 116.51 11.25 110.88 15.52
  C 108.73 17.15 106.94 16.89 104.51 16.67
  Q 102.02 16.45 99.58 16.44
  Q 58.72 16.26 19.00 16.33
  A 1.97 1.97 0.0 0 0 17.04 18.11
  C 16.61 22.89 16.90 27.78 16.91 32.52
  Q 16.95 66.39 17.05 98.67
  C 17.06 101.35 17.38 103.99 17.32 106.66
  C 17.28 108.65 15.79 110.67 14.37 111.96
  Q 11.54 114.51 9.12 117.96
  Q 7.86 119.76 5.54 121.14
  Q 4.91 121.52 2.86 119.76"
/>
<path stroke="#9e9f9e" vector-effect="non-scaling-stroke" d="
  M 125.16 9.21
  Q 125.12 9.45 124.54 9.24"
/>
<path stroke="#bbbbbb" vector-effect="non-scaling-stroke" d="
  M 124.54 9.24
  Q 124.39 8.56 123.18 8.39
  A 0.96 0.95 -64.9 0 0 122.34 8.70
  Q 120.51 10.76 120.50 13.49"
/>
<path stroke="#9e9f9e" vector-effect="non-scaling-stroke" d="
  M 120.50 13.49
  Q 119.60 17.02 115.48 19.19
  Q 114.74 19.58 114.24 20.63
  Q 113.90 21.36 113.99 22.43
  Q 114.69 31.12 114.30 39.85
  Q 114.29 40.07 114.10 40.19
  Q 113.93 40.30 113.94 40.49
  Q 114.03 68.02 113.96 95.55
  C 113.95 100.28 113.68 104.88 114.10 109.64
  C 114.21 110.94 113.55 112.96 111.95 113.10
  C 110.76 113.21 109.60 112.94 108.40 112.95
  Q 88.93 113.12 69.62 113.33"
/>
<path stroke="#969696" vector-effect="non-scaling-stroke" d="
  M 124.54 9.24
  Q 123.41 9.31 122.61 9.79
  Q 122.18 10.04 121.96 10.49
  L 120.50 13.49"
/>
</g>
<path fill="#b2b2b2" d="
  M 0.00 0.00
  L 128.00 0.00
  L 128.00 128.00
  L 0.00 128.00
  L 0.00 0.00
  Z
  M 2.86 119.76
  Q 5.29 122.78 3.65 126.45
  A 0.71 0.71 0.0 0 0 4.31 127.45
  L 6.45 127.41
  A 1.47 1.47 0.0 0 0 7.82 125.50
  C 7.24 123.63 8.02 121.78 9.55 120.64
  Q 10.62 119.84 11.62 118.95
  Q 12.50 118.17 13.50 117.52
  Q 14.53 116.87 15.34 115.81
  A 1.69 1.67 5.9 0 1 16.00 115.28
  Q 17.66 114.48 18.52 112.98
  Q 18.74 112.60 19.13 112.39
  Q 20.74 111.55 22.48 111.70
  Q 32.26 112.55 43.04 112.51
  Q 44.81 112.50 46.56 113.01
  Q 48.78 113.66 49.75 113.56
  Q 59.70 112.58 69.62 113.33
  C 66.09 113.41 62.49 113.76 59.13 113.74
  Q 49.88 113.69 41.25 113.81
  Q 41.05 113.81 40.96 113.66
  Q 40.80 113.42 40.50 113.41
  L 22.19 112.99
  Q 21.75 112.98 21.38 113.22
  Q 19.71 114.28 18.55 115.89
  Q 15.77 119.79 10.94 122.01
  A 1.88 1.88 0.0 0 0 10.68 125.28
  Q 12.22 126.31 14.48 126.17
  Q 35.53 124.90 55.00 125.10
  Q 69.91 125.25 85.60 125.38
  C 88.17 125.41 90.49 125.74 93.12 125.51
  Q 95.91 125.27 98.98 125.32
  Q 113.79 125.57 126.08 126.26
  A 0.61 0.60 0.0 0 0 126.72 125.63
  Q 126.28 115.25 126.38 104.02
  Q 126.63 74.79 126.10 29.05
  C 126.03 23.30 126.61 17.69 126.47 11.99
  A 2.01 1.96 30.3 0 0 126.21 11.05
  L 125.16 9.21
  Q 124.92 7.67 122.87 7.84
  Q 122.13 7.90 121.71 8.51
  Q 120.78 9.86 120.41 11.34
  Q 119.89 13.37 118.23 15.13
  Q 117.26 16.16 117.85 14.87
  Q 119.05 12.24 119.96 9.87
  Q 120.32 8.93 121.21 8.04
  Q 121.95 7.30 122.52 6.38
  Q 122.80 5.91 123.35 5.89
  Q 125.26 5.84 127.16 5.93
  Q 127.34 5.94 127.33 5.75
  L 127.33 5.75
  Q 127.31 5.56 127.13 5.60
  Q 125.72 5.94 124.33 5.39
  Q 123.22 4.95 122.20 5.36
  Q 121.09 5.80 120.94 7.09
  Q 120.94 7.16 120.88 7.13
  Q 120.87 7.13 120.87 7.13
  Q 120.85 7.12 120.85 7.10
  Q 120.99 6.38 121.01 5.82
  Q 122.85 3.64 120.77 2.46
  Q 118.61 1.23 113.75 1.21
  Q 64.12 0.92 15.10 1.28
  C 10.85 1.31 6.79 0.58 2.58 0.84
  Q 0.63 0.97 0.92 2.90
  C 1.90 9.33 2.28 15.40 2.07 22.03
  Q 1.77 31.41 1.85 39.01
  Q 2.16 66.87 1.79 94.25
  Q 1.61 107.62 2.86 119.76
  Z"
/>
<path fill="#ffffff" d="
  M 121.01 5.82
  Q 116.51 11.25 110.88 15.52
  C 108.73 17.15 106.94 16.89 104.51 16.67
  Q 102.02 16.45 99.58 16.44
  Q 58.72 16.26 19.00 16.33
  A 1.97 1.97 0.0 0 0 17.04 18.11
  C 16.61 22.89 16.90 27.78 16.91 32.52
  Q 16.95 66.39 17.05 98.67
  C 17.06 101.35 17.38 103.99 17.32 106.66
  C 17.28 108.65 15.79 110.67 14.37 111.96
  Q 11.54 114.51 9.12 117.96
  Q 7.86 119.76 5.54 121.14
  Q 4.91 121.52 2.86 119.76
  Q 1.61 107.62 1.79 94.25
  Q 2.16 66.87 1.85 39.01
  Q 1.77 31.41 2.07 22.03
  C 2.28 15.40 1.90 9.33 0.92 2.90
  Q 0.63 0.97 2.58 0.84
  C 6.79 0.58 10.85 1.31 15.10 1.28
  Q 64.12 0.92 113.75 1.21
  Q 118.61 1.23 120.77 2.46
  Q 122.85 3.64 121.01 5.82
  Z"
/>
<path fill="#c3c3c3" d="
  M 125.16 9.21
  Q 125.12 9.45 124.54 9.24
  Q 124.39 8.56 123.18 8.39
  A 0.96 0.95 -64.9 0 0 122.34 8.70
  Q 120.51 10.76 120.50 13.49
  Q 119.60 17.02 115.48 19.19
  Q 114.74 19.58 114.24 20.63
  Q 113.90 21.36 113.99 22.43
  Q 114.69 31.12 114.30 39.85
  Q 114.29 40.07 114.10 40.19
  Q 113.93 40.30 113.94 40.49
  Q 114.03 68.02 113.96 95.55
  C 113.95 100.28 113.68 104.88 114.10 109.64
  C 114.21 110.94 113.55 112.96 111.95 113.10
  C 110.76 113.21 109.60 112.94 108.40 112.95
  Q 88.93 113.12 69.62 113.33
  Q 59.70 112.58 49.75 113.56
  Q 48.78 113.66 46.56 113.01
  Q 44.81 112.50 43.04 112.51
  Q 32.26 112.55 22.48 111.70
  Q 20.74 111.55 19.13 112.39
  Q 18.74 112.60 18.52 112.98
  Q 17.66 114.48 16.00 115.28
  A 1.69 1.67 5.9 0 0 15.34 115.81
  Q 14.53 116.87 13.50 117.52
  Q 12.50 118.17 11.62 118.95
  Q 10.62 119.84 9.55 120.64
  C 8.02 121.78 7.24 123.63 7.82 125.50
  A 1.47 1.47 0.0 0 1 6.45 127.41
  L 4.31 127.45
  A 0.71 0.71 0.0 0 1 3.65 126.45
  Q 5.29 122.78 2.86 119.76
  Q 4.91 121.52 5.54 121.14
  Q 7.86 119.76 9.12 117.96
  Q 11.54 114.51 14.37 111.96
  C 15.79 110.67 17.28 108.65 17.32 106.66
  C 17.38 103.99 17.06 101.35 17.05 98.67
  Q 16.95 66.39 16.91 32.52
  C 16.90 27.78 16.61 22.89 17.04 18.11
  A 1.97 1.97 0.0 0 1 19.00 16.33
  Q 58.72 16.26 99.58 16.44
  Q 102.02 16.45 104.51 16.67
  C 106.94 16.89 108.73 17.15 110.88 15.52
  Q 116.51 11.25 121.01 5.82
  Q 120.99 6.38 120.85 7.10
  Q 120.85 7.12 120.87 7.13
  Q 120.87 7.13 120.88 7.13
  Q 120.94 7.16 120.94 7.09
  Q 121.09 5.80 122.20 5.36
  Q 123.22 4.95 124.33 5.39
  Q 125.72 5.94 127.13 5.60
  Q 127.31 5.56 127.33 5.75
  L 127.33 5.75
  Q 127.34 5.94 127.16 5.93
  Q 125.26 5.84 123.35 5.89
  Q 122.80 5.91 122.52 6.38
  Q 121.95 7.30 121.21 8.04
  Q 120.32 8.93 119.96 9.87
  Q 119.05 12.24 117.85 14.87
  Q 117.26 16.16 118.23 15.13
  Q 119.89 13.37 120.41 11.34
  Q 120.78 9.86 121.71 8.51
  Q 122.13 7.90 122.87 7.84
  Q 124.92 7.67 125.16 9.21
  Z"
/>
<path fill="#b2b2b2" d="
  M 124.54 9.24
  Q 123.41 9.31 122.61 9.79
  Q 122.18 10.04 121.96 10.49
  L 120.50 13.49
  Q 120.51 10.76 122.34 8.70
  A 0.96 0.95 -64.9 0 1 123.18 8.39
  Q 124.39 8.56 124.54 9.24
  Z"
/>
<path fill="#797a79" d="
  M 124.54 9.24
  Q 125.12 9.45 125.16 9.21
  L 126.21 11.05
  A 2.01 1.96 30.3 0 1 126.47 11.99
  C 126.61 17.69 126.03 23.30 126.10 29.05
  Q 126.63 74.79 126.38 104.02
  Q 126.28 115.25 126.72 125.63
  A 0.61 0.60 0.0 0 1 126.08 126.26
  Q 113.79 125.57 98.98 125.32
  Q 95.91 125.27 93.12 125.51
  C 90.49 125.74 88.17 125.41 85.60 125.38
  Q 69.91 125.25 55.00 125.10
  Q 35.53 124.90 14.48 126.17
  Q 12.22 126.31 10.68 125.28
  A 1.88 1.88 0.0 0 1 10.94 122.01
  Q 15.77 119.79 18.55 115.89
  Q 19.71 114.28 21.38 113.22
  Q 21.75 112.98 22.19 112.99
  L 40.50 113.41
  Q 40.80 113.42 40.96 113.66
  Q 41.05 113.81 41.25 113.81
  Q 49.88 113.69 59.13 113.74
  C 62.49 113.76 66.09 113.41 69.62 113.33
  Q 88.93 113.12 108.40 112.95
  C 109.60 112.94 110.76 113.21 111.95 113.10
  C 113.55 112.96 114.21 110.94 114.10 109.64
  C 113.68 104.88 113.95 100.28 113.96 95.55
  Q 114.03 68.02 113.94 40.49
  Q 113.93 40.30 114.10 40.19
  Q 114.29 40.07 114.30 39.85
  Q 114.69 31.12 113.99 22.43
  Q 113.90 21.36 114.24 20.63
  Q 114.74 19.58 115.48 19.19
  Q 119.60 17.02 120.50 13.49
  L 121.96 10.49
  Q 122.18 10.04 122.61 9.79
  Q 123.41 9.31 124.54 9.24
  Z"
/>
</svg>
