<?xml version="1.0" encoding="UTF-8" standalone="no"?>
<!DOCTYPE svg PUBLIC "-//W3C//DTD SVG 1.1//EN" "http://www.w3.org/Graphics/SVG/1.1/DTD/svg11.dtd">
<svg xmlns="http://www.w3.org/2000/svg" version="1.1" viewBox="0.00 0.00 128.00 128.00">
<g stroke-width="2.00" fill="none" stroke-linecap="butt">
<path stroke="#636363" vector-effect="non-scaling-stroke" d="
  M 12.68 114.24
  C 14.60 110.73 17.44 111.01 17.20 105.86
  Q 17.06 102.80 17.04 99.95
  Q 16.83 60.25 17.07 19.54
  A 3.16 3.15 -0.0 0 1 20.22 16.40
  Q 53.06 16.25 89.03 16.24
  Q 97.37 16.23 106.74 16.66
  C 110.15 16.82 111.96 13.85 115.03 12.73
  Q 116.99 12.01 118.23 10.77
  Q 120.75 8.27 120.96 4.35
  A 1.69 1.67 17.7 0 0 120.16 2.82
  Q 118.09 1.55 115.78 1.55
  Q 78.19 1.68 41.89 1.71
  Q 18.55 1.73 5.57 0.81
  C 4.48 0.74 3.37 0.97 2.29 1.03
  A 1.70 1.69 83.2 0 0 0.72 3.04
  Q 2.50 12.46 2.28 21.44
  Q 2.19 25.21 2.17 29.10
  Q 2.02 69.29 2.11 111.34
  Q 2.12 116.47 3.66 120.41
  A 1.38 1.38 0.0 0 0 5.46 121.19
  Q 6.77 120.65 8.10 120.04
  Q 9.12 119.57 9.82 118.64
  Q 11.42 116.53 12.68 114.24"
/>
<path stroke="#464646" vector-effect="non-scaling-stroke" d="
  M 120.86 10.17
  Q 118.67 12.11 117.98 14.76
  A 0.47 0.42 -23.3 0 1 117.91 14.91
  L 116.54 17.14
  Q 116.23 17.65 115.79 18.05
  Q 114.34 19.34 113.99 21.38
  Q 113.62 23.54 114.00 25.71
  Q 114.35 27.77 114.29 29.93
  Q 114.20 33.13 114.04 36.47
  Q 113.87 39.97 113.90 43.02
  Q 114.13 61.60 113.84 79.00
  Q 113.82 80.44 113.84 81.86
  Q 113.94 88.10 113.87 93.75
  Q 113.75 102.05 113.99 109.94
  Q 114.08 113.12 110.90 113.21
  Q 97.10 113.59 82.84 113.86
  C 73.09 114.05 62.78 113.78 52.68 113.91
  Q 48.19 113.97 41.34 113.56
  Q 35.67 113.23 29.99 113.35
  C 25.65 113.44 21.56 111.29 18.04 115.01
  Q 14.79 118.45 10.86 120.61
  A 2.55 2.55 0.0 0 0 9.99 124.29
  C 11.76 126.86 17.21 126.32 20.11 126.02
  C 25.60 125.46 31.50 125.19 36.75 125.29
  Q 45.44 125.47 63.49 125.60
  Q 66.13 125.62 68.76 125.61
  Q 87.35 125.49 105.44 125.55
  C 112.22 125.57 118.98 126.18 125.67 126.32
  A 1.19 1.19 0.0 0 0 126.89 125.07
  Q 126.15 108.01 126.39 90.73
  C 126.69 68.47 126.32 46.11 126.07 23.94
  C 126.03 20.42 126.38 16.89 126.34 13.33
  C 126.33 11.91 125.46 9.48 123.71 9.31
  Q 122.01 9.15 120.86 10.17"
/>
</g>
<path fill="#555555" d="
  M 0.00 0.00
  L 128.00 0.00
  L 128.00 128.00
  L 0.00 128.00
  L 0.00 0.00
  Z
  M 12.68 114.24
  C 14.60 110.73 17.44 111.01 17.20 105.86
  Q 17.06 102.80 17.04 99.95
  Q 16.83 60.25 17.07 19.54
  A 3.16 3.15 -0.0 0 1 20.22 16.40
  Q 53.06 16.25 89.03 16.24
  Q 97.37 16.23 106.74 16.66
  C 110.15 16.82 111.96 13.85 115.03 12.73
  Q 116.99 12.01 118.23 10.77
  Q 120.75 8.27 120.96 4.35
  A 1.69 1.67 17.7 0 0 120.16 2.82
  Q 118.09 1.55 115.78 1.55
  Q 78.19 1.68 41.89 1.71
  Q 18.55 1.73 5.57 0.81
  C 4.48 0.74 3.37 0.97 2.29 1.03
  A 1.70 1.69 83.2 0 0 0.72 3.04
  Q 2.50 12.46 2.28 21.44
  Q 2.19 25.21 2.17 29.10
  Q 2.02 69.29 2.11 111.34
  Q 2.12 116.47 3.66 120.41
  A 1.38 1.38 0.0 0 0 5.46 121.19
  Q 6.77 120.65 8.10 120.04
  Q 9.12 119.57 9.82 118.64
  Q 11.42 116.53 12.68 114.24
  Z
  M 120.86 10.17
  Q 118.67 12.11 117.98 14.76
  A 0.47 0.42 -23.3 0 1 117.91 14.91
  L 116.54 17.14
  Q 116.23 17.65 115.79 18.05
  Q 114.34 19.34 113.99 21.38
  Q 113.62 23.54 114.00 25.71
  Q 114.35 27.77 114.29 29.93
  Q 114.20 33.13 114.04 36.47
  Q 113.87 39.97 113.90 43.02
  Q 114.13 61.60 113.84 79.00
  Q 113.82 80.44 113.84 81.86
  Q 113.94 88.10 113.87 93.75
  Q 113.75 102.05 113.99 109.94
  Q 114.08 113.12 110.90 113.21
  Q 97.10 113.59 82.84 113.86
  C 73.09 114.05 62.78 113.78 52.68 113.91
  Q 48.19 113.97 41.34 113.56
  Q 35.67 113.23 29.99 113.35
  C 25.65 113.44 21.56 111.29 18.04 115.01
  Q 14.79 118.45 10.86 120.61
  A 2.55 2.55 0.0 0 0 9.99 124.29
  C 11.76 126.86 17.21 126.32 20.11 126.02
  C 25.60 125.46 31.50 125.19 36.75 125.29
  Q 45.44 125.47 63.49 125.60
  Q 66.13 125.62 68.76 125.61
  Q 87.35 125.49 105.44 125.55
  C 112.22 125.57 118.98 126.18 125.67 126.32
  A 1.19 1.19 0.0 0 0 126.89 125.07
  Q 126.15 108.01 126.39 90.73
  C 126.69 68.47 126.32 46.11 126.07 23.94
  C 126.03 20.42 126.38 16.89 126.34 13.33
  C 126.33 11.91 125.46 9.48 123.71 9.31
  Q 122.01 9.15 120.86 10.17
  Z"
/>
<path fill="#707070" d="
  M 12.68 114.24
  Q 11.42 116.53 9.82 118.64
  Q 9.12 119.57 8.10 120.04
  Q 6.77 120.65 5.46 121.19
  A 1.38 1.38 0.0 0 1 3.66 120.41
  Q 2.12 116.47 2.11 111.34
  Q 2.02 69.29 2.17 29.10
  Q 2.19 25.21 2.28 21.44
  Q 2.50 12.46 0.72 3.04
  A 1.70 1.69 83.2 0 1 2.29 1.03
  C 3.37 0.97 4.48 0.74 5.57 0.81
  Q 18.55 1.73 41.89 1.71
  Q 78.19 1.68 115.78 1.55
  Q 118.09 1.55 120.16 2.82
  A 1.69 1.67 17.7 0 1 120.96 4.35
  Q 120.75 8.27 118.23 10.77
  Q 116.99 12.01 115.03 12.73
  C 111.96 13.85 110.15 16.82 106.74 16.66
  Q 97.37 16.23 89.03 16.24
  Q 53.06 16.25 20.22 16.40
  A 3.16 3.15 -0.0 0 0 17.07 19.54
  Q 16.83 60.25 17.04 99.95
  Q 17.06 102.80 17.20 105.86
  C 17.44 111.01 14.60 110.73 12.68 114.24
  Z"
/>
<path fill="#373737" d="
  M 120.86 10.17
  Q 122.01 9.15 123.71 9.31
  C 125.46 9.48 126.33 11.91 126.34 13.33
  C 126.38 16.89 126.03 20.42 126.07 23.94
  C 126.32 46.11 126.69 68.47 126.39 90.73
  Q 126.15 108.01 126.89 125.07
  A 1.19 1.19 0.0 0 1 125.67 126.32
  C 118.98 126.18 112.22 125.57 105.44 125.55
  Q 87.35 125.49 68.76 125.61
  Q 66.13 125.62 63.49 125.60
  Q 45.44 125.47 36.75 125.29
  C 31.50 125.19 25.60 125.46 20.11 126.02
  C 17.21 126.32 11.76 126.86 9.99 124.29
  A 2.55 2.55 0.0 0 1 10.86 120.61
  Q 14.79 118.45 18.04 115.01
  C 21.56 111.29 25.65 113.44 29.99 113.35
  Q 35.67 113.23 41.34 113.56
  Q 48.19 113.97 52.68 113.91
  C 62.78 113.78 73.09 114.05 82.84 113.86
  Q 97.10 113.59 110.90 113.21
  Q 114.08 113.12 113.99 109.94
  Q 113.75 102.05 113.87 93.75
  Q 113.94 88.10 113.84 81.86
  Q 113.82 80.44 113.84 79.00
  Q 114.13 61.60 113.90 43.02
  Q 113.87 39.97 114.04 36.47
  Q 114.20 33.13 114.29 29.93
  Q 114.35 27.77 114.00 25.71
  Q 113.62 23.54 113.99 21.38
  Q 114.34 19.34 115.79 18.05
  Q 116.23 17.65 116.54 17.14
  L 117.91 14.91
  A 0.47 0.42 -23.3 0 0 117.98 14.76
  Q 118.67 12.11 120.86 10.17
  Z"
/>
</svg>
