<?xml version="1.0" encoding="UTF-8" standalone="no"?>
<!DOCTYPE svg PUBLIC "-//W3C//DTD SVG 1.1//EN" "http://www.w3.org/Graphics/SVG/1.1/DTD/svg11.dtd">
<svg xmlns="http://www.w3.org/2000/svg" version="1.1" viewBox="0.00 0.00 128.00 128.00">
<g stroke-width="2.00" fill="none" stroke-linecap="butt">
<path stroke="#575757" vector-effect="non-scaling-stroke" d="
  M 61.05 0.00
  Q 60.57 0.37 60.05 0.52"
/>
<path stroke="#c4c4c4" vector-effect="non-scaling-stroke" d="
  M 60.05 0.52
  L 42.04 1.44"
/>
<path stroke="#d6d6d6" vector-effect="non-scaling-stroke" d="
  M 42.04 1.44
  Q 28.41 1.57 14.76 1.47
  C 10.30 1.44 6.19 0.31 1.64 0.94
  A 0.94 0.94 0.0 0 0 0.84 2.01
  L 2.40 12.53"
/>
<path stroke="#c4c4c4" vector-effect="non-scaling-stroke" d="
  M 2.40 12.53
  L 2.16 29.22
  Q 2.16 29.57 1.95 29.86
  Q 1.80 30.06 1.79 30.25
  Q 1.16 40.98 1.12 56.50
  Q 1.11 57.87 1.77 58.54"
/>
<path stroke="#575757" vector-effect="non-scaling-stroke" d="
  M 1.77 58.54
  Q 1.13 60.01 0.00 61.25"
/>
<path stroke="#575757" vector-effect="non-scaling-stroke" d="
  M 67.30 0.00
  L 70.27 2.03"
/>
<path stroke="#6e6e6e" vector-effect="non-scaling-stroke" d="
  M 70.27 2.03
  L 71.19 4.45"
/>
<path stroke="#808080" vector-effect="non-scaling-stroke" d="
  M 71.19 4.45
  L 71.28 11.22
  Q 71.29 11.91 71.99 11.89
  L 72.68 11.87
  Q 73.30 11.85 73.48 12.44
  L 74.30 15.07
  Q 74.46 15.59 74.99 15.69
  L 78.17 16.31"
/>
<path stroke="#6e6e6e" vector-effect="non-scaling-stroke" d="
  M 78.17 16.31
  Q 79.96 17.49 81.75 17.69"
/>
<path stroke="#676767" vector-effect="non-scaling-stroke" d="
  M 81.75 17.69
  L 84.73 18.87"
/>
<path stroke="#5d5d5d" vector-effect="non-scaling-stroke" d="
  M 84.73 18.87
  L 92.92 23.47
  Q 93.37 23.72 93.82 23.49
  L 95.72 22.52
  Q 96.25 22.26 96.75 22.58
  Q 97.15 22.83 97.44 23.21
  Q 97.89 23.79 98.41 23.28
  L 102.74 19.08"
/>
<path stroke="#676767" vector-effect="non-scaling-stroke" d="
  M 102.74 19.08
  Q 105.78 16.67 108.97 18.83"
/>
<path stroke="#5d5d5d" vector-effect="non-scaling-stroke" d="
  M 108.97 18.83
  L 110.58 20.92"
/>
<path stroke="#575757" vector-effect="non-scaling-stroke" d="
  M 110.58 20.92
  L 112.10 22.37"
/>
<path stroke="#4f4f50" vector-effect="non-scaling-stroke" d="
  M 112.10 22.37
  Q 112.15 22.68 113.00 23.50"
/>
<path stroke="#474748" vector-effect="non-scaling-stroke" d="
  M 113.00 23.50
  Q 114.03 25.07 113.30 27.97"
/>
<path stroke="#4f4f50" vector-effect="non-scaling-stroke" d="
  M 113.30 27.97
  L 112.56 28.95"
/>
<path stroke="#575757" vector-effect="non-scaling-stroke" d="
  M 112.56 28.95
  L 110.29 31.19"
/>
<path stroke="#5d5d5d" vector-effect="non-scaling-stroke" d="
  M 110.29 31.19
  Q 109.66 31.65 109.30 32.22"
/>
<path stroke="#676767" vector-effect="non-scaling-stroke" d="
  M 109.30 32.22
  L 107.85 33.57
  Q 107.42 33.97 107.77 34.44
  Q 108.04 34.79 108.49 34.91
  A 0.63 0.63 0.0 0 1 108.86 35.86
  L 107.82 37.53
  Q 107.54 37.98 107.69 38.49
  Q 108.02 39.61 109.08 40.57"
/>
<path stroke="#5d5d5d" vector-effect="non-scaling-stroke" d="
  M 109.08 40.57
  L 109.80 42.26"
/>
<path stroke="#575757" vector-effect="non-scaling-stroke" d="
  M 109.80 42.26
  L 112.85 49.26"
/>
<path stroke="#4f4f50" vector-effect="non-scaling-stroke" d="
  M 112.85 49.26
  Q 113.10 52.40 114.64 52.16"
/>
<path stroke="#474748" vector-effect="non-scaling-stroke" d="
  M 114.64 52.16
  L 116.00 52.75"
/>
<path stroke="#3d3d3d" vector-effect="non-scaling-stroke" d="
  M 116.00 52.75
  L 116.66 54.51
  Q 116.83 54.96 117.31 54.96
  L 124.30 54.93"
/>
<path stroke="#474748" vector-effect="non-scaling-stroke" d="
  M 124.30 54.93
  Q 126.34 55.98 127.48 57.98"
/>
<path stroke="#575757" vector-effect="non-scaling-stroke" d="
  M 127.48 57.98
  L 128.00 58.86"
/>
<path stroke="#575757" vector-effect="non-scaling-stroke" d="
  M 128.00 65.36
  Q 127.58 66.00 127.52 66.68"
/>
<path stroke="#474748" vector-effect="non-scaling-stroke" d="
  M 127.52 66.68
  L 125.30 68.69"
/>
<path stroke="#3d3d3d" vector-effect="non-scaling-stroke" d="
  M 125.30 68.69
  L 116.79 68.98"
/>
<path stroke="#474748" vector-effect="non-scaling-stroke" d="
  M 116.79 68.98
  Q 116.69 71.24 115.16 72.08
  Q 114.72 72.32 114.59 72.80
  L 112.81 78.93"
/>
<path stroke="#4f4f50" vector-effect="non-scaling-stroke" d="
  M 112.81 78.93
  Q 112.47 79.47 112.55 79.95"
/>
<path stroke="#575757" vector-effect="non-scaling-stroke" d="
  M 112.55 79.95
  L 109.72 86.26"
/>
<path stroke="#5d5d5d" vector-effect="non-scaling-stroke" d="
  M 109.72 86.26
  L 108.16 88.78
  A 1.00 0.99 -57.2 0 0 108.44 90.12
  Q 109.31 90.72 109.57 91.75
  Q 109.72 92.32 109.22 92.64
  C 108.65 93.01 108.33 93.70 108.65 94.35
  Q 109.08 95.21 110.44 96.04"
/>
<path stroke="#575757" vector-effect="non-scaling-stroke" d="
  M 110.44 96.04
  L 112.50 98.35"
/>
<path stroke="#4f4f50" vector-effect="non-scaling-stroke" d="
  M 112.50 98.35
  L 113.02 98.89"
/>
<path stroke="#474748" vector-effect="non-scaling-stroke" d="
  M 113.02 98.89
  Q 114.66 100.63 114.38 102.79"
/>
<path stroke="#4f4f50" vector-effect="non-scaling-stroke" d="
  M 114.38 102.79
  L 113.40 104.45"
/>
<path stroke="#575757" vector-effect="non-scaling-stroke" d="
  M 113.40 104.45
  L 111.29 106.72"
/>
<path stroke="#5d5d5d" vector-effect="non-scaling-stroke" d="
  M 111.29 106.72
  C 110.12 107.78 109.02 109.21 107.65 109.75
  Q 105.53 110.59 104.01 109.20
  Q 102.52 107.84 101.85 107.37"
/>
<path stroke="#676767" vector-effect="non-scaling-stroke" d="
  M 101.85 107.37
  L 99.00 104.32
  Q 98.64 103.94 98.19 104.22
  L 96.90 105.03
  A 1.02 1.01 -38.7 0 1 95.67 104.90
  L 94.98 104.24
  Q 94.54 103.82 94.03 104.16
  L 89.63 107.14"
/>
<path stroke="#5d5d5d" vector-effect="non-scaling-stroke" d="
  M 89.63 107.14
  L 79.65 111.53"
/>
<path stroke="#575757" vector-effect="non-scaling-stroke" d="
  M 79.65 111.53
  Q 78.87 111.37 77.67 112.34"
/>
<path stroke="#4f4f50" vector-effect="non-scaling-stroke" d="
  M 77.67 112.34
  Q 76.72 111.60 76.49 113.85"
/>
<path stroke="#474748" vector-effect="non-scaling-stroke" d="
  M 76.49 113.85
  L 75.53 115.72"
/>
<path stroke="#3d3d3d" vector-effect="non-scaling-stroke" d="
  M 75.53 115.72
  L 74.27 116.32
  Q 73.84 116.53 73.79 117.00
  L 72.81 126.32"
/>
<path stroke="#575757" vector-effect="non-scaling-stroke" d="
  M 72.81 126.32
  Q 71.86 126.48 69.77 128.00"
/>
<path stroke="#575757" vector-effect="non-scaling-stroke" d="
  M 63.39 128.00
  L 61.04 126.41"
/>
<path stroke="#3d3d3d" vector-effect="non-scaling-stroke" d="
  M 61.04 126.41
  C 58.92 124.34 59.68 120.91 59.60 117.52
  Q 59.58 117.03 59.12 116.84
  Q 56.99 116.01 56.55 113.11"
/>
<path stroke="#4f4f50" vector-effect="non-scaling-stroke" d="
  M 56.55 113.11
  L 46.25 110.56"
/>
<path stroke="#5d5d5d" vector-effect="non-scaling-stroke" d="
  M 46.25 110.56
  L 36.30 105.57
  Q 35.76 105.29 35.27 105.66
  L 33.32 107.12
  A 0.36 0.36 0.0 0 1 32.78 107.00
  Q 32.32 106.12 31.32 106.00
  Q 30.78 105.93 30.42 106.34
  L 26.54 110.79"
/>
<path stroke="#4f4f50" vector-effect="non-scaling-stroke" d="
  M 26.54 110.79
  Q 24.95 112.39 22.50 112.48"
/>
<path stroke="#575757" vector-effect="non-scaling-stroke" d="
  M 22.50 112.48
  L 20.14 110.75"
/>
<path stroke="#5d5d5d" vector-effect="non-scaling-stroke" d="
  M 20.14 110.75
  L 19.12 109.81"
/>
<path stroke="#575757" vector-effect="non-scaling-stroke" d="
  M 19.12 109.81
  C 17.42 107.95 15.29 106.58 15.35 103.69"
/>
<path stroke="#808080" vector-effect="non-scaling-stroke" d="
  M 15.35 103.69
  Q 15.59 102.54 16.30 101.69"
/>
<path stroke="#676767" vector-effect="non-scaling-stroke" d="
  M 16.30 101.69
  L 20.48 96.90
  Q 20.85 96.47 20.56 95.99
  L 19.85 94.82
  A 1.01 1.00 -46.5 0 1 19.83 93.80
  L 21.17 91.43
  Q 21.45 90.93 21.18 90.43
  L 17.03 82.73"
/>
<path stroke="#808080" vector-effect="non-scaling-stroke" d="
  M 17.03 82.73
  L 14.72 75.09
  Q 14.55 74.55 13.99 74.53
  Q 11.44 74.44 11.43 72.29
  Q 11.42 71.70 10.83 71.68
  L 3.56 71.45"
/>
<path stroke="#6e6e6e" vector-effect="non-scaling-stroke" d="
  M 3.56 71.45
  Q 3.24 71.17 2.51 70.99"
/>
<path stroke="#575757" vector-effect="non-scaling-stroke" d="
  M 2.51 70.99
  L 0.00 67.60"
/>
<path stroke="#6e6e6e" vector-effect="non-scaling-stroke" d="
  M 1.77 58.54
  L 3.94 57.33"
/>
<path stroke="#808080" vector-effect="non-scaling-stroke" d="
  M 3.94 57.33
  L 10.92 57.24
  Q 11.40 57.24 11.38 56.76
  Q 11.33 54.80 14.55 53.89"
/>
<path stroke="#6e6e6e" vector-effect="non-scaling-stroke" d="
  M 14.55 53.89
  Q 16.56 45.39 20.50 38.82
  C 21.24 37.57 21.11 36.67 20.28 35.57
  Q 19.51 34.55 20.35 33.62
  A 1.26 1.26 0.0 0 0 20.28 31.85
  Q 18.13 29.86 16.35 27.72
  Q 13.75 24.59 16.47 21.35
  Q 18.27 19.20 20.09 17.58
  Q 21.97 15.91 24.84 16.78"
/>
<path stroke="#676767" vector-effect="non-scaling-stroke" d="
  M 24.84 16.78
  L 30.18 22.08
  A 0.74 0.73 -38.3 0 0 31.09 22.18
  L 32.10 21.53
  Q 32.65 21.18 33.20 21.53
  L 34.51 22.35
  A 2.64 2.63 -41.8 0 0 37.05 22.49
  L 43.95 19.20"
/>
<path stroke="#363637" vector-effect="non-scaling-stroke" d="
  M 43.95 19.20
  L 44.78 19.53"
/>
<path stroke="#474748" vector-effect="non-scaling-stroke" d="
  M 44.78 19.53
  Q 43.24 20.36 42.44 21.54"
/>
<path stroke="#4f4f50" vector-effect="non-scaling-stroke" d="
  M 42.44 21.54
  L 33.56 25.42"
/>
<path stroke="#474748" vector-effect="non-scaling-stroke" d="
  M 33.56 25.42
  Q 25.86 32.02 22.13 40.44"
/>
<path stroke="#3d3d3d" vector-effect="non-scaling-stroke" d="
  M 22.13 40.44
  L 19.63 47.67"
/>
<path stroke="#363637" vector-effect="non-scaling-stroke" d="
  M 19.63 47.67
  Q 16.76 57.92 19.89 68.10"
/>
<path stroke="#262627" vector-effect="non-scaling-stroke" d="
  M 19.89 68.10
  Q 23.02 80.35 32.88 88.70"
/>
<path stroke="#111111" vector-effect="non-scaling-stroke" d="
  M 32.88 88.70
  Q 40.59 95.97 50.01 97.37
  Q 57.23 98.45 67.55 96.31
  Q 69.04 96.00 70.19 95.25
  Q 71.41 94.45 72.95 94.06
  Q 74.48 93.68 75.78 92.73
  Q 77.08 91.80 78.31 90.86
  Q 78.70 90.57 79.18 90.63
  Q 79.99 90.73 80.10 89.90
  A 0.58 0.57 4.5 0 1 80.68 89.41
  Q 81.61 89.44 82.20 88.66
  A 0.80 0.80 0.0 0 1 82.84 88.34
  Q 83.27 88.33 83.69 88.14
  Q 83.90 88.04 83.94 87.82
  Q 84.08 87.16 84.76 87.00
  Q 85.06 86.93 84.78 86.82
  Q 84.63 86.76 84.49 86.84
  Q 82.71 87.94 81.11 89.07
  Q 80.89 89.23 80.62 89.21
  Q 80.05 89.18 80.52 88.85
  Q 85.21 85.62 91.86 76.72
  Q 92.99 75.21 93.31 73.77
  Q 93.43 73.25 93.79 72.85
  Q 95.78 70.64 96.04 66.93
  Q 96.07 66.47 96.34 66.11
  Q 97.01 65.20 97.23 64.04
  Q 97.33 63.51 97.70 63.10
  Q 98.34 62.39 98.13 61.43
  A 0.98 0.97 57.1 0 1 98.30 60.63
  Q 98.68 60.12 98.74 59.50
  Q 99.18 54.65 99.15 49.11
  Q 99.13 46.76 98.69 44.28
  Q 98.15 41.24 98.10 38.60
  Q 98.09 38.21 97.90 37.87
  Q 96.14 34.80 94.99 31.47
  C 93.80 28.00 87.59 23.69 85.20 22.23"
/>
<path stroke="#262627" vector-effect="non-scaling-stroke" d="
  M 85.20 22.23
  L 76.22 17.84"
/>
<path stroke="#363637" vector-effect="non-scaling-stroke" d="
  M 76.22 17.84
  Q 65.91 14.14 55.05 15.81
  Q 54.53 15.89 54.49 15.37
  L 54.46 14.94"
/>
<path stroke="#808080" vector-effect="non-scaling-stroke" d="
  M 54.46 14.94
  Q 54.08 12.03 56.74 11.74
  Q 57.23 11.68 57.24 11.20
  L 57.39 3.27"
/>
<path stroke="#6e6e6e" vector-effect="non-scaling-stroke" d="
  M 57.39 3.27
  L 60.05 0.52"
/>
<path stroke="#676767" vector-effect="non-scaling-stroke" d="
  M 63.4053 12.9300
  A 4.22 2.67 90.2 0 0 66.0900 8.7193
  A 4.22 2.67 90.2 0 0 63.4347 4.4900
  A 4.22 2.67 90.2 0 0 60.7500 8.7007
  A 4.22 2.67 90.2 0 0 63.4053 12.9300"
/>
<path stroke="#363637" vector-effect="non-scaling-stroke" d="
  M 28.71 24.99
  A 2.34 2.34 0.0 0 0 26.37 22.65
  A 2.34 2.34 0.0 0 0 24.03 24.99
  A 2.34 2.34 0.0 0 0 26.37 27.33
  A 2.34 2.34 0.0 0 0 28.71 24.99"
/>
<path stroke="#363637" vector-effect="non-scaling-stroke" d="
  M 106.0339 23.9731
  A 2.35 2.17 -27.0 0 0 102.9548 23.1065
  A 2.35 2.17 -27.0 0 0 101.8461 26.1069
  A 2.35 2.17 -27.0 0 0 104.9252 26.9735
  A 2.35 2.17 -27.0 0 0 106.0339 23.9731"
/>
<path stroke="#676767" vector-effect="non-scaling-stroke" d="
  M 13.15 64.36
  L 13.21 60.58
  A 1.04 1.04 0.0 0 0 12.19 59.52
  L 10.68 59.49
  A 3.89 2.81 1.0 0 0 6.74 62.23
  L 6.74 62.47
  A 3.89 2.81 1.0 0 0 10.58 65.35
  L 12.09 65.38
  A 1.04 1.04 0.0 0 0 13.15 64.36"
/>
<path stroke="#111111" vector-effect="non-scaling-stroke" d="
  M 123.54 62.15
  A 4.02 2.62 0.0 0 0 119.52 59.53
  A 4.02 2.62 0.0 0 0 115.50 62.15
  A 4.02 2.62 0.0 0 0 119.52 64.77
  A 4.02 2.62 0.0 0 0 123.54 62.15"
/>
<path stroke="#111111" vector-effect="non-scaling-stroke" d="
  M 67.2823 123.3800
  A 4.44 2.16 90.1 0 0 69.4500 118.9438
  A 4.44 2.16 90.1 0 0 67.2977 114.5000
  A 4.44 2.16 90.1 0 0 65.1300 118.9362
  A 4.44 2.16 90.1 0 0 67.2823 123.3800"
/>
<path stroke="#b3b3b3" vector-effect="non-scaling-stroke" d="
  M 128.00 6.57
  Q 125.26 5.61 122.67 6.07
  Q 122.45 6.11 122.53 5.89
  Q 122.60 5.71 122.47 5.54"
/>
<path stroke="#bdbdbd" vector-effect="non-scaling-stroke" d="
  M 122.47 5.54
  L 123.58 4.89
  A 1.20 1.20 0.0 0 0 123.25 2.69
  L 122.21 2.44
  Q 121.37 2.24 121.85 2.95
  Q 122.79 4.35 121.35 5.49"
/>
<path stroke="#c4c4c4" vector-effect="non-scaling-stroke" d="
  M 121.35 5.49
  Q 121.34 5.12 121.68 4.78
  A 1.64 1.39 -19.4 0 0 122.09 4.08
  Q 122.18 3.77 122.00 3.49
  Q 121.60 2.86 121.32 3.55
  L 120.12 6.42"
/>
<path stroke="#bdbdbd" vector-effect="non-scaling-stroke" d="
  M 120.12 6.42
  Q 119.88 6.64 120.09 6.90"
/>
<path stroke="#d6d6d6" vector-effect="non-scaling-stroke" d="
  M 120.09 6.90
  Q 118.24 8.51 116.37 9.61
  Q 116.24 9.69 116.08 9.67
  Q 115.73 9.61 116.02 9.41
  Q 116.96 8.74 118.02 8.11
  C 119.88 6.99 119.94 6.05 120.95 4.41
  Q 121.29 3.84 120.89 3.32
  Q 119.68 1.71 117.93 1.53
  Q 112.91 1.02 105.98 1.55"
/>
<path stroke="#c4c4c4" vector-effect="non-scaling-stroke" d="
  M 105.98 1.55
  Q 84.67 1.05 71.50 1.13
  Q 70.85 1.13 70.27 2.03"
/>
<path stroke="#ededed" vector-effect="non-scaling-stroke" d="
  M 57.39 3.27
  Q 53.68 2.79 49.94 1.91
  Q 47.84 1.42 46.02 1.41
  Q 44.03 1.40 42.04 1.44"
/>
<path stroke="#b5b5b6" vector-effect="non-scaling-stroke" d="
  M 54.46 14.94
  Q 54.16 15.06 54.02 15.24"
/>
<path stroke="#ededed" vector-effect="non-scaling-stroke" d="
  M 54.02 15.24
  Q 50.30 15.33 46.68 15.41
  Q 45.42 15.43 43.89 15.88
  Q 42.57 16.26 41.05 16.17
  Q 34.89 15.78 29.39 15.35
  Q 27.55 15.21 25.54 14.59
  C 23.03 13.83 18.57 13.71 16.42 15.45
  Q 14.89 16.68 14.65 18.87
  Q 14.44 20.73 14.07 22.53
  Q 13.70 24.30 14.25 25.97
  Q 14.58 26.99 14.81 28.04
  Q 15.03 29.06 15.27 30.15
  C 16.04 33.65 15.62 38.03 15.60 41.64
  Q 15.59 43.19 14.89 44.60
  Q 14.64 45.10 14.65 45.64
  L 14.68 49.88
  Q 14.68 50.31 14.46 50.68
  Q 13.91 51.61 14.55 53.89"
/>
<path stroke="#ededed" vector-effect="non-scaling-stroke" d="
  M 3.94 57.33
  Q 3.84 52.69 3.75 48.00
  Q 3.62 41.05 3.02 34.13
  Q 2.46 27.67 2.43 23.34
  Q 2.39 17.94 2.40 12.53"
/>
<path stroke="#ededed" vector-effect="non-scaling-stroke" d="
  M 105.98 1.55
  Q 91.88 2.60 72.75 3.13
  Q 71.40 3.17 71.19 4.45"
/>
<path stroke="#e6e6e6" vector-effect="non-scaling-stroke" d="
  M 120.09 6.90
  L 118.11 9.42"
/>
<path stroke="#ededed" vector-effect="non-scaling-stroke" d="
  M 118.11 9.42
  Q 115.81 9.98 114.39 11.39
  Q 111.21 14.53 109.10 16.31
  Q 108.72 16.64 108.21 16.63
  L 78.17 16.31"
/>
<path stroke="#c2c3c3" vector-effect="non-scaling-stroke" d="
  M 122.47 5.54
  Q 121.67 6.07 121.56 6.89
  Q 121.50 7.39 121.23 7.81
  Q 119.99 9.74 118.20 11.23
  Q 114.19 14.56 110.66 18.41
  Q 110.04 19.08 108.97 18.83"
/>
<path stroke="#c2c3c3" vector-effect="non-scaling-stroke" d="
  M 102.74 19.08
  L 84.73 18.87"
/>
<path stroke="#d3d4d4" vector-effect="non-scaling-stroke" d="
  M 81.75 17.69
  Q 90.66 17.88 99.50 17.90
  C 102.58 17.91 105.56 16.82 108.50 17.80
  Q 109.15 18.02 109.65 17.55
  L 118.11 9.42"
/>
<path stroke="#d3d4d4" vector-effect="non-scaling-stroke" d="
  M 120.12 6.42
  Q 121.09 6.60 121.35 5.49"
/>
<path stroke="#b3b3b3" vector-effect="non-scaling-stroke" d="
  M 128.00 7.01
  Q 121.61 7.17 118.27 13.52
  Q 117.95 14.13 116.89 14.54
  A 2.10 2.06 -78.6 0 0 116.14 15.05
  L 110.58 20.92"
/>
<path stroke="#9d9d9e" vector-effect="non-scaling-stroke" d="
  M 127.48 57.98
  L 126.32 19.45"
/>
<path stroke="#939393" vector-effect="non-scaling-stroke" d="
  M 126.32 19.45
  L 126.34 11.14"
/>
<path stroke="#9d9d9e" vector-effect="non-scaling-stroke" d="
  M 126.34 11.14
  L 125.73 9.72"
/>
<path stroke="#a5a5a6" vector-effect="non-scaling-stroke" d="
  M 125.73 9.72
  Q 125.64 8.94 125.24 8.68
  Q 124.86 8.44 124.46 8.65
  Q 121.45 10.16 120.07 12.61
  Q 118.43 15.51 115.50 17.65
  Q 114.33 18.50 113.55 19.83
  Q 112.81 21.09 112.10 22.37"
/>
<path stroke="#a5a5a6" vector-effect="non-scaling-stroke" d="
  M 127.5600 50.1700
  A 4.70 0.20 90.0 0 0 127.7600 45.4700
  A 4.70 0.20 90.0 0 0 127.5600 40.7700
  A 4.70 0.20 90.0 0 0 127.3600 45.4700
  A 4.70 0.20 90.0 0 0 127.5600 50.1700"
/>
<path stroke="#949597" vector-effect="non-scaling-stroke" d="
  M 125.73 9.72
  C 123.63 9.11 121.76 11.41 121.08 12.99
  C 120.24 14.99 118.61 16.51 116.94 17.83
  Q 115.72 18.79 114.76 20.55
  Q 113.92 22.09 113.00 23.50"
/>
<path stroke="#838384" vector-effect="non-scaling-stroke" d="
  M 126.34 11.14
  Q 124.09 10.60 123.07 12.64
  Q 120.86 17.07 118.56 18.68
  C 116.79 19.91 115.51 22.43 116.22 24.49
  Q 116.85 26.31 116.87 28.25
  Q 116.97 39.71 116.93 51.21
  Q 116.93 51.70 116.55 52.01
  Q 116.19 52.32 116.00 52.75"
/>
<path stroke="#949597" vector-effect="non-scaling-stroke" d="
  M 114.64 52.16
  L 114.51 28.77
  A 0.81 0.76 32.0 0 0 114.41 28.39
  Q 114.00 27.61 113.30 27.97"
/>
<path stroke="#838384" vector-effect="non-scaling-stroke" d="
  M 126.32 19.45
  Q 125.64 22.01 125.43 24.63
  C 125.30 26.24 124.55 27.37 124.59 28.96
  Q 124.59 29.17 124.44 29.29
  Q 124.24 29.46 124.25 29.72
  L 124.39 50.80
  Q 124.39 51.07 124.64 51.18
  Q 124.77 51.24 124.84 51.38
  Q 124.92 51.53 124.81 51.66
  Q 124.73 51.77 124.54 51.74
  Q 124.37 51.70 124.37 51.88
  L 124.30 54.93"
/>
<path stroke="#a2a3a4" vector-effect="non-scaling-stroke" d="
  M 54.02 15.24
  L 47.25 17.62"
/>
<path stroke="#d3d4d4" vector-effect="non-scaling-stroke" d="
  M 47.25 17.62
  Q 45.06 17.81 43.34 19.08
  Q 42.95 19.37 42.47 19.37
  L 39.03 19.37
  Q 38.48 19.37 38.18 18.92
  Q 37.40 17.74 36.26 17.65
  Q 30.74 17.25 24.84 16.78"
/>
<path stroke="#5a5b5d" vector-effect="non-scaling-stroke" d="
  M 76.22 17.84
  Q 76.21 19.23 77.82 19.07
  Q 78.55 19.00 78.47 19.72
  Q 78.41 20.26 78.96 20.30
  Q 79.60 20.35 79.77 20.98
  Q 79.85 21.30 80.09 21.54
  Q 80.44 21.88 80.92 21.93
  Q 82.70 22.13 82.71 23.82
  A 1.09 1.07 26.8 0 0 82.93 24.47
  C 83.93 25.75 85.26 26.33 86.10 27.72
  Q 86.93 29.10 87.86 30.48
  Q 88.52 31.45 88.76 32.56
  Q 89.02 33.80 89.71 34.82
  Q 90.66 36.22 91.04 37.81
  Q 92.97 45.86 92.66 54.08
  Q 92.60 55.55 92.25 56.86
  Q 91.88 58.25 91.62 59.84
  Q 91.28 61.91 90.48 63.53
  Q 88.59 67.39 86.60 72.11
  Q 86.51 72.30 86.38 72.48
  L 82.61 77.48"
/>
<path stroke="#363637" vector-effect="non-scaling-stroke" d="
  M 82.61 77.48
  Q 84.99 69.57 78.84 64.10"
/>
<path stroke="#7b7c7e" vector-effect="non-scaling-stroke" d="
  M 78.84 64.10
  Q 81.57 61.45 81.76 59.50
  Q 81.96 57.49 82.52 55.60
  Q 83.15 53.46 83.15 51.77
  Q 83.12 47.42 83.03 43.58
  C 83.00 42.43 82.43 41.52 82.35 40.43
  Q 82.27 39.26 81.77 38.28
  Q 80.87 36.52 80.27 34.61
  Q 79.81 33.15 78.79 32.07
  Q 77.36 30.57 76.61 28.78
  Q 76.18 27.77 75.32 27.01
  Q 74.19 26.02 73.51 24.82
  Q 73.26 24.38 72.82 24.14
  Q 71.40 23.35 70.48 22.35
  C 69.79 21.59 68.93 21.39 67.98 21.15
  Q 67.51 21.03 67.14 20.71
  Q 66.13 19.82 64.82 19.38
  Q 60.21 17.82 55.73 16.82
  Q 54.24 16.49 52.70 16.69
  Q 51.10 16.90 49.70 17.46
  Q 47.17 18.48 44.78 19.53"
/>
<path stroke="#9b9c9d" vector-effect="non-scaling-stroke" d="
  M 43.95 19.20
  L 47.25 17.62"
/>
<path stroke="#474748" vector-effect="non-scaling-stroke" d="
  M 78.84 64.10
  L 75.13 60.00"
/>
<path stroke="#949597" vector-effect="non-scaling-stroke" d="
  M 75.13 60.00
  Q 76.46 58.92 76.58 57.20
  A 2.08 2.03 -27.3 0 1 76.89 56.27
  Q 77.84 54.80 77.17 53.04
  Q 76.90 52.32 77.65 52.17
  Q 77.81 52.13 77.90 51.99
  Q 78.11 51.63 78.12 51.20
  Q 78.33 46.27 77.38 41.25
  Q 76.83 38.33 75.11 35.19
  Q 73.13 31.59 71.19 29.55
  Q 70.29 28.60 69.40 27.45
  Q 69.13 27.12 68.75 26.92
  Q 67.17 26.12 65.98 24.77
  Q 64.15 22.67 59.63 21.65
  Q 49.74 19.41 42.44 21.54"
/>
<path stroke="#363637" vector-effect="non-scaling-stroke" d="
  M 85.20 22.23
  Q 86.35 24.08 88.06 25.01
  Q 88.52 25.26 88.75 25.74
  Q 89.68 27.74 91.32 29.50
  Q 91.66 29.87 91.68 30.37
  Q 91.70 30.82 91.98 31.17
  C 93.25 32.80 93.09 34.31 93.90 36.10
  Q 94.40 37.19 94.34 38.34
  Q 94.32 38.79 94.74 39.04
  A 0.71 0.68 10.8 0 1 95.06 39.49
  Q 97.27 49.35 95.99 59.23
  A 1.35 1.32 -18.5 0 1 95.58 60.03
  Q 94.54 61.01 94.60 62.54
  Q 94.62 63.07 94.47 63.58
  L 93.52 66.83
  Q 93.38 67.31 93.08 67.72
  Q 92.54 68.45 92.61 69.37
  A 0.63 0.62 78.2 0 1 92.20 70.00
  Q 91.20 70.34 90.87 71.35
  Q 90.59 72.20 90.08 72.97
  Q 87.32 77.20 83.37 81.39
  Q 82.53 82.29 81.49 82.76
  Q 80.33 83.29 79.37 84.34
  Q 78.56 85.24 77.51 85.98
  Q 76.56 86.64 75.60 87.03
  Q 73.33 87.95 71.08 89.33
  Q 70.78 89.51 70.59 89.80
  L 69.78 90.98
  Q 69.58 91.27 69.23 91.33
  L 66.30 91.76
  Q 66.22 91.77 66.16 91.83
  L 65.75 92.24
  Q 65.54 92.45 65.25 92.51
  Q 55.67 94.66 46.15 92.87
  Q 43.88 92.44 39.50 90.84
  Q 36.26 89.65 32.88 88.70"
/>
<path stroke="#5a5b5d" vector-effect="non-scaling-stroke" d="
  M 19.89 68.10
  Q 21.45 71.63 23.17 74.97
  Q 23.64 75.88 24.54 76.19
  Q 25.03 76.37 25.41 76.74
  Q 27.22 78.52 29.04 80.44
  Q 30.25 81.72 31.86 82.67
  Q 33.42 83.59 34.95 84.52
  Q 39.72 87.41 45.60 88.61
  Q 49.31 89.37 54.13 89.61
  C 56.72 89.74 58.80 89.03 61.27 88.83
  Q 61.75 88.79 62.08 88.43
  Q 62.24 88.24 62.50 88.21
  Q 63.98 88.03 65.43 87.72
  Q 66.88 87.40 68.13 86.77
  Q 69.63 86.02 71.22 85.50
  Q 72.54 85.08 73.63 84.18
  Q 74.93 83.11 76.24 82.22
  Q 77.16 81.60 78.38 81.67
  Q 78.91 81.70 79.32 81.35
  Q 80.07 80.69 80.26 79.38"
/>
<path stroke="#262627" vector-effect="non-scaling-stroke" d="
  M 80.26 79.38
  L 82.61 77.48"
/>
<path stroke="#4f4f50" vector-effect="non-scaling-stroke" d="
  M 75.13 60.00
  L 70.51 55.00"
/>
<path stroke="#a5a5a6" vector-effect="non-scaling-stroke" d="
  M 70.51 55.00
  Q 72.25 48.54 71.36 42.75
  Q 71.26 42.11 70.64 41.77
  Q 70.28 41.56 70.35 41.15
  Q 70.51 40.22 69.96 39.43
  Q 69.67 39.01 69.62 38.49
  Q 69.31 35.12 66.53 33.52
  Q 66.11 33.28 65.93 32.83
  Q 64.73 29.87 61.90 28.77
  Q 61.48 28.61 61.28 28.20
  Q 61.12 27.85 60.85 27.57
  Q 60.52 27.24 60.07 27.14
  Q 58.73 26.87 57.51 26.12
  Q 56.83 25.70 56.07 25.46
  Q 53.98 24.80 52.02 24.63
  Q 51.53 24.58 51.09 24.34
  Q 49.99 23.74 49.03 24.49
  Q 48.69 24.75 48.28 24.62
  Q 47.01 24.23 45.84 24.72
  Q 44.92 25.11 43.93 25.13
  Q 42.04 25.19 40.25 25.40
  Q 39.76 25.46 39.41 25.80
  Q 36.14 28.88 32.83 31.94
  Q 29.03 35.45 27.77 41.21
  Q 26.95 44.97 27.15 49.38
  Q 27.18 49.93 27.42 50.43
  Q 27.78 51.17 27.68 52.03
  Q 27.62 52.53 27.92 52.93
  Q 28.70 53.95 28.89 55.19
  Q 28.97 55.74 29.43 56.04
  Q 30.18 56.54 30.24 57.51
  Q 30.29 58.24 30.75 58.79
  Q 31.25 59.38 31.34 60.19
  Q 31.41 60.75 31.94 60.95
  Q 32.94 61.34 33.39 62.26
  Q 35.20 65.99 39.35 67.64
  Q 42.65 68.94 46.11 69.51
  Q 46.54 69.58 46.96 69.78
  Q 47.41 70.00 47.82 69.72
  Q 48.23 69.45 48.71 69.55
  Q 52.14 70.30 54.62 68.93"
/>
<path stroke="#4f4f50" vector-effect="non-scaling-stroke" d="
  M 54.62 68.93
  L 59.64 72.62"
/>
<path stroke="#949597" vector-effect="non-scaling-stroke" d="
  M 59.64 72.62
  Q 58.73 73.69 56.43 73.41
  Q 56.12 73.37 55.85 73.53
  Q 55.71 73.61 55.62 73.74
  Q 55.30 74.24 54.72 74.15
  Q 52.90 73.89 51.10 74.34
  Q 49.50 74.74 47.90 74.43
  Q 45.51 73.96 43.01 73.34
  Q 42.73 73.28 42.56 73.04
  Q 42.29 72.68 41.86 72.56
  Q 38.56 71.65 35.26 69.55
  Q 35.18 69.49 35.18 69.39
  Q 35.17 69.26 35.10 69.15
  Q 35.00 69.00 34.84 68.92
  Q 32.89 67.94 31.14 65.85
  Q 22.94 56.11 24.62 43.65
  Q 24.75 42.62 25.24 41.94
  Q 25.70 41.29 25.73 40.47
  Q 25.77 39.05 26.23 37.72
  Q 28.04 32.46 32.03 28.53
  Q 32.73 27.84 33.01 27.10
  Q 33.27 26.39 33.56 25.42"
/>
<path stroke="#575757" vector-effect="non-scaling-stroke" d="
  M 70.51 55.00
  L 68.03 52.57"
/>
<path stroke="#b3b3b3" vector-effect="non-scaling-stroke" d="
  M 68.03 52.57
  C 68.88 49.27 68.61 46.26 68.37 42.95
  Q 68.26 41.36 67.72 39.98
  Q 67.13 38.48 66.54 36.93
  Q 66.35 36.41 65.93 36.04
  C 64.50 34.79 64.11 33.10 62.75 31.86
  Q 61.89 31.06 61.28 30.11
  Q 60.99 29.65 60.45 29.56
  Q 59.58 29.42 59.16 28.73
  Q 58.92 28.35 58.47 28.32
  Q 57.80 28.29 57.45 27.69
  Q 57.19 27.26 56.69 27.35
  Q 55.16 27.63 53.95 26.69
  Q 53.54 26.37 53.03 26.37
  L 46.27 26.37
  Q 45.78 26.37 45.34 26.59
  Q 44.36 27.06 43.25 26.88
  Q 42.77 26.81 42.35 27.03
  Q 39.78 28.42 37.17 29.78
  C 36.26 30.25 35.60 30.98 34.86 31.67
  Q 34.51 31.99 34.32 32.42
  Q 33.71 33.78 32.31 34.19
  Q 31.80 34.34 31.65 34.85
  Q 31.22 36.24 30.08 37.31
  Q 29.72 37.65 29.59 38.14
  Q 28.17 43.47 28.36 48.84
  C 28.40 49.88 28.93 50.23 28.90 51.38
  Q 28.88 52.39 29.31 53.68
  Q 30.62 57.59 33.99 61.10
  Q 36.55 63.77 40.03 66.08
  Q 40.47 66.37 41.01 66.38
  C 41.93 66.38 42.29 66.33 43.09 66.88
  Q 44.50 67.85 46.17 67.91
  Q 47.70 67.96 49.31 68.17
  Q 51.53 68.46 53.65 67.69"
/>
<path stroke="#575757" vector-effect="non-scaling-stroke" d="
  M 53.65 67.69
  L 54.62 68.93"
/>
<path stroke="#474748" vector-effect="non-scaling-stroke" d="
  M 59.64 72.62
  L 64.97 76.55"
/>
<path stroke="#838384" vector-effect="non-scaling-stroke" d="
  M 64.97 76.55
  L 60.26 77.32
  Q 59.78 77.40 59.40 77.69
  Q 58.69 78.23 57.78 78.37
  Q 52.53 79.22 47.10 78.77
  Q 47.01 78.76 47.01 78.67
  Q 47.01 78.62 46.99 78.57
  Q 46.92 78.42 46.74 78.40
  Q 45.10 78.31 43.50 77.79
  Q 42.44 77.44 41.59 76.76
  Q 40.52 75.90 39.22 75.91
  Q 38.66 75.91 38.30 75.48
  Q 37.85 74.93 37.15 74.74
  Q 36.30 74.52 35.52 73.91
  Q 32.55 71.62 29.77 69.54
  Q 29.37 69.25 29.21 68.78
  Q 29.02 68.26 28.56 67.95
  Q 26.50 66.58 25.79 64.19
  Q 25.66 63.74 25.43 63.33
  Q 22.66 58.25 21.82 53.27
  Q 21.37 50.60 21.72 46.67
  Q 22.00 43.58 22.13 40.44"
/>
<path stroke="#5d5d5d" vector-effect="non-scaling-stroke" d="
  M 68.03 52.57
  Q 64.83 50.67 61.48 50.74"
/>
<path stroke="#c2c3c3" vector-effect="non-scaling-stroke" d="
  M 61.48 50.74
  Q 62.59 46.05 61.82 41.10
  Q 61.52 39.11 60.40 37.73
  Q 59.21 36.26 57.97 34.71
  Q 56.68 33.12 54.74 32.04
  Q 52.75 30.94 50.91 30.38
  Q 47.89 29.46 44.35 30.28
  Q 43.82 30.41 43.28 30.32
  Q 42.35 30.18 41.81 30.87
  A 0.78 0.77 -65.4 0 1 41.07 31.15
  Q 40.47 31.03 40.13 31.54
  Q 39.90 31.89 39.54 32.14
  Q 37.07 33.86 34.87 36.71
  Q 30.97 41.79 32.18 47.66
  Q 32.44 48.94 32.83 50.25
  Q 33.18 51.45 33.92 52.61
  Q 34.80 53.98 35.35 55.53
  Q 35.52 56.00 35.93 56.28
  Q 37.61 57.40 39.10 58.77
  Q 39.87 59.48 40.75 59.78
  Q 41.55 60.05 42.34 60.40
  Q 43.44 60.88 44.84 60.90
  Q 48.13 60.94 51.56 60.54"
/>
<path stroke="#5d5d5d" vector-effect="non-scaling-stroke" d="
  M 51.56 60.54
  Q 51.27 64.34 53.65 67.69"
/>
<path stroke="#a5a5a6" vector-effect="non-scaling-stroke" d="
  M 112.85 49.26
  Q 112.98 49.31 113.09 49.17
  Q 113.13 49.13 113.13 49.07
  Q 113.13 39.50 113.12 30.20
  Q 113.12 29.85 112.96 29.55
  Q 112.77 29.22 112.56 28.95"
/>
<path stroke="#b3b3b3" vector-effect="non-scaling-stroke" d="
  M 109.80 42.26
  Q 111.13 42.40 111.13 41.25
  Q 111.12 36.67 111.12 32.09
  Q 111.12 31.69 110.96 31.46
  Q 110.69 31.07 110.29 31.19"
/>
<path stroke="#676767" vector-effect="non-scaling-stroke" d="
  M 61.48 50.74
  L 57.25 51.80"
/>
<path stroke="#d3d4d4" vector-effect="non-scaling-stroke" d="
  M 57.25 51.80
  Q 57.35 49.43 58.22 47.23
  Q 58.30 47.00 58.45 46.82
  Q 58.82 46.38 58.40 45.96
  Q 57.92 45.49 58.43 45.06
  Q 59.05 44.53 58.48 43.95
  Q 58.10 43.56 58.12 43.01
  Q 58.20 39.52 56.51 38.01
  Q 55.06 36.73 53.37 35.20
  Q 51.77 33.76 49.49 33.20
  Q 44.47 31.97 40.21 34.44
  Q 36.55 36.56 35.08 41.23
  Q 32.52 49.40 39.83 55.37
  Q 40.30 55.77 40.91 55.90
  Q 41.50 56.04 41.96 56.46
  A 1.98 1.97 -15.5 0 0 42.80 56.93
  Q 47.77 58.21 52.84 56.06"
/>
<path stroke="#676767" vector-effect="non-scaling-stroke" d="
  M 52.84 56.06
  Q 51.66 58.47 51.56 60.54"
/>
<path stroke="#c2c3c3" vector-effect="non-scaling-stroke" d="
  M 109.08 40.57
  Q 109.87 39.60 109.89 37.99
  Q 109.91 35.44 109.65 32.90
  Q 109.56 32.06 109.30 32.22"
/>
<path stroke="#6e6e6e" vector-effect="non-scaling-stroke" d="
  M 57.25 51.80
  Q 54.51 53.50 52.84 56.06"
/>
<path stroke="#ededed" vector-effect="non-scaling-stroke" d="
  M 52.63 40.25
  L 52.63 39.01
  Q 52.63 38.53 52.26 38.23
  Q 47.34 34.19 42.59 36.35
  Q 35.75 39.48 37.39 47.31
  Q 37.70 48.78 38.68 49.99
  Q 39.45 50.95 40.47 51.44
  C 41.77 52.07 42.82 53.24 44.34 53.28
  C 45.58 53.31 47.07 53.22 48.10 52.45
  Q 48.93 51.83 49.95 51.89
  Q 50.48 51.92 50.80 51.49
  Q 51.94 49.95 52.80 48.44
  Q 52.85 48.34 53.63 47.44
  Q 54.08 46.91 54.08 46.10
  Q 54.06 43.43 53.42 41.00
  Q 53.39 40.88 53.32 40.79
  Q 53.22 40.65 53.03 40.65
  Q 52.63 40.65 52.63 40.25"
/>
<path stroke="#3d3d3d" vector-effect="non-scaling-stroke" d="
  M 64.97 76.55
  L 67.93 78.29"
/>
<path stroke="#727273" vector-effect="non-scaling-stroke" d="
  M 67.93 78.29
  Q 66.88 79.39 65.29 79.79
  Q 65.07 79.84 64.94 80.03
  Q 64.89 80.10 64.88 80.17
  Q 64.83 80.65 64.35 80.54
  Q 62.47 80.10 60.99 81.65
  Q 60.60 82.06 60.04 82.11
  Q 57.10 82.37 54.55 82.70
  Q 52.97 82.91 51.59 82.80
  Q 49.99 82.67 48.33 82.50
  C 47.04 82.37 45.89 82.85 44.79 81.86
  Q 44.46 81.56 44.01 81.62
  Q 42.60 81.79 41.74 80.87
  Q 41.45 80.56 41.02 80.59
  Q 40.57 80.63 40.13 80.49
  Q 39.53 80.30 38.98 79.94
  Q 37.77 79.14 36.50 78.55
  Q 35.12 77.92 33.86 76.81
  Q 32.53 75.64 31.10 74.65
  Q 28.07 72.55 26.14 69.08
  Q 25.92 68.70 25.56 68.46
  Q 23.97 67.42 23.58 65.69
  Q 23.47 65.24 23.08 64.99
  A 0.87 0.85 -80.9 0 1 22.69 64.44
  Q 22.32 62.79 21.76 61.14
  Q 21.62 60.74 21.58 60.31
  Q 21.53 59.86 21.13 59.61
  A 1.14 1.14 0.0 0 1 20.61 58.73
  C 20.45 56.34 19.62 54.15 19.57 51.73
  Q 19.53 49.72 19.63 47.67"
/>
<path stroke="#363637" vector-effect="non-scaling-stroke" d="
  M 67.93 78.29
  C 72.49 80.63 76.06 82.89 80.26 79.38"
/>
<path stroke="#4f4f50" vector-effect="non-scaling-stroke" d="
  M 58.64 64.31
  A 4.69 4.69 0.0 0 0 63.57 64.46"
/>
<path stroke="#808080" vector-effect="non-scaling-stroke" d="
  M 63.57 64.46
  A 4.68 4.68 0.0 0 0 65.13 57.83
  A 4.69 4.68 61.5 0 0 59.35 56.11
  A 4.69 4.68 -28.1 0 0 57.28 62.92
  A 4.65 4.62 0.8 0 0 58.64 64.31"
/>
<path stroke="#cececf" vector-effect="non-scaling-stroke" d="
  M 63.57 64.46
  L 58.64 64.31"
/>
<path stroke="#939393" vector-effect="non-scaling-stroke" d="
  M 72.81 126.32
  Q 95.54 125.09 118.24 125.99
  Q 121.50 126.12 125.65 126.62
  A 1.24 1.24 0.0 0 0 127.03 125.52
  Q 127.43 121.33 126.35 117.06"
/>
<path stroke="#9d9d9e" vector-effect="non-scaling-stroke" d="
  M 126.35 117.06
  L 127.52 66.68"
/>
<path stroke="#838384" vector-effect="non-scaling-stroke" d="
  M 126.35 117.06
  Q 125.67 98.17 125.86 79.37
  Q 125.73 79.54 125.86 79.75
  Q 125.48 87.67 125.56 95.60
  Q 125.57 95.84 125.75 95.99
  Q 125.89 96.10 125.89 96.25
  Q 125.76 100.71 125.72 105.37
  Q 125.72 105.38 125.71 105.38
  Q 125.65 105.38 125.73 105.38
  Q 125.74 105.38 125.74 105.36
  Q 124.56 88.12 125.14 81.00
  Q 125.79 73.04 125.30 68.69"
/>
<path stroke="#c4c4c4" vector-effect="non-scaling-stroke" d="
  M 2.51 70.99
  Q 1.59 70.71 1.40 71.50
  C 1.17 72.45 1.70 73.57 1.68 74.50
  Q 1.38 89.23 2.30 103.99"
/>
<path stroke="#d6d6d6" vector-effect="non-scaling-stroke" d="
  M 2.30 103.99
  C 2.04 108.13 0.93 116.69 3.61 120.13
  Q 4.88 121.76 6.52 120.29"
/>
<path stroke="#c4c4c4" vector-effect="non-scaling-stroke" d="
  M 6.52 120.29
  Q 7.84 120.11 8.64 119.36
  Q 9.96 118.13 10.83 115.97"
/>
<path stroke="#d6d6d6" vector-effect="non-scaling-stroke" d="
  M 10.83 115.97
  Q 12.00 115.27 12.88 113.85
  Q 13.08 113.53 13.18 113.16
  Q 13.37 112.46 13.96 111.96
  Q 15.80 110.41 16.14 108.21
  A 1.06 1.05 -60.3 0 0 15.92 107.39
  Q 14.30 105.42 15.35 103.69"
/>
<path stroke="#b3b3b3" vector-effect="non-scaling-stroke" d="
  M 19.12 109.81
  Q 19.23 111.34 17.61 112.34
  Q 17.24 112.57 17.05 112.97
  Q 16.93 113.23 16.90 113.51
  Q 16.85 113.95 16.49 114.20
  Q 12.02 117.40 8.52 121.38
  Q 7.14 122.96 7.42 125.07
  Q 7.44 125.25 7.62 125.21
  L 7.62 125.21
  Q 7.80 125.17 7.76 125.00
  Q 7.25 123.00 9.01 122.16
  C 10.39 121.49 10.94 119.73 12.24 118.79
  Q 16.83 115.49 20.14 110.75"
/>
<path stroke="#a5a5a6" vector-effect="non-scaling-stroke" d="
  M 22.50 112.48
  Q 20.69 113.31 19.65 114.14
  Q 19.01 114.65 17.89 116.27
  Q 16.55 118.22 12.74 120.63
  Q 11.66 121.31 11.33 122.30"
/>
<path stroke="#939393" vector-effect="non-scaling-stroke" d="
  M 11.33 122.30
  Q 10.97 122.52 10.61 122.99"
/>
<path stroke="#9d9d9e" vector-effect="non-scaling-stroke" d="
  M 10.61 122.99
  L 10.05 123.36
  Q 9.61 123.65 9.60 124.19
  Q 9.58 125.43 10.55 125.37"
/>
<path stroke="#939393" vector-effect="non-scaling-stroke" d="
  M 10.55 125.37
  Q 12.55 126.18 13.88 126.12
  Q 37.43 125.11 61.04 126.41"
/>
<path stroke="#bdbdbd" vector-effect="non-scaling-stroke" d="
  M 13.56 115.83
  L 12.95 115.81
  Q 12.41 115.80 12.07 116.22
  Q 11.10 117.41 10.51 118.41
  Q 9.72 119.74 10.81 118.63
  L 13.56 115.83"
/>
<path stroke="#bdbdbd" vector-effect="non-scaling-stroke" d="
  M 13.56 115.83
  Q 14.86 115.40 17.59 112.25
  Q 18.33 111.39 17.28 111.82
  Q 16.03 112.34 15.19 113.92
  A 1.52 1.46 1.2 0 1 14.47 114.58
  Q 13.63 114.93 13.56 115.83"
/>
<path stroke="#a5a5a6" vector-effect="non-scaling-stroke" d="
  M 14.72 118.32
  Q 13.79 118.75 13.21 119.59
  Q 12.58 120.52 13.48 119.85
  Q 14.66 118.96 16.09 117.88
  Q 16.93 117.25 17.41 116.44
  Q 17.91 115.60 17.15 116.20
  Q 16.23 116.93 15.45 117.79
  Q 15.14 118.13 14.72 118.32"
/>
<path stroke="#bdbdbd" vector-effect="non-scaling-stroke" d="
  M 6.21 124.06
  Q 6.21 124.24 6.34 124.35
  Q 6.75 124.67 6.77 124.15
  Q 6.85 122.52 9.45 119.82
  Q 10.89 118.32 9.25 119.59
  Q 7.48 120.96 5.84 122.65
  A 0.82 0.79 -19.3 0 0 5.63 123.07
  Q 5.51 123.80 6.08 123.90
  A 0.16 0.15 -85.9 0 1 6.21 124.06"
/>
<path stroke="#838384" vector-effect="non-scaling-stroke" d="
  M 75.53 115.72
  Q 75.51 116.63 76.12 116.63
  Q 92.90 116.63 112.25 116.68
  Q 115.15 116.69 117.43 117.78
  A 0.89 0.89 0.0 0 0 118.69 116.85
  C 118.42 114.95 117.45 113.57 117.41 111.64
  Q 117.18 100.13 117.16 73.50
  Q 117.16 72.52 117.28 72.07
  A 0.97 0.93 48.6 0 0 117.30 71.60
  L 116.79 68.98"
/>
<path stroke="#949597" vector-effect="non-scaling-stroke" d="
  M 76.49 113.85
  Q 91.40 113.90 106.26 113.84
  Q 110.10 113.83 111.61 112.99
  Q 114.32 111.51 114.57 107.76
  Q 114.72 105.38 114.38 102.79"
/>
<path stroke="#949597" vector-effect="non-scaling-stroke" d="
  M 113.02 98.89
  Q 114.37 98.45 114.37 97.25
  Q 114.38 89.09 114.36 80.94
  Q 114.36 80.11 114.08 79.64
  Q 113.59 78.83 112.81 78.93"
/>
<path stroke="#ededed" vector-effect="non-scaling-stroke" d="
  M 3.56 71.45
  L 2.30 103.99"
/>
<path stroke="#e6e6e6" vector-effect="non-scaling-stroke" d="
  M 17.03 82.73
  Q 17.64 92.96 16.30 101.69"
/>
<path stroke="#ededed" vector-effect="non-scaling-stroke" d="
  M 10.83 115.97
  L 6.52 120.29"
/>
<path stroke="#a5a5a6" vector-effect="non-scaling-stroke" d="
  M 112.50 98.35
  L 112.91 97.97
  A 0.72 0.67 -23.1 0 0 113.13 97.47
  L 113.13 80.56
  Q 113.13 80.21 112.80 80.06
  L 112.55 79.95"
/>
<path stroke="#b3b3b3" vector-effect="non-scaling-stroke" d="
  M 110.44 96.04
  Q 111.55 91.71 111.17 86.96
  Q 111.12 86.31 110.80 86.17
  Q 110.42 86.00 109.72 86.26"
/>
<path stroke="#a5a5a6" vector-effect="non-scaling-stroke" d="
  M 77.67 112.34
  Q 81.51 112.82 88.26 112.40
  Q 93.05 112.10 105.03 112.58
  Q 109.56 112.77 111.33 111.70
  Q 114.60 109.71 113.40 104.45"
/>
<path stroke="#c2c3c3" vector-effect="non-scaling-stroke" d="
  M 101.85 107.37
  Q 95.63 108.78 89.63 107.14"
/>
<path stroke="#b3b3b3" vector-effect="non-scaling-stroke" d="
  M 79.65 111.53
  Q 92.37 111.69 104.89 111.63
  Q 107.22 111.62 108.49 110.98
  Q 110.22 110.12 111.35 108.47
  Q 112.40 106.94 111.29 106.72"
/>
<path stroke="#aaabac" vector-effect="non-scaling-stroke" d="
  M 46.25 110.56
  Q 36.44 111.78 26.54 110.79"
/>
<path stroke="#8b8b8c" vector-effect="non-scaling-stroke" d="
  M 56.55 113.11
  L 56.40 114.24
  Q 56.33 114.72 55.85 114.73
  Q 41.94 115.00 29.44 114.80
  Q 27.02 114.76 24.64 114.21
  C 22.73 113.76 20.64 114.01 19.35 115.74
  Q 18.23 117.24 17.22 118.75
  Q 16.04 120.51 11.33 122.30"
/>
<path stroke="#838384" vector-effect="non-scaling-stroke" d="
  M 10.55 125.37
  L 10.61 122.99"
/>
</g>
<path fill="#adadad" d="
  M 0.00 0.00
  L 61.05 0.00
  Q 60.57 0.37 60.05 0.52
  L 42.04 1.44
  Q 28.41 1.57 14.76 1.47
  C 10.30 1.44 6.19 0.31 1.64 0.94
  A 0.94 0.94 0.0 0 0 0.84 2.01
  L 2.40 12.53
  L 2.16 29.22
  Q 2.16 29.57 1.95 29.86
  Q 1.80 30.06 1.79 30.25
  Q 1.16 40.98 1.12 56.50
  Q 1.11 57.87 1.77 58.54
  Q 1.13 60.01 0.00 61.25
  L 0.00 0.00
  Z"
/>
<path fill="#010101" d="
  M 61.05 0.00
  L 67.30 0.00
  L 70.27 2.03
  L 71.19 4.45
  L 71.28 11.22
  Q 71.29 11.91 71.99 11.89
  L 72.68 11.87
  Q 73.30 11.85 73.48 12.44
  L 74.30 15.07
  Q 74.46 15.59 74.99 15.69
  L 78.17 16.31
  Q 79.96 17.49 81.75 17.69
  L 84.73 18.87
  L 92.92 23.47
  Q 93.37 23.72 93.82 23.49
  L 95.72 22.52
  Q 96.25 22.26 96.75 22.58
  Q 97.15 22.83 97.44 23.21
  Q 97.89 23.79 98.41 23.28
  L 102.74 19.08
  Q 105.78 16.67 108.97 18.83
  L 110.58 20.92
  L 112.10 22.37
  Q 112.15 22.68 113.00 23.50
  Q 114.03 25.07 113.30 27.97
  L 112.56 28.95
  L 110.29 31.19
  Q 109.66 31.65 109.30 32.22
  L 107.85 33.57
  Q 107.42 33.97 107.77 34.44
  Q 108.04 34.79 108.49 34.91
  A 0.63 0.63 0.0 0 1 108.86 35.86
  L 107.82 37.53
  Q 107.54 37.98 107.69 38.49
  Q 108.02 39.61 109.08 40.57
  L 109.80 42.26
  L 112.85 49.26
  Q 113.10 52.40 114.64 52.16
  L 116.00 52.75
  L 116.66 54.51
  Q 116.83 54.96 117.31 54.96
  L 124.30 54.93
  Q 126.34 55.98 127.48 57.98
  L 128.00 58.86
  L 128.00 65.36
  Q 127.58 66.00 127.52 66.68
  L 125.30 68.69
  L 116.79 68.98
  Q 116.69 71.24 115.16 72.08
  Q 114.72 72.32 114.59 72.80
  L 112.81 78.93
  Q 112.47 79.47 112.55 79.95
  L 109.72 86.26
  L 108.16 88.78
  A 1.00 0.99 -57.2 0 0 108.44 90.12
  Q 109.31 90.72 109.57 91.75
  Q 109.72 92.32 109.22 92.64
  C 108.65 93.01 108.33 93.70 108.65 94.35
  Q 109.08 95.21 110.44 96.04
  L 112.50 98.35
  L 113.02 98.89
  Q 114.66 100.63 114.38 102.79
  L 113.40 104.45
  L 111.29 106.72
  C 110.12 107.78 109.02 109.21 107.65 109.75
  Q 105.53 110.59 104.01 109.20
  Q 102.52 107.84 101.85 107.37
  L 99.00 104.32
  Q 98.64 103.94 98.19 104.22
  L 96.90 105.03
  A 1.02 1.01 -38.7 0 1 95.67 104.90
  L 94.98 104.24
  Q 94.54 103.82 94.03 104.16
  L 89.63 107.14
  L 79.65 111.53
  Q 78.87 111.37 77.67 112.34
  Q 76.72 111.60 76.49 113.85
  L 75.53 115.72
  L 74.27 116.32
  Q 73.84 116.53 73.79 117.00
  L 72.81 126.32
  Q 71.86 126.48 69.77 128.00
  L 63.39 128.00
  L 61.04 126.41
  C 58.92 124.34 59.68 120.91 59.60 117.52
  Q 59.58 117.03 59.12 116.84
  Q 56.99 116.01 56.55 113.11
  L 46.25 110.56
  L 36.30 105.57
  Q 35.76 105.29 35.27 105.66
  L 33.32 107.12
  A 0.36 0.36 0.0 0 1 32.78 107.00
  Q 32.32 106.12 31.32 106.00
  Q 30.78 105.93 30.42 106.34
  L 26.54 110.79
  Q 24.95 112.39 22.50 112.48
  L 20.14 110.75
  L 19.12 109.81
  C 17.42 107.95 15.29 106.58 15.35 103.69
  Q 15.59 102.54 16.30 101.69
  L 20.48 96.90
  Q 20.85 96.47 20.56 95.99
  L 19.85 94.82
  A 1.01 1.00 -46.5 0 1 19.83 93.80
  L 21.17 91.43
  Q 21.45 90.93 21.18 90.43
  L 17.03 82.73
  L 14.72 75.09
  Q 14.55 74.55 13.99 74.53
  Q 11.44 74.44 11.43 72.29
  Q 11.42 71.70 10.83 71.68
  L 3.56 71.45
  Q 3.24 71.17 2.51 70.99
  L 0.00 67.60
  L 0.00 61.25
  Q 1.13 60.01 1.77 58.54
  L 3.94 57.33
  L 10.92 57.24
  Q 11.40 57.24 11.38 56.76
  Q 11.33 54.80 14.55 53.89
  Q 16.56 45.39 20.50 38.82
  C 21.24 37.57 21.11 36.67 20.28 35.57
  Q 19.51 34.55 20.35 33.62
  A 1.26 1.26 0.0 0 0 20.28 31.85
  Q 18.13 29.86 16.35 27.72
  Q 13.75 24.59 16.47 21.35
  Q 18.27 19.20 20.09 17.58
  Q 21.97 15.91 24.84 16.78
  L 30.18 22.08
  A 0.74 0.73 -38.3 0 0 31.09 22.18
  L 32.10 21.53
  Q 32.65 21.18 33.20 21.53
  L 34.51 22.35
  A 2.64 2.63 -41.8 0 0 37.05 22.49
  L 43.95 19.20
  L 44.78 19.53
  Q 43.24 20.36 42.44 21.54
  L 33.56 25.42
  Q 25.86 32.02 22.13 40.44
  L 19.63 47.67
  Q 16.76 57.92 19.89 68.10
  Q 23.02 80.35 32.88 88.70
  Q 40.59 95.97 50.01 97.37
  Q 57.23 98.45 67.55 96.31
  Q 69.04 96.00 70.19 95.25
  Q 71.41 94.45 72.95 94.06
  Q 74.48 93.68 75.78 92.73
  Q 77.08 91.80 78.31 90.86
  Q 78.70 90.57 79.18 90.63
  Q 79.99 90.73 80.10 89.90
  A 0.58 0.57 4.5 0 1 80.68 89.41
  Q 81.61 89.44 82.20 88.66
  A 0.80 0.80 0.0 0 1 82.84 88.34
  Q 83.27 88.33 83.69 88.14
  Q 83.90 88.04 83.94 87.82
  Q 84.08 87.16 84.76 87.00
  Q 85.06 86.93 84.78 86.82
  Q 84.63 86.76 84.49 86.84
  Q 82.71 87.94 81.11 89.07
  Q 80.89 89.23 80.62 89.21
  Q 80.05 89.18 80.52 88.85
  Q 85.21 85.62 91.86 76.72
  Q 92.99 75.21 93.31 73.77
  Q 93.43 73.25 93.79 72.85
  Q 95.78 70.64 96.04 66.93
  Q 96.07 66.47 96.34 66.11
  Q 97.01 65.20 97.23 64.04
  Q 97.33 63.51 97.70 63.10
  Q 98.34 62.39 98.13 61.43
  A 0.98 0.97 57.1 0 1 98.30 60.63
  Q 98.68 60.12 98.74 59.50
  Q 99.18 54.65 99.15 49.11
  Q 99.13 46.76 98.69 44.28
  Q 98.15 41.24 98.10 38.60
  Q 98.09 38.21 97.90 37.87
  Q 96.14 34.80 94.99 31.47
  C 93.80 28.00 87.59 23.69 85.20 22.23
  L 76.22 17.84
  Q 65.91 14.14 55.05 15.81
  Q 54.53 15.89 54.49 15.37
  L 54.46 14.94
  Q 54.08 12.03 56.74 11.74
  Q 57.23 11.68 57.24 11.20
  L 57.39 3.27
  L 60.05 0.52
  Q 60.57 0.37 61.05 0.00
  Z
  M 63.4053 12.9300
  A 4.22 2.67 90.2 0 0 66.0900 8.7193
  A 4.22 2.67 90.2 0 0 63.4347 4.4900
  A 4.22 2.67 90.2 0 0 60.7500 8.7007
  A 4.22 2.67 90.2 0 0 63.4053 12.9300
  Z
  M 28.71 24.99
  A 2.34 2.34 0.0 0 0 26.37 22.65
  A 2.34 2.34 0.0 0 0 24.03 24.99
  A 2.34 2.34 0.0 0 0 26.37 27.33
  A 2.34 2.34 0.0 0 0 28.71 24.99
  Z
  M 106.0339 23.9731
  A 2.35 2.17 -27.0 0 0 102.9548 23.1065
  A 2.35 2.17 -27.0 0 0 101.8461 26.1069
  A 2.35 2.17 -27.0 0 0 104.9252 26.9735
  A 2.35 2.17 -27.0 0 0 106.0339 23.9731
  Z
  M 13.15 64.36
  L 13.21 60.58
  A 1.04 1.04 0.0 0 0 12.19 59.52
  L 10.68 59.49
  A 3.89 2.81 1.0 0 0 6.74 62.23
  L 6.74 62.47
  A 3.89 2.81 1.0 0 0 10.58 65.35
  L 12.09 65.38
  A 1.04 1.04 0.0 0 0 13.15 64.36
  Z
  M 123.54 62.15
  A 4.02 2.62 0.0 0 0 119.52 59.53
  A 4.02 2.62 0.0 0 0 115.50 62.15
  A 4.02 2.62 0.0 0 0 119.52 64.77
  A 4.02 2.62 0.0 0 0 123.54 62.15
  Z
  M 67.2823 123.3800
  A 4.44 2.16 90.1 0 0 69.4500 118.9438
  A 4.44 2.16 90.1 0 0 67.2977 114.5000
  A 4.44 2.16 90.1 0 0 65.1300 118.9362
  A 4.44 2.16 90.1 0 0 67.2823 123.3800
  Z"
/>
<path fill="#adadad" d="
  M 67.30 0.00
  L 128.00 0.00
  L 128.00 6.57
  Q 125.26 5.61 122.67 6.07
  Q 122.45 6.11 122.53 5.89
  Q 122.60 5.71 122.47 5.54
  L 123.58 4.89
  A 1.20 1.20 0.0 0 0 123.25 2.69
  L 122.21 2.44
  Q 121.37 2.24 121.85 2.95
  Q 122.79 4.35 121.35 5.49
  Q 121.34 5.12 121.68 4.78
  A 1.64 1.39 -19.4 0 0 122.09 4.08
  Q 122.18 3.77 122.00 3.49
  Q 121.60 2.86 121.32 3.55
  L 120.12 6.42
  Q 119.88 6.64 120.09 6.90
  Q 118.24 8.51 116.37 9.61
  Q 116.24 9.69 116.08 9.67
  Q 115.73 9.61 116.02 9.41
  Q 116.96 8.74 118.02 8.11
  C 119.88 6.99 119.94 6.05 120.95 4.41
  Q 121.29 3.84 120.89 3.32
  Q 119.68 1.71 117.93 1.53
  Q 112.91 1.02 105.98 1.55
  Q 84.67 1.05 71.50 1.13
  Q 70.85 1.13 70.27 2.03
  L 67.30 0.00
  Z"
/>
<path fill="#dadadb" d="
  M 60.05 0.52
  L 57.39 3.27
  Q 53.68 2.79 49.94 1.91
  Q 47.84 1.42 46.02 1.41
  Q 44.03 1.40 42.04 1.44
  L 60.05 0.52
  Z"
/>
<path fill="#ffffff" d="
  M 42.04 1.44
  Q 44.03 1.40 46.02 1.41
  Q 47.84 1.42 49.94 1.91
  Q 53.68 2.79 57.39 3.27
  L 57.24 11.20
  Q 57.23 11.68 56.74 11.74
  Q 54.08 12.03 54.46 14.94
  Q 54.16 15.06 54.02 15.24
  Q 50.30 15.33 46.68 15.41
  Q 45.42 15.43 43.89 15.88
  Q 42.57 16.26 41.05 16.17
  Q 34.89 15.78 29.39 15.35
  Q 27.55 15.21 25.54 14.59
  C 23.03 13.83 18.57 13.71 16.42 15.45
  Q 14.89 16.68 14.65 18.87
  Q 14.44 20.73 14.07 22.53
  Q 13.70 24.30 14.25 25.97
  Q 14.58 26.99 14.81 28.04
  Q 15.03 29.06 15.27 30.15
  C 16.04 33.65 15.62 38.03 15.60 41.64
  Q 15.59 43.19 14.89 44.60
  Q 14.64 45.10 14.65 45.64
  L 14.68 49.88
  Q 14.68 50.31 14.46 50.68
  Q 13.91 51.61 14.55 53.89
  Q 11.33 54.80 11.38 56.76
  Q 11.40 57.24 10.92 57.24
  L 3.94 57.33
  Q 3.84 52.69 3.75 48.00
  Q 3.62 41.05 3.02 34.13
  Q 2.46 27.67 2.43 23.34
  Q 2.39 17.94 2.40 12.53
  L 0.84 2.01
  A 0.94 0.94 0.0 0 1 1.64 0.94
  C 6.19 0.31 10.30 1.44 14.76 1.47
  Q 28.41 1.57 42.04 1.44
  Z"
/>
<path fill="#dadadb" d="
  M 105.98 1.55
  Q 91.88 2.60 72.75 3.13
  Q 71.40 3.17 71.19 4.45
  L 70.27 2.03
  Q 70.85 1.13 71.50 1.13
  Q 84.67 1.05 105.98 1.55
  Z"
/>
<path fill="#ffffff" d="
  M 120.09 6.90
  L 118.11 9.42
  Q 115.81 9.98 114.39 11.39
  Q 111.21 14.53 109.10 16.31
  Q 108.72 16.64 108.21 16.63
  L 78.17 16.31
  L 74.99 15.69
  Q 74.46 15.59 74.30 15.07
  L 73.48 12.44
  Q 73.30 11.85 72.68 11.87
  L 71.99 11.89
  Q 71.29 11.91 71.28 11.22
  L 71.19 4.45
  Q 71.40 3.17 72.75 3.13
  Q 91.88 2.60 105.98 1.55
  Q 112.91 1.02 117.93 1.53
  Q 119.68 1.71 120.89 3.32
  Q 121.29 3.84 120.95 4.41
  C 119.94 6.05 119.88 6.99 118.02 8.11
  Q 116.96 8.74 116.02 9.41
  Q 115.73 9.61 116.08 9.67
  Q 116.24 9.69 116.37 9.61
  Q 118.24 8.51 120.09 6.90
  Z"
/>
<path fill="#cccdcd" d="
  M 122.47 5.54
  Q 121.67 6.07 121.56 6.89
  Q 121.50 7.39 121.23 7.81
  Q 119.99 9.74 118.20 11.23
  Q 114.19 14.56 110.66 18.41
  Q 110.04 19.08 108.97 18.83
  Q 105.78 16.67 102.74 19.08
  L 84.73 18.87
  L 81.75 17.69
  Q 90.66 17.88 99.50 17.90
  C 102.58 17.91 105.56 16.82 108.50 17.80
  Q 109.15 18.02 109.65 17.55
  L 118.11 9.42
  L 120.09 6.90
  Q 119.88 6.64 120.12 6.42
  Q 121.09 6.60 121.35 5.49
  Q 122.79 4.35 121.85 2.95
  Q 121.37 2.24 122.21 2.44
  L 123.25 2.69
  A 1.20 1.20 0.0 0 1 123.58 4.89
  L 122.47 5.54
  Z"
/>
<path fill="#dadadb" d="
  M 121.35 5.49
  Q 121.09 6.60 120.12 6.42
  L 121.32 3.55
  Q 121.60 2.86 122.00 3.49
  Q 122.18 3.77 122.09 4.08
  A 1.64 1.39 -19.4 0 1 121.68 4.78
  Q 121.34 5.12 121.35 5.49
  Z"
/>
<ellipse fill="#cccdcd" cx="0.00" cy="0.00" transform="translate(63.42,8.71) rotate(90.2)" rx="4.22" ry="2.67"/>
<path fill="#b8b9b9" d="
  M 122.47 5.54
  Q 122.60 5.71 122.53 5.89
  Q 122.45 6.11 122.67 6.07
  Q 125.26 5.61 128.00 6.57
  Q 128.00 6.79 128.00 7.01
  Q 121.61 7.17 118.27 13.52
  Q 117.95 14.13 116.89 14.54
  A 2.10 2.06 -78.6 0 0 116.14 15.05
  L 110.58 20.92
  L 108.97 18.83
  Q 110.04 19.08 110.66 18.41
  Q 114.19 14.56 118.20 11.23
  Q 119.99 9.74 121.23 7.81
  Q 121.50 7.39 121.56 6.89
  Q 121.67 6.07 122.47 5.54
  Z"
/>
<path fill="#adadad" d="
  M 128.00 7.01
  L 128.00 58.86
  L 127.48 57.98
  L 126.32 19.45
  L 126.34 11.14
  L 125.73 9.72
  Q 125.64 8.94 125.24 8.68
  Q 124.86 8.44 124.46 8.65
  Q 121.45 10.16 120.07 12.61
  Q 118.43 15.51 115.50 17.65
  Q 114.33 18.50 113.55 19.83
  Q 112.81 21.09 112.10 22.37
  L 110.58 20.92
  L 116.14 15.05
  A 2.10 2.06 -78.6 0 1 116.89 14.54
  Q 117.95 14.13 118.27 13.52
  Q 121.61 7.17 128.00 7.01
  Z
  M 127.5600 50.1700
  A 4.70 0.20 90.0 0 0 127.7600 45.4700
  A 4.70 0.20 90.0 0 0 127.5600 40.7700
  A 4.70 0.20 90.0 0 0 127.3600 45.4700
  A 4.70 0.20 90.0 0 0 127.5600 50.1700
  Z"
/>
<path fill="#9c9c9e" d="
  M 125.73 9.72
  C 123.63 9.11 121.76 11.41 121.08 12.99
  C 120.24 14.99 118.61 16.51 116.94 17.83
  Q 115.72 18.79 114.76 20.55
  Q 113.92 22.09 113.00 23.50
  Q 112.15 22.68 112.10 22.37
  Q 112.81 21.09 113.55 19.83
  Q 114.33 18.50 115.50 17.65
  Q 118.43 15.51 120.07 12.61
  Q 121.45 10.16 124.46 8.65
  Q 124.86 8.44 125.24 8.68
  Q 125.64 8.94 125.73 9.72
  Z"
/>
<path fill="#dadadb" d="
  M 118.11 9.42
  L 109.65 17.55
  Q 109.15 18.02 108.50 17.80
  C 105.56 16.82 102.58 17.91 99.50 17.90
  Q 90.66 17.88 81.75 17.69
  Q 79.96 17.49 78.17 16.31
  L 108.21 16.63
  Q 108.72 16.64 109.10 16.31
  Q 111.21 14.53 114.39 11.39
  Q 115.81 9.98 118.11 9.42
  Z"
/>
<path fill="#8c8d8f" d="
  M 125.73 9.72
  L 126.34 11.14
  Q 124.09 10.60 123.07 12.64
  Q 120.86 17.07 118.56 18.68
  C 116.79 19.91 115.51 22.43 116.22 24.49
  Q 116.85 26.31 116.87 28.25
  Q 116.97 39.71 116.93 51.21
  Q 116.93 51.70 116.55 52.01
  Q 116.19 52.32 116.00 52.75
  L 114.64 52.16
  L 114.51 28.77
  A 0.81 0.76 32.0 0 0 114.41 28.39
  Q 114.00 27.61 113.30 27.97
  Q 114.03 25.07 113.00 23.50
  Q 113.92 22.09 114.76 20.55
  Q 115.72 18.79 116.94 17.83
  C 118.61 16.51 120.24 14.99 121.08 12.99
  C 121.76 11.41 123.63 9.11 125.73 9.72
  Z"
/>
<path fill="#797979" d="
  M 126.34 11.14
  L 126.32 19.45
  Q 125.64 22.01 125.43 24.63
  C 125.30 26.24 124.55 27.37 124.59 28.96
  Q 124.59 29.17 124.44 29.29
  Q 124.24 29.46 124.25 29.72
  L 124.39 50.80
  Q 124.39 51.07 124.64 51.18
  Q 124.77 51.24 124.84 51.38
  Q 124.92 51.53 124.81 51.66
  Q 124.73 51.77 124.54 51.74
  Q 124.37 51.70 124.37 51.88
  L 124.30 54.93
  L 117.31 54.96
  Q 116.83 54.96 116.66 54.51
  L 116.00 52.75
  Q 116.19 52.32 116.55 52.01
  Q 116.93 51.70 116.93 51.21
  Q 116.97 39.71 116.87 28.25
  Q 116.85 26.31 116.22 24.49
  C 115.51 22.43 116.79 19.91 118.56 18.68
  Q 120.86 17.07 123.07 12.64
  Q 124.09 10.60 126.34 11.14
  Z"
/>
<path fill="#dadadb" d="
  M 2.40 12.53
  Q 2.39 17.94 2.43 23.34
  Q 2.46 27.67 3.02 34.13
  Q 3.62 41.05 3.75 48.00
  Q 3.84 52.69 3.94 57.33
  L 1.77 58.54
  Q 1.11 57.87 1.12 56.50
  Q 1.16 40.98 1.79 30.25
  Q 1.80 30.06 1.95 29.86
  Q 2.16 29.57 2.16 29.22
  L 2.40 12.53
  Z"
/>
<path fill="#dadadb" d="
  M 54.02 15.24
  L 47.25 17.62
  Q 45.06 17.81 43.34 19.08
  Q 42.95 19.37 42.47 19.37
  L 39.03 19.37
  Q 38.48 19.37 38.18 18.92
  Q 37.40 17.74 36.26 17.65
  Q 30.74 17.25 24.84 16.78
  Q 21.97 15.91 20.09 17.58
  Q 18.27 19.20 16.47 21.35
  Q 13.75 24.59 16.35 27.72
  Q 18.13 29.86 20.28 31.85
  A 1.26 1.26 0.0 0 1 20.35 33.62
  Q 19.51 34.55 20.28 35.57
  C 21.11 36.67 21.24 37.57 20.50 38.82
  Q 16.56 45.39 14.55 53.89
  Q 13.91 51.61 14.46 50.68
  Q 14.68 50.31 14.68 49.88
  L 14.65 45.64
  Q 14.64 45.10 14.89 44.60
  Q 15.59 43.19 15.60 41.64
  C 15.62 38.03 16.04 33.65 15.27 30.15
  Q 15.03 29.06 14.81 28.04
  Q 14.58 26.99 14.25 25.97
  Q 13.70 24.30 14.07 22.53
  Q 14.44 20.73 14.65 18.87
  Q 14.89 16.68 16.42 15.45
  C 18.57 13.71 23.03 13.83 25.54 14.59
  Q 27.55 15.21 29.39 15.35
  Q 34.89 15.78 41.05 16.17
  Q 42.57 16.26 43.89 15.88
  Q 45.42 15.43 46.68 15.41
  Q 50.30 15.33 54.02 15.24
  Z"
/>
<path fill="#6a6b6d" d="
  M 54.46 14.94
  L 54.49 15.37
  Q 54.53 15.89 55.05 15.81
  Q 65.91 14.14 76.22 17.84
  Q 76.21 19.23 77.82 19.07
  Q 78.55 19.00 78.47 19.72
  Q 78.41 20.26 78.96 20.30
  Q 79.60 20.35 79.77 20.98
  Q 79.85 21.30 80.09 21.54
  Q 80.44 21.88 80.92 21.93
  Q 82.70 22.13 82.71 23.82
  A 1.09 1.07 26.8 0 0 82.93 24.47
  C 83.93 25.75 85.26 26.33 86.10 27.72
  Q 86.93 29.10 87.86 30.48
  Q 88.52 31.45 88.76 32.56
  Q 89.02 33.80 89.71 34.82
  Q 90.66 36.22 91.04 37.81
  Q 92.97 45.86 92.66 54.08
  Q 92.60 55.55 92.25 56.86
  Q 91.88 58.25 91.62 59.84
  Q 91.28 61.91 90.48 63.53
  Q 88.59 67.39 86.60 72.11
  Q 86.51 72.30 86.38 72.48
  L 82.61 77.48
  Q 84.99 69.57 78.84 64.10
  Q 81.57 61.45 81.76 59.50
  Q 81.96 57.49 82.52 55.60
  Q 83.15 53.46 83.15 51.77
  Q 83.12 47.42 83.03 43.58
  C 83.00 42.43 82.43 41.52 82.35 40.43
  Q 82.27 39.26 81.77 38.28
  Q 80.87 36.52 80.27 34.61
  Q 79.81 33.15 78.79 32.07
  Q 77.36 30.57 76.61 28.78
  Q 76.18 27.77 75.32 27.01
  Q 74.19 26.02 73.51 24.82
  Q 73.26 24.38 72.82 24.14
  Q 71.40 23.35 70.48 22.35
  C 69.79 21.59 68.93 21.39 67.98 21.15
  Q 67.51 21.03 67.14 20.71
  Q 66.13 19.82 64.82 19.38
  Q 60.21 17.82 55.73 16.82
  Q 54.24 16.49 52.70 16.69
  Q 51.10 16.90 49.70 17.46
  Q 47.17 18.48 44.78 19.53
  L 43.95 19.20
  L 47.25 17.62
  L 54.02 15.24
  Q 54.16 15.06 54.46 14.94
  Z"
/>
<path fill="#cccdcd" d="
  M 47.25 17.62
  L 43.95 19.20
  L 37.05 22.49
  A 2.64 2.63 -41.8 0 1 34.51 22.35
  L 33.20 21.53
  Q 32.65 21.18 32.10 21.53
  L 31.09 22.18
  A 0.74 0.73 -38.3 0 1 30.18 22.08
  L 24.84 16.78
  Q 30.74 17.25 36.26 17.65
  Q 37.40 17.74 38.18 18.92
  Q 38.48 19.37 39.03 19.37
  L 42.47 19.37
  Q 42.95 19.37 43.34 19.08
  Q 45.06 17.81 47.25 17.62
  Z"
/>
<path fill="#8c8d8f" d="
  M 78.84 64.10
  L 75.13 60.00
  Q 76.46 58.92 76.58 57.20
  A 2.08 2.03 -27.3 0 1 76.89 56.27
  Q 77.84 54.80 77.17 53.04
  Q 76.90 52.32 77.65 52.17
  Q 77.81 52.13 77.90 51.99
  Q 78.11 51.63 78.12 51.20
  Q 78.33 46.27 77.38 41.25
  Q 76.83 38.33 75.11 35.19
  Q 73.13 31.59 71.19 29.55
  Q 70.29 28.60 69.40 27.45
  Q 69.13 27.12 68.75 26.92
  Q 67.17 26.12 65.98 24.77
  Q 64.15 22.67 59.63 21.65
  Q 49.74 19.41 42.44 21.54
  Q 43.24 20.36 44.78 19.53
  Q 47.17 18.48 49.70 17.46
  Q 51.10 16.90 52.70 16.69
  Q 54.24 16.49 55.73 16.82
  Q 60.21 17.82 64.82 19.38
  Q 66.13 19.82 67.14 20.71
  Q 67.51 21.03 67.98 21.15
  C 68.93 21.39 69.79 21.59 70.48 22.35
  Q 71.40 23.35 72.82 24.14
  Q 73.26 24.38 73.51 24.82
  Q 74.19 26.02 75.32 27.01
  Q 76.18 27.77 76.61 28.78
  Q 77.36 30.57 78.79 32.07
  Q 79.81 33.15 80.27 34.61
  Q 80.87 36.52 81.77 38.28
  Q 82.27 39.26 82.35 40.43
  C 82.43 41.52 83.00 42.43 83.03 43.58
  Q 83.12 47.42 83.15 51.77
  Q 83.15 53.46 82.52 55.60
  Q 81.96 57.49 81.76 59.50
  Q 81.57 61.45 78.84 64.10
  Z"
/>
<path fill="#4a4b4d" d="
  M 76.22 17.84
  L 85.20 22.23
  Q 86.35 24.08 88.06 25.01
  Q 88.52 25.26 88.75 25.74
  Q 89.68 27.74 91.32 29.50
  Q 91.66 29.87 91.68 30.37
  Q 91.70 30.82 91.98 31.17
  C 93.25 32.80 93.09 34.31 93.90 36.10
  Q 94.40 37.19 94.34 38.34
  Q 94.32 38.79 94.74 39.04
  A 0.71 0.68 10.8 0 1 95.06 39.49
  Q 97.27 49.35 95.99 59.23
  A 1.35 1.32 -18.5 0 1 95.58 60.03
  Q 94.54 61.01 94.60 62.54
  Q 94.62 63.07 94.47 63.58
  L 93.52 66.83
  Q 93.38 67.31 93.08 67.72
  Q 92.54 68.45 92.61 69.37
  A 0.63 0.62 78.2 0 1 92.20 70.00
  Q 91.20 70.34 90.87 71.35
  Q 90.59 72.20 90.08 72.97
  Q 87.32 77.20 83.37 81.39
  Q 82.53 82.29 81.49 82.76
  Q 80.33 83.29 79.37 84.34
  Q 78.56 85.24 77.51 85.98
  Q 76.56 86.64 75.60 87.03
  Q 73.33 87.95 71.08 89.33
  Q 70.78 89.51 70.59 89.80
  L 69.78 90.98
  Q 69.58 91.27 69.23 91.33
  L 66.30 91.76
  Q 66.22 91.77 66.16 91.83
  L 65.75 92.24
  Q 65.54 92.45 65.25 92.51
  Q 55.67 94.66 46.15 92.87
  Q 43.88 92.44 39.50 90.84
  Q 36.26 89.65 32.88 88.70
  Q 23.02 80.35 19.89 68.10
  Q 21.45 71.63 23.17 74.97
  Q 23.64 75.88 24.54 76.19
  Q 25.03 76.37 25.41 76.74
  Q 27.22 78.52 29.04 80.44
  Q 30.25 81.72 31.86 82.67
  Q 33.42 83.59 34.95 84.52
  Q 39.72 87.41 45.60 88.61
  Q 49.31 89.37 54.13 89.61
  C 56.72 89.74 58.80 89.03 61.27 88.83
  Q 61.75 88.79 62.08 88.43
  Q 62.24 88.24 62.50 88.21
  Q 63.98 88.03 65.43 87.72
  Q 66.88 87.40 68.13 86.77
  Q 69.63 86.02 71.22 85.50
  Q 72.54 85.08 73.63 84.18
  Q 74.93 83.11 76.24 82.22
  Q 77.16 81.60 78.38 81.67
  Q 78.91 81.70 79.32 81.35
  Q 80.07 80.69 80.26 79.38
  L 82.61 77.48
  L 86.38 72.48
  Q 86.51 72.30 86.60 72.11
  Q 88.59 67.39 90.48 63.53
  Q 91.28 61.91 91.62 59.84
  Q 91.88 58.25 92.25 56.86
  Q 92.60 55.55 92.66 54.08
  Q 92.97 45.86 91.04 37.81
  Q 90.66 36.22 89.71 34.82
  Q 89.02 33.80 88.76 32.56
  Q 88.52 31.45 87.86 30.48
  Q 86.93 29.10 86.10 27.72
  C 85.26 26.33 83.93 25.75 82.93 24.47
  A 1.09 1.07 26.8 0 1 82.71 23.82
  Q 82.70 22.13 80.92 21.93
  Q 80.44 21.88 80.09 21.54
  Q 79.85 21.30 79.77 20.98
  Q 79.60 20.35 78.96 20.30
  Q 78.41 20.26 78.47 19.72
  Q 78.55 19.00 77.82 19.07
  Q 76.21 19.23 76.22 17.84
  Z"
/>
<path fill="#b8b9b9" d="
  M 84.73 18.87
  L 102.74 19.08
  L 98.41 23.28
  Q 97.89 23.79 97.44 23.21
  Q 97.15 22.83 96.75 22.58
  Q 96.25 22.26 95.72 22.52
  L 93.82 23.49
  Q 93.37 23.72 92.92 23.47
  L 84.73 18.87
  Z"
/>
<path fill="#8c8d8f" d="
  M 126.32 19.45
  L 127.48 57.98
  Q 126.34 55.98 124.30 54.93
  L 124.37 51.88
  Q 124.37 51.70 124.54 51.74
  Q 124.73 51.77 124.81 51.66
  Q 124.92 51.53 124.84 51.38
  Q 124.77 51.24 124.64 51.18
  Q 124.39 51.07 124.39 50.80
  L 124.25 29.72
  Q 124.24 29.46 124.44 29.29
  Q 124.59 29.17 124.59 28.96
  C 124.55 27.37 125.30 26.24 125.43 24.63
  Q 125.64 22.01 126.32 19.45
  Z"
/>
<path fill="#9c9c9e" d="
  M 75.13 60.00
  L 70.51 55.00
  Q 72.25 48.54 71.36 42.75
  Q 71.26 42.11 70.64 41.77
  Q 70.28 41.56 70.35 41.15
  Q 70.51 40.22 69.96 39.43
  Q 69.67 39.01 69.62 38.49
  Q 69.31 35.12 66.53 33.52
  Q 66.11 33.28 65.93 32.83
  Q 64.73 29.87 61.90 28.77
  Q 61.48 28.61 61.28 28.20
  Q 61.12 27.85 60.85 27.57
  Q 60.52 27.24 60.07 27.14
  Q 58.73 26.87 57.51 26.12
  Q 56.83 25.70 56.07 25.46
  Q 53.98 24.80 52.02 24.63
  Q 51.53 24.58 51.09 24.34
  Q 49.99 23.74 49.03 24.49
  Q 48.69 24.75 48.28 24.62
  Q 47.01 24.23 45.84 24.72
  Q 44.92 25.11 43.93 25.13
  Q 42.04 25.19 40.25 25.40
  Q 39.76 25.46 39.41 25.80
  Q 36.14 28.88 32.83 31.94
  Q 29.03 35.45 27.77 41.21
  Q 26.95 44.97 27.15 49.38
  Q 27.18 49.93 27.42 50.43
  Q 27.78 51.17 27.68 52.03
  Q 27.62 52.53 27.92 52.93
  Q 28.70 53.95 28.89 55.19
  Q 28.97 55.74 29.43 56.04
  Q 30.18 56.54 30.24 57.51
  Q 30.29 58.24 30.75 58.79
  Q 31.25 59.38 31.34 60.19
  Q 31.41 60.75 31.94 60.95
  Q 32.94 61.34 33.39 62.26
  Q 35.20 65.99 39.35 67.64
  Q 42.65 68.94 46.11 69.51
  Q 46.54 69.58 46.96 69.78
  Q 47.41 70.00 47.82 69.72
  Q 48.23 69.45 48.71 69.55
  Q 52.14 70.30 54.62 68.93
  L 59.64 72.62
  Q 58.73 73.69 56.43 73.41
  Q 56.12 73.37 55.85 73.53
  Q 55.71 73.61 55.62 73.74
  Q 55.30 74.24 54.72 74.15
  Q 52.90 73.89 51.10 74.34
  Q 49.50 74.74 47.90 74.43
  Q 45.51 73.96 43.01 73.34
  Q 42.73 73.28 42.56 73.04
  Q 42.29 72.68 41.86 72.56
  Q 38.56 71.65 35.26 69.55
  Q 35.18 69.49 35.18 69.39
  Q 35.17 69.26 35.10 69.15
  Q 35.00 69.00 34.84 68.92
  Q 32.89 67.94 31.14 65.85
  Q 22.94 56.11 24.62 43.65
  Q 24.75 42.62 25.24 41.94
  Q 25.70 41.29 25.73 40.47
  Q 25.77 39.05 26.23 37.72
  Q 28.04 32.46 32.03 28.53
  Q 32.73 27.84 33.01 27.10
  Q 33.27 26.39 33.56 25.42
  L 42.44 21.54
  Q 49.74 19.41 59.63 21.65
  Q 64.15 22.67 65.98 24.77
  Q 67.17 26.12 68.75 26.92
  Q 69.13 27.12 69.40 27.45
  Q 70.29 28.60 71.19 29.55
  Q 73.13 31.59 75.11 35.19
  Q 76.83 38.33 77.38 41.25
  Q 78.33 46.27 78.12 51.20
  Q 78.11 51.63 77.90 51.99
  Q 77.81 52.13 77.65 52.17
  Q 76.90 52.32 77.17 53.04
  Q 77.84 54.80 76.89 56.27
  A 2.08 2.03 -27.3 0 0 76.58 57.20
  Q 76.46 58.92 75.13 60.00
  Z"
/>
<path fill="#212121" d="
  M 85.20 22.23
  C 87.59 23.69 93.80 28.00 94.99 31.47
  Q 96.14 34.80 97.90 37.87
  Q 98.09 38.21 98.10 38.60
  Q 98.15 41.24 98.69 44.28
  Q 99.13 46.76 99.15 49.11
  Q 99.18 54.65 98.74 59.50
  Q 98.68 60.12 98.30 60.63
  A 0.98 0.97 57.1 0 0 98.13 61.43
  Q 98.34 62.39 97.70 63.10
  Q 97.33 63.51 97.23 64.04
  Q 97.01 65.20 96.34 66.11
  Q 96.07 66.47 96.04 66.93
  Q 95.78 70.64 93.79 72.85
  Q 93.43 73.25 93.31 73.77
  Q 92.99 75.21 91.86 76.72
  Q 85.21 85.62 80.52 88.85
  Q 80.05 89.18 80.62 89.21
  Q 80.89 89.23 81.11 89.07
  Q 82.71 87.94 84.49 86.84
  Q 84.63 86.76 84.78 86.82
  Q 85.06 86.93 84.76 87.00
  Q 84.08 87.16 83.94 87.82
  Q 83.90 88.04 83.69 88.14
  Q 83.27 88.33 82.84 88.34
  A 0.80 0.80 0.0 0 0 82.20 88.66
  Q 81.61 89.44 80.68 89.41
  A 0.58 0.57 4.5 0 0 80.10 89.90
  Q 79.99 90.73 79.18 90.63
  Q 78.70 90.57 78.31 90.86
  Q 77.08 91.80 75.78 92.73
  Q 74.48 93.68 72.95 94.06
  Q 71.41 94.45 70.19 95.25
  Q 69.04 96.00 67.55 96.31
  Q 57.23 98.45 50.01 97.37
  Q 40.59 95.97 32.88 88.70
  Q 36.26 89.65 39.50 90.84
  Q 43.88 92.44 46.15 92.87
  Q 55.67 94.66 65.25 92.51
  Q 65.54 92.45 65.75 92.24
  L 66.16 91.83
  Q 66.22 91.77 66.30 91.76
  L 69.23 91.33
  Q 69.58 91.27 69.78 90.98
  L 70.59 89.80
  Q 70.78 89.51 71.08 89.33
  Q 73.33 87.95 75.60 87.03
  Q 76.56 86.64 77.51 85.98
  Q 78.56 85.24 79.37 84.34
  Q 80.33 83.29 81.49 82.76
  Q 82.53 82.29 83.37 81.39
  Q 87.32 77.20 90.08 72.97
  Q 90.59 72.20 90.87 71.35
  Q 91.20 70.34 92.20 70.00
  A 0.63 0.62 78.2 0 0 92.61 69.37
  Q 92.54 68.45 93.08 67.72
  Q 93.38 67.31 93.52 66.83
  L 94.47 63.58
  Q 94.62 63.07 94.60 62.54
  Q 94.54 61.01 95.58 60.03
  A 1.35 1.32 -18.5 0 0 95.99 59.23
  Q 97.27 49.35 95.06 39.49
  A 0.71 0.68 10.8 0 0 94.74 39.04
  Q 94.32 38.79 94.34 38.34
  Q 94.40 37.19 93.90 36.10
  C 93.09 34.31 93.25 32.80 91.98 31.17
  Q 91.70 30.82 91.68 30.37
  Q 91.66 29.87 91.32 29.50
  Q 89.68 27.74 88.75 25.74
  Q 88.52 25.26 88.06 25.01
  Q 86.35 24.08 85.20 22.23
  Z"
/>
<circle fill="#6a6b6d" cx="26.37" cy="24.99" r="2.34"/>
<ellipse fill="#6a6b6d" cx="0.00" cy="0.00" transform="translate(103.94,25.04) rotate(-27.0)" rx="2.35" ry="2.17"/>
<path fill="#adadad" d="
  M 70.51 55.00
  L 68.03 52.57
  C 68.88 49.27 68.61 46.26 68.37 42.95
  Q 68.26 41.36 67.72 39.98
  Q 67.13 38.48 66.54 36.93
  Q 66.35 36.41 65.93 36.04
  C 64.50 34.79 64.11 33.10 62.75 31.86
  Q 61.89 31.06 61.28 30.11
  Q 60.99 29.65 60.45 29.56
  Q 59.58 29.42 59.16 28.73
  Q 58.92 28.35 58.47 28.32
  Q 57.80 28.29 57.45 27.69
  Q 57.19 27.26 56.69 27.35
  Q 55.16 27.63 53.95 26.69
  Q 53.54 26.37 53.03 26.37
  L 46.27 26.37
  Q 45.78 26.37 45.34 26.59
  Q 44.36 27.06 43.25 26.88
  Q 42.77 26.81 42.35 27.03
  Q 39.78 28.42 37.17 29.78
  C 36.26 30.25 35.60 30.98 34.86 31.67
  Q 34.51 31.99 34.32 32.42
  Q 33.71 33.78 32.31 34.19
  Q 31.80 34.34 31.65 34.85
  Q 31.22 36.24 30.08 37.31
  Q 29.72 37.65 29.59 38.14
  Q 28.17 43.47 28.36 48.84
  C 28.40 49.88 28.93 50.23 28.90 51.38
  Q 28.88 52.39 29.31 53.68
  Q 30.62 57.59 33.99 61.10
  Q 36.55 63.77 40.03 66.08
  Q 40.47 66.37 41.01 66.38
  C 41.93 66.38 42.29 66.33 43.09 66.88
  Q 44.50 67.85 46.17 67.91
  Q 47.70 67.96 49.31 68.17
  Q 51.53 68.46 53.65 67.69
  L 54.62 68.93
  Q 52.14 70.30 48.71 69.55
  Q 48.23 69.45 47.82 69.72
  Q 47.41 70.00 46.96 69.78
  Q 46.54 69.58 46.11 69.51
  Q 42.65 68.94 39.35 67.64
  Q 35.20 65.99 33.39 62.26
  Q 32.94 61.34 31.94 60.95
  Q 31.41 60.75 31.34 60.19
  Q 31.25 59.38 30.75 58.79
  Q 30.29 58.24 30.24 57.51
  Q 30.18 56.54 29.43 56.04
  Q 28.97 55.74 28.89 55.19
  Q 28.70 53.95 27.92 52.93
  Q 27.62 52.53 27.68 52.03
  Q 27.78 51.17 27.42 50.43
  Q 27.18 49.93 27.15 49.38
  Q 26.95 44.97 27.77 41.21
  Q 29.03 35.45 32.83 31.94
  Q 36.14 28.88 39.41 25.80
  Q 39.76 25.46 40.25 25.40
  Q 42.04 25.19 43.93 25.13
  Q 44.92 25.11 45.84 24.72
  Q 47.01 24.23 48.28 24.62
  Q 48.69 24.75 49.03 24.49
  Q 49.99 23.74 51.09 24.34
  Q 51.53 24.58 52.02 24.63
  Q 53.98 24.80 56.07 25.46
  Q 56.83 25.70 57.51 26.12
  Q 58.73 26.87 60.07 27.14
  Q 60.52 27.24 60.85 27.57
  Q 61.12 27.85 61.28 28.20
  Q 61.48 28.61 61.90 28.77
  Q 64.73 29.87 65.93 32.83
  Q 66.11 33.28 66.53 33.52
  Q 69.31 35.12 69.62 38.49
  Q 69.67 39.01 69.96 39.43
  Q 70.51 40.22 70.35 41.15
  Q 70.28 41.56 70.64 41.77
  Q 71.26 42.11 71.36 42.75
  Q 72.25 48.54 70.51 55.00
  Z"
/>
<path fill="#8c8d8f" d="
  M 33.56 25.42
  Q 33.27 26.39 33.01 27.10
  Q 32.73 27.84 32.03 28.53
  Q 28.04 32.46 26.23 37.72
  Q 25.77 39.05 25.73 40.47
  Q 25.70 41.29 25.24 41.94
  Q 24.75 42.62 24.62 43.65
  Q 22.94 56.11 31.14 65.85
  Q 32.89 67.94 34.84 68.92
  Q 35.00 69.00 35.10 69.15
  Q 35.17 69.26 35.18 69.39
  Q 35.18 69.49 35.26 69.55
  Q 38.56 71.65 41.86 72.56
  Q 42.29 72.68 42.56 73.04
  Q 42.73 73.28 43.01 73.34
  Q 45.51 73.96 47.90 74.43
  Q 49.50 74.74 51.10 74.34
  Q 52.90 73.89 54.72 74.15
  Q 55.30 74.24 55.62 73.74
  Q 55.71 73.61 55.85 73.53
  Q 56.12 73.37 56.43 73.41
  Q 58.73 73.69 59.64 72.62
  L 64.97 76.55
  L 60.26 77.32
  Q 59.78 77.40 59.40 77.69
  Q 58.69 78.23 57.78 78.37
  Q 52.53 79.22 47.10 78.77
  Q 47.01 78.76 47.01 78.67
  Q 47.01 78.62 46.99 78.57
  Q 46.92 78.42 46.74 78.40
  Q 45.10 78.31 43.50 77.79
  Q 42.44 77.44 41.59 76.76
  Q 40.52 75.90 39.22 75.91
  Q 38.66 75.91 38.30 75.48
  Q 37.85 74.93 37.15 74.74
  Q 36.30 74.52 35.52 73.91
  Q 32.55 71.62 29.77 69.54
  Q 29.37 69.25 29.21 68.78
  Q 29.02 68.26 28.56 67.95
  Q 26.50 66.58 25.79 64.19
  Q 25.66 63.74 25.43 63.33
  Q 22.66 58.25 21.82 53.27
  Q 21.37 50.60 21.72 46.67
  Q 22.00 43.58 22.13 40.44
  Q 25.86 32.02 33.56 25.42
  Z"
/>
<path fill="#b8b9b9" d="
  M 68.03 52.57
  Q 64.83 50.67 61.48 50.74
  Q 62.59 46.05 61.82 41.10
  Q 61.52 39.11 60.40 37.73
  Q 59.21 36.26 57.97 34.71
  Q 56.68 33.12 54.74 32.04
  Q 52.75 30.94 50.91 30.38
  Q 47.89 29.46 44.35 30.28
  Q 43.82 30.41 43.28 30.32
  Q 42.35 30.18 41.81 30.87
  A 0.78 0.77 -65.4 0 1 41.07 31.15
  Q 40.47 31.03 40.13 31.54
  Q 39.90 31.89 39.54 32.14
  Q 37.07 33.86 34.87 36.71
  Q 30.97 41.79 32.18 47.66
  Q 32.44 48.94 32.83 50.25
  Q 33.18 51.45 33.92 52.61
  Q 34.80 53.98 35.35 55.53
  Q 35.52 56.00 35.93 56.28
  Q 37.61 57.40 39.10 58.77
  Q 39.87 59.48 40.75 59.78
  Q 41.55 60.05 42.34 60.40
  Q 43.44 60.88 44.84 60.90
  Q 48.13 60.94 51.56 60.54
  Q 51.27 64.34 53.65 67.69
  Q 51.53 68.46 49.31 68.17
  Q 47.70 67.96 46.17 67.91
  Q 44.50 67.85 43.09 66.88
  C 42.29 66.33 41.93 66.38 41.01 66.38
  Q 40.47 66.37 40.03 66.08
  Q 36.55 63.77 33.99 61.10
  Q 30.62 57.59 29.31 53.68
  Q 28.88 52.39 28.90 51.38
  C 28.93 50.23 28.40 49.88 28.36 48.84
  Q 28.17 43.47 29.59 38.14
  Q 29.72 37.65 30.08 37.31
  Q 31.22 36.24 31.65 34.85
  Q 31.80 34.34 32.31 34.19
  Q 33.71 33.78 34.32 32.42
  Q 34.51 31.99 34.86 31.67
  C 35.60 30.98 36.26 30.25 37.17 29.78
  Q 39.78 28.42 42.35 27.03
  Q 42.77 26.81 43.25 26.88
  Q 44.36 27.06 45.34 26.59
  Q 45.78 26.37 46.27 26.37
  L 53.03 26.37
  Q 53.54 26.37 53.95 26.69
  Q 55.16 27.63 56.69 27.35
  Q 57.19 27.26 57.45 27.69
  Q 57.80 28.29 58.47 28.32
  Q 58.92 28.35 59.16 28.73
  Q 59.58 29.42 60.45 29.56
  Q 60.99 29.65 61.28 30.11
  Q 61.89 31.06 62.75 31.86
  C 64.11 33.10 64.50 34.79 65.93 36.04
  Q 66.35 36.41 66.54 36.93
  Q 67.13 38.48 67.72 39.98
  Q 68.26 41.36 68.37 42.95
  C 68.61 46.26 68.88 49.27 68.03 52.57
  Z"
/>
<path fill="#9c9c9e" d="
  M 113.30 27.97
  Q 114.00 27.61 114.41 28.39
  A 0.81 0.76 32.0 0 1 114.51 28.77
  L 114.64 52.16
  Q 113.10 52.40 112.85 49.26
  Q 112.98 49.31 113.09 49.17
  Q 113.13 49.13 113.13 49.07
  Q 113.13 39.50 113.12 30.20
  Q 113.12 29.85 112.96 29.55
  Q 112.77 29.22 112.56 28.95
  L 113.30 27.97
  Z"
/>
<path fill="#adadad" d="
  M 112.56 28.95
  Q 112.77 29.22 112.96 29.55
  Q 113.12 29.85 113.12 30.20
  Q 113.13 39.50 113.13 49.07
  Q 113.13 49.13 113.09 49.17
  Q 112.98 49.31 112.85 49.26
  L 109.80 42.26
  Q 111.13 42.40 111.13 41.25
  Q 111.12 36.67 111.12 32.09
  Q 111.12 31.69 110.96 31.46
  Q 110.69 31.07 110.29 31.19
  L 112.56 28.95
  Z"
/>
<path fill="#cccdcd" d="
  M 61.48 50.74
  L 57.25 51.80
  Q 57.35 49.43 58.22 47.23
  Q 58.30 47.00 58.45 46.82
  Q 58.82 46.38 58.40 45.96
  Q 57.92 45.49 58.43 45.06
  Q 59.05 44.53 58.48 43.95
  Q 58.10 43.56 58.12 43.01
  Q 58.20 39.52 56.51 38.01
  Q 55.06 36.73 53.37 35.20
  Q 51.77 33.76 49.49 33.20
  Q 44.47 31.97 40.21 34.44
  Q 36.55 36.56 35.08 41.23
  Q 32.52 49.40 39.83 55.37
  Q 40.30 55.77 40.91 55.90
  Q 41.50 56.04 41.96 56.46
  A 1.98 1.97 -15.5 0 0 42.80 56.93
  Q 47.77 58.21 52.84 56.06
  Q 51.66 58.47 51.56 60.54
  Q 48.13 60.94 44.84 60.90
  Q 43.44 60.88 42.34 60.40
  Q 41.55 60.05 40.75 59.78
  Q 39.87 59.48 39.10 58.77
  Q 37.61 57.40 35.93 56.28
  Q 35.52 56.00 35.35 55.53
  Q 34.80 53.98 33.92 52.61
  Q 33.18 51.45 32.83 50.25
  Q 32.44 48.94 32.18 47.66
  Q 30.97 41.79 34.87 36.71
  Q 37.07 33.86 39.54 32.14
  Q 39.90 31.89 40.13 31.54
  Q 40.47 31.03 41.07 31.15
  A 0.78 0.77 -65.4 0 0 41.81 30.87
  Q 42.35 30.18 43.28 30.32
  Q 43.82 30.41 44.35 30.28
  Q 47.89 29.46 50.91 30.38
  Q 52.75 30.94 54.74 32.04
  Q 56.68 33.12 57.97 34.71
  Q 59.21 36.26 60.40 37.73
  Q 61.52 39.11 61.82 41.10
  Q 62.59 46.05 61.48 50.74
  Z"
/>
<path fill="#b8b9b9" d="
  M 110.29 31.19
  Q 110.69 31.07 110.96 31.46
  Q 111.12 31.69 111.12 32.09
  Q 111.12 36.67 111.13 41.25
  Q 111.13 42.40 109.80 42.26
  L 109.08 40.57
  Q 109.87 39.60 109.89 37.99
  Q 109.91 35.44 109.65 32.90
  Q 109.56 32.06 109.30 32.22
  Q 109.66 31.65 110.29 31.19
  Z"
/>
<path fill="#cccdcd" d="
  M 109.30 32.22
  Q 109.56 32.06 109.65 32.90
  Q 109.91 35.44 109.89 37.99
  Q 109.87 39.60 109.08 40.57
  Q 108.02 39.61 107.69 38.49
  Q 107.54 37.98 107.82 37.53
  L 108.86 35.86
  A 0.63 0.63 0.0 0 0 108.49 34.91
  Q 108.04 34.79 107.77 34.44
  Q 107.42 33.97 107.85 33.57
  L 109.30 32.22
  Z"
/>
<path fill="#dadadb" d="
  M 57.25 51.80
  Q 54.51 53.50 52.84 56.06
  Q 47.77 58.21 42.80 56.93
  A 1.98 1.97 -15.5 0 1 41.96 56.46
  Q 41.50 56.04 40.91 55.90
  Q 40.30 55.77 39.83 55.37
  Q 32.52 49.40 35.08 41.23
  Q 36.55 36.56 40.21 34.44
  Q 44.47 31.97 49.49 33.20
  Q 51.77 33.76 53.37 35.20
  Q 55.06 36.73 56.51 38.01
  Q 58.20 39.52 58.12 43.01
  Q 58.10 43.56 58.48 43.95
  Q 59.05 44.53 58.43 45.06
  Q 57.92 45.49 58.40 45.96
  Q 58.82 46.38 58.45 46.82
  Q 58.30 47.00 58.22 47.23
  Q 57.35 49.43 57.25 51.80
  Z
  M 52.63 40.25
  L 52.63 39.01
  Q 52.63 38.53 52.26 38.23
  Q 47.34 34.19 42.59 36.35
  Q 35.75 39.48 37.39 47.31
  Q 37.70 48.78 38.68 49.99
  Q 39.45 50.95 40.47 51.44
  C 41.77 52.07 42.82 53.24 44.34 53.28
  C 45.58 53.31 47.07 53.22 48.10 52.45
  Q 48.93 51.83 49.95 51.89
  Q 50.48 51.92 50.80 51.49
  Q 51.94 49.95 52.80 48.44
  Q 52.85 48.34 53.63 47.44
  Q 54.08 46.91 54.08 46.10
  Q 54.06 43.43 53.42 41.00
  Q 53.39 40.88 53.32 40.79
  Q 53.22 40.65 53.03 40.65
  Q 52.63 40.65 52.63 40.25
  Z"
/>
<path fill="#ffffff" d="
  M 53.03 40.65
  Q 53.22 40.65 53.32 40.79
  Q 53.39 40.88 53.42 41.00
  Q 54.06 43.43 54.08 46.10
  Q 54.08 46.91 53.63 47.44
  Q 52.85 48.34 52.80 48.44
  Q 51.94 49.95 50.80 51.49
  Q 50.48 51.92 49.95 51.89
  Q 48.93 51.83 48.10 52.45
  C 47.07 53.22 45.58 53.31 44.34 53.28
  C 42.82 53.24 41.77 52.07 40.47 51.44
  Q 39.45 50.95 38.68 49.99
  Q 37.70 48.78 37.39 47.31
  Q 35.75 39.48 42.59 36.35
  Q 47.34 34.19 52.26 38.23
  Q 52.63 38.53 52.63 39.01
  L 52.63 40.25
  Q 52.63 40.65 53.03 40.65
  Z"
/>
<path fill="#797979" d="
  M 22.13 40.44
  Q 22.00 43.58 21.72 46.67
  Q 21.37 50.60 21.82 53.27
  Q 22.66 58.25 25.43 63.33
  Q 25.66 63.74 25.79 64.19
  Q 26.50 66.58 28.56 67.95
  Q 29.02 68.26 29.21 68.78
  Q 29.37 69.25 29.77 69.54
  Q 32.55 71.62 35.52 73.91
  Q 36.30 74.52 37.15 74.74
  Q 37.85 74.93 38.30 75.48
  Q 38.66 75.91 39.22 75.91
  Q 40.52 75.90 41.59 76.76
  Q 42.44 77.44 43.50 77.79
  Q 45.10 78.31 46.74 78.40
  Q 46.92 78.42 46.99 78.57
  Q 47.01 78.62 47.01 78.67
  Q 47.01 78.76 47.10 78.77
  Q 52.53 79.22 57.78 78.37
  Q 58.69 78.23 59.40 77.69
  Q 59.78 77.40 60.26 77.32
  L 64.97 76.55
  L 67.93 78.29
  Q 66.88 79.39 65.29 79.79
  Q 65.07 79.84 64.94 80.03
  Q 64.89 80.10 64.88 80.17
  Q 64.83 80.65 64.35 80.54
  Q 62.47 80.10 60.99 81.65
  Q 60.60 82.06 60.04 82.11
  Q 57.10 82.37 54.55 82.70
  Q 52.97 82.91 51.59 82.80
  Q 49.99 82.67 48.33 82.50
  C 47.04 82.37 45.89 82.85 44.79 81.86
  Q 44.46 81.56 44.01 81.62
  Q 42.60 81.79 41.74 80.87
  Q 41.45 80.56 41.02 80.59
  Q 40.57 80.63 40.13 80.49
  Q 39.53 80.30 38.98 79.94
  Q 37.77 79.14 36.50 78.55
  Q 35.12 77.92 33.86 76.81
  Q 32.53 75.64 31.10 74.65
  Q 28.07 72.55 26.14 69.08
  Q 25.92 68.70 25.56 68.46
  Q 23.97 67.42 23.58 65.69
  Q 23.47 65.24 23.08 64.99
  A 0.87 0.85 -80.9 0 1 22.69 64.44
  Q 22.32 62.79 21.76 61.14
  Q 21.62 60.74 21.58 60.31
  Q 21.53 59.86 21.13 59.61
  A 1.14 1.14 0.0 0 1 20.61 58.73
  C 20.45 56.34 19.62 54.15 19.57 51.73
  Q 19.53 49.72 19.63 47.67
  L 22.13 40.44
  Z"
/>
<ellipse fill="#9c9c9e" cx="0.00" cy="0.00" transform="translate(127.56,45.47) rotate(90.0)" rx="4.70" ry="0.20"/>
<path fill="#6a6b6d" d="
  M 19.63 47.67
  Q 19.53 49.72 19.57 51.73
  C 19.62 54.15 20.45 56.34 20.61 58.73
  A 1.14 1.14 0.0 0 0 21.13 59.61
  Q 21.53 59.86 21.58 60.31
  Q 21.62 60.74 21.76 61.14
  Q 22.32 62.79 22.69 64.44
  A 0.87 0.85 -80.9 0 0 23.08 64.99
  Q 23.47 65.24 23.58 65.69
  Q 23.97 67.42 25.56 68.46
  Q 25.92 68.70 26.14 69.08
  Q 28.07 72.55 31.10 74.65
  Q 32.53 75.64 33.86 76.81
  Q 35.12 77.92 36.50 78.55
  Q 37.77 79.14 38.98 79.94
  Q 39.53 80.30 40.13 80.49
  Q 40.57 80.63 41.02 80.59
  Q 41.45 80.56 41.74 80.87
  Q 42.60 81.79 44.01 81.62
  Q 44.46 81.56 44.79 81.86
  C 45.89 82.85 47.04 82.37 48.33 82.50
  Q 49.99 82.67 51.59 82.80
  Q 52.97 82.91 54.55 82.70
  Q 57.10 82.37 60.04 82.11
  Q 60.60 82.06 60.99 81.65
  Q 62.47 80.10 64.35 80.54
  Q 64.83 80.65 64.88 80.17
  Q 64.89 80.10 64.94 80.03
  Q 65.07 79.84 65.29 79.79
  Q 66.88 79.39 67.93 78.29
  C 72.49 80.63 76.06 82.89 80.26 79.38
  Q 80.07 80.69 79.32 81.35
  Q 78.91 81.70 78.38 81.67
  Q 77.16 81.60 76.24 82.22
  Q 74.93 83.11 73.63 84.18
  Q 72.54 85.08 71.22 85.50
  Q 69.63 86.02 68.13 86.77
  Q 66.88 87.40 65.43 87.72
  Q 63.98 88.03 62.50 88.21
  Q 62.24 88.24 62.08 88.43
  Q 61.75 88.79 61.27 88.83
  C 58.80 89.03 56.72 89.74 54.13 89.61
  Q 49.31 89.37 45.60 88.61
  Q 39.72 87.41 34.95 84.52
  Q 33.42 83.59 31.86 82.67
  Q 30.25 81.72 29.04 80.44
  Q 27.22 78.52 25.41 76.74
  Q 25.03 76.37 24.54 76.19
  Q 23.64 75.88 23.17 74.97
  Q 21.45 71.63 19.89 68.10
  Q 16.76 57.92 19.63 47.67
  Z"
/>
<path fill="#010101" d="
  M 61.48 50.74
  Q 64.83 50.67 68.03 52.57
  L 70.51 55.00
  L 75.13 60.00
  L 78.84 64.10
  Q 84.99 69.57 82.61 77.48
  L 80.26 79.38
  C 76.06 82.89 72.49 80.63 67.93 78.29
  L 64.97 76.55
  L 59.64 72.62
  L 54.62 68.93
  L 53.65 67.69
  Q 51.27 64.34 51.56 60.54
  Q 51.66 58.47 52.84 56.06
  Q 54.51 53.50 57.25 51.80
  L 61.48 50.74
  Z
  M 58.64 64.31
  A 4.69 4.69 0.0 0 0 63.57 64.46
  A 4.68 4.68 0.0 0 0 65.13 57.83
  A 4.69 4.68 61.5 0 0 59.35 56.11
  A 4.69 4.68 -28.1 0 0 57.28 62.92
  A 4.65 4.62 0.8 0 0 58.64 64.31
  Z"
/>
<path fill="#ffffff" d="
  M 63.57 64.46
  L 58.64 64.31
  A 4.65 4.62 0.8 0 1 57.28 62.92
  A 4.69 4.68 -28.1 0 1 59.35 56.11
  A 4.69 4.68 61.5 0 1 65.13 57.83
  A 4.68 4.68 0.0 0 1 63.57 64.46
  Z"
/>
<path fill="#cccdcd" d="
  M 13.15 64.36
  A 1.04 1.04 0.0 0 1 12.09 65.38
  L 10.58 65.35
  A 3.89 2.81 1.0 0 1 6.74 62.47
  L 6.74 62.23
  A 3.89 2.81 1.0 0 1 10.68 59.49
  L 12.19 59.52
  A 1.04 1.04 0.0 0 1 13.21 60.58
  L 13.15 64.36
  Z"
/>
<ellipse fill="#212121" cx="119.52" cy="62.15" rx="4.02" ry="2.62"/>
<path fill="#9c9c9e" d="
  M 58.64 64.31
  L 63.57 64.46
  A 4.69 4.69 0.0 0 1 58.64 64.31
  Z"
/>
<path fill="#adadad" d="
  M 128.00 65.36
  L 128.00 128.00
  L 69.77 128.00
  Q 71.86 126.48 72.81 126.32
  Q 95.54 125.09 118.24 125.99
  Q 121.50 126.12 125.65 126.62
  A 1.24 1.24 0.0 0 0 127.03 125.52
  Q 127.43 121.33 126.35 117.06
  L 127.52 66.68
  Q 127.58 66.00 128.00 65.36
  Z"
/>
<path fill="#8c8d8f" d="
  M 127.52 66.68
  L 126.35 117.06
  Q 125.67 98.17 125.86 79.37
  Q 125.73 79.54 125.86 79.75
  Q 125.48 87.67 125.56 95.60
  Q 125.57 95.84 125.75 95.99
  Q 125.89 96.10 125.89 96.25
  Q 125.76 100.71 125.72 105.37
  Q 125.72 105.38 125.71 105.38
  Q 125.65 105.38 125.73 105.38
  Q 125.74 105.38 125.74 105.36
  Q 124.56 88.12 125.14 81.00
  Q 125.79 73.04 125.30 68.69
  L 127.52 66.68
  Z"
/>
<path fill="#adadad" d="
  M 0.00 67.60
  L 2.51 70.99
  Q 1.59 70.71 1.40 71.50
  C 1.17 72.45 1.70 73.57 1.68 74.50
  Q 1.38 89.23 2.30 103.99
  C 2.04 108.13 0.93 116.69 3.61 120.13
  Q 4.88 121.76 6.52 120.29
  Q 7.84 120.11 8.64 119.36
  Q 9.96 118.13 10.83 115.97
  Q 12.00 115.27 12.88 113.85
  Q 13.08 113.53 13.18 113.16
  Q 13.37 112.46 13.96 111.96
  Q 15.80 110.41 16.14 108.21
  A 1.06 1.05 -60.3 0 0 15.92 107.39
  Q 14.30 105.42 15.35 103.69
  C 15.29 106.58 17.42 107.95 19.12 109.81
  Q 19.23 111.34 17.61 112.34
  Q 17.24 112.57 17.05 112.97
  Q 16.93 113.23 16.90 113.51
  Q 16.85 113.95 16.49 114.20
  Q 12.02 117.40 8.52 121.38
  Q 7.14 122.96 7.42 125.07
  Q 7.44 125.25 7.62 125.21
  L 7.62 125.21
  Q 7.80 125.17 7.76 125.00
  Q 7.25 123.00 9.01 122.16
  C 10.39 121.49 10.94 119.73 12.24 118.79
  Q 16.83 115.49 20.14 110.75
  L 22.50 112.48
  Q 20.69 113.31 19.65 114.14
  Q 19.01 114.65 17.89 116.27
  Q 16.55 118.22 12.74 120.63
  Q 11.66 121.31 11.33 122.30
  Q 10.97 122.52 10.61 122.99
  L 10.05 123.36
  Q 9.61 123.65 9.60 124.19
  Q 9.58 125.43 10.55 125.37
  Q 12.55 126.18 13.88 126.12
  Q 37.43 125.11 61.04 126.41
  L 63.39 128.00
  L 0.00 128.00
  L 0.00 67.60
  Z
  M 13.56 115.83
  L 12.95 115.81
  Q 12.41 115.80 12.07 116.22
  Q 11.10 117.41 10.51 118.41
  Q 9.72 119.74 10.81 118.63
  L 13.56 115.83
  Q 14.86 115.40 17.59 112.25
  Q 18.33 111.39 17.28 111.82
  Q 16.03 112.34 15.19 113.92
  A 1.52 1.46 1.2 0 1 14.47 114.58
  Q 13.63 114.93 13.56 115.83
  Z
  M 14.72 118.32
  Q 13.79 118.75 13.21 119.59
  Q 12.58 120.52 13.48 119.85
  Q 14.66 118.96 16.09 117.88
  Q 16.93 117.25 17.41 116.44
  Q 17.91 115.60 17.15 116.20
  Q 16.23 116.93 15.45 117.79
  Q 15.14 118.13 14.72 118.32
  Z
  M 6.21 124.06
  Q 6.21 124.24 6.34 124.35
  Q 6.75 124.67 6.77 124.15
  Q 6.85 122.52 9.45 119.82
  Q 10.89 118.32 9.25 119.59
  Q 7.48 120.96 5.84 122.65
  A 0.82 0.79 -19.3 0 0 5.63 123.07
  Q 5.51 123.80 6.08 123.90
  A 0.16 0.15 -85.9 0 1 6.21 124.06
  Z"
/>
<path fill="#797979" d="
  M 125.30 68.69
  Q 125.79 73.04 125.14 81.00
  Q 124.56 88.12 125.74 105.36
  Q 125.74 105.38 125.73 105.38
  Q 125.65 105.38 125.71 105.38
  Q 125.72 105.38 125.72 105.37
  Q 125.76 100.71 125.89 96.25
  Q 125.89 96.10 125.75 95.99
  Q 125.57 95.84 125.56 95.60
  Q 125.48 87.67 125.86 79.75
  Q 125.73 79.54 125.86 79.37
  Q 125.67 98.17 126.35 117.06
  Q 127.43 121.33 127.03 125.52
  A 1.24 1.24 0.0 0 1 125.65 126.62
  Q 121.50 126.12 118.24 125.99
  Q 95.54 125.09 72.81 126.32
  L 73.79 117.00
  Q 73.84 116.53 74.27 116.32
  L 75.53 115.72
  Q 75.51 116.63 76.12 116.63
  Q 92.90 116.63 112.25 116.68
  Q 115.15 116.69 117.43 117.78
  A 0.89 0.89 0.0 0 0 118.69 116.85
  C 118.42 114.95 117.45 113.57 117.41 111.64
  Q 117.18 100.13 117.16 73.50
  Q 117.16 72.52 117.28 72.07
  A 0.97 0.93 48.6 0 0 117.30 71.60
  L 116.79 68.98
  L 125.30 68.69
  Z"
/>
<path fill="#8c8d8f" d="
  M 116.79 68.98
  L 117.30 71.60
  A 0.97 0.93 48.6 0 1 117.28 72.07
  Q 117.16 72.52 117.16 73.50
  Q 117.18 100.13 117.41 111.64
  C 117.45 113.57 118.42 114.95 118.69 116.85
  A 0.89 0.89 0.0 0 1 117.43 117.78
  Q 115.15 116.69 112.25 116.68
  Q 92.90 116.63 76.12 116.63
  Q 75.51 116.63 75.53 115.72
  L 76.49 113.85
  Q 91.40 113.90 106.26 113.84
  Q 110.10 113.83 111.61 112.99
  Q 114.32 111.51 114.57 107.76
  Q 114.72 105.38 114.38 102.79
  Q 114.66 100.63 113.02 98.89
  Q 114.37 98.45 114.37 97.25
  Q 114.38 89.09 114.36 80.94
  Q 114.36 80.11 114.08 79.64
  Q 113.59 78.83 112.81 78.93
  L 114.59 72.80
  Q 114.72 72.32 115.16 72.08
  Q 116.69 71.24 116.79 68.98
  Z"
/>
<path fill="#dadadb" d="
  M 2.51 70.99
  Q 3.24 71.17 3.56 71.45
  L 2.30 103.99
  Q 1.38 89.23 1.68 74.50
  C 1.70 73.57 1.17 72.45 1.40 71.50
  Q 1.59 70.71 2.51 70.99
  Z"
/>
<path fill="#ffffff" d="
  M 3.56 71.45
  L 10.83 71.68
  Q 11.42 71.70 11.43 72.29
  Q 11.44 74.44 13.99 74.53
  Q 14.55 74.55 14.72 75.09
  L 17.03 82.73
  Q 17.64 92.96 16.30 101.69
  Q 15.59 102.54 15.35 103.69
  Q 14.30 105.42 15.92 107.39
  A 1.06 1.05 -60.3 0 1 16.14 108.21
  Q 15.80 110.41 13.96 111.96
  Q 13.37 112.46 13.18 113.16
  Q 13.08 113.53 12.88 113.85
  Q 12.00 115.27 10.83 115.97
  L 6.52 120.29
  Q 4.88 121.76 3.61 120.13
  C 0.93 116.69 2.04 108.13 2.30 103.99
  L 3.56 71.45
  Z"
/>
<path fill="#9c9c9e" d="
  M 112.81 78.93
  Q 113.59 78.83 114.08 79.64
  Q 114.36 80.11 114.36 80.94
  Q 114.38 89.09 114.37 97.25
  Q 114.37 98.45 113.02 98.89
  L 112.50 98.35
  L 112.91 97.97
  A 0.72 0.67 -23.1 0 0 113.13 97.47
  L 113.13 80.56
  Q 113.13 80.21 112.80 80.06
  L 112.55 79.95
  Q 112.47 79.47 112.81 78.93
  Z"
/>
<path fill="#adadad" d="
  M 112.55 79.95
  L 112.80 80.06
  Q 113.13 80.21 113.13 80.56
  L 113.13 97.47
  A 0.72 0.67 -23.1 0 1 112.91 97.97
  L 112.50 98.35
  L 110.44 96.04
  Q 111.55 91.71 111.17 86.96
  Q 111.12 86.31 110.80 86.17
  Q 110.42 86.00 109.72 86.26
  L 112.55 79.95
  Z"
/>
<path fill="#cccdcd" d="
  M 17.03 82.73
  L 21.18 90.43
  Q 21.45 90.93 21.17 91.43
  L 19.83 93.80
  A 1.01 1.00 -46.5 0 0 19.85 94.82
  L 20.56 95.99
  Q 20.85 96.47 20.48 96.90
  L 16.30 101.69
  Q 17.64 92.96 17.03 82.73
  Z"
/>
<path fill="#b8b9b9" d="
  M 109.72 86.26
  Q 110.42 86.00 110.80 86.17
  Q 111.12 86.31 111.17 86.96
  Q 111.55 91.71 110.44 96.04
  Q 109.08 95.21 108.65 94.35
  C 108.33 93.70 108.65 93.01 109.22 92.64
  Q 109.72 92.32 109.57 91.75
  Q 109.31 90.72 108.44 90.12
  A 1.00 0.99 -57.2 0 1 108.16 88.78
  L 109.72 86.26
  Z"
/>
<path fill="#9c9c9e" d="
  M 114.38 102.79
  Q 114.72 105.38 114.57 107.76
  Q 114.32 111.51 111.61 112.99
  Q 110.10 113.83 106.26 113.84
  Q 91.40 113.90 76.49 113.85
  Q 76.72 111.60 77.67 112.34
  Q 81.51 112.82 88.26 112.40
  Q 93.05 112.10 105.03 112.58
  Q 109.56 112.77 111.33 111.70
  Q 114.60 109.71 113.40 104.45
  L 114.38 102.79
  Z"
/>
<path fill="#cccdcd" d="
  M 101.85 107.37
  Q 95.63 108.78 89.63 107.14
  L 94.03 104.16
  Q 94.54 103.82 94.98 104.24
  L 95.67 104.90
  A 1.02 1.01 -38.7 0 0 96.90 105.03
  L 98.19 104.22
  Q 98.64 103.94 99.00 104.32
  L 101.85 107.37
  Z"
/>
<path fill="#adadad" d="
  M 113.40 104.45
  Q 114.60 109.71 111.33 111.70
  Q 109.56 112.77 105.03 112.58
  Q 93.05 112.10 88.26 112.40
  Q 81.51 112.82 77.67 112.34
  Q 78.87 111.37 79.65 111.53
  Q 92.37 111.69 104.89 111.63
  Q 107.22 111.62 108.49 110.98
  Q 110.22 110.12 111.35 108.47
  Q 112.40 106.94 111.29 106.72
  L 113.40 104.45
  Z"
/>
<path fill="#b8b9b9" d="
  M 46.25 110.56
  Q 36.44 111.78 26.54 110.79
  L 30.42 106.34
  Q 30.78 105.93 31.32 106.00
  Q 32.32 106.12 32.78 107.00
  A 0.36 0.36 0.0 0 0 33.32 107.12
  L 35.27 105.66
  Q 35.76 105.29 36.30 105.57
  L 46.25 110.56
  Z"
/>
<path fill="#b8b9b9" d="
  M 89.63 107.14
  Q 95.63 108.78 101.85 107.37
  Q 102.52 107.84 104.01 109.20
  Q 105.53 110.59 107.65 109.75
  C 109.02 109.21 110.12 107.78 111.29 106.72
  Q 112.40 106.94 111.35 108.47
  Q 110.22 110.12 108.49 110.98
  Q 107.22 111.62 104.89 111.63
  Q 92.37 111.69 79.65 111.53
  L 89.63 107.14
  Z"
/>
<path fill="#b8b9b9" d="
  M 19.12 109.81
  L 20.14 110.75
  Q 16.83 115.49 12.24 118.79
  C 10.94 119.73 10.39 121.49 9.01 122.16
  Q 7.25 123.00 7.76 125.00
  Q 7.80 125.17 7.62 125.21
  L 7.62 125.21
  Q 7.44 125.25 7.42 125.07
  Q 7.14 122.96 8.52 121.38
  Q 12.02 117.40 16.49 114.20
  Q 16.85 113.95 16.90 113.51
  Q 16.93 113.23 17.05 112.97
  Q 17.24 112.57 17.61 112.34
  Q 19.23 111.34 19.12 109.81
  Z"
/>
<path fill="#9c9c9e" d="
  M 46.25 110.56
  L 56.55 113.11
  L 56.40 114.24
  Q 56.33 114.72 55.85 114.73
  Q 41.94 115.00 29.44 114.80
  Q 27.02 114.76 24.64 114.21
  C 22.73 113.76 20.64 114.01 19.35 115.74
  Q 18.23 117.24 17.22 118.75
  Q 16.04 120.51 11.33 122.30
  Q 11.66 121.31 12.74 120.63
  Q 16.55 118.22 17.89 116.27
  Q 19.01 114.65 19.65 114.14
  Q 20.69 113.31 22.50 112.48
  Q 24.95 112.39 26.54 110.79
  Q 36.44 111.78 46.25 110.56
  Z"
/>
<path fill="#cccdcd" d="
  M 13.56 115.83
  Q 13.63 114.93 14.47 114.58
  A 1.52 1.46 1.2 0 0 15.19 113.92
  Q 16.03 112.34 17.28 111.82
  Q 18.33 111.39 17.59 112.25
  Q 14.86 115.40 13.56 115.83
  Z"
/>
<path fill="#797979" d="
  M 56.55 113.11
  Q 56.99 116.01 59.12 116.84
  Q 59.58 117.03 59.60 117.52
  C 59.68 120.91 58.92 124.34 61.04 126.41
  Q 37.43 125.11 13.88 126.12
  Q 12.55 126.18 10.55 125.37
  L 10.61 122.99
  Q 10.97 122.52 11.33 122.30
  Q 16.04 120.51 17.22 118.75
  Q 18.23 117.24 19.35 115.74
  C 20.64 114.01 22.73 113.76 24.64 114.21
  Q 27.02 114.76 29.44 114.80
  Q 41.94 115.00 55.85 114.73
  Q 56.33 114.72 56.40 114.24
  L 56.55 113.11
  Z"
/>
<ellipse fill="#212121" cx="0.00" cy="0.00" transform="translate(67.29,118.94) rotate(90.1)" rx="4.44" ry="2.16"/>
<path fill="#cccdcd" d="
  M 13.56 115.83
  L 10.81 118.63
  Q 9.72 119.74 10.51 118.41
  Q 11.10 117.41 12.07 116.22
  Q 12.41 115.80 12.95 115.81
  L 13.56 115.83
  Z"
/>
<path fill="#dadadb" d="
  M 10.83 115.97
  Q 9.96 118.13 8.64 119.36
  Q 7.84 120.11 6.52 120.29
  L 10.83 115.97
  Z"
/>
<path fill="#9c9c9e" d="
  M 15.45 117.79
  Q 16.23 116.93 17.15 116.20
  Q 17.91 115.60 17.41 116.44
  Q 16.93 117.25 16.09 117.88
  Q 14.66 118.96 13.48 119.85
  Q 12.58 120.52 13.21 119.59
  Q 13.79 118.75 14.72 118.32
  Q 15.14 118.13 15.45 117.79
  Z"
/>
<path fill="#cccdcd" d="
  M 6.08 123.90
  Q 5.51 123.80 5.63 123.07
  A 0.82 0.79 -19.3 0 1 5.84 122.65
  Q 7.48 120.96 9.25 119.59
  Q 10.89 118.32 9.45 119.82
  Q 6.85 122.52 6.77 124.15
  Q 6.75 124.67 6.34 124.35
  Q 6.21 124.24 6.21 124.06
  A 0.16 0.15 -85.9 0 0 6.08 123.90
  Z"
/>
<path fill="#8c8d8f" d="
  M 10.61 122.99
  L 10.55 125.37
  Q 9.58 125.43 9.60 124.19
  Q 9.61 123.65 10.05 123.36
  L 10.61 122.99
  Z"
/>
</svg>
