<?xml version="1.0" encoding="UTF-8" standalone="no"?>
<!DOCTYPE svg PUBLIC "-//W3C//DTD SVG 1.1//EN" "http://www.w3.org/Graphics/SVG/1.1/DTD/svg11.dtd">
<svg xmlns="http://www.w3.org/2000/svg" version="1.1" viewBox="0.00 0.00 128.00 128.00">
<g stroke-width="2.00" fill="none" stroke-linecap="butt">
<path stroke="#bbbbbb" vector-effect="non-scaling-stroke" d="
  M 3.71 120.27
  L 4.16 124.48
  Q 4.21 124.97 3.92 125.38
  Q 3.44 126.07 3.56 126.91
  Q 3.62 127.37 4.09 127.37
  L 6.65 127.37
  Q 7.95 127.37 7.70 126.10
  L 7.12 123.13
  A 0.84 0.84 0.0 0 1 7.40 122.32
  Q 9.62 120.45 11.73 118.82
  Q 13.79 117.22 15.34 115.58
  Q 16.95 113.88 18.64 112.26
  A 4.13 4.10 24.4 0 1 21.70 111.12
  Q 27.26 111.42 33.13 111.32
  Q 38.19 111.24 43.40 111.50
  Q 48.84 111.78 53.61 112.15
  Q 54.95 112.25 56.26 111.59
  C 58.00 110.72 59.36 109.49 61.53 110.55"
/>
<path stroke="#c6686c" vector-effect="non-scaling-stroke" d="
  M 61.53 110.55
  Q 60.98 112.15 60.00 112.97"
/>
<path stroke="#a3a4a5" vector-effect="non-scaling-stroke" d="
  M 60.00 112.97
  C 57.52 113.40 55.25 113.87 52.73 113.64
  Q 49.51 113.35 46.03 112.84
  Q 42.95 112.38 40.09 112.38
  Q 32.09 112.39 23.58 112.36
  C 21.66 112.36 19.88 112.82 18.78 114.55
  Q 16.37 118.35 12.92 120.25
  C 11.72 120.91 11.09 121.62 10.22 122.59
  Q 9.45 123.44 9.58 124.10
  Q 9.75 124.89 10.76 125.58"
/>
<path stroke="#959595" vector-effect="non-scaling-stroke" d="
  M 10.76 125.58
  Q 14.53 126.36 18.76 126.10
  Q 26.21 125.64 26.26 125.64
  Q 42.72 125.44 59.17 124.97
  Q 63.36 124.85 67.31 125.20
  C 73.43 125.74 79.12 125.19 85.03 125.25
  Q 106.38 125.48 125.81 126.25
  A 1.06 1.05 -1.2 0 0 126.91 125.11
  Q 126.54 120.25 126.53 115.16
  Q 126.48 70.26 126.14 29.57
  C 126.09 23.64 126.61 17.68 126.44 11.98
  Q 126.38 10.05 124.65 9.68
  Q 124.15 9.57 123.80 9.94
  L 122.08 11.70"
/>
<path stroke="#a3a4a5" vector-effect="non-scaling-stroke" d="
  M 122.08 11.70
  Q 119.83 13.07 120.32 14.76"
/>
<path stroke="#959595" vector-effect="non-scaling-stroke" d="
  M 120.32 14.76
  Q 119.52 16.44 118.00 17.19
  Q 117.55 17.41 117.15 17.72
  L 115.52 18.97
  Q 114.81 19.52 115.05 18.65
  Q 115.29 17.79 116.10 17.59
  Q 116.63 17.46 116.63 16.92
  L 116.63 16.59
  Q 116.63 16.15 116.98 15.87
  Q 118.33 14.80 118.80 13.14
  Q 118.97 12.51 118.65 13.07
  Q 117.31 15.39 115.61 17.08
  Q 115.17 17.52 114.98 18.09
  Q 114.75 18.75 114.54 19.43
  Q 114.41 19.86 114.11 20.18
  C 112.94 21.46 113.27 23.95 113.71 25.41
  Q 114.12 26.77 114.11 28.35
  Q 114.07 35.79 114.07 43.24
  Q 114.07 45.97 113.71 49.74
  Q 113.38 53.27 113.37 56.81
  Q 113.37 82.60 113.37 107.16
  Q 113.37 109.25 112.06 111.14
  Q 111.78 111.54 111.32 111.69
  C 109.97 112.14 108.82 112.62 107.34 112.62
  Q 97.77 112.62 88.21 112.62
  Q 85.27 112.62 82.32 112.98
  Q 79.44 113.32 76.48 113.67"
/>
<path stroke="#a3a4a5" vector-effect="non-scaling-stroke" d="
  M 76.48 113.67
  Q 71.22 114.28 65.41 112.02"
/>
<path stroke="#c6686c" vector-effect="non-scaling-stroke" d="
  M 65.41 112.02
  L 66.46 109.90
  Q 66.76 109.31 67.33 109.62
  L 69.54 110.80
  A 0.89 0.89 0.0 0 0 70.75 110.44
  L 71.73 108.60"
/>
<path stroke="#bbbbbb" vector-effect="non-scaling-stroke" d="
  M 71.73 108.60
  Q 73.61 109.13 75.50 109.09
  Q 76.91 109.07 78.49 109.07
  Q 90.14 109.07 101.75 109.80
  Q 105.73 110.06 108.81 109.54
  A 2.06 2.06 0.0 0 0 110.48 107.95
  Q 111.46 103.56 110.79 98.97
  Q 109.77 92.06 109.77 91.97
  Q 109.30 79.88 109.94 70.90
  Q 110.21 67.08 110.12 63.08
  Q 110.03 58.94 110.41 55.21
  C 110.52 54.18 111.08 53.61 111.11 52.54
  Q 111.27 47.79 111.65 42.75
  C 111.93 38.96 111.69 35.38 112.13 31.70
  C 112.50 28.49 111.96 25.05 111.85 21.91
  Q 111.83 21.30 112.22 20.83
  L 113.83 18.91
  Q 114.17 18.50 114.14 17.96
  Q 114.04 15.86 113.19 13.71"
/>
<path stroke="#bbbbbb" vector-effect="non-scaling-stroke" d="
  M 113.19 13.71
  Q 114.42 13.02 115.56 12.08
  Q 116.34 11.44 117.94 10.52
  Q 119.16 9.82 120.34 8.62
  Q 121.56 7.37 121.87 4.56"
/>
<path stroke="#d9d9d9" vector-effect="non-scaling-stroke" d="
  M 121.87 4.56
  Q 120.85 1.31 113.25 1.26
  Q 63.35 0.92 15.10 1.28
  C 10.84 1.31 6.77 0.58 2.56 0.84
  Q 0.66 0.96 0.93 2.84
  C 1.78 8.79 2.29 14.57 2.09 20.71
  Q 1.79 29.83 1.89 39.25
  Q 2.14 65.37 2.07 91.50
  Q 2.03 102.92 2.08 115.00
  Q 2.09 117.51 3.71 120.27"
/>
<path stroke="#e1e1e1" vector-effect="non-scaling-stroke" d="
  M 121.87 4.56
  L 113.19 13.71"
/>
<path stroke="#e1e1e1" vector-effect="non-scaling-stroke" d="
  M 113.19 13.71
  C 111.27 15.55 109.14 17.11 106.36 16.82
  C 104.54 16.63 102.71 16.46 100.88 16.46
  Q 60.61 16.30 18.98 16.33
  A 1.91 1.91 0.0 0 0 17.08 18.01
  C 16.55 22.53 16.96 27.00 16.97 31.55
  Q 17.04 65.71 16.81 101.07
  C 16.79 104.04 18.02 107.74 15.27 110.04
  C 13.50 111.52 12.17 113.06 10.84 115.06
  Q 9.22 117.50 6.85 119.97
  Q 5.05 121.86 3.71 120.27"
/>
<path stroke="#cf7174" vector-effect="non-scaling-stroke" d="
  M 71.73 108.60
  L 73.77 104.65
  Q 74.06 104.09 74.61 104.40
  L 77.17 105.80
  A 0.45 0.44 -62.0 0 0 77.78 105.61
  L 81.53 98.28
  A 0.41 0.41 0.0 0 1 82.09 98.11
  L 85.50 100.03
  A 0.70 0.70 0.0 0 0 86.47 99.74
  L 90.10 92.74
  A 0.49 0.49 0.0 0 1 90.78 92.53
  L 93.32 93.96
  Q 93.84 94.25 94.11 93.73
  L 97.33 87.52
  Q 97.57 87.05 98.03 87.31
  L 100.53 88.70
  Q 101.04 88.99 101.32 88.46
  L 104.73 81.94"
/>
<path stroke="#c07078" vector-effect="non-scaling-stroke" d="
  M 104.73 81.94
  L 108.28 75.09
  A 0.42 0.41 27.2 0 0 108.10 74.54
  L 67.63 53.42"
/>
<path stroke="#acadad" vector-effect="non-scaling-stroke" d="
  M 67.63 53.42
  L 58.25 48.49
  A 0.29 0.29 0.0 0 0 57.86 48.62
  L 54.41 55.20
  Q 54.29 55.42 54.51 55.54
  L 64.08 60.32"
/>
<path stroke="#c07078" vector-effect="non-scaling-stroke" d="
  M 64.08 60.32
  Q 64.07 60.44 64.06 60.56"
/>
<path stroke="#cf7174" vector-effect="non-scaling-stroke" d="
  M 64.06 60.56
  L 60.60 67.13
  Q 60.33 67.65 60.85 67.91
  L 64.26 69.68
  Q 64.79 69.95 64.51 70.48
  L 61.28 76.55
  Q 61.00 77.08 61.53 77.33
  L 63.88 78.47
  A 0.83 0.82 27.3 0 1 64.25 79.60
  L 60.69 86.34
  Q 60.40 86.90 60.97 87.18
  L 63.44 88.38
  A 0.64 0.64 0.0 0 1 63.73 89.26
  L 60.02 96.28
  A 0.52 0.51 26.6 0 0 60.26 96.99
  L 62.87 98.21
  A 0.56 0.55 26.6 0 1 63.13 98.97
  L 59.93 105.16
  Q 59.66 105.70 60.20 105.96
  L 62.65 107.15
  Q 63.26 107.45 62.93 108.04
  L 61.53 110.55"
/>
<path stroke="#b75a5e" vector-effect="non-scaling-stroke" d="
  M 65.41 112.02
  L 64.60 113.65"
/>
<path stroke="#cc1e29" vector-effect="non-scaling-stroke" d="
  M 60.23 116.39
  Q 59.37 115.04 59.98 113.21"
/>
<path stroke="#b75a5e" vector-effect="non-scaling-stroke" d="
  M 59.98 113.21
  Q 59.99 113.09 60.00 112.97"
/>
<path stroke="#cc1e29" vector-effect="non-scaling-stroke" d="
  M 104.73 81.94
  L 64.06 60.56"
/>
<path stroke="#a95a62" vector-effect="non-scaling-stroke" d="
  M 67.63 53.42
  L 64.08 60.32"
/>
<path stroke="#868788" vector-effect="non-scaling-stroke" d="
  M 10.76 125.58
  Q 9.63 123.18 11.67 121.88
  Q 14.07 120.35 17.32 118.82
  A 1.20 1.19 -5.6 0 0 17.97 118.04
  Q 18.41 116.45 19.84 115.07
  Q 21.41 113.55 23.32 113.56
  Q 25.99 113.57 28.65 114.02
  Q 30.86 114.40 33.42 114.38
  Q 46.19 114.27 58.97 114.67"
/>
<path stroke="#9a4b52" vector-effect="non-scaling-stroke" d="
  M 58.97 114.67
  Q 59.06 116.42 60.23 116.39"
/>
<path stroke="#a94b4f" vector-effect="non-scaling-stroke" d="
  M 60.23 116.39
  Q 61.49 117.04 62.63 116.80
  Q 63.13 116.70 63.35 116.24
  L 64.60 113.65"
/>
<path stroke="#868788" vector-effect="non-scaling-stroke" d="
  M 64.60 113.65
  Q 66.92 113.93 69.20 114.30
  Q 71.63 114.69 73.68 114.59
  Q 77.68 114.40 81.97 114.06
  Q 82.44 114.02 82.84 113.75
  Q 83.04 113.62 83.25 113.62
  Q 96.26 113.64 109.24 113.61
  Q 110.79 113.61 111.80 112.54"
/>
<path stroke="#868788" vector-effect="non-scaling-stroke" d="
  M 111.80 112.54
  Q 112.40 112.77 112.75 112.22
  Q 114.35 109.66 114.35 106.44
  Q 114.38 78.32 114.37 49.82
  Q 114.37 49.56 114.11 49.56
  L 113.82 49.56
  Q 113.75 49.56 113.75 49.64
  Q 113.54 78.33 113.64 107.89
  C 113.64 108.83 113.28 109.64 112.96 110.50
  Q 112.79 110.96 112.39 111.25
  Q 111.73 111.73 111.80 112.54"
/>
<path stroke="#868788" vector-effect="non-scaling-stroke" d="
  M 111.80 112.54
  Q 110.86 112.26 109.89 112.69
  Q 109.44 112.88 108.95 112.88
  Q 98.06 112.87 87.18 112.88
  Q 84.97 112.88 81.84 113.25
  Q 79.20 113.56 76.48 113.67"
/>
<path stroke="#868788" vector-effect="non-scaling-stroke" d="
  M 120.32 14.76
  Q 121.49 13.61 122.08 11.70"
/>
<path stroke="#a95a62" vector-effect="non-scaling-stroke" d="
  M 59.98 113.21
  L 58.97 114.67"
/>
<path stroke="#868788" vector-effect="non-scaling-stroke" d="
  M 114.6724 26.2895
  A 0.27 0.27 0.0 0 0 114.4020 26.0200
  L 114.3820 26.0200
  A 0.27 0.27 0.0 0 0 114.1124 26.2905
  L 114.1476 46.4305
  A 0.27 0.27 0.0 0 0 114.4180 46.7000
  L 114.4380 46.7000
  A 0.27 0.27 0.0 0 0 114.7076 46.4295
  L 114.6724 26.2895"
/>
<path stroke="#acadad" vector-effect="non-scaling-stroke" d="
  M 47.0234 79.6069
  A 0.60 0.60 0.0 0 0 46.4244 79.0059
  L 39.7044 78.9942
  A 0.60 0.60 0.0 0 0 39.1034 79.5931
  L 39.0566 106.3731
  A 0.60 0.60 0.0 0 0 39.6556 106.9741
  L 46.3756 106.9858
  A 0.60 0.60 0.0 0 0 46.9766 106.3869
  L 47.0234 79.6069"
/>
</g>
<path fill="#b2b2b2" d="
  M 0.00 0.00
  L 128.00 0.00
  L 128.00 128.00
  L 0.00 128.00
  L 0.00 0.00
  Z
  M 3.71 120.27
  L 4.16 124.48
  Q 4.21 124.97 3.92 125.38
  Q 3.44 126.07 3.56 126.91
  Q 3.62 127.37 4.09 127.37
  L 6.65 127.37
  Q 7.95 127.37 7.70 126.10
  L 7.12 123.13
  A 0.84 0.84 0.0 0 1 7.40 122.32
  Q 9.62 120.45 11.73 118.82
  Q 13.79 117.22 15.34 115.58
  Q 16.95 113.88 18.64 112.26
  A 4.13 4.10 24.4 0 1 21.70 111.12
  Q 27.26 111.42 33.13 111.32
  Q 38.19 111.24 43.40 111.50
  Q 48.84 111.78 53.61 112.15
  Q 54.95 112.25 56.26 111.59
  C 58.00 110.72 59.36 109.49 61.53 110.55
  Q 60.98 112.15 60.00 112.97
  C 57.52 113.40 55.25 113.87 52.73 113.64
  Q 49.51 113.35 46.03 112.84
  Q 42.95 112.38 40.09 112.38
  Q 32.09 112.39 23.58 112.36
  C 21.66 112.36 19.88 112.82 18.78 114.55
  Q 16.37 118.35 12.92 120.25
  C 11.72 120.91 11.09 121.62 10.22 122.59
  Q 9.45 123.44 9.58 124.10
  Q 9.75 124.89 10.76 125.58
  Q 14.53 126.36 18.76 126.10
  Q 26.21 125.64 26.26 125.64
  Q 42.72 125.44 59.17 124.97
  Q 63.36 124.85 67.31 125.20
  C 73.43 125.74 79.12 125.19 85.03 125.25
  Q 106.38 125.48 125.81 126.25
  A 1.06 1.05 -1.2 0 0 126.91 125.11
  Q 126.54 120.25 126.53 115.16
  Q 126.48 70.26 126.14 29.57
  C 126.09 23.64 126.61 17.68 126.44 11.98
  Q 126.38 10.05 124.65 9.68
  Q 124.15 9.57 123.80 9.94
  L 122.08 11.70
  Q 119.83 13.07 120.32 14.76
  Q 119.52 16.44 118.00 17.19
  Q 117.55 17.41 117.15 17.72
  L 115.52 18.97
  Q 114.81 19.52 115.05 18.65
  Q 115.29 17.79 116.10 17.59
  Q 116.63 17.46 116.63 16.92
  L 116.63 16.59
  Q 116.63 16.15 116.98 15.87
  Q 118.33 14.80 118.80 13.14
  Q 118.97 12.51 118.65 13.07
  Q 117.31 15.39 115.61 17.08
  Q 115.17 17.52 114.98 18.09
  Q 114.75 18.75 114.54 19.43
  Q 114.41 19.86 114.11 20.18
  C 112.94 21.46 113.27 23.95 113.71 25.41
  Q 114.12 26.77 114.11 28.35
  Q 114.07 35.79 114.07 43.24
  Q 114.07 45.97 113.71 49.74
  Q 113.38 53.27 113.37 56.81
  Q 113.37 82.60 113.37 107.16
  Q 113.37 109.25 112.06 111.14
  Q 111.78 111.54 111.32 111.69
  C 109.97 112.14 108.82 112.62 107.34 112.62
  Q 97.77 112.62 88.21 112.62
  Q 85.27 112.62 82.32 112.98
  Q 79.44 113.32 76.48 113.67
  Q 71.22 114.28 65.41 112.02
  L 66.46 109.90
  Q 66.76 109.31 67.33 109.62
  L 69.54 110.80
  A 0.89 0.89 0.0 0 0 70.75 110.44
  L 71.73 108.60
  Q 73.61 109.13 75.50 109.09
  Q 76.91 109.07 78.49 109.07
  Q 90.14 109.07 101.75 109.80
  Q 105.73 110.06 108.81 109.54
  A 2.06 2.06 0.0 0 0 110.48 107.95
  Q 111.46 103.56 110.79 98.97
  Q 109.77 92.06 109.77 91.97
  Q 109.30 79.88 109.94 70.90
  Q 110.21 67.08 110.12 63.08
  Q 110.03 58.94 110.41 55.21
  C 110.52 54.18 111.08 53.61 111.11 52.54
  Q 111.27 47.79 111.65 42.75
  C 111.93 38.96 111.69 35.38 112.13 31.70
  C 112.50 28.49 111.96 25.05 111.85 21.91
  Q 111.83 21.30 112.22 20.83
  L 113.83 18.91
  Q 114.17 18.50 114.14 17.96
  Q 114.04 15.86 113.19 13.71
  Q 114.42 13.02 115.56 12.08
  Q 116.34 11.44 117.94 10.52
  Q 119.16 9.82 120.34 8.62
  Q 121.56 7.37 121.87 4.56
  Q 120.85 1.31 113.25 1.26
  Q 63.35 0.92 15.10 1.28
  C 10.84 1.31 6.77 0.58 2.56 0.84
  Q 0.66 0.96 0.93 2.84
  C 1.78 8.79 2.29 14.57 2.09 20.71
  Q 1.79 29.83 1.89 39.25
  Q 2.14 65.37 2.07 91.50
  Q 2.03 102.92 2.08 115.00
  Q 2.09 117.51 3.71 120.27
  Z"
/>
<path fill="#ffffff" d="
  M 121.87 4.56
  L 113.19 13.71
  C 111.27 15.55 109.14 17.11 106.36 16.82
  C 104.54 16.63 102.71 16.46 100.88 16.46
  Q 60.61 16.30 18.98 16.33
  A 1.91 1.91 0.0 0 0 17.08 18.01
  C 16.55 22.53 16.96 27.00 16.97 31.55
  Q 17.04 65.71 16.81 101.07
  C 16.79 104.04 18.02 107.74 15.27 110.04
  C 13.50 111.52 12.17 113.06 10.84 115.06
  Q 9.22 117.50 6.85 119.97
  Q 5.05 121.86 3.71 120.27
  Q 2.09 117.51 2.08 115.00
  Q 2.03 102.92 2.07 91.50
  Q 2.14 65.37 1.89 39.25
  Q 1.79 29.83 2.09 20.71
  C 2.29 14.57 1.78 8.79 0.93 2.84
  Q 0.66 0.96 2.56 0.84
  C 6.77 0.58 10.84 1.31 15.10 1.28
  Q 63.35 0.92 113.25 1.26
  Q 120.85 1.31 121.87 4.56
  Z"
/>
<path fill="#c3c3c3" d="
  M 121.87 4.56
  Q 121.56 7.37 120.34 8.62
  Q 119.16 9.82 117.94 10.52
  Q 116.34 11.44 115.56 12.08
  Q 114.42 13.02 113.19 13.71
  L 121.87 4.56
  Z"
/>
<path fill="#777878" d="
  M 10.76 125.58
  Q 9.63 123.18 11.67 121.88
  Q 14.07 120.35 17.32 118.82
  A 1.20 1.19 -5.6 0 0 17.97 118.04
  Q 18.41 116.45 19.84 115.07
  Q 21.41 113.55 23.32 113.56
  Q 25.99 113.57 28.65 114.02
  Q 30.86 114.40 33.42 114.38
  Q 46.19 114.27 58.97 114.67
  Q 59.06 116.42 60.23 116.39
  Q 61.49 117.04 62.63 116.80
  Q 63.13 116.70 63.35 116.24
  L 64.60 113.65
  Q 66.92 113.93 69.20 114.30
  Q 71.63 114.69 73.68 114.59
  Q 77.68 114.40 81.97 114.06
  Q 82.44 114.02 82.84 113.75
  Q 83.04 113.62 83.25 113.62
  Q 96.26 113.64 109.24 113.61
  Q 110.79 113.61 111.80 112.54
  Q 112.40 112.77 112.75 112.22
  Q 114.35 109.66 114.35 106.44
  Q 114.38 78.32 114.37 49.82
  Q 114.37 49.56 114.11 49.56
  L 113.82 49.56
  Q 113.75 49.56 113.75 49.64
  Q 113.54 78.33 113.64 107.89
  C 113.64 108.83 113.28 109.64 112.96 110.50
  Q 112.79 110.96 112.39 111.25
  Q 111.73 111.73 111.80 112.54
  Q 110.86 112.26 109.89 112.69
  Q 109.44 112.88 108.95 112.88
  Q 98.06 112.87 87.18 112.88
  Q 84.97 112.88 81.84 113.25
  Q 79.20 113.56 76.48 113.67
  Q 79.44 113.32 82.32 112.98
  Q 85.27 112.62 88.21 112.62
  Q 97.77 112.62 107.34 112.62
  C 108.82 112.62 109.97 112.14 111.32 111.69
  Q 111.78 111.54 112.06 111.14
  Q 113.37 109.25 113.37 107.16
  Q 113.37 82.60 113.37 56.81
  Q 113.38 53.27 113.71 49.74
  Q 114.07 45.97 114.07 43.24
  Q 114.07 35.79 114.11 28.35
  Q 114.12 26.77 113.71 25.41
  C 113.27 23.95 112.94 21.46 114.11 20.18
  Q 114.41 19.86 114.54 19.43
  Q 114.75 18.75 114.98 18.09
  Q 115.17 17.52 115.61 17.08
  Q 117.31 15.39 118.65 13.07
  Q 118.97 12.51 118.80 13.14
  Q 118.33 14.80 116.98 15.87
  Q 116.63 16.15 116.63 16.59
  L 116.63 16.92
  Q 116.63 17.46 116.10 17.59
  Q 115.29 17.79 115.05 18.65
  Q 114.81 19.52 115.52 18.97
  L 117.15 17.72
  Q 117.55 17.41 118.00 17.19
  Q 119.52 16.44 120.32 14.76
  Q 121.49 13.61 122.08 11.70
  L 123.80 9.94
  Q 124.15 9.57 124.65 9.68
  Q 126.38 10.05 126.44 11.98
  C 126.61 17.68 126.09 23.64 126.14 29.57
  Q 126.48 70.26 126.53 115.16
  Q 126.54 120.25 126.91 125.11
  A 1.06 1.05 -1.2 0 1 125.81 126.25
  Q 106.38 125.48 85.03 125.25
  C 79.12 125.19 73.43 125.74 67.31 125.20
  Q 63.36 124.85 59.17 124.97
  Q 42.72 125.44 26.26 125.64
  Q 26.21 125.64 18.76 126.10
  Q 14.53 126.36 10.76 125.58
  Z
  M 114.6724 26.2895
  A 0.27 0.27 0.0 0 0 114.4020 26.0200
  L 114.3820 26.0200
  A 0.27 0.27 0.0 0 0 114.1124 26.2905
  L 114.1476 46.4305
  A 0.27 0.27 0.0 0 0 114.4180 46.7000
  L 114.4380 46.7000
  A 0.27 0.27 0.0 0 0 114.7076 46.4295
  L 114.6724 26.2895
  Z"
/>
<path fill="#949697" d="
  M 122.08 11.70
  Q 121.49 13.61 120.32 14.76
  Q 119.83 13.07 122.08 11.70
  Z"
/>
<path fill="#c3c3c3" d="
  M 113.19 13.71
  Q 114.04 15.86 114.14 17.96
  Q 114.17 18.50 113.83 18.91
  L 112.22 20.83
  Q 111.83 21.30 111.85 21.91
  C 111.96 25.05 112.50 28.49 112.13 31.70
  C 111.69 35.38 111.93 38.96 111.65 42.75
  Q 111.27 47.79 111.11 52.54
  C 111.08 53.61 110.52 54.18 110.41 55.21
  Q 110.03 58.94 110.12 63.08
  Q 110.21 67.08 109.94 70.90
  Q 109.30 79.88 109.77 91.97
  Q 109.77 92.06 110.79 98.97
  Q 111.46 103.56 110.48 107.95
  A 2.06 2.06 0.0 0 1 108.81 109.54
  Q 105.73 110.06 101.75 109.80
  Q 90.14 109.07 78.49 109.07
  Q 76.91 109.07 75.50 109.09
  Q 73.61 109.13 71.73 108.60
  L 73.77 104.65
  Q 74.06 104.09 74.61 104.40
  L 77.17 105.80
  A 0.45 0.44 -62.0 0 0 77.78 105.61
  L 81.53 98.28
  A 0.41 0.41 0.0 0 1 82.09 98.11
  L 85.50 100.03
  A 0.70 0.70 0.0 0 0 86.47 99.74
  L 90.10 92.74
  A 0.49 0.49 0.0 0 1 90.78 92.53
  L 93.32 93.96
  Q 93.84 94.25 94.11 93.73
  L 97.33 87.52
  Q 97.57 87.05 98.03 87.31
  L 100.53 88.70
  Q 101.04 88.99 101.32 88.46
  L 104.73 81.94
  L 108.28 75.09
  A 0.42 0.41 27.2 0 0 108.10 74.54
  L 67.63 53.42
  L 58.25 48.49
  A 0.29 0.29 0.0 0 0 57.86 48.62
  L 54.41 55.20
  Q 54.29 55.42 54.51 55.54
  L 64.08 60.32
  Q 64.07 60.44 64.06 60.56
  L 60.60 67.13
  Q 60.33 67.65 60.85 67.91
  L 64.26 69.68
  Q 64.79 69.95 64.51 70.48
  L 61.28 76.55
  Q 61.00 77.08 61.53 77.33
  L 63.88 78.47
  A 0.83 0.82 27.3 0 1 64.25 79.60
  L 60.69 86.34
  Q 60.40 86.90 60.97 87.18
  L 63.44 88.38
  A 0.64 0.64 0.0 0 1 63.73 89.26
  L 60.02 96.28
  A 0.52 0.51 26.6 0 0 60.26 96.99
  L 62.87 98.21
  A 0.56 0.55 26.6 0 1 63.13 98.97
  L 59.93 105.16
  Q 59.66 105.70 60.20 105.96
  L 62.65 107.15
  Q 63.26 107.45 62.93 108.04
  L 61.53 110.55
  C 59.36 109.49 58.00 110.72 56.26 111.59
  Q 54.95 112.25 53.61 112.15
  Q 48.84 111.78 43.40 111.50
  Q 38.19 111.24 33.13 111.32
  Q 27.26 111.42 21.70 111.12
  A 4.13 4.10 24.4 0 0 18.64 112.26
  Q 16.95 113.88 15.34 115.58
  Q 13.79 117.22 11.73 118.82
  Q 9.62 120.45 7.40 122.32
  A 0.84 0.84 0.0 0 0 7.12 123.13
  L 7.70 126.10
  Q 7.95 127.37 6.65 127.37
  L 4.09 127.37
  Q 3.62 127.37 3.56 126.91
  Q 3.44 126.07 3.92 125.38
  Q 4.21 124.97 4.16 124.48
  L 3.71 120.27
  Q 5.05 121.86 6.85 119.97
  Q 9.22 117.50 10.84 115.06
  C 12.17 113.06 13.50 111.52 15.27 110.04
  C 18.02 107.74 16.79 104.04 16.81 101.07
  Q 17.04 65.71 16.97 31.55
  C 16.96 27.00 16.55 22.53 17.08 18.01
  A 1.91 1.91 0.0 0 1 18.98 16.33
  Q 60.61 16.30 100.88 16.46
  C 102.71 16.46 104.54 16.63 106.36 16.82
  C 109.14 17.11 111.27 15.55 113.19 13.71
  Z
  M 47.0234 79.6069
  A 0.60 0.60 0.0 0 0 46.4244 79.0059
  L 39.7044 78.9942
  A 0.60 0.60 0.0 0 0 39.1034 79.5931
  L 39.0566 106.3731
  A 0.60 0.60 0.0 0 0 39.6556 106.9741
  L 46.3756 106.9858
  A 0.60 0.60 0.0 0 0 46.9766 106.3869
  L 47.0234 79.6069
  Z"
/>
<rect fill="#949697" x="-0.28" y="-10.34" transform="translate(114.41,36.36) rotate(-0.1)" width="0.56" height="20.68" rx="0.27"/>
<path fill="#949697" d="
  M 67.63 53.42
  L 64.08 60.32
  L 54.51 55.54
  Q 54.29 55.42 54.41 55.20
  L 57.86 48.62
  A 0.29 0.29 0.0 0 1 58.25 48.49
  L 67.63 53.42
  Z"
/>
<path fill="#949697" d="
  M 111.80 112.54
  Q 111.73 111.73 112.39 111.25
  Q 112.79 110.96 112.96 110.50
  C 113.28 109.64 113.64 108.83 113.64 107.89
  Q 113.54 78.33 113.75 49.64
  Q 113.75 49.56 113.82 49.56
  L 114.11 49.56
  Q 114.37 49.56 114.37 49.82
  Q 114.38 78.32 114.35 106.44
  Q 114.35 109.66 112.75 112.22
  Q 112.40 112.77 111.80 112.54
  Z"
/>
<path fill="#bd1d2c" d="
  M 67.63 53.42
  L 108.10 74.54
  A 0.42 0.41 27.2 0 1 108.28 75.09
  L 104.73 81.94
  L 64.06 60.56
  Q 64.07 60.44 64.08 60.32
  L 67.63 53.42
  Z"
/>
<path fill="#da1e25" d="
  M 64.06 60.56
  L 104.73 81.94
  L 101.32 88.46
  Q 101.04 88.99 100.53 88.70
  L 98.03 87.31
  Q 97.57 87.05 97.33 87.52
  L 94.11 93.73
  Q 93.84 94.25 93.32 93.96
  L 90.78 92.53
  A 0.49 0.49 0.0 0 0 90.10 92.74
  L 86.47 99.74
  A 0.70 0.70 0.0 0 1 85.50 100.03
  L 82.09 98.11
  A 0.41 0.41 0.0 0 0 81.53 98.28
  L 77.78 105.61
  A 0.45 0.44 -62.0 0 1 77.17 105.80
  L 74.61 104.40
  Q 74.06 104.09 73.77 104.65
  L 71.73 108.60
  L 70.75 110.44
  A 0.89 0.89 0.0 0 1 69.54 110.80
  L 67.33 109.62
  Q 66.76 109.31 66.46 109.90
  L 65.41 112.02
  L 64.60 113.65
  L 63.35 116.24
  Q 63.13 116.70 62.63 116.80
  Q 61.49 117.04 60.23 116.39
  Q 59.37 115.04 59.98 113.21
  Q 59.99 113.09 60.00 112.97
  Q 60.98 112.15 61.53 110.55
  L 62.93 108.04
  Q 63.26 107.45 62.65 107.15
  L 60.20 105.96
  Q 59.66 105.70 59.93 105.16
  L 63.13 98.97
  A 0.56 0.55 26.6 0 0 62.87 98.21
  L 60.26 96.99
  A 0.52 0.51 26.6 0 1 60.02 96.28
  L 63.73 89.26
  A 0.64 0.64 0.0 0 0 63.44 88.38
  L 60.97 87.18
  Q 60.40 86.90 60.69 86.34
  L 64.25 79.60
  A 0.83 0.82 27.3 0 0 63.88 78.47
  L 61.53 77.33
  Q 61.00 77.08 61.28 76.55
  L 64.51 70.48
  Q 64.79 69.95 64.26 69.68
  L 60.85 67.91
  Q 60.33 67.65 60.60 67.13
  L 64.06 60.56
  Z"
/>
<rect fill="#949697" x="-3.96" y="-13.99" transform="translate(43.04,92.99) rotate(0.1)" width="7.92" height="27.98" rx="0.60"/>
<path fill="#949697" d="
  M 65.41 112.02
  Q 71.22 114.28 76.48 113.67
  Q 79.20 113.56 81.84 113.25
  Q 84.97 112.88 87.18 112.88
  Q 98.06 112.87 108.95 112.88
  Q 109.44 112.88 109.89 112.69
  Q 110.86 112.26 111.80 112.54
  Q 110.79 113.61 109.24 113.61
  Q 96.26 113.64 83.25 113.62
  Q 83.04 113.62 82.84 113.75
  Q 82.44 114.02 81.97 114.06
  Q 77.68 114.40 73.68 114.59
  Q 71.63 114.69 69.20 114.30
  Q 66.92 113.93 64.60 113.65
  L 65.41 112.02
  Z"
/>
<path fill="#949697" d="
  M 60.00 112.97
  Q 59.99 113.09 59.98 113.21
  L 58.97 114.67
  Q 46.19 114.27 33.42 114.38
  Q 30.86 114.40 28.65 114.02
  Q 25.99 113.57 23.32 113.56
  Q 21.41 113.55 19.84 115.07
  Q 18.41 116.45 17.97 118.04
  A 1.20 1.19 -5.6 0 1 17.32 118.82
  Q 14.07 120.35 11.67 121.88
  Q 9.63 123.18 10.76 125.58
  Q 9.75 124.89 9.58 124.10
  Q 9.45 123.44 10.22 122.59
  C 11.09 121.62 11.72 120.91 12.92 120.25
  Q 16.37 118.35 18.78 114.55
  C 19.88 112.82 21.66 112.36 23.58 112.36
  Q 32.09 112.39 40.09 112.38
  Q 42.95 112.38 46.03 112.84
  Q 49.51 113.35 52.73 113.64
  C 55.25 113.87 57.52 113.40 60.00 112.97
  Z"
/>
<path fill="#bd1d2c" d="
  M 59.98 113.21
  Q 59.37 115.04 60.23 116.39
  Q 59.06 116.42 58.97 114.67
  L 59.98 113.21
  Z"
/>
</svg>
