<?xml version="1.0" encoding="UTF-8" standalone="no"?>
<!DOCTYPE svg PUBLIC "-//W3C//DTD SVG 1.1//EN" "http://www.w3.org/Graphics/SVG/1.1/DTD/svg11.dtd">
<svg xmlns="http://www.w3.org/2000/svg" version="1.1" viewBox="0.00 0.00 128.00 128.00">
<g stroke-width="2.00" fill="none" stroke-linecap="butt">
<path stroke="#bbbbbb" vector-effect="non-scaling-stroke" d="
  M 4.44 121.57
  Q 4.59 123.52 3.72 126.32
  Q 3.38 127.41 4.52 127.38
  L 6.64 127.34
  A 1.16 1.16 0.0 0 0 7.74 125.88
  Q 7.38 124.56 7.39 123.25
  Q 7.39 122.31 8.12 121.60
  Q 10.04 119.71 11.91 118.87
  Q 13.38 118.21 14.33 116.95
  Q 15.76 115.05 17.57 113.00
  Q 18.94 111.45 20.71 111.05
  C 23.43 110.44 26.31 111.34 29.10 111.41
  Q 43.65 111.78 58.21 111.83"
/>
<path stroke="#969696" vector-effect="non-scaling-stroke" d="
  M 58.21 111.83
  L 79.75 112.95
  Q 80.23 112.98 80.63 113.27
  Q 80.93 113.49 81.29 113.42
  Q 81.75 113.34 82.23 113.38
  Q 87.22 113.77 93.46 113.59
  Q 93.77 113.59 93.79 113.88
  Q 93.81 114.15 93.54 114.12
  Q 93.20 114.07 92.91 114.30
  Q 92.57 114.57 93.01 114.59
  Q 95.48 114.68 97.56 114.56
  Q 97.63 114.56 97.63 114.62
  Q 97.63 114.74 97.66 114.62
  Q 97.67 114.56 97.61 114.57
  Q 88.70 115.01 79.00 114.84
  Q 78.64 114.83 78.36 114.55
  A 0.83 0.80 63.7 0 0 77.70 114.31
  C 74.52 114.66 71.59 113.66 68.50 113.94
  Q 65.48 114.22 62.65 114.66
  Q 59.01 115.22 56.80 115.17
  Q 53.23 115.09 49.74 114.88
  Q 38.48 114.21 24.48 114.40
  Q 20.24 114.46 18.20 117.87
  C 17.07 119.74 14.89 121.22 12.70 121.55
  A 2.59 2.55 10.0 0 0 10.84 122.83
  Q 9.68 124.92 11.22 125.59
  Q 12.71 126.25 14.72 126.15
  Q 37.37 125.00 52.25 125.13
  Q 65.04 125.25 72.25 125.22
  Q 98.42 125.08 126.09 126.27
  A 0.64 0.64 0.0 0 0 126.76 125.60
  Q 126.44 119.66 126.45 114.76
  Q 126.54 70.93 126.09 27.21
  C 126.04 22.05 126.70 17.22 126.44 12.09
  Q 126.33 9.93 124.28 10.14
  A 0.99 0.97 11.7 0 0 123.52 10.63
  Q 122.43 12.51 121.20 14.29
  Q 121.09 14.44 120.93 14.34
  L 120.92 14.34
  Q 120.76 14.24 120.85 14.08
  Q 121.56 12.80 122.26 11.62
  Q 122.74 10.82 122.01 11.40
  Q 121.39 11.89 121.20 12.57
  Q 120.92 13.59 120.36 14.51
  Q 118.98 16.76 115.15 19.40"
/>
<path stroke="#bbbbbb" vector-effect="non-scaling-stroke" d="
  M 115.15 19.40
  Q 117.19 16.50 118.79 13.67
  Q 119.57 12.29 120.03 10.57
  Q 120.52 8.72 122.00 7.40
  Q 122.44 7.01 122.55 6.45
  Q 122.67 5.86 123.26 5.87
  L 126.61 5.90
  Q 127.62 5.91 127.62 4.89
  L 127.62 4.26
  Q 127.62 3.06 126.43 2.95
  L 120.75 2.42"
/>
<path stroke="#d9d9d9" vector-effect="non-scaling-stroke" d="
  M 120.75 2.42
  Q 117.52 1.32 113.75 1.30
  Q 64.48 1.06 15.20 1.26
  C 10.84 1.28 6.74 0.61 2.39 0.84
  A 1.60 1.60 0.0 0 0 0.89 2.68
  C 1.89 9.19 2.30 15.43 2.08 22.13
  Q 1.81 30.22 1.85 39.24
  Q 1.98 65.37 2.02 91.50
  Q 2.04 103.14 2.14 115.00
  Q 2.16 117.97 4.44 121.57"
/>
<path stroke="#e1e1e1" vector-effect="non-scaling-stroke" d="
  M 120.75 2.42
  Q 122.42 3.91 121.09 5.59
  Q 116.63 11.19 110.89 15.52
  C 108.66 17.21 106.98 16.81 104.51 16.68
  Q 102.04 16.54 99.47 16.52
  Q 58.10 16.13 19.07 16.38
  A 2.21 2.20 89.9 0 0 16.88 18.59
  Q 16.98 62.51 17.03 106.54
  Q 17.03 107.85 16.50 109.07
  Q 16.02 110.20 14.91 111.08
  Q 13.48 112.22 12.32 113.93
  Q 9.04 118.77 4.44 121.57"
/>
<path stroke="#9e9f9f" vector-effect="non-scaling-stroke" d="
  M 115.15 19.40
  Q 114.17 20.04 113.48 21.52
  Q 113.27 21.98 113.38 22.47
  Q 114.26 26.17 114.09 29.92
  Q 113.85 35.00 113.85 35.08
  Q 113.95 64.08 114.07 93.07
  C 114.10 98.17 113.52 103.49 113.61 108.76
  A 3.05 3.04 87.1 0 1 110.81 111.86
  C 108.45 112.05 106.08 111.63 103.70 111.62
  Q 96.73 111.62 89.75 111.62
  Q 89.64 111.62 89.48 111.72
  Q 89.22 111.89 88.90 111.88
  L 58.21 111.83"
/>
<path stroke="#626262" vector-effect="non-scaling-stroke" d="
  M 59.26 87.99
  L 46.90 88.16
  Q 45.97 88.17 45.97 89.10
  L 45.97 93.98
  A 1.01 1.01 0.0 0 0 46.98 94.99
  L 80.05 94.96
  Q 81.06 94.96 81.05 93.95
  L 81.01 88.89
  Q 81.00 88.02 80.14 88.02
  L 68.75 88.00
  A 0.75 0.75 0.0 0 1 68.00 87.25
  L 68.00 30.72
  Q 68.00 29.94 67.22 29.96
  L 62.22 30.03
  Q 61.62 30.03 61.53 30.64
  C 60.44 38.27 52.78 38.76 46.47 39.01
  A 0.49 0.49 0.0 0 0 46.00 39.50
  L 45.99 44.24
  Q 45.99 44.99 46.74 44.99
  L 59.51 45.01
  A 0.50 0.49 90.0 0 1 60.00 45.51
  L 60.00 87.24
  Q 60.00 87.98 59.26 87.99"
/>
</g>
<path fill="#b2b2b2" d="
  M 0.00 0.00
  L 128.00 0.00
  L 128.00 128.00
  L 0.00 128.00
  L 0.00 0.00
  Z
  M 4.44 121.57
  Q 4.59 123.52 3.72 126.32
  Q 3.38 127.41 4.52 127.38
  L 6.64 127.34
  A 1.16 1.16 0.0 0 0 7.74 125.88
  Q 7.38 124.56 7.39 123.25
  Q 7.39 122.31 8.12 121.60
  Q 10.04 119.71 11.91 118.87
  Q 13.38 118.21 14.33 116.95
  Q 15.76 115.05 17.57 113.00
  Q 18.94 111.45 20.71 111.05
  C 23.43 110.44 26.31 111.34 29.10 111.41
  Q 43.65 111.78 58.21 111.83
  L 79.75 112.95
  Q 80.23 112.98 80.63 113.27
  Q 80.93 113.49 81.29 113.42
  Q 81.75 113.34 82.23 113.38
  Q 87.22 113.77 93.46 113.59
  Q 93.77 113.59 93.79 113.88
  Q 93.81 114.15 93.54 114.12
  Q 93.20 114.07 92.91 114.30
  Q 92.57 114.57 93.01 114.59
  Q 95.48 114.68 97.56 114.56
  Q 97.63 114.56 97.63 114.62
  Q 97.63 114.74 97.66 114.62
  Q 97.67 114.56 97.61 114.57
  Q 88.70 115.01 79.00 114.84
  Q 78.64 114.83 78.36 114.55
  A 0.83 0.80 63.7 0 0 77.70 114.31
  C 74.52 114.66 71.59 113.66 68.50 113.94
  Q 65.48 114.22 62.65 114.66
  Q 59.01 115.22 56.80 115.17
  Q 53.23 115.09 49.74 114.88
  Q 38.48 114.21 24.48 114.40
  Q 20.24 114.46 18.20 117.87
  C 17.07 119.74 14.89 121.22 12.70 121.55
  A 2.59 2.55 10.0 0 0 10.84 122.83
  Q 9.68 124.92 11.22 125.59
  Q 12.71 126.25 14.72 126.15
  Q 37.37 125.00 52.25 125.13
  Q 65.04 125.25 72.25 125.22
  Q 98.42 125.08 126.09 126.27
  A 0.64 0.64 0.0 0 0 126.76 125.60
  Q 126.44 119.66 126.45 114.76
  Q 126.54 70.93 126.09 27.21
  C 126.04 22.05 126.70 17.22 126.44 12.09
  Q 126.33 9.93 124.28 10.14
  A 0.99 0.97 11.7 0 0 123.52 10.63
  Q 122.43 12.51 121.20 14.29
  Q 121.09 14.44 120.93 14.34
  L 120.92 14.34
  Q 120.76 14.24 120.85 14.08
  Q 121.56 12.80 122.26 11.62
  Q 122.74 10.82 122.01 11.40
  Q 121.39 11.89 121.20 12.57
  Q 120.92 13.59 120.36 14.51
  Q 118.98 16.76 115.15 19.40
  Q 117.19 16.50 118.79 13.67
  Q 119.57 12.29 120.03 10.57
  Q 120.52 8.72 122.00 7.40
  Q 122.44 7.01 122.55 6.45
  Q 122.67 5.86 123.26 5.87
  L 126.61 5.90
  Q 127.62 5.91 127.62 4.89
  L 127.62 4.26
  Q 127.62 3.06 126.43 2.95
  L 120.75 2.42
  Q 117.52 1.32 113.75 1.30
  Q 64.48 1.06 15.20 1.26
  C 10.84 1.28 6.74 0.61 2.39 0.84
  A 1.60 1.60 0.0 0 0 0.89 2.68
  C 1.89 9.19 2.30 15.43 2.08 22.13
  Q 1.81 30.22 1.85 39.24
  Q 1.98 65.37 2.02 91.50
  Q 2.04 103.14 2.14 115.00
  Q 2.16 117.97 4.44 121.57
  Z"
/>
<path fill="#ffffff" d="
  M 120.75 2.42
  Q 122.42 3.91 121.09 5.59
  Q 116.63 11.19 110.89 15.52
  C 108.66 17.21 106.98 16.81 104.51 16.68
  Q 102.04 16.54 99.47 16.52
  Q 58.10 16.13 19.07 16.38
  A 2.21 2.20 89.9 0 0 16.88 18.59
  Q 16.98 62.51 17.03 106.54
  Q 17.03 107.85 16.50 109.07
  Q 16.02 110.20 14.91 111.08
  Q 13.48 112.22 12.32 113.93
  Q 9.04 118.77 4.44 121.57
  Q 2.16 117.97 2.14 115.00
  Q 2.04 103.14 2.02 91.50
  Q 1.98 65.37 1.85 39.24
  Q 1.81 30.22 2.08 22.13
  C 2.30 15.43 1.89 9.19 0.89 2.68
  A 1.60 1.60 0.0 0 1 2.39 0.84
  C 6.74 0.61 10.84 1.28 15.20 1.26
  Q 64.48 1.06 113.75 1.30
  Q 117.52 1.32 120.75 2.42
  Z"
/>
<path fill="#c3c3c3" d="
  M 120.75 2.42
  L 126.43 2.95
  Q 127.62 3.06 127.62 4.26
  L 127.62 4.89
  Q 127.62 5.91 126.61 5.90
  L 123.26 5.87
  Q 122.67 5.86 122.55 6.45
  Q 122.44 7.01 122.00 7.40
  Q 120.52 8.72 120.03 10.57
  Q 119.57 12.29 118.79 13.67
  Q 117.19 16.50 115.15 19.40
  Q 114.17 20.04 113.48 21.52
  Q 113.27 21.98 113.38 22.47
  Q 114.26 26.17 114.09 29.92
  Q 113.85 35.00 113.85 35.08
  Q 113.95 64.08 114.07 93.07
  C 114.10 98.17 113.52 103.49 113.61 108.76
  A 3.05 3.04 87.1 0 1 110.81 111.86
  C 108.45 112.05 106.08 111.63 103.70 111.62
  Q 96.73 111.62 89.75 111.62
  Q 89.64 111.62 89.48 111.72
  Q 89.22 111.89 88.90 111.88
  L 58.21 111.83
  Q 43.65 111.78 29.10 111.41
  C 26.31 111.34 23.43 110.44 20.71 111.05
  Q 18.94 111.45 17.57 113.00
  Q 15.76 115.05 14.33 116.95
  Q 13.38 118.21 11.91 118.87
  Q 10.04 119.71 8.12 121.60
  Q 7.39 122.31 7.39 123.25
  Q 7.38 124.56 7.74 125.88
  A 1.16 1.16 0.0 0 1 6.64 127.34
  L 4.52 127.38
  Q 3.38 127.41 3.72 126.32
  Q 4.59 123.52 4.44 121.57
  Q 9.04 118.77 12.32 113.93
  Q 13.48 112.22 14.91 111.08
  Q 16.02 110.20 16.50 109.07
  Q 17.03 107.85 17.03 106.54
  Q 16.98 62.51 16.88 18.59
  A 2.21 2.20 89.9 0 1 19.07 16.38
  Q 58.10 16.13 99.47 16.52
  Q 102.04 16.54 104.51 16.68
  C 106.98 16.81 108.66 17.21 110.89 15.52
  Q 116.63 11.19 121.09 5.59
  Q 122.42 3.91 120.75 2.42
  Z
  M 59.26 87.99
  L 46.90 88.16
  Q 45.97 88.17 45.97 89.10
  L 45.97 93.98
  A 1.01 1.01 0.0 0 0 46.98 94.99
  L 80.05 94.96
  Q 81.06 94.96 81.05 93.95
  L 81.01 88.89
  Q 81.00 88.02 80.14 88.02
  L 68.75 88.00
  A 0.75 0.75 0.0 0 1 68.00 87.25
  L 68.00 30.72
  Q 68.00 29.94 67.22 29.96
  L 62.22 30.03
  Q 61.62 30.03 61.53 30.64
  C 60.44 38.27 52.78 38.76 46.47 39.01
  A 0.49 0.49 0.0 0 0 46.00 39.50
  L 45.99 44.24
  Q 45.99 44.99 46.74 44.99
  L 59.51 45.01
  A 0.50 0.49 90.0 0 1 60.00 45.51
  L 60.00 87.24
  Q 60.00 87.98 59.26 87.99
  Z"
/>
<path fill="#797a7a" d="
  M 58.21 111.83
  L 88.90 111.88
  Q 89.22 111.89 89.48 111.72
  Q 89.64 111.62 89.75 111.62
  Q 96.73 111.62 103.70 111.62
  C 106.08 111.63 108.45 112.05 110.81 111.86
  A 3.05 3.04 87.1 0 0 113.61 108.76
  C 113.52 103.49 114.10 98.17 114.07 93.07
  Q 113.95 64.08 113.85 35.08
  Q 113.85 35.00 114.09 29.92
  Q 114.26 26.17 113.38 22.47
  Q 113.27 21.98 113.48 21.52
  Q 114.17 20.04 115.15 19.40
  Q 118.98 16.76 120.36 14.51
  Q 120.92 13.59 121.20 12.57
  Q 121.39 11.89 122.01 11.40
  Q 122.74 10.82 122.26 11.62
  Q 121.56 12.80 120.85 14.08
  Q 120.76 14.24 120.92 14.34
  L 120.93 14.34
  Q 121.09 14.44 121.20 14.29
  Q 122.43 12.51 123.52 10.63
  A 0.99 0.97 11.7 0 1 124.28 10.14
  Q 126.33 9.93 126.44 12.09
  C 126.70 17.22 126.04 22.05 126.09 27.21
  Q 126.54 70.93 126.45 114.76
  Q 126.44 119.66 126.76 125.60
  A 0.64 0.64 0.0 0 1 126.09 126.27
  Q 98.42 125.08 72.25 125.22
  Q 65.04 125.25 52.25 125.13
  Q 37.37 125.00 14.72 126.15
  Q 12.71 126.25 11.22 125.59
  Q 9.68 124.92 10.84 122.83
  A 2.59 2.55 10.0 0 1 12.70 121.55
  C 14.89 121.22 17.07 119.74 18.20 117.87
  Q 20.24 114.46 24.48 114.40
  Q 38.48 114.21 49.74 114.88
  Q 53.23 115.09 56.80 115.17
  Q 59.01 115.22 62.65 114.66
  Q 65.48 114.22 68.50 113.94
  C 71.59 113.66 74.52 114.66 77.70 114.31
  A 0.83 0.80 63.7 0 1 78.36 114.55
  Q 78.64 114.83 79.00 114.84
  Q 88.70 115.01 97.61 114.57
  Q 97.67 114.56 97.66 114.62
  Q 97.63 114.74 97.63 114.62
  Q 97.63 114.56 97.56 114.56
  Q 95.48 114.68 93.01 114.59
  Q 92.57 114.57 92.91 114.30
  Q 93.20 114.07 93.54 114.12
  Q 93.81 114.15 93.79 113.88
  Q 93.77 113.59 93.46 113.59
  Q 87.22 113.77 82.23 113.38
  Q 81.75 113.34 81.29 113.42
  Q 80.93 113.49 80.63 113.27
  Q 80.23 112.98 79.75 112.95
  L 58.21 111.83
  Z"
/>
<path fill="#000000" d="
  M 60.00 87.24
  L 60.00 45.51
  A 0.50 0.49 -90.0 0 0 59.51 45.01
  L 46.74 44.99
  Q 45.99 44.99 45.99 44.24
  L 46.00 39.50
  A 0.49 0.49 0.0 0 1 46.47 39.01
  C 52.78 38.76 60.44 38.27 61.53 30.64
  Q 61.62 30.03 62.22 30.03
  L 67.22 29.96
  Q 68.00 29.94 68.00 30.72
  L 68.00 87.25
  A 0.75 0.75 0.0 0 0 68.75 88.00
  L 80.14 88.02
  Q 81.00 88.02 81.01 88.89
  L 81.05 93.95
  Q 81.06 94.96 80.05 94.96
  L 46.98 94.99
  A 1.01 1.01 0.0 0 1 45.97 93.98
  L 45.97 89.10
  Q 45.97 88.17 46.90 88.16
  L 59.26 87.99
  Q 60.00 87.98 60.00 87.24
  Z"
/>
</svg>
