<?xml version="1.0" encoding="UTF-8" standalone="no"?>
<!DOCTYPE svg PUBLIC "-//W3C//DTD SVG 1.1//EN" "http://www.w3.org/Graphics/SVG/1.1/DTD/svg11.dtd">
<svg xmlns="http://www.w3.org/2000/svg" version="1.1" viewBox="0.00 0.00 128.00 128.00">
<g stroke-width="2.00" fill="none" stroke-linecap="butt">
<path stroke="#bbbbbb" vector-effect="non-scaling-stroke" d="
  M 3.01 120.32
  Q 5.23 122.82 3.73 126.17
  A 0.73 0.73 0.0 0 0 4.11 127.14
  Q 6.85 128.31 8.17 126.91
  Q 8.56 126.49 8.22 126.03
  Q 7.12 124.54 7.51 122.54
  Q 7.60 122.05 8.04 121.81
  Q 9.48 121.02 10.54 119.73
  A 1.48 1.45 12.9 0 1 11.36 119.23
  C 14.49 118.53 15.14 115.49 17.63 113.94
  Q 18.54 113.37 19.10 112.50
  Q 19.41 112.02 19.97 111.92
  C 23.91 111.27 27.71 111.85 31.61 111.86
  C 39.07 111.89 46.22 111.97 53.79 111.67
  Q 61.84 111.35 69.50 111.69
  Q 70.13 111.72 74.51 111.67
  Q 77.01 111.64 79.55 112.09"
/>
<path stroke="#969696" vector-effect="non-scaling-stroke" d="
  M 79.55 112.09
  C 82.11 112.04 84.71 112.35 87.15 112.25
  Q 94.09 111.97 101.02 112.19
  Q 101.18 112.20 101.19 112.36
  L 101.19 112.37
  Q 101.19 112.51 101.06 112.52
  Q 92.86 113.40 86.39 113.06
  Q 71.86 112.30 56.20 112.65
  Q 55.70 112.66 55.31 112.98
  Q 55.06 113.19 54.74 113.14
  Q 54.50 113.10 54.25 113.10
  Q 42.53 113.18 30.82 113.08
  C 27.93 113.05 24.24 112.63 20.71 113.26
  Q 20.19 113.35 19.80 113.72
  Q 17.51 115.98 15.40 118.55
  Q 14.37 119.80 12.80 120.81
  Q 11.27 121.79 9.86 122.70
  A 1.44 1.43 -48.5 0 0 10.01 125.20
  C 11.55 125.94 13.50 126.23 15.38 126.14
  Q 35.35 125.12 45.96 125.17
  C 62.17 125.24 78.58 124.90 95.00 125.29
  Q 110.91 125.67 126.07 126.26
  A 0.67 0.67 0.0 0 0 126.77 125.56
  Q 126.30 116.24 126.36 105.63
  Q 126.56 69.59 126.09 26.91
  C 126.03 21.87 126.75 16.76 126.41 11.71
  C 126.28 9.74 124.10 8.88 122.66 10.29
  Q 121.72 11.22 121.47 12.51
  Q 121.38 13.00 121.12 13.43
  L 119.91 15.46
  A 0.96 0.95 -83.3 0 1 119.41 15.86
  Q 118.49 16.17 118.11 17.07
  Q 117.97 17.40 117.71 17.16
  Q 117.58 17.04 117.58 16.85
  Q 117.60 16.44 117.92 16.17
  Q 118.15 15.99 118.36 15.78
  Q 119.03 15.12 118.22 15.58
  Q 117.77 15.83 117.64 16.31
  Q 117.51 16.79 117.14 17.13
  L 113.93 20.05"
/>
<path stroke="#bbbbbb" vector-effect="non-scaling-stroke" d="
  M 113.93 20.05
  Q 114.92 18.12 116.13 17.00
  Q 116.55 16.61 116.84 16.05
  L 121.56 6.88
  A 1.31 1.25 0.0 0 1 122.18 6.29
  Q 123.33 5.76 124.64 5.84
  Q 125.48 5.89 124.72 5.54
  Q 122.21 4.35 121.44 6.45
  Q 121.23 7.01 121.12 6.42
  Q 121.07 6.15 120.86 6.04"
/>
<path stroke="#d9d9d9" vector-effect="non-scaling-stroke" d="
  M 120.86 6.04
  L 121.36 5.24
  A 2.09 2.08 23.1 0 0 120.10 2.11
  Q 117.23 1.39 114.26 1.34
  Q 92.45 0.96 69.75 1.18
  C 51.13 1.37 33.93 1.17 14.00 1.29
  C 10.15 1.31 5.86 0.28 1.89 0.99
  A 1.25 1.25 0.0 0 0 0.88 2.40
  C 1.84 8.99 2.31 15.37 2.06 22.17
  Q 1.72 31.74 1.81 39.00
  Q 2.24 71.71 1.87 91.75
  Q 1.57 107.50 3.01 120.32"
/>
<path stroke="#e1e1e1" vector-effect="non-scaling-stroke" d="
  M 120.86 6.04
  C 118.56 8.60 111.24 16.76 107.89 16.68
  Q 83.86 16.04 59.02 16.30
  C 45.81 16.44 32.08 16.17 19.05 16.33
  A 2.17 2.17 0.0 0 0 16.90 18.51
  Q 17.05 58.17 16.88 100.19
  C 16.86 103.66 18.29 108.14 15.03 110.73
  Q 13.14 112.22 11.86 114.07
  Q 9.28 117.80 6.62 120.36
  Q 5.37 121.58 3.01 120.32"
/>
<path stroke="#9e9f9e" vector-effect="non-scaling-stroke" d="
  M 113.93 20.05
  Q 113.73 29.04 113.83 38.81
  C 113.84 39.79 113.48 40.54 113.66 41.50
  Q 113.84 42.49 113.85 43.47
  Q 113.96 62.04 114.08 80.60
  Q 114.10 83.66 113.74 89.38
  Q 113.46 93.76 113.56 98.17
  Q 113.59 99.95 113.37 103.83
  Q 113.19 106.83 113.62 109.51
  A 1.96 1.95 85.3 0 1 111.71 111.77
  L 79.55 112.09"
/>
<path stroke="#626262" vector-effect="non-scaling-stroke" d="
  M 50.81 87.00
  Q 49.75 87.00 50.58 86.35
  Q 64.15 75.62 74.32 64.68
  C 85.69 52.46 85.73 32.30 65.66 29.36
  Q 55.29 27.84 43.26 32.86
  Q 43.00 32.97 42.99 33.26
  Q 42.97 38.06 43.13 42.12
  A 0.05 0.05 0.0 0 0 43.20 42.16
  Q 51.23 37.33 60.36 37.02
  C 74.39 36.55 75.80 49.88 69.08 58.72
  Q 65.62 63.27 61.23 67.51
  Q 51.94 76.49 41.68 84.67
  A 1.83 1.82 -19.6 0 0 41.00 86.09
  L 40.99 94.25
  Q 40.98 95.01 41.75 95.01
  L 84.29 94.99
  Q 85.07 94.99 85.06 94.21
  L 85.02 87.76
  A 0.77 0.76 89.6 0 0 84.26 87.00
  L 50.81 87.00"
/>
</g>
<path fill="#b2b2b2" d="
  M 0.00 0.00
  L 128.00 0.00
  L 128.00 128.00
  L 0.00 128.00
  L 0.00 0.00
  Z
  M 3.01 120.32
  Q 5.23 122.82 3.73 126.17
  A 0.73 0.73 0.0 0 0 4.11 127.14
  Q 6.85 128.31 8.17 126.91
  Q 8.56 126.49 8.22 126.03
  Q 7.12 124.54 7.51 122.54
  Q 7.60 122.05 8.04 121.81
  Q 9.48 121.02 10.54 119.73
  A 1.48 1.45 12.9 0 1 11.36 119.23
  C 14.49 118.53 15.14 115.49 17.63 113.94
  Q 18.54 113.37 19.10 112.50
  Q 19.41 112.02 19.97 111.92
  C 23.91 111.27 27.71 111.85 31.61 111.86
  C 39.07 111.89 46.22 111.97 53.79 111.67
  Q 61.84 111.35 69.50 111.69
  Q 70.13 111.72 74.51 111.67
  Q 77.01 111.64 79.55 112.09
  C 82.11 112.04 84.71 112.35 87.15 112.25
  Q 94.09 111.97 101.02 112.19
  Q 101.18 112.20 101.19 112.36
  L 101.19 112.37
  Q 101.19 112.51 101.06 112.52
  Q 92.86 113.40 86.39 113.06
  Q 71.86 112.30 56.20 112.65
  Q 55.70 112.66 55.31 112.98
  Q 55.06 113.19 54.74 113.14
  Q 54.50 113.10 54.25 113.10
  Q 42.53 113.18 30.82 113.08
  C 27.93 113.05 24.24 112.63 20.71 113.26
  Q 20.19 113.35 19.80 113.72
  Q 17.51 115.98 15.40 118.55
  Q 14.37 119.80 12.80 120.81
  Q 11.27 121.79 9.86 122.70
  A 1.44 1.43 -48.5 0 0 10.01 125.20
  C 11.55 125.94 13.50 126.23 15.38 126.14
  Q 35.35 125.12 45.96 125.17
  C 62.17 125.24 78.58 124.90 95.00 125.29
  Q 110.91 125.67 126.07 126.26
  A 0.67 0.67 0.0 0 0 126.77 125.56
  Q 126.30 116.24 126.36 105.63
  Q 126.56 69.59 126.09 26.91
  C 126.03 21.87 126.75 16.76 126.41 11.71
  C 126.28 9.74 124.10 8.88 122.66 10.29
  Q 121.72 11.22 121.47 12.51
  Q 121.38 13.00 121.12 13.43
  L 119.91 15.46
  A 0.96 0.95 -83.3 0 1 119.41 15.86
  Q 118.49 16.17 118.11 17.07
  Q 117.97 17.40 117.71 17.16
  Q 117.58 17.04 117.58 16.85
  Q 117.60 16.44 117.92 16.17
  Q 118.15 15.99 118.36 15.78
  Q 119.03 15.12 118.22 15.58
  Q 117.77 15.83 117.64 16.31
  Q 117.51 16.79 117.14 17.13
  L 113.93 20.05
  Q 114.92 18.12 116.13 17.00
  Q 116.55 16.61 116.84 16.05
  L 121.56 6.88
  A 1.31 1.25 0.0 0 1 122.18 6.29
  Q 123.33 5.76 124.64 5.84
  Q 125.48 5.89 124.72 5.54
  Q 122.21 4.35 121.44 6.45
  Q 121.23 7.01 121.12 6.42
  Q 121.07 6.15 120.86 6.04
  L 121.36 5.24
  A 2.09 2.08 23.1 0 0 120.10 2.11
  Q 117.23 1.39 114.26 1.34
  Q 92.45 0.96 69.75 1.18
  C 51.13 1.37 33.93 1.17 14.00 1.29
  C 10.15 1.31 5.86 0.28 1.89 0.99
  A 1.25 1.25 0.0 0 0 0.88 2.40
  C 1.84 8.99 2.31 15.37 2.06 22.17
  Q 1.72 31.74 1.81 39.00
  Q 2.24 71.71 1.87 91.75
  Q 1.57 107.50 3.01 120.32
  Z"
/>
<path fill="#ffffff" d="
  M 120.86 6.04
  C 118.56 8.60 111.24 16.76 107.89 16.68
  Q 83.86 16.04 59.02 16.30
  C 45.81 16.44 32.08 16.17 19.05 16.33
  A 2.17 2.17 0.0 0 0 16.90 18.51
  Q 17.05 58.17 16.88 100.19
  C 16.86 103.66 18.29 108.14 15.03 110.73
  Q 13.14 112.22 11.86 114.07
  Q 9.28 117.80 6.62 120.36
  Q 5.37 121.58 3.01 120.32
  Q 1.57 107.50 1.87 91.75
  Q 2.24 71.71 1.81 39.00
  Q 1.72 31.74 2.06 22.17
  C 2.31 15.37 1.84 8.99 0.88 2.40
  A 1.25 1.25 0.0 0 1 1.89 0.99
  C 5.86 0.28 10.15 1.31 14.00 1.29
  C 33.93 1.17 51.13 1.37 69.75 1.18
  Q 92.45 0.96 114.26 1.34
  Q 117.23 1.39 120.10 2.11
  A 2.09 2.08 23.1 0 1 121.36 5.24
  L 120.86 6.04
  Z"
/>
<path fill="#c3c3c3" d="
  M 113.93 20.05
  Q 113.73 29.04 113.83 38.81
  C 113.84 39.79 113.48 40.54 113.66 41.50
  Q 113.84 42.49 113.85 43.47
  Q 113.96 62.04 114.08 80.60
  Q 114.10 83.66 113.74 89.38
  Q 113.46 93.76 113.56 98.17
  Q 113.59 99.95 113.37 103.83
  Q 113.19 106.83 113.62 109.51
  A 1.96 1.95 85.3 0 1 111.71 111.77
  L 79.55 112.09
  Q 77.01 111.64 74.51 111.67
  Q 70.13 111.72 69.50 111.69
  Q 61.84 111.35 53.79 111.67
  C 46.22 111.97 39.07 111.89 31.61 111.86
  C 27.71 111.85 23.91 111.27 19.97 111.92
  Q 19.41 112.02 19.10 112.50
  Q 18.54 113.37 17.63 113.94
  C 15.14 115.49 14.49 118.53 11.36 119.23
  A 1.48 1.45 12.9 0 0 10.54 119.73
  Q 9.48 121.02 8.04 121.81
  Q 7.60 122.05 7.51 122.54
  Q 7.12 124.54 8.22 126.03
  Q 8.56 126.49 8.17 126.91
  Q 6.85 128.31 4.11 127.14
  A 0.73 0.73 0.0 0 1 3.73 126.17
  Q 5.23 122.82 3.01 120.32
  Q 5.37 121.58 6.62 120.36
  Q 9.28 117.80 11.86 114.07
  Q 13.14 112.22 15.03 110.73
  C 18.29 108.14 16.86 103.66 16.88 100.19
  Q 17.05 58.17 16.90 18.51
  A 2.17 2.17 0.0 0 1 19.05 16.33
  C 32.08 16.17 45.81 16.44 59.02 16.30
  Q 83.86 16.04 107.89 16.68
  C 111.24 16.76 118.56 8.60 120.86 6.04
  Q 121.07 6.15 121.12 6.42
  Q 121.23 7.01 121.44 6.45
  Q 122.21 4.35 124.72 5.54
  Q 125.48 5.89 124.64 5.84
  Q 123.33 5.76 122.18 6.29
  A 1.31 1.25 0.0 0 0 121.56 6.88
  L 116.84 16.05
  Q 116.55 16.61 116.13 17.00
  Q 114.92 18.12 113.93 20.05
  Z
  M 50.81 87.00
  Q 49.75 87.00 50.58 86.35
  Q 64.15 75.62 74.32 64.68
  C 85.69 52.46 85.73 32.30 65.66 29.36
  Q 55.29 27.84 43.26 32.86
  Q 43.00 32.97 42.99 33.26
  Q 42.97 38.06 43.13 42.12
  A 0.05 0.05 0.0 0 0 43.20 42.16
  Q 51.23 37.33 60.36 37.02
  C 74.39 36.55 75.80 49.88 69.08 58.72
  Q 65.62 63.27 61.23 67.51
  Q 51.94 76.49 41.68 84.67
  A 1.83 1.82 -19.6 0 0 41.00 86.09
  L 40.99 94.25
  Q 40.98 95.01 41.75 95.01
  L 84.29 94.99
  Q 85.07 94.99 85.06 94.21
  L 85.02 87.76
  A 0.77 0.76 89.6 0 0 84.26 87.00
  L 50.81 87.00
  Z"
/>
<path fill="#797a79" d="
  M 79.55 112.09
  L 111.71 111.77
  A 1.96 1.95 85.3 0 0 113.62 109.51
  Q 113.19 106.83 113.37 103.83
  Q 113.59 99.95 113.56 98.17
  Q 113.46 93.76 113.74 89.38
  Q 114.10 83.66 114.08 80.60
  Q 113.96 62.04 113.85 43.47
  Q 113.84 42.49 113.66 41.50
  C 113.48 40.54 113.84 39.79 113.83 38.81
  Q 113.73 29.04 113.93 20.05
  L 117.14 17.13
  Q 117.51 16.79 117.64 16.31
  Q 117.77 15.83 118.22 15.58
  Q 119.03 15.12 118.36 15.78
  Q 118.15 15.99 117.92 16.17
  Q 117.60 16.44 117.58 16.85
  Q 117.58 17.04 117.71 17.16
  Q 117.97 17.40 118.11 17.07
  Q 118.49 16.17 119.41 15.86
  A 0.96 0.95 -83.3 0 0 119.91 15.46
  L 121.12 13.43
  Q 121.38 13.00 121.47 12.51
  Q 121.72 11.22 122.66 10.29
  C 124.10 8.88 126.28 9.74 126.41 11.71
  C 126.75 16.76 126.03 21.87 126.09 26.91
  Q 126.56 69.59 126.36 105.63
  Q 126.30 116.24 126.77 125.56
  A 0.67 0.67 0.0 0 1 126.07 126.26
  Q 110.91 125.67 95.00 125.29
  C 78.58 124.90 62.17 125.24 45.96 125.17
  Q 35.35 125.12 15.38 126.14
  C 13.50 126.23 11.55 125.94 10.01 125.20
  A 1.44 1.43 -48.5 0 1 9.86 122.70
  Q 11.27 121.79 12.80 120.81
  Q 14.37 119.80 15.40 118.55
  Q 17.51 115.98 19.80 113.72
  Q 20.19 113.35 20.71 113.26
  C 24.24 112.63 27.93 113.05 30.82 113.08
  Q 42.53 113.18 54.25 113.10
  Q 54.50 113.10 54.74 113.14
  Q 55.06 113.19 55.31 112.98
  Q 55.70 112.66 56.20 112.65
  Q 71.86 112.30 86.39 113.06
  Q 92.86 113.40 101.06 112.52
  Q 101.19 112.51 101.19 112.37
  L 101.19 112.36
  Q 101.18 112.20 101.02 112.19
  Q 94.09 111.97 87.15 112.25
  C 84.71 112.35 82.11 112.04 79.55 112.09
  Z"
/>
<path fill="#000000" d="
  M 50.81 87.00
  L 84.26 87.00
  A 0.77 0.76 89.6 0 1 85.02 87.76
  L 85.06 94.21
  Q 85.07 94.99 84.29 94.99
  L 41.75 95.01
  Q 40.98 95.01 40.99 94.25
  L 41.00 86.09
  A 1.83 1.82 -19.6 0 1 41.68 84.67
  Q 51.94 76.49 61.23 67.51
  Q 65.62 63.27 69.08 58.72
  C 75.80 49.88 74.39 36.55 60.36 37.02
  Q 51.23 37.33 43.20 42.16
  A 0.05 0.05 0.0 0 1 43.13 42.12
  Q 42.97 38.06 42.99 33.26
  Q 43.00 32.97 43.26 32.86
  Q 55.29 27.84 65.66 29.36
  C 85.73 32.30 85.69 52.46 74.32 64.68
  Q 64.15 75.62 50.58 86.35
  Q 49.75 87.00 50.81 87.00
  Z"
/>
</svg>
