<?xml version="1.0" encoding="UTF-8" standalone="no"?>
<!DOCTYPE svg PUBLIC "-//W3C//DTD SVG 1.1//EN" "http://www.w3.org/Graphics/SVG/1.1/DTD/svg11.dtd">
<svg xmlns="http://www.w3.org/2000/svg" version="1.1" viewBox="0.00 0.00 128.00 128.00">
<g stroke-width="2.00" fill="none" stroke-linecap="butt">
<path stroke="#bbbbbb" vector-effect="non-scaling-stroke" d="
  M 3.48 120.02
  Q 4.86 123.34 3.66 126.31
  A 0.88 0.88 0.0 0 0 4.52 127.52
  L 7.01 127.42
  A 0.99 0.98 81.7 0 0 7.92 126.19
  Q 7.42 124.24 7.85 122.35
  Q 7.94 121.99 8.22 121.76
  Q 10.91 119.53 13.16 118.26
  Q 14.86 117.29 16.22 114.96
  Q 16.46 114.56 17.08 114.81
  Q 15.17 118.48 11.42 120.04
  Q 10.93 120.24 10.66 120.70
  Q 10.29 121.33 9.69 121.76
  Q 8.90 122.33 8.65 123.27
  Q 8.29 124.64 9.37 125.55
  A 1.29 1.28 62.7 0 0 10.26 125.84
  Q 11.26 125.78 12.06 126.09"
/>
<path stroke="#969696" vector-effect="non-scaling-stroke" d="
  M 12.06 126.09
  Q 68.98 124.12 126.19 126.20
  A 0.56 0.55 90.0 0 0 126.77 125.61
  Q 126.41 119.17 126.41 112.37
  Q 126.44 68.91 126.10 27.41
  C 126.05 22.19 126.71 17.06 126.43 11.87
  Q 126.33 10.04 124.63 9.62
  A 0.81 0.80 -63.6 0 0 123.78 9.91
  Q 123.06 10.84 121.97 11.25
  Q 121.56 11.41 121.47 11.83
  Q 120.34 16.94 114.35 19.64"
/>
<path stroke="#bbbbbb" vector-effect="non-scaling-stroke" d="
  M 114.35 19.64
  L 117.84 14.99
  Q 118.11 14.63 118.16 14.18
  Q 118.25 13.39 118.94 12.95
  A 1.56 1.52 80.1 0 0 119.63 11.94
  Q 120.26 8.82 122.50 6.34
  Q 122.86 5.94 123.40 5.91
  Q 125.26 5.83 127.11 5.93
  Q 127.26 5.94 127.36 5.82
  Q 127.39 5.78 127.40 5.73
  Q 127.43 5.53 127.23 5.57
  Q 125.26 5.98 123.52 5.21
  A 1.54 1.53 -70.0 0 0 121.43 6.19
  Q 120.68 8.82 118.69 10.60
  Q 118.45 10.81 118.63 11.08
  Q 118.73 11.23 118.62 11.35
  Q 118.33 11.68 117.91 11.77
  Q 115.41 12.31 113.27 13.72"
/>
<path stroke="#d9d9d9" vector-effect="non-scaling-stroke" d="
  M 113.27 13.72
  Q 115.62 11.23 118.29 9.02
  Q 120.62 7.09 121.51 4.92
  A 2.09 2.09 0.0 0 0 120.07 2.10
  Q 117.29 1.42 114.75 1.37
  Q 101.77 1.11 88.50 1.14
  Q 52.12 1.23 16.25 1.29
  C 11.48 1.30 6.91 0.60 2.26 0.85
  A 1.49 1.49 0.0 0 0 0.87 2.58
  Q 2.21 10.78 2.10 17.26
  Q 1.75 37.22 1.91 53.01
  C 2.12 73.92 1.77 97.26 2.09 115.13
  Q 2.14 117.42 3.48 120.02"
/>
<path stroke="#e1e1e1" vector-effect="non-scaling-stroke" d="
  M 113.27 13.72
  C 111.47 15.33 109.48 16.80 106.99 16.72
  Q 85.37 16.00 63.32 16.28
  C 48.47 16.47 34.07 16.21 19.07 16.31
  A 2.20 2.20 0.0 0 0 16.89 18.52
  Q 17.06 60.21 16.85 101.20
  C 16.83 104.88 18.13 107.97 14.86 110.85
  C 11.49 113.81 9.75 117.77 6.22 120.57
  Q 4.59 121.86 3.48 120.02"
/>
<path stroke="#9e9f9f" vector-effect="non-scaling-stroke" d="
  M 114.35 19.64
  Q 113.46 27.14 113.79 36.33
  Q 113.84 37.79 113.59 39.10
  Q 113.32 40.54 113.53 41.93
  Q 113.83 43.97 113.86 46.04
  Q 114.18 72.46 113.75 98.16
  Q 113.65 104.02 113.97 109.65
  A 2.73 2.72 -2.8 0 1 111.35 112.53
  L 97.60 113.05"
/>
<path stroke="#bbbbbb" vector-effect="non-scaling-stroke" d="
  M 97.60 113.05
  Q 92.21 112.91 86.86 113.00
  C 79.17 113.12 71.79 112.75 64.24 112.60
  Q 64.08 112.60 63.95 112.51
  Q 63.74 112.38 63.49 112.38
  L 38.85 112.38
  Q 38.52 112.38 38.20 112.24
  Q 37.96 112.14 37.71 112.14
  Q 29.77 112.11 21.67 112.13
  A 1.39 1.36 27.2 0 0 20.89 112.37
  Q 20.50 112.63 20.03 112.67
  Q 19.52 112.71 19.15 113.05
  Q 18.39 113.74 18.88 114.47"
/>
<path stroke="#9e9f9f" vector-effect="non-scaling-stroke" d="
  M 18.88 114.47
  Q 16.06 118.86 12.98 120.14"
/>
<path stroke="#bbbbbb" vector-effect="non-scaling-stroke" d="
  M 12.98 120.14
  Q 9.47 120.93 8.96 123.80
  Q 8.80 124.68 9.26 125.09
  Q 9.76 125.53 10.76 125.49"
/>
<path stroke="#9e9f9f" vector-effect="non-scaling-stroke" d="
  M 10.76 125.49
  Q 11.51 125.68 12.06 126.09"
/>
<path stroke="#bbbbbb" vector-effect="non-scaling-stroke" d="
  M 17.08 114.81
  L 19.86 112.19
  Q 20.20 111.87 20.67 111.89
  Q 30.05 112.21 39.45 112.16
  C 40.42 112.16 41.23 112.38 42.22 112.38
  Q 52.76 112.37 63.23 112.37
  Q 63.44 112.37 63.44 112.17
  L 63.44 112.16
  Q 63.44 111.95 63.22 111.94
  Q 44.76 111.73 26.31 111.31
  Q 25.17 111.28 23.92 111.00
  Q 18.44 109.75 17.08 114.81"
/>
<path stroke="#969696" vector-effect="non-scaling-stroke" d="
  M 10.76 125.49
  Q 8.82 124.24 9.87 122.87
  Q 10.44 122.13 12.98 120.14"
/>
<path stroke="#969696" vector-effect="non-scaling-stroke" d="
  M 18.88 114.47
  Q 19.62 113.83 20.42 113.32
  Q 21.20 112.83 22.17 112.82
  C 30.03 112.81 38.00 113.29 45.93 113.32
  Q 66.92 113.41 87.10 114.14
  Q 89.23 114.21 92.33 113.63
  Q 94.83 113.15 97.60 113.05"
/>
<path stroke="#626262" vector-effect="non-scaling-stroke" d="
  M 70.23 58.60
  C 77.52 56.56 83.77 50.99 82.91 42.82
  C 81.84 32.64 71.68 29.08 62.52 29.02
  Q 52.36 28.96 43.24 32.93
  A 0.36 0.36 0.0 0 0 43.03 33.24
  Q 42.91 37.77 43.12 42.12
  A 0.05 0.05 0.0 0 0 43.19 42.16
  Q 52.18 36.97 62.23 37.02
  C 67.51 37.04 73.64 39.13 73.96 45.26
  C 74.46 54.80 63.36 56.43 56.29 55.94
  Q 56.00 55.92 56.00 56.21
  L 56.00 62.77
  Q 56.00 63.07 56.29 63.05
  C 64.49 62.58 74.96 63.25 75.02 74.25
  C 75.07 84.55 67.15 88.58 58.09 87.93
  Q 49.64 87.33 41.19 82.82
  A 0.05 0.05 0.0 0 0 41.12 82.86
  Q 40.90 87.23 41.02 91.72
  A 0.40 0.38 11.2 0 0 41.26 92.06
  Q 51.58 96.31 61.81 95.96
  C 73.54 95.56 83.01 88.95 83.96 76.80
  Q 84.41 71.04 81.83 66.76
  C 79.17 62.36 75.18 60.71 70.23 59.30
  Q 68.99 58.95 70.23 58.60"
/>
</g>
<path fill="#b2b2b2" d="
  M 0.00 0.00
  L 128.00 0.00
  L 128.00 128.00
  L 0.00 128.00
  L 0.00 0.00
  Z
  M 3.48 120.02
  Q 4.86 123.34 3.66 126.31
  A 0.88 0.88 0.0 0 0 4.52 127.52
  L 7.01 127.42
  A 0.99 0.98 81.7 0 0 7.92 126.19
  Q 7.42 124.24 7.85 122.35
  Q 7.94 121.99 8.22 121.76
  Q 10.91 119.53 13.16 118.26
  Q 14.86 117.29 16.22 114.96
  Q 16.46 114.56 17.08 114.81
  Q 15.17 118.48 11.42 120.04
  Q 10.93 120.24 10.66 120.70
  Q 10.29 121.33 9.69 121.76
  Q 8.90 122.33 8.65 123.27
  Q 8.29 124.64 9.37 125.55
  A 1.29 1.28 62.7 0 0 10.26 125.84
  Q 11.26 125.78 12.06 126.09
  Q 68.98 124.12 126.19 126.20
  A 0.56 0.55 90.0 0 0 126.77 125.61
  Q 126.41 119.17 126.41 112.37
  Q 126.44 68.91 126.10 27.41
  C 126.05 22.19 126.71 17.06 126.43 11.87
  Q 126.33 10.04 124.63 9.62
  A 0.81 0.80 -63.6 0 0 123.78 9.91
  Q 123.06 10.84 121.97 11.25
  Q 121.56 11.41 121.47 11.83
  Q 120.34 16.94 114.35 19.64
  L 117.84 14.99
  Q 118.11 14.63 118.16 14.18
  Q 118.25 13.39 118.94 12.95
  A 1.56 1.52 80.1 0 0 119.63 11.94
  Q 120.26 8.82 122.50 6.34
  Q 122.86 5.94 123.40 5.91
  Q 125.26 5.83 127.11 5.93
  Q 127.26 5.94 127.36 5.82
  Q 127.39 5.78 127.40 5.73
  Q 127.43 5.53 127.23 5.57
  Q 125.26 5.98 123.52 5.21
  A 1.54 1.53 -70.0 0 0 121.43 6.19
  Q 120.68 8.82 118.69 10.60
  Q 118.45 10.81 118.63 11.08
  Q 118.73 11.23 118.62 11.35
  Q 118.33 11.68 117.91 11.77
  Q 115.41 12.31 113.27 13.72
  Q 115.62 11.23 118.29 9.02
  Q 120.62 7.09 121.51 4.92
  A 2.09 2.09 0.0 0 0 120.07 2.10
  Q 117.29 1.42 114.75 1.37
  Q 101.77 1.11 88.50 1.14
  Q 52.12 1.23 16.25 1.29
  C 11.48 1.30 6.91 0.60 2.26 0.85
  A 1.49 1.49 0.0 0 0 0.87 2.58
  Q 2.21 10.78 2.10 17.26
  Q 1.75 37.22 1.91 53.01
  C 2.12 73.92 1.77 97.26 2.09 115.13
  Q 2.14 117.42 3.48 120.02
  Z"
/>
<path fill="#ffffff" d="
  M 113.27 13.72
  C 111.47 15.33 109.48 16.80 106.99 16.72
  Q 85.37 16.00 63.32 16.28
  C 48.47 16.47 34.07 16.21 19.07 16.31
  A 2.20 2.20 0.0 0 0 16.89 18.52
  Q 17.06 60.21 16.85 101.20
  C 16.83 104.88 18.13 107.97 14.86 110.85
  C 11.49 113.81 9.75 117.77 6.22 120.57
  Q 4.59 121.86 3.48 120.02
  Q 2.14 117.42 2.09 115.13
  C 1.77 97.26 2.12 73.92 1.91 53.01
  Q 1.75 37.22 2.10 17.26
  Q 2.21 10.78 0.87 2.58
  A 1.49 1.49 0.0 0 1 2.26 0.85
  C 6.91 0.60 11.48 1.30 16.25 1.29
  Q 52.12 1.23 88.50 1.14
  Q 101.77 1.11 114.75 1.37
  Q 117.29 1.42 120.07 2.10
  A 2.09 2.09 0.0 0 1 121.51 4.92
  Q 120.62 7.09 118.29 9.02
  Q 115.62 11.23 113.27 13.72
  Z"
/>
<path fill="#c3c3c3" d="
  M 114.35 19.64
  Q 113.46 27.14 113.79 36.33
  Q 113.84 37.79 113.59 39.10
  Q 113.32 40.54 113.53 41.93
  Q 113.83 43.97 113.86 46.04
  Q 114.18 72.46 113.75 98.16
  Q 113.65 104.02 113.97 109.65
  A 2.73 2.72 -2.8 0 1 111.35 112.53
  L 97.60 113.05
  Q 92.21 112.91 86.86 113.00
  C 79.17 113.12 71.79 112.75 64.24 112.60
  Q 64.08 112.60 63.95 112.51
  Q 63.74 112.38 63.49 112.38
  L 38.85 112.38
  Q 38.52 112.38 38.20 112.24
  Q 37.96 112.14 37.71 112.14
  Q 29.77 112.11 21.67 112.13
  A 1.39 1.36 27.2 0 0 20.89 112.37
  Q 20.50 112.63 20.03 112.67
  Q 19.52 112.71 19.15 113.05
  Q 18.39 113.74 18.88 114.47
  Q 16.06 118.86 12.98 120.14
  Q 9.47 120.93 8.96 123.80
  Q 8.80 124.68 9.26 125.09
  Q 9.76 125.53 10.76 125.49
  Q 11.51 125.68 12.06 126.09
  Q 11.26 125.78 10.26 125.84
  A 1.29 1.28 62.7 0 1 9.37 125.55
  Q 8.29 124.64 8.65 123.27
  Q 8.90 122.33 9.69 121.76
  Q 10.29 121.33 10.66 120.70
  Q 10.93 120.24 11.42 120.04
  Q 15.17 118.48 17.08 114.81
  L 19.86 112.19
  Q 20.20 111.87 20.67 111.89
  Q 30.05 112.21 39.45 112.16
  C 40.42 112.16 41.23 112.38 42.22 112.38
  Q 52.76 112.37 63.23 112.37
  Q 63.44 112.37 63.44 112.17
  L 63.44 112.16
  Q 63.44 111.95 63.22 111.94
  Q 44.76 111.73 26.31 111.31
  Q 25.17 111.28 23.92 111.00
  Q 18.44 109.75 17.08 114.81
  Q 16.46 114.56 16.22 114.96
  Q 14.86 117.29 13.16 118.26
  Q 10.91 119.53 8.22 121.76
  Q 7.94 121.99 7.85 122.35
  Q 7.42 124.24 7.92 126.19
  A 0.99 0.98 81.7 0 1 7.01 127.42
  L 4.52 127.52
  A 0.88 0.88 0.0 0 1 3.66 126.31
  Q 4.86 123.34 3.48 120.02
  Q 4.59 121.86 6.22 120.57
  C 9.75 117.77 11.49 113.81 14.86 110.85
  C 18.13 107.97 16.83 104.88 16.85 101.20
  Q 17.06 60.21 16.89 18.52
  A 2.20 2.20 0.0 0 1 19.07 16.31
  C 34.07 16.21 48.47 16.47 63.32 16.28
  Q 85.37 16.00 106.99 16.72
  C 109.48 16.80 111.47 15.33 113.27 13.72
  Q 115.41 12.31 117.91 11.77
  Q 118.33 11.68 118.62 11.35
  Q 118.73 11.23 118.63 11.08
  Q 118.45 10.81 118.69 10.60
  Q 120.68 8.82 121.43 6.19
  A 1.54 1.53 -70.0 0 1 123.52 5.21
  Q 125.26 5.98 127.23 5.57
  Q 127.43 5.53 127.40 5.73
  Q 127.39 5.78 127.36 5.82
  Q 127.26 5.94 127.11 5.93
  Q 125.26 5.83 123.40 5.91
  Q 122.86 5.94 122.50 6.34
  Q 120.26 8.82 119.63 11.94
  A 1.56 1.52 80.1 0 1 118.94 12.95
  Q 118.25 13.39 118.16 14.18
  Q 118.11 14.63 117.84 14.99
  L 114.35 19.64
  Z
  M 70.23 58.60
  C 77.52 56.56 83.77 50.99 82.91 42.82
  C 81.84 32.64 71.68 29.08 62.52 29.02
  Q 52.36 28.96 43.24 32.93
  A 0.36 0.36 0.0 0 0 43.03 33.24
  Q 42.91 37.77 43.12 42.12
  A 0.05 0.05 0.0 0 0 43.19 42.16
  Q 52.18 36.97 62.23 37.02
  C 67.51 37.04 73.64 39.13 73.96 45.26
  C 74.46 54.80 63.36 56.43 56.29 55.94
  Q 56.00 55.92 56.00 56.21
  L 56.00 62.77
  Q 56.00 63.07 56.29 63.05
  C 64.49 62.58 74.96 63.25 75.02 74.25
  C 75.07 84.55 67.15 88.58 58.09 87.93
  Q 49.64 87.33 41.19 82.82
  A 0.05 0.05 0.0 0 0 41.12 82.86
  Q 40.90 87.23 41.02 91.72
  A 0.40 0.38 11.2 0 0 41.26 92.06
  Q 51.58 96.31 61.81 95.96
  C 73.54 95.56 83.01 88.95 83.96 76.80
  Q 84.41 71.04 81.83 66.76
  C 79.17 62.36 75.18 60.71 70.23 59.30
  Q 68.99 58.95 70.23 58.60
  Z"
/>
<path fill="#797a7a" d="
  M 12.06 126.09
  Q 11.51 125.68 10.76 125.49
  Q 8.82 124.24 9.87 122.87
  Q 10.44 122.13 12.98 120.14
  Q 16.06 118.86 18.88 114.47
  Q 19.62 113.83 20.42 113.32
  Q 21.20 112.83 22.17 112.82
  C 30.03 112.81 38.00 113.29 45.93 113.32
  Q 66.92 113.41 87.10 114.14
  Q 89.23 114.21 92.33 113.63
  Q 94.83 113.15 97.60 113.05
  L 111.35 112.53
  A 2.73 2.72 -2.8 0 0 113.97 109.65
  Q 113.65 104.02 113.75 98.16
  Q 114.18 72.46 113.86 46.04
  Q 113.83 43.97 113.53 41.93
  Q 113.32 40.54 113.59 39.10
  Q 113.84 37.79 113.79 36.33
  Q 113.46 27.14 114.35 19.64
  Q 120.34 16.94 121.47 11.83
  Q 121.56 11.41 121.97 11.25
  Q 123.06 10.84 123.78 9.91
  A 0.81 0.80 -63.6 0 1 124.63 9.62
  Q 126.33 10.04 126.43 11.87
  C 126.71 17.06 126.05 22.19 126.10 27.41
  Q 126.44 68.91 126.41 112.37
  Q 126.41 119.17 126.77 125.61
  A 0.56 0.55 90.0 0 1 126.19 126.20
  Q 68.98 124.12 12.06 126.09
  Z"
/>
<path fill="#000000" d="
  M 70.23 59.30
  C 75.18 60.71 79.17 62.36 81.83 66.76
  Q 84.41 71.04 83.96 76.80
  C 83.01 88.95 73.54 95.56 61.81 95.96
  Q 51.58 96.31 41.26 92.06
  A 0.40 0.38 11.2 0 1 41.02 91.72
  Q 40.90 87.23 41.12 82.86
  A 0.05 0.05 0.0 0 1 41.19 82.82
  Q 49.64 87.33 58.09 87.93
  C 67.15 88.58 75.07 84.55 75.02 74.25
  C 74.96 63.25 64.49 62.58 56.29 63.05
  Q 56.00 63.07 56.00 62.77
  L 56.00 56.21
  Q 56.00 55.92 56.29 55.94
  C 63.36 56.43 74.46 54.80 73.96 45.26
  C 73.64 39.13 67.51 37.04 62.23 37.02
  Q 52.18 36.97 43.19 42.16
  A 0.05 0.05 0.0 0 1 43.12 42.12
  Q 42.91 37.77 43.03 33.24
  A 0.36 0.36 0.0 0 1 43.24 32.93
  Q 52.36 28.96 62.52 29.02
  C 71.68 29.08 81.84 32.64 82.91 42.82
  C 83.77 50.99 77.52 56.56 70.23 58.60
  Q 68.99 58.95 70.23 59.30
  Z"
/>
<path fill="#b2b2b2" d="
  M 17.08 114.81
  Q 18.44 109.75 23.92 111.00
  Q 25.17 111.28 26.31 111.31
  Q 44.76 111.73 63.22 111.94
  Q 63.44 111.95 63.44 112.16
  L 63.44 112.17
  Q 63.44 112.37 63.23 112.37
  Q 52.76 112.37 42.22 112.38
  C 41.23 112.38 40.42 112.16 39.45 112.16
  Q 30.05 112.21 20.67 111.89
  Q 20.20 111.87 19.86 112.19
  L 17.08 114.81
  Z"
/>
<path fill="#b2b2b2" d="
  M 97.60 113.05
  Q 94.83 113.15 92.33 113.63
  Q 89.23 114.21 87.10 114.14
  Q 66.92 113.41 45.93 113.32
  C 38.00 113.29 30.03 112.81 22.17 112.82
  Q 21.20 112.83 20.42 113.32
  Q 19.62 113.83 18.88 114.47
  Q 18.39 113.74 19.15 113.05
  Q 19.52 112.71 20.03 112.67
  Q 20.50 112.63 20.89 112.37
  A 1.39 1.36 27.2 0 1 21.67 112.13
  Q 29.77 112.11 37.71 112.14
  Q 37.96 112.14 38.20 112.24
  Q 38.52 112.38 38.85 112.38
  L 63.49 112.38
  Q 63.74 112.38 63.95 112.51
  Q 64.08 112.60 64.24 112.60
  C 71.79 112.75 79.17 113.12 86.86 113.00
  Q 92.21 112.91 97.60 113.05
  Z"
/>
<path fill="#b2b2b2" d="
  M 12.98 120.14
  Q 10.44 122.13 9.87 122.87
  Q 8.82 124.24 10.76 125.49
  Q 9.76 125.53 9.26 125.09
  Q 8.80 124.68 8.96 123.80
  Q 9.47 120.93 12.98 120.14
  Z"
/>
</svg>
