<?xml version="1.0" encoding="UTF-8" standalone="no"?>
<!DOCTYPE svg PUBLIC "-//W3C//DTD SVG 1.1//EN" "http://www.w3.org/Graphics/SVG/1.1/DTD/svg11.dtd">
<svg xmlns="http://www.w3.org/2000/svg" version="1.1" viewBox="0.00 0.00 128.00 128.00">
<g stroke-width="2.00" fill="none" stroke-linecap="butt">
<path stroke="#bbbbbb" vector-effect="non-scaling-stroke" d="
  M 4.06 120.98
  Q 4.58 123.55 3.64 126.56
  Q 3.48 127.07 3.97 127.27
  Q 5.42 127.85 6.90 127.62
  A 1.48 1.48 0.0 0 0 8.05 125.60
  Q 7.51 124.27 7.78 122.80
  Q 7.99 121.62 9.07 120.77
  Q 10.50 119.63 11.88 118.88
  Q 13.71 117.89 15.02 116.61
  Q 16.95 114.73 19.26 112.90
  Q 20.72 111.75 22.45 111.83
  Q 24.72 111.95 26.98 112.05
  Q 32.73 112.31 40.75 111.83
  Q 42.67 111.72 47.58 112.98"
/>
<path stroke="#969696" vector-effect="non-scaling-stroke" d="
  M 47.58 112.98
  L 60.83 113.51
  A 0.35 0.21 -29.7 0 1 60.55 114.01
  Q 43.33 113.84 25.79 112.62
  Q 23.72 112.48 21.63 112.75
  A 1.57 1.56 -70.9 0 0 20.75 113.18
  Q 17.98 115.79 15.54 118.69
  Q 14.68 119.72 11.76 121.04
  Q 11.41 121.20 11.18 121.51
  L 10.09 123.02
  A 1.58 1.57 -60.6 0 0 10.75 125.40
  Q 12.77 126.25 14.49 126.16
  C 24.08 125.68 33.74 125.16 43.46 125.14
  Q 75.49 125.06 108.39 125.59
  Q 117.20 125.74 126.05 126.28
  A 0.68 0.67 -89.6 0 0 126.76 125.57
  Q 126.36 117.45 126.37 106.38
  Q 126.41 67.50 126.15 26.99
  C 126.12 22.03 126.62 17.25 126.50 12.34
  Q 126.46 10.73 125.20 9.75
  Q 123.77 8.64 122.26 9.51
  Q 121.87 9.75 121.72 10.19
  Q 121.06 12.29 119.93 14.07
  Q 119.59 14.61 120.11 14.24
  Q 120.25 14.14 120.34 14.47
  Q 120.41 14.73 120.25 14.94
  Q 118.37 17.57 115.50 19.25
  Q 113.39 20.49 114.00 22.90
  Q 114.55 25.12 114.56 27.25
  Q 114.58 33.65 113.97 49.31"
/>
<path stroke="#bbbbbb" vector-effect="non-scaling-stroke" d="
  M 113.97 49.31
  Q 113.16 46.58 113.14 43.76
  Q 113.13 42.76 113.12 41.74
  Q 113.03 33.78 113.14 26.80
  C 113.18 24.22 112.21 22.22 113.78 19.77
  Q 113.88 19.61 114.06 19.54
  Q 114.29 19.45 114.43 19.26
  Q 116.11 16.98 118.15 14.87
  Q 119.39 13.59 119.82 11.28
  C 120.13 9.60 121.26 8.19 122.28 6.85
  Q 122.59 6.44 123.09 6.36
  L 126.84 5.81
  Q 127.62 5.69 127.62 4.90
  L 127.62 4.03
  Q 127.62 3.07 126.67 2.97
  L 120.48 2.28"
/>
<path stroke="#d9d9d9" vector-effect="non-scaling-stroke" d="
  M 120.48 2.28
  Q 117.13 1.28 113.50 1.25
  Q 63.74 0.86 15.11 1.29
  C 10.88 1.33 6.80 0.56 2.60 0.84
  Q 0.56 0.97 0.93 2.99
  Q 2.19 9.90 2.06 17.49
  C 1.61 42.13 1.98 68.13 1.99 90.25
  Q 1.99 100.80 2.09 115.00
  Q 2.11 117.80 4.06 120.98"
/>
<path stroke="#e1e1e1" vector-effect="non-scaling-stroke" d="
  M 120.48 2.28
  C 122.87 3.89 120.96 6.03 119.67 7.40
  Q 116.32 10.95 111.83 14.86
  C 108.87 17.44 107.15 16.61 103.91 16.57
  Q 60.36 16.07 18.73 16.41
  A 1.64 1.63 3.6 0 0 17.12 17.82
  C 16.44 22.73 17.03 27.56 16.98 32.49
  Q 16.60 71.77 17.23 105.80
  C 17.28 108.42 16.22 110.50 14.24 112.03
  C 12.05 113.72 10.76 115.82 9.18 118.04
  Q 6.90 121.24 4.06 120.98"
/>
<path stroke="#9e9f9f" vector-effect="non-scaling-stroke" d="
  M 113.97 49.31
  L 114.07 109.99
  A 3.14 3.14 0.0 0 1 110.93 113.13
  Q 105.81 113.13 99.91 113.14
  C 98.69 113.14 97.65 113.51 96.40 113.37
  Q 95.01 113.21 93.48 113.22
  Q 84.10 113.24 73.29 113.60
  Q 69.91 113.72 66.26 113.31
  C 65.45 113.22 64.68 113.61 63.90 113.59
  Q 55.65 113.32 47.58 112.98"
/>
<path stroke="#626262" vector-effect="non-scaling-stroke" d="
  M 77.75 77.01
  L 86.04 76.96
  A 1.01 1.00 -0.6 0 0 87.04 75.95
  L 87.01 71.00
  Q 87.00 70.01 86.00 70.01
  L 77.76 70.02
  Q 77.01 70.02 77.01 69.26
  L 77.00 30.45
  Q 77.00 29.91 76.45 29.91
  L 70.75 29.97
  Q 69.34 29.98 68.42 31.04
  Q 52.96 48.70 38.34 65.34
  C 36.17 67.81 36.89 73.29 37.02 76.33
  A 0.68 0.68 0.0 0 0 37.70 76.99
  L 68.51 77.00
  A 0.51 0.51 0.0 0 1 69.02 77.51
  L 69.03 94.00
  Q 69.03 94.98 70.01 94.98
  L 76.00 94.99
  Q 76.99 94.99 76.99 94.00
  L 77.01 77.75
  Q 77.01 77.01 77.75 77.01"
/>
<path stroke="#626262" vector-effect="non-scaling-stroke" d="
  M 69.01 41.95
  A 0.35 0.35 0.0 0 0 68.40 41.72
  L 44.03 69.44
  A 0.35 0.35 0.0 0 0 44.29 70.02
  L 68.64 69.99
  A 0.35 0.35 0.0 0 0 68.99 69.64
  L 69.01 41.95"
/>
</g>
<path fill="#b2b2b2" d="
  M 0.00 0.00
  L 128.00 0.00
  L 128.00 128.00
  L 0.00 128.00
  L 0.00 0.00
  Z
  M 4.06 120.98
  Q 4.58 123.55 3.64 126.56
  Q 3.48 127.07 3.97 127.27
  Q 5.42 127.85 6.90 127.62
  A 1.48 1.48 0.0 0 0 8.05 125.60
  Q 7.51 124.27 7.78 122.80
  Q 7.99 121.62 9.07 120.77
  Q 10.50 119.63 11.88 118.88
  Q 13.71 117.89 15.02 116.61
  Q 16.95 114.73 19.26 112.90
  Q 20.72 111.75 22.45 111.83
  Q 24.72 111.95 26.98 112.05
  Q 32.73 112.31 40.75 111.83
  Q 42.67 111.72 47.58 112.98
  L 60.83 113.51
  A 0.35 0.21 -29.7 0 1 60.55 114.01
  Q 43.33 113.84 25.79 112.62
  Q 23.72 112.48 21.63 112.75
  A 1.57 1.56 -70.9 0 0 20.75 113.18
  Q 17.98 115.79 15.54 118.69
  Q 14.68 119.72 11.76 121.04
  Q 11.41 121.20 11.18 121.51
  L 10.09 123.02
  A 1.58 1.57 -60.6 0 0 10.75 125.40
  Q 12.77 126.25 14.49 126.16
  C 24.08 125.68 33.74 125.16 43.46 125.14
  Q 75.49 125.06 108.39 125.59
  Q 117.20 125.74 126.05 126.28
  A 0.68 0.67 -89.6 0 0 126.76 125.57
  Q 126.36 117.45 126.37 106.38
  Q 126.41 67.50 126.15 26.99
  C 126.12 22.03 126.62 17.25 126.50 12.34
  Q 126.46 10.73 125.20 9.75
  Q 123.77 8.64 122.26 9.51
  Q 121.87 9.75 121.72 10.19
  Q 121.06 12.29 119.93 14.07
  Q 119.59 14.61 120.11 14.24
  Q 120.25 14.14 120.34 14.47
  Q 120.41 14.73 120.25 14.94
  Q 118.37 17.57 115.50 19.25
  Q 113.39 20.49 114.00 22.90
  Q 114.55 25.12 114.56 27.25
  Q 114.58 33.65 113.97 49.31
  Q 113.16 46.58 113.14 43.76
  Q 113.13 42.76 113.12 41.74
  Q 113.03 33.78 113.14 26.80
  C 113.18 24.22 112.21 22.22 113.78 19.77
  Q 113.88 19.61 114.06 19.54
  Q 114.29 19.45 114.43 19.26
  Q 116.11 16.98 118.15 14.87
  Q 119.39 13.59 119.82 11.28
  C 120.13 9.60 121.26 8.19 122.28 6.85
  Q 122.59 6.44 123.09 6.36
  L 126.84 5.81
  Q 127.62 5.69 127.62 4.90
  L 127.62 4.03
  Q 127.62 3.07 126.67 2.97
  L 120.48 2.28
  Q 117.13 1.28 113.50 1.25
  Q 63.74 0.86 15.11 1.29
  C 10.88 1.33 6.80 0.56 2.60 0.84
  Q 0.56 0.97 0.93 2.99
  Q 2.19 9.90 2.06 17.49
  C 1.61 42.13 1.98 68.13 1.99 90.25
  Q 1.99 100.80 2.09 115.00
  Q 2.11 117.80 4.06 120.98
  Z"
/>
<path fill="#ffffff" d="
  M 120.48 2.28
  C 122.87 3.89 120.96 6.03 119.67 7.40
  Q 116.32 10.95 111.83 14.86
  C 108.87 17.44 107.15 16.61 103.91 16.57
  Q 60.36 16.07 18.73 16.41
  A 1.64 1.63 3.6 0 0 17.12 17.82
  C 16.44 22.73 17.03 27.56 16.98 32.49
  Q 16.60 71.77 17.23 105.80
  C 17.28 108.42 16.22 110.50 14.24 112.03
  C 12.05 113.72 10.76 115.82 9.18 118.04
  Q 6.90 121.24 4.06 120.98
  Q 2.11 117.80 2.09 115.00
  Q 1.99 100.80 1.99 90.25
  C 1.98 68.13 1.61 42.13 2.06 17.49
  Q 2.19 9.90 0.93 2.99
  Q 0.56 0.97 2.60 0.84
  C 6.80 0.56 10.88 1.33 15.11 1.29
  Q 63.74 0.86 113.50 1.25
  Q 117.13 1.28 120.48 2.28
  Z"
/>
<path fill="#c3c3c3" d="
  M 120.48 2.28
  L 126.67 2.97
  Q 127.62 3.07 127.62 4.03
  L 127.62 4.90
  Q 127.62 5.69 126.84 5.81
  L 123.09 6.36
  Q 122.59 6.44 122.28 6.85
  C 121.26 8.19 120.13 9.60 119.82 11.28
  Q 119.39 13.59 118.15 14.87
  Q 116.11 16.98 114.43 19.26
  Q 114.29 19.45 114.06 19.54
  Q 113.88 19.61 113.78 19.77
  C 112.21 22.22 113.18 24.22 113.14 26.80
  Q 113.03 33.78 113.12 41.74
  Q 113.13 42.76 113.14 43.76
  Q 113.16 46.58 113.97 49.31
  L 114.07 109.99
  A 3.14 3.14 0.0 0 1 110.93 113.13
  Q 105.81 113.13 99.91 113.14
  C 98.69 113.14 97.65 113.51 96.40 113.37
  Q 95.01 113.21 93.48 113.22
  Q 84.10 113.24 73.29 113.60
  Q 69.91 113.72 66.26 113.31
  C 65.45 113.22 64.68 113.61 63.90 113.59
  Q 55.65 113.32 47.58 112.98
  Q 42.67 111.72 40.75 111.83
  Q 32.73 112.31 26.98 112.05
  Q 24.72 111.95 22.45 111.83
  Q 20.72 111.75 19.26 112.90
  Q 16.95 114.73 15.02 116.61
  Q 13.71 117.89 11.88 118.88
  Q 10.50 119.63 9.07 120.77
  Q 7.99 121.62 7.78 122.80
  Q 7.51 124.27 8.05 125.60
  A 1.48 1.48 0.0 0 1 6.90 127.62
  Q 5.42 127.85 3.97 127.27
  Q 3.48 127.07 3.64 126.56
  Q 4.58 123.55 4.06 120.98
  Q 6.90 121.24 9.18 118.04
  C 10.76 115.82 12.05 113.72 14.24 112.03
  C 16.22 110.50 17.28 108.42 17.23 105.80
  Q 16.60 71.77 16.98 32.49
  C 17.03 27.56 16.44 22.73 17.12 17.82
  A 1.64 1.63 3.6 0 1 18.73 16.41
  Q 60.36 16.07 103.91 16.57
  C 107.15 16.61 108.87 17.44 111.83 14.86
  Q 116.32 10.95 119.67 7.40
  C 120.96 6.03 122.87 3.89 120.48 2.28
  Z
  M 77.75 77.01
  L 86.04 76.96
  A 1.01 1.00 -0.6 0 0 87.04 75.95
  L 87.01 71.00
  Q 87.00 70.01 86.00 70.01
  L 77.76 70.02
  Q 77.01 70.02 77.01 69.26
  L 77.00 30.45
  Q 77.00 29.91 76.45 29.91
  L 70.75 29.97
  Q 69.34 29.98 68.42 31.04
  Q 52.96 48.70 38.34 65.34
  C 36.17 67.81 36.89 73.29 37.02 76.33
  A 0.68 0.68 0.0 0 0 37.70 76.99
  L 68.51 77.00
  A 0.51 0.51 0.0 0 1 69.02 77.51
  L 69.03 94.00
  Q 69.03 94.98 70.01 94.98
  L 76.00 94.99
  Q 76.99 94.99 76.99 94.00
  L 77.01 77.75
  Q 77.01 77.01 77.75 77.01
  Z"
/>
<path fill="#797a7a" d="
  M 47.58 112.98
  Q 55.65 113.32 63.90 113.59
  C 64.68 113.61 65.45 113.22 66.26 113.31
  Q 69.91 113.72 73.29 113.60
  Q 84.10 113.24 93.48 113.22
  Q 95.01 113.21 96.40 113.37
  C 97.65 113.51 98.69 113.14 99.91 113.14
  Q 105.81 113.13 110.93 113.13
  A 3.14 3.14 0.0 0 0 114.07 109.99
  L 113.97 49.31
  Q 114.58 33.65 114.56 27.25
  Q 114.55 25.12 114.00 22.90
  Q 113.39 20.49 115.50 19.25
  Q 118.37 17.57 120.25 14.94
  Q 120.41 14.73 120.34 14.47
  Q 120.25 14.14 120.11 14.24
  Q 119.59 14.61 119.93 14.07
  Q 121.06 12.29 121.72 10.19
  Q 121.87 9.75 122.26 9.51
  Q 123.77 8.64 125.20 9.75
  Q 126.46 10.73 126.50 12.34
  C 126.62 17.25 126.12 22.03 126.15 26.99
  Q 126.41 67.50 126.37 106.38
  Q 126.36 117.45 126.76 125.57
  A 0.68 0.67 -89.6 0 1 126.05 126.28
  Q 117.20 125.74 108.39 125.59
  Q 75.49 125.06 43.46 125.14
  C 33.74 125.16 24.08 125.68 14.49 126.16
  Q 12.77 126.25 10.75 125.40
  A 1.58 1.57 -60.6 0 1 10.09 123.02
  L 11.18 121.51
  Q 11.41 121.20 11.76 121.04
  Q 14.68 119.72 15.54 118.69
  Q 17.98 115.79 20.75 113.18
  A 1.57 1.56 -70.9 0 1 21.63 112.75
  Q 23.72 112.48 25.79 112.62
  Q 43.33 113.84 60.55 114.01
  A 0.35 0.21 -29.7 0 0 60.83 113.51
  L 47.58 112.98
  Z"
/>
<path fill="#000000" d="
  M 77.75 77.01
  Q 77.01 77.01 77.01 77.75
  L 76.99 94.00
  Q 76.99 94.99 76.00 94.99
  L 70.01 94.98
  Q 69.03 94.98 69.03 94.00
  L 69.02 77.51
  A 0.51 0.51 0.0 0 0 68.51 77.00
  L 37.70 76.99
  A 0.68 0.68 0.0 0 1 37.02 76.33
  C 36.89 73.29 36.17 67.81 38.34 65.34
  Q 52.96 48.70 68.42 31.04
  Q 69.34 29.98 70.75 29.97
  L 76.45 29.91
  Q 77.00 29.91 77.00 30.45
  L 77.01 69.26
  Q 77.01 70.02 77.76 70.02
  L 86.00 70.01
  Q 87.00 70.01 87.01 71.00
  L 87.04 75.95
  A 1.01 1.00 -0.6 0 1 86.04 76.96
  L 77.75 77.01
  Z
  M 69.01 41.95
  A 0.35 0.35 0.0 0 0 68.40 41.72
  L 44.03 69.44
  A 0.35 0.35 0.0 0 0 44.29 70.02
  L 68.64 69.99
  A 0.35 0.35 0.0 0 0 68.99 69.64
  L 69.01 41.95
  Z"
/>
<path fill="#c3c3c3" d="
  M 69.01 41.95
  L 68.99 69.64
  A 0.35 0.35 0.0 0 1 68.64 69.99
  L 44.29 70.02
  A 0.35 0.35 0.0 0 1 44.03 69.44
  L 68.40 41.72
  A 0.35 0.35 0.0 0 1 69.01 41.95
  Z"
/>
</svg>
