<?xml version="1.0" encoding="UTF-8" standalone="no"?>
<!DOCTYPE svg PUBLIC "-//W3C//DTD SVG 1.1//EN" "http://www.w3.org/Graphics/SVG/1.1/DTD/svg11.dtd">
<svg xmlns="http://www.w3.org/2000/svg" version="1.1" viewBox="0.00 0.00 128.00 128.00">
<g stroke-width="2.00" fill="none" stroke-linecap="butt">
<path stroke="#bbbbbb" vector-effect="non-scaling-stroke" d="
  M 13.41 113.00
  L 8.68 119.64
  A 0.92 0.91 13.3 0 1 8.09 120.00
  Q 7.41 120.09 7.34 120.66
  Q 7.24 121.46 7.91 121.01
  Q 13.14 117.49 17.10 112.88
  Q 18.80 110.92 20.28 110.57
  Q 22.32 110.10 24.28 110.48
  Q 26.06 110.83 27.88 110.87
  Q 29.74 110.90 31.76 110.85
  Q 31.98 110.84 32.06 110.63
  Q 32.13 110.42 32.35 110.44
  Q 35.41 110.75 38.78 110.55
  Q 42.05 110.34 44.94 110.98
  C 45.66 111.14 45.92 111.63 46.78 111.62
  Q 50.98 111.61 55.34 111.64
  Q 55.53 111.64 55.67 111.53
  Q 55.77 111.45 55.86 111.36
  Q 56.00 111.22 56.19 111.24
  Q 62.95 111.81 69.88 111.72
  Q 90.11 111.47 110.59 111.75
  Q 111.56 111.77 112.37 111.09
  Q 113.63 110.05 113.62 107.95"
/>
<path stroke="#969696" vector-effect="non-scaling-stroke" d="
  M 113.62 107.95
  C 114.62 111.20 113.35 112.64 110.08 112.66
  Q 98.18 112.75 89.75 113.44
  Q 86.30 113.73 83.58 113.54
  Q 81.63 113.41 79.43 113.38
  Q 72.18 113.30 64.02 113.02
  Q 54.98 112.71 41.76 112.89
  C 40.77 112.91 39.88 112.60 38.75 112.61
  Q 30.97 112.67 23.19 112.30
  Q 20.51 112.18 19.26 113.74
  Q 18.90 114.20 19.41 113.92
  Q 20.09 113.55 20.63 113.00
  Q 20.99 112.63 21.50 112.63
  C 30.35 112.57 39.39 113.12 48.02 113.11
  Q 65.12 113.08 81.76 113.80
  Q 86.87 114.02 92.74 113.85
  Q 93.16 113.83 93.55 113.97
  Q 94.25 114.21 93.51 114.18
  C 91.97 114.11 90.74 114.63 89.26 114.63
  Q 63.21 114.63 39.57 114.64
  Q 35.74 114.64 31.77 114.28
  Q 27.81 113.93 23.71 114.18
  C 21.74 114.30 19.45 115.20 18.43 116.99
  Q 16.90 119.67 14.38 120.23
  Q 13.94 120.33 13.81 120.76
  Q 13.70 121.12 13.32 121.12
  C 11.91 121.15 10.69 122.58 10.37 123.84
  A 1.39 1.38 22.7 0 0 11.00 125.36
  Q 12.46 126.25 14.04 126.16
  Q 27.49 125.45 40.57 125.29
  Q 86.08 124.76 126.26 126.20
  A 0.50 0.50 0.0 0 0 126.77 125.68
  Q 126.36 116.97 126.38 106.15
  Q 126.43 71.91 126.12 27.80
  C 126.08 22.61 126.60 17.39 126.47 12.14
  Q 126.42 10.09 124.66 9.67
  Q 124.09 9.53 123.72 10.00
  L 118.45 16.71"
/>
<path stroke="#bbbbbb" vector-effect="non-scaling-stroke" d="
  M 118.45 16.71
  L 119.99 13.42
  Q 120.02 13.35 119.95 13.32
  Q 118.46 12.50 119.91 13.34
  Q 119.99 13.39 119.94 13.48
  Q 118.93 15.33 117.13 17.05
  Q 116.55 17.61 116.83 16.85
  Q 117.85 14.09 119.57 12.01
  Q 119.87 11.64 119.97 11.18
  Q 120.53 8.74 122.03 7.26
  Q 122.97 6.33 124.26 6.12
  Q 125.50 5.92 126.68 5.94
  Q 127.62 5.96 127.62 5.02
  L 127.62 4.04
  Q 127.62 3.06 126.64 2.95
  L 120.29 2.22"
/>
<path stroke="#d9d9d9" vector-effect="non-scaling-stroke" d="
  M 120.29 2.22
  Q 117.14 1.30 115.00 1.28
  Q 65.38 0.88 15.75 1.28
  C 11.27 1.31 7.05 0.63 2.65 0.83
  Q 0.64 0.91 0.94 2.90
  C 1.87 9.21 2.32 15.46 2.08 22.03
  Q 1.75 30.93 1.84 39.00
  Q 2.11 63.90 1.91 87.17
  C 1.83 96.23 2.12 105.63 2.11 114.75
  Q 2.11 118.21 3.78 120.39
  A 1.92 1.91 47.1 0 0 6.73 120.50
  L 13.41 113.00"
/>
<path stroke="#e1e1e1" vector-effect="non-scaling-stroke" d="
  M 120.29 2.22
  Q 122.70 3.58 121.00 5.77
  Q 118.45 9.04 113.00 13.53
  C 111.58 14.70 109.85 16.81 108.00 16.73
  C 94.26 16.17 77.91 16.95 64.75 16.78
  Q 41.56 16.48 19.15 16.34
  A 2.05 2.04 -86.2 0 0 17.11 18.13
  Q 16.86 20.05 16.87 22.00
  Q 17.08 61.09 16.84 99.69
  Q 16.84 99.77 17.17 104.03
  Q 17.57 109.31 13.41 113.00"
/>
<path stroke="#9e9f9e" vector-effect="non-scaling-stroke" d="
  M 118.45 16.71
  Q 117.31 17.77 115.78 18.98
  Q 114.32 20.14 113.88 21.83
  Q 113.68 22.64 114.18 23.22
  Q 114.46 23.55 114.38 23.98
  Q 114.18 25.06 114.68 25.89
  A 1.57 1.55 -59.6 0 1 114.90 26.76
  Q 114.74 32.05 115.10 37.13
  Q 115.33 40.49 114.58 43.85
  Q 113.90 46.88 113.92 50.20
  Q 114.00 66.23 114.09 82.17"
/>
<path stroke="#bbbbbb" vector-effect="non-scaling-stroke" d="
  M 114.09 82.17
  L 113.86 98.57"
/>
<path stroke="#9e9f9e" vector-effect="non-scaling-stroke" d="
  M 113.86 98.57
  L 113.62 107.95"
/>
<path stroke="#969696" vector-effect="non-scaling-stroke" d="
  M 113.86 98.57
  Q 114.88 90.33 114.09 82.17"
/>
<path stroke="#626262" vector-effect="non-scaling-stroke" d="
  M 53.75 37.00
  L 84.27 37.00
  Q 85.03 37.00 85.03 36.23
  L 85.03 29.76
  A 0.77 0.76 0.0 0 0 84.26 29.00
  L 45.50 28.99
  A 0.51 0.50 -90.0 0 0 45.00 29.50
  L 45.00 62.53
  A 0.44 0.44 0.0 0 0 45.56 62.95
  C 53.49 60.66 71.79 58.36 75.27 69.00
  Q 76.89 73.93 75.02 79.20
  C 70.37 92.29 52.55 88.23 42.89 83.15
  Q 42.00 82.68 42.00 83.69
  L 42.00 91.71
  Q 42.00 92.30 42.55 92.51
  C 55.80 97.59 76.71 99.16 83.23 82.73
  C 86.84 73.61 85.33 62.42 76.05 57.25
  C 69.58 53.64 61.25 53.68 53.65 54.33
  Q 53.00 54.39 53.00 53.74
  L 53.00 37.75
  Q 53.00 37.00 53.75 37.00"
/>
</g>
<path fill="#b2b2b2" d="
  M 0.00 0.00
  L 128.00 0.00
  L 128.00 128.00
  L 0.00 128.00
  L 0.00 0.00
  Z
  M 13.41 113.00
  L 8.68 119.64
  A 0.92 0.91 13.3 0 1 8.09 120.00
  Q 7.41 120.09 7.34 120.66
  Q 7.24 121.46 7.91 121.01
  Q 13.14 117.49 17.10 112.88
  Q 18.80 110.92 20.28 110.57
  Q 22.32 110.10 24.28 110.48
  Q 26.06 110.83 27.88 110.87
  Q 29.74 110.90 31.76 110.85
  Q 31.98 110.84 32.06 110.63
  Q 32.13 110.42 32.35 110.44
  Q 35.41 110.75 38.78 110.55
  Q 42.05 110.34 44.94 110.98
  C 45.66 111.14 45.92 111.63 46.78 111.62
  Q 50.98 111.61 55.34 111.64
  Q 55.53 111.64 55.67 111.53
  Q 55.77 111.45 55.86 111.36
  Q 56.00 111.22 56.19 111.24
  Q 62.95 111.81 69.88 111.72
  Q 90.11 111.47 110.59 111.75
  Q 111.56 111.77 112.37 111.09
  Q 113.63 110.05 113.62 107.95
  C 114.62 111.20 113.35 112.64 110.08 112.66
  Q 98.18 112.75 89.75 113.44
  Q 86.30 113.73 83.58 113.54
  Q 81.63 113.41 79.43 113.38
  Q 72.18 113.30 64.02 113.02
  Q 54.98 112.71 41.76 112.89
  C 40.77 112.91 39.88 112.60 38.75 112.61
  Q 30.97 112.67 23.19 112.30
  Q 20.51 112.18 19.26 113.74
  Q 18.90 114.20 19.41 113.92
  Q 20.09 113.55 20.63 113.00
  Q 20.99 112.63 21.50 112.63
  C 30.35 112.57 39.39 113.12 48.02 113.11
  Q 65.12 113.08 81.76 113.80
  Q 86.87 114.02 92.74 113.85
  Q 93.16 113.83 93.55 113.97
  Q 94.25 114.21 93.51 114.18
  C 91.97 114.11 90.74 114.63 89.26 114.63
  Q 63.21 114.63 39.57 114.64
  Q 35.74 114.64 31.77 114.28
  Q 27.81 113.93 23.71 114.18
  C 21.74 114.30 19.45 115.20 18.43 116.99
  Q 16.90 119.67 14.38 120.23
  Q 13.94 120.33 13.81 120.76
  Q 13.70 121.12 13.32 121.12
  C 11.91 121.15 10.69 122.58 10.37 123.84
  A 1.39 1.38 22.7 0 0 11.00 125.36
  Q 12.46 126.25 14.04 126.16
  Q 27.49 125.45 40.57 125.29
  Q 86.08 124.76 126.26 126.20
  A 0.50 0.50 0.0 0 0 126.77 125.68
  Q 126.36 116.97 126.38 106.15
  Q 126.43 71.91 126.12 27.80
  C 126.08 22.61 126.60 17.39 126.47 12.14
  Q 126.42 10.09 124.66 9.67
  Q 124.09 9.53 123.72 10.00
  L 118.45 16.71
  L 119.99 13.42
  Q 120.02 13.35 119.95 13.32
  Q 118.46 12.50 119.91 13.34
  Q 119.99 13.39 119.94 13.48
  Q 118.93 15.33 117.13 17.05
  Q 116.55 17.61 116.83 16.85
  Q 117.85 14.09 119.57 12.01
  Q 119.87 11.64 119.97 11.18
  Q 120.53 8.74 122.03 7.26
  Q 122.97 6.33 124.26 6.12
  Q 125.50 5.92 126.68 5.94
  Q 127.62 5.96 127.62 5.02
  L 127.62 4.04
  Q 127.62 3.06 126.64 2.95
  L 120.29 2.22
  Q 117.14 1.30 115.00 1.28
  Q 65.38 0.88 15.75 1.28
  C 11.27 1.31 7.05 0.63 2.65 0.83
  Q 0.64 0.91 0.94 2.90
  C 1.87 9.21 2.32 15.46 2.08 22.03
  Q 1.75 30.93 1.84 39.00
  Q 2.11 63.90 1.91 87.17
  C 1.83 96.23 2.12 105.63 2.11 114.75
  Q 2.11 118.21 3.78 120.39
  A 1.92 1.91 47.1 0 0 6.73 120.50
  L 13.41 113.00
  Z"
/>
<path fill="#ffffff" d="
  M 120.29 2.22
  Q 122.70 3.58 121.00 5.77
  Q 118.45 9.04 113.00 13.53
  C 111.58 14.70 109.85 16.81 108.00 16.73
  C 94.26 16.17 77.91 16.95 64.75 16.78
  Q 41.56 16.48 19.15 16.34
  A 2.05 2.04 -86.2 0 0 17.11 18.13
  Q 16.86 20.05 16.87 22.00
  Q 17.08 61.09 16.84 99.69
  Q 16.84 99.77 17.17 104.03
  Q 17.57 109.31 13.41 113.00
  L 6.73 120.50
  A 1.92 1.91 47.1 0 1 3.78 120.39
  Q 2.11 118.21 2.11 114.75
  C 2.12 105.63 1.83 96.23 1.91 87.17
  Q 2.11 63.90 1.84 39.00
  Q 1.75 30.93 2.08 22.03
  C 2.32 15.46 1.87 9.21 0.94 2.90
  Q 0.64 0.91 2.65 0.83
  C 7.05 0.63 11.27 1.31 15.75 1.28
  Q 65.38 0.88 115.00 1.28
  Q 117.14 1.30 120.29 2.22
  Z"
/>
<path fill="#c3c3c3" d="
  M 120.29 2.22
  L 126.64 2.95
  Q 127.62 3.06 127.62 4.04
  L 127.62 5.02
  Q 127.62 5.96 126.68 5.94
  Q 125.50 5.92 124.26 6.12
  Q 122.97 6.33 122.03 7.26
  Q 120.53 8.74 119.97 11.18
  Q 119.87 11.64 119.57 12.01
  Q 117.85 14.09 116.83 16.85
  Q 116.55 17.61 117.13 17.05
  Q 118.93 15.33 119.94 13.48
  Q 119.99 13.39 119.91 13.34
  Q 118.46 12.50 119.95 13.32
  Q 120.02 13.35 119.99 13.42
  L 118.45 16.71
  Q 117.31 17.77 115.78 18.98
  Q 114.32 20.14 113.88 21.83
  Q 113.68 22.64 114.18 23.22
  Q 114.46 23.55 114.38 23.98
  Q 114.18 25.06 114.68 25.89
  A 1.57 1.55 -59.6 0 1 114.90 26.76
  Q 114.74 32.05 115.10 37.13
  Q 115.33 40.49 114.58 43.85
  Q 113.90 46.88 113.92 50.20
  Q 114.00 66.23 114.09 82.17
  L 113.86 98.57
  L 113.62 107.95
  Q 113.63 110.05 112.37 111.09
  Q 111.56 111.77 110.59 111.75
  Q 90.11 111.47 69.88 111.72
  Q 62.95 111.81 56.19 111.24
  Q 56.00 111.22 55.86 111.36
  Q 55.77 111.45 55.67 111.53
  Q 55.53 111.64 55.34 111.64
  Q 50.98 111.61 46.78 111.62
  C 45.92 111.63 45.66 111.14 44.94 110.98
  Q 42.05 110.34 38.78 110.55
  Q 35.41 110.75 32.35 110.44
  Q 32.13 110.42 32.06 110.63
  Q 31.98 110.84 31.76 110.85
  Q 29.74 110.90 27.88 110.87
  Q 26.06 110.83 24.28 110.48
  Q 22.32 110.10 20.28 110.57
  Q 18.80 110.92 17.10 112.88
  Q 13.14 117.49 7.91 121.01
  Q 7.24 121.46 7.34 120.66
  Q 7.41 120.09 8.09 120.00
  A 0.92 0.91 13.3 0 0 8.68 119.64
  L 13.41 113.00
  Q 17.57 109.31 17.17 104.03
  Q 16.84 99.77 16.84 99.69
  Q 17.08 61.09 16.87 22.00
  Q 16.86 20.05 17.11 18.13
  A 2.05 2.04 -86.2 0 1 19.15 16.34
  Q 41.56 16.48 64.75 16.78
  C 77.91 16.95 94.26 16.17 108.00 16.73
  C 109.85 16.81 111.58 14.70 113.00 13.53
  Q 118.45 9.04 121.00 5.77
  Q 122.70 3.58 120.29 2.22
  Z
  M 53.75 37.00
  L 84.27 37.00
  Q 85.03 37.00 85.03 36.23
  L 85.03 29.76
  A 0.77 0.76 0.0 0 0 84.26 29.00
  L 45.50 28.99
  A 0.51 0.50 -90.0 0 0 45.00 29.50
  L 45.00 62.53
  A 0.44 0.44 0.0 0 0 45.56 62.95
  C 53.49 60.66 71.79 58.36 75.27 69.00
  Q 76.89 73.93 75.02 79.20
  C 70.37 92.29 52.55 88.23 42.89 83.15
  Q 42.00 82.68 42.00 83.69
  L 42.00 91.71
  Q 42.00 92.30 42.55 92.51
  C 55.80 97.59 76.71 99.16 83.23 82.73
  C 86.84 73.61 85.33 62.42 76.05 57.25
  C 69.58 53.64 61.25 53.68 53.65 54.33
  Q 53.00 54.39 53.00 53.74
  L 53.00 37.75
  Q 53.00 37.00 53.75 37.00
  Z"
/>
<path fill="#797a79" d="
  M 113.62 107.95
  L 113.86 98.57
  Q 114.88 90.33 114.09 82.17
  Q 114.00 66.23 113.92 50.20
  Q 113.90 46.88 114.58 43.85
  Q 115.33 40.49 115.10 37.13
  Q 114.74 32.05 114.90 26.76
  A 1.57 1.55 -59.6 0 0 114.68 25.89
  Q 114.18 25.06 114.38 23.98
  Q 114.46 23.55 114.18 23.22
  Q 113.68 22.64 113.88 21.83
  Q 114.32 20.14 115.78 18.98
  Q 117.31 17.77 118.45 16.71
  L 123.72 10.00
  Q 124.09 9.53 124.66 9.67
  Q 126.42 10.09 126.47 12.14
  C 126.60 17.39 126.08 22.61 126.12 27.80
  Q 126.43 71.91 126.38 106.15
  Q 126.36 116.97 126.77 125.68
  A 0.50 0.50 0.0 0 1 126.26 126.20
  Q 86.08 124.76 40.57 125.29
  Q 27.49 125.45 14.04 126.16
  Q 12.46 126.25 11.00 125.36
  A 1.39 1.38 22.7 0 1 10.37 123.84
  C 10.69 122.58 11.91 121.15 13.32 121.12
  Q 13.70 121.12 13.81 120.76
  Q 13.94 120.33 14.38 120.23
  Q 16.90 119.67 18.43 116.99
  C 19.45 115.20 21.74 114.30 23.71 114.18
  Q 27.81 113.93 31.77 114.28
  Q 35.74 114.64 39.57 114.64
  Q 63.21 114.63 89.26 114.63
  C 90.74 114.63 91.97 114.11 93.51 114.18
  Q 94.25 114.21 93.55 113.97
  Q 93.16 113.83 92.74 113.85
  Q 86.87 114.02 81.76 113.80
  Q 65.12 113.08 48.02 113.11
  C 39.39 113.12 30.35 112.57 21.50 112.63
  Q 20.99 112.63 20.63 113.00
  Q 20.09 113.55 19.41 113.92
  Q 18.90 114.20 19.26 113.74
  Q 20.51 112.18 23.19 112.30
  Q 30.97 112.67 38.75 112.61
  C 39.88 112.60 40.77 112.91 41.76 112.89
  Q 54.98 112.71 64.02 113.02
  Q 72.18 113.30 79.43 113.38
  Q 81.63 113.41 83.58 113.54
  Q 86.30 113.73 89.75 113.44
  Q 98.18 112.75 110.08 112.66
  C 113.35 112.64 114.62 111.20 113.62 107.95
  Z"
/>
<path fill="#000000" d="
  M 53.00 37.75
  L 53.00 53.74
  Q 53.00 54.39 53.65 54.33
  C 61.25 53.68 69.58 53.64 76.05 57.25
  C 85.33 62.42 86.84 73.61 83.23 82.73
  C 76.71 99.16 55.80 97.59 42.55 92.51
  Q 42.00 92.30 42.00 91.71
  L 42.00 83.69
  Q 42.00 82.68 42.89 83.15
  C 52.55 88.23 70.37 92.29 75.02 79.20
  Q 76.89 73.93 75.27 69.00
  C 71.79 58.36 53.49 60.66 45.56 62.95
  A 0.44 0.44 0.0 0 1 45.00 62.53
  L 45.00 29.50
  A 0.51 0.50 90.0 0 1 45.50 28.99
  L 84.26 29.00
  A 0.77 0.76 -0.0 0 1 85.03 29.76
  L 85.03 36.23
  Q 85.03 37.00 84.27 37.00
  L 53.75 37.00
  Q 53.00 37.00 53.00 37.75
  Z"
/>
<path fill="#b2b2b2" d="
  M 114.09 82.17
  Q 114.88 90.33 113.86 98.57
  L 114.09 82.17
  Z"
/>
</svg>
