<?xml version="1.0" encoding="UTF-8" standalone="no"?>
<!DOCTYPE svg PUBLIC "-//W3C//DTD SVG 1.1//EN" "http://www.w3.org/Graphics/SVG/1.1/DTD/svg11.dtd">
<svg xmlns="http://www.w3.org/2000/svg" version="1.1" viewBox="0.00 0.00 128.00 128.00">
<g stroke-width="2.00" fill="none" stroke-linecap="butt">
<path stroke="#bbbbbb" vector-effect="non-scaling-stroke" d="
  M 4.21 121.06
  L 4.39 123.99
  Q 4.42 124.49 4.16 124.92
  Q 3.70 125.67 3.63 126.52
  Q 3.57 127.22 4.25 127.40
  Q 6.29 127.96 8.02 127.43
  Q 8.89 127.16 8.42 126.39
  Q 7.77 125.33 7.84 124.07
  Q 7.92 122.59 8.99 121.60
  Q 11.54 119.25 14.51 117.59
  Q 14.87 117.39 15.05 117.02
  Q 16.43 114.30 18.89 112.46
  Q 20.52 111.24 23.19 111.40
  Q 30.99 111.86 38.74 111.91
  Q 39.01 111.91 39.26 111.85
  Q 39.62 111.75 39.86 112.08
  A 0.64 0.61 71.1 0 0 40.36 112.34
  Q 44.91 112.38 49.45 112.46
  Q 50.10 112.47 55.53 112.12
  Q 58.66 111.93 61.66 112.60"
/>
<path stroke="#969696" vector-effect="non-scaling-stroke" d="
  M 61.66 112.60
  Q 45.91 113.25 40.75 112.88
  Q 31.87 112.24 28.39 112.43
  Q 28.37 112.43 28.37 112.42
  Q 28.37 112.41 28.37 112.40
  Q 28.37 112.33 28.44 112.34
  Q 34.34 112.62 40.25 112.69
  Q 54.39 112.87 71.75 112.96
  Q 72.23 112.97 72.22 113.24
  L 32.27 113.33
  Q 31.95 113.33 32.23 113.48
  Q 32.47 113.61 32.74 113.58
  Q 35.64 113.26 38.02 113.49
  Q 42.86 113.95 43.23 113.96
  Q 54.05 114.09 61.68 113.81
  Q 67.03 113.62 72.08 113.83
  Q 81.24 114.22 90.19 114.23
  Q 90.42 114.23 90.42 114.46
  L 90.42 114.47
  Q 90.42 114.62 90.27 114.62
  Q 78.29 114.67 66.26 114.37
  C 62.73 114.28 59.09 114.84 55.41 114.61
  Q 51.49 114.37 47.54 114.38
  Q 39.67 114.40 32.87 113.95
  Q 27.11 113.57 23.31 113.64
  Q 21.80 113.66 20.61 114.59
  Q 19.68 115.32 18.77 116.00
  Q 17.90 116.65 17.70 117.77
  Q 17.60 118.32 17.08 118.52
  Q 16.36 118.79 15.85 119.38
  Q 15.54 119.75 15.08 119.90
  Q 12.54 120.76 10.57 122.70
  A 1.75 1.75 0.0 0 0 11.02 125.52
  Q 12.60 126.30 14.06 126.20
  Q 24.72 125.49 34.84 125.36
  C 64.94 124.97 95.63 124.87 126.11 126.27
  A 0.61 0.60 0.0 0 0 126.75 125.64
  Q 126.36 116.26 126.34 103.82
  Q 126.29 66.67 126.19 26.93
  C 126.17 21.86 126.64 16.72 126.41 11.47
  A 1.61 1.61 0.0 0 0 123.73 10.34
  L 122.28 11.64
  Q 121.88 12.00 121.66 12.49
  Q 119.49 17.30 114.52 19.55"
/>
<path stroke="#bbbbbb" vector-effect="non-scaling-stroke" d="
  M 114.52 19.55
  Q 118.40 14.66 119.64 11.28
  Q 120.84 8.01 122.64 6.30
  Q 123.02 5.93 123.54 5.91
  Q 125.25 5.83 127.14 5.94
  Q 127.34 5.95 127.33 5.76
  L 127.33 5.75
  Q 127.32 5.57 127.15 5.59
  Q 126.00 5.74 124.78 5.77
  Q 124.27 5.78 123.88 5.46
  Q 123.11 4.83 122.15 5.27
  Q 121.68 5.47 121.57 5.97
  Q 121.08 8.15 119.02 9.74
  Q 118.64 10.04 118.46 10.50
  Q 118.18 11.22 117.41 11.15
  A 1.18 1.17 29.0 0 0 116.60 11.38
  L 115.36 12.33
  Q 114.76 12.79 115.24 12.21
  C 116.24 11.02 117.74 10.82 118.74 9.85
  Q 120.70 7.95 121.09 5.76"
/>
<path stroke="#d9d9d9" vector-effect="non-scaling-stroke" d="
  M 121.09 5.76
  Q 122.55 3.69 120.47 2.28
  Q 119.36 1.53 115.00 1.45
  C 89.80 0.97 65.40 1.13 41.33 1.18
  Q 32.67 1.19 23.17 1.30
  Q 13.42 1.41 4.99 0.76
  Q 3.32 0.63 1.85 1.01
  A 1.31 1.31 0.0 0 0 0.88 2.46
  C 1.80 8.78 2.29 14.88 2.10 21.18
  C 1.60 37.05 2.04 53.45 1.97 69.24
  Q 1.87 91.77 2.05 114.25
  Q 2.08 118.03 4.21 121.06"
/>
<path stroke="#e1e1e1" vector-effect="non-scaling-stroke" d="
  M 121.09 5.76
  Q 115.85 11.70 110.28 15.92
  A 3.88 3.87 27.2 0 1 107.82 16.71
  Q 96.42 16.39 85.53 16.34
  Q 52.21 16.19 19.06 16.35
  A 2.11 2.11 0.0 0 0 16.96 18.45
  Q 16.81 59.62 16.92 99.27
  C 16.93 101.94 17.50 104.75 17.08 107.36
  Q 16.71 109.66 14.96 111.34
  Q 10.92 115.24 7.13 120.11
  Q 6.15 121.37 4.21 121.06"
/>
<path stroke="#9e9f9e" vector-effect="non-scaling-stroke" d="
  M 114.52 19.55
  Q 113.17 21.57 113.88 23.06
  Q 114.10 23.51 114.12 24.01
  Q 114.17 24.91 114.50 25.72
  Q 114.66 26.13 114.65 26.57
  L 113.92 55.94"
/>
<path stroke="#bbbbbb" vector-effect="non-scaling-stroke" d="
  M 113.92 55.94
  Q 113.58 66.98 113.56 78.00
  Q 113.55 80.96 114.46 84.65"
/>
<path stroke="#9e9f9e" vector-effect="non-scaling-stroke" d="
  M 114.46 84.65
  Q 114.43 87.81 114.32 91.38
  Q 114.22 94.74 113.85 97.96
  Q 113.29 102.83 113.80 108.52
  Q 113.97 110.38 112.90 111.91
  Q 112.59 112.37 112.03 112.37
  L 77.45 112.69"
/>
<path stroke="#bbbbbb" vector-effect="non-scaling-stroke" d="
  M 77.45 112.69
  Q 74.62 111.47 70.37 112.59"
/>
<path stroke="#9e9f9e" vector-effect="non-scaling-stroke" d="
  M 70.37 112.59
  L 61.66 112.60"
/>
<path stroke="#969696" vector-effect="non-scaling-stroke" d="
  M 72.22 113.24
  Q 75.27 113.88 78.41 113.89
  Q 81.11 113.90 84.57 114.10
  Q 87.99 114.31 90.67 113.78
  Q 93.04 113.31 94.96 113.35
  Q 97.07 113.40 99.31 113.26
  Q 99.43 113.25 99.44 113.13
  L 99.44 113.12
  Q 99.44 113.00 99.31 112.99
  Q 95.84 112.65 92.41 112.97
  Q 87.93 113.39 85.56 113.31
  Q 78.90 113.08 72.22 113.24"
/>
<path stroke="#969696" vector-effect="non-scaling-stroke" d="
  M 70.37 112.59
  L 77.45 112.69"
/>
<path stroke="#969696" vector-effect="non-scaling-stroke" d="
  M 114.46 84.65
  L 113.92 55.94"
/>
<path stroke="#626262" vector-effect="non-scaling-stroke" d="
  M 49.30 56.72
  C 51.08 42.94 60.75 35.29 74.98 37.44
  Q 77.01 37.75 78.79 38.73
  Q 80.00 39.39 80.00 38.01
  L 80.00 31.01
  Q 80.00 29.84 78.85 29.62
  Q 75.38 28.96 72.02 29.00
  C 52.27 29.19 41.81 41.84 40.26 60.23
  C 38.98 75.50 42.00 92.94 59.54 95.72
  C 71.43 97.60 83.16 90.65 85.50 78.58
  C 90.01 55.32 67.03 47.19 49.93 57.14
  Q 49.20 57.57 49.30 56.72"
/>
<path stroke="#969696" vector-effect="non-scaling-stroke" d="
  M 105.8286 113.7162
  A 0.22 0.22 0.0 0 0 105.6044 113.5005
  L 91.0671 113.7796
  A 0.22 0.22 0.0 0 0 90.8514 114.0038
  L 90.8514 114.0038
  A 0.22 0.22 0.0 0 0 91.0756 114.2195
  L 105.6129 113.9404
  A 0.22 0.22 0.0 0 0 105.8286 113.7162
  L 105.8286 113.7162"
/>
<path stroke="#626262" vector-effect="non-scaling-stroke" d="
  M 76.90 71.70
  C 75.81 57.14 58.61 58.48 49.64 63.42
  Q 49.18 63.67 49.15 64.19
  C 48.39 75.69 50.65 89.64 64.95 88.91
  C 74.43 88.43 77.51 79.81 76.90 71.70"
/>
</g>
<path fill="#b2b2b2" d="
  M 0.00 0.00
  L 128.00 0.00
  L 128.00 128.00
  L 0.00 128.00
  L 0.00 0.00
  Z
  M 4.21 121.06
  L 4.39 123.99
  Q 4.42 124.49 4.16 124.92
  Q 3.70 125.67 3.63 126.52
  Q 3.57 127.22 4.25 127.40
  Q 6.29 127.96 8.02 127.43
  Q 8.89 127.16 8.42 126.39
  Q 7.77 125.33 7.84 124.07
  Q 7.92 122.59 8.99 121.60
  Q 11.54 119.25 14.51 117.59
  Q 14.87 117.39 15.05 117.02
  Q 16.43 114.30 18.89 112.46
  Q 20.52 111.24 23.19 111.40
  Q 30.99 111.86 38.74 111.91
  Q 39.01 111.91 39.26 111.85
  Q 39.62 111.75 39.86 112.08
  A 0.64 0.61 71.1 0 0 40.36 112.34
  Q 44.91 112.38 49.45 112.46
  Q 50.10 112.47 55.53 112.12
  Q 58.66 111.93 61.66 112.60
  Q 45.91 113.25 40.75 112.88
  Q 31.87 112.24 28.39 112.43
  Q 28.37 112.43 28.37 112.42
  Q 28.37 112.41 28.37 112.40
  Q 28.37 112.33 28.44 112.34
  Q 34.34 112.62 40.25 112.69
  Q 54.39 112.87 71.75 112.96
  Q 72.23 112.97 72.22 113.24
  L 32.27 113.33
  Q 31.95 113.33 32.23 113.48
  Q 32.47 113.61 32.74 113.58
  Q 35.64 113.26 38.02 113.49
  Q 42.86 113.95 43.23 113.96
  Q 54.05 114.09 61.68 113.81
  Q 67.03 113.62 72.08 113.83
  Q 81.24 114.22 90.19 114.23
  Q 90.42 114.23 90.42 114.46
  L 90.42 114.47
  Q 90.42 114.62 90.27 114.62
  Q 78.29 114.67 66.26 114.37
  C 62.73 114.28 59.09 114.84 55.41 114.61
  Q 51.49 114.37 47.54 114.38
  Q 39.67 114.40 32.87 113.95
  Q 27.11 113.57 23.31 113.64
  Q 21.80 113.66 20.61 114.59
  Q 19.68 115.32 18.77 116.00
  Q 17.90 116.65 17.70 117.77
  Q 17.60 118.32 17.08 118.52
  Q 16.36 118.79 15.85 119.38
  Q 15.54 119.75 15.08 119.90
  Q 12.54 120.76 10.57 122.70
  A 1.75 1.75 0.0 0 0 11.02 125.52
  Q 12.60 126.30 14.06 126.20
  Q 24.72 125.49 34.84 125.36
  C 64.94 124.97 95.63 124.87 126.11 126.27
  A 0.61 0.60 0.0 0 0 126.75 125.64
  Q 126.36 116.26 126.34 103.82
  Q 126.29 66.67 126.19 26.93
  C 126.17 21.86 126.64 16.72 126.41 11.47
  A 1.61 1.61 0.0 0 0 123.73 10.34
  L 122.28 11.64
  Q 121.88 12.00 121.66 12.49
  Q 119.49 17.30 114.52 19.55
  Q 118.40 14.66 119.64 11.28
  Q 120.84 8.01 122.64 6.30
  Q 123.02 5.93 123.54 5.91
  Q 125.25 5.83 127.14 5.94
  Q 127.34 5.95 127.33 5.76
  L 127.33 5.75
  Q 127.32 5.57 127.15 5.59
  Q 126.00 5.74 124.78 5.77
  Q 124.27 5.78 123.88 5.46
  Q 123.11 4.83 122.15 5.27
  Q 121.68 5.47 121.57 5.97
  Q 121.08 8.15 119.02 9.74
  Q 118.64 10.04 118.46 10.50
  Q 118.18 11.22 117.41 11.15
  A 1.18 1.17 29.0 0 0 116.60 11.38
  L 115.36 12.33
  Q 114.76 12.79 115.24 12.21
  C 116.24 11.02 117.74 10.82 118.74 9.85
  Q 120.70 7.95 121.09 5.76
  Q 122.55 3.69 120.47 2.28
  Q 119.36 1.53 115.00 1.45
  C 89.80 0.97 65.40 1.13 41.33 1.18
  Q 32.67 1.19 23.17 1.30
  Q 13.42 1.41 4.99 0.76
  Q 3.32 0.63 1.85 1.01
  A 1.31 1.31 0.0 0 0 0.88 2.46
  C 1.80 8.78 2.29 14.88 2.10 21.18
  C 1.60 37.05 2.04 53.45 1.97 69.24
  Q 1.87 91.77 2.05 114.25
  Q 2.08 118.03 4.21 121.06
  Z"
/>
<path fill="#ffffff" d="
  M 121.09 5.76
  Q 115.85 11.70 110.28 15.92
  A 3.88 3.87 27.2 0 1 107.82 16.71
  Q 96.42 16.39 85.53 16.34
  Q 52.21 16.19 19.06 16.35
  A 2.11 2.11 0.0 0 0 16.96 18.45
  Q 16.81 59.62 16.92 99.27
  C 16.93 101.94 17.50 104.75 17.08 107.36
  Q 16.71 109.66 14.96 111.34
  Q 10.92 115.24 7.13 120.11
  Q 6.15 121.37 4.21 121.06
  Q 2.08 118.03 2.05 114.25
  Q 1.87 91.77 1.97 69.24
  C 2.04 53.45 1.60 37.05 2.10 21.18
  C 2.29 14.88 1.80 8.78 0.88 2.46
  A 1.31 1.31 0.0 0 1 1.85 1.01
  Q 3.32 0.63 4.99 0.76
  Q 13.42 1.41 23.17 1.30
  Q 32.67 1.19 41.33 1.18
  C 65.40 1.13 89.80 0.97 115.00 1.45
  Q 119.36 1.53 120.47 2.28
  Q 122.55 3.69 121.09 5.76
  Z"
/>
<path fill="#c3c3c3" d="
  M 114.52 19.55
  Q 113.17 21.57 113.88 23.06
  Q 114.10 23.51 114.12 24.01
  Q 114.17 24.91 114.50 25.72
  Q 114.66 26.13 114.65 26.57
  L 113.92 55.94
  Q 113.58 66.98 113.56 78.00
  Q 113.55 80.96 114.46 84.65
  Q 114.43 87.81 114.32 91.38
  Q 114.22 94.74 113.85 97.96
  Q 113.29 102.83 113.80 108.52
  Q 113.97 110.38 112.90 111.91
  Q 112.59 112.37 112.03 112.37
  L 77.45 112.69
  Q 74.62 111.47 70.37 112.59
  L 61.66 112.60
  Q 58.66 111.93 55.53 112.12
  Q 50.10 112.47 49.45 112.46
  Q 44.91 112.38 40.36 112.34
  A 0.64 0.61 71.1 0 1 39.86 112.08
  Q 39.62 111.75 39.26 111.85
  Q 39.01 111.91 38.74 111.91
  Q 30.99 111.86 23.19 111.40
  Q 20.52 111.24 18.89 112.46
  Q 16.43 114.30 15.05 117.02
  Q 14.87 117.39 14.51 117.59
  Q 11.54 119.25 8.99 121.60
  Q 7.92 122.59 7.84 124.07
  Q 7.77 125.33 8.42 126.39
  Q 8.89 127.16 8.02 127.43
  Q 6.29 127.96 4.25 127.40
  Q 3.57 127.22 3.63 126.52
  Q 3.70 125.67 4.16 124.92
  Q 4.42 124.49 4.39 123.99
  L 4.21 121.06
  Q 6.15 121.37 7.13 120.11
  Q 10.92 115.24 14.96 111.34
  Q 16.71 109.66 17.08 107.36
  C 17.50 104.75 16.93 101.94 16.92 99.27
  Q 16.81 59.62 16.96 18.45
  A 2.11 2.11 0.0 0 1 19.06 16.35
  Q 52.21 16.19 85.53 16.34
  Q 96.42 16.39 107.82 16.71
  A 3.88 3.87 27.2 0 0 110.28 15.92
  Q 115.85 11.70 121.09 5.76
  Q 120.70 7.95 118.74 9.85
  C 117.74 10.82 116.24 11.02 115.24 12.21
  Q 114.76 12.79 115.36 12.33
  L 116.60 11.38
  A 1.18 1.17 29.0 0 1 117.41 11.15
  Q 118.18 11.22 118.46 10.50
  Q 118.64 10.04 119.02 9.74
  Q 121.08 8.15 121.57 5.97
  Q 121.68 5.47 122.15 5.27
  Q 123.11 4.83 123.88 5.46
  Q 124.27 5.78 124.78 5.77
  Q 126.00 5.74 127.15 5.59
  Q 127.32 5.57 127.33 5.75
  L 127.33 5.76
  Q 127.34 5.95 127.14 5.94
  Q 125.25 5.83 123.54 5.91
  Q 123.02 5.93 122.64 6.30
  Q 120.84 8.01 119.64 11.28
  Q 118.40 14.66 114.52 19.55
  Z
  M 49.30 56.72
  C 51.08 42.94 60.75 35.29 74.98 37.44
  Q 77.01 37.75 78.79 38.73
  Q 80.00 39.39 80.00 38.01
  L 80.00 31.01
  Q 80.00 29.84 78.85 29.62
  Q 75.38 28.96 72.02 29.00
  C 52.27 29.19 41.81 41.84 40.26 60.23
  C 38.98 75.50 42.00 92.94 59.54 95.72
  C 71.43 97.60 83.16 90.65 85.50 78.58
  C 90.01 55.32 67.03 47.19 49.93 57.14
  Q 49.20 57.57 49.30 56.72
  Z"
/>
<path fill="#797a79" d="
  M 72.22 113.24
  Q 75.27 113.88 78.41 113.89
  Q 81.11 113.90 84.57 114.10
  Q 87.99 114.31 90.67 113.78
  Q 93.04 113.31 94.96 113.35
  Q 97.07 113.40 99.31 113.26
  Q 99.43 113.25 99.44 113.13
  L 99.44 113.12
  Q 99.44 113.00 99.31 112.99
  Q 95.84 112.65 92.41 112.97
  Q 87.93 113.39 85.56 113.31
  Q 78.90 113.08 72.22 113.24
  Q 72.23 112.97 71.75 112.96
  Q 54.39 112.87 40.25 112.69
  Q 34.34 112.62 28.44 112.34
  Q 28.37 112.33 28.37 112.40
  Q 28.37 112.41 28.37 112.42
  Q 28.37 112.43 28.39 112.43
  Q 31.87 112.24 40.75 112.88
  Q 45.91 113.25 61.66 112.60
  L 70.37 112.59
  L 77.45 112.69
  L 112.03 112.37
  Q 112.59 112.37 112.90 111.91
  Q 113.97 110.38 113.80 108.52
  Q 113.29 102.83 113.85 97.96
  Q 114.22 94.74 114.32 91.38
  Q 114.43 87.81 114.46 84.65
  L 113.92 55.94
  L 114.65 26.57
  Q 114.66 26.13 114.50 25.72
  Q 114.17 24.91 114.12 24.01
  Q 114.10 23.51 113.88 23.06
  Q 113.17 21.57 114.52 19.55
  Q 119.49 17.30 121.66 12.49
  Q 121.88 12.00 122.28 11.64
  L 123.73 10.34
  A 1.61 1.61 0.0 0 1 126.41 11.47
  C 126.64 16.72 126.17 21.86 126.19 26.93
  Q 126.29 66.67 126.34 103.82
  Q 126.36 116.26 126.75 125.64
  A 0.61 0.60 0.0 0 1 126.11 126.27
  C 95.63 124.87 64.94 124.97 34.84 125.36
  Q 24.72 125.49 14.06 126.20
  Q 12.60 126.30 11.02 125.52
  A 1.75 1.75 0.0 0 1 10.57 122.70
  Q 12.54 120.76 15.08 119.90
  Q 15.54 119.75 15.85 119.38
  Q 16.36 118.79 17.08 118.52
  Q 17.60 118.32 17.70 117.77
  Q 17.90 116.65 18.77 116.00
  Q 19.68 115.32 20.61 114.59
  Q 21.80 113.66 23.31 113.64
  Q 27.11 113.57 32.87 113.95
  Q 39.67 114.40 47.54 114.38
  Q 51.49 114.37 55.41 114.61
  C 59.09 114.84 62.73 114.28 66.26 114.37
  Q 78.29 114.67 90.27 114.62
  Q 90.42 114.62 90.42 114.47
  L 90.42 114.46
  Q 90.42 114.23 90.19 114.23
  Q 81.24 114.22 72.08 113.83
  Q 67.03 113.62 61.68 113.81
  Q 54.05 114.09 43.23 113.96
  Q 42.86 113.95 38.02 113.49
  Q 35.64 113.26 32.74 113.58
  Q 32.47 113.61 32.23 113.48
  Q 31.95 113.33 32.27 113.33
  L 72.22 113.24
  Z
  M 105.8286 113.7162
  A 0.22 0.22 0.0 0 1 105.6129 113.9404
  L 91.0756 114.2195
  A 0.22 0.22 0.0 0 1 90.8514 114.0038
  L 90.8514 114.0038
  A 0.22 0.22 0.0 0 1 91.0671 113.7796
  L 105.6044 113.5005
  A 0.22 0.22 0.0 0 1 105.8286 113.7162
  L 105.8286 113.7162
  Z"
/>
<path fill="#000000" d="
  M 49.93 57.14
  C 67.03 47.19 90.01 55.32 85.50 78.58
  C 83.16 90.65 71.43 97.60 59.54 95.72
  C 42.00 92.94 38.98 75.50 40.26 60.23
  C 41.81 41.84 52.27 29.19 72.02 29.00
  Q 75.38 28.96 78.85 29.62
  Q 80.00 29.84 80.00 31.01
  L 80.00 38.01
  Q 80.00 39.39 78.79 38.73
  Q 77.01 37.75 74.98 37.44
  C 60.75 35.29 51.08 42.94 49.30 56.72
  Q 49.20 57.57 49.93 57.14
  Z
  M 76.90 71.70
  C 75.81 57.14 58.61 58.48 49.64 63.42
  Q 49.18 63.67 49.15 64.19
  C 48.39 75.69 50.65 89.64 64.95 88.91
  C 74.43 88.43 77.51 79.81 76.90 71.70
  Z"
/>
<path fill="#b2b2b2" d="
  M 113.92 55.94
  L 114.46 84.65
  Q 113.55 80.96 113.56 78.00
  Q 113.58 66.98 113.92 55.94
  Z"
/>
<path fill="#c3c3c3" d="
  M 49.64 63.42
  C 58.61 58.48 75.81 57.14 76.90 71.70
  C 77.51 79.81 74.43 88.43 64.95 88.91
  C 50.65 89.64 48.39 75.69 49.15 64.19
  Q 49.18 63.67 49.64 63.42
  Z"
/>
<path fill="#b2b2b2" d="
  M 77.45 112.69
  L 70.37 112.59
  Q 74.62 111.47 77.45 112.69
  Z"
/>
<path fill="#b2b2b2" d="
  M 72.22 113.24
  Q 78.90 113.08 85.56 113.31
  Q 87.93 113.39 92.41 112.97
  Q 95.84 112.65 99.31 112.99
  Q 99.44 113.00 99.44 113.12
  L 99.44 113.13
  Q 99.43 113.25 99.31 113.26
  Q 97.07 113.40 94.96 113.35
  Q 93.04 113.31 90.67 113.78
  Q 87.99 114.31 84.57 114.10
  Q 81.11 113.90 78.41 113.89
  Q 75.27 113.88 72.22 113.24
  Z"
/>
<rect fill="#b2b2b2" x="-7.49" y="-0.22" transform="translate(98.34,113.86) rotate(-1.1)" width="14.98" height="0.44" rx="0.22"/>
</svg>
