<?xml version="1.0" encoding="UTF-8" standalone="no"?>
<!DOCTYPE svg PUBLIC "-//W3C//DTD SVG 1.1//EN" "http://www.w3.org/Graphics/SVG/1.1/DTD/svg11.dtd">
<svg xmlns="http://www.w3.org/2000/svg" version="1.1" viewBox="0.00 0.00 128.00 128.00">
<g stroke-width="2.00" fill="none" stroke-linecap="butt">
<path stroke="#bbbbbb" vector-effect="non-scaling-stroke" d="
  M 2.83 119.76
  Q 5.21 122.58 3.72 126.42
  Q 3.36 127.35 4.36 127.36
  L 5.70 127.38
  A 1.71 1.71 0.0 0 0 7.24 124.90
  Q 6.06 122.57 8.11 121.10
  Q 9.95 119.78 11.97 118.83
  Q 13.71 118.01 15.20 116.47
  Q 17.11 114.50 19.15 112.60
  C 19.95 111.85 21.26 111.58 22.27 111.60
  Q 28.00 111.72 33.62 112.32
  Q 35.00 112.47 40.40 112.53
  Q 44.61 112.58 48.59 114.12"
/>
<path stroke="#969696" vector-effect="non-scaling-stroke" d="
  M 48.59 114.12
  Q 44.35 114.51 43.00 114.40
  Q 38.18 113.98 34.92 113.89
  Q 31.68 113.80 28.60 113.47
  Q 24.97 113.07 22.27 113.71
  Q 19.80 114.28 17.61 117.66
  A 2.56 2.53 0.4 0 1 16.85 118.40
  Q 15.80 119.03 14.97 119.83
  Q 13.97 120.79 12.68 121.43
  Q 11.21 122.16 10.49 123.59
  A 1.46 1.46 0.0 0 0 11.28 125.61
  Q 12.85 126.21 14.17 126.15
  C 24.72 125.65 35.23 125.16 45.99 125.18
  Q 63.25 125.22 80.55 125.23
  Q 85.48 125.24 89.66 125.46
  C 91.92 125.59 94.10 125.33 96.42 125.36
  Q 111.26 125.52 126.08 126.25
  A 0.63 0.63 0.0 0 0 126.74 125.58
  Q 126.42 120.63 126.44 116.15
  Q 126.55 75.44 126.15 34.88
  C 126.08 27.57 126.26 20.82 126.58 13.64
  Q 126.65 12.17 126.22 10.89
  Q 125.77 9.55 124.81 8.43
  A 1.68 1.52 -52.2 0 0 122.20 8.90
  Q 121.98 9.31 121.55 9.41
  A 0.57 0.57 0.0 0 0 121.12 10.02
  Q 121.18 10.83 120.55 11.30
  Q 120.26 11.52 120.11 11.84
  Q 119.35 13.48 118.56 15.12
  Q 118.50 15.25 118.37 15.31
  Q 118.25 15.37 118.12 15.38
  Q 117.86 15.42 117.78 15.67
  Q 117.48 16.64 116.64 16.73"
/>
<path stroke="#bbbbbb" vector-effect="non-scaling-stroke" d="
  M 116.64 16.73
  Q 117.13 15.55 117.58 14.44
  Q 117.98 13.48 118.78 12.30
  Q 120.29 10.09 121.05 7.52
  Q 121.54 5.86 122.08 4.05"
/>
<path stroke="#d9d9d9" vector-effect="non-scaling-stroke" d="
  M 122.08 4.05
  Q 119.94 1.37 115.00 1.33
  Q 89.70 1.15 74.75 1.30
  Q 63.39 1.42 54.75 1.32
  Q 35.17 1.07 15.60 1.37
  C 11.04 1.44 6.40 0.26 1.93 0.98
  A 1.29 1.29 0.0 0 0 0.86 2.45
  Q 2.21 11.18 2.05 17.24
  Q 1.78 26.85 1.88 37.50
  Q 2.14 67.24 1.79 91.00
  Q 1.57 105.96 2.83 119.76"
/>
<path stroke="#e1e1e1" vector-effect="non-scaling-stroke" d="
  M 122.08 4.05
  Q 117.68 9.75 111.86 14.87
  Q 109.76 16.72 107.38 16.66
  Q 85.69 16.08 63.34 16.40
  C 48.48 16.61 33.95 16.33 19.24 16.25
  A 2.39 2.39 0.0 0 0 16.83 18.65
  Q 16.97 61.35 17.05 102.39
  C 17.06 105.00 18.13 107.63 16.07 109.88
  C 14.78 111.27 11.74 113.59 11.46 115.45
  A 1.31 1.28 75.8 0 1 10.99 116.26
  Q 9.87 117.15 9.35 118.51
  Q 9.33 118.57 9.38 118.60
  L 9.60 118.74
  Q 9.73 118.82 9.79 118.69
  Q 10.28 117.68 10.86 117.14
  Q 12.16 115.94 11.01 117.29
  Q 10.23 118.21 9.53 119.24
  Q 9.25 119.66 8.76 119.80
  Q 7.06 120.29 5.55 121.17
  Q 4.96 121.52 2.83 119.76"
/>
<path stroke="#9e9f9f" vector-effect="non-scaling-stroke" d="
  M 116.64 16.73
  Q 115.35 18.11 114.38 19.79
  Q 113.37 21.56 113.58 23.31
  C 113.82 25.17 114.11 27.21 114.09 29.03
  Q 113.67 58.23 114.08 87.39
  C 114.18 94.94 113.57 102.28 114.02 109.75
  A 2.74 2.72 87.8 0 1 111.36 112.64
  L 48.59 114.12"
/>
<path stroke="#626262" vector-effect="non-scaling-stroke" d="
  M 78.21 37.99
  Q 78.71 37.99 78.46 38.43
  L 47.14 94.74
  A 0.14 0.13 -75.0 0 0 47.25 94.94
  Q 51.54 95.07 55.92 94.97
  Q 56.16 94.96 56.27 94.75
  Q 69.80 69.90 84.65 42.48
  C 86.68 38.74 86.00 34.76 86.04 30.77
  Q 86.04 30.00 85.27 30.00
  L 41.50 30.00
  A 0.51 0.50 -89.4 0 0 41.00 30.50
  L 41.00 37.50
  A 0.50 0.49 0.0 0 0 41.50 37.99
  L 78.21 37.99"
/>
<path stroke="#969696" vector-effect="non-scaling-stroke" d="
  M 120.83 12.79
  Q 119.88 13.16 119.69 14.17
  Q 119.60 14.68 119.23 15.05
  Q 118.38 15.89 117.68 16.78
  Q 117.12 17.50 117.91 17.05
  Q 120.56 15.53 120.83 12.79"
/>
<path stroke="#969696" vector-effect="non-scaling-stroke" d="
  M 120.83 12.79
  L 122.93 10.05
  Q 123.29 9.58 123.87 9.65
  Q 124.32 9.69 124.71 9.54
  Q 125.36 9.29 124.71 9.03
  Q 123.19 8.44 122.23 9.62
  Q 121.07 11.05 120.83 12.79"
/>
</g>
<path fill="#b2b2b2" d="
  M 0.00 0.00
  L 128.00 0.00
  L 128.00 128.00
  L 0.00 128.00
  L 0.00 0.00
  Z
  M 2.83 119.76
  Q 5.21 122.58 3.72 126.42
  Q 3.36 127.35 4.36 127.36
  L 5.70 127.38
  A 1.71 1.71 0.0 0 0 7.24 124.90
  Q 6.06 122.57 8.11 121.10
  Q 9.95 119.78 11.97 118.83
  Q 13.71 118.01 15.20 116.47
  Q 17.11 114.50 19.15 112.60
  C 19.95 111.85 21.26 111.58 22.27 111.60
  Q 28.00 111.72 33.62 112.32
  Q 35.00 112.47 40.40 112.53
  Q 44.61 112.58 48.59 114.12
  Q 44.35 114.51 43.00 114.40
  Q 38.18 113.98 34.92 113.89
  Q 31.68 113.80 28.60 113.47
  Q 24.97 113.07 22.27 113.71
  Q 19.80 114.28 17.61 117.66
  A 2.56 2.53 0.4 0 1 16.85 118.40
  Q 15.80 119.03 14.97 119.83
  Q 13.97 120.79 12.68 121.43
  Q 11.21 122.16 10.49 123.59
  A 1.46 1.46 0.0 0 0 11.28 125.61
  Q 12.85 126.21 14.17 126.15
  C 24.72 125.65 35.23 125.16 45.99 125.18
  Q 63.25 125.22 80.55 125.23
  Q 85.48 125.24 89.66 125.46
  C 91.92 125.59 94.10 125.33 96.42 125.36
  Q 111.26 125.52 126.08 126.25
  A 0.63 0.63 0.0 0 0 126.74 125.58
  Q 126.42 120.63 126.44 116.15
  Q 126.55 75.44 126.15 34.88
  C 126.08 27.57 126.26 20.82 126.58 13.64
  Q 126.65 12.17 126.22 10.89
  Q 125.77 9.55 124.81 8.43
  A 1.68 1.52 -52.2 0 0 122.20 8.90
  Q 121.98 9.31 121.55 9.41
  A 0.57 0.57 0.0 0 0 121.12 10.02
  Q 121.18 10.83 120.55 11.30
  Q 120.26 11.52 120.11 11.84
  Q 119.35 13.48 118.56 15.12
  Q 118.50 15.25 118.37 15.31
  Q 118.25 15.37 118.12 15.38
  Q 117.86 15.42 117.78 15.67
  Q 117.48 16.64 116.64 16.73
  Q 117.13 15.55 117.58 14.44
  Q 117.98 13.48 118.78 12.30
  Q 120.29 10.09 121.05 7.52
  Q 121.54 5.86 122.08 4.05
  Q 119.94 1.37 115.00 1.33
  Q 89.70 1.15 74.75 1.30
  Q 63.39 1.42 54.75 1.32
  Q 35.17 1.07 15.60 1.37
  C 11.04 1.44 6.40 0.26 1.93 0.98
  A 1.29 1.29 0.0 0 0 0.86 2.45
  Q 2.21 11.18 2.05 17.24
  Q 1.78 26.85 1.88 37.50
  Q 2.14 67.24 1.79 91.00
  Q 1.57 105.96 2.83 119.76
  Z"
/>
<path fill="#ffffff" d="
  M 122.08 4.05
  Q 117.68 9.75 111.86 14.87
  Q 109.76 16.72 107.38 16.66
  Q 85.69 16.08 63.34 16.40
  C 48.48 16.61 33.95 16.33 19.24 16.25
  A 2.39 2.39 0.0 0 0 16.83 18.65
  Q 16.97 61.35 17.05 102.39
  C 17.06 105.00 18.13 107.63 16.07 109.88
  C 14.78 111.27 11.74 113.59 11.46 115.45
  A 1.31 1.28 75.8 0 1 10.99 116.26
  Q 9.87 117.15 9.35 118.51
  Q 9.33 118.57 9.38 118.60
  L 9.60 118.74
  Q 9.73 118.82 9.79 118.69
  Q 10.28 117.68 10.86 117.14
  Q 12.16 115.94 11.01 117.29
  Q 10.23 118.21 9.53 119.24
  Q 9.25 119.66 8.76 119.80
  Q 7.06 120.29 5.55 121.17
  Q 4.96 121.52 2.83 119.76
  Q 1.57 105.96 1.79 91.00
  Q 2.14 67.24 1.88 37.50
  Q 1.78 26.85 2.05 17.24
  Q 2.21 11.18 0.86 2.45
  A 1.29 1.29 0.0 0 1 1.93 0.98
  C 6.40 0.26 11.04 1.44 15.60 1.37
  Q 35.17 1.07 54.75 1.32
  Q 63.39 1.42 74.75 1.30
  Q 89.70 1.15 115.00 1.33
  Q 119.94 1.37 122.08 4.05
  Z"
/>
<path fill="#c3c3c3" d="
  M 122.08 4.05
  Q 121.54 5.86 121.05 7.52
  Q 120.29 10.09 118.78 12.30
  Q 117.98 13.48 117.58 14.44
  Q 117.13 15.55 116.64 16.73
  Q 115.35 18.11 114.38 19.79
  Q 113.37 21.56 113.58 23.31
  C 113.82 25.17 114.11 27.21 114.09 29.03
  Q 113.67 58.23 114.08 87.39
  C 114.18 94.94 113.57 102.28 114.02 109.75
  A 2.74 2.72 87.8 0 1 111.36 112.64
  L 48.59 114.12
  Q 44.61 112.58 40.40 112.53
  Q 35.00 112.47 33.62 112.32
  Q 28.00 111.72 22.27 111.60
  C 21.26 111.58 19.95 111.85 19.15 112.60
  Q 17.11 114.50 15.20 116.47
  Q 13.71 118.01 11.97 118.83
  Q 9.95 119.78 8.11 121.10
  Q 6.06 122.57 7.24 124.90
  A 1.71 1.71 0.0 0 1 5.70 127.38
  L 4.36 127.36
  Q 3.36 127.35 3.72 126.42
  Q 5.21 122.58 2.83 119.76
  Q 4.96 121.52 5.55 121.17
  Q 7.06 120.29 8.76 119.80
  Q 9.25 119.66 9.53 119.24
  Q 10.23 118.21 11.01 117.29
  Q 12.16 115.94 10.86 117.14
  Q 10.28 117.68 9.79 118.69
  Q 9.73 118.82 9.60 118.74
  L 9.38 118.60
  Q 9.33 118.57 9.35 118.51
  Q 9.87 117.15 10.99 116.26
  A 1.31 1.28 75.8 0 0 11.46 115.45
  C 11.74 113.59 14.78 111.27 16.07 109.88
  C 18.13 107.63 17.06 105.00 17.05 102.39
  Q 16.97 61.35 16.83 18.65
  A 2.39 2.39 0.0 0 1 19.24 16.25
  C 33.95 16.33 48.48 16.61 63.34 16.40
  Q 85.69 16.08 107.38 16.66
  Q 109.76 16.72 111.86 14.87
  Q 117.68 9.75 122.08 4.05
  Z
  M 78.21 37.99
  Q 78.71 37.99 78.46 38.43
  L 47.14 94.74
  A 0.14 0.13 -75.0 0 0 47.25 94.94
  Q 51.54 95.07 55.92 94.97
  Q 56.16 94.96 56.27 94.75
  Q 69.80 69.90 84.65 42.48
  C 86.68 38.74 86.00 34.76 86.04 30.77
  Q 86.04 30.00 85.27 30.00
  L 41.50 30.00
  A 0.51 0.50 -89.4 0 0 41.00 30.50
  L 41.00 37.50
  A 0.50 0.49 0.0 0 0 41.50 37.99
  L 78.21 37.99
  Z"
/>
<path fill="#797a7a" d="
  M 48.59 114.12
  L 111.36 112.64
  A 2.74 2.72 87.8 0 0 114.02 109.75
  C 113.57 102.28 114.18 94.94 114.08 87.39
  Q 113.67 58.23 114.09 29.03
  C 114.11 27.21 113.82 25.17 113.58 23.31
  Q 113.37 21.56 114.38 19.79
  Q 115.35 18.11 116.64 16.73
  Q 117.48 16.64 117.78 15.67
  Q 117.86 15.42 118.12 15.38
  Q 118.25 15.37 118.37 15.31
  Q 118.50 15.25 118.56 15.12
  Q 119.35 13.48 120.11 11.84
  Q 120.26 11.52 120.55 11.30
  Q 121.18 10.83 121.12 10.02
  A 0.57 0.57 0.0 0 1 121.55 9.41
  Q 121.98 9.31 122.20 8.90
  A 1.68 1.52 -52.2 0 1 124.81 8.43
  Q 125.77 9.55 126.22 10.89
  Q 126.65 12.17 126.58 13.64
  C 126.26 20.82 126.08 27.57 126.15 34.88
  Q 126.55 75.44 126.44 116.15
  Q 126.42 120.63 126.74 125.58
  A 0.63 0.63 0.0 0 1 126.08 126.25
  Q 111.26 125.52 96.42 125.36
  C 94.10 125.33 91.92 125.59 89.66 125.46
  Q 85.48 125.24 80.55 125.23
  Q 63.25 125.22 45.99 125.18
  C 35.23 125.16 24.72 125.65 14.17 126.15
  Q 12.85 126.21 11.28 125.61
  A 1.46 1.46 0.0 0 1 10.49 123.59
  Q 11.21 122.16 12.68 121.43
  Q 13.97 120.79 14.97 119.83
  Q 15.80 119.03 16.85 118.40
  A 2.56 2.53 0.4 0 0 17.61 117.66
  Q 19.80 114.28 22.27 113.71
  Q 24.97 113.07 28.60 113.47
  Q 31.68 113.80 34.92 113.89
  Q 38.18 113.98 43.00 114.40
  Q 44.35 114.51 48.59 114.12
  Z
  M 120.83 12.79
  Q 119.88 13.16 119.69 14.17
  Q 119.60 14.68 119.23 15.05
  Q 118.38 15.89 117.68 16.78
  Q 117.12 17.50 117.91 17.05
  Q 120.56 15.53 120.83 12.79
  L 122.93 10.05
  Q 123.29 9.58 123.87 9.65
  Q 124.32 9.69 124.71 9.54
  Q 125.36 9.29 124.71 9.03
  Q 123.19 8.44 122.23 9.62
  Q 121.07 11.05 120.83 12.79
  Z"
/>
<path fill="#b2b2b2" d="
  M 120.83 12.79
  Q 121.07 11.05 122.23 9.62
  Q 123.19 8.44 124.71 9.03
  Q 125.36 9.29 124.71 9.54
  Q 124.32 9.69 123.87 9.65
  Q 123.29 9.58 122.93 10.05
  L 120.83 12.79
  Z"
/>
<path fill="#b2b2b2" d="
  M 120.83 12.79
  Q 120.56 15.53 117.91 17.05
  Q 117.12 17.50 117.68 16.78
  Q 118.38 15.89 119.23 15.05
  Q 119.60 14.68 119.69 14.17
  Q 119.88 13.16 120.83 12.79
  Z"
/>
<path fill="#000000" d="
  M 78.21 37.99
  L 41.50 37.99
  A 0.50 0.49 0.0 0 1 41.00 37.50
  L 41.00 30.50
  A 0.51 0.50 -89.4 0 1 41.50 30.00
  L 85.27 30.00
  Q 86.04 30.00 86.04 30.77
  C 86.00 34.76 86.68 38.74 84.65 42.48
  Q 69.80 69.90 56.27 94.75
  Q 56.16 94.96 55.92 94.97
  Q 51.54 95.07 47.25 94.94
  A 0.14 0.13 -75.0 0 1 47.14 94.74
  L 78.46 38.43
  Q 78.71 37.99 78.21 37.99
  Z"
/>
</svg>
