<?xml version="1.0" encoding="UTF-8" standalone="no"?>
<!DOCTYPE svg PUBLIC "-//W3C//DTD SVG 1.1//EN" "http://www.w3.org/Graphics/SVG/1.1/DTD/svg11.dtd">
<svg xmlns="http://www.w3.org/2000/svg" version="1.1" viewBox="0.00 0.00 128.00 128.00">
<g stroke-width="2.00" fill="none" stroke-linecap="butt">
<path stroke="#bbbbbb" vector-effect="non-scaling-stroke" d="
  M 5.68 121.13
  L 7.67 120.33
  Q 8.15 120.14 8.64 120.31
  Q 8.83 120.38 9.02 120.37
  Q 9.52 120.34 9.91 120.02
  Q 11.07 119.04 12.39 118.34
  Q 13.68 117.67 14.60 116.47
  Q 17.21 113.04 19.65 111.55
  Q 21.44 110.47 24.16 110.98
  Q 24.34 111.01 24.32 111.25
  Q 24.30 111.49 24.54 111.49
  L 70.75 111.62
  Q 71.09 111.62 71.09 111.27
  Q 71.10 111.05 71.32 111.10
  C 72.21 111.32 73.37 111.05 74.36 111.24
  Q 75.54 111.46 76.64 111.38
  Q 81.69 111.01 88.20 111.36
  C 95.55 111.75 103.05 111.59 110.49 111.63
  C 112.75 111.64 113.60 110.32 113.55 108.25"
/>
<path stroke="#969696" vector-effect="non-scaling-stroke" d="
  M 113.55 108.25
  Q 114.75 111.06 113.10 112.41
  Q 112.17 113.18 109.73 113.28
  C 103.86 113.54 97.67 113.58 91.67 114.29
  C 86.64 114.89 81.85 114.23 76.89 114.20
  Q 59.52 114.09 41.03 114.14
  Q 40.58 114.14 40.20 113.87
  Q 39.89 113.65 39.50 113.63
  Q 30.92 113.19 22.72 113.38
  Q 20.67 113.42 19.18 114.82
  Q 18.22 115.71 16.94 117.31
  Q 15.82 118.70 14.48 119.62
  Q 12.41 121.04 10.49 122.48
  A 1.68 1.68 0.0 0 0 10.55 125.21
  Q 12.18 126.31 14.25 126.19
  C 37.78 124.77 59.65 125.12 84.01 125.21
  Q 104.00 125.28 126.07 126.27
  A 0.67 0.66 -0.4 0 0 126.77 125.57
  Q 126.48 120.43 126.46 115.39
  Q 126.28 70.64 126.11 28.35
  C 126.08 22.90 126.67 17.43 126.44 12.11
  Q 126.33 9.47 123.74 9.42
  Q 122.25 9.40 121.90 10.90
  Q 121.80 11.30 122.04 10.97
  Q 122.65 10.13 123.47 9.63
  Q 124.39 9.06 123.69 9.89
  Q 122.44 11.38 120.09 15.28
  Q 118.63 17.69 114.51 19.60"
/>
<path stroke="#bbbbbb" vector-effect="non-scaling-stroke" d="
  M 114.51 19.60
  Q 116.41 16.57 117.90 13.78
  C 118.59 12.48 119.60 11.65 119.85 10.04
  Q 119.97 9.26 119.41 9.81
  Q 118.78 10.43 118.58 11.24
  Q 118.46 11.73 118.07 12.06
  Q 117.57 12.47 117.08 12.18
  Q 116.71 11.96 116.33 12.17
  L 113.01 13.95"
/>
<path stroke="#d9d9d9" vector-effect="non-scaling-stroke" d="
  M 113.01 13.95
  L 114.26 12.81"
/>
<path stroke="#bbbbbb" vector-effect="non-scaling-stroke" d="
  M 114.26 12.81
  Q 116.62 11.20 118.87 9.62
  Q 119.77 9.00 120.75 6.28"
/>
<path stroke="#d9d9d9" vector-effect="non-scaling-stroke" d="
  M 120.75 6.28
  L 121.44 5.06
  A 2.01 2.01 0.0 0 0 120.17 2.13
  Q 117.08 1.36 114.50 1.32
  C 102.18 1.12 90.01 1.00 77.51 1.16
  Q 62.79 1.36 49.09 1.12
  C 37.40 0.92 25.33 1.39 13.76 1.25
  C 10.10 1.20 5.45 0.19 1.82 1.02
  A 1.22 1.22 0.0 0 0 0.88 2.39
  C 3.01 16.26 1.67 30.05 1.84 43.91
  Q 2.10 66.00 1.93 87.09
  C 1.85 96.32 2.09 105.54 2.07 115.00
  Q 2.05 120.73 5.68 121.13"
/>
<path stroke="#e1e1e1" vector-effect="non-scaling-stroke" d="
  M 120.75 6.28
  L 114.26 12.81"
/>
<path stroke="#e1e1e1" vector-effect="non-scaling-stroke" d="
  M 113.01 13.95
  C 110.98 15.71 109.27 16.86 106.42 16.75
  Q 91.84 16.17 77.25 16.24
  Q 49.15 16.36 19.43 16.27
  Q 16.91 16.26 16.91 18.78
  Q 16.91 59.28 16.84 99.35
  C 16.84 101.68 17.29 105.39 16.74 108.56
  Q 16.65 109.05 16.32 109.41
  L 5.68 121.13"
/>
<path stroke="#9e9e9e" vector-effect="non-scaling-stroke" d="
  M 113.55 108.25
  Q 113.71 106.67 113.37 103.00
  Q 113.09 99.98 113.61 94.51
  Q 114.13 89.12 114.01 79.74
  Q 113.79 63.30 113.80 45.77
  C 113.80 43.45 113.55 41.29 113.73 38.91
  Q 114.13 33.71 113.60 21.00
  Q 113.58 20.54 113.90 20.22
  L 114.51 19.60"
/>
<path stroke="#626262" vector-effect="non-scaling-stroke" d="
  M 73.88 60.10
  C 87.40 53.68 87.57 35.45 72.56 30.60
  C 62.09 27.22 46.68 28.97 42.19 40.22
  Q 38.66 49.05 45.13 55.77
  C 46.67 57.37 48.97 58.66 50.96 59.81
  Q 51.71 60.24 50.91 60.59
  C 33.52 68.15 35.84 90.16 53.73 94.90
  C 63.80 97.56 75.67 95.77 82.39 87.31
  Q 86.42 82.22 85.92 75.15
  C 85.42 68.02 80.47 63.98 73.88 60.92
  Q 73.01 60.51 73.88 60.10"
/>
<path stroke="#626262" vector-effect="non-scaling-stroke" d="
  M 75.56 48.90
  C 78.67 36.34 64.79 32.77 55.97 36.36
  C 48.32 39.48 48.06 48.64 54.92 52.85
  Q 59.95 55.94 67.19 58.12
  Q 67.77 58.30 68.30 57.99
  Q 74.18 54.48 75.56 48.90"
/>
<path stroke="#626262" vector-effect="non-scaling-stroke" d="
  M 71.34 67.87
  C 66.97 65.46 62.28 64.07 57.57 62.52
  Q 56.98 62.33 56.44 62.63
  C 50.63 65.86 47.09 71.62 48.23 78.27
  C 50.69 92.49 75.87 93.06 76.97 77.68
  Q 77.43 71.23 71.34 67.87"
/>
</g>
<path fill="#b2b2b2" d="
  M 0.00 0.00
  L 128.00 0.00
  L 128.00 128.00
  L 0.00 128.00
  L 0.00 0.00
  Z
  M 5.68 121.13
  L 7.67 120.33
  Q 8.15 120.14 8.64 120.31
  Q 8.83 120.38 9.02 120.37
  Q 9.52 120.34 9.91 120.02
  Q 11.07 119.04 12.39 118.34
  Q 13.68 117.67 14.60 116.47
  Q 17.21 113.04 19.65 111.55
  Q 21.44 110.47 24.16 110.98
  Q 24.34 111.01 24.32 111.25
  Q 24.30 111.49 24.54 111.49
  L 70.75 111.62
  Q 71.09 111.62 71.09 111.27
  Q 71.10 111.05 71.32 111.10
  C 72.21 111.32 73.37 111.05 74.36 111.24
  Q 75.54 111.46 76.64 111.38
  Q 81.69 111.01 88.20 111.36
  C 95.55 111.75 103.05 111.59 110.49 111.63
  C 112.75 111.64 113.60 110.32 113.55 108.25
  Q 114.75 111.06 113.10 112.41
  Q 112.17 113.18 109.73 113.28
  C 103.86 113.54 97.67 113.58 91.67 114.29
  C 86.64 114.89 81.85 114.23 76.89 114.20
  Q 59.52 114.09 41.03 114.14
  Q 40.58 114.14 40.20 113.87
  Q 39.89 113.65 39.50 113.63
  Q 30.92 113.19 22.72 113.38
  Q 20.67 113.42 19.18 114.82
  Q 18.22 115.71 16.94 117.31
  Q 15.82 118.70 14.48 119.62
  Q 12.41 121.04 10.49 122.48
  A 1.68 1.68 0.0 0 0 10.55 125.21
  Q 12.18 126.31 14.25 126.19
  C 37.78 124.77 59.65 125.12 84.01 125.21
  Q 104.00 125.28 126.07 126.27
  A 0.67 0.66 -0.4 0 0 126.77 125.57
  Q 126.48 120.43 126.46 115.39
  Q 126.28 70.64 126.11 28.35
  C 126.08 22.90 126.67 17.43 126.44 12.11
  Q 126.33 9.47 123.74 9.42
  Q 122.25 9.40 121.90 10.90
  Q 121.80 11.30 122.04 10.97
  Q 122.65 10.13 123.47 9.63
  Q 124.39 9.06 123.69 9.89
  Q 122.44 11.38 120.09 15.28
  Q 118.63 17.69 114.51 19.60
  Q 116.41 16.57 117.90 13.78
  C 118.59 12.48 119.60 11.65 119.85 10.04
  Q 119.97 9.26 119.41 9.81
  Q 118.78 10.43 118.58 11.24
  Q 118.46 11.73 118.07 12.06
  Q 117.57 12.47 117.08 12.18
  Q 116.71 11.96 116.33 12.17
  L 113.01 13.95
  L 114.26 12.81
  Q 116.62 11.20 118.87 9.62
  Q 119.77 9.00 120.75 6.28
  L 121.44 5.06
  A 2.01 2.01 0.0 0 0 120.17 2.13
  Q 117.08 1.36 114.50 1.32
  C 102.18 1.12 90.01 1.00 77.51 1.16
  Q 62.79 1.36 49.09 1.12
  C 37.40 0.92 25.33 1.39 13.76 1.25
  C 10.10 1.20 5.45 0.19 1.82 1.02
  A 1.22 1.22 0.0 0 0 0.88 2.39
  C 3.01 16.26 1.67 30.05 1.84 43.91
  Q 2.10 66.00 1.93 87.09
  C 1.85 96.32 2.09 105.54 2.07 115.00
  Q 2.05 120.73 5.68 121.13
  Z"
/>
<path fill="#ffffff" d="
  M 120.75 6.28
  L 114.26 12.81
  L 113.01 13.95
  C 110.98 15.71 109.27 16.86 106.42 16.75
  Q 91.84 16.17 77.25 16.24
  Q 49.15 16.36 19.43 16.27
  Q 16.91 16.26 16.91 18.78
  Q 16.91 59.28 16.84 99.35
  C 16.84 101.68 17.29 105.39 16.74 108.56
  Q 16.65 109.05 16.32 109.41
  L 5.68 121.13
  Q 2.05 120.73 2.07 115.00
  C 2.09 105.54 1.85 96.32 1.93 87.09
  Q 2.10 66.00 1.84 43.91
  C 1.67 30.05 3.01 16.26 0.88 2.39
  A 1.22 1.22 0.0 0 1 1.82 1.02
  C 5.45 0.19 10.10 1.20 13.76 1.25
  C 25.33 1.39 37.40 0.92 49.09 1.12
  Q 62.79 1.36 77.51 1.16
  C 90.01 1.00 102.18 1.12 114.50 1.32
  Q 117.08 1.36 120.17 2.13
  A 2.01 2.01 0.0 0 1 121.44 5.06
  L 120.75 6.28
  Z"
/>
<path fill="#c3c3c3" d="
  M 120.75 6.28
  Q 119.77 9.00 118.87 9.62
  Q 116.62 11.20 114.26 12.81
  L 120.75 6.28
  Z"
/>
<path fill="#797979" d="
  M 113.55 108.25
  Q 113.71 106.67 113.37 103.00
  Q 113.09 99.98 113.61 94.51
  Q 114.13 89.12 114.01 79.74
  Q 113.79 63.30 113.80 45.77
  C 113.80 43.45 113.55 41.29 113.73 38.91
  Q 114.13 33.71 113.60 21.00
  Q 113.58 20.54 113.90 20.22
  L 114.51 19.60
  Q 118.63 17.69 120.09 15.28
  Q 122.44 11.38 123.69 9.89
  Q 124.39 9.06 123.47 9.63
  Q 122.65 10.13 122.04 10.97
  Q 121.80 11.30 121.90 10.90
  Q 122.25 9.40 123.74 9.42
  Q 126.33 9.47 126.44 12.11
  C 126.67 17.43 126.08 22.90 126.11 28.35
  Q 126.28 70.64 126.46 115.39
  Q 126.48 120.43 126.77 125.57
  A 0.67 0.66 -0.4 0 1 126.07 126.27
  Q 104.00 125.28 84.01 125.21
  C 59.65 125.12 37.78 124.77 14.25 126.19
  Q 12.18 126.31 10.55 125.21
  A 1.68 1.68 0.0 0 1 10.49 122.48
  Q 12.41 121.04 14.48 119.62
  Q 15.82 118.70 16.94 117.31
  Q 18.22 115.71 19.18 114.82
  Q 20.67 113.42 22.72 113.38
  Q 30.92 113.19 39.50 113.63
  Q 39.89 113.65 40.20 113.87
  Q 40.58 114.14 41.03 114.14
  Q 59.52 114.09 76.89 114.20
  C 81.85 114.23 86.64 114.89 91.67 114.29
  C 97.67 113.58 103.86 113.54 109.73 113.28
  Q 112.17 113.18 113.10 112.41
  Q 114.75 111.06 113.55 108.25
  Z"
/>
<path fill="#c3c3c3" d="
  M 114.51 19.60
  L 113.90 20.22
  Q 113.58 20.54 113.60 21.00
  Q 114.13 33.71 113.73 38.91
  C 113.55 41.29 113.80 43.45 113.80 45.77
  Q 113.79 63.30 114.01 79.74
  Q 114.13 89.12 113.61 94.51
  Q 113.09 99.98 113.37 103.00
  Q 113.71 106.67 113.55 108.25
  C 113.60 110.32 112.75 111.64 110.49 111.63
  C 103.05 111.59 95.55 111.75 88.20 111.36
  Q 81.69 111.01 76.64 111.38
  Q 75.54 111.46 74.36 111.24
  C 73.37 111.05 72.21 111.32 71.32 111.10
  Q 71.10 111.05 71.09 111.27
  Q 71.09 111.62 70.75 111.62
  L 24.54 111.49
  Q 24.30 111.49 24.32 111.25
  Q 24.34 111.01 24.16 110.98
  Q 21.44 110.47 19.65 111.55
  Q 17.21 113.04 14.60 116.47
  Q 13.68 117.67 12.39 118.34
  Q 11.07 119.04 9.91 120.02
  Q 9.52 120.34 9.02 120.37
  Q 8.83 120.38 8.64 120.31
  Q 8.15 120.14 7.67 120.33
  L 5.68 121.13
  L 16.32 109.41
  Q 16.65 109.05 16.74 108.56
  C 17.29 105.39 16.84 101.68 16.84 99.35
  Q 16.91 59.28 16.91 18.78
  Q 16.91 16.26 19.43 16.27
  Q 49.15 16.36 77.25 16.24
  Q 91.84 16.17 106.42 16.75
  C 109.27 16.86 110.98 15.71 113.01 13.95
  L 116.33 12.17
  Q 116.71 11.96 117.08 12.18
  Q 117.57 12.47 118.07 12.06
  Q 118.46 11.73 118.58 11.24
  Q 118.78 10.43 119.41 9.81
  Q 119.97 9.26 119.85 10.04
  C 119.60 11.65 118.59 12.48 117.90 13.78
  Q 116.41 16.57 114.51 19.60
  Z
  M 73.88 60.10
  C 87.40 53.68 87.57 35.45 72.56 30.60
  C 62.09 27.22 46.68 28.97 42.19 40.22
  Q 38.66 49.05 45.13 55.77
  C 46.67 57.37 48.97 58.66 50.96 59.81
  Q 51.71 60.24 50.91 60.59
  C 33.52 68.15 35.84 90.16 53.73 94.90
  C 63.80 97.56 75.67 95.77 82.39 87.31
  Q 86.42 82.22 85.92 75.15
  C 85.42 68.02 80.47 63.98 73.88 60.92
  Q 73.01 60.51 73.88 60.10
  Z"
/>
<path fill="#000000" d="
  M 73.88 60.92
  C 80.47 63.98 85.42 68.02 85.92 75.15
  Q 86.42 82.22 82.39 87.31
  C 75.67 95.77 63.80 97.56 53.73 94.90
  C 35.84 90.16 33.52 68.15 50.91 60.59
  Q 51.71 60.24 50.96 59.81
  C 48.97 58.66 46.67 57.37 45.13 55.77
  Q 38.66 49.05 42.19 40.22
  C 46.68 28.97 62.09 27.22 72.56 30.60
  C 87.57 35.45 87.40 53.68 73.88 60.10
  Q 73.01 60.51 73.88 60.92
  Z
  M 75.56 48.90
  C 78.67 36.34 64.79 32.77 55.97 36.36
  C 48.32 39.48 48.06 48.64 54.92 52.85
  Q 59.95 55.94 67.19 58.12
  Q 67.77 58.30 68.30 57.99
  Q 74.18 54.48 75.56 48.90
  Z
  M 71.34 67.87
  C 66.97 65.46 62.28 64.07 57.57 62.52
  Q 56.98 62.33 56.44 62.63
  C 50.63 65.86 47.09 71.62 48.23 78.27
  C 50.69 92.49 75.87 93.06 76.97 77.68
  Q 77.43 71.23 71.34 67.87
  Z"
/>
<path fill="#c3c3c3" d="
  M 55.97 36.36
  C 64.79 32.77 78.67 36.34 75.56 48.90
  Q 74.18 54.48 68.30 57.99
  Q 67.77 58.30 67.19 58.12
  Q 59.95 55.94 54.92 52.85
  C 48.06 48.64 48.32 39.48 55.97 36.36
  Z"
/>
<path fill="#c3c3c3" d="
  M 57.57 62.52
  C 62.28 64.07 66.97 65.46 71.34 67.87
  Q 77.43 71.23 76.97 77.68
  C 75.87 93.06 50.69 92.49 48.23 78.27
  C 47.09 71.62 50.63 65.86 56.44 62.63
  Q 56.98 62.33 57.57 62.52
  Z"
/>
</svg>
